G04 EAGLE Gerber RS-274X export*
G75*
%MOMM*%
%FSLAX34Y34*%
%LPD*%
%INTop Copper*%
%IPPOS*%
%AMOC8*
5,1,8,0,0,1.08239X$1,22.5*%
G01*
%ADD10C,0.653200*%
%ADD11C,0.790000*%
%ADD12C,1.016000*%
%ADD13C,1.879600*%
%ADD14P,2.749271X8X112.500000*%
%ADD15C,0.304800*%
%ADD16C,0.203200*%
%ADD17C,0.177800*%
%ADD18C,0.756400*%
%ADD19C,0.406400*%


D10*
X418800Y143025D03*
X425300Y136525D03*
X431800Y143025D03*
X438300Y136525D03*
X444800Y143025D03*
D11*
X416800Y127225D03*
X446800Y127225D03*
X446800Y152225D03*
X416800Y152225D03*
D12*
X398550Y136825D02*
X398550Y126665D01*
X465050Y126665D02*
X465050Y136825D01*
D10*
X545800Y143025D03*
X552300Y136525D03*
X558800Y143025D03*
X565300Y136525D03*
X571800Y143025D03*
D11*
X543800Y127225D03*
X573800Y127225D03*
X573800Y152225D03*
X543800Y152225D03*
D12*
X525550Y136825D02*
X525550Y126665D01*
X592050Y126665D02*
X592050Y136825D01*
D10*
X418800Y206525D03*
X425300Y200025D03*
X431800Y206525D03*
X438300Y200025D03*
X444800Y206525D03*
D11*
X416800Y190725D03*
X446800Y190725D03*
X446800Y215725D03*
X416800Y215725D03*
D12*
X398550Y200325D02*
X398550Y190165D01*
X465050Y190165D02*
X465050Y200325D01*
D10*
X545800Y206525D03*
X552300Y200025D03*
X558800Y206525D03*
X565300Y200025D03*
X571800Y206525D03*
D11*
X543800Y190725D03*
X573800Y190725D03*
X573800Y215725D03*
X543800Y215725D03*
D12*
X525550Y200325D02*
X525550Y190165D01*
X592050Y190165D02*
X592050Y200325D01*
D10*
X418800Y270025D03*
X425300Y263525D03*
X431800Y270025D03*
X438300Y263525D03*
X444800Y270025D03*
D11*
X416800Y254225D03*
X446800Y254225D03*
X446800Y279225D03*
X416800Y279225D03*
D12*
X398550Y263825D02*
X398550Y253665D01*
X465050Y253665D02*
X465050Y263825D01*
D10*
X545800Y270025D03*
X552300Y263525D03*
X558800Y270025D03*
X565300Y263525D03*
X571800Y270025D03*
D11*
X543800Y254225D03*
X573800Y254225D03*
X573800Y279225D03*
X543800Y279225D03*
D12*
X525550Y263825D02*
X525550Y253665D01*
X592050Y253665D02*
X592050Y263825D01*
D13*
X584200Y12700D03*
X584200Y38100D03*
X609600Y12700D03*
X609600Y38100D03*
X635000Y12700D03*
X635000Y38100D03*
D10*
X307005Y181460D03*
X300505Y187960D03*
X294005Y181460D03*
X287505Y187960D03*
X281005Y181460D03*
D11*
X309005Y197260D03*
X279005Y197260D03*
X279005Y172260D03*
X309005Y172260D03*
D12*
X327255Y187660D02*
X327255Y197820D01*
X260755Y197820D02*
X260755Y187660D01*
D10*
X312720Y77320D03*
X306220Y83820D03*
X299720Y77320D03*
X293220Y83820D03*
X286720Y77320D03*
D11*
X314720Y93120D03*
X284720Y93120D03*
X284720Y68120D03*
X314720Y68120D03*
D12*
X332970Y83520D02*
X332970Y93680D01*
X266470Y93680D02*
X266470Y83520D01*
D10*
X307640Y244960D03*
X301140Y251460D03*
X294640Y244960D03*
X288140Y251460D03*
X281640Y244960D03*
D11*
X309640Y260760D03*
X279640Y260760D03*
X279640Y235760D03*
X309640Y235760D03*
D12*
X327890Y251160D02*
X327890Y261320D01*
X261390Y261320D02*
X261390Y251160D01*
D13*
X25400Y12700D03*
X25400Y38100D03*
X50800Y12700D03*
X50800Y38100D03*
X76200Y12700D03*
X76200Y38100D03*
D14*
X25400Y76200D03*
X57150Y76200D03*
X88900Y76200D03*
D15*
X535940Y196665D02*
X545800Y206525D01*
X535940Y196665D02*
X535940Y185420D01*
X525780Y175260D01*
X513080Y175260D01*
X502920Y165100D01*
X556260Y66040D02*
X556260Y17780D01*
X561340Y12700D01*
X584200Y12700D01*
X502920Y119380D02*
X502920Y165100D01*
X502920Y119380D02*
X556260Y66040D01*
X545800Y266400D02*
X545800Y270025D01*
X545800Y266400D02*
X540877Y261477D01*
X540796Y261477D01*
X536548Y257229D01*
X536548Y257148D01*
X535940Y256540D01*
X535940Y246380D01*
X541020Y241300D02*
X607060Y241300D01*
X635000Y213360D01*
X635000Y38100D01*
X541020Y241300D02*
X535940Y246380D01*
X536548Y124221D02*
X540796Y119973D01*
X536548Y124221D02*
X536548Y130229D01*
X540796Y119973D02*
X548047Y119973D01*
X545800Y139481D02*
X545800Y143025D01*
X545800Y139481D02*
X536548Y130229D01*
X609600Y58420D02*
X609600Y38100D01*
X609600Y58420D02*
X548047Y119973D01*
D16*
X431800Y124152D02*
X431800Y143025D01*
X431800Y124152D02*
X420678Y113030D01*
X381962Y113030D01*
X340052Y154940D01*
X297135Y178330D02*
X294005Y181460D01*
X297135Y178330D02*
X297135Y177372D01*
X297180Y177327D01*
X297180Y152092D01*
X300682Y148590D01*
X308610Y148590D02*
X314960Y154940D01*
X308610Y148590D02*
X300682Y148590D01*
X314960Y154940D02*
X340052Y154940D01*
X431800Y179070D02*
X431800Y206525D01*
X431800Y179070D02*
X435610Y175260D01*
X471478Y175260D02*
X486410Y160328D01*
X471478Y175260D02*
X435610Y175260D01*
X302260Y74780D02*
X299720Y77320D01*
X302260Y74780D02*
X302260Y56842D01*
X309572Y49530D01*
X339398Y49530D02*
X363528Y73660D01*
X339398Y49530D02*
X309572Y49530D01*
D17*
X363528Y73660D02*
X385118Y95250D01*
X486156Y112827D02*
X486156Y152400D01*
X486410Y156596D02*
X486410Y160328D01*
X486410Y156596D02*
X486286Y156472D01*
X486286Y154736D01*
X486229Y154678D01*
X486156Y152400D01*
X468579Y95250D02*
X385118Y95250D01*
X468579Y95250D02*
X486156Y112827D01*
D18*
X345440Y132080D03*
D15*
X322580Y109220D01*
X322580Y86360D01*
X313540Y77320D01*
X312720Y77320D01*
D16*
X425300Y247500D02*
X425300Y263525D01*
X425300Y247500D02*
X416560Y238760D01*
X367992Y238760D01*
X350212Y220980D01*
X322580Y220980D01*
X301625Y250975D02*
X301140Y251460D01*
X301625Y250975D02*
X301625Y247515D01*
X301580Y247470D01*
X301580Y242450D01*
X301625Y242405D01*
X301625Y224155D02*
X302260Y223520D01*
X319663Y223897D02*
X322580Y220980D01*
X319663Y223897D02*
X302637Y223897D01*
X302260Y223520D01*
X301625Y224155D02*
X301625Y242405D01*
D15*
X307640Y244960D02*
X317500Y254820D01*
X317500Y266700D01*
X323850Y273050D01*
X374650Y273050D01*
X395078Y245283D02*
X402022Y245283D01*
X406932Y250193D01*
X406932Y258157D01*
X418800Y270025D01*
X390168Y257532D02*
X390168Y250193D01*
X395078Y245283D01*
X390168Y257532D02*
X374650Y273050D01*
X426720Y150945D02*
X418800Y143025D01*
X426720Y150945D02*
X426720Y154940D01*
X419100Y162560D01*
X323783Y206202D02*
X318873Y201292D01*
X318873Y193328D01*
X307005Y181460D01*
X323783Y206202D02*
X339898Y206202D01*
X383540Y162560D02*
X419100Y162560D01*
X383540Y162560D02*
X339898Y206202D01*
D19*
X25400Y76200D02*
X25400Y38100D01*
X50800Y38100D02*
X50800Y69850D01*
X57150Y76200D01*
X78740Y66040D02*
X88900Y76200D01*
X78740Y40640D02*
X76200Y38100D01*
X78740Y40640D02*
X78740Y66040D01*
D16*
X425300Y200025D02*
X427990Y197335D01*
X427990Y177492D02*
X434032Y171450D01*
X469900Y171450D01*
X482600Y158750D01*
X427990Y177492D02*
X427990Y197335D01*
X306220Y83820D02*
X306220Y58570D01*
X306070Y58420D01*
X311150Y53340D01*
X337820Y53340D02*
X361950Y77470D01*
X337820Y53340D02*
X311150Y53340D01*
D17*
X361950Y77470D02*
X383286Y98806D01*
X467106Y98806D02*
X482600Y114300D01*
X467106Y98806D02*
X383286Y98806D01*
X482600Y114300D02*
X482600Y158750D01*
D16*
X431800Y248612D02*
X431800Y270025D01*
X431800Y248612D02*
X418138Y234950D01*
X369570Y234950D01*
X351790Y217170D01*
X314672Y217170D01*
X297770Y241830D02*
X294640Y244960D01*
X297770Y241830D02*
X297770Y240872D01*
X297815Y240827D01*
X311755Y220087D02*
X314672Y217170D01*
X311755Y220087D02*
X304792Y220087D01*
X304415Y219710D01*
X300682Y219710D01*
X297815Y222577D02*
X297815Y240827D01*
X297815Y222577D02*
X300682Y219710D01*
X425300Y136525D02*
X425300Y123040D01*
X419100Y116840D01*
X383540Y116840D01*
X341630Y158750D01*
X300990Y187475D02*
X300505Y187960D01*
X300990Y187475D02*
X300990Y184015D01*
X300945Y183970D01*
X300945Y178950D01*
X300990Y178905D01*
X300990Y164465D01*
X303840Y161615D01*
X307032Y152400D02*
X313382Y158750D01*
X307032Y152400D02*
X303840Y152400D01*
X303840Y161615D01*
X313382Y158750D02*
X341630Y158750D01*
M02*
