G04 EAGLE Gerber RS-274X export*
G75*
%MOMM*%
%FSLAX34Y34*%
%LPD*%
%IN*%
%IPPOS*%
%AMOC8*
5,1,8,0,0,1.08239X$1,22.5*%
G01*
%ADD10C,0.127000*%
%ADD11C,0.000000*%
%ADD12C,0.254000*%


D10*
X0Y889000D02*
X0Y25400D01*
X25400Y0D02*
X635000Y0D01*
X660400Y25400D02*
X660400Y889000D01*
X0Y889000D01*
X660400Y25400D02*
X660393Y24786D01*
X660370Y24173D01*
X660333Y23560D01*
X660281Y22949D01*
X660215Y22338D01*
X660133Y21730D01*
X660037Y21124D01*
X659927Y20520D01*
X659802Y19919D01*
X659662Y19321D01*
X659508Y18727D01*
X659339Y18137D01*
X659157Y17551D01*
X658960Y16970D01*
X658749Y16393D01*
X658525Y15822D01*
X658287Y15256D01*
X658035Y14696D01*
X657769Y14143D01*
X657491Y13596D01*
X657199Y13056D01*
X656894Y12523D01*
X656576Y11998D01*
X656246Y11480D01*
X655904Y10971D01*
X655549Y10470D01*
X655182Y9978D01*
X654804Y9495D01*
X654414Y9021D01*
X654012Y8557D01*
X653600Y8102D01*
X653176Y7658D01*
X652742Y7224D01*
X652298Y6800D01*
X651843Y6388D01*
X651379Y5986D01*
X650905Y5596D01*
X650422Y5218D01*
X649930Y4851D01*
X649429Y4496D01*
X648920Y4154D01*
X648402Y3824D01*
X647877Y3506D01*
X647344Y3201D01*
X646804Y2909D01*
X646257Y2631D01*
X645704Y2365D01*
X645144Y2113D01*
X644578Y1875D01*
X644007Y1651D01*
X643430Y1440D01*
X642849Y1243D01*
X642263Y1061D01*
X641673Y892D01*
X641079Y738D01*
X640481Y598D01*
X639880Y473D01*
X639276Y363D01*
X638670Y267D01*
X638062Y185D01*
X637451Y119D01*
X636840Y67D01*
X636227Y30D01*
X635614Y7D01*
X635000Y0D01*
X25400Y0D02*
X24786Y7D01*
X24173Y30D01*
X23560Y67D01*
X22949Y119D01*
X22338Y185D01*
X21730Y267D01*
X21124Y363D01*
X20520Y473D01*
X19919Y598D01*
X19321Y738D01*
X18727Y892D01*
X18137Y1061D01*
X17551Y1243D01*
X16970Y1440D01*
X16393Y1651D01*
X15822Y1875D01*
X15256Y2113D01*
X14696Y2365D01*
X14143Y2631D01*
X13596Y2909D01*
X13056Y3201D01*
X12523Y3506D01*
X11998Y3824D01*
X11480Y4154D01*
X10971Y4496D01*
X10470Y4851D01*
X9978Y5218D01*
X9495Y5596D01*
X9021Y5986D01*
X8557Y6388D01*
X8102Y6800D01*
X7658Y7224D01*
X7224Y7658D01*
X6800Y8102D01*
X6388Y8557D01*
X5986Y9021D01*
X5596Y9495D01*
X5218Y9978D01*
X4851Y10470D01*
X4496Y10971D01*
X4154Y11480D01*
X3824Y11998D01*
X3506Y12523D01*
X3201Y13056D01*
X2909Y13596D01*
X2631Y14143D01*
X2365Y14696D01*
X2113Y15256D01*
X1875Y15822D01*
X1651Y16393D01*
X1440Y16970D01*
X1243Y17551D01*
X1061Y18137D01*
X892Y18727D01*
X738Y19321D01*
X598Y19919D01*
X473Y20520D01*
X363Y21124D01*
X267Y21730D01*
X185Y22338D01*
X119Y22949D01*
X67Y23560D01*
X30Y24173D01*
X7Y24786D01*
X0Y25400D01*
D11*
X460250Y825500D02*
X460255Y825893D01*
X460269Y826285D01*
X460293Y826677D01*
X460327Y827068D01*
X460370Y827459D01*
X460423Y827848D01*
X460486Y828235D01*
X460557Y828621D01*
X460639Y829006D01*
X460729Y829388D01*
X460830Y829767D01*
X460939Y830145D01*
X461058Y830519D01*
X461185Y830890D01*
X461322Y831258D01*
X461468Y831623D01*
X461623Y831984D01*
X461786Y832341D01*
X461958Y832694D01*
X462139Y833042D01*
X462329Y833386D01*
X462526Y833726D01*
X462732Y834060D01*
X462946Y834389D01*
X463169Y834713D01*
X463399Y835031D01*
X463636Y835344D01*
X463882Y835650D01*
X464135Y835951D01*
X464395Y836245D01*
X464662Y836533D01*
X464936Y836814D01*
X465217Y837088D01*
X465505Y837355D01*
X465799Y837615D01*
X466100Y837868D01*
X466406Y838114D01*
X466719Y838351D01*
X467037Y838581D01*
X467361Y838804D01*
X467690Y839018D01*
X468024Y839224D01*
X468364Y839421D01*
X468708Y839611D01*
X469056Y839792D01*
X469409Y839964D01*
X469766Y840127D01*
X470127Y840282D01*
X470492Y840428D01*
X470860Y840565D01*
X471231Y840692D01*
X471605Y840811D01*
X471983Y840920D01*
X472362Y841021D01*
X472744Y841111D01*
X473129Y841193D01*
X473515Y841264D01*
X473902Y841327D01*
X474291Y841380D01*
X474682Y841423D01*
X475073Y841457D01*
X475465Y841481D01*
X475857Y841495D01*
X476250Y841500D01*
X476643Y841495D01*
X477035Y841481D01*
X477427Y841457D01*
X477818Y841423D01*
X478209Y841380D01*
X478598Y841327D01*
X478985Y841264D01*
X479371Y841193D01*
X479756Y841111D01*
X480138Y841021D01*
X480517Y840920D01*
X480895Y840811D01*
X481269Y840692D01*
X481640Y840565D01*
X482008Y840428D01*
X482373Y840282D01*
X482734Y840127D01*
X483091Y839964D01*
X483444Y839792D01*
X483792Y839611D01*
X484136Y839421D01*
X484476Y839224D01*
X484810Y839018D01*
X485139Y838804D01*
X485463Y838581D01*
X485781Y838351D01*
X486094Y838114D01*
X486400Y837868D01*
X486701Y837615D01*
X486995Y837355D01*
X487283Y837088D01*
X487564Y836814D01*
X487838Y836533D01*
X488105Y836245D01*
X488365Y835951D01*
X488618Y835650D01*
X488864Y835344D01*
X489101Y835031D01*
X489331Y834713D01*
X489554Y834389D01*
X489768Y834060D01*
X489974Y833726D01*
X490171Y833386D01*
X490361Y833042D01*
X490542Y832694D01*
X490714Y832341D01*
X490877Y831984D01*
X491032Y831623D01*
X491178Y831258D01*
X491315Y830890D01*
X491442Y830519D01*
X491561Y830145D01*
X491670Y829767D01*
X491771Y829388D01*
X491861Y829006D01*
X491943Y828621D01*
X492014Y828235D01*
X492077Y827848D01*
X492130Y827459D01*
X492173Y827068D01*
X492207Y826677D01*
X492231Y826285D01*
X492245Y825893D01*
X492250Y825500D01*
X492245Y825107D01*
X492231Y824715D01*
X492207Y824323D01*
X492173Y823932D01*
X492130Y823541D01*
X492077Y823152D01*
X492014Y822765D01*
X491943Y822379D01*
X491861Y821994D01*
X491771Y821612D01*
X491670Y821233D01*
X491561Y820855D01*
X491442Y820481D01*
X491315Y820110D01*
X491178Y819742D01*
X491032Y819377D01*
X490877Y819016D01*
X490714Y818659D01*
X490542Y818306D01*
X490361Y817958D01*
X490171Y817614D01*
X489974Y817274D01*
X489768Y816940D01*
X489554Y816611D01*
X489331Y816287D01*
X489101Y815969D01*
X488864Y815656D01*
X488618Y815350D01*
X488365Y815049D01*
X488105Y814755D01*
X487838Y814467D01*
X487564Y814186D01*
X487283Y813912D01*
X486995Y813645D01*
X486701Y813385D01*
X486400Y813132D01*
X486094Y812886D01*
X485781Y812649D01*
X485463Y812419D01*
X485139Y812196D01*
X484810Y811982D01*
X484476Y811776D01*
X484136Y811579D01*
X483792Y811389D01*
X483444Y811208D01*
X483091Y811036D01*
X482734Y810873D01*
X482373Y810718D01*
X482008Y810572D01*
X481640Y810435D01*
X481269Y810308D01*
X480895Y810189D01*
X480517Y810080D01*
X480138Y809979D01*
X479756Y809889D01*
X479371Y809807D01*
X478985Y809736D01*
X478598Y809673D01*
X478209Y809620D01*
X477818Y809577D01*
X477427Y809543D01*
X477035Y809519D01*
X476643Y809505D01*
X476250Y809500D01*
X475857Y809505D01*
X475465Y809519D01*
X475073Y809543D01*
X474682Y809577D01*
X474291Y809620D01*
X473902Y809673D01*
X473515Y809736D01*
X473129Y809807D01*
X472744Y809889D01*
X472362Y809979D01*
X471983Y810080D01*
X471605Y810189D01*
X471231Y810308D01*
X470860Y810435D01*
X470492Y810572D01*
X470127Y810718D01*
X469766Y810873D01*
X469409Y811036D01*
X469056Y811208D01*
X468708Y811389D01*
X468364Y811579D01*
X468024Y811776D01*
X467690Y811982D01*
X467361Y812196D01*
X467037Y812419D01*
X466719Y812649D01*
X466406Y812886D01*
X466100Y813132D01*
X465799Y813385D01*
X465505Y813645D01*
X465217Y813912D01*
X464936Y814186D01*
X464662Y814467D01*
X464395Y814755D01*
X464135Y815049D01*
X463882Y815350D01*
X463636Y815656D01*
X463399Y815969D01*
X463169Y816287D01*
X462946Y816611D01*
X462732Y816940D01*
X462526Y817274D01*
X462329Y817614D01*
X462139Y817958D01*
X461958Y818306D01*
X461786Y818659D01*
X461623Y819016D01*
X461468Y819377D01*
X461322Y819742D01*
X461185Y820110D01*
X461058Y820481D01*
X460939Y820855D01*
X460830Y821233D01*
X460729Y821612D01*
X460639Y821994D01*
X460557Y822379D01*
X460486Y822765D01*
X460423Y823152D01*
X460370Y823541D01*
X460327Y823932D01*
X460293Y824323D01*
X460269Y824715D01*
X460255Y825107D01*
X460250Y825500D01*
X142750Y825500D02*
X142755Y825893D01*
X142769Y826285D01*
X142793Y826677D01*
X142827Y827068D01*
X142870Y827459D01*
X142923Y827848D01*
X142986Y828235D01*
X143057Y828621D01*
X143139Y829006D01*
X143229Y829388D01*
X143330Y829767D01*
X143439Y830145D01*
X143558Y830519D01*
X143685Y830890D01*
X143822Y831258D01*
X143968Y831623D01*
X144123Y831984D01*
X144286Y832341D01*
X144458Y832694D01*
X144639Y833042D01*
X144829Y833386D01*
X145026Y833726D01*
X145232Y834060D01*
X145446Y834389D01*
X145669Y834713D01*
X145899Y835031D01*
X146136Y835344D01*
X146382Y835650D01*
X146635Y835951D01*
X146895Y836245D01*
X147162Y836533D01*
X147436Y836814D01*
X147717Y837088D01*
X148005Y837355D01*
X148299Y837615D01*
X148600Y837868D01*
X148906Y838114D01*
X149219Y838351D01*
X149537Y838581D01*
X149861Y838804D01*
X150190Y839018D01*
X150524Y839224D01*
X150864Y839421D01*
X151208Y839611D01*
X151556Y839792D01*
X151909Y839964D01*
X152266Y840127D01*
X152627Y840282D01*
X152992Y840428D01*
X153360Y840565D01*
X153731Y840692D01*
X154105Y840811D01*
X154483Y840920D01*
X154862Y841021D01*
X155244Y841111D01*
X155629Y841193D01*
X156015Y841264D01*
X156402Y841327D01*
X156791Y841380D01*
X157182Y841423D01*
X157573Y841457D01*
X157965Y841481D01*
X158357Y841495D01*
X158750Y841500D01*
X159143Y841495D01*
X159535Y841481D01*
X159927Y841457D01*
X160318Y841423D01*
X160709Y841380D01*
X161098Y841327D01*
X161485Y841264D01*
X161871Y841193D01*
X162256Y841111D01*
X162638Y841021D01*
X163017Y840920D01*
X163395Y840811D01*
X163769Y840692D01*
X164140Y840565D01*
X164508Y840428D01*
X164873Y840282D01*
X165234Y840127D01*
X165591Y839964D01*
X165944Y839792D01*
X166292Y839611D01*
X166636Y839421D01*
X166976Y839224D01*
X167310Y839018D01*
X167639Y838804D01*
X167963Y838581D01*
X168281Y838351D01*
X168594Y838114D01*
X168900Y837868D01*
X169201Y837615D01*
X169495Y837355D01*
X169783Y837088D01*
X170064Y836814D01*
X170338Y836533D01*
X170605Y836245D01*
X170865Y835951D01*
X171118Y835650D01*
X171364Y835344D01*
X171601Y835031D01*
X171831Y834713D01*
X172054Y834389D01*
X172268Y834060D01*
X172474Y833726D01*
X172671Y833386D01*
X172861Y833042D01*
X173042Y832694D01*
X173214Y832341D01*
X173377Y831984D01*
X173532Y831623D01*
X173678Y831258D01*
X173815Y830890D01*
X173942Y830519D01*
X174061Y830145D01*
X174170Y829767D01*
X174271Y829388D01*
X174361Y829006D01*
X174443Y828621D01*
X174514Y828235D01*
X174577Y827848D01*
X174630Y827459D01*
X174673Y827068D01*
X174707Y826677D01*
X174731Y826285D01*
X174745Y825893D01*
X174750Y825500D01*
X174745Y825107D01*
X174731Y824715D01*
X174707Y824323D01*
X174673Y823932D01*
X174630Y823541D01*
X174577Y823152D01*
X174514Y822765D01*
X174443Y822379D01*
X174361Y821994D01*
X174271Y821612D01*
X174170Y821233D01*
X174061Y820855D01*
X173942Y820481D01*
X173815Y820110D01*
X173678Y819742D01*
X173532Y819377D01*
X173377Y819016D01*
X173214Y818659D01*
X173042Y818306D01*
X172861Y817958D01*
X172671Y817614D01*
X172474Y817274D01*
X172268Y816940D01*
X172054Y816611D01*
X171831Y816287D01*
X171601Y815969D01*
X171364Y815656D01*
X171118Y815350D01*
X170865Y815049D01*
X170605Y814755D01*
X170338Y814467D01*
X170064Y814186D01*
X169783Y813912D01*
X169495Y813645D01*
X169201Y813385D01*
X168900Y813132D01*
X168594Y812886D01*
X168281Y812649D01*
X167963Y812419D01*
X167639Y812196D01*
X167310Y811982D01*
X166976Y811776D01*
X166636Y811579D01*
X166292Y811389D01*
X165944Y811208D01*
X165591Y811036D01*
X165234Y810873D01*
X164873Y810718D01*
X164508Y810572D01*
X164140Y810435D01*
X163769Y810308D01*
X163395Y810189D01*
X163017Y810080D01*
X162638Y809979D01*
X162256Y809889D01*
X161871Y809807D01*
X161485Y809736D01*
X161098Y809673D01*
X160709Y809620D01*
X160318Y809577D01*
X159927Y809543D01*
X159535Y809519D01*
X159143Y809505D01*
X158750Y809500D01*
X158357Y809505D01*
X157965Y809519D01*
X157573Y809543D01*
X157182Y809577D01*
X156791Y809620D01*
X156402Y809673D01*
X156015Y809736D01*
X155629Y809807D01*
X155244Y809889D01*
X154862Y809979D01*
X154483Y810080D01*
X154105Y810189D01*
X153731Y810308D01*
X153360Y810435D01*
X152992Y810572D01*
X152627Y810718D01*
X152266Y810873D01*
X151909Y811036D01*
X151556Y811208D01*
X151208Y811389D01*
X150864Y811579D01*
X150524Y811776D01*
X150190Y811982D01*
X149861Y812196D01*
X149537Y812419D01*
X149219Y812649D01*
X148906Y812886D01*
X148600Y813132D01*
X148299Y813385D01*
X148005Y813645D01*
X147717Y813912D01*
X147436Y814186D01*
X147162Y814467D01*
X146895Y814755D01*
X146635Y815049D01*
X146382Y815350D01*
X146136Y815656D01*
X145899Y815969D01*
X145669Y816287D01*
X145446Y816611D01*
X145232Y816940D01*
X145026Y817274D01*
X144829Y817614D01*
X144639Y817958D01*
X144458Y818306D01*
X144286Y818659D01*
X144123Y819016D01*
X143968Y819377D01*
X143822Y819742D01*
X143685Y820110D01*
X143558Y820481D01*
X143439Y820855D01*
X143330Y821233D01*
X143229Y821612D01*
X143139Y821994D01*
X143057Y822379D01*
X142986Y822765D01*
X142923Y823152D01*
X142870Y823541D01*
X142827Y823932D01*
X142793Y824323D01*
X142769Y824715D01*
X142755Y825107D01*
X142750Y825500D01*
X168150Y266700D02*
X168155Y267093D01*
X168169Y267485D01*
X168193Y267877D01*
X168227Y268268D01*
X168270Y268659D01*
X168323Y269048D01*
X168386Y269435D01*
X168457Y269821D01*
X168539Y270206D01*
X168629Y270588D01*
X168730Y270967D01*
X168839Y271345D01*
X168958Y271719D01*
X169085Y272090D01*
X169222Y272458D01*
X169368Y272823D01*
X169523Y273184D01*
X169686Y273541D01*
X169858Y273894D01*
X170039Y274242D01*
X170229Y274586D01*
X170426Y274926D01*
X170632Y275260D01*
X170846Y275589D01*
X171069Y275913D01*
X171299Y276231D01*
X171536Y276544D01*
X171782Y276850D01*
X172035Y277151D01*
X172295Y277445D01*
X172562Y277733D01*
X172836Y278014D01*
X173117Y278288D01*
X173405Y278555D01*
X173699Y278815D01*
X174000Y279068D01*
X174306Y279314D01*
X174619Y279551D01*
X174937Y279781D01*
X175261Y280004D01*
X175590Y280218D01*
X175924Y280424D01*
X176264Y280621D01*
X176608Y280811D01*
X176956Y280992D01*
X177309Y281164D01*
X177666Y281327D01*
X178027Y281482D01*
X178392Y281628D01*
X178760Y281765D01*
X179131Y281892D01*
X179505Y282011D01*
X179883Y282120D01*
X180262Y282221D01*
X180644Y282311D01*
X181029Y282393D01*
X181415Y282464D01*
X181802Y282527D01*
X182191Y282580D01*
X182582Y282623D01*
X182973Y282657D01*
X183365Y282681D01*
X183757Y282695D01*
X184150Y282700D01*
X184543Y282695D01*
X184935Y282681D01*
X185327Y282657D01*
X185718Y282623D01*
X186109Y282580D01*
X186498Y282527D01*
X186885Y282464D01*
X187271Y282393D01*
X187656Y282311D01*
X188038Y282221D01*
X188417Y282120D01*
X188795Y282011D01*
X189169Y281892D01*
X189540Y281765D01*
X189908Y281628D01*
X190273Y281482D01*
X190634Y281327D01*
X190991Y281164D01*
X191344Y280992D01*
X191692Y280811D01*
X192036Y280621D01*
X192376Y280424D01*
X192710Y280218D01*
X193039Y280004D01*
X193363Y279781D01*
X193681Y279551D01*
X193994Y279314D01*
X194300Y279068D01*
X194601Y278815D01*
X194895Y278555D01*
X195183Y278288D01*
X195464Y278014D01*
X195738Y277733D01*
X196005Y277445D01*
X196265Y277151D01*
X196518Y276850D01*
X196764Y276544D01*
X197001Y276231D01*
X197231Y275913D01*
X197454Y275589D01*
X197668Y275260D01*
X197874Y274926D01*
X198071Y274586D01*
X198261Y274242D01*
X198442Y273894D01*
X198614Y273541D01*
X198777Y273184D01*
X198932Y272823D01*
X199078Y272458D01*
X199215Y272090D01*
X199342Y271719D01*
X199461Y271345D01*
X199570Y270967D01*
X199671Y270588D01*
X199761Y270206D01*
X199843Y269821D01*
X199914Y269435D01*
X199977Y269048D01*
X200030Y268659D01*
X200073Y268268D01*
X200107Y267877D01*
X200131Y267485D01*
X200145Y267093D01*
X200150Y266700D01*
X200145Y266307D01*
X200131Y265915D01*
X200107Y265523D01*
X200073Y265132D01*
X200030Y264741D01*
X199977Y264352D01*
X199914Y263965D01*
X199843Y263579D01*
X199761Y263194D01*
X199671Y262812D01*
X199570Y262433D01*
X199461Y262055D01*
X199342Y261681D01*
X199215Y261310D01*
X199078Y260942D01*
X198932Y260577D01*
X198777Y260216D01*
X198614Y259859D01*
X198442Y259506D01*
X198261Y259158D01*
X198071Y258814D01*
X197874Y258474D01*
X197668Y258140D01*
X197454Y257811D01*
X197231Y257487D01*
X197001Y257169D01*
X196764Y256856D01*
X196518Y256550D01*
X196265Y256249D01*
X196005Y255955D01*
X195738Y255667D01*
X195464Y255386D01*
X195183Y255112D01*
X194895Y254845D01*
X194601Y254585D01*
X194300Y254332D01*
X193994Y254086D01*
X193681Y253849D01*
X193363Y253619D01*
X193039Y253396D01*
X192710Y253182D01*
X192376Y252976D01*
X192036Y252779D01*
X191692Y252589D01*
X191344Y252408D01*
X190991Y252236D01*
X190634Y252073D01*
X190273Y251918D01*
X189908Y251772D01*
X189540Y251635D01*
X189169Y251508D01*
X188795Y251389D01*
X188417Y251280D01*
X188038Y251179D01*
X187656Y251089D01*
X187271Y251007D01*
X186885Y250936D01*
X186498Y250873D01*
X186109Y250820D01*
X185718Y250777D01*
X185327Y250743D01*
X184935Y250719D01*
X184543Y250705D01*
X184150Y250700D01*
X183757Y250705D01*
X183365Y250719D01*
X182973Y250743D01*
X182582Y250777D01*
X182191Y250820D01*
X181802Y250873D01*
X181415Y250936D01*
X181029Y251007D01*
X180644Y251089D01*
X180262Y251179D01*
X179883Y251280D01*
X179505Y251389D01*
X179131Y251508D01*
X178760Y251635D01*
X178392Y251772D01*
X178027Y251918D01*
X177666Y252073D01*
X177309Y252236D01*
X176956Y252408D01*
X176608Y252589D01*
X176264Y252779D01*
X175924Y252976D01*
X175590Y253182D01*
X175261Y253396D01*
X174937Y253619D01*
X174619Y253849D01*
X174306Y254086D01*
X174000Y254332D01*
X173699Y254585D01*
X173405Y254845D01*
X173117Y255112D01*
X172836Y255386D01*
X172562Y255667D01*
X172295Y255955D01*
X172035Y256249D01*
X171782Y256550D01*
X171536Y256856D01*
X171299Y257169D01*
X171069Y257487D01*
X170846Y257811D01*
X170632Y258140D01*
X170426Y258474D01*
X170229Y258814D01*
X170039Y259158D01*
X169858Y259506D01*
X169686Y259859D01*
X169523Y260216D01*
X169368Y260577D01*
X169222Y260942D01*
X169085Y261310D01*
X168958Y261681D01*
X168839Y262055D01*
X168730Y262433D01*
X168629Y262812D01*
X168539Y263194D01*
X168457Y263579D01*
X168386Y263965D01*
X168323Y264352D01*
X168270Y264741D01*
X168227Y265132D01*
X168193Y265523D01*
X168169Y265915D01*
X168155Y266307D01*
X168150Y266700D01*
X599950Y44450D02*
X599955Y44843D01*
X599969Y45235D01*
X599993Y45627D01*
X600027Y46018D01*
X600070Y46409D01*
X600123Y46798D01*
X600186Y47185D01*
X600257Y47571D01*
X600339Y47956D01*
X600429Y48338D01*
X600530Y48717D01*
X600639Y49095D01*
X600758Y49469D01*
X600885Y49840D01*
X601022Y50208D01*
X601168Y50573D01*
X601323Y50934D01*
X601486Y51291D01*
X601658Y51644D01*
X601839Y51992D01*
X602029Y52336D01*
X602226Y52676D01*
X602432Y53010D01*
X602646Y53339D01*
X602869Y53663D01*
X603099Y53981D01*
X603336Y54294D01*
X603582Y54600D01*
X603835Y54901D01*
X604095Y55195D01*
X604362Y55483D01*
X604636Y55764D01*
X604917Y56038D01*
X605205Y56305D01*
X605499Y56565D01*
X605800Y56818D01*
X606106Y57064D01*
X606419Y57301D01*
X606737Y57531D01*
X607061Y57754D01*
X607390Y57968D01*
X607724Y58174D01*
X608064Y58371D01*
X608408Y58561D01*
X608756Y58742D01*
X609109Y58914D01*
X609466Y59077D01*
X609827Y59232D01*
X610192Y59378D01*
X610560Y59515D01*
X610931Y59642D01*
X611305Y59761D01*
X611683Y59870D01*
X612062Y59971D01*
X612444Y60061D01*
X612829Y60143D01*
X613215Y60214D01*
X613602Y60277D01*
X613991Y60330D01*
X614382Y60373D01*
X614773Y60407D01*
X615165Y60431D01*
X615557Y60445D01*
X615950Y60450D01*
X616343Y60445D01*
X616735Y60431D01*
X617127Y60407D01*
X617518Y60373D01*
X617909Y60330D01*
X618298Y60277D01*
X618685Y60214D01*
X619071Y60143D01*
X619456Y60061D01*
X619838Y59971D01*
X620217Y59870D01*
X620595Y59761D01*
X620969Y59642D01*
X621340Y59515D01*
X621708Y59378D01*
X622073Y59232D01*
X622434Y59077D01*
X622791Y58914D01*
X623144Y58742D01*
X623492Y58561D01*
X623836Y58371D01*
X624176Y58174D01*
X624510Y57968D01*
X624839Y57754D01*
X625163Y57531D01*
X625481Y57301D01*
X625794Y57064D01*
X626100Y56818D01*
X626401Y56565D01*
X626695Y56305D01*
X626983Y56038D01*
X627264Y55764D01*
X627538Y55483D01*
X627805Y55195D01*
X628065Y54901D01*
X628318Y54600D01*
X628564Y54294D01*
X628801Y53981D01*
X629031Y53663D01*
X629254Y53339D01*
X629468Y53010D01*
X629674Y52676D01*
X629871Y52336D01*
X630061Y51992D01*
X630242Y51644D01*
X630414Y51291D01*
X630577Y50934D01*
X630732Y50573D01*
X630878Y50208D01*
X631015Y49840D01*
X631142Y49469D01*
X631261Y49095D01*
X631370Y48717D01*
X631471Y48338D01*
X631561Y47956D01*
X631643Y47571D01*
X631714Y47185D01*
X631777Y46798D01*
X631830Y46409D01*
X631873Y46018D01*
X631907Y45627D01*
X631931Y45235D01*
X631945Y44843D01*
X631950Y44450D01*
X631945Y44057D01*
X631931Y43665D01*
X631907Y43273D01*
X631873Y42882D01*
X631830Y42491D01*
X631777Y42102D01*
X631714Y41715D01*
X631643Y41329D01*
X631561Y40944D01*
X631471Y40562D01*
X631370Y40183D01*
X631261Y39805D01*
X631142Y39431D01*
X631015Y39060D01*
X630878Y38692D01*
X630732Y38327D01*
X630577Y37966D01*
X630414Y37609D01*
X630242Y37256D01*
X630061Y36908D01*
X629871Y36564D01*
X629674Y36224D01*
X629468Y35890D01*
X629254Y35561D01*
X629031Y35237D01*
X628801Y34919D01*
X628564Y34606D01*
X628318Y34300D01*
X628065Y33999D01*
X627805Y33705D01*
X627538Y33417D01*
X627264Y33136D01*
X626983Y32862D01*
X626695Y32595D01*
X626401Y32335D01*
X626100Y32082D01*
X625794Y31836D01*
X625481Y31599D01*
X625163Y31369D01*
X624839Y31146D01*
X624510Y30932D01*
X624176Y30726D01*
X623836Y30529D01*
X623492Y30339D01*
X623144Y30158D01*
X622791Y29986D01*
X622434Y29823D01*
X622073Y29668D01*
X621708Y29522D01*
X621340Y29385D01*
X620969Y29258D01*
X620595Y29139D01*
X620217Y29030D01*
X619838Y28929D01*
X619456Y28839D01*
X619071Y28757D01*
X618685Y28686D01*
X618298Y28623D01*
X617909Y28570D01*
X617518Y28527D01*
X617127Y28493D01*
X616735Y28469D01*
X616343Y28455D01*
X615950Y28450D01*
X615557Y28455D01*
X615165Y28469D01*
X614773Y28493D01*
X614382Y28527D01*
X613991Y28570D01*
X613602Y28623D01*
X613215Y28686D01*
X612829Y28757D01*
X612444Y28839D01*
X612062Y28929D01*
X611683Y29030D01*
X611305Y29139D01*
X610931Y29258D01*
X610560Y29385D01*
X610192Y29522D01*
X609827Y29668D01*
X609466Y29823D01*
X609109Y29986D01*
X608756Y30158D01*
X608408Y30339D01*
X608064Y30529D01*
X607724Y30726D01*
X607390Y30932D01*
X607061Y31146D01*
X606737Y31369D01*
X606419Y31599D01*
X606106Y31836D01*
X605800Y32082D01*
X605499Y32335D01*
X605205Y32595D01*
X604917Y32862D01*
X604636Y33136D01*
X604362Y33417D01*
X604095Y33705D01*
X603835Y33999D01*
X603582Y34300D01*
X603336Y34606D01*
X603099Y34919D01*
X602869Y35237D01*
X602646Y35561D01*
X602432Y35890D01*
X602226Y36224D01*
X602029Y36564D01*
X601839Y36908D01*
X601658Y37256D01*
X601486Y37609D01*
X601323Y37966D01*
X601168Y38327D01*
X601022Y38692D01*
X600885Y39060D01*
X600758Y39431D01*
X600639Y39805D01*
X600530Y40183D01*
X600429Y40562D01*
X600339Y40944D01*
X600257Y41329D01*
X600186Y41715D01*
X600123Y42102D01*
X600070Y42491D01*
X600027Y42882D01*
X599993Y43273D01*
X599969Y43665D01*
X599955Y44057D01*
X599950Y44450D01*
X609602Y546100D02*
X609607Y546493D01*
X609621Y546885D01*
X609645Y547277D01*
X609679Y547668D01*
X609722Y548059D01*
X609775Y548448D01*
X609838Y548835D01*
X609909Y549221D01*
X609991Y549606D01*
X610081Y549988D01*
X610182Y550367D01*
X610291Y550745D01*
X610410Y551119D01*
X610537Y551490D01*
X610674Y551858D01*
X610820Y552223D01*
X610975Y552584D01*
X611138Y552941D01*
X611310Y553294D01*
X611491Y553642D01*
X611681Y553986D01*
X611878Y554326D01*
X612084Y554660D01*
X612298Y554989D01*
X612521Y555313D01*
X612751Y555631D01*
X612988Y555944D01*
X613234Y556250D01*
X613487Y556551D01*
X613747Y556845D01*
X614014Y557133D01*
X614288Y557414D01*
X614569Y557688D01*
X614857Y557955D01*
X615151Y558215D01*
X615452Y558468D01*
X615758Y558714D01*
X616071Y558951D01*
X616389Y559181D01*
X616713Y559404D01*
X617042Y559618D01*
X617376Y559824D01*
X617716Y560021D01*
X618060Y560211D01*
X618408Y560392D01*
X618761Y560564D01*
X619118Y560727D01*
X619479Y560882D01*
X619844Y561028D01*
X620212Y561165D01*
X620583Y561292D01*
X620957Y561411D01*
X621335Y561520D01*
X621714Y561621D01*
X622096Y561711D01*
X622481Y561793D01*
X622867Y561864D01*
X623254Y561927D01*
X623643Y561980D01*
X624034Y562023D01*
X624425Y562057D01*
X624817Y562081D01*
X625209Y562095D01*
X625602Y562100D01*
X625995Y562095D01*
X626387Y562081D01*
X626779Y562057D01*
X627170Y562023D01*
X627561Y561980D01*
X627950Y561927D01*
X628337Y561864D01*
X628723Y561793D01*
X629108Y561711D01*
X629490Y561621D01*
X629869Y561520D01*
X630247Y561411D01*
X630621Y561292D01*
X630992Y561165D01*
X631360Y561028D01*
X631725Y560882D01*
X632086Y560727D01*
X632443Y560564D01*
X632796Y560392D01*
X633144Y560211D01*
X633488Y560021D01*
X633828Y559824D01*
X634162Y559618D01*
X634491Y559404D01*
X634815Y559181D01*
X635133Y558951D01*
X635446Y558714D01*
X635752Y558468D01*
X636053Y558215D01*
X636347Y557955D01*
X636635Y557688D01*
X636916Y557414D01*
X637190Y557133D01*
X637457Y556845D01*
X637717Y556551D01*
X637970Y556250D01*
X638216Y555944D01*
X638453Y555631D01*
X638683Y555313D01*
X638906Y554989D01*
X639120Y554660D01*
X639326Y554326D01*
X639523Y553986D01*
X639713Y553642D01*
X639894Y553294D01*
X640066Y552941D01*
X640229Y552584D01*
X640384Y552223D01*
X640530Y551858D01*
X640667Y551490D01*
X640794Y551119D01*
X640913Y550745D01*
X641022Y550367D01*
X641123Y549988D01*
X641213Y549606D01*
X641295Y549221D01*
X641366Y548835D01*
X641429Y548448D01*
X641482Y548059D01*
X641525Y547668D01*
X641559Y547277D01*
X641583Y546885D01*
X641597Y546493D01*
X641602Y546100D01*
X641597Y545707D01*
X641583Y545315D01*
X641559Y544923D01*
X641525Y544532D01*
X641482Y544141D01*
X641429Y543752D01*
X641366Y543365D01*
X641295Y542979D01*
X641213Y542594D01*
X641123Y542212D01*
X641022Y541833D01*
X640913Y541455D01*
X640794Y541081D01*
X640667Y540710D01*
X640530Y540342D01*
X640384Y539977D01*
X640229Y539616D01*
X640066Y539259D01*
X639894Y538906D01*
X639713Y538558D01*
X639523Y538214D01*
X639326Y537874D01*
X639120Y537540D01*
X638906Y537211D01*
X638683Y536887D01*
X638453Y536569D01*
X638216Y536256D01*
X637970Y535950D01*
X637717Y535649D01*
X637457Y535355D01*
X637190Y535067D01*
X636916Y534786D01*
X636635Y534512D01*
X636347Y534245D01*
X636053Y533985D01*
X635752Y533732D01*
X635446Y533486D01*
X635133Y533249D01*
X634815Y533019D01*
X634491Y532796D01*
X634162Y532582D01*
X633828Y532376D01*
X633488Y532179D01*
X633144Y531989D01*
X632796Y531808D01*
X632443Y531636D01*
X632086Y531473D01*
X631725Y531318D01*
X631360Y531172D01*
X630992Y531035D01*
X630621Y530908D01*
X630247Y530789D01*
X629869Y530680D01*
X629490Y530579D01*
X629108Y530489D01*
X628723Y530407D01*
X628337Y530336D01*
X627950Y530273D01*
X627561Y530220D01*
X627170Y530177D01*
X626779Y530143D01*
X626387Y530119D01*
X625995Y530105D01*
X625602Y530100D01*
X625209Y530105D01*
X624817Y530119D01*
X624425Y530143D01*
X624034Y530177D01*
X623643Y530220D01*
X623254Y530273D01*
X622867Y530336D01*
X622481Y530407D01*
X622096Y530489D01*
X621714Y530579D01*
X621335Y530680D01*
X620957Y530789D01*
X620583Y530908D01*
X620212Y531035D01*
X619844Y531172D01*
X619479Y531318D01*
X619118Y531473D01*
X618761Y531636D01*
X618408Y531808D01*
X618060Y531989D01*
X617716Y532179D01*
X617376Y532376D01*
X617042Y532582D01*
X616713Y532796D01*
X616389Y533019D01*
X616071Y533249D01*
X615758Y533486D01*
X615452Y533732D01*
X615151Y533985D01*
X614857Y534245D01*
X614569Y534512D01*
X614288Y534786D01*
X614014Y535067D01*
X613747Y535355D01*
X613487Y535649D01*
X613234Y535950D01*
X612988Y536256D01*
X612751Y536569D01*
X612521Y536887D01*
X612298Y537211D01*
X612084Y537540D01*
X611878Y537874D01*
X611681Y538214D01*
X611491Y538558D01*
X611310Y538906D01*
X611138Y539259D01*
X610975Y539616D01*
X610820Y539977D01*
X610674Y540342D01*
X610537Y540710D01*
X610410Y541081D01*
X610291Y541455D01*
X610182Y541833D01*
X610081Y542212D01*
X609991Y542594D01*
X609909Y542979D01*
X609838Y543365D01*
X609775Y543752D01*
X609722Y544141D01*
X609679Y544532D01*
X609645Y544923D01*
X609621Y545315D01*
X609607Y545707D01*
X609602Y546100D01*
D12*
X0Y25400D02*
X97Y23186D01*
X386Y20989D01*
X865Y18826D01*
X1532Y16713D01*
X2380Y14666D01*
X3403Y12700D01*
X4594Y10831D01*
X5942Y9073D01*
X7440Y7440D01*
X9073Y5942D01*
X10831Y4594D01*
X12700Y3403D01*
X14666Y2380D01*
X16713Y1532D01*
X18826Y865D01*
X20989Y386D01*
X23186Y97D01*
X25400Y0D01*
X635000Y0D01*
X637214Y97D01*
X639411Y386D01*
X641574Y865D01*
X643687Y1532D01*
X645735Y2380D01*
X647700Y3403D01*
X649569Y4594D01*
X651327Y5942D01*
X652961Y7440D01*
X654458Y9073D01*
X655806Y10831D01*
X656997Y12700D01*
X658020Y14666D01*
X658868Y16713D01*
X659535Y18826D01*
X660014Y20989D01*
X660303Y23186D01*
X660400Y25400D01*
X660400Y889000D01*
X0Y889000D01*
X0Y25400D01*
X492250Y824976D02*
X492182Y823931D01*
X492045Y822892D01*
X491840Y821865D01*
X491569Y820853D01*
X491233Y819861D01*
X490832Y818893D01*
X490368Y817954D01*
X489845Y817046D01*
X489263Y816175D01*
X488625Y815344D01*
X487934Y814557D01*
X487193Y813816D01*
X486406Y813125D01*
X485575Y812488D01*
X484704Y811906D01*
X483796Y811382D01*
X482857Y810918D01*
X481889Y810517D01*
X480897Y810181D01*
X479885Y809910D01*
X478858Y809705D01*
X477819Y809569D01*
X476774Y809500D01*
X475726Y809500D01*
X474681Y809569D01*
X473642Y809705D01*
X472615Y809910D01*
X471603Y810181D01*
X470611Y810517D01*
X469643Y810918D01*
X468704Y811382D01*
X467796Y811906D01*
X466925Y812488D01*
X466094Y813125D01*
X465307Y813816D01*
X464566Y814557D01*
X463875Y815344D01*
X463238Y816175D01*
X462656Y817046D01*
X462132Y817954D01*
X461668Y818893D01*
X461267Y819861D01*
X460931Y820853D01*
X460660Y821865D01*
X460455Y822892D01*
X460319Y823931D01*
X460250Y824976D01*
X460250Y826024D01*
X460319Y827069D01*
X460455Y828108D01*
X460660Y829135D01*
X460931Y830147D01*
X461267Y831139D01*
X461668Y832107D01*
X462132Y833046D01*
X462656Y833954D01*
X463238Y834825D01*
X463875Y835656D01*
X464566Y836443D01*
X465307Y837184D01*
X466094Y837875D01*
X466925Y838513D01*
X467796Y839095D01*
X468704Y839618D01*
X469643Y840082D01*
X470611Y840483D01*
X471603Y840819D01*
X472615Y841090D01*
X473642Y841295D01*
X474681Y841432D01*
X475726Y841500D01*
X476774Y841500D01*
X477819Y841432D01*
X478858Y841295D01*
X479885Y841090D01*
X480897Y840819D01*
X481889Y840483D01*
X482857Y840082D01*
X483796Y839618D01*
X484704Y839095D01*
X485575Y838513D01*
X486406Y837875D01*
X487193Y837184D01*
X487934Y836443D01*
X488625Y835656D01*
X489263Y834825D01*
X489845Y833954D01*
X490368Y833046D01*
X490832Y832107D01*
X491233Y831139D01*
X491569Y830147D01*
X491840Y829135D01*
X492045Y828108D01*
X492182Y827069D01*
X492250Y826024D01*
X492250Y824976D01*
X174750Y824976D02*
X174682Y823931D01*
X174545Y822892D01*
X174340Y821865D01*
X174069Y820853D01*
X173733Y819861D01*
X173332Y818893D01*
X172868Y817954D01*
X172345Y817046D01*
X171763Y816175D01*
X171125Y815344D01*
X170434Y814557D01*
X169693Y813816D01*
X168906Y813125D01*
X168075Y812488D01*
X167204Y811906D01*
X166296Y811382D01*
X165357Y810918D01*
X164389Y810517D01*
X163397Y810181D01*
X162385Y809910D01*
X161358Y809705D01*
X160319Y809569D01*
X159274Y809500D01*
X158226Y809500D01*
X157181Y809569D01*
X156142Y809705D01*
X155115Y809910D01*
X154103Y810181D01*
X153111Y810517D01*
X152143Y810918D01*
X151204Y811382D01*
X150296Y811906D01*
X149425Y812488D01*
X148594Y813125D01*
X147807Y813816D01*
X147066Y814557D01*
X146375Y815344D01*
X145738Y816175D01*
X145156Y817046D01*
X144632Y817954D01*
X144168Y818893D01*
X143767Y819861D01*
X143431Y820853D01*
X143160Y821865D01*
X142955Y822892D01*
X142819Y823931D01*
X142750Y824976D01*
X142750Y826024D01*
X142819Y827069D01*
X142955Y828108D01*
X143160Y829135D01*
X143431Y830147D01*
X143767Y831139D01*
X144168Y832107D01*
X144632Y833046D01*
X145156Y833954D01*
X145738Y834825D01*
X146375Y835656D01*
X147066Y836443D01*
X147807Y837184D01*
X148594Y837875D01*
X149425Y838513D01*
X150296Y839095D01*
X151204Y839618D01*
X152143Y840082D01*
X153111Y840483D01*
X154103Y840819D01*
X155115Y841090D01*
X156142Y841295D01*
X157181Y841432D01*
X158226Y841500D01*
X159274Y841500D01*
X160319Y841432D01*
X161358Y841295D01*
X162385Y841090D01*
X163397Y840819D01*
X164389Y840483D01*
X165357Y840082D01*
X166296Y839618D01*
X167204Y839095D01*
X168075Y838513D01*
X168906Y837875D01*
X169693Y837184D01*
X170434Y836443D01*
X171125Y835656D01*
X171763Y834825D01*
X172345Y833954D01*
X172868Y833046D01*
X173332Y832107D01*
X173733Y831139D01*
X174069Y830147D01*
X174340Y829135D01*
X174545Y828108D01*
X174682Y827069D01*
X174750Y826024D01*
X174750Y824976D01*
X200150Y266176D02*
X200082Y265131D01*
X199945Y264092D01*
X199740Y263065D01*
X199469Y262053D01*
X199133Y261061D01*
X198732Y260093D01*
X198268Y259154D01*
X197745Y258246D01*
X197163Y257375D01*
X196525Y256544D01*
X195834Y255757D01*
X195093Y255016D01*
X194306Y254325D01*
X193475Y253688D01*
X192604Y253106D01*
X191696Y252582D01*
X190757Y252118D01*
X189789Y251717D01*
X188797Y251381D01*
X187785Y251110D01*
X186758Y250905D01*
X185719Y250769D01*
X184674Y250700D01*
X183626Y250700D01*
X182581Y250769D01*
X181542Y250905D01*
X180515Y251110D01*
X179503Y251381D01*
X178511Y251717D01*
X177543Y252118D01*
X176604Y252582D01*
X175696Y253106D01*
X174825Y253688D01*
X173994Y254325D01*
X173207Y255016D01*
X172466Y255757D01*
X171775Y256544D01*
X171138Y257375D01*
X170556Y258246D01*
X170032Y259154D01*
X169568Y260093D01*
X169167Y261061D01*
X168831Y262053D01*
X168560Y263065D01*
X168355Y264092D01*
X168219Y265131D01*
X168150Y266176D01*
X168150Y267224D01*
X168219Y268269D01*
X168355Y269308D01*
X168560Y270335D01*
X168831Y271347D01*
X169167Y272339D01*
X169568Y273307D01*
X170032Y274246D01*
X170556Y275154D01*
X171138Y276025D01*
X171775Y276856D01*
X172466Y277643D01*
X173207Y278384D01*
X173994Y279075D01*
X174825Y279713D01*
X175696Y280295D01*
X176604Y280818D01*
X177543Y281282D01*
X178511Y281683D01*
X179503Y282019D01*
X180515Y282290D01*
X181542Y282495D01*
X182581Y282632D01*
X183626Y282700D01*
X184674Y282700D01*
X185719Y282632D01*
X186758Y282495D01*
X187785Y282290D01*
X188797Y282019D01*
X189789Y281683D01*
X190757Y281282D01*
X191696Y280818D01*
X192604Y280295D01*
X193475Y279713D01*
X194306Y279075D01*
X195093Y278384D01*
X195834Y277643D01*
X196525Y276856D01*
X197163Y276025D01*
X197745Y275154D01*
X198268Y274246D01*
X198732Y273307D01*
X199133Y272339D01*
X199469Y271347D01*
X199740Y270335D01*
X199945Y269308D01*
X200082Y268269D01*
X200150Y267224D01*
X200150Y266176D01*
X631950Y43926D02*
X631882Y42881D01*
X631745Y41842D01*
X631540Y40815D01*
X631269Y39803D01*
X630933Y38811D01*
X630532Y37843D01*
X630068Y36904D01*
X629545Y35996D01*
X628963Y35125D01*
X628325Y34294D01*
X627634Y33507D01*
X626893Y32766D01*
X626106Y32075D01*
X625275Y31438D01*
X624404Y30856D01*
X623496Y30332D01*
X622557Y29868D01*
X621589Y29467D01*
X620597Y29131D01*
X619585Y28860D01*
X618558Y28655D01*
X617519Y28519D01*
X616474Y28450D01*
X615426Y28450D01*
X614381Y28519D01*
X613342Y28655D01*
X612315Y28860D01*
X611303Y29131D01*
X610311Y29467D01*
X609343Y29868D01*
X608404Y30332D01*
X607496Y30856D01*
X606625Y31438D01*
X605794Y32075D01*
X605007Y32766D01*
X604266Y33507D01*
X603575Y34294D01*
X602938Y35125D01*
X602356Y35996D01*
X601832Y36904D01*
X601368Y37843D01*
X600967Y38811D01*
X600631Y39803D01*
X600360Y40815D01*
X600155Y41842D01*
X600019Y42881D01*
X599950Y43926D01*
X599950Y44974D01*
X600019Y46019D01*
X600155Y47058D01*
X600360Y48085D01*
X600631Y49097D01*
X600967Y50089D01*
X601368Y51057D01*
X601832Y51996D01*
X602356Y52904D01*
X602938Y53775D01*
X603575Y54606D01*
X604266Y55393D01*
X605007Y56134D01*
X605794Y56825D01*
X606625Y57463D01*
X607496Y58045D01*
X608404Y58568D01*
X609343Y59032D01*
X610311Y59433D01*
X611303Y59769D01*
X612315Y60040D01*
X613342Y60245D01*
X614381Y60382D01*
X615426Y60450D01*
X616474Y60450D01*
X617519Y60382D01*
X618558Y60245D01*
X619585Y60040D01*
X620597Y59769D01*
X621589Y59433D01*
X622557Y59032D01*
X623496Y58568D01*
X624404Y58045D01*
X625275Y57463D01*
X626106Y56825D01*
X626893Y56134D01*
X627634Y55393D01*
X628325Y54606D01*
X628963Y53775D01*
X629545Y52904D01*
X630068Y51996D01*
X630532Y51057D01*
X630933Y50089D01*
X631269Y49097D01*
X631540Y48085D01*
X631745Y47058D01*
X631882Y46019D01*
X631950Y44974D01*
X631950Y43926D01*
X641602Y545576D02*
X641534Y544531D01*
X641397Y543492D01*
X641192Y542465D01*
X640921Y541453D01*
X640585Y540461D01*
X640184Y539493D01*
X639720Y538554D01*
X639197Y537646D01*
X638615Y536775D01*
X637977Y535944D01*
X637286Y535157D01*
X636545Y534416D01*
X635758Y533725D01*
X634927Y533088D01*
X634056Y532506D01*
X633148Y531982D01*
X632209Y531518D01*
X631241Y531117D01*
X630249Y530781D01*
X629237Y530510D01*
X628210Y530305D01*
X627171Y530169D01*
X626126Y530100D01*
X625078Y530100D01*
X624033Y530169D01*
X622994Y530305D01*
X621967Y530510D01*
X620955Y530781D01*
X619963Y531117D01*
X618995Y531518D01*
X618056Y531982D01*
X617148Y532506D01*
X616277Y533088D01*
X615446Y533725D01*
X614659Y534416D01*
X613918Y535157D01*
X613227Y535944D01*
X612590Y536775D01*
X612008Y537646D01*
X611484Y538554D01*
X611020Y539493D01*
X610619Y540461D01*
X610283Y541453D01*
X610012Y542465D01*
X609807Y543492D01*
X609671Y544531D01*
X609602Y545576D01*
X609602Y546624D01*
X609671Y547669D01*
X609807Y548708D01*
X610012Y549735D01*
X610283Y550747D01*
X610619Y551739D01*
X611020Y552707D01*
X611484Y553646D01*
X612008Y554554D01*
X612590Y555425D01*
X613227Y556256D01*
X613918Y557043D01*
X614659Y557784D01*
X615446Y558475D01*
X616277Y559113D01*
X617148Y559695D01*
X618056Y560218D01*
X618995Y560682D01*
X619963Y561083D01*
X620955Y561419D01*
X621967Y561690D01*
X622994Y561895D01*
X624033Y562032D01*
X625078Y562100D01*
X626126Y562100D01*
X627171Y562032D01*
X628210Y561895D01*
X629237Y561690D01*
X630249Y561419D01*
X631241Y561083D01*
X632209Y560682D01*
X633148Y560218D01*
X634056Y559695D01*
X634927Y559113D01*
X635758Y558475D01*
X636545Y557784D01*
X637286Y557043D01*
X637977Y556256D01*
X638615Y555425D01*
X639197Y554554D01*
X639720Y553646D01*
X640184Y552707D01*
X640585Y551739D01*
X640921Y550747D01*
X641192Y549735D01*
X641397Y548708D01*
X641534Y547669D01*
X641602Y546624D01*
X641602Y545576D01*
M02*
