G04 EAGLE Gerber RS-274X export*
G75*
%MOMM*%
%FSLAX34Y34*%
%LPD*%
%INSoldermask Top*%
%IPPOS*%
%AMOC8*
5,1,8,0,0,1.08239X$1,22.5*%
G01*
%ADD10R,0.863600X2.235200*%
%ADD11C,1.219200*%
%ADD12P,4.893702X8X202.500000*%
%ADD13R,0.803200X1.403200*%
%ADD14R,2.438200X1.422200*%
%ADD15R,2.403200X3.803200*%
%ADD16R,1.703200X1.503200*%
%ADD17R,1.473200X0.838200*%
%ADD18C,2.082800*%
%ADD19R,0.838200X1.473200*%
%ADD20R,1.503200X1.703200*%
%ADD21P,2.556822X8X202.500000*%
%ADD22R,0.603200X0.903200*%
%ADD23P,2.556822X8X112.500000*%
%ADD24P,2.556822X8X22.500000*%
%ADD25C,3.403200*%
%ADD26C,0.959600*%
%ADD27C,1.059600*%


D10*
X180975Y677291D03*
X180975Y738759D03*
X193675Y677291D03*
X206375Y677291D03*
X193675Y738759D03*
X206375Y738759D03*
X219075Y677291D03*
X219075Y738759D03*
X231775Y677291D03*
X231775Y738759D03*
X244475Y677291D03*
X257175Y677291D03*
X244475Y738759D03*
X257175Y738759D03*
X269875Y677291D03*
X269875Y738759D03*
X180975Y524891D03*
X180975Y586359D03*
X193675Y524891D03*
X206375Y524891D03*
X193675Y586359D03*
X206375Y586359D03*
X219075Y524891D03*
X219075Y586359D03*
X231775Y524891D03*
X231775Y586359D03*
X244475Y524891D03*
X257175Y524891D03*
X244475Y586359D03*
X257175Y586359D03*
X269875Y524891D03*
X269875Y586359D03*
D11*
X76200Y482600D03*
X76200Y495300D03*
X76200Y508000D03*
X76200Y520700D03*
X76200Y533400D03*
X76200Y546100D03*
X76200Y558800D03*
X76200Y571500D03*
X76200Y584200D03*
X76200Y596900D03*
X76200Y609600D03*
X76200Y622300D03*
X76200Y635000D03*
X50800Y488950D03*
X50800Y501650D03*
X50800Y514350D03*
X50800Y527050D03*
X50800Y539750D03*
X50800Y552450D03*
X50800Y565150D03*
X50800Y577850D03*
X50800Y590550D03*
X50800Y603250D03*
X50800Y615950D03*
X50800Y628650D03*
D12*
X38100Y436245D03*
X38100Y681355D03*
D11*
X76200Y127000D03*
X76200Y139700D03*
X76200Y152400D03*
X76200Y165100D03*
X76200Y177800D03*
X76200Y190500D03*
X76200Y203200D03*
X76200Y215900D03*
X76200Y228600D03*
X76200Y241300D03*
X76200Y254000D03*
X76200Y266700D03*
X76200Y279400D03*
X50800Y133350D03*
X50800Y146050D03*
X50800Y158750D03*
X50800Y171450D03*
X50800Y184150D03*
X50800Y196850D03*
X50800Y209550D03*
X50800Y222250D03*
X50800Y234950D03*
X50800Y247650D03*
X50800Y260350D03*
X50800Y273050D03*
D12*
X38100Y80645D03*
X38100Y325755D03*
D13*
X431800Y704275D03*
X419100Y704275D03*
X406400Y704275D03*
X393700Y704275D03*
X381000Y704275D03*
X368300Y704275D03*
X355600Y704275D03*
X342900Y704275D03*
X342900Y648275D03*
X355600Y648275D03*
X368300Y648275D03*
X381000Y648275D03*
X393700Y648275D03*
X406400Y648275D03*
X419100Y648275D03*
X431800Y648275D03*
D14*
X229110Y434090D03*
X229110Y457200D03*
X229110Y480310D03*
D15*
X167130Y457200D03*
D16*
X640080Y283820D03*
X640080Y264820D03*
X640080Y206400D03*
X640080Y225400D03*
D17*
X261620Y486918D03*
X261620Y478790D03*
X261620Y470662D03*
D18*
X571500Y304800D03*
X546100Y304800D03*
X520700Y304800D03*
X495300Y304800D03*
X469900Y304800D03*
X444500Y304800D03*
X419100Y304800D03*
X393700Y304800D03*
X368300Y304800D03*
X342900Y304800D03*
X317500Y304800D03*
X292100Y304800D03*
X266700Y304800D03*
X241300Y304800D03*
X571500Y152400D03*
X546100Y152400D03*
X520700Y152400D03*
X495300Y152400D03*
X469900Y152400D03*
X444500Y152400D03*
X419100Y152400D03*
X393700Y152400D03*
X368300Y152400D03*
X342900Y152400D03*
X317500Y152400D03*
X292100Y152400D03*
X266700Y152400D03*
X241300Y152400D03*
X571500Y279400D03*
X571500Y254000D03*
X571500Y228600D03*
X571500Y203200D03*
X571500Y177800D03*
X266700Y279400D03*
X520700Y177800D03*
X495300Y177800D03*
X520700Y203200D03*
X495300Y203200D03*
X520700Y228600D03*
X495300Y228600D03*
X520700Y254000D03*
X495300Y254000D03*
X520700Y279400D03*
X495300Y279400D03*
D16*
X482600Y353670D03*
X482600Y334670D03*
X460375Y353670D03*
X460375Y334670D03*
X384175Y76225D03*
X384175Y95225D03*
X320675Y76225D03*
X320675Y95225D03*
X352425Y76225D03*
X352425Y95225D03*
X292100Y76225D03*
X292100Y95225D03*
D19*
X173228Y114300D03*
X165100Y114300D03*
X156972Y114300D03*
X211328Y114300D03*
X203200Y114300D03*
X195072Y114300D03*
D20*
X280010Y349250D03*
X261010Y349250D03*
X321285Y349250D03*
X302285Y349250D03*
D18*
X635000Y876300D03*
X635000Y850900D03*
X609600Y876300D03*
X609600Y850900D03*
X584200Y876300D03*
X584200Y850900D03*
X76200Y876300D03*
X76200Y850900D03*
X50800Y876300D03*
X50800Y850900D03*
X25400Y876300D03*
X25400Y850900D03*
D21*
X25400Y812800D03*
X50800Y812800D03*
X76200Y812800D03*
D20*
X428600Y739775D03*
X409600Y739775D03*
X387325Y739775D03*
X368325Y739775D03*
X450875Y739775D03*
X469875Y739775D03*
X346050Y739775D03*
X327050Y739775D03*
D19*
X173228Y139700D03*
X165100Y139700D03*
X156972Y139700D03*
X211328Y139700D03*
X203200Y139700D03*
X195072Y139700D03*
X173228Y165100D03*
X165100Y165100D03*
X156972Y165100D03*
X211328Y165100D03*
X203200Y165100D03*
X195072Y165100D03*
X173228Y190500D03*
X165100Y190500D03*
X156972Y190500D03*
X211328Y190500D03*
X203200Y190500D03*
X195072Y190500D03*
D22*
X438300Y84065D03*
X431800Y84065D03*
X425300Y84065D03*
X425300Y67065D03*
X438300Y67065D03*
D17*
X484505Y67437D03*
X484505Y75565D03*
X484505Y83693D03*
D18*
X339725Y25400D03*
X314325Y25400D03*
X288925Y25400D03*
X263525Y25400D03*
X238125Y25400D03*
X212725Y25400D03*
X187325Y25400D03*
X482600Y393700D03*
X457200Y396240D03*
X431800Y393700D03*
X406400Y396240D03*
X381000Y393700D03*
X482600Y431800D03*
X457200Y434340D03*
X431800Y431800D03*
X406400Y434340D03*
X381000Y431800D03*
X482600Y469900D03*
X457200Y472440D03*
X431800Y469900D03*
X406400Y472440D03*
X381000Y469900D03*
D23*
X635000Y139700D03*
X282575Y479425D03*
X635000Y101600D03*
X31750Y381000D03*
D21*
X546100Y336550D03*
X520700Y336550D03*
X393700Y336550D03*
X368300Y336550D03*
X266700Y120650D03*
X292100Y120650D03*
X317500Y120650D03*
X495300Y120650D03*
X571500Y336550D03*
X571500Y120650D03*
X546100Y120650D03*
D24*
X419100Y120650D03*
X444500Y120650D03*
D18*
X520700Y450850D03*
X546100Y448310D03*
X571500Y450850D03*
X596900Y448310D03*
X622300Y450850D03*
D25*
X476250Y825500D03*
X158750Y825500D03*
X184150Y266700D03*
X615950Y44450D03*
X625602Y546100D03*
D26*
X485775Y739775D03*
X311150Y739775D03*
X269875Y508000D03*
X193675Y603250D03*
X270510Y661670D03*
X193040Y754380D03*
X337820Y350520D03*
X424180Y93980D03*
X419100Y662940D03*
D27*
X638810Y243840D03*
X251460Y441960D03*
X200660Y434340D03*
D26*
X168910Y756920D03*
X134620Y500380D03*
X134620Y490220D03*
X159568Y756920D03*
X134620Y480060D03*
X150226Y756920D03*
X134620Y469900D03*
X140884Y756920D03*
D27*
X129540Y454660D03*
X152400Y335280D03*
D26*
X147320Y645160D03*
X147320Y698500D03*
X245110Y570230D03*
X245110Y543560D03*
X232410Y570230D03*
X231140Y543560D03*
X219075Y571500D03*
X219075Y542925D03*
X206375Y542925D03*
X206375Y571500D03*
X546100Y85908D03*
X546100Y76566D03*
X546100Y67224D03*
X546100Y95250D03*
X325120Y408940D03*
D27*
X264160Y497840D03*
X370840Y497840D03*
X596900Y830580D03*
D26*
X203200Y203200D03*
X139700Y215900D03*
X165100Y203200D03*
X139700Y203200D03*
X203200Y177800D03*
X139700Y190500D03*
X165100Y177800D03*
X139700Y177800D03*
X203200Y152400D03*
X139700Y165100D03*
X165100Y152400D03*
X139700Y152400D03*
X203200Y127000D03*
X139700Y139700D03*
X165100Y127000D03*
X139700Y127000D03*
X200660Y616994D03*
X192784Y716024D03*
X196046Y331936D03*
X200660Y721360D03*
X175260Y355600D03*
X193040Y541020D03*
X186464Y654050D03*
X211074Y332994D03*
X168654Y348994D03*
X181610Y541020D03*
X180340Y662940D03*
X219752Y341673D03*
X162048Y342388D03*
X383540Y106680D03*
X355600Y106680D03*
X332740Y97685D03*
X406400Y106680D03*
X635000Y190500D03*
X500380Y375920D03*
X381000Y363220D03*
X365760Y119380D03*
X449580Y215900D03*
X396240Y119380D03*
X439420Y223520D03*
X457200Y208280D03*
X464820Y200660D03*
X333276Y107027D03*
X393700Y129540D03*
X383540Y515620D03*
X337820Y561340D03*
X510540Y104140D03*
X508000Y406400D03*
M02*
