G04 EAGLE Gerber RS-274X export*
G75*
%MOMM*%
%FSLAX34Y34*%
%LPD*%
%INSoldermask Bottom*%
%IPPOS*%
%AMOC8*
5,1,8,0,0,1.08239X$1,22.5*%
G01*
%ADD10C,2.082800*%
%ADD11C,1.981200*%
%ADD12C,2.857500*%
%ADD13C,3.203200*%
%ADD14C,1.422400*%
%ADD15C,0.959600*%
%ADD16C,1.259600*%


D10*
X25400Y330200D03*
X25400Y355600D03*
X25400Y381000D03*
X25400Y241300D03*
X25400Y215900D03*
X25400Y190500D03*
X25400Y165100D03*
X25400Y139700D03*
X25400Y114300D03*
D11*
X222758Y88900D03*
X192786Y88900D03*
X162814Y88900D03*
X132842Y88900D03*
D12*
X111252Y45720D03*
X244348Y45720D03*
D11*
X385572Y88900D03*
X355600Y88900D03*
X325628Y88900D03*
D12*
X304165Y45720D03*
X407035Y45720D03*
D10*
X101600Y482600D03*
X127000Y482600D03*
X152400Y482600D03*
X177800Y482600D03*
X203200Y482600D03*
D13*
X38100Y38100D03*
X469900Y38100D03*
X38100Y469900D03*
X469900Y469900D03*
D10*
X317500Y482600D03*
X342900Y482600D03*
X171450Y146050D03*
X171450Y120650D03*
X146050Y146050D03*
X146050Y120650D03*
X120650Y146050D03*
X120650Y120650D03*
X381000Y482600D03*
X406400Y482600D03*
X381000Y25400D03*
X355600Y25400D03*
X330200Y25400D03*
X215900Y24130D03*
X190500Y26670D03*
X165100Y24130D03*
X139700Y26670D03*
X146050Y172720D03*
X171450Y170180D03*
X196850Y172720D03*
X222250Y170180D03*
X297180Y215900D03*
X299720Y241300D03*
X297180Y266700D03*
X299720Y292100D03*
D14*
X31496Y271780D02*
X19304Y271780D01*
X19304Y299720D02*
X31496Y299720D01*
D15*
X107950Y177800D03*
X228600Y355600D03*
X203200Y241300D03*
X323850Y139700D03*
X355600Y190500D03*
X254000Y241300D03*
X419100Y266700D03*
X476250Y273050D03*
X336550Y266700D03*
D16*
X361950Y381000D03*
X438150Y381000D03*
D15*
X158750Y292834D03*
X139700Y260350D03*
X184150Y292834D03*
X158750Y260350D03*
X273050Y88900D03*
X412750Y215900D03*
X203200Y355600D03*
X241300Y266700D03*
X254000Y146050D03*
X285750Y196850D03*
X120650Y196850D03*
X120650Y273050D03*
X229842Y311150D03*
X229842Y260350D03*
X215900Y215900D03*
X222250Y317500D03*
X228600Y215900D03*
X298450Y361950D03*
D16*
X363220Y419100D03*
X322580Y436880D03*
X441960Y419100D03*
X398780Y436880D03*
D15*
X255212Y259138D03*
X266700Y285750D03*
X387350Y323850D03*
M02*
