G04 EAGLE Gerber RS-274X export*
G75*
%MOMM*%
%FSLAX34Y34*%
%LPD*%
%INBottom Copper*%
%IPPOS*%
%AMOC8*
5,1,8,0,0,1.08239X$1,22.5*%
G01*
%ADD10C,1.879600*%
%ADD11C,1.778000*%
%ADD12C,2.654300*%
%ADD13C,1.219200*%
%ADD14C,0.756400*%
%ADD15C,1.056400*%
%ADD16C,0.406400*%
%ADD17C,1.016000*%
%ADD18C,1.270000*%

G36*
X447986Y2559D02*
X447986Y2559D01*
X448099Y2575D01*
X448107Y2579D01*
X448116Y2580D01*
X448217Y2634D01*
X448319Y2685D01*
X448325Y2691D01*
X448334Y2696D01*
X448412Y2778D01*
X448492Y2859D01*
X448496Y2867D01*
X448503Y2874D01*
X448551Y2978D01*
X448601Y3079D01*
X448603Y3089D01*
X448607Y3097D01*
X448619Y3210D01*
X448634Y3323D01*
X448633Y3332D01*
X448634Y3341D01*
X448609Y3453D01*
X448588Y3565D01*
X448583Y3573D01*
X448581Y3582D01*
X448523Y3679D01*
X448467Y3779D01*
X448459Y3787D01*
X448455Y3793D01*
X448437Y3808D01*
X448348Y3897D01*
X440114Y10463D01*
X433292Y20470D01*
X429722Y32044D01*
X429722Y44156D01*
X433292Y55730D01*
X434105Y56923D01*
X435143Y58445D01*
X436700Y60729D01*
X437738Y62251D01*
X437738Y62252D01*
X438776Y63774D01*
X440115Y65737D01*
X449584Y73288D01*
X460858Y77713D01*
X472936Y78619D01*
X475984Y77923D01*
X479319Y77162D01*
X482654Y76400D01*
X484745Y75923D01*
X495234Y69867D01*
X503472Y60989D01*
X503836Y60233D01*
X503880Y60170D01*
X503915Y60103D01*
X503950Y60070D01*
X503977Y60031D01*
X504038Y59986D01*
X504094Y59934D01*
X504137Y59914D01*
X504175Y59885D01*
X504248Y59862D01*
X504317Y59830D01*
X504364Y59825D01*
X504409Y59810D01*
X504485Y59811D01*
X504561Y59803D01*
X504608Y59813D01*
X504655Y59813D01*
X504727Y59839D01*
X504801Y59855D01*
X504842Y59879D01*
X504887Y59895D01*
X504947Y59942D01*
X505013Y59981D01*
X505044Y60017D01*
X505081Y60047D01*
X505123Y60110D01*
X505173Y60168D01*
X505190Y60212D01*
X505217Y60252D01*
X505236Y60325D01*
X505265Y60396D01*
X505272Y60460D01*
X505280Y60490D01*
X505278Y60516D01*
X505283Y60563D01*
X505436Y447753D01*
X505423Y447829D01*
X505420Y447905D01*
X505404Y447949D01*
X505396Y447996D01*
X505360Y448063D01*
X505333Y448135D01*
X505303Y448172D01*
X505281Y448213D01*
X505226Y448266D01*
X505177Y448325D01*
X505137Y448350D01*
X505103Y448383D01*
X505033Y448415D01*
X504969Y448456D01*
X504922Y448467D01*
X504880Y448487D01*
X504804Y448495D01*
X504729Y448513D01*
X504682Y448509D01*
X504635Y448514D01*
X504560Y448498D01*
X504484Y448491D01*
X504441Y448472D01*
X504395Y448462D01*
X504329Y448423D01*
X504259Y448392D01*
X504224Y448360D01*
X504184Y448336D01*
X504134Y448277D01*
X504077Y448226D01*
X504044Y448172D01*
X504024Y448149D01*
X504014Y448124D01*
X503988Y448084D01*
X503472Y447011D01*
X495234Y438132D01*
X484745Y432077D01*
X472936Y429381D01*
X460858Y430287D01*
X449584Y434712D01*
X440115Y442263D01*
X433292Y452270D01*
X429722Y463844D01*
X429722Y475956D01*
X433292Y487530D01*
X433988Y488551D01*
X433988Y488552D01*
X434507Y489313D01*
X435545Y490835D01*
X436583Y492358D01*
X436584Y492358D01*
X437621Y493880D01*
X437622Y493880D01*
X438140Y494641D01*
X438141Y494641D01*
X439178Y496164D01*
X439179Y496164D01*
X440115Y497537D01*
X448348Y504103D01*
X448424Y504187D01*
X448503Y504270D01*
X448507Y504278D01*
X448513Y504285D01*
X448558Y504390D01*
X448607Y504493D01*
X448608Y504502D01*
X448611Y504511D01*
X448621Y504625D01*
X448634Y504737D01*
X448632Y504747D01*
X448632Y504756D01*
X448606Y504867D01*
X448581Y504978D01*
X448577Y504986D01*
X448574Y504995D01*
X448514Y505091D01*
X448455Y505189D01*
X448448Y505195D01*
X448443Y505203D01*
X448355Y505275D01*
X448268Y505349D01*
X448260Y505352D01*
X448252Y505358D01*
X448146Y505398D01*
X448040Y505441D01*
X448029Y505442D01*
X448022Y505445D01*
X447999Y505445D01*
X447873Y505459D01*
X59707Y505459D01*
X59660Y505452D01*
X59612Y505453D01*
X59539Y505432D01*
X59464Y505420D01*
X59422Y505397D01*
X59376Y505383D01*
X59314Y505340D01*
X59247Y505304D01*
X59214Y505270D01*
X59175Y505242D01*
X59130Y505181D01*
X59078Y505126D01*
X59057Y505083D01*
X59029Y505044D01*
X59006Y504972D01*
X58974Y504903D01*
X58969Y504855D01*
X58954Y504810D01*
X58955Y504734D01*
X58947Y504659D01*
X58957Y504612D01*
X58958Y504564D01*
X58983Y504492D01*
X58999Y504418D01*
X59024Y504377D01*
X59040Y504332D01*
X59087Y504272D01*
X59125Y504207D01*
X59162Y504176D01*
X59191Y504138D01*
X59295Y504062D01*
X59312Y504047D01*
X59319Y504045D01*
X59327Y504039D01*
X63434Y501667D01*
X71672Y492789D01*
X76927Y481876D01*
X78732Y469900D01*
X76927Y457923D01*
X71672Y447011D01*
X63434Y438133D01*
X52945Y432077D01*
X41136Y429381D01*
X29058Y430287D01*
X17784Y434712D01*
X8315Y442263D01*
X3931Y448693D01*
X3918Y448707D01*
X3908Y448724D01*
X3833Y448796D01*
X3761Y448871D01*
X3744Y448880D01*
X3730Y448893D01*
X3636Y448937D01*
X3544Y448986D01*
X3525Y448989D01*
X3507Y448997D01*
X3404Y449008D01*
X3301Y449025D01*
X3282Y449022D01*
X3263Y449024D01*
X3161Y449002D01*
X3058Y448985D01*
X3041Y448976D01*
X3022Y448972D01*
X2933Y448918D01*
X2841Y448870D01*
X2828Y448856D01*
X2811Y448846D01*
X2743Y448767D01*
X2672Y448691D01*
X2664Y448674D01*
X2651Y448659D01*
X2612Y448562D01*
X2569Y448468D01*
X2566Y448449D01*
X2559Y448431D01*
X2541Y448264D01*
X2541Y59736D01*
X2544Y59717D01*
X2542Y59698D01*
X2564Y59596D01*
X2580Y59493D01*
X2590Y59476D01*
X2594Y59457D01*
X2647Y59368D01*
X2696Y59276D01*
X2710Y59263D01*
X2720Y59246D01*
X2799Y59178D01*
X2874Y59107D01*
X2892Y59098D01*
X2906Y59086D01*
X3003Y59047D01*
X3097Y59003D01*
X3116Y59001D01*
X3134Y58994D01*
X3238Y58987D01*
X3341Y58976D01*
X3360Y58980D01*
X3380Y58979D01*
X3480Y59006D01*
X3582Y59028D01*
X3599Y59038D01*
X3617Y59043D01*
X3704Y59101D01*
X3793Y59154D01*
X3806Y59169D01*
X3822Y59180D01*
X3931Y59307D01*
X4381Y59968D01*
X4900Y60729D01*
X5419Y61490D01*
X5938Y62251D01*
X5938Y62252D01*
X6457Y63013D01*
X6976Y63774D01*
X7495Y64535D01*
X8014Y65296D01*
X8014Y65297D01*
X8315Y65737D01*
X17784Y73288D01*
X29058Y77713D01*
X41136Y78619D01*
X44184Y77923D01*
X47519Y77162D01*
X50854Y76400D01*
X52945Y75923D01*
X63434Y69867D01*
X71672Y60989D01*
X76927Y50077D01*
X78732Y38100D01*
X76927Y26123D01*
X71672Y15211D01*
X63434Y6332D01*
X59327Y3961D01*
X59289Y3931D01*
X59247Y3908D01*
X59195Y3853D01*
X59136Y3805D01*
X59111Y3765D01*
X59078Y3730D01*
X59046Y3661D01*
X59005Y3597D01*
X58994Y3550D01*
X58974Y3507D01*
X58966Y3432D01*
X58948Y3358D01*
X58952Y3310D01*
X58947Y3263D01*
X58963Y3188D01*
X58970Y3113D01*
X58989Y3069D01*
X58999Y3022D01*
X59038Y2957D01*
X59068Y2888D01*
X59101Y2852D01*
X59125Y2811D01*
X59183Y2762D01*
X59234Y2706D01*
X59276Y2682D01*
X59312Y2651D01*
X59383Y2623D01*
X59449Y2586D01*
X59496Y2577D01*
X59540Y2559D01*
X59669Y2545D01*
X59691Y2541D01*
X59697Y2542D01*
X59707Y2541D01*
X447873Y2541D01*
X447986Y2559D01*
G37*
%LPC*%
G36*
X294957Y204723D02*
X294957Y204723D01*
X290849Y206425D01*
X287705Y209569D01*
X286003Y213677D01*
X286003Y218123D01*
X287225Y221072D01*
X287251Y221185D01*
X287280Y221299D01*
X287279Y221305D01*
X287281Y221311D01*
X287270Y221428D01*
X287261Y221544D01*
X287258Y221550D01*
X287258Y221556D01*
X287210Y221664D01*
X287164Y221770D01*
X287160Y221776D01*
X287158Y221781D01*
X287145Y221795D01*
X287060Y221901D01*
X255606Y253355D01*
X255532Y253408D01*
X255463Y253467D01*
X255433Y253479D01*
X255406Y253498D01*
X255320Y253525D01*
X255235Y253559D01*
X255194Y253564D01*
X255171Y253570D01*
X255139Y253570D01*
X255068Y253578D01*
X254106Y253578D01*
X252062Y254424D01*
X250498Y255988D01*
X249825Y257611D01*
X249801Y257650D01*
X249785Y257693D01*
X249737Y257754D01*
X249696Y257820D01*
X249660Y257849D01*
X249632Y257885D01*
X249566Y257927D01*
X249506Y257977D01*
X249463Y257993D01*
X249425Y258018D01*
X249349Y258037D01*
X249277Y258065D01*
X249231Y258067D01*
X249186Y258078D01*
X249109Y258072D01*
X249031Y258075D01*
X248987Y258063D01*
X248941Y258059D01*
X248869Y258029D01*
X248795Y258007D01*
X248757Y257981D01*
X248715Y257963D01*
X248608Y257877D01*
X248593Y257867D01*
X248590Y257863D01*
X248584Y257858D01*
X248478Y257752D01*
X246023Y255297D01*
X241952Y255297D01*
X241862Y255283D01*
X241771Y255275D01*
X241741Y255263D01*
X241709Y255258D01*
X241628Y255215D01*
X241544Y255179D01*
X241512Y255153D01*
X241492Y255142D01*
X241472Y255122D01*
X241470Y255121D01*
X241465Y255115D01*
X241414Y255074D01*
X232634Y246294D01*
X232581Y246221D01*
X232521Y246151D01*
X232509Y246121D01*
X232490Y246095D01*
X232463Y246008D01*
X232429Y245923D01*
X232425Y245882D01*
X232418Y245860D01*
X232419Y245827D01*
X232411Y245756D01*
X232411Y220269D01*
X232425Y220179D01*
X232433Y220088D01*
X232445Y220058D01*
X232450Y220026D01*
X232474Y219982D01*
X232474Y219978D01*
X232485Y219961D01*
X232493Y219945D01*
X232529Y219861D01*
X232555Y219829D01*
X232566Y219809D01*
X232589Y219786D01*
X232590Y219785D01*
X232601Y219767D01*
X232612Y219758D01*
X232634Y219730D01*
X233314Y219050D01*
X234161Y217006D01*
X234161Y214794D01*
X233314Y212750D01*
X231750Y211186D01*
X229706Y210339D01*
X227494Y210339D01*
X225450Y211186D01*
X223886Y212750D01*
X223039Y214794D01*
X223039Y215812D01*
X223028Y215883D01*
X223026Y215955D01*
X223008Y216004D01*
X223000Y216055D01*
X222966Y216118D01*
X222941Y216186D01*
X222909Y216226D01*
X222884Y216272D01*
X222832Y216322D01*
X222788Y216378D01*
X222744Y216406D01*
X222706Y216442D01*
X222641Y216472D01*
X222581Y216511D01*
X222530Y216523D01*
X222483Y216545D01*
X222412Y216553D01*
X222342Y216571D01*
X222290Y216567D01*
X222239Y216572D01*
X222168Y216557D01*
X222097Y216552D01*
X222049Y216531D01*
X221998Y216520D01*
X221937Y216483D01*
X221871Y216455D01*
X221815Y216411D01*
X221787Y216394D01*
X221772Y216376D01*
X221740Y216350D01*
X221684Y216294D01*
X221631Y216220D01*
X221571Y216151D01*
X221559Y216121D01*
X221540Y216095D01*
X221513Y216008D01*
X221479Y215923D01*
X221475Y215882D01*
X221468Y215859D01*
X221469Y215827D01*
X221461Y215756D01*
X221461Y214794D01*
X220614Y212750D01*
X219050Y211186D01*
X217006Y210339D01*
X214794Y210339D01*
X212750Y211186D01*
X211186Y212750D01*
X210339Y214794D01*
X210339Y217006D01*
X211186Y219050D01*
X212750Y220614D01*
X214794Y221461D01*
X215756Y221461D01*
X215846Y221475D01*
X215937Y221483D01*
X215967Y221495D01*
X215999Y221500D01*
X216080Y221543D01*
X216164Y221579D01*
X216196Y221605D01*
X216216Y221616D01*
X216239Y221639D01*
X216294Y221684D01*
X218216Y223606D01*
X218269Y223679D01*
X218329Y223749D01*
X218341Y223779D01*
X218360Y223805D01*
X218387Y223892D01*
X218421Y223977D01*
X218425Y224018D01*
X218432Y224040D01*
X218431Y224073D01*
X218439Y224144D01*
X218439Y313131D01*
X218436Y313151D01*
X218438Y313170D01*
X218423Y313240D01*
X218417Y313312D01*
X218405Y313342D01*
X218400Y313374D01*
X218390Y313392D01*
X218386Y313411D01*
X218350Y313471D01*
X218321Y313539D01*
X218295Y313571D01*
X218284Y313591D01*
X218269Y313606D01*
X218260Y313622D01*
X218244Y313636D01*
X218216Y313670D01*
X217536Y314350D01*
X216689Y316394D01*
X216689Y318606D01*
X217536Y320650D01*
X219100Y322214D01*
X221144Y323061D01*
X223356Y323061D01*
X225400Y322214D01*
X226964Y320650D01*
X227811Y318606D01*
X227811Y317467D01*
X227818Y317421D01*
X227816Y317374D01*
X227838Y317300D01*
X227850Y317224D01*
X227872Y317183D01*
X227885Y317138D01*
X227929Y317075D01*
X227966Y317007D01*
X227999Y316975D01*
X228026Y316937D01*
X228088Y316891D01*
X228144Y316837D01*
X228186Y316818D01*
X228223Y316790D01*
X228297Y316766D01*
X228367Y316734D01*
X228413Y316729D01*
X228457Y316714D01*
X228535Y316715D01*
X228611Y316707D01*
X228631Y316711D01*
X230948Y316711D01*
X232992Y315864D01*
X234556Y314300D01*
X235403Y312256D01*
X235403Y310044D01*
X234556Y308000D01*
X233876Y307320D01*
X233823Y307246D01*
X233763Y307176D01*
X233751Y307146D01*
X233732Y307120D01*
X233705Y307033D01*
X233671Y306948D01*
X233667Y306907D01*
X233660Y306885D01*
X233661Y306853D01*
X233653Y306781D01*
X233653Y264719D01*
X233667Y264629D01*
X233675Y264538D01*
X233687Y264508D01*
X233692Y264476D01*
X233735Y264395D01*
X233771Y264311D01*
X233797Y264279D01*
X233808Y264259D01*
X233831Y264236D01*
X233876Y264180D01*
X234556Y263500D01*
X235440Y261367D01*
X235464Y261328D01*
X235479Y261285D01*
X235528Y261224D01*
X235569Y261158D01*
X235605Y261129D01*
X235633Y261093D01*
X235699Y261051D01*
X235759Y261001D01*
X235801Y260985D01*
X235840Y260960D01*
X235916Y260941D01*
X235988Y260913D01*
X236034Y260911D01*
X236079Y260900D01*
X236156Y260906D01*
X236234Y260903D01*
X236278Y260916D01*
X236324Y260919D01*
X236395Y260950D01*
X236470Y260971D01*
X236508Y260998D01*
X236550Y261015D01*
X236657Y261101D01*
X236672Y261112D01*
X236675Y261116D01*
X236681Y261120D01*
X237310Y261749D01*
X237322Y261765D01*
X237337Y261778D01*
X237393Y261865D01*
X237454Y261949D01*
X237459Y261968D01*
X237470Y261985D01*
X237496Y262085D01*
X237526Y262184D01*
X237525Y262204D01*
X237530Y262223D01*
X237522Y262326D01*
X237520Y262430D01*
X237513Y262449D01*
X237511Y262469D01*
X237471Y262563D01*
X237435Y262661D01*
X237423Y262677D01*
X237415Y262695D01*
X237310Y262826D01*
X236586Y263550D01*
X235739Y265594D01*
X235739Y267806D01*
X236586Y269850D01*
X237266Y270530D01*
X237319Y270604D01*
X237379Y270674D01*
X237391Y270704D01*
X237410Y270730D01*
X237437Y270817D01*
X237471Y270902D01*
X237475Y270943D01*
X237482Y270965D01*
X237481Y270997D01*
X237489Y271069D01*
X237489Y315606D01*
X237475Y315696D01*
X237467Y315787D01*
X237455Y315817D01*
X237450Y315849D01*
X237407Y315930D01*
X237371Y316014D01*
X237345Y316046D01*
X237334Y316066D01*
X237311Y316089D01*
X237266Y316144D01*
X203594Y349816D01*
X203521Y349869D01*
X203451Y349929D01*
X203421Y349941D01*
X203395Y349960D01*
X203308Y349987D01*
X203223Y350021D01*
X203182Y350025D01*
X203160Y350032D01*
X203127Y350031D01*
X203056Y350039D01*
X202094Y350039D01*
X200050Y350886D01*
X198486Y352450D01*
X197639Y354494D01*
X197639Y356706D01*
X198486Y358750D01*
X200050Y360314D01*
X202094Y361161D01*
X204306Y361161D01*
X206350Y360314D01*
X207914Y358750D01*
X208761Y356706D01*
X208761Y355744D01*
X208763Y355731D01*
X208762Y355721D01*
X208773Y355672D01*
X208775Y355654D01*
X208783Y355563D01*
X208795Y355533D01*
X208800Y355501D01*
X208843Y355420D01*
X208879Y355336D01*
X208905Y355304D01*
X208916Y355284D01*
X208939Y355261D01*
X208984Y355206D01*
X245111Y319078D01*
X245111Y313874D01*
X245113Y313862D01*
X245112Y313853D01*
X245122Y313805D01*
X245122Y313804D01*
X245124Y313732D01*
X245142Y313683D01*
X245150Y313632D01*
X245184Y313568D01*
X245209Y313501D01*
X245241Y313460D01*
X245266Y313414D01*
X245318Y313365D01*
X245362Y313309D01*
X245406Y313281D01*
X245444Y313245D01*
X245509Y313215D01*
X245569Y313176D01*
X245620Y313163D01*
X245667Y313141D01*
X245738Y313133D01*
X245808Y313116D01*
X245860Y313120D01*
X245911Y313114D01*
X245982Y313130D01*
X246053Y313135D01*
X246101Y313155D01*
X246152Y313167D01*
X246213Y313203D01*
X246279Y313231D01*
X246335Y313276D01*
X246363Y313293D01*
X246378Y313310D01*
X246410Y313336D01*
X247536Y314462D01*
X272222Y339148D01*
X292831Y359757D01*
X292899Y359852D01*
X292969Y359946D01*
X292971Y359952D01*
X292974Y359957D01*
X293009Y360068D01*
X293045Y360179D01*
X293045Y360186D01*
X293047Y360192D01*
X293044Y360308D01*
X293043Y360425D01*
X293041Y360433D01*
X293040Y360438D01*
X293034Y360455D01*
X292996Y360586D01*
X292889Y360844D01*
X292889Y363056D01*
X293736Y365100D01*
X295300Y366664D01*
X297344Y367511D01*
X299556Y367511D01*
X301600Y366664D01*
X303164Y365100D01*
X304011Y363056D01*
X304011Y360844D01*
X303164Y358800D01*
X301600Y357236D01*
X300866Y356932D01*
X300811Y356897D01*
X300750Y356872D01*
X300686Y356820D01*
X300657Y356802D01*
X300645Y356787D01*
X300619Y356767D01*
X299806Y355953D01*
X252926Y309073D01*
X252879Y309009D01*
X252863Y308991D01*
X252859Y308984D01*
X252813Y308930D01*
X252801Y308900D01*
X252782Y308873D01*
X252755Y308787D01*
X252721Y308702D01*
X252717Y308661D01*
X252710Y308638D01*
X252711Y308606D01*
X252703Y308535D01*
X252703Y265257D01*
X252710Y265212D01*
X252708Y265166D01*
X252730Y265091D01*
X252742Y265014D01*
X252764Y264974D01*
X252777Y264930D01*
X252821Y264866D01*
X252858Y264797D01*
X252891Y264765D01*
X252917Y264728D01*
X252979Y264681D01*
X253036Y264628D01*
X253078Y264608D01*
X253114Y264581D01*
X253188Y264557D01*
X253259Y264524D01*
X253305Y264519D01*
X253348Y264505D01*
X253426Y264506D01*
X253503Y264497D01*
X253548Y264507D01*
X253594Y264507D01*
X253726Y264545D01*
X253744Y264549D01*
X253748Y264552D01*
X253755Y264554D01*
X254106Y264699D01*
X256318Y264699D01*
X258362Y263852D01*
X259926Y262288D01*
X260772Y260244D01*
X260772Y259282D01*
X260787Y259192D01*
X260794Y259101D01*
X260807Y259071D01*
X260812Y259039D01*
X260855Y258959D01*
X260891Y258875D01*
X260916Y258843D01*
X260927Y258822D01*
X260951Y258800D01*
X260995Y258744D01*
X292975Y226764D01*
X293069Y226697D01*
X293163Y226626D01*
X293170Y226625D01*
X293175Y226621D01*
X293285Y226587D01*
X293397Y226550D01*
X293404Y226550D01*
X293410Y226549D01*
X293526Y226552D01*
X293643Y226553D01*
X293650Y226555D01*
X293656Y226555D01*
X293673Y226561D01*
X293804Y226599D01*
X294957Y227077D01*
X299403Y227077D01*
X303511Y225375D01*
X306655Y222231D01*
X308357Y218123D01*
X308357Y213677D01*
X306655Y209569D01*
X303511Y206425D01*
X299403Y204723D01*
X294957Y204723D01*
G37*
%LPD*%
%LPC*%
G36*
X143827Y134873D02*
X143827Y134873D01*
X139719Y136575D01*
X136575Y139719D01*
X134873Y143827D01*
X134873Y148273D01*
X136575Y152381D01*
X138910Y154716D01*
X138921Y154732D01*
X138937Y154744D01*
X138993Y154832D01*
X139053Y154916D01*
X139059Y154935D01*
X139070Y154951D01*
X139095Y155052D01*
X139125Y155151D01*
X139125Y155171D01*
X139130Y155190D01*
X139122Y155293D01*
X139119Y155396D01*
X139112Y155415D01*
X139111Y155435D01*
X139070Y155530D01*
X139035Y155628D01*
X139022Y155643D01*
X139014Y155661D01*
X138910Y155792D01*
X129031Y165671D01*
X129031Y179769D01*
X139001Y189739D01*
X226759Y189739D01*
X228314Y188184D01*
X228388Y188131D01*
X228458Y188071D01*
X228488Y188059D01*
X228514Y188040D01*
X228601Y188013D01*
X228686Y187979D01*
X228727Y187975D01*
X228749Y187968D01*
X228781Y187969D01*
X228853Y187961D01*
X281178Y187961D01*
X281198Y187964D01*
X281217Y187962D01*
X281319Y187984D01*
X281421Y188000D01*
X281438Y188010D01*
X281458Y188014D01*
X281547Y188067D01*
X281638Y188116D01*
X281652Y188130D01*
X281669Y188140D01*
X281736Y188219D01*
X281808Y188294D01*
X281816Y188312D01*
X281829Y188327D01*
X281868Y188423D01*
X281911Y188517D01*
X281913Y188537D01*
X281921Y188555D01*
X281939Y188722D01*
X281939Y192481D01*
X281925Y192571D01*
X281917Y192662D01*
X281905Y192692D01*
X281900Y192724D01*
X281857Y192805D01*
X281821Y192889D01*
X281795Y192921D01*
X281784Y192941D01*
X281761Y192964D01*
X281716Y193020D01*
X281036Y193700D01*
X280189Y195744D01*
X280189Y197956D01*
X281036Y200000D01*
X282600Y201564D01*
X284644Y202411D01*
X286856Y202411D01*
X288900Y201564D01*
X290464Y200000D01*
X291311Y197956D01*
X291311Y195744D01*
X290464Y193700D01*
X289784Y193020D01*
X289731Y192946D01*
X289671Y192876D01*
X289659Y192846D01*
X289640Y192820D01*
X289613Y192733D01*
X289579Y192648D01*
X289575Y192607D01*
X289568Y192585D01*
X289569Y192553D01*
X289561Y192481D01*
X289561Y182572D01*
X287328Y180339D01*
X229735Y180339D01*
X229664Y180328D01*
X229592Y180326D01*
X229543Y180308D01*
X229492Y180300D01*
X229429Y180266D01*
X229361Y180241D01*
X229321Y180209D01*
X229275Y180184D01*
X229225Y180132D01*
X229169Y180088D01*
X229141Y180044D01*
X229105Y180006D01*
X229075Y179941D01*
X229036Y179881D01*
X229024Y179830D01*
X229002Y179783D01*
X228994Y179712D01*
X228976Y179642D01*
X228980Y179590D01*
X228975Y179539D01*
X228990Y179468D01*
X228995Y179397D01*
X229016Y179349D01*
X229027Y179298D01*
X229064Y179237D01*
X229092Y179171D01*
X229137Y179115D01*
X229153Y179087D01*
X229171Y179072D01*
X229197Y179040D01*
X231725Y176511D01*
X233427Y172403D01*
X233427Y167957D01*
X231725Y163849D01*
X228581Y160705D01*
X224473Y159003D01*
X220027Y159003D01*
X215919Y160705D01*
X212775Y163849D01*
X211073Y167957D01*
X211073Y172403D01*
X212775Y176511D01*
X215919Y179655D01*
X218327Y180653D01*
X218410Y180704D01*
X218496Y180750D01*
X218514Y180768D01*
X218536Y180782D01*
X218598Y180858D01*
X218665Y180928D01*
X218676Y180952D01*
X218693Y180972D01*
X218728Y181063D01*
X218769Y181151D01*
X218772Y181177D01*
X218781Y181201D01*
X218785Y181299D01*
X218796Y181395D01*
X218791Y181421D01*
X218792Y181447D01*
X218765Y181541D01*
X218744Y181636D01*
X218730Y181658D01*
X218723Y181683D01*
X218668Y181763D01*
X218618Y181847D01*
X218598Y181864D01*
X218583Y181885D01*
X218505Y181944D01*
X218431Y182007D01*
X218406Y182017D01*
X218385Y182032D01*
X218293Y182062D01*
X218203Y182099D01*
X218170Y182102D01*
X218152Y182108D01*
X218119Y182108D01*
X218036Y182117D01*
X205097Y182117D01*
X205026Y182106D01*
X204954Y182104D01*
X204905Y182086D01*
X204854Y182078D01*
X204791Y182044D01*
X204723Y182019D01*
X204683Y181987D01*
X204637Y181962D01*
X204587Y181910D01*
X204531Y181866D01*
X204503Y181822D01*
X204467Y181784D01*
X204437Y181719D01*
X204398Y181659D01*
X204386Y181608D01*
X204364Y181561D01*
X204356Y181490D01*
X204338Y181420D01*
X204342Y181368D01*
X204337Y181317D01*
X204352Y181246D01*
X204357Y181175D01*
X204378Y181127D01*
X204389Y181076D01*
X204426Y181015D01*
X204454Y180949D01*
X204499Y180893D01*
X204515Y180865D01*
X204533Y180850D01*
X204559Y180818D01*
X206325Y179051D01*
X208027Y174943D01*
X208027Y170497D01*
X206325Y166389D01*
X203181Y163245D01*
X199073Y161543D01*
X194627Y161543D01*
X190519Y163245D01*
X187375Y166389D01*
X185673Y170497D01*
X185673Y174943D01*
X187375Y179051D01*
X189141Y180818D01*
X189183Y180876D01*
X189233Y180928D01*
X189255Y180975D01*
X189285Y181017D01*
X189306Y181086D01*
X189336Y181151D01*
X189342Y181203D01*
X189357Y181253D01*
X189355Y181324D01*
X189363Y181395D01*
X189352Y181446D01*
X189351Y181498D01*
X189326Y181566D01*
X189311Y181636D01*
X189284Y181681D01*
X189267Y181729D01*
X189222Y181785D01*
X189185Y181847D01*
X189145Y181881D01*
X189113Y181921D01*
X189053Y181960D01*
X188998Y182007D01*
X188950Y182026D01*
X188906Y182054D01*
X188836Y182072D01*
X188770Y182099D01*
X188699Y182107D01*
X188667Y182115D01*
X188644Y182113D01*
X188603Y182117D01*
X175664Y182117D01*
X175568Y182102D01*
X175471Y182092D01*
X175447Y182082D01*
X175421Y182078D01*
X175335Y182032D01*
X175246Y181992D01*
X175227Y181975D01*
X175204Y181962D01*
X175137Y181892D01*
X175065Y181826D01*
X175053Y181803D01*
X175035Y181784D01*
X174994Y181696D01*
X174947Y181610D01*
X174942Y181585D01*
X174931Y181561D01*
X174920Y181464D01*
X174903Y181368D01*
X174907Y181342D01*
X174904Y181317D01*
X174925Y181221D01*
X174939Y181125D01*
X174951Y181102D01*
X174956Y181076D01*
X175006Y180993D01*
X175050Y180906D01*
X175069Y180887D01*
X175082Y180865D01*
X175156Y180802D01*
X175226Y180734D01*
X175254Y180718D01*
X175269Y180705D01*
X175300Y180693D01*
X175373Y180653D01*
X177781Y179655D01*
X180925Y176511D01*
X182627Y172403D01*
X182627Y167957D01*
X180925Y163849D01*
X177781Y160705D01*
X173673Y159003D01*
X169227Y159003D01*
X165119Y160705D01*
X161975Y163849D01*
X160273Y167957D01*
X160273Y172403D01*
X161975Y176511D01*
X165119Y179655D01*
X167527Y180653D01*
X167610Y180704D01*
X167696Y180750D01*
X167714Y180768D01*
X167736Y180782D01*
X167798Y180858D01*
X167865Y180928D01*
X167876Y180952D01*
X167893Y180972D01*
X167928Y181063D01*
X167969Y181151D01*
X167972Y181177D01*
X167981Y181201D01*
X167985Y181299D01*
X167996Y181395D01*
X167991Y181421D01*
X167992Y181447D01*
X167965Y181541D01*
X167944Y181636D01*
X167930Y181658D01*
X167923Y181683D01*
X167868Y181763D01*
X167818Y181847D01*
X167798Y181864D01*
X167783Y181885D01*
X167705Y181944D01*
X167631Y182007D01*
X167606Y182017D01*
X167585Y182032D01*
X167493Y182062D01*
X167403Y182099D01*
X167370Y182102D01*
X167352Y182108D01*
X167319Y182108D01*
X167236Y182117D01*
X154297Y182117D01*
X154226Y182106D01*
X154154Y182104D01*
X154105Y182086D01*
X154054Y182078D01*
X153991Y182044D01*
X153923Y182019D01*
X153883Y181987D01*
X153837Y181962D01*
X153787Y181910D01*
X153731Y181866D01*
X153703Y181822D01*
X153667Y181784D01*
X153637Y181719D01*
X153598Y181659D01*
X153586Y181608D01*
X153564Y181561D01*
X153556Y181490D01*
X153538Y181420D01*
X153542Y181368D01*
X153537Y181317D01*
X153552Y181246D01*
X153557Y181175D01*
X153578Y181127D01*
X153589Y181076D01*
X153626Y181015D01*
X153654Y180949D01*
X153699Y180893D01*
X153715Y180865D01*
X153733Y180850D01*
X153759Y180818D01*
X155525Y179051D01*
X157227Y174943D01*
X157227Y170497D01*
X155525Y166389D01*
X152381Y163245D01*
X148273Y161543D01*
X145775Y161543D01*
X145704Y161532D01*
X145632Y161530D01*
X145583Y161512D01*
X145532Y161504D01*
X145469Y161470D01*
X145401Y161445D01*
X145361Y161413D01*
X145315Y161388D01*
X145265Y161336D01*
X145209Y161292D01*
X145181Y161248D01*
X145145Y161210D01*
X145115Y161145D01*
X145076Y161085D01*
X145064Y161034D01*
X145042Y160987D01*
X145034Y160916D01*
X145016Y160846D01*
X145020Y160794D01*
X145015Y160743D01*
X145030Y160672D01*
X145035Y160601D01*
X145056Y160553D01*
X145067Y160502D01*
X145104Y160441D01*
X145132Y160375D01*
X145177Y160319D01*
X145193Y160291D01*
X145211Y160276D01*
X145237Y160244D01*
X147406Y158075D01*
X148133Y157348D01*
X148186Y157310D01*
X148233Y157264D01*
X148306Y157223D01*
X148332Y157204D01*
X148351Y157198D01*
X148380Y157183D01*
X152381Y155525D01*
X155525Y152381D01*
X157227Y148273D01*
X157227Y143827D01*
X155525Y139719D01*
X152381Y136575D01*
X148273Y134873D01*
X143827Y134873D01*
G37*
%LPD*%
%LPC*%
G36*
X271686Y82041D02*
X271686Y82041D01*
X269165Y83085D01*
X267235Y85015D01*
X266191Y87536D01*
X266191Y90264D01*
X267235Y92785D01*
X306128Y131678D01*
X306181Y131752D01*
X306241Y131821D01*
X306253Y131852D01*
X306272Y131878D01*
X306299Y131965D01*
X306333Y132050D01*
X306337Y132091D01*
X306344Y132113D01*
X306343Y132145D01*
X306351Y132216D01*
X306351Y145472D01*
X307395Y147992D01*
X309432Y150029D01*
X313521Y154118D01*
X315558Y156155D01*
X318078Y157199D01*
X331334Y157199D01*
X331424Y157213D01*
X331515Y157221D01*
X331544Y157233D01*
X331576Y157238D01*
X331657Y157281D01*
X331741Y157317D01*
X331773Y157343D01*
X331794Y157354D01*
X331816Y157377D01*
X331872Y157422D01*
X396165Y221715D01*
X398686Y222759D01*
X414114Y222759D01*
X416635Y221715D01*
X418565Y219785D01*
X419609Y217264D01*
X419609Y214536D01*
X418565Y212015D01*
X416635Y210085D01*
X414114Y209041D01*
X403206Y209041D01*
X403116Y209027D01*
X403025Y209019D01*
X402996Y209007D01*
X402964Y209002D01*
X402883Y208959D01*
X402799Y208923D01*
X402767Y208897D01*
X402746Y208886D01*
X402724Y208863D01*
X402668Y208818D01*
X338375Y144525D01*
X335854Y143481D01*
X322599Y143481D01*
X322509Y143467D01*
X322418Y143459D01*
X322388Y143447D01*
X322356Y143442D01*
X322276Y143399D01*
X322192Y143363D01*
X322160Y143337D01*
X322139Y143326D01*
X322117Y143303D01*
X322061Y143258D01*
X320292Y141489D01*
X320239Y141415D01*
X320179Y141346D01*
X320167Y141316D01*
X320148Y141289D01*
X320121Y141203D01*
X320087Y141118D01*
X320083Y141077D01*
X320076Y141054D01*
X320077Y141022D01*
X320069Y140951D01*
X320069Y127696D01*
X319025Y125175D01*
X276935Y83085D01*
X274414Y82041D01*
X271686Y82041D01*
G37*
%LPD*%
%LPC*%
G36*
X213677Y12953D02*
X213677Y12953D01*
X209569Y14655D01*
X206425Y17799D01*
X204723Y21907D01*
X204723Y26353D01*
X206425Y30461D01*
X209569Y33605D01*
X213677Y35307D01*
X213995Y35307D01*
X214015Y35310D01*
X214034Y35308D01*
X214136Y35330D01*
X214238Y35346D01*
X214255Y35356D01*
X214275Y35360D01*
X214364Y35413D01*
X214455Y35462D01*
X214469Y35476D01*
X214486Y35486D01*
X214553Y35565D01*
X214625Y35640D01*
X214633Y35658D01*
X214646Y35673D01*
X214685Y35769D01*
X214728Y35863D01*
X214730Y35883D01*
X214738Y35901D01*
X214756Y36068D01*
X214756Y56543D01*
X215273Y57791D01*
X215290Y57863D01*
X215316Y57933D01*
X215322Y58000D01*
X215330Y58031D01*
X215327Y58055D01*
X215331Y58100D01*
X214797Y81475D01*
X214782Y81557D01*
X214775Y81639D01*
X214759Y81676D01*
X214752Y81717D01*
X214711Y81789D01*
X214679Y81865D01*
X214645Y81907D01*
X214632Y81932D01*
X214610Y81951D01*
X214574Y81996D01*
X213713Y82857D01*
X212089Y86778D01*
X212089Y91022D01*
X213713Y94943D01*
X216715Y97945D01*
X220636Y99569D01*
X224880Y99569D01*
X228801Y97945D01*
X231803Y94943D01*
X233427Y91022D01*
X233427Y86778D01*
X231803Y82857D01*
X231275Y82329D01*
X231216Y82247D01*
X231153Y82170D01*
X231145Y82148D01*
X231131Y82129D01*
X231102Y82033D01*
X231066Y81940D01*
X231064Y81911D01*
X231059Y81894D01*
X231059Y81861D01*
X231052Y81773D01*
X231609Y57409D01*
X231619Y57353D01*
X231620Y57296D01*
X231648Y57198D01*
X231649Y57195D01*
X231649Y56143D01*
X231660Y56072D01*
X231662Y56000D01*
X231680Y55951D01*
X231688Y55900D01*
X231722Y55837D01*
X231747Y55769D01*
X231779Y55729D01*
X231804Y55683D01*
X231856Y55633D01*
X231900Y55577D01*
X231944Y55549D01*
X231982Y55513D01*
X232047Y55483D01*
X232107Y55444D01*
X232158Y55432D01*
X232205Y55410D01*
X232276Y55402D01*
X232346Y55384D01*
X232398Y55388D01*
X232449Y55383D01*
X232520Y55398D01*
X232591Y55403D01*
X232639Y55424D01*
X232690Y55435D01*
X232751Y55472D01*
X232817Y55500D01*
X232873Y55544D01*
X232901Y55561D01*
X232916Y55579D01*
X232948Y55604D01*
X235823Y58479D01*
X241354Y60770D01*
X247342Y60770D01*
X252873Y58479D01*
X257107Y54245D01*
X259398Y48714D01*
X259398Y42726D01*
X257107Y37195D01*
X252873Y32961D01*
X247342Y30670D01*
X241354Y30670D01*
X235823Y32961D01*
X232313Y36471D01*
X232255Y36512D01*
X232203Y36562D01*
X232156Y36584D01*
X232114Y36614D01*
X232045Y36635D01*
X231980Y36665D01*
X231928Y36671D01*
X231878Y36686D01*
X231807Y36685D01*
X231736Y36692D01*
X231685Y36681D01*
X231633Y36680D01*
X231565Y36655D01*
X231495Y36640D01*
X231450Y36613D01*
X231402Y36596D01*
X231346Y36551D01*
X231284Y36514D01*
X231250Y36474D01*
X231210Y36442D01*
X231171Y36382D01*
X231124Y36327D01*
X231105Y36279D01*
X231077Y36235D01*
X231059Y36166D01*
X231032Y36099D01*
X231024Y36028D01*
X231016Y35996D01*
X231018Y35973D01*
X231014Y35932D01*
X231014Y29498D01*
X229776Y26510D01*
X227300Y24034D01*
X227247Y23960D01*
X227187Y23891D01*
X227175Y23860D01*
X227156Y23834D01*
X227129Y23747D01*
X227095Y23662D01*
X227091Y23621D01*
X227084Y23599D01*
X227085Y23567D01*
X227077Y23496D01*
X227077Y21907D01*
X225375Y17799D01*
X222231Y14655D01*
X218123Y12953D01*
X213677Y12953D01*
G37*
%LPD*%
%LPC*%
G36*
X294957Y255523D02*
X294957Y255523D01*
X290849Y257225D01*
X287705Y260369D01*
X286003Y264477D01*
X286003Y268923D01*
X286853Y270974D01*
X286863Y271018D01*
X286881Y271057D01*
X286889Y271125D01*
X286908Y271201D01*
X286907Y271207D01*
X286909Y271213D01*
X286904Y271263D01*
X286908Y271301D01*
X286895Y271361D01*
X286889Y271446D01*
X286886Y271452D01*
X286886Y271458D01*
X286863Y271508D01*
X286856Y271542D01*
X286828Y271589D01*
X286792Y271672D01*
X286788Y271678D01*
X286786Y271683D01*
X286773Y271696D01*
X286736Y271743D01*
X286730Y271753D01*
X286723Y271758D01*
X286688Y271803D01*
X276774Y281716D01*
X276701Y281769D01*
X276631Y281829D01*
X276601Y281841D01*
X276575Y281860D01*
X276488Y281887D01*
X276403Y281921D01*
X276362Y281925D01*
X276340Y281932D01*
X276307Y281931D01*
X276236Y281939D01*
X271069Y281939D01*
X270979Y281925D01*
X270888Y281917D01*
X270858Y281905D01*
X270826Y281900D01*
X270745Y281857D01*
X270661Y281821D01*
X270629Y281795D01*
X270609Y281784D01*
X270591Y281766D01*
X270589Y281765D01*
X270582Y281758D01*
X270530Y281716D01*
X269850Y281036D01*
X267806Y280189D01*
X265594Y280189D01*
X263550Y281036D01*
X261986Y282600D01*
X261139Y284644D01*
X261139Y286856D01*
X261986Y288900D01*
X263550Y290464D01*
X265594Y291311D01*
X266556Y291311D01*
X266646Y291325D01*
X266737Y291333D01*
X266767Y291345D01*
X266799Y291350D01*
X266880Y291393D01*
X266964Y291429D01*
X266996Y291455D01*
X267016Y291466D01*
X267039Y291489D01*
X267094Y291534D01*
X303222Y327661D01*
X382981Y327661D01*
X383071Y327675D01*
X383162Y327683D01*
X383192Y327695D01*
X383224Y327700D01*
X383305Y327743D01*
X383389Y327779D01*
X383421Y327805D01*
X383441Y327816D01*
X383464Y327839D01*
X383520Y327884D01*
X384200Y328564D01*
X386244Y329411D01*
X388456Y329411D01*
X390500Y328564D01*
X392064Y327000D01*
X392911Y324956D01*
X392911Y322744D01*
X392064Y320700D01*
X390500Y319136D01*
X388456Y318289D01*
X386244Y318289D01*
X384200Y319136D01*
X383520Y319816D01*
X383446Y319869D01*
X383376Y319929D01*
X383346Y319941D01*
X383320Y319960D01*
X383233Y319987D01*
X383148Y320021D01*
X383107Y320025D01*
X383085Y320032D01*
X383053Y320031D01*
X382981Y320039D01*
X306694Y320039D01*
X306604Y320025D01*
X306513Y320017D01*
X306483Y320005D01*
X306451Y320000D01*
X306370Y319957D01*
X306286Y319921D01*
X306254Y319895D01*
X306234Y319884D01*
X306211Y319861D01*
X306156Y319816D01*
X277199Y290860D01*
X277158Y290802D01*
X277108Y290750D01*
X277086Y290703D01*
X277056Y290661D01*
X277035Y290592D01*
X277005Y290527D01*
X276999Y290475D01*
X276984Y290425D01*
X276985Y290354D01*
X276978Y290283D01*
X276989Y290232D01*
X276990Y290180D01*
X277015Y290112D01*
X277030Y290042D01*
X277056Y289997D01*
X277074Y289949D01*
X277119Y289893D01*
X277156Y289831D01*
X277196Y289797D01*
X277228Y289757D01*
X277288Y289718D01*
X277343Y289671D01*
X277391Y289652D01*
X277435Y289624D01*
X277504Y289606D01*
X277571Y289579D01*
X277642Y289571D01*
X277674Y289563D01*
X277697Y289565D01*
X277738Y289561D01*
X279708Y289561D01*
X292077Y277192D01*
X292172Y277124D01*
X292265Y277054D01*
X292271Y277053D01*
X292277Y277049D01*
X292388Y277015D01*
X292499Y276978D01*
X292506Y276978D01*
X292512Y276977D01*
X292628Y276980D01*
X292745Y276981D01*
X292752Y276983D01*
X292757Y276983D01*
X292775Y276989D01*
X292906Y277027D01*
X294957Y277877D01*
X299403Y277877D01*
X303511Y276175D01*
X306655Y273031D01*
X308357Y268923D01*
X308357Y264477D01*
X306655Y260369D01*
X303511Y257225D01*
X299403Y255523D01*
X294957Y255523D01*
G37*
%LPD*%
%LPC*%
G36*
X327977Y14223D02*
X327977Y14223D01*
X323869Y15925D01*
X320725Y19069D01*
X319023Y23177D01*
X319023Y27623D01*
X320725Y31731D01*
X321105Y32111D01*
X321156Y32183D01*
X321214Y32249D01*
X321228Y32282D01*
X321249Y32311D01*
X321274Y32395D01*
X321308Y32476D01*
X321313Y32522D01*
X321321Y32546D01*
X321320Y32577D01*
X321328Y32643D01*
X321726Y78453D01*
X321708Y78571D01*
X321690Y78691D01*
X321689Y78693D01*
X321689Y78696D01*
X321633Y78803D01*
X321579Y78910D01*
X321577Y78912D01*
X321575Y78915D01*
X321489Y78998D01*
X321403Y79082D01*
X321400Y79084D01*
X321399Y79085D01*
X321389Y79090D01*
X321256Y79163D01*
X319585Y79855D01*
X316583Y82857D01*
X314959Y86778D01*
X314959Y91022D01*
X316583Y94943D01*
X319585Y97945D01*
X323506Y99569D01*
X327750Y99569D01*
X331671Y97945D01*
X334673Y94943D01*
X336297Y91022D01*
X336297Y86778D01*
X334673Y82857D01*
X331671Y79855D01*
X329817Y79088D01*
X329721Y79028D01*
X329623Y78970D01*
X329616Y78963D01*
X329608Y78958D01*
X329536Y78870D01*
X329461Y78785D01*
X329458Y78776D01*
X329452Y78768D01*
X329411Y78662D01*
X329367Y78557D01*
X329366Y78546D01*
X329363Y78539D01*
X329362Y78515D01*
X329347Y78391D01*
X328991Y37345D01*
X328994Y37322D01*
X328992Y37299D01*
X329013Y37201D01*
X329028Y37102D01*
X329039Y37081D01*
X329044Y37058D01*
X329095Y36972D01*
X329141Y36883D01*
X329158Y36867D01*
X329170Y36847D01*
X329246Y36782D01*
X329318Y36712D01*
X329339Y36702D01*
X329357Y36687D01*
X329450Y36650D01*
X329540Y36607D01*
X329563Y36604D01*
X329585Y36595D01*
X329752Y36577D01*
X332423Y36577D01*
X336531Y34875D01*
X339675Y31731D01*
X341377Y27623D01*
X341377Y23177D01*
X339675Y19069D01*
X336531Y15925D01*
X332423Y14223D01*
X327977Y14223D01*
G37*
%LPD*%
%LPC*%
G36*
X353377Y14223D02*
X353377Y14223D01*
X349269Y15925D01*
X346125Y19069D01*
X344423Y23177D01*
X344423Y27623D01*
X346125Y31731D01*
X349269Y34875D01*
X351319Y35724D01*
X351419Y35786D01*
X351519Y35846D01*
X351523Y35851D01*
X351528Y35854D01*
X351603Y35945D01*
X351679Y36033D01*
X351681Y36039D01*
X351685Y36044D01*
X351727Y36152D01*
X351771Y36261D01*
X351772Y36269D01*
X351773Y36273D01*
X351774Y36291D01*
X351789Y36428D01*
X351789Y78422D01*
X351770Y78537D01*
X351753Y78653D01*
X351751Y78659D01*
X351750Y78665D01*
X351695Y78767D01*
X351642Y78872D01*
X351637Y78877D01*
X351634Y78882D01*
X351550Y78962D01*
X351466Y79044D01*
X351460Y79048D01*
X351456Y79052D01*
X351439Y79059D01*
X351319Y79125D01*
X349557Y79855D01*
X346555Y82857D01*
X344931Y86778D01*
X344931Y91022D01*
X346555Y94943D01*
X349557Y97945D01*
X353478Y99569D01*
X357722Y99569D01*
X361643Y97945D01*
X364645Y94943D01*
X366269Y91022D01*
X366269Y86778D01*
X364645Y82857D01*
X361643Y79855D01*
X359881Y79125D01*
X359781Y79063D01*
X359681Y79004D01*
X359677Y78999D01*
X359672Y78996D01*
X359597Y78905D01*
X359521Y78817D01*
X359519Y78811D01*
X359515Y78806D01*
X359473Y78698D01*
X359429Y78589D01*
X359428Y78581D01*
X359427Y78577D01*
X359426Y78558D01*
X359411Y78422D01*
X359411Y36428D01*
X359430Y36313D01*
X359447Y36197D01*
X359449Y36191D01*
X359450Y36185D01*
X359505Y36082D01*
X359558Y35978D01*
X359563Y35973D01*
X359566Y35968D01*
X359650Y35888D01*
X359734Y35805D01*
X359740Y35802D01*
X359744Y35798D01*
X359761Y35790D01*
X359881Y35724D01*
X361931Y34875D01*
X365075Y31731D01*
X366777Y27623D01*
X366777Y23177D01*
X365075Y19069D01*
X361931Y15925D01*
X357823Y14223D01*
X353377Y14223D01*
G37*
%LPD*%
%LPC*%
G36*
X169227Y134873D02*
X169227Y134873D01*
X165119Y136575D01*
X161975Y139719D01*
X160273Y143827D01*
X160273Y148273D01*
X161975Y152381D01*
X165119Y155525D01*
X169227Y157227D01*
X173673Y157227D01*
X177781Y155525D01*
X180925Y152381D01*
X181774Y150331D01*
X181836Y150231D01*
X181896Y150131D01*
X181901Y150127D01*
X181904Y150122D01*
X181995Y150047D01*
X182083Y149971D01*
X182089Y149969D01*
X182094Y149965D01*
X182202Y149923D01*
X182311Y149879D01*
X182319Y149878D01*
X182323Y149877D01*
X182341Y149876D01*
X182478Y149861D01*
X249631Y149861D01*
X249721Y149875D01*
X249812Y149883D01*
X249842Y149895D01*
X249874Y149900D01*
X249955Y149943D01*
X250039Y149979D01*
X250071Y150005D01*
X250091Y150016D01*
X250114Y150039D01*
X250170Y150084D01*
X250850Y150764D01*
X252894Y151611D01*
X255106Y151611D01*
X257150Y150764D01*
X258714Y149200D01*
X259561Y147156D01*
X259561Y144944D01*
X258714Y142900D01*
X257150Y141336D01*
X255106Y140489D01*
X252894Y140489D01*
X250850Y141336D01*
X250170Y142016D01*
X250096Y142069D01*
X250026Y142129D01*
X249996Y142141D01*
X249970Y142160D01*
X249883Y142187D01*
X249798Y142221D01*
X249757Y142225D01*
X249735Y142232D01*
X249703Y142231D01*
X249631Y142239D01*
X182478Y142239D01*
X182363Y142220D01*
X182247Y142203D01*
X182241Y142201D01*
X182235Y142200D01*
X182132Y142145D01*
X182028Y142092D01*
X182023Y142087D01*
X182018Y142084D01*
X181938Y142000D01*
X181855Y141916D01*
X181852Y141910D01*
X181848Y141906D01*
X181840Y141889D01*
X181774Y141769D01*
X180925Y139719D01*
X177781Y136575D01*
X173673Y134873D01*
X169227Y134873D01*
G37*
%LPD*%
%LPC*%
G36*
X138594Y254789D02*
X138594Y254789D01*
X136550Y255636D01*
X134986Y257200D01*
X134139Y259244D01*
X134139Y261456D01*
X134986Y263500D01*
X136550Y265064D01*
X138594Y265911D01*
X139556Y265911D01*
X139646Y265925D01*
X139737Y265933D01*
X139767Y265945D01*
X139799Y265950D01*
X139880Y265993D01*
X139964Y266029D01*
X139996Y266055D01*
X140016Y266066D01*
X140037Y266087D01*
X140039Y266088D01*
X140043Y266093D01*
X140095Y266134D01*
X154716Y280756D01*
X154769Y280829D01*
X154829Y280899D01*
X154841Y280929D01*
X154860Y280955D01*
X154887Y281042D01*
X154921Y281127D01*
X154925Y281168D01*
X154932Y281190D01*
X154931Y281223D01*
X154939Y281294D01*
X154939Y288465D01*
X154925Y288555D01*
X154917Y288646D01*
X154905Y288676D01*
X154900Y288708D01*
X154857Y288789D01*
X154821Y288873D01*
X154795Y288905D01*
X154784Y288925D01*
X154761Y288948D01*
X154716Y289004D01*
X154036Y289684D01*
X153189Y291728D01*
X153189Y293940D01*
X154036Y295984D01*
X155600Y297548D01*
X157644Y298395D01*
X159856Y298395D01*
X161900Y297548D01*
X163464Y295984D01*
X164311Y293940D01*
X164311Y291728D01*
X163464Y289684D01*
X162784Y289004D01*
X162731Y288930D01*
X162671Y288860D01*
X162659Y288830D01*
X162640Y288804D01*
X162613Y288717D01*
X162579Y288632D01*
X162575Y288591D01*
X162568Y288569D01*
X162569Y288537D01*
X162561Y288465D01*
X162561Y278472D01*
X162572Y278401D01*
X162574Y278329D01*
X162592Y278280D01*
X162600Y278229D01*
X162634Y278166D01*
X162659Y278098D01*
X162691Y278058D01*
X162716Y278012D01*
X162768Y277962D01*
X162812Y277906D01*
X162856Y277878D01*
X162894Y277842D01*
X162959Y277812D01*
X163019Y277773D01*
X163070Y277761D01*
X163117Y277739D01*
X163188Y277731D01*
X163258Y277713D01*
X163310Y277717D01*
X163361Y277712D01*
X163432Y277727D01*
X163503Y277732D01*
X163551Y277753D01*
X163602Y277764D01*
X163663Y277801D01*
X163729Y277829D01*
X163785Y277873D01*
X163813Y277890D01*
X163828Y277908D01*
X163860Y277933D01*
X178366Y292440D01*
X178419Y292513D01*
X178479Y292583D01*
X178491Y292613D01*
X178510Y292639D01*
X178537Y292726D01*
X178571Y292811D01*
X178575Y292852D01*
X178582Y292874D01*
X178581Y292907D01*
X178589Y292978D01*
X178589Y293940D01*
X179436Y295984D01*
X181000Y297548D01*
X183044Y298395D01*
X185256Y298395D01*
X187300Y297548D01*
X188864Y295984D01*
X189711Y293940D01*
X189711Y291728D01*
X188864Y289684D01*
X187300Y288120D01*
X185256Y287273D01*
X184294Y287273D01*
X184204Y287259D01*
X184113Y287251D01*
X184083Y287239D01*
X184051Y287234D01*
X183970Y287191D01*
X183886Y287155D01*
X183854Y287129D01*
X183834Y287118D01*
X183811Y287095D01*
X183809Y287093D01*
X183806Y287091D01*
X183756Y287050D01*
X162784Y266078D01*
X162731Y266005D01*
X162671Y265935D01*
X162659Y265905D01*
X162640Y265879D01*
X162613Y265792D01*
X162579Y265707D01*
X162575Y265666D01*
X162568Y265644D01*
X162569Y265611D01*
X162561Y265540D01*
X162561Y264719D01*
X162575Y264629D01*
X162583Y264538D01*
X162595Y264508D01*
X162600Y264476D01*
X162643Y264395D01*
X162679Y264311D01*
X162705Y264279D01*
X162716Y264259D01*
X162739Y264236D01*
X162784Y264180D01*
X163464Y263500D01*
X164311Y261456D01*
X164311Y259244D01*
X163464Y257200D01*
X161900Y255636D01*
X159856Y254789D01*
X157644Y254789D01*
X155600Y255636D01*
X154036Y257200D01*
X153189Y259244D01*
X153189Y261456D01*
X154036Y263500D01*
X154716Y264180D01*
X154769Y264254D01*
X154829Y264324D01*
X154841Y264354D01*
X154860Y264380D01*
X154887Y264467D01*
X154921Y264552D01*
X154925Y264593D01*
X154932Y264615D01*
X154931Y264647D01*
X154939Y264719D01*
X154939Y268362D01*
X154928Y268433D01*
X154926Y268505D01*
X154908Y268554D01*
X154900Y268605D01*
X154866Y268668D01*
X154841Y268736D01*
X154809Y268776D01*
X154784Y268822D01*
X154733Y268872D01*
X154688Y268928D01*
X154644Y268956D01*
X154606Y268992D01*
X154541Y269022D01*
X154481Y269061D01*
X154430Y269073D01*
X154383Y269095D01*
X154312Y269103D01*
X154242Y269121D01*
X154190Y269117D01*
X154139Y269122D01*
X154068Y269107D01*
X153997Y269102D01*
X153949Y269081D01*
X153898Y269070D01*
X153837Y269033D01*
X153771Y269005D01*
X153715Y268961D01*
X153687Y268944D01*
X153672Y268926D01*
X153640Y268901D01*
X145484Y260745D01*
X145431Y260671D01*
X145371Y260601D01*
X145359Y260571D01*
X145340Y260545D01*
X145313Y260458D01*
X145279Y260373D01*
X145275Y260332D01*
X145268Y260310D01*
X145269Y260278D01*
X145261Y260206D01*
X145261Y259244D01*
X144414Y257200D01*
X142850Y255636D01*
X140806Y254789D01*
X138594Y254789D01*
G37*
%LPD*%
%LPC*%
G36*
X404041Y30670D02*
X404041Y30670D01*
X398510Y32961D01*
X394276Y37195D01*
X391985Y42726D01*
X391985Y48714D01*
X394276Y54245D01*
X398510Y58479D01*
X404041Y60770D01*
X410029Y60770D01*
X415560Y58479D01*
X419794Y54245D01*
X422085Y48714D01*
X422085Y42726D01*
X419794Y37195D01*
X415560Y32961D01*
X410029Y30670D01*
X404041Y30670D01*
G37*
%LPD*%
%LPC*%
G36*
X301171Y30670D02*
X301171Y30670D01*
X295640Y32961D01*
X291406Y37195D01*
X289115Y42726D01*
X289115Y48714D01*
X291406Y54245D01*
X295640Y58479D01*
X301171Y60770D01*
X307159Y60770D01*
X312690Y58479D01*
X316924Y54245D01*
X319215Y48714D01*
X319215Y42726D01*
X316924Y37195D01*
X312690Y32961D01*
X307159Y30670D01*
X301171Y30670D01*
G37*
%LPD*%
%LPC*%
G36*
X108258Y30670D02*
X108258Y30670D01*
X102727Y32961D01*
X98493Y37195D01*
X96202Y42726D01*
X96202Y48714D01*
X98493Y54245D01*
X102727Y58479D01*
X108258Y60770D01*
X114246Y60770D01*
X119777Y58479D01*
X124011Y54245D01*
X126302Y48714D01*
X126302Y42726D01*
X124011Y37195D01*
X119777Y32961D01*
X114246Y30670D01*
X108258Y30670D01*
G37*
%LPD*%
%LPC*%
G36*
X119544Y191289D02*
X119544Y191289D01*
X117500Y192136D01*
X115936Y193700D01*
X115089Y195744D01*
X115089Y197956D01*
X115936Y200000D01*
X116616Y200680D01*
X116669Y200754D01*
X116729Y200824D01*
X116741Y200854D01*
X116760Y200880D01*
X116787Y200967D01*
X116793Y200983D01*
X116811Y201022D01*
X116812Y201030D01*
X116821Y201052D01*
X116825Y201093D01*
X116832Y201115D01*
X116831Y201147D01*
X116839Y201219D01*
X116839Y268681D01*
X116825Y268771D01*
X116817Y268862D01*
X116805Y268892D01*
X116800Y268924D01*
X116757Y269005D01*
X116721Y269089D01*
X116695Y269121D01*
X116684Y269141D01*
X116661Y269164D01*
X116616Y269220D01*
X115936Y269900D01*
X115089Y271944D01*
X115089Y274156D01*
X115936Y276200D01*
X117500Y277764D01*
X119544Y278611D01*
X121756Y278611D01*
X123800Y277764D01*
X125364Y276200D01*
X126211Y274156D01*
X126211Y271944D01*
X125364Y269900D01*
X124684Y269220D01*
X124631Y269146D01*
X124571Y269076D01*
X124559Y269046D01*
X124540Y269020D01*
X124513Y268933D01*
X124479Y268848D01*
X124475Y268807D01*
X124468Y268785D01*
X124469Y268753D01*
X124461Y268681D01*
X124461Y201219D01*
X124463Y201202D01*
X124462Y201188D01*
X124476Y201122D01*
X124483Y201038D01*
X124495Y201008D01*
X124500Y200976D01*
X124513Y200952D01*
X124514Y200947D01*
X124528Y200923D01*
X124543Y200895D01*
X124579Y200811D01*
X124605Y200779D01*
X124616Y200758D01*
X124639Y200736D01*
X124684Y200680D01*
X125364Y200000D01*
X126211Y197956D01*
X126211Y195744D01*
X125364Y193700D01*
X123800Y192136D01*
X121756Y191289D01*
X119544Y191289D01*
G37*
%LPD*%
%LPC*%
G36*
X404177Y471423D02*
X404177Y471423D01*
X400069Y473125D01*
X396925Y476269D01*
X395223Y480377D01*
X395223Y484823D01*
X396925Y488931D01*
X400069Y492075D01*
X404177Y493777D01*
X408623Y493777D01*
X412731Y492075D01*
X415875Y488931D01*
X417577Y484823D01*
X417577Y480377D01*
X415875Y476269D01*
X412731Y473125D01*
X408623Y471423D01*
X404177Y471423D01*
G37*
%LPD*%
%LPC*%
G36*
X315277Y471423D02*
X315277Y471423D01*
X311169Y473125D01*
X308025Y476269D01*
X306323Y480377D01*
X306323Y484823D01*
X308025Y488931D01*
X311169Y492075D01*
X315277Y493777D01*
X319723Y493777D01*
X323831Y492075D01*
X326975Y488931D01*
X328677Y484823D01*
X328677Y480377D01*
X326975Y476269D01*
X323831Y473125D01*
X319723Y471423D01*
X315277Y471423D01*
G37*
%LPD*%
%LPC*%
G36*
X340677Y471423D02*
X340677Y471423D01*
X336569Y473125D01*
X333425Y476269D01*
X331723Y480377D01*
X331723Y484823D01*
X333425Y488931D01*
X336569Y492075D01*
X340677Y493777D01*
X345123Y493777D01*
X349231Y492075D01*
X352375Y488931D01*
X354077Y484823D01*
X354077Y480377D01*
X352375Y476269D01*
X349231Y473125D01*
X345123Y471423D01*
X340677Y471423D01*
G37*
%LPD*%
%LPC*%
G36*
X150177Y471423D02*
X150177Y471423D01*
X146069Y473125D01*
X142925Y476269D01*
X141223Y480377D01*
X141223Y484823D01*
X142925Y488931D01*
X146069Y492075D01*
X150177Y493777D01*
X154623Y493777D01*
X158731Y492075D01*
X161875Y488931D01*
X163577Y484823D01*
X163577Y480377D01*
X161875Y476269D01*
X158731Y473125D01*
X154623Y471423D01*
X150177Y471423D01*
G37*
%LPD*%
%LPC*%
G36*
X175577Y471423D02*
X175577Y471423D01*
X171469Y473125D01*
X168325Y476269D01*
X166623Y480377D01*
X166623Y484823D01*
X168325Y488931D01*
X171469Y492075D01*
X175577Y493777D01*
X180023Y493777D01*
X184131Y492075D01*
X187275Y488931D01*
X188977Y484823D01*
X188977Y480377D01*
X187275Y476269D01*
X184131Y473125D01*
X180023Y471423D01*
X175577Y471423D01*
G37*
%LPD*%
%LPC*%
G36*
X124777Y471423D02*
X124777Y471423D01*
X120669Y473125D01*
X117525Y476269D01*
X115823Y480377D01*
X115823Y484823D01*
X117525Y488931D01*
X120669Y492075D01*
X124777Y493777D01*
X129223Y493777D01*
X133331Y492075D01*
X136475Y488931D01*
X138177Y484823D01*
X138177Y480377D01*
X136475Y476269D01*
X133331Y473125D01*
X129223Y471423D01*
X124777Y471423D01*
G37*
%LPD*%
%LPC*%
G36*
X23177Y369823D02*
X23177Y369823D01*
X19069Y371525D01*
X15925Y374669D01*
X14223Y378777D01*
X14223Y383223D01*
X15925Y387331D01*
X19069Y390475D01*
X23177Y392177D01*
X27623Y392177D01*
X31731Y390475D01*
X34875Y387331D01*
X36577Y383223D01*
X36577Y378777D01*
X34875Y374669D01*
X31731Y371525D01*
X27623Y369823D01*
X23177Y369823D01*
G37*
%LPD*%
%LPC*%
G36*
X23177Y344423D02*
X23177Y344423D01*
X19069Y346125D01*
X15925Y349269D01*
X14223Y353377D01*
X14223Y357823D01*
X15925Y361931D01*
X19069Y365075D01*
X23177Y366777D01*
X27623Y366777D01*
X31731Y365075D01*
X34875Y361931D01*
X36577Y357823D01*
X36577Y353377D01*
X34875Y349269D01*
X31731Y346125D01*
X27623Y344423D01*
X23177Y344423D01*
G37*
%LPD*%
%LPC*%
G36*
X297497Y280923D02*
X297497Y280923D01*
X293389Y282625D01*
X290245Y285769D01*
X288543Y289877D01*
X288543Y294323D01*
X290245Y298431D01*
X293389Y301575D01*
X297497Y303277D01*
X301943Y303277D01*
X306051Y301575D01*
X309195Y298431D01*
X310897Y294323D01*
X310897Y289877D01*
X309195Y285769D01*
X306051Y282625D01*
X301943Y280923D01*
X297497Y280923D01*
G37*
%LPD*%
%LPC*%
G36*
X143827Y109473D02*
X143827Y109473D01*
X139719Y111175D01*
X136575Y114319D01*
X134873Y118427D01*
X134873Y122873D01*
X136575Y126981D01*
X139719Y130125D01*
X143827Y131827D01*
X148273Y131827D01*
X152381Y130125D01*
X155525Y126981D01*
X157227Y122873D01*
X157227Y118427D01*
X155525Y114319D01*
X152381Y111175D01*
X148273Y109473D01*
X143827Y109473D01*
G37*
%LPD*%
%LPC*%
G36*
X169227Y109473D02*
X169227Y109473D01*
X165119Y111175D01*
X161975Y114319D01*
X160273Y118427D01*
X160273Y122873D01*
X161975Y126981D01*
X165119Y130125D01*
X169227Y131827D01*
X173673Y131827D01*
X177781Y130125D01*
X180925Y126981D01*
X182627Y122873D01*
X182627Y118427D01*
X180925Y114319D01*
X177781Y111175D01*
X173673Y109473D01*
X169227Y109473D01*
G37*
%LPD*%
%LPC*%
G36*
X23177Y204723D02*
X23177Y204723D01*
X19069Y206425D01*
X15925Y209569D01*
X14223Y213677D01*
X14223Y218123D01*
X15925Y222231D01*
X19069Y225375D01*
X23177Y227077D01*
X27623Y227077D01*
X31731Y225375D01*
X34875Y222231D01*
X36577Y218123D01*
X36577Y213677D01*
X34875Y209569D01*
X31731Y206425D01*
X27623Y204723D01*
X23177Y204723D01*
G37*
%LPD*%
%LPC*%
G36*
X23177Y128523D02*
X23177Y128523D01*
X19069Y130225D01*
X15925Y133369D01*
X14223Y137477D01*
X14223Y141923D01*
X15925Y146031D01*
X19069Y149175D01*
X23177Y150877D01*
X27623Y150877D01*
X31731Y149175D01*
X34875Y146031D01*
X36577Y141923D01*
X36577Y137477D01*
X34875Y133369D01*
X31731Y130225D01*
X27623Y128523D01*
X23177Y128523D01*
G37*
%LPD*%
%LPC*%
G36*
X118427Y134873D02*
X118427Y134873D01*
X114319Y136575D01*
X111175Y139719D01*
X109473Y143827D01*
X109473Y148273D01*
X111175Y152381D01*
X114319Y155525D01*
X118427Y157227D01*
X122873Y157227D01*
X126981Y155525D01*
X130125Y152381D01*
X131827Y148273D01*
X131827Y143827D01*
X130125Y139719D01*
X126981Y136575D01*
X122873Y134873D01*
X118427Y134873D01*
G37*
%LPD*%
%LPC*%
G36*
X297497Y230123D02*
X297497Y230123D01*
X293389Y231825D01*
X290245Y234969D01*
X288543Y239077D01*
X288543Y243523D01*
X290245Y247631D01*
X293389Y250775D01*
X297497Y252477D01*
X301943Y252477D01*
X306051Y250775D01*
X309195Y247631D01*
X310897Y243523D01*
X310897Y239077D01*
X309195Y234969D01*
X306051Y231825D01*
X301943Y230123D01*
X297497Y230123D01*
G37*
%LPD*%
%LPC*%
G36*
X23177Y230123D02*
X23177Y230123D01*
X19069Y231825D01*
X15925Y234969D01*
X14223Y239077D01*
X14223Y243523D01*
X15925Y247631D01*
X19069Y250775D01*
X23177Y252477D01*
X27623Y252477D01*
X31731Y250775D01*
X34875Y247631D01*
X36577Y243523D01*
X36577Y239077D01*
X34875Y234969D01*
X31731Y231825D01*
X27623Y230123D01*
X23177Y230123D01*
G37*
%LPD*%
%LPC*%
G36*
X23177Y179323D02*
X23177Y179323D01*
X19069Y181025D01*
X15925Y184169D01*
X14223Y188277D01*
X14223Y192723D01*
X15925Y196831D01*
X19069Y199975D01*
X23177Y201677D01*
X27623Y201677D01*
X31731Y199975D01*
X34875Y196831D01*
X36577Y192723D01*
X36577Y188277D01*
X34875Y184169D01*
X31731Y181025D01*
X27623Y179323D01*
X23177Y179323D01*
G37*
%LPD*%
%LPC*%
G36*
X23177Y153923D02*
X23177Y153923D01*
X19069Y155625D01*
X15925Y158769D01*
X14223Y162877D01*
X14223Y167323D01*
X15925Y171431D01*
X19069Y174575D01*
X23177Y176277D01*
X27623Y176277D01*
X31731Y174575D01*
X34875Y171431D01*
X36577Y167323D01*
X36577Y162877D01*
X34875Y158769D01*
X31731Y155625D01*
X27623Y153923D01*
X23177Y153923D01*
G37*
%LPD*%
%LPC*%
G36*
X378777Y471423D02*
X378777Y471423D01*
X374669Y473125D01*
X371525Y476269D01*
X369823Y480377D01*
X369823Y484823D01*
X371525Y488931D01*
X374669Y492075D01*
X378777Y493777D01*
X383223Y493777D01*
X387331Y492075D01*
X390475Y488931D01*
X392177Y484823D01*
X392177Y480377D01*
X390475Y476269D01*
X387331Y473125D01*
X383223Y471423D01*
X378777Y471423D01*
G37*
%LPD*%
%LPC*%
G36*
X99377Y471423D02*
X99377Y471423D01*
X95269Y473125D01*
X92125Y476269D01*
X90423Y480377D01*
X90423Y484823D01*
X92125Y488931D01*
X95269Y492075D01*
X99377Y493777D01*
X103823Y493777D01*
X107931Y492075D01*
X111075Y488931D01*
X112777Y484823D01*
X112777Y480377D01*
X111075Y476269D01*
X107931Y473125D01*
X103823Y471423D01*
X99377Y471423D01*
G37*
%LPD*%
%LPC*%
G36*
X200977Y471423D02*
X200977Y471423D01*
X196869Y473125D01*
X193725Y476269D01*
X192023Y480377D01*
X192023Y484823D01*
X193725Y488931D01*
X196869Y492075D01*
X200977Y493777D01*
X205423Y493777D01*
X209531Y492075D01*
X212675Y488931D01*
X214377Y484823D01*
X214377Y480377D01*
X212675Y476269D01*
X209531Y473125D01*
X205423Y471423D01*
X200977Y471423D01*
G37*
%LPD*%
%LPC*%
G36*
X137477Y15493D02*
X137477Y15493D01*
X133369Y17195D01*
X130225Y20339D01*
X128523Y24447D01*
X128523Y28893D01*
X130225Y33001D01*
X133369Y36145D01*
X137477Y37847D01*
X141923Y37847D01*
X146031Y36145D01*
X149175Y33001D01*
X150877Y28893D01*
X150877Y24447D01*
X149175Y20339D01*
X146031Y17195D01*
X141923Y15493D01*
X137477Y15493D01*
G37*
%LPD*%
%LPC*%
G36*
X162877Y12953D02*
X162877Y12953D01*
X158769Y14655D01*
X155625Y17799D01*
X153923Y21907D01*
X153923Y26353D01*
X155625Y30461D01*
X158769Y33605D01*
X162877Y35307D01*
X167323Y35307D01*
X171431Y33605D01*
X174575Y30461D01*
X176277Y26353D01*
X176277Y21907D01*
X174575Y17799D01*
X171431Y14655D01*
X167323Y12953D01*
X162877Y12953D01*
G37*
%LPD*%
%LPC*%
G36*
X130720Y78231D02*
X130720Y78231D01*
X126799Y79855D01*
X123797Y82857D01*
X122173Y86778D01*
X122173Y91022D01*
X123797Y94943D01*
X126799Y97945D01*
X130720Y99569D01*
X134964Y99569D01*
X138885Y97945D01*
X141887Y94943D01*
X143511Y91022D01*
X143511Y86778D01*
X141887Y82857D01*
X138885Y79855D01*
X134964Y78231D01*
X130720Y78231D01*
G37*
%LPD*%
%LPC*%
G36*
X160692Y78231D02*
X160692Y78231D01*
X156771Y79855D01*
X153769Y82857D01*
X152145Y86778D01*
X152145Y91022D01*
X153769Y94943D01*
X156771Y97945D01*
X160692Y99569D01*
X164936Y99569D01*
X168857Y97945D01*
X171859Y94943D01*
X173483Y91022D01*
X173483Y86778D01*
X171859Y82857D01*
X168857Y79855D01*
X164936Y78231D01*
X160692Y78231D01*
G37*
%LPD*%
%LPC*%
G36*
X361816Y412039D02*
X361816Y412039D01*
X359220Y413114D01*
X357234Y415100D01*
X356159Y417696D01*
X356159Y420504D01*
X357234Y423100D01*
X359220Y425086D01*
X361816Y426161D01*
X364624Y426161D01*
X367220Y425086D01*
X369206Y423100D01*
X370281Y420504D01*
X370281Y417696D01*
X369206Y415100D01*
X367220Y413114D01*
X364624Y412039D01*
X361816Y412039D01*
G37*
%LPD*%
%LPC*%
G36*
X440556Y412039D02*
X440556Y412039D01*
X437960Y413114D01*
X435974Y415100D01*
X434899Y417696D01*
X434899Y420504D01*
X435974Y423100D01*
X437960Y425086D01*
X440556Y426161D01*
X443364Y426161D01*
X445960Y425086D01*
X447946Y423100D01*
X449021Y420504D01*
X449021Y417696D01*
X447946Y415100D01*
X445960Y413114D01*
X443364Y412039D01*
X440556Y412039D01*
G37*
%LPD*%
%LPC*%
G36*
X321176Y429819D02*
X321176Y429819D01*
X318580Y430894D01*
X316594Y432880D01*
X315519Y435476D01*
X315519Y438284D01*
X316594Y440880D01*
X318580Y442866D01*
X321176Y443941D01*
X323984Y443941D01*
X326580Y442866D01*
X328566Y440880D01*
X329641Y438284D01*
X329641Y435476D01*
X328566Y432880D01*
X326580Y430894D01*
X323984Y429819D01*
X321176Y429819D01*
G37*
%LPD*%
%LPC*%
G36*
X397376Y429819D02*
X397376Y429819D01*
X394780Y430894D01*
X392794Y432880D01*
X391719Y435476D01*
X391719Y438284D01*
X392794Y440880D01*
X394780Y442866D01*
X397376Y443941D01*
X400184Y443941D01*
X402780Y442866D01*
X404766Y440880D01*
X405841Y438284D01*
X405841Y435476D01*
X404766Y432880D01*
X402780Y430894D01*
X400184Y429819D01*
X397376Y429819D01*
G37*
%LPD*%
%LPC*%
G36*
X26923Y273303D02*
X26923Y273303D01*
X26923Y280417D01*
X32347Y280417D01*
X34015Y280085D01*
X35587Y279434D01*
X37002Y278489D01*
X38205Y277286D01*
X39150Y275871D01*
X39801Y274299D01*
X39999Y273303D01*
X26923Y273303D01*
G37*
%LPD*%
%LPC*%
G36*
X26923Y301243D02*
X26923Y301243D01*
X26923Y308357D01*
X32347Y308357D01*
X34015Y308025D01*
X35587Y307374D01*
X37002Y306429D01*
X38205Y305226D01*
X39150Y303811D01*
X39801Y302239D01*
X39999Y301243D01*
X26923Y301243D01*
G37*
%LPD*%
%LPC*%
G36*
X10801Y273303D02*
X10801Y273303D01*
X10999Y274299D01*
X11650Y275871D01*
X12595Y277286D01*
X13798Y278489D01*
X15213Y279434D01*
X16785Y280085D01*
X18453Y280417D01*
X23877Y280417D01*
X23877Y273303D01*
X10801Y273303D01*
G37*
%LPD*%
%LPC*%
G36*
X10801Y301243D02*
X10801Y301243D01*
X10999Y302239D01*
X11650Y303811D01*
X12595Y305226D01*
X13798Y306429D01*
X15213Y307374D01*
X16785Y308025D01*
X18453Y308357D01*
X23877Y308357D01*
X23877Y301243D01*
X10801Y301243D01*
G37*
%LPD*%
%LPC*%
G36*
X26923Y263143D02*
X26923Y263143D01*
X26923Y270257D01*
X39999Y270257D01*
X39801Y269261D01*
X39150Y267689D01*
X38205Y266274D01*
X37002Y265071D01*
X35587Y264126D01*
X34015Y263475D01*
X32347Y263143D01*
X26923Y263143D01*
G37*
%LPD*%
%LPC*%
G36*
X26923Y291083D02*
X26923Y291083D01*
X26923Y298197D01*
X39999Y298197D01*
X39801Y297201D01*
X39150Y295629D01*
X38205Y294214D01*
X37002Y293011D01*
X35587Y292066D01*
X34015Y291415D01*
X32347Y291083D01*
X26923Y291083D01*
G37*
%LPD*%
%LPC*%
G36*
X18453Y291083D02*
X18453Y291083D01*
X16785Y291415D01*
X15213Y292066D01*
X13798Y293011D01*
X12595Y294214D01*
X11650Y295629D01*
X10999Y297201D01*
X10801Y298197D01*
X23877Y298197D01*
X23877Y291083D01*
X18453Y291083D01*
G37*
%LPD*%
%LPC*%
G36*
X18453Y263143D02*
X18453Y263143D01*
X16785Y263475D01*
X15213Y264126D01*
X13798Y265071D01*
X12595Y266274D01*
X11650Y267689D01*
X10999Y269261D01*
X10801Y270257D01*
X23877Y270257D01*
X23877Y263143D01*
X18453Y263143D01*
G37*
%LPD*%
%LPC*%
G36*
X26923Y331723D02*
X26923Y331723D01*
X26923Y342046D01*
X28196Y341845D01*
X29983Y341264D01*
X31657Y340411D01*
X33178Y339306D01*
X34506Y337978D01*
X35611Y336457D01*
X36464Y334783D01*
X37045Y332996D01*
X37246Y331723D01*
X26923Y331723D01*
G37*
%LPD*%
%LPC*%
G36*
X192023Y28193D02*
X192023Y28193D01*
X192023Y38516D01*
X193296Y38315D01*
X195083Y37734D01*
X196757Y36881D01*
X198278Y35776D01*
X199606Y34448D01*
X200711Y32927D01*
X201564Y31253D01*
X202145Y29466D01*
X202346Y28193D01*
X192023Y28193D01*
G37*
%LPD*%
%LPC*%
G36*
X122173Y122173D02*
X122173Y122173D01*
X122173Y132496D01*
X123446Y132295D01*
X125233Y131714D01*
X126907Y130861D01*
X128428Y129756D01*
X129756Y128428D01*
X130861Y126907D01*
X131714Y125233D01*
X132295Y123446D01*
X132496Y122173D01*
X122173Y122173D01*
G37*
%LPD*%
%LPC*%
G36*
X382523Y26923D02*
X382523Y26923D01*
X382523Y37246D01*
X383796Y37045D01*
X385583Y36464D01*
X387257Y35611D01*
X388778Y34506D01*
X390106Y33178D01*
X391211Y31657D01*
X392064Y29983D01*
X392645Y28196D01*
X392846Y26923D01*
X382523Y26923D01*
G37*
%LPD*%
%LPC*%
G36*
X26923Y115823D02*
X26923Y115823D01*
X26923Y126146D01*
X28196Y125945D01*
X29983Y125364D01*
X31657Y124511D01*
X33178Y123406D01*
X34506Y122078D01*
X35611Y120557D01*
X36464Y118883D01*
X37045Y117096D01*
X37246Y115823D01*
X26923Y115823D01*
G37*
%LPD*%
%LPC*%
G36*
X26923Y112777D02*
X26923Y112777D01*
X37246Y112777D01*
X37045Y111504D01*
X36464Y109717D01*
X35611Y108043D01*
X34506Y106522D01*
X33178Y105194D01*
X31657Y104089D01*
X29983Y103236D01*
X28196Y102655D01*
X26923Y102454D01*
X26923Y112777D01*
G37*
%LPD*%
%LPC*%
G36*
X13554Y331723D02*
X13554Y331723D01*
X13755Y332996D01*
X14336Y334783D01*
X15189Y336457D01*
X16294Y337978D01*
X17622Y339306D01*
X19143Y340411D01*
X20817Y341264D01*
X22604Y341845D01*
X23877Y342046D01*
X23877Y331723D01*
X13554Y331723D01*
G37*
%LPD*%
%LPC*%
G36*
X26923Y328677D02*
X26923Y328677D01*
X37246Y328677D01*
X37045Y327404D01*
X36464Y325617D01*
X35611Y323943D01*
X34506Y322422D01*
X33178Y321094D01*
X31657Y319989D01*
X29983Y319136D01*
X28196Y318555D01*
X26923Y318354D01*
X26923Y328677D01*
G37*
%LPD*%
%LPC*%
G36*
X13554Y115823D02*
X13554Y115823D01*
X13755Y117096D01*
X14336Y118883D01*
X15189Y120557D01*
X16294Y122078D01*
X17622Y123406D01*
X19143Y124511D01*
X20817Y125364D01*
X22604Y125945D01*
X23877Y126146D01*
X23877Y115823D01*
X13554Y115823D01*
G37*
%LPD*%
%LPC*%
G36*
X108804Y122173D02*
X108804Y122173D01*
X109005Y123446D01*
X109586Y125233D01*
X110439Y126907D01*
X111544Y128428D01*
X112872Y129756D01*
X114393Y130861D01*
X116067Y131714D01*
X117854Y132295D01*
X119127Y132496D01*
X119127Y122173D01*
X108804Y122173D01*
G37*
%LPD*%
%LPC*%
G36*
X178654Y28193D02*
X178654Y28193D01*
X178855Y29466D01*
X179436Y31253D01*
X180289Y32927D01*
X181394Y34448D01*
X182722Y35776D01*
X184243Y36881D01*
X185917Y37734D01*
X187704Y38315D01*
X188977Y38516D01*
X188977Y28193D01*
X178654Y28193D01*
G37*
%LPD*%
%LPC*%
G36*
X122173Y119127D02*
X122173Y119127D01*
X132496Y119127D01*
X132295Y117854D01*
X131714Y116067D01*
X130861Y114393D01*
X129756Y112872D01*
X128428Y111544D01*
X126907Y110439D01*
X125233Y109586D01*
X123446Y109005D01*
X122173Y108804D01*
X122173Y119127D01*
G37*
%LPD*%
%LPC*%
G36*
X369154Y26923D02*
X369154Y26923D01*
X369355Y28196D01*
X369936Y29983D01*
X370789Y31657D01*
X371894Y33178D01*
X373222Y34506D01*
X374743Y35611D01*
X376417Y36464D01*
X378204Y37045D01*
X379477Y37246D01*
X379477Y26923D01*
X369154Y26923D01*
G37*
%LPD*%
%LPC*%
G36*
X192023Y25147D02*
X192023Y25147D01*
X202346Y25147D01*
X202145Y23874D01*
X201564Y22087D01*
X200711Y20413D01*
X199606Y18892D01*
X198278Y17564D01*
X196757Y16459D01*
X195083Y15606D01*
X193296Y15025D01*
X192023Y14824D01*
X192023Y25147D01*
G37*
%LPD*%
%LPC*%
G36*
X382523Y23877D02*
X382523Y23877D01*
X392846Y23877D01*
X392645Y22604D01*
X392064Y20817D01*
X391211Y19143D01*
X390106Y17622D01*
X388778Y16294D01*
X387257Y15189D01*
X385583Y14336D01*
X383796Y13755D01*
X382523Y13554D01*
X382523Y23877D01*
G37*
%LPD*%
%LPC*%
G36*
X22604Y102655D02*
X22604Y102655D01*
X20817Y103236D01*
X19143Y104089D01*
X17622Y105194D01*
X16294Y106522D01*
X15189Y108043D01*
X14336Y109717D01*
X13755Y111504D01*
X13554Y112777D01*
X23877Y112777D01*
X23877Y102454D01*
X22604Y102655D01*
G37*
%LPD*%
%LPC*%
G36*
X22604Y318555D02*
X22604Y318555D01*
X20817Y319136D01*
X19143Y319989D01*
X17622Y321094D01*
X16294Y322422D01*
X15189Y323943D01*
X14336Y325617D01*
X13755Y327404D01*
X13554Y328677D01*
X23877Y328677D01*
X23877Y318354D01*
X22604Y318555D01*
G37*
%LPD*%
%LPC*%
G36*
X117854Y109005D02*
X117854Y109005D01*
X116067Y109586D01*
X114393Y110439D01*
X112872Y111544D01*
X111544Y112872D01*
X110439Y114393D01*
X109586Y116067D01*
X109005Y117854D01*
X108804Y119127D01*
X119127Y119127D01*
X119127Y108804D01*
X117854Y109005D01*
G37*
%LPD*%
%LPC*%
G36*
X187704Y15025D02*
X187704Y15025D01*
X185917Y15606D01*
X184243Y16459D01*
X182722Y17564D01*
X181394Y18892D01*
X180289Y20413D01*
X179436Y22087D01*
X178855Y23874D01*
X178654Y25147D01*
X188977Y25147D01*
X188977Y14824D01*
X187704Y15025D01*
G37*
%LPD*%
%LPC*%
G36*
X378204Y13755D02*
X378204Y13755D01*
X376417Y14336D01*
X374743Y15189D01*
X373222Y16294D01*
X371894Y17622D01*
X370789Y19143D01*
X369936Y20817D01*
X369355Y22604D01*
X369154Y23877D01*
X379477Y23877D01*
X379477Y13554D01*
X378204Y13755D01*
G37*
%LPD*%
%LPC*%
G36*
X194309Y90423D02*
X194309Y90423D01*
X194309Y100232D01*
X195463Y100049D01*
X197174Y99493D01*
X198777Y98676D01*
X200233Y97619D01*
X201505Y96347D01*
X202562Y94891D01*
X203379Y93288D01*
X203935Y91577D01*
X204118Y90423D01*
X194309Y90423D01*
G37*
%LPD*%
%LPC*%
G36*
X387095Y90423D02*
X387095Y90423D01*
X387095Y100232D01*
X388249Y100049D01*
X389960Y99493D01*
X391563Y98676D01*
X393019Y97619D01*
X394291Y96347D01*
X395348Y94891D01*
X396165Y93288D01*
X396721Y91577D01*
X396904Y90423D01*
X387095Y90423D01*
G37*
%LPD*%
%LPC*%
G36*
X374240Y90423D02*
X374240Y90423D01*
X374423Y91577D01*
X374979Y93288D01*
X375796Y94891D01*
X376853Y96347D01*
X378125Y97619D01*
X379581Y98676D01*
X381184Y99493D01*
X382895Y100049D01*
X384049Y100232D01*
X384049Y90423D01*
X374240Y90423D01*
G37*
%LPD*%
%LPC*%
G36*
X181454Y90423D02*
X181454Y90423D01*
X181637Y91577D01*
X182193Y93288D01*
X183010Y94891D01*
X184067Y96347D01*
X185339Y97619D01*
X186795Y98676D01*
X188398Y99493D01*
X190109Y100049D01*
X191263Y100232D01*
X191263Y90423D01*
X181454Y90423D01*
G37*
%LPD*%
%LPC*%
G36*
X194309Y87377D02*
X194309Y87377D01*
X204118Y87377D01*
X203935Y86223D01*
X203379Y84512D01*
X202562Y82909D01*
X201505Y81453D01*
X200233Y80181D01*
X198777Y79124D01*
X197174Y78307D01*
X195463Y77751D01*
X194309Y77568D01*
X194309Y87377D01*
G37*
%LPD*%
%LPC*%
G36*
X387095Y87377D02*
X387095Y87377D01*
X396904Y87377D01*
X396721Y86223D01*
X396165Y84512D01*
X395348Y82909D01*
X394291Y81453D01*
X393019Y80181D01*
X391563Y79124D01*
X389960Y78307D01*
X388249Y77751D01*
X387095Y77568D01*
X387095Y87377D01*
G37*
%LPD*%
%LPC*%
G36*
X382895Y77751D02*
X382895Y77751D01*
X381184Y78307D01*
X379581Y79124D01*
X378125Y80181D01*
X376853Y81453D01*
X375796Y82909D01*
X374979Y84512D01*
X374423Y86223D01*
X374240Y87377D01*
X384049Y87377D01*
X384049Y77568D01*
X382895Y77751D01*
G37*
%LPD*%
%LPC*%
G36*
X190109Y77751D02*
X190109Y77751D01*
X188398Y78307D01*
X186795Y79124D01*
X185339Y80181D01*
X184067Y81453D01*
X183010Y82909D01*
X182193Y84512D01*
X181637Y86223D01*
X181454Y87377D01*
X191263Y87377D01*
X191263Y77568D01*
X190109Y77751D01*
G37*
%LPD*%
%LPC*%
G36*
X25399Y330199D02*
X25399Y330199D01*
X25399Y330201D01*
X25401Y330201D01*
X25401Y330199D01*
X25399Y330199D01*
G37*
%LPD*%
%LPC*%
G36*
X25399Y299719D02*
X25399Y299719D01*
X25399Y299721D01*
X25401Y299721D01*
X25401Y299719D01*
X25399Y299719D01*
G37*
%LPD*%
%LPC*%
G36*
X385571Y88899D02*
X385571Y88899D01*
X385571Y88901D01*
X385573Y88901D01*
X385573Y88899D01*
X385571Y88899D01*
G37*
%LPD*%
%LPC*%
G36*
X192785Y88899D02*
X192785Y88899D01*
X192785Y88901D01*
X192787Y88901D01*
X192787Y88899D01*
X192785Y88899D01*
G37*
%LPD*%
%LPC*%
G36*
X120649Y120649D02*
X120649Y120649D01*
X120649Y120651D01*
X120651Y120651D01*
X120651Y120649D01*
X120649Y120649D01*
G37*
%LPD*%
%LPC*%
G36*
X25399Y271779D02*
X25399Y271779D01*
X25399Y271781D01*
X25401Y271781D01*
X25401Y271779D01*
X25399Y271779D01*
G37*
%LPD*%
%LPC*%
G36*
X25399Y114299D02*
X25399Y114299D01*
X25399Y114301D01*
X25401Y114301D01*
X25401Y114299D01*
X25399Y114299D01*
G37*
%LPD*%
%LPC*%
G36*
X190499Y26669D02*
X190499Y26669D01*
X190499Y26671D01*
X190501Y26671D01*
X190501Y26669D01*
X190499Y26669D01*
G37*
%LPD*%
%LPC*%
G36*
X380999Y25399D02*
X380999Y25399D01*
X380999Y25401D01*
X381001Y25401D01*
X381001Y25399D01*
X380999Y25399D01*
G37*
%LPD*%
D10*
X25400Y330200D03*
X25400Y355600D03*
X25400Y381000D03*
X25400Y241300D03*
X25400Y215900D03*
X25400Y190500D03*
X25400Y165100D03*
X25400Y139700D03*
X25400Y114300D03*
D11*
X222758Y88900D03*
X192786Y88900D03*
X162814Y88900D03*
X132842Y88900D03*
D12*
X111252Y45720D03*
X244348Y45720D03*
D11*
X385572Y88900D03*
X355600Y88900D03*
X325628Y88900D03*
D12*
X304165Y45720D03*
X407035Y45720D03*
D10*
X101600Y482600D03*
X127000Y482600D03*
X152400Y482600D03*
X177800Y482600D03*
X203200Y482600D03*
X317500Y482600D03*
X342900Y482600D03*
X171450Y146050D03*
X171450Y120650D03*
X146050Y146050D03*
X146050Y120650D03*
X120650Y146050D03*
X120650Y120650D03*
X381000Y482600D03*
X406400Y482600D03*
X381000Y25400D03*
X355600Y25400D03*
X330200Y25400D03*
X215900Y24130D03*
X190500Y26670D03*
X165100Y24130D03*
X139700Y26670D03*
X146050Y172720D03*
X171450Y170180D03*
X196850Y172720D03*
X222250Y170180D03*
X297180Y215900D03*
X299720Y241300D03*
X297180Y266700D03*
X299720Y292100D03*
D13*
X31496Y271780D02*
X19304Y271780D01*
X19304Y299720D02*
X31496Y299720D01*
D14*
X107950Y177800D03*
X228600Y355600D03*
X203200Y241300D03*
X323850Y139700D03*
X355600Y190500D03*
X254000Y241300D03*
X419100Y266700D03*
X476250Y273050D03*
X336550Y266700D03*
D15*
X361950Y381000D03*
X438150Y381000D03*
D14*
X158750Y292834D03*
D16*
X158750Y279400D01*
X139700Y260350D01*
D14*
X139700Y260350D03*
X184150Y292834D03*
D16*
X158750Y267434D01*
X158750Y260350D01*
D14*
X158750Y260350D03*
X273050Y88900D03*
D17*
X400050Y215900D02*
X412750Y215900D01*
D14*
X412750Y215900D03*
D17*
X319443Y150340D02*
X313210Y144107D01*
X313210Y129060D02*
X273050Y88900D01*
X334490Y150340D02*
X400050Y215900D01*
X313210Y144107D02*
X313210Y129060D01*
X319443Y150340D02*
X334490Y150340D01*
D18*
X222758Y88900D02*
X223520Y55561D01*
X222885Y54926D01*
X222885Y31115D02*
X215900Y24130D01*
X222885Y31115D02*
X222885Y54926D01*
D16*
X325120Y30480D02*
X325628Y88900D01*
X325120Y30480D02*
X330200Y25400D01*
X355600Y25400D02*
X355600Y88900D01*
D14*
X203200Y355600D03*
D16*
X241300Y317500D01*
X241300Y266700D01*
D14*
X241300Y266700D03*
X254000Y146050D03*
D16*
X171450Y146050D01*
D14*
X285750Y196850D03*
D16*
X285750Y184150D01*
X140579Y185928D02*
X132842Y178191D01*
X132842Y167249D01*
X140579Y185928D02*
X225181Y185928D01*
X146050Y154041D02*
X132842Y167249D01*
X146050Y154041D02*
X146050Y146050D01*
X226959Y184150D02*
X285750Y184150D01*
X226959Y184150D02*
X225181Y185928D01*
D14*
X120650Y196850D03*
D16*
X120650Y273050D01*
D14*
X120650Y273050D03*
X229842Y311150D03*
D16*
X229842Y260350D01*
D14*
X229842Y260350D03*
X215900Y215900D03*
X222250Y317500D03*
D16*
X222250Y222250D01*
X215900Y215900D01*
X228600Y215900D02*
X228600Y247650D01*
D14*
X228600Y215900D03*
D16*
X244445Y259108D02*
X248892Y263555D01*
X244445Y259108D02*
X240058Y259108D01*
X228600Y247650D01*
X274032Y335568D02*
X276255Y337792D01*
X274032Y335568D02*
X248892Y310429D01*
X248892Y263555D01*
X276255Y337792D02*
X298450Y359987D01*
X298450Y361950D01*
D14*
X298450Y361950D03*
D15*
X363220Y419100D03*
X322580Y436880D03*
X441960Y419100D03*
X398780Y436880D03*
D14*
X255212Y259138D03*
D16*
X297180Y217170D01*
X297180Y215900D01*
D14*
X266700Y285750D03*
X387350Y323850D03*
D16*
X304800Y323850D01*
X266700Y285750D01*
X278130Y285750D01*
X297180Y266700D01*
M02*
