G04 EAGLE Gerber RS-274X export*
G75*
%MOMM*%
%FSLAX34Y34*%
%LPD*%
%INBottom Copper*%
%IPPOS*%
%AMOC8*
5,1,8,0,0,1.08239X$1,22.5*%
G01*
%ADD10R,1.293200X1.293200*%
%ADD11C,1.293200*%
%ADD12C,3.355000*%
%ADD13P,2.336880X8X112.500000*%
%ADD14C,1.879600*%
%ADD15C,8.128000*%
%ADD16C,2.682238*%
%ADD17C,4.318000*%
%ADD18R,2.032000X2.032000*%
%ADD19C,2.032000*%
%ADD20C,1.117600*%
%ADD21P,2.336880X8X22.500000*%
%ADD22C,3.048000*%
%ADD23C,1.016000*%
%ADD24C,0.756400*%
%ADD25C,1.056400*%
%ADD26C,0.203200*%
%ADD27C,0.304800*%
%ADD28C,0.812800*%
%ADD29C,0.609600*%
%ADD30C,2.540000*%
%ADD31C,1.270000*%
%ADD32C,1.828800*%

G36*
X120310Y3314D02*
X120310Y3314D01*
X120410Y3316D01*
X120483Y3334D01*
X120556Y3343D01*
X120651Y3376D01*
X120748Y3401D01*
X120815Y3435D01*
X120885Y3460D01*
X120969Y3515D01*
X121058Y3561D01*
X121115Y3609D01*
X121177Y3649D01*
X121247Y3721D01*
X121324Y3786D01*
X121368Y3846D01*
X121420Y3900D01*
X121471Y3986D01*
X121531Y4067D01*
X121560Y4135D01*
X121598Y4199D01*
X121629Y4295D01*
X121669Y4387D01*
X121682Y4460D01*
X121705Y4531D01*
X121713Y4631D01*
X121730Y4730D01*
X121727Y4804D01*
X121733Y4878D01*
X121718Y4978D01*
X121713Y5078D01*
X121692Y5149D01*
X121681Y5223D01*
X121644Y5316D01*
X121616Y5413D01*
X121580Y5478D01*
X121552Y5547D01*
X121495Y5629D01*
X121446Y5717D01*
X121381Y5793D01*
X121353Y5833D01*
X121327Y5857D01*
X121287Y5903D01*
X113664Y13526D01*
X113664Y16003D01*
X125476Y16003D01*
X125502Y16006D01*
X125528Y16004D01*
X125675Y16026D01*
X125822Y16043D01*
X125847Y16051D01*
X125873Y16055D01*
X126011Y16110D01*
X126150Y16160D01*
X126172Y16174D01*
X126197Y16184D01*
X126318Y16269D01*
X126443Y16349D01*
X126461Y16368D01*
X126483Y16383D01*
X126582Y16493D01*
X126685Y16600D01*
X126699Y16622D01*
X126716Y16642D01*
X126788Y16772D01*
X126864Y16899D01*
X126872Y16924D01*
X126885Y16947D01*
X126925Y17090D01*
X126970Y17231D01*
X126972Y17257D01*
X126979Y17282D01*
X126999Y17526D01*
X126999Y19051D01*
X127001Y19051D01*
X127001Y17526D01*
X127004Y17500D01*
X127002Y17474D01*
X127024Y17327D01*
X127041Y17180D01*
X127050Y17155D01*
X127053Y17129D01*
X127108Y16991D01*
X127158Y16852D01*
X127173Y16830D01*
X127182Y16805D01*
X127267Y16684D01*
X127347Y16559D01*
X127366Y16541D01*
X127381Y16519D01*
X127491Y16420D01*
X127598Y16317D01*
X127620Y16303D01*
X127640Y16286D01*
X127770Y16214D01*
X127897Y16138D01*
X127922Y16130D01*
X127945Y16117D01*
X128088Y16077D01*
X128229Y16032D01*
X128255Y16030D01*
X128280Y16022D01*
X128524Y16003D01*
X140336Y16003D01*
X140336Y13526D01*
X132713Y5903D01*
X132650Y5825D01*
X132580Y5752D01*
X132542Y5688D01*
X132496Y5630D01*
X132453Y5539D01*
X132402Y5453D01*
X132379Y5382D01*
X132347Y5315D01*
X132326Y5217D01*
X132295Y5121D01*
X132289Y5047D01*
X132274Y4974D01*
X132275Y4874D01*
X132267Y4774D01*
X132278Y4700D01*
X132280Y4626D01*
X132304Y4529D01*
X132319Y4429D01*
X132347Y4360D01*
X132365Y4288D01*
X132411Y4198D01*
X132448Y4105D01*
X132490Y4044D01*
X132524Y3978D01*
X132590Y3901D01*
X132647Y3819D01*
X132702Y3769D01*
X132750Y3713D01*
X132831Y3653D01*
X132906Y3586D01*
X132971Y3550D01*
X133030Y3505D01*
X133123Y3466D01*
X133211Y3417D01*
X133282Y3397D01*
X133350Y3367D01*
X133449Y3350D01*
X133546Y3322D01*
X133646Y3314D01*
X133693Y3306D01*
X133729Y3308D01*
X133790Y3303D01*
X958389Y3303D01*
X958454Y3310D01*
X958518Y3308D01*
X958626Y3330D01*
X958736Y3343D01*
X958797Y3364D01*
X958860Y3377D01*
X958960Y3423D01*
X959064Y3460D01*
X959118Y3495D01*
X959177Y3522D01*
X959264Y3589D01*
X959357Y3649D01*
X959402Y3696D01*
X959453Y3735D01*
X959522Y3820D01*
X959599Y3900D01*
X959632Y3955D01*
X959673Y4005D01*
X959721Y4104D01*
X959778Y4199D01*
X959797Y4260D01*
X959826Y4318D01*
X959850Y4426D01*
X959884Y4531D01*
X959889Y4595D01*
X959903Y4658D01*
X959903Y4768D01*
X959912Y4878D01*
X959902Y4942D01*
X959902Y5007D01*
X959876Y5114D01*
X959860Y5223D01*
X959836Y5283D01*
X959821Y5346D01*
X959772Y5444D01*
X959731Y5547D01*
X959695Y5600D01*
X959666Y5658D01*
X959595Y5742D01*
X959532Y5833D01*
X959485Y5876D01*
X959443Y5926D01*
X959355Y5993D01*
X959274Y6066D01*
X959217Y6098D01*
X959166Y6137D01*
X958999Y6218D01*
X958969Y6235D01*
X958959Y6238D01*
X958946Y6244D01*
X951238Y9269D01*
X941771Y16819D01*
X934949Y26824D01*
X931380Y38395D01*
X931380Y50505D01*
X934949Y62076D01*
X940443Y70133D01*
X940458Y70161D01*
X940478Y70187D01*
X940538Y70315D01*
X940605Y70441D01*
X940613Y70473D01*
X940627Y70502D01*
X940657Y70641D01*
X940692Y70779D01*
X940693Y70811D01*
X940700Y70843D01*
X940698Y70985D01*
X940701Y71127D01*
X940695Y71159D01*
X940694Y71191D01*
X940659Y71329D01*
X940631Y71468D01*
X940617Y71498D01*
X940609Y71529D01*
X940544Y71656D01*
X940484Y71785D01*
X940464Y71810D01*
X940449Y71839D01*
X940357Y71947D01*
X940270Y72059D01*
X940244Y72080D01*
X940224Y72104D01*
X940109Y72189D01*
X939998Y72278D01*
X939969Y72292D01*
X939943Y72311D01*
X939813Y72368D01*
X939685Y72430D01*
X939653Y72437D01*
X939623Y72449D01*
X939483Y72475D01*
X939344Y72506D01*
X939312Y72505D01*
X939280Y72511D01*
X939138Y72504D01*
X938996Y72502D01*
X938964Y72495D01*
X938932Y72493D01*
X938795Y72454D01*
X938657Y72420D01*
X938629Y72406D01*
X938597Y72397D01*
X938473Y72327D01*
X938346Y72263D01*
X938321Y72242D01*
X938293Y72226D01*
X938107Y72068D01*
X897026Y30987D01*
X714751Y30987D01*
X712519Y33219D01*
X704926Y40813D01*
X704866Y40860D01*
X704812Y40915D01*
X704730Y40968D01*
X704653Y41029D01*
X704583Y41062D01*
X704519Y41103D01*
X704426Y41136D01*
X704338Y41178D01*
X704263Y41194D01*
X704191Y41220D01*
X704093Y41231D01*
X703997Y41252D01*
X703921Y41250D01*
X703844Y41259D01*
X703747Y41247D01*
X703648Y41246D01*
X703574Y41227D01*
X703498Y41218D01*
X703356Y41172D01*
X703310Y41161D01*
X703293Y41152D01*
X703266Y41143D01*
X702441Y40801D01*
X699060Y40801D01*
X696289Y41949D01*
X696144Y41990D01*
X696001Y42036D01*
X695977Y42038D01*
X695954Y42045D01*
X695803Y42052D01*
X695654Y42064D01*
X695630Y42060D01*
X695606Y42062D01*
X695458Y42035D01*
X695309Y42012D01*
X695287Y42003D01*
X695263Y41999D01*
X695125Y41939D01*
X694985Y41884D01*
X694965Y41870D01*
X694943Y41860D01*
X694822Y41770D01*
X694699Y41685D01*
X694683Y41667D01*
X694663Y41652D01*
X694566Y41537D01*
X694466Y41426D01*
X694454Y41405D01*
X694438Y41386D01*
X694370Y41253D01*
X694297Y41121D01*
X694291Y41097D01*
X694280Y41076D01*
X694243Y40930D01*
X694202Y40785D01*
X694200Y40756D01*
X694195Y40738D01*
X694195Y40691D01*
X694183Y40542D01*
X694183Y26778D01*
X693293Y24630D01*
X681490Y12827D01*
X679342Y11937D01*
X519538Y11937D01*
X517390Y12827D01*
X515533Y14684D01*
X515533Y14685D01*
X503755Y26463D01*
X503754Y26463D01*
X501897Y28320D01*
X501007Y30468D01*
X501007Y42852D01*
X500993Y42978D01*
X500986Y43104D01*
X500973Y43150D01*
X500967Y43198D01*
X500925Y43317D01*
X500890Y43439D01*
X500866Y43481D01*
X500850Y43526D01*
X500781Y43633D01*
X500720Y43743D01*
X500680Y43789D01*
X500661Y43819D01*
X500626Y43853D01*
X500561Y43929D01*
X499861Y44630D01*
X498605Y47660D01*
X498605Y50940D01*
X499861Y53970D01*
X502180Y56289D01*
X505210Y57545D01*
X508490Y57545D01*
X511520Y56289D01*
X513839Y53970D01*
X515095Y50940D01*
X515095Y47660D01*
X513839Y44630D01*
X513139Y43929D01*
X513068Y43840D01*
X513062Y43833D01*
X513059Y43829D01*
X512976Y43736D01*
X512952Y43694D01*
X512922Y43656D01*
X512868Y43542D01*
X512807Y43431D01*
X512794Y43385D01*
X512773Y43341D01*
X512747Y43218D01*
X512712Y43096D01*
X512707Y43035D01*
X512700Y43000D01*
X512701Y42952D01*
X512693Y42852D01*
X512693Y34681D01*
X512707Y34555D01*
X512714Y34429D01*
X512727Y34383D01*
X512733Y34335D01*
X512775Y34216D01*
X512810Y34094D01*
X512834Y34052D01*
X512850Y34007D01*
X512919Y33901D01*
X512980Y33790D01*
X513020Y33744D01*
X513039Y33714D01*
X513074Y33680D01*
X513139Y33604D01*
X522674Y24069D01*
X522773Y23990D01*
X522867Y23906D01*
X522909Y23882D01*
X522947Y23852D01*
X523061Y23798D01*
X523172Y23737D01*
X523218Y23724D01*
X523262Y23703D01*
X523385Y23677D01*
X523507Y23642D01*
X523568Y23637D01*
X523603Y23630D01*
X523651Y23631D01*
X523751Y23623D01*
X675129Y23623D01*
X675254Y23637D01*
X675381Y23644D01*
X675427Y23657D01*
X675475Y23663D01*
X675594Y23705D01*
X675716Y23740D01*
X675758Y23764D01*
X675803Y23780D01*
X675909Y23849D01*
X676020Y23910D01*
X676066Y23950D01*
X676096Y23969D01*
X676130Y24004D01*
X676206Y24069D01*
X682051Y29914D01*
X682130Y30013D01*
X682214Y30107D01*
X682238Y30149D01*
X682268Y30187D01*
X682322Y30301D01*
X682383Y30412D01*
X682396Y30458D01*
X682417Y30502D01*
X682443Y30625D01*
X682478Y30747D01*
X682483Y30808D01*
X682490Y30843D01*
X682489Y30891D01*
X682497Y30991D01*
X682497Y42264D01*
X682497Y42267D01*
X682497Y42269D01*
X682477Y42441D01*
X682457Y42611D01*
X682457Y42613D01*
X682456Y42615D01*
X682381Y42847D01*
X682345Y42934D01*
X682345Y43258D01*
X682334Y43358D01*
X682332Y43458D01*
X682314Y43530D01*
X682305Y43604D01*
X682272Y43699D01*
X682247Y43796D01*
X682213Y43862D01*
X682188Y43932D01*
X682133Y44017D01*
X682087Y44106D01*
X682039Y44163D01*
X681999Y44225D01*
X681927Y44295D01*
X681862Y44371D01*
X681802Y44416D01*
X681748Y44467D01*
X681662Y44519D01*
X681581Y44579D01*
X681513Y44608D01*
X681449Y44646D01*
X681353Y44677D01*
X681261Y44717D01*
X681188Y44730D01*
X681117Y44752D01*
X681017Y44760D01*
X680918Y44778D01*
X680844Y44774D01*
X680770Y44780D01*
X680670Y44765D01*
X680570Y44760D01*
X680499Y44740D01*
X680425Y44729D01*
X680332Y44692D01*
X680235Y44664D01*
X680170Y44627D01*
X680101Y44600D01*
X680019Y44543D01*
X679931Y44494D01*
X679855Y44428D01*
X679815Y44401D01*
X679791Y44375D01*
X679745Y44335D01*
X677720Y42310D01*
X674690Y41055D01*
X671410Y41055D01*
X668380Y42311D01*
X666061Y44630D01*
X664805Y47660D01*
X664805Y50940D01*
X666061Y53970D01*
X668380Y56289D01*
X671410Y57545D01*
X674690Y57545D01*
X677720Y56290D01*
X679745Y54265D01*
X679823Y54203D01*
X679896Y54133D01*
X679960Y54094D01*
X680018Y54048D01*
X680109Y54005D01*
X680195Y53954D01*
X680266Y53931D01*
X680333Y53899D01*
X680431Y53878D01*
X680527Y53848D01*
X680601Y53842D01*
X680674Y53826D01*
X680774Y53828D01*
X680874Y53820D01*
X680948Y53831D01*
X681022Y53832D01*
X681119Y53856D01*
X681219Y53871D01*
X681288Y53899D01*
X681360Y53917D01*
X681449Y53963D01*
X681543Y54000D01*
X681604Y54043D01*
X681670Y54077D01*
X681746Y54142D01*
X681829Y54199D01*
X681879Y54254D01*
X681935Y54302D01*
X681995Y54383D01*
X682062Y54458D01*
X682098Y54523D01*
X682143Y54583D01*
X682182Y54675D01*
X682231Y54763D01*
X682251Y54834D01*
X682281Y54903D01*
X682298Y55001D01*
X682326Y55098D01*
X682334Y55198D01*
X682342Y55246D01*
X682340Y55281D01*
X682345Y55342D01*
X682345Y55666D01*
X683235Y57813D01*
X707268Y81846D01*
X707269Y81848D01*
X707271Y81849D01*
X707378Y81985D01*
X707484Y82119D01*
X707485Y82121D01*
X707487Y82123D01*
X707598Y82340D01*
X707610Y82370D01*
X709930Y84689D01*
X712960Y85945D01*
X716240Y85945D01*
X719270Y84689D01*
X721589Y82370D01*
X722845Y79340D01*
X722845Y76060D01*
X721589Y73030D01*
X719270Y70711D01*
X716240Y69455D01*
X712960Y69455D01*
X712799Y69522D01*
X712726Y69543D01*
X712656Y69573D01*
X712559Y69591D01*
X712464Y69618D01*
X712388Y69621D01*
X712313Y69635D01*
X712214Y69630D01*
X712116Y69635D01*
X712041Y69621D01*
X711965Y69617D01*
X711870Y69590D01*
X711773Y69572D01*
X711703Y69541D01*
X711630Y69520D01*
X711544Y69472D01*
X711454Y69433D01*
X711392Y69387D01*
X711325Y69350D01*
X711212Y69253D01*
X711174Y69225D01*
X711161Y69211D01*
X711139Y69192D01*
X702147Y60200D01*
X702054Y60082D01*
X701957Y59967D01*
X701946Y59946D01*
X701931Y59927D01*
X701866Y59791D01*
X701798Y59657D01*
X701792Y59634D01*
X701782Y59612D01*
X701750Y59465D01*
X701714Y59319D01*
X701714Y59295D01*
X701708Y59271D01*
X701711Y59121D01*
X701709Y58970D01*
X701714Y58947D01*
X701714Y58923D01*
X701751Y58777D01*
X701783Y58630D01*
X701794Y58608D01*
X701799Y58585D01*
X701869Y58450D01*
X701933Y58315D01*
X701948Y58296D01*
X701959Y58275D01*
X702057Y58160D01*
X702150Y58043D01*
X702169Y58028D01*
X702185Y58009D01*
X702306Y57920D01*
X702424Y57827D01*
X702450Y57814D01*
X702465Y57802D01*
X702509Y57784D01*
X702642Y57715D01*
X705564Y56505D01*
X707955Y54114D01*
X709249Y50991D01*
X709249Y47609D01*
X708907Y46784D01*
X708886Y46711D01*
X708856Y46641D01*
X708838Y46544D01*
X708811Y46449D01*
X708808Y46373D01*
X708794Y46298D01*
X708799Y46199D01*
X708794Y46101D01*
X708808Y46026D01*
X708812Y45950D01*
X708839Y45855D01*
X708857Y45758D01*
X708887Y45688D01*
X708909Y45615D01*
X708957Y45529D01*
X708996Y45439D01*
X709041Y45377D01*
X709079Y45311D01*
X709175Y45197D01*
X709204Y45159D01*
X709218Y45147D01*
X709237Y45124D01*
X716831Y37531D01*
X716930Y37452D01*
X717024Y37368D01*
X717066Y37344D01*
X717104Y37314D01*
X717218Y37260D01*
X717329Y37199D01*
X717375Y37186D01*
X717419Y37165D01*
X717542Y37139D01*
X717664Y37104D01*
X717725Y37099D01*
X717759Y37092D01*
X717807Y37093D01*
X717908Y37085D01*
X732676Y37085D01*
X732776Y37096D01*
X732876Y37098D01*
X732949Y37116D01*
X733022Y37125D01*
X733117Y37158D01*
X733214Y37183D01*
X733281Y37217D01*
X733351Y37242D01*
X733435Y37297D01*
X733524Y37343D01*
X733581Y37391D01*
X733643Y37431D01*
X733713Y37503D01*
X733790Y37568D01*
X733834Y37628D01*
X733886Y37682D01*
X733937Y37768D01*
X733997Y37849D01*
X734026Y37917D01*
X734064Y37981D01*
X734095Y38077D01*
X734135Y38169D01*
X734148Y38242D01*
X734171Y38313D01*
X734179Y38413D01*
X734196Y38512D01*
X734193Y38586D01*
X734199Y38660D01*
X734184Y38760D01*
X734179Y38860D01*
X734158Y38931D01*
X734147Y39005D01*
X734110Y39098D01*
X734082Y39195D01*
X734046Y39260D01*
X734018Y39329D01*
X733961Y39411D01*
X733912Y39499D01*
X733847Y39575D01*
X733819Y39615D01*
X733793Y39639D01*
X733753Y39685D01*
X732626Y40813D01*
X732566Y40860D01*
X732512Y40915D01*
X732430Y40968D01*
X732353Y41029D01*
X732283Y41062D01*
X732219Y41103D01*
X732126Y41136D01*
X732038Y41178D01*
X731963Y41194D01*
X731891Y41220D01*
X731793Y41231D01*
X731697Y41252D01*
X731621Y41250D01*
X731544Y41259D01*
X731447Y41247D01*
X731348Y41246D01*
X731274Y41227D01*
X731198Y41218D01*
X731056Y41172D01*
X731010Y41161D01*
X730993Y41152D01*
X730966Y41143D01*
X730141Y40801D01*
X726759Y40801D01*
X723636Y42095D01*
X721245Y44486D01*
X719951Y47609D01*
X719951Y50991D01*
X721245Y54114D01*
X723636Y56505D01*
X726759Y57799D01*
X730141Y57799D01*
X733264Y56505D01*
X735655Y54114D01*
X736949Y50991D01*
X736949Y47609D01*
X736607Y46784D01*
X736586Y46711D01*
X736556Y46641D01*
X736538Y46544D01*
X736511Y46449D01*
X736508Y46373D01*
X736494Y46298D01*
X736499Y46199D01*
X736494Y46101D01*
X736508Y46026D01*
X736512Y45950D01*
X736539Y45855D01*
X736557Y45758D01*
X736587Y45688D01*
X736609Y45615D01*
X736657Y45529D01*
X736696Y45439D01*
X736741Y45377D01*
X736779Y45311D01*
X736875Y45197D01*
X736904Y45159D01*
X736918Y45147D01*
X736937Y45124D01*
X740467Y41595D01*
X740566Y41516D01*
X740660Y41432D01*
X740702Y41408D01*
X740740Y41378D01*
X740854Y41324D01*
X740965Y41263D01*
X741011Y41250D01*
X741055Y41229D01*
X741178Y41203D01*
X741300Y41168D01*
X741361Y41163D01*
X741395Y41156D01*
X741443Y41157D01*
X741544Y41149D01*
X748964Y41149D01*
X749064Y41160D01*
X749164Y41162D01*
X749236Y41180D01*
X749310Y41189D01*
X749405Y41223D01*
X749502Y41247D01*
X749568Y41281D01*
X749638Y41306D01*
X749723Y41361D01*
X749812Y41407D01*
X749869Y41455D01*
X749931Y41495D01*
X750001Y41567D01*
X750077Y41632D01*
X750122Y41692D01*
X750173Y41746D01*
X750225Y41832D01*
X750285Y41913D01*
X750314Y41981D01*
X750352Y42045D01*
X750383Y42141D01*
X750423Y42233D01*
X750436Y42306D01*
X750458Y42377D01*
X750466Y42477D01*
X750484Y42576D01*
X750480Y42650D01*
X750486Y42724D01*
X750471Y42824D01*
X750466Y42924D01*
X750446Y42995D01*
X750435Y43069D01*
X750398Y43162D01*
X750370Y43259D01*
X750333Y43324D01*
X750306Y43393D01*
X750249Y43475D01*
X750200Y43563D01*
X750134Y43639D01*
X750107Y43679D01*
X750081Y43703D01*
X750041Y43749D01*
X749160Y44630D01*
X747905Y47660D01*
X747905Y50940D01*
X749161Y53970D01*
X751480Y56289D01*
X754510Y57545D01*
X757790Y57545D01*
X760820Y56289D01*
X763139Y53970D01*
X764395Y50940D01*
X764395Y47660D01*
X763140Y44630D01*
X762259Y43749D01*
X762196Y43670D01*
X762127Y43598D01*
X762088Y43534D01*
X762042Y43476D01*
X761999Y43385D01*
X761948Y43299D01*
X761925Y43228D01*
X761893Y43161D01*
X761872Y43063D01*
X761842Y42967D01*
X761836Y42893D01*
X761820Y42820D01*
X761822Y42720D01*
X761814Y42620D01*
X761825Y42546D01*
X761826Y42472D01*
X761850Y42375D01*
X761865Y42275D01*
X761893Y42206D01*
X761911Y42134D01*
X761957Y42045D01*
X761994Y41951D01*
X762037Y41890D01*
X762071Y41824D01*
X762136Y41748D01*
X762193Y41665D01*
X762248Y41615D01*
X762296Y41559D01*
X762377Y41499D01*
X762452Y41432D01*
X762517Y41396D01*
X762577Y41351D01*
X762669Y41312D01*
X762757Y41263D01*
X762828Y41243D01*
X762897Y41213D01*
X762996Y41196D01*
X763092Y41168D01*
X763192Y41160D01*
X763240Y41152D01*
X763275Y41154D01*
X763336Y41149D01*
X892186Y41149D01*
X892312Y41163D01*
X892438Y41170D01*
X892484Y41183D01*
X892532Y41189D01*
X892651Y41231D01*
X892773Y41266D01*
X892815Y41290D01*
X892861Y41306D01*
X892967Y41375D01*
X893077Y41436D01*
X893123Y41476D01*
X893153Y41495D01*
X893187Y41530D01*
X893263Y41595D01*
X950221Y98553D01*
X991246Y98553D01*
X991372Y98567D01*
X991498Y98574D01*
X991544Y98587D01*
X991592Y98593D01*
X991711Y98635D01*
X991833Y98670D01*
X991875Y98694D01*
X991921Y98710D01*
X992027Y98779D01*
X992137Y98840D01*
X992183Y98880D01*
X992213Y98899D01*
X992247Y98934D01*
X992323Y98999D01*
X999805Y106481D01*
X999884Y106580D01*
X999968Y106674D01*
X999992Y106716D01*
X1000022Y106754D01*
X1000076Y106868D01*
X1000137Y106979D01*
X1000150Y107025D01*
X1000171Y107069D01*
X1000197Y107192D01*
X1000232Y107314D01*
X1000237Y107375D01*
X1000244Y107410D01*
X1000243Y107458D01*
X1000251Y107558D01*
X1000251Y386726D01*
X1000237Y386852D01*
X1000230Y386978D01*
X1000217Y387024D01*
X1000211Y387072D01*
X1000169Y387191D01*
X1000134Y387313D01*
X1000110Y387355D01*
X1000094Y387401D01*
X1000025Y387507D01*
X999964Y387617D01*
X999924Y387663D01*
X999905Y387693D01*
X999870Y387727D01*
X999805Y387803D01*
X997871Y389738D01*
X997839Y389763D01*
X997812Y389794D01*
X997702Y389871D01*
X997598Y389954D01*
X997561Y389972D01*
X997527Y389996D01*
X997403Y390046D01*
X997283Y390103D01*
X997243Y390112D01*
X997205Y390127D01*
X997072Y390149D01*
X996942Y390177D01*
X996901Y390176D01*
X996861Y390182D01*
X996727Y390173D01*
X996593Y390171D01*
X996554Y390161D01*
X996513Y390158D01*
X996277Y390094D01*
X996042Y390009D01*
X995823Y390112D01*
X995787Y390124D01*
X995754Y390142D01*
X995623Y390179D01*
X995493Y390223D01*
X995455Y390227D01*
X995419Y390237D01*
X995175Y390257D01*
X994933Y390257D01*
X994605Y390585D01*
X994495Y390672D01*
X994388Y390765D01*
X994352Y390785D01*
X994332Y390801D01*
X994287Y390822D01*
X994176Y390886D01*
X987525Y394012D01*
X987489Y394024D01*
X987456Y394042D01*
X987324Y394080D01*
X987195Y394123D01*
X987157Y394127D01*
X987121Y394137D01*
X986877Y394157D01*
X986635Y394157D01*
X986583Y394209D01*
X986562Y394226D01*
X986545Y394246D01*
X986426Y394334D01*
X986310Y394426D01*
X986286Y394437D01*
X986265Y394453D01*
X986128Y394512D01*
X985995Y394575D01*
X985969Y394580D01*
X985945Y394591D01*
X985799Y394617D01*
X985654Y394648D01*
X985628Y394648D01*
X985602Y394653D01*
X985454Y394645D01*
X985305Y394642D01*
X985280Y394636D01*
X985254Y394635D01*
X985111Y394594D01*
X984967Y394557D01*
X984944Y394545D01*
X984919Y394538D01*
X984789Y394466D01*
X984658Y394398D01*
X984638Y394381D01*
X984615Y394368D01*
X984428Y394209D01*
X984214Y393995D01*
X981091Y392701D01*
X977709Y392701D01*
X974586Y393995D01*
X972195Y396386D01*
X970901Y399509D01*
X970901Y402891D01*
X972195Y406014D01*
X974586Y408405D01*
X977709Y409699D01*
X981091Y409699D01*
X984214Y408405D01*
X986605Y406014D01*
X987899Y402891D01*
X987899Y402147D01*
X987913Y402022D01*
X987920Y401896D01*
X987933Y401849D01*
X987939Y401801D01*
X987981Y401682D01*
X988016Y401561D01*
X988040Y401519D01*
X988056Y401473D01*
X988125Y401367D01*
X988186Y401257D01*
X988226Y401210D01*
X988245Y401180D01*
X988280Y401147D01*
X988345Y401070D01*
X989489Y399926D01*
X989599Y399839D01*
X989706Y399746D01*
X989741Y399726D01*
X989762Y399710D01*
X989807Y399688D01*
X989918Y399625D01*
X996569Y396499D01*
X996605Y396487D01*
X996638Y396468D01*
X996770Y396431D01*
X996899Y396387D01*
X996937Y396384D01*
X996973Y396374D01*
X997217Y396354D01*
X998105Y396354D01*
X998131Y396357D01*
X998157Y396355D01*
X998304Y396377D01*
X998451Y396394D01*
X998476Y396403D01*
X998502Y396407D01*
X998639Y396461D01*
X998779Y396511D01*
X998801Y396526D01*
X998826Y396535D01*
X998947Y396620D01*
X999072Y396700D01*
X999090Y396719D01*
X999112Y396734D01*
X999211Y396844D01*
X999314Y396951D01*
X999328Y396974D01*
X999345Y396993D01*
X999417Y397123D01*
X999493Y397250D01*
X999501Y397275D01*
X999514Y397298D01*
X999554Y397441D01*
X999599Y397582D01*
X999601Y397608D01*
X999608Y397633D01*
X999628Y397877D01*
X999628Y398124D01*
X999624Y398158D01*
X999626Y398193D01*
X999596Y398436D01*
X998095Y405591D01*
X998050Y405728D01*
X998010Y405867D01*
X997995Y405893D01*
X997985Y405922D01*
X997910Y406045D01*
X997839Y406171D01*
X997815Y406199D01*
X997803Y406219D01*
X997768Y406254D01*
X997680Y406357D01*
X987083Y416929D01*
X986985Y417007D01*
X986953Y417035D01*
X984383Y419605D01*
X984383Y419606D01*
X983576Y420413D01*
X983516Y420460D01*
X983462Y420515D01*
X983380Y420568D01*
X983303Y420629D01*
X983233Y420662D01*
X983169Y420703D01*
X983077Y420736D01*
X982988Y420778D01*
X982913Y420794D01*
X982841Y420820D01*
X982743Y420831D01*
X982647Y420852D01*
X982571Y420850D01*
X982494Y420859D01*
X982397Y420847D01*
X982298Y420846D01*
X982224Y420827D01*
X982148Y420818D01*
X982006Y420772D01*
X981960Y420761D01*
X981943Y420752D01*
X981916Y420743D01*
X981091Y420401D01*
X977709Y420401D01*
X974586Y421695D01*
X972195Y424086D01*
X970901Y427209D01*
X970901Y430591D01*
X972195Y433714D01*
X974586Y436105D01*
X977709Y437399D01*
X981091Y437399D01*
X984214Y436105D01*
X986605Y433714D01*
X987899Y430591D01*
X987899Y427209D01*
X987557Y426384D01*
X987536Y426311D01*
X987506Y426241D01*
X987488Y426144D01*
X987461Y426049D01*
X987458Y425973D01*
X987444Y425898D01*
X987449Y425799D01*
X987444Y425701D01*
X987458Y425626D01*
X987462Y425550D01*
X987489Y425455D01*
X987507Y425358D01*
X987537Y425288D01*
X987559Y425215D01*
X987607Y425129D01*
X987646Y425039D01*
X987691Y424977D01*
X987729Y424911D01*
X987825Y424797D01*
X987854Y424759D01*
X987868Y424747D01*
X987887Y424724D01*
X988692Y423920D01*
X988791Y423841D01*
X990053Y422579D01*
X990054Y422578D01*
X990055Y422577D01*
X1002619Y410043D01*
X1002646Y410022D01*
X1002668Y409996D01*
X1002861Y409846D01*
X1003540Y409403D01*
X1003549Y409376D01*
X1003589Y409237D01*
X1003604Y409211D01*
X1003613Y409182D01*
X1003689Y409059D01*
X1003760Y408933D01*
X1003783Y408905D01*
X1003796Y408885D01*
X1003830Y408850D01*
X1003847Y408831D01*
X1003848Y408027D01*
X1003851Y407993D01*
X1003849Y407959D01*
X1003880Y407716D01*
X1005381Y400556D01*
X1005395Y400515D01*
X1005401Y400474D01*
X1005437Y400383D01*
X1005466Y400281D01*
X1005482Y400254D01*
X1005491Y400225D01*
X1005516Y400185D01*
X1005530Y400150D01*
X1005582Y400075D01*
X1005637Y399977D01*
X1005661Y399948D01*
X1005674Y399928D01*
X1005709Y399893D01*
X1005710Y399891D01*
X1005729Y399864D01*
X1005747Y399848D01*
X1005795Y399791D01*
X1006682Y398904D01*
X1006682Y395927D01*
X1006697Y395802D01*
X1006703Y395676D01*
X1006717Y395629D01*
X1006722Y395581D01*
X1006765Y395462D01*
X1006800Y395341D01*
X1006824Y395299D01*
X1006840Y395253D01*
X1006908Y395147D01*
X1006970Y395037D01*
X1007009Y394990D01*
X1007029Y394960D01*
X1007063Y394927D01*
X1007129Y394850D01*
X1008181Y393798D01*
X1010097Y391882D01*
X1010175Y391820D01*
X1010248Y391750D01*
X1010312Y391712D01*
X1010370Y391665D01*
X1010461Y391622D01*
X1010547Y391571D01*
X1010618Y391548D01*
X1010685Y391516D01*
X1010783Y391495D01*
X1010879Y391465D01*
X1010953Y391459D01*
X1011026Y391443D01*
X1011126Y391445D01*
X1011226Y391437D01*
X1011300Y391448D01*
X1011374Y391449D01*
X1011471Y391474D01*
X1011571Y391488D01*
X1011640Y391516D01*
X1011712Y391534D01*
X1011801Y391580D01*
X1011895Y391617D01*
X1011956Y391660D01*
X1012022Y391694D01*
X1012098Y391759D01*
X1012181Y391816D01*
X1012231Y391871D01*
X1012287Y391920D01*
X1012347Y392000D01*
X1012414Y392075D01*
X1012450Y392140D01*
X1012495Y392200D01*
X1012534Y392292D01*
X1012583Y392380D01*
X1012603Y392452D01*
X1012633Y392520D01*
X1012650Y392619D01*
X1012678Y392715D01*
X1012686Y392815D01*
X1012694Y392863D01*
X1012692Y392899D01*
X1012697Y392959D01*
X1012697Y703737D01*
X1012696Y703745D01*
X1012697Y703752D01*
X1012676Y703918D01*
X1012657Y704084D01*
X1012655Y704091D01*
X1012654Y704098D01*
X1012597Y704253D01*
X1012540Y704412D01*
X1012536Y704418D01*
X1012533Y704425D01*
X1012442Y704563D01*
X1012351Y704705D01*
X1012345Y704710D01*
X1012341Y704716D01*
X1012221Y704830D01*
X1012100Y704947D01*
X1012094Y704951D01*
X1012088Y704956D01*
X1011944Y705040D01*
X1011801Y705126D01*
X1011794Y705128D01*
X1011788Y705132D01*
X1011628Y705181D01*
X1011469Y705232D01*
X1011462Y705232D01*
X1011455Y705235D01*
X1011287Y705246D01*
X1011122Y705260D01*
X1011114Y705259D01*
X1011107Y705259D01*
X1010941Y705233D01*
X1010777Y705208D01*
X1010770Y705205D01*
X1010763Y705204D01*
X1010609Y705141D01*
X1010453Y705079D01*
X1010447Y705075D01*
X1010440Y705072D01*
X1010304Y704976D01*
X1010167Y704880D01*
X1010162Y704875D01*
X1010156Y704871D01*
X1010045Y704745D01*
X1009934Y704622D01*
X1009930Y704615D01*
X1009925Y704609D01*
X1009802Y704398D01*
X1005115Y694666D01*
X996878Y685789D01*
X986391Y679735D01*
X974586Y677040D01*
X962510Y677945D01*
X951238Y682369D01*
X941771Y689919D01*
X934949Y699924D01*
X931380Y711495D01*
X931380Y723605D01*
X934949Y735176D01*
X941771Y745181D01*
X951238Y752731D01*
X958946Y755756D01*
X959003Y755786D01*
X959064Y755808D01*
X959156Y755868D01*
X959254Y755920D01*
X959302Y755962D01*
X959357Y755997D01*
X959433Y756076D01*
X959516Y756149D01*
X959554Y756201D01*
X959599Y756248D01*
X959655Y756342D01*
X959720Y756432D01*
X959745Y756491D01*
X959778Y756547D01*
X959811Y756652D01*
X959854Y756754D01*
X959864Y756817D01*
X959884Y756879D01*
X959893Y756989D01*
X959911Y757097D01*
X959907Y757162D01*
X959912Y757226D01*
X959895Y757335D01*
X959888Y757445D01*
X959870Y757507D01*
X959860Y757571D01*
X959819Y757673D01*
X959788Y757779D01*
X959755Y757835D01*
X959731Y757895D01*
X959669Y757985D01*
X959613Y758081D01*
X959569Y758128D01*
X959532Y758181D01*
X959451Y758255D01*
X959375Y758335D01*
X959322Y758371D01*
X959274Y758414D01*
X959177Y758468D01*
X959086Y758529D01*
X959025Y758552D01*
X958969Y758583D01*
X958862Y758613D01*
X958759Y758652D01*
X958696Y758660D01*
X958633Y758678D01*
X958449Y758692D01*
X958414Y758697D01*
X958404Y758696D01*
X958389Y758697D01*
X58213Y758697D01*
X58209Y758697D01*
X58205Y758697D01*
X58037Y758677D01*
X57866Y758657D01*
X57863Y758656D01*
X57859Y758656D01*
X57700Y758598D01*
X57538Y758540D01*
X57535Y758538D01*
X57532Y758537D01*
X57389Y758443D01*
X57246Y758351D01*
X57243Y758348D01*
X57240Y758346D01*
X57122Y758223D01*
X57003Y758100D01*
X57001Y758097D01*
X56999Y758094D01*
X56912Y757948D01*
X56824Y757801D01*
X56823Y757798D01*
X56821Y757794D01*
X56770Y757632D01*
X56718Y757469D01*
X56718Y757465D01*
X56717Y757462D01*
X56704Y757289D01*
X56690Y757122D01*
X56691Y757118D01*
X56691Y757114D01*
X56717Y756944D01*
X56742Y756777D01*
X56743Y756774D01*
X56744Y756770D01*
X56808Y756610D01*
X56871Y756453D01*
X56873Y756450D01*
X56874Y756447D01*
X56975Y756304D01*
X57070Y756167D01*
X57072Y756165D01*
X57075Y756162D01*
X57204Y756046D01*
X57328Y755934D01*
X57332Y755932D01*
X57335Y755929D01*
X57484Y755848D01*
X57633Y755765D01*
X57637Y755764D01*
X57640Y755762D01*
X57874Y755689D01*
X59291Y755365D01*
X69778Y749311D01*
X78015Y740434D01*
X83269Y729524D01*
X85073Y717550D01*
X83269Y705576D01*
X78015Y694666D01*
X69778Y685789D01*
X59291Y679735D01*
X47486Y677040D01*
X35410Y677945D01*
X24138Y682369D01*
X14671Y689919D01*
X7849Y699924D01*
X6282Y705007D01*
X6233Y705118D01*
X6192Y705233D01*
X6163Y705277D01*
X6141Y705326D01*
X6069Y705423D01*
X6003Y705525D01*
X5964Y705562D01*
X5932Y705605D01*
X5839Y705683D01*
X5752Y705768D01*
X5706Y705795D01*
X5665Y705829D01*
X5557Y705884D01*
X5453Y705946D01*
X5402Y705963D01*
X5355Y705987D01*
X5237Y706016D01*
X5121Y706053D01*
X5068Y706057D01*
X5016Y706070D01*
X4895Y706071D01*
X4774Y706081D01*
X4721Y706073D01*
X4668Y706073D01*
X4549Y706047D01*
X4429Y706029D01*
X4380Y706009D01*
X4327Y705998D01*
X4218Y705945D01*
X4105Y705900D01*
X4061Y705870D01*
X4013Y705847D01*
X3919Y705770D01*
X3819Y705701D01*
X3783Y705662D01*
X3742Y705628D01*
X3667Y705532D01*
X3586Y705442D01*
X3560Y705396D01*
X3527Y705354D01*
X3476Y705244D01*
X3417Y705137D01*
X3403Y705086D01*
X3380Y705038D01*
X3355Y704919D01*
X3322Y704802D01*
X3317Y704734D01*
X3309Y704696D01*
X3310Y704650D01*
X3303Y704558D01*
X3303Y57442D01*
X3317Y57321D01*
X3322Y57200D01*
X3337Y57149D01*
X3343Y57096D01*
X3384Y56981D01*
X3416Y56865D01*
X3442Y56818D01*
X3460Y56767D01*
X3526Y56666D01*
X3584Y56559D01*
X3620Y56520D01*
X3649Y56475D01*
X3736Y56390D01*
X3818Y56300D01*
X3861Y56270D01*
X3900Y56232D01*
X4004Y56170D01*
X4103Y56101D01*
X4153Y56081D01*
X4199Y56054D01*
X4314Y56017D01*
X4427Y55972D01*
X4480Y55964D01*
X4531Y55947D01*
X4652Y55938D01*
X4772Y55920D01*
X4825Y55924D01*
X4878Y55919D01*
X4998Y55937D01*
X5119Y55947D01*
X5170Y55963D01*
X5223Y55971D01*
X5336Y56016D01*
X5451Y56053D01*
X5497Y56080D01*
X5547Y56100D01*
X5646Y56169D01*
X5751Y56231D01*
X5789Y56268D01*
X5833Y56299D01*
X5914Y56389D01*
X6002Y56473D01*
X6030Y56518D01*
X6066Y56558D01*
X6125Y56664D01*
X6191Y56766D01*
X6216Y56829D01*
X6235Y56863D01*
X6247Y56907D01*
X6282Y56993D01*
X7849Y62076D01*
X14671Y72081D01*
X24138Y79631D01*
X35410Y84055D01*
X47486Y84960D01*
X59291Y82265D01*
X69778Y76211D01*
X78015Y67334D01*
X83269Y56424D01*
X85074Y44450D01*
X83269Y32476D01*
X78015Y21566D01*
X69778Y12689D01*
X59291Y6635D01*
X57874Y6311D01*
X57870Y6310D01*
X57866Y6309D01*
X57705Y6252D01*
X57545Y6195D01*
X57542Y6193D01*
X57538Y6192D01*
X57395Y6100D01*
X57251Y6008D01*
X57249Y6005D01*
X57245Y6003D01*
X57127Y5880D01*
X57008Y5758D01*
X57006Y5755D01*
X57003Y5752D01*
X56915Y5604D01*
X56828Y5460D01*
X56826Y5456D01*
X56824Y5453D01*
X56773Y5291D01*
X56720Y5129D01*
X56719Y5125D01*
X56718Y5121D01*
X56705Y4953D01*
X56690Y4781D01*
X56691Y4777D01*
X56690Y4774D01*
X56716Y4604D01*
X56740Y4436D01*
X56741Y4433D01*
X56742Y4429D01*
X56806Y4268D01*
X56867Y4112D01*
X56869Y4109D01*
X56871Y4105D01*
X56968Y3965D01*
X57065Y3825D01*
X57067Y3822D01*
X57070Y3819D01*
X57196Y3705D01*
X57322Y3590D01*
X57326Y3588D01*
X57328Y3586D01*
X57477Y3503D01*
X57627Y3420D01*
X57630Y3419D01*
X57633Y3417D01*
X57796Y3371D01*
X57961Y3324D01*
X57965Y3323D01*
X57969Y3322D01*
X58213Y3303D01*
X120210Y3303D01*
X120310Y3314D01*
G37*
%LPC*%
G36*
X250615Y211581D02*
X250615Y211581D01*
X244360Y214172D01*
X239572Y218960D01*
X236981Y225215D01*
X236981Y231985D01*
X239405Y237837D01*
X239406Y237839D01*
X239407Y237841D01*
X239451Y237998D01*
X239501Y238173D01*
X239501Y238175D01*
X239502Y238177D01*
X239521Y238420D01*
X239521Y254992D01*
X239507Y255117D01*
X239500Y255244D01*
X239487Y255290D01*
X239481Y255338D01*
X239439Y255457D01*
X239404Y255578D01*
X239380Y255621D01*
X239364Y255666D01*
X239295Y255772D01*
X239234Y255883D01*
X239194Y255929D01*
X239175Y255959D01*
X239140Y255992D01*
X239075Y256069D01*
X175686Y319458D01*
X173481Y324780D01*
X173481Y326061D01*
X173467Y326186D01*
X173460Y326313D01*
X173447Y326359D01*
X173441Y326407D01*
X173399Y326526D01*
X173364Y326647D01*
X173340Y326690D01*
X173324Y326735D01*
X173255Y326841D01*
X173194Y326952D01*
X173154Y326998D01*
X173135Y327028D01*
X173100Y327061D01*
X173035Y327138D01*
X171080Y329093D01*
X169417Y333107D01*
X169417Y335921D01*
X169412Y335971D01*
X169414Y336021D01*
X169392Y336144D01*
X169377Y336267D01*
X169360Y336315D01*
X169351Y336364D01*
X169302Y336478D01*
X169260Y336595D01*
X169233Y336638D01*
X169213Y336684D01*
X169138Y336784D01*
X169071Y336888D01*
X169035Y336923D01*
X169005Y336964D01*
X168910Y337044D01*
X168820Y337130D01*
X168777Y337156D01*
X168739Y337189D01*
X168628Y337245D01*
X168521Y337309D01*
X168473Y337325D01*
X168428Y337348D01*
X168308Y337378D01*
X168189Y337415D01*
X168139Y337419D01*
X168090Y337432D01*
X167966Y337433D01*
X167842Y337443D01*
X167792Y337436D01*
X167742Y337437D01*
X167620Y337410D01*
X167497Y337392D01*
X167450Y337373D01*
X167401Y337362D01*
X167289Y337309D01*
X167173Y337263D01*
X167132Y337234D01*
X167086Y337213D01*
X166989Y337135D01*
X166887Y337064D01*
X166853Y337027D01*
X166814Y336995D01*
X166737Y336898D01*
X166654Y336805D01*
X166629Y336761D01*
X166598Y336722D01*
X166487Y336504D01*
X165277Y333584D01*
X161004Y329311D01*
X155421Y326999D01*
X149379Y326999D01*
X143796Y329311D01*
X139523Y333584D01*
X137210Y339167D01*
X137210Y372033D01*
X139523Y377616D01*
X143796Y381889D01*
X149379Y384201D01*
X155421Y384201D01*
X161004Y381889D01*
X165277Y377616D01*
X166487Y374696D01*
X166511Y374652D01*
X166528Y374605D01*
X166596Y374500D01*
X166656Y374391D01*
X166690Y374354D01*
X166717Y374312D01*
X166807Y374225D01*
X166890Y374133D01*
X166932Y374105D01*
X166968Y374070D01*
X167075Y374006D01*
X167177Y373935D01*
X167224Y373917D01*
X167267Y373891D01*
X167385Y373853D01*
X167501Y373807D01*
X167551Y373800D01*
X167599Y373785D01*
X167723Y373775D01*
X167846Y373756D01*
X167896Y373761D01*
X167946Y373757D01*
X168069Y373775D01*
X168193Y373785D01*
X168241Y373801D01*
X168291Y373808D01*
X168406Y373854D01*
X168525Y373892D01*
X168568Y373918D01*
X168615Y373937D01*
X168717Y374008D01*
X168823Y374072D01*
X168860Y374107D01*
X168901Y374136D01*
X168984Y374228D01*
X169073Y374315D01*
X169101Y374357D01*
X169134Y374395D01*
X169194Y374504D01*
X169262Y374608D01*
X169279Y374656D01*
X169303Y374700D01*
X169337Y374819D01*
X169378Y374937D01*
X169384Y374987D01*
X169398Y375035D01*
X169417Y375279D01*
X169417Y462921D01*
X169412Y462971D01*
X169414Y463021D01*
X169392Y463144D01*
X169377Y463267D01*
X169360Y463315D01*
X169351Y463364D01*
X169302Y463478D01*
X169260Y463595D01*
X169233Y463638D01*
X169213Y463684D01*
X169138Y463784D01*
X169071Y463888D01*
X169035Y463923D01*
X169005Y463964D01*
X168910Y464044D01*
X168820Y464130D01*
X168777Y464156D01*
X168739Y464189D01*
X168628Y464245D01*
X168521Y464309D01*
X168473Y464325D01*
X168428Y464348D01*
X168308Y464378D01*
X168189Y464415D01*
X168139Y464419D01*
X168090Y464432D01*
X167966Y464433D01*
X167842Y464443D01*
X167792Y464436D01*
X167742Y464437D01*
X167620Y464410D01*
X167497Y464392D01*
X167450Y464373D01*
X167401Y464362D01*
X167289Y464309D01*
X167173Y464263D01*
X167132Y464234D01*
X167086Y464213D01*
X166989Y464135D01*
X166887Y464064D01*
X166853Y464027D01*
X166814Y463995D01*
X166737Y463898D01*
X166654Y463805D01*
X166629Y463761D01*
X166598Y463722D01*
X166487Y463504D01*
X165277Y460584D01*
X161004Y456311D01*
X155421Y453999D01*
X149379Y453999D01*
X143796Y456311D01*
X139523Y460584D01*
X137210Y466167D01*
X137210Y499033D01*
X139523Y504616D01*
X143796Y508889D01*
X149379Y511201D01*
X155421Y511201D01*
X161004Y508889D01*
X165277Y504616D01*
X166487Y501696D01*
X166511Y501652D01*
X166528Y501605D01*
X166596Y501500D01*
X166656Y501391D01*
X166690Y501354D01*
X166717Y501312D01*
X166807Y501225D01*
X166890Y501133D01*
X166932Y501105D01*
X166968Y501070D01*
X167075Y501006D01*
X167177Y500935D01*
X167224Y500917D01*
X167267Y500891D01*
X167385Y500853D01*
X167501Y500807D01*
X167551Y500800D01*
X167599Y500785D01*
X167723Y500775D01*
X167846Y500756D01*
X167896Y500761D01*
X167946Y500757D01*
X168069Y500775D01*
X168193Y500785D01*
X168241Y500801D01*
X168291Y500808D01*
X168406Y500854D01*
X168525Y500892D01*
X168568Y500918D01*
X168615Y500937D01*
X168717Y501008D01*
X168823Y501072D01*
X168860Y501107D01*
X168901Y501136D01*
X168984Y501228D01*
X169073Y501315D01*
X169101Y501357D01*
X169134Y501395D01*
X169194Y501504D01*
X169262Y501608D01*
X169279Y501656D01*
X169303Y501700D01*
X169337Y501819D01*
X169378Y501937D01*
X169384Y501987D01*
X169398Y502035D01*
X169417Y502279D01*
X169417Y527953D01*
X170825Y531352D01*
X170826Y531354D01*
X170827Y531356D01*
X170872Y531515D01*
X170921Y531687D01*
X170921Y531689D01*
X170922Y531691D01*
X170941Y531935D01*
X170941Y533740D01*
X173146Y539062D01*
X178675Y544591D01*
X178754Y544690D01*
X178838Y544784D01*
X178862Y544826D01*
X178892Y544864D01*
X178946Y544978D01*
X179007Y545089D01*
X179020Y545136D01*
X179041Y545179D01*
X179067Y545303D01*
X179102Y545424D01*
X179107Y545485D01*
X179114Y545520D01*
X179113Y545568D01*
X179121Y545668D01*
X179121Y714080D01*
X181326Y719402D01*
X185398Y723474D01*
X190720Y725679D01*
X196480Y725679D01*
X201802Y723474D01*
X205874Y719402D01*
X208079Y714080D01*
X208079Y536160D01*
X205874Y530838D01*
X193622Y518586D01*
X192203Y517998D01*
X192136Y517961D01*
X192065Y517933D01*
X191984Y517876D01*
X191898Y517829D01*
X191842Y517777D01*
X191779Y517734D01*
X191713Y517661D01*
X191640Y517595D01*
X191597Y517532D01*
X191546Y517475D01*
X191498Y517389D01*
X191442Y517308D01*
X191414Y517237D01*
X191377Y517170D01*
X191350Y517075D01*
X191314Y516984D01*
X191303Y516908D01*
X191282Y516834D01*
X191270Y516686D01*
X191263Y516639D01*
X191265Y516620D01*
X191263Y516591D01*
X191263Y494598D01*
X191274Y494498D01*
X191276Y494398D01*
X191294Y494326D01*
X191303Y494252D01*
X191336Y494158D01*
X191361Y494060D01*
X191395Y493994D01*
X191420Y493924D01*
X191475Y493840D01*
X191521Y493750D01*
X191569Y493694D01*
X191609Y493631D01*
X191681Y493561D01*
X191746Y493485D01*
X191806Y493441D01*
X191860Y493389D01*
X191946Y493337D01*
X192027Y493278D01*
X192095Y493248D01*
X192159Y493210D01*
X192255Y493180D01*
X192347Y493140D01*
X192420Y493127D01*
X192491Y493104D01*
X192591Y493096D01*
X192690Y493078D01*
X192764Y493082D01*
X192838Y493076D01*
X192938Y493091D01*
X193038Y493096D01*
X193109Y493117D01*
X193183Y493128D01*
X193276Y493165D01*
X193373Y493193D01*
X193438Y493229D01*
X193507Y493256D01*
X193589Y493314D01*
X193677Y493363D01*
X193753Y493428D01*
X193793Y493455D01*
X193817Y493482D01*
X193863Y493521D01*
X197370Y497028D01*
X203625Y499619D01*
X210395Y499619D01*
X216191Y497218D01*
X216288Y497190D01*
X216381Y497154D01*
X216454Y497143D01*
X216526Y497122D01*
X216626Y497118D01*
X216726Y497103D01*
X216800Y497109D01*
X216874Y497105D01*
X216973Y497123D01*
X217073Y497132D01*
X217144Y497155D01*
X217217Y497168D01*
X217309Y497208D01*
X217405Y497239D01*
X217468Y497277D01*
X217537Y497307D01*
X217617Y497367D01*
X217703Y497419D01*
X217757Y497470D01*
X217816Y497515D01*
X217881Y497592D01*
X217953Y497661D01*
X217993Y497724D01*
X218042Y497781D01*
X218087Y497870D01*
X218142Y497955D01*
X218166Y498025D01*
X218200Y498091D01*
X218224Y498188D01*
X218258Y498283D01*
X218266Y498357D01*
X218284Y498429D01*
X218286Y498530D01*
X218297Y498629D01*
X218288Y498703D01*
X218289Y498778D01*
X218268Y498876D01*
X218256Y498976D01*
X218225Y499071D01*
X218215Y499118D01*
X218200Y499151D01*
X218181Y499208D01*
X216153Y504104D01*
X216153Y541012D01*
X218358Y546334D01*
X331785Y659761D01*
X331864Y659860D01*
X331948Y659954D01*
X331972Y659996D01*
X332002Y660034D01*
X332056Y660148D01*
X332117Y660259D01*
X332130Y660306D01*
X332151Y660349D01*
X332177Y660473D01*
X332212Y660594D01*
X332217Y660655D01*
X332224Y660690D01*
X332223Y660738D01*
X332231Y660838D01*
X332231Y667748D01*
X335789Y676337D01*
X342363Y682911D01*
X350952Y686469D01*
X360248Y686469D01*
X368837Y682911D01*
X373724Y678025D01*
X373823Y677946D01*
X373916Y677862D01*
X373959Y677838D01*
X373997Y677808D01*
X374111Y677754D01*
X374221Y677693D01*
X374268Y677680D01*
X374312Y677659D01*
X374435Y677633D01*
X374557Y677598D01*
X374618Y677593D01*
X374652Y677586D01*
X374700Y677587D01*
X374801Y677579D01*
X401500Y677579D01*
X406822Y675374D01*
X442431Y639765D01*
X442530Y639686D01*
X442624Y639602D01*
X442666Y639578D01*
X442704Y639548D01*
X442818Y639494D01*
X442929Y639433D01*
X442976Y639420D01*
X443019Y639399D01*
X443143Y639373D01*
X443264Y639338D01*
X443325Y639333D01*
X443360Y639326D01*
X443408Y639327D01*
X443508Y639319D01*
X496690Y639319D01*
X496740Y639324D01*
X496790Y639322D01*
X496912Y639344D01*
X497036Y639359D01*
X497083Y639376D01*
X497133Y639385D01*
X497247Y639434D01*
X497364Y639476D01*
X497406Y639503D01*
X497453Y639523D01*
X497552Y639598D01*
X497657Y639665D01*
X497692Y639701D01*
X497732Y639731D01*
X497812Y639826D01*
X497899Y639916D01*
X497925Y639959D01*
X497957Y639997D01*
X498014Y640108D01*
X498078Y640215D01*
X498093Y640263D01*
X498116Y640308D01*
X498146Y640428D01*
X498184Y640547D01*
X498188Y640597D01*
X498200Y640646D01*
X498202Y640770D01*
X498212Y640894D01*
X498205Y640944D01*
X498205Y640994D01*
X498179Y641116D01*
X498160Y641239D01*
X498142Y641286D01*
X498131Y641335D01*
X498078Y641447D01*
X498032Y641563D01*
X498003Y641604D01*
X497981Y641650D01*
X497904Y641747D01*
X497833Y641849D01*
X497795Y641883D01*
X497764Y641922D01*
X497666Y641999D01*
X497574Y642082D01*
X497530Y642107D01*
X497490Y642138D01*
X497273Y642249D01*
X494763Y643289D01*
X488189Y649863D01*
X484631Y658452D01*
X484631Y667748D01*
X488189Y676337D01*
X494763Y682911D01*
X503352Y686469D01*
X512648Y686469D01*
X521237Y682911D01*
X527811Y676337D01*
X531369Y667748D01*
X531369Y658452D01*
X527811Y649863D01*
X521237Y643289D01*
X518727Y642249D01*
X518683Y642225D01*
X518636Y642208D01*
X518531Y642140D01*
X518423Y642080D01*
X518385Y642046D01*
X518343Y642019D01*
X518257Y641929D01*
X518165Y641846D01*
X518136Y641804D01*
X518101Y641768D01*
X518037Y641661D01*
X517966Y641559D01*
X517948Y641512D01*
X517922Y641469D01*
X517884Y641351D01*
X517839Y641235D01*
X517831Y641185D01*
X517816Y641137D01*
X517806Y641013D01*
X517788Y640890D01*
X517792Y640840D01*
X517788Y640790D01*
X517806Y640667D01*
X517817Y640543D01*
X517832Y640495D01*
X517840Y640445D01*
X517886Y640330D01*
X517924Y640211D01*
X517950Y640168D01*
X517968Y640121D01*
X518039Y640019D01*
X518103Y639913D01*
X518139Y639876D01*
X518167Y639835D01*
X518259Y639752D01*
X518346Y639663D01*
X518389Y639635D01*
X518426Y639602D01*
X518535Y639542D01*
X518640Y639474D01*
X518687Y639457D01*
X518731Y639433D01*
X518851Y639399D01*
X518968Y639358D01*
X519018Y639352D01*
X519066Y639338D01*
X519310Y639319D01*
X605512Y639319D01*
X605637Y639333D01*
X605764Y639340D01*
X605810Y639353D01*
X605858Y639359D01*
X605977Y639401D01*
X606098Y639436D01*
X606141Y639460D01*
X606186Y639476D01*
X606292Y639545D01*
X606403Y639606D01*
X606449Y639646D01*
X606479Y639665D01*
X606512Y639700D01*
X606589Y639765D01*
X607375Y640551D01*
X607454Y640650D01*
X607538Y640744D01*
X607562Y640786D01*
X607592Y640824D01*
X607646Y640938D01*
X607707Y641049D01*
X607720Y641096D01*
X607741Y641139D01*
X607767Y641263D01*
X607802Y641384D01*
X607807Y641445D01*
X607814Y641480D01*
X607813Y641528D01*
X607821Y641628D01*
X607821Y663280D01*
X610026Y668602D01*
X614098Y672674D01*
X619420Y674879D01*
X625180Y674879D01*
X630502Y672674D01*
X634574Y668602D01*
X636779Y663280D01*
X636779Y632120D01*
X634574Y626798D01*
X620342Y612566D01*
X615020Y610361D01*
X434000Y610361D01*
X428678Y612566D01*
X393069Y648175D01*
X392970Y648254D01*
X392876Y648338D01*
X392834Y648362D01*
X392796Y648392D01*
X392682Y648446D01*
X392571Y648507D01*
X392524Y648520D01*
X392481Y648541D01*
X392357Y648567D01*
X392236Y648602D01*
X392175Y648607D01*
X392140Y648614D01*
X392092Y648613D01*
X391992Y648621D01*
X374801Y648621D01*
X374675Y648607D01*
X374549Y648600D01*
X374502Y648587D01*
X374454Y648581D01*
X374335Y648539D01*
X374214Y648504D01*
X374172Y648480D01*
X374126Y648464D01*
X374020Y648395D01*
X373910Y648334D01*
X373863Y648294D01*
X373833Y648275D01*
X373800Y648240D01*
X373724Y648175D01*
X368837Y643289D01*
X360248Y639731D01*
X353338Y639731D01*
X353213Y639717D01*
X353086Y639710D01*
X353040Y639697D01*
X352992Y639691D01*
X352873Y639649D01*
X352752Y639614D01*
X352709Y639590D01*
X352664Y639574D01*
X352558Y639505D01*
X352447Y639444D01*
X352401Y639404D01*
X352371Y639385D01*
X352338Y639350D01*
X352261Y639285D01*
X245557Y532581D01*
X245478Y532482D01*
X245394Y532388D01*
X245370Y532346D01*
X245340Y532308D01*
X245286Y532194D01*
X245225Y532083D01*
X245212Y532036D01*
X245191Y531993D01*
X245165Y531869D01*
X245130Y531748D01*
X245125Y531687D01*
X245118Y531652D01*
X245119Y531604D01*
X245111Y531504D01*
X245111Y504104D01*
X243135Y499335D01*
X243108Y499239D01*
X243071Y499145D01*
X243060Y499072D01*
X243040Y499000D01*
X243035Y498900D01*
X243020Y498801D01*
X243026Y498726D01*
X243023Y498652D01*
X243041Y498553D01*
X243049Y498453D01*
X243072Y498382D01*
X243085Y498309D01*
X243125Y498217D01*
X243156Y498122D01*
X243195Y498058D01*
X243224Y497990D01*
X243284Y497909D01*
X243336Y497823D01*
X243388Y497770D01*
X243432Y497710D01*
X243509Y497645D01*
X243579Y497573D01*
X243641Y497533D01*
X243698Y497485D01*
X243788Y497439D01*
X243872Y497385D01*
X243942Y497360D01*
X244008Y497326D01*
X244106Y497302D01*
X244201Y497268D01*
X244275Y497260D01*
X244347Y497242D01*
X244447Y497240D01*
X244547Y497229D01*
X244621Y497238D01*
X244695Y497237D01*
X244793Y497258D01*
X244893Y497270D01*
X244989Y497301D01*
X245036Y497311D01*
X245068Y497326D01*
X245126Y497345D01*
X250615Y499619D01*
X257385Y499619D01*
X263640Y497028D01*
X268428Y492240D01*
X271019Y485985D01*
X271019Y479215D01*
X268428Y472960D01*
X263640Y468172D01*
X257385Y465581D01*
X250615Y465581D01*
X247725Y466778D01*
X247580Y466820D01*
X247437Y466865D01*
X247413Y466867D01*
X247390Y466874D01*
X247239Y466881D01*
X247090Y466893D01*
X247066Y466890D01*
X247042Y466891D01*
X246894Y466864D01*
X246745Y466842D01*
X246723Y466833D01*
X246699Y466828D01*
X246561Y466768D01*
X246421Y466713D01*
X246401Y466699D01*
X246379Y466690D01*
X246258Y466600D01*
X246135Y466514D01*
X246119Y466496D01*
X246099Y466482D01*
X246002Y466367D01*
X245902Y466255D01*
X245890Y466234D01*
X245874Y466216D01*
X245806Y466082D01*
X245733Y465950D01*
X245727Y465927D01*
X245716Y465905D01*
X245679Y465760D01*
X245638Y465615D01*
X245636Y465586D01*
X245631Y465567D01*
X245631Y465520D01*
X245619Y465371D01*
X245619Y385088D01*
X245633Y384963D01*
X245640Y384836D01*
X245653Y384790D01*
X245659Y384742D01*
X245701Y384623D01*
X245736Y384502D01*
X245760Y384459D01*
X245776Y384414D01*
X245845Y384308D01*
X245906Y384197D01*
X245946Y384151D01*
X245965Y384121D01*
X246000Y384088D01*
X246065Y384011D01*
X257294Y372782D01*
X257296Y372781D01*
X257297Y372779D01*
X257433Y372671D01*
X257567Y372565D01*
X257569Y372565D01*
X257570Y372563D01*
X257788Y372452D01*
X263640Y370028D01*
X268428Y365240D01*
X271019Y358985D01*
X271019Y352215D01*
X268428Y345960D01*
X263640Y341172D01*
X257385Y338581D01*
X250615Y338581D01*
X244360Y341172D01*
X239572Y345960D01*
X237148Y351812D01*
X237147Y351814D01*
X237147Y351816D01*
X237062Y351966D01*
X236979Y352116D01*
X236977Y352118D01*
X236976Y352120D01*
X236818Y352306D01*
X225123Y364001D01*
X225084Y364032D01*
X225050Y364069D01*
X224948Y364140D01*
X224850Y364217D01*
X224805Y364239D01*
X224763Y364268D01*
X224647Y364313D01*
X224535Y364366D01*
X224486Y364377D01*
X224439Y364395D01*
X224316Y364414D01*
X224194Y364440D01*
X224144Y364439D01*
X224094Y364446D01*
X223970Y364436D01*
X223846Y364434D01*
X223797Y364421D01*
X223747Y364417D01*
X223629Y364379D01*
X223508Y364349D01*
X223463Y364326D01*
X223415Y364310D01*
X223309Y364246D01*
X223198Y364189D01*
X223160Y364156D01*
X223117Y364131D01*
X223028Y364044D01*
X222933Y363963D01*
X222903Y363923D01*
X222867Y363888D01*
X222800Y363783D01*
X222726Y363683D01*
X222706Y363637D01*
X222678Y363594D01*
X222637Y363477D01*
X222588Y363363D01*
X222579Y363314D01*
X222562Y363266D01*
X222548Y363142D01*
X222526Y363020D01*
X222528Y362970D01*
X222523Y362920D01*
X222537Y362796D01*
X222544Y362672D01*
X222558Y362624D01*
X222564Y362574D01*
X222639Y362341D01*
X224029Y358985D01*
X224029Y352215D01*
X221438Y345960D01*
X216650Y341172D01*
X210395Y338581D01*
X203625Y338581D01*
X200618Y339827D01*
X200269Y339971D01*
X200221Y339985D01*
X200175Y340007D01*
X200054Y340033D01*
X199934Y340067D01*
X199884Y340069D01*
X199835Y340080D01*
X199710Y340078D01*
X199586Y340084D01*
X199536Y340075D01*
X199486Y340074D01*
X199366Y340044D01*
X199243Y340021D01*
X199197Y340001D01*
X199148Y339989D01*
X199037Y339932D01*
X198924Y339882D01*
X198883Y339852D01*
X198838Y339829D01*
X198744Y339749D01*
X198644Y339675D01*
X198611Y339636D01*
X198573Y339603D01*
X198499Y339503D01*
X198419Y339408D01*
X198396Y339364D01*
X198366Y339323D01*
X198316Y339209D01*
X198260Y339098D01*
X198248Y339049D01*
X198228Y339003D01*
X198206Y338880D01*
X198176Y338760D01*
X198175Y338710D01*
X198166Y338660D01*
X198173Y338536D01*
X198171Y338412D01*
X198181Y338362D01*
X198184Y338312D01*
X198219Y338193D01*
X198245Y338071D01*
X198267Y338026D01*
X198281Y337977D01*
X198341Y337869D01*
X198395Y337756D01*
X198426Y337717D01*
X198451Y337673D01*
X198609Y337487D01*
X198612Y337484D01*
X266274Y269822D01*
X268479Y264500D01*
X268479Y238420D01*
X268479Y238418D01*
X268479Y238416D01*
X268500Y238237D01*
X268519Y238074D01*
X268519Y238072D01*
X268520Y238070D01*
X268595Y237837D01*
X271019Y231985D01*
X271019Y225215D01*
X268428Y218960D01*
X263640Y214172D01*
X257385Y211581D01*
X250615Y211581D01*
G37*
%LPD*%
%LPC*%
G36*
X519060Y69455D02*
X519060Y69455D01*
X516030Y70711D01*
X513711Y73030D01*
X512455Y76060D01*
X512455Y79340D01*
X512843Y80275D01*
X512864Y80349D01*
X512894Y80419D01*
X512911Y80516D01*
X512938Y80610D01*
X512942Y80687D01*
X512956Y80762D01*
X512951Y80860D01*
X512955Y80958D01*
X512942Y81034D01*
X512938Y81110D01*
X512910Y81204D01*
X512893Y81301D01*
X512862Y81371D01*
X512841Y81445D01*
X512793Y81531D01*
X512754Y81621D01*
X512708Y81682D01*
X512671Y81749D01*
X512574Y81863D01*
X512546Y81901D01*
X512531Y81913D01*
X512512Y81935D01*
X496002Y98446D01*
X495942Y98493D01*
X495888Y98548D01*
X495806Y98602D01*
X495729Y98663D01*
X495660Y98695D01*
X495595Y98737D01*
X495502Y98770D01*
X495414Y98812D01*
X495339Y98828D01*
X495267Y98853D01*
X495169Y98864D01*
X495073Y98885D01*
X494997Y98884D01*
X494920Y98892D01*
X494823Y98881D01*
X494724Y98879D01*
X494650Y98860D01*
X494574Y98851D01*
X494432Y98806D01*
X494386Y98794D01*
X494369Y98785D01*
X494342Y98776D01*
X493866Y98579D01*
X491654Y98579D01*
X489610Y99426D01*
X488046Y100990D01*
X487199Y103034D01*
X487199Y105246D01*
X488046Y107290D01*
X488490Y107734D01*
X488506Y107754D01*
X488526Y107771D01*
X488614Y107891D01*
X488706Y108007D01*
X488718Y108031D01*
X488733Y108052D01*
X488792Y108188D01*
X488855Y108322D01*
X488861Y108348D01*
X488871Y108372D01*
X488898Y108518D01*
X488929Y108663D01*
X488928Y108689D01*
X488933Y108715D01*
X488925Y108863D01*
X488923Y109011D01*
X488916Y109037D01*
X488915Y109063D01*
X488874Y109205D01*
X488838Y109349D01*
X488826Y109373D01*
X488818Y109398D01*
X488746Y109527D01*
X488678Y109659D01*
X488661Y109679D01*
X488648Y109702D01*
X488490Y109888D01*
X488046Y110332D01*
X487199Y112376D01*
X487199Y114588D01*
X488046Y116632D01*
X488490Y117076D01*
X488506Y117096D01*
X488526Y117113D01*
X488614Y117233D01*
X488706Y117349D01*
X488718Y117373D01*
X488733Y117394D01*
X488792Y117530D01*
X488855Y117664D01*
X488861Y117690D01*
X488871Y117714D01*
X488898Y117860D01*
X488929Y118005D01*
X488928Y118031D01*
X488933Y118057D01*
X488925Y118205D01*
X488923Y118353D01*
X488916Y118379D01*
X488915Y118405D01*
X488874Y118547D01*
X488838Y118691D01*
X488826Y118715D01*
X488818Y118740D01*
X488746Y118869D01*
X488678Y119001D01*
X488661Y119021D01*
X488648Y119044D01*
X488490Y119230D01*
X488046Y119674D01*
X487199Y121718D01*
X487199Y123930D01*
X488046Y125974D01*
X488490Y126418D01*
X488506Y126438D01*
X488526Y126455D01*
X488614Y126575D01*
X488706Y126691D01*
X488718Y126715D01*
X488733Y126736D01*
X488792Y126872D01*
X488855Y127006D01*
X488861Y127032D01*
X488871Y127056D01*
X488898Y127202D01*
X488929Y127347D01*
X488928Y127373D01*
X488933Y127399D01*
X488925Y127547D01*
X488923Y127695D01*
X488916Y127721D01*
X488915Y127747D01*
X488874Y127889D01*
X488838Y128033D01*
X488826Y128056D01*
X488818Y128082D01*
X488746Y128211D01*
X488678Y128343D01*
X488661Y128363D01*
X488648Y128386D01*
X488490Y128572D01*
X488046Y129016D01*
X487199Y131060D01*
X487199Y133272D01*
X488046Y135316D01*
X488856Y136126D01*
X488872Y136146D01*
X488892Y136163D01*
X488980Y136283D01*
X489072Y136399D01*
X489084Y136423D01*
X489099Y136444D01*
X489158Y136580D01*
X489221Y136714D01*
X489227Y136740D01*
X489237Y136764D01*
X489264Y136910D01*
X489295Y137055D01*
X489294Y137081D01*
X489299Y137107D01*
X489291Y137255D01*
X489289Y137403D01*
X489282Y137429D01*
X489281Y137455D01*
X489240Y137597D01*
X489204Y137741D01*
X489192Y137765D01*
X489184Y137790D01*
X489112Y137919D01*
X489044Y138051D01*
X489027Y138071D01*
X489014Y138094D01*
X488856Y138280D01*
X488046Y139090D01*
X487199Y141134D01*
X487199Y143346D01*
X488046Y145390D01*
X488899Y146243D01*
X488915Y146263D01*
X488935Y146280D01*
X489023Y146400D01*
X489115Y146516D01*
X489127Y146540D01*
X489142Y146561D01*
X489201Y146697D01*
X489264Y146831D01*
X489270Y146857D01*
X489280Y146881D01*
X489307Y147027D01*
X489338Y147172D01*
X489337Y147198D01*
X489342Y147224D01*
X489334Y147372D01*
X489332Y147520D01*
X489325Y147546D01*
X489324Y147572D01*
X489283Y147714D01*
X489247Y147858D01*
X489235Y147882D01*
X489227Y147907D01*
X489155Y148036D01*
X489087Y148168D01*
X489070Y148188D01*
X489057Y148211D01*
X488899Y148397D01*
X488046Y149250D01*
X487199Y151294D01*
X487199Y153506D01*
X488046Y155550D01*
X488899Y156403D01*
X488915Y156423D01*
X488935Y156440D01*
X489023Y156560D01*
X489115Y156676D01*
X489127Y156700D01*
X489142Y156721D01*
X489201Y156857D01*
X489264Y156991D01*
X489270Y157017D01*
X489280Y157041D01*
X489307Y157187D01*
X489338Y157332D01*
X489337Y157358D01*
X489342Y157384D01*
X489334Y157532D01*
X489332Y157680D01*
X489325Y157706D01*
X489324Y157732D01*
X489283Y157874D01*
X489247Y158018D01*
X489235Y158042D01*
X489227Y158067D01*
X489155Y158196D01*
X489087Y158328D01*
X489070Y158348D01*
X489057Y158371D01*
X488899Y158557D01*
X488046Y159410D01*
X487199Y161454D01*
X487199Y163666D01*
X488046Y165710D01*
X489610Y167274D01*
X491654Y168121D01*
X493866Y168121D01*
X495910Y167274D01*
X497474Y165710D01*
X498321Y163666D01*
X498321Y161583D01*
X498335Y161457D01*
X498342Y161331D01*
X498355Y161284D01*
X498361Y161236D01*
X498403Y161117D01*
X498438Y160996D01*
X498462Y160954D01*
X498478Y160908D01*
X498547Y160802D01*
X498608Y160692D01*
X498648Y160645D01*
X498667Y160615D01*
X498702Y160582D01*
X498767Y160505D01*
X523499Y135773D01*
X523598Y135694D01*
X523692Y135610D01*
X523735Y135586D01*
X523772Y135556D01*
X523887Y135502D01*
X523997Y135441D01*
X524044Y135428D01*
X524088Y135407D01*
X524211Y135381D01*
X524333Y135346D01*
X524394Y135341D01*
X524428Y135334D01*
X524476Y135335D01*
X524577Y135327D01*
X553850Y135327D01*
X553949Y135338D01*
X554050Y135340D01*
X554122Y135358D01*
X554196Y135367D01*
X554290Y135400D01*
X554388Y135425D01*
X554454Y135459D01*
X554524Y135484D01*
X554608Y135539D01*
X554698Y135585D01*
X554754Y135633D01*
X554817Y135673D01*
X554886Y135745D01*
X554963Y135810D01*
X555007Y135870D01*
X555059Y135924D01*
X555110Y136010D01*
X555170Y136091D01*
X555200Y136159D01*
X555238Y136223D01*
X555268Y136319D01*
X555308Y136411D01*
X555321Y136484D01*
X555344Y136555D01*
X555352Y136655D01*
X555370Y136754D01*
X555366Y136828D01*
X555372Y136902D01*
X555357Y137002D01*
X555352Y137102D01*
X555331Y137173D01*
X555320Y137247D01*
X555283Y137340D01*
X555255Y137437D01*
X555219Y137502D01*
X555191Y137571D01*
X555134Y137653D01*
X555085Y137741D01*
X555020Y137817D01*
X554993Y137857D01*
X554966Y137881D01*
X554927Y137927D01*
X551865Y140989D01*
X550163Y145097D01*
X550163Y149543D01*
X551865Y153651D01*
X555009Y156795D01*
X559117Y158497D01*
X563563Y158497D01*
X567671Y156795D01*
X570815Y153651D01*
X572517Y149543D01*
X572517Y145097D01*
X570815Y140989D01*
X567753Y137927D01*
X567691Y137849D01*
X567621Y137776D01*
X567583Y137712D01*
X567537Y137654D01*
X567494Y137563D01*
X567442Y137477D01*
X567420Y137406D01*
X567388Y137339D01*
X567367Y137241D01*
X567336Y137145D01*
X567330Y137071D01*
X567314Y136998D01*
X567316Y136898D01*
X567308Y136798D01*
X567319Y136724D01*
X567320Y136650D01*
X567345Y136553D01*
X567360Y136453D01*
X567387Y136384D01*
X567405Y136312D01*
X567451Y136223D01*
X567489Y136129D01*
X567531Y136068D01*
X567565Y136002D01*
X567630Y135926D01*
X567687Y135843D01*
X567743Y135793D01*
X567791Y135737D01*
X567872Y135677D01*
X567946Y135610D01*
X568011Y135574D01*
X568071Y135529D01*
X568163Y135490D01*
X568251Y135441D01*
X568323Y135421D01*
X568391Y135391D01*
X568490Y135374D01*
X568587Y135346D01*
X568687Y135338D01*
X568734Y135330D01*
X568770Y135332D01*
X568830Y135327D01*
X579250Y135327D01*
X579349Y135338D01*
X579450Y135340D01*
X579522Y135358D01*
X579596Y135367D01*
X579690Y135400D01*
X579788Y135425D01*
X579854Y135459D01*
X579924Y135484D01*
X580008Y135539D01*
X580098Y135585D01*
X580154Y135633D01*
X580217Y135673D01*
X580286Y135745D01*
X580363Y135810D01*
X580407Y135870D01*
X580459Y135924D01*
X580510Y136010D01*
X580570Y136091D01*
X580600Y136159D01*
X580638Y136223D01*
X580668Y136319D01*
X580708Y136411D01*
X580721Y136484D01*
X580744Y136555D01*
X580752Y136655D01*
X580770Y136754D01*
X580766Y136828D01*
X580772Y136902D01*
X580757Y137002D01*
X580752Y137102D01*
X580731Y137173D01*
X580720Y137247D01*
X580683Y137340D01*
X580655Y137437D01*
X580619Y137502D01*
X580591Y137571D01*
X580534Y137653D01*
X580485Y137741D01*
X580420Y137817D01*
X580393Y137857D01*
X580366Y137881D01*
X580327Y137927D01*
X577265Y140989D01*
X575563Y145097D01*
X575563Y149543D01*
X577265Y153651D01*
X580409Y156795D01*
X584517Y158497D01*
X588963Y158497D01*
X593071Y156795D01*
X596215Y153651D01*
X597917Y149543D01*
X597917Y145097D01*
X596215Y140989D01*
X593071Y137845D01*
X588963Y136143D01*
X585227Y136143D01*
X585127Y136132D01*
X585026Y136130D01*
X584954Y136112D01*
X584880Y136103D01*
X584786Y136070D01*
X584688Y136045D01*
X584622Y136011D01*
X584552Y135986D01*
X584468Y135931D01*
X584378Y135885D01*
X584322Y135837D01*
X584259Y135797D01*
X584190Y135725D01*
X584113Y135660D01*
X584069Y135600D01*
X584017Y135546D01*
X583966Y135460D01*
X583906Y135379D01*
X583876Y135311D01*
X583838Y135247D01*
X583808Y135152D01*
X583768Y135059D01*
X583755Y134986D01*
X583732Y134915D01*
X583724Y134815D01*
X583706Y134716D01*
X583710Y134642D01*
X583704Y134568D01*
X583719Y134469D01*
X583724Y134368D01*
X583745Y134297D01*
X583756Y134223D01*
X583793Y134130D01*
X583821Y134033D01*
X583857Y133968D01*
X583885Y133899D01*
X583942Y133817D01*
X583991Y133729D01*
X584056Y133653D01*
X584084Y133613D01*
X584110Y133589D01*
X584149Y133543D01*
X584449Y133243D01*
X623681Y94011D01*
X623780Y93932D01*
X623874Y93848D01*
X623917Y93824D01*
X623954Y93794D01*
X624069Y93740D01*
X624179Y93679D01*
X624226Y93666D01*
X624270Y93645D01*
X624393Y93619D01*
X624515Y93584D01*
X624576Y93579D01*
X624610Y93572D01*
X624658Y93573D01*
X624759Y93565D01*
X660383Y93565D01*
X673007Y80941D01*
X673106Y80862D01*
X673200Y80778D01*
X673242Y80754D01*
X673280Y80724D01*
X673394Y80670D01*
X673505Y80609D01*
X673552Y80596D01*
X673595Y80575D01*
X673719Y80549D01*
X673840Y80514D01*
X673901Y80509D01*
X673936Y80502D01*
X673984Y80503D01*
X674084Y80495D01*
X678116Y80495D01*
X678192Y80503D01*
X678268Y80502D01*
X678364Y80523D01*
X678462Y80535D01*
X678534Y80560D01*
X678609Y80577D01*
X678697Y80619D01*
X678790Y80652D01*
X678854Y80694D01*
X678923Y80726D01*
X679000Y80788D01*
X679083Y80841D01*
X679136Y80896D01*
X679196Y80944D01*
X679257Y81021D01*
X679325Y81092D01*
X679364Y81157D01*
X679412Y81217D01*
X679480Y81350D01*
X679504Y81391D01*
X679510Y81409D01*
X679523Y81435D01*
X679910Y82370D01*
X682230Y84689D01*
X685260Y85945D01*
X688540Y85945D01*
X691570Y84689D01*
X693889Y82370D01*
X695145Y79340D01*
X695145Y76060D01*
X693889Y73030D01*
X691570Y70711D01*
X688540Y69455D01*
X685260Y69455D01*
X682230Y70711D01*
X679910Y73030D01*
X679523Y73965D01*
X679486Y74031D01*
X679462Y74093D01*
X679461Y74093D01*
X679458Y74103D01*
X679402Y74183D01*
X679354Y74270D01*
X679302Y74326D01*
X679259Y74389D01*
X679186Y74455D01*
X679120Y74528D01*
X679057Y74571D01*
X679000Y74622D01*
X678914Y74670D01*
X678833Y74726D01*
X678762Y74754D01*
X678695Y74791D01*
X678600Y74818D01*
X678509Y74854D01*
X678433Y74865D01*
X678360Y74886D01*
X678211Y74898D01*
X678164Y74905D01*
X678145Y74903D01*
X678116Y74905D01*
X671138Y74905D01*
X669800Y76243D01*
X669682Y76337D01*
X669568Y76434D01*
X669546Y76445D01*
X669527Y76460D01*
X669391Y76524D01*
X669257Y76592D01*
X669234Y76598D01*
X669212Y76609D01*
X669065Y76640D01*
X668919Y76677D01*
X668895Y76677D01*
X668871Y76682D01*
X668722Y76679D01*
X668571Y76682D01*
X668547Y76676D01*
X668523Y76676D01*
X668377Y76639D01*
X668230Y76607D01*
X668208Y76597D01*
X668185Y76591D01*
X668051Y76522D01*
X667916Y76458D01*
X667897Y76442D01*
X667875Y76431D01*
X667761Y76334D01*
X667643Y76240D01*
X667628Y76221D01*
X667610Y76206D01*
X667520Y76084D01*
X667427Y75967D01*
X667414Y75941D01*
X667403Y75925D01*
X667384Y75882D01*
X667316Y75749D01*
X666190Y73030D01*
X663870Y70711D01*
X660840Y69455D01*
X657560Y69455D01*
X654530Y70711D01*
X652210Y73030D01*
X651823Y73965D01*
X651786Y74031D01*
X651762Y74093D01*
X651761Y74093D01*
X651758Y74103D01*
X651702Y74183D01*
X651654Y74270D01*
X651602Y74326D01*
X651559Y74389D01*
X651486Y74455D01*
X651420Y74528D01*
X651357Y74571D01*
X651300Y74622D01*
X651214Y74670D01*
X651133Y74726D01*
X651062Y74754D01*
X650995Y74791D01*
X650900Y74818D01*
X650809Y74854D01*
X650733Y74865D01*
X650660Y74886D01*
X650511Y74898D01*
X650464Y74905D01*
X650445Y74903D01*
X650416Y74905D01*
X643438Y74905D01*
X642100Y76243D01*
X641982Y76337D01*
X641868Y76434D01*
X641846Y76445D01*
X641827Y76460D01*
X641691Y76524D01*
X641557Y76592D01*
X641534Y76598D01*
X641512Y76609D01*
X641365Y76640D01*
X641219Y76677D01*
X641195Y76677D01*
X641171Y76682D01*
X641022Y76679D01*
X640871Y76682D01*
X640847Y76676D01*
X640823Y76676D01*
X640677Y76639D01*
X640530Y76607D01*
X640508Y76597D01*
X640485Y76591D01*
X640351Y76522D01*
X640216Y76458D01*
X640197Y76442D01*
X640175Y76431D01*
X640061Y76334D01*
X639943Y76240D01*
X639928Y76221D01*
X639910Y76206D01*
X639820Y76084D01*
X639727Y75967D01*
X639714Y75941D01*
X639703Y75925D01*
X639684Y75882D01*
X639616Y75749D01*
X638490Y73030D01*
X636170Y70711D01*
X633140Y69455D01*
X629860Y69455D01*
X626830Y70711D01*
X624510Y73030D01*
X624123Y73965D01*
X624086Y74031D01*
X624062Y74093D01*
X624061Y74093D01*
X624058Y74103D01*
X624002Y74183D01*
X623954Y74270D01*
X623902Y74326D01*
X623859Y74389D01*
X623786Y74455D01*
X623720Y74528D01*
X623657Y74571D01*
X623600Y74622D01*
X623514Y74670D01*
X623433Y74726D01*
X623362Y74754D01*
X623295Y74791D01*
X623200Y74818D01*
X623109Y74854D01*
X623033Y74865D01*
X622960Y74886D01*
X622811Y74898D01*
X622764Y74905D01*
X622745Y74903D01*
X622716Y74905D01*
X615738Y74905D01*
X614400Y76243D01*
X614282Y76337D01*
X614168Y76434D01*
X614146Y76445D01*
X614127Y76460D01*
X613991Y76524D01*
X613857Y76592D01*
X613834Y76598D01*
X613812Y76609D01*
X613665Y76640D01*
X613519Y76677D01*
X613495Y76677D01*
X613471Y76682D01*
X613322Y76679D01*
X613171Y76682D01*
X613147Y76676D01*
X613123Y76676D01*
X612977Y76639D01*
X612830Y76607D01*
X612808Y76597D01*
X612785Y76591D01*
X612651Y76522D01*
X612516Y76458D01*
X612497Y76442D01*
X612475Y76431D01*
X612361Y76334D01*
X612243Y76240D01*
X612228Y76221D01*
X612210Y76206D01*
X612120Y76084D01*
X612027Y75967D01*
X612014Y75941D01*
X612003Y75925D01*
X611984Y75882D01*
X611916Y75749D01*
X610790Y73030D01*
X608470Y70711D01*
X605440Y69455D01*
X602160Y69455D01*
X599130Y70711D01*
X596810Y73030D01*
X596423Y73965D01*
X596386Y74031D01*
X596362Y74093D01*
X596361Y74093D01*
X596358Y74103D01*
X596302Y74183D01*
X596254Y74270D01*
X596202Y74326D01*
X596159Y74389D01*
X596086Y74455D01*
X596020Y74528D01*
X595957Y74571D01*
X595900Y74622D01*
X595814Y74670D01*
X595733Y74726D01*
X595662Y74754D01*
X595595Y74791D01*
X595500Y74818D01*
X595409Y74854D01*
X595333Y74865D01*
X595260Y74886D01*
X595111Y74898D01*
X595064Y74905D01*
X595045Y74903D01*
X595016Y74905D01*
X588038Y74905D01*
X586700Y76243D01*
X586582Y76337D01*
X586468Y76434D01*
X586446Y76445D01*
X586427Y76460D01*
X586291Y76524D01*
X586157Y76592D01*
X586134Y76598D01*
X586112Y76609D01*
X585965Y76640D01*
X585819Y76677D01*
X585795Y76677D01*
X585771Y76682D01*
X585622Y76679D01*
X585471Y76682D01*
X585447Y76676D01*
X585423Y76676D01*
X585277Y76639D01*
X585130Y76607D01*
X585108Y76597D01*
X585085Y76591D01*
X584951Y76522D01*
X584816Y76458D01*
X584797Y76442D01*
X584775Y76431D01*
X584661Y76334D01*
X584543Y76240D01*
X584528Y76221D01*
X584510Y76206D01*
X584420Y76084D01*
X584327Y75967D01*
X584314Y75941D01*
X584303Y75925D01*
X584284Y75882D01*
X584216Y75749D01*
X583090Y73030D01*
X580770Y70711D01*
X577740Y69455D01*
X574460Y69455D01*
X571430Y70711D01*
X569110Y73030D01*
X568723Y73965D01*
X568686Y74031D01*
X568662Y74093D01*
X568661Y74093D01*
X568658Y74103D01*
X568602Y74183D01*
X568554Y74270D01*
X568502Y74326D01*
X568459Y74389D01*
X568386Y74455D01*
X568320Y74528D01*
X568257Y74571D01*
X568200Y74622D01*
X568114Y74670D01*
X568033Y74726D01*
X567962Y74754D01*
X567895Y74791D01*
X567800Y74818D01*
X567709Y74854D01*
X567633Y74865D01*
X567560Y74886D01*
X567411Y74898D01*
X567364Y74905D01*
X567345Y74903D01*
X567316Y74905D01*
X560338Y74905D01*
X559000Y76243D01*
X558882Y76337D01*
X558768Y76434D01*
X558746Y76445D01*
X558727Y76460D01*
X558591Y76524D01*
X558457Y76592D01*
X558434Y76598D01*
X558412Y76609D01*
X558265Y76640D01*
X558119Y76677D01*
X558095Y76677D01*
X558071Y76682D01*
X557922Y76679D01*
X557771Y76682D01*
X557747Y76676D01*
X557723Y76676D01*
X557577Y76639D01*
X557430Y76607D01*
X557408Y76597D01*
X557385Y76591D01*
X557251Y76522D01*
X557116Y76458D01*
X557097Y76442D01*
X557075Y76431D01*
X556961Y76334D01*
X556843Y76240D01*
X556828Y76221D01*
X556810Y76206D01*
X556720Y76084D01*
X556627Y75967D01*
X556614Y75941D01*
X556603Y75925D01*
X556584Y75882D01*
X556516Y75749D01*
X555390Y73030D01*
X553070Y70711D01*
X550040Y69455D01*
X546760Y69455D01*
X543730Y70711D01*
X541411Y73030D01*
X540155Y76060D01*
X540155Y79340D01*
X540543Y80275D01*
X540564Y80349D01*
X540594Y80419D01*
X540611Y80516D01*
X540638Y80610D01*
X540642Y80687D01*
X540656Y80762D01*
X540651Y80860D01*
X540655Y80958D01*
X540642Y81034D01*
X540638Y81110D01*
X540610Y81204D01*
X540593Y81301D01*
X540562Y81371D01*
X540541Y81445D01*
X540493Y81531D01*
X540454Y81621D01*
X540408Y81682D01*
X540371Y81749D01*
X540274Y81863D01*
X540246Y81901D01*
X540231Y81913D01*
X540212Y81935D01*
X511907Y110241D01*
X511808Y110320D01*
X511714Y110404D01*
X511671Y110428D01*
X511634Y110458D01*
X511519Y110512D01*
X511409Y110573D01*
X511362Y110586D01*
X511318Y110607D01*
X511195Y110633D01*
X511073Y110668D01*
X511012Y110673D01*
X510978Y110680D01*
X510930Y110679D01*
X510829Y110687D01*
X498460Y110687D01*
X498335Y110673D01*
X498209Y110666D01*
X498162Y110653D01*
X498114Y110647D01*
X497995Y110605D01*
X497874Y110570D01*
X497831Y110546D01*
X497786Y110530D01*
X497680Y110461D01*
X497570Y110400D01*
X497523Y110360D01*
X497493Y110341D01*
X497460Y110306D01*
X497383Y110241D01*
X497030Y109888D01*
X497014Y109868D01*
X496994Y109851D01*
X496906Y109731D01*
X496814Y109615D01*
X496802Y109591D01*
X496787Y109570D01*
X496728Y109434D01*
X496665Y109300D01*
X496659Y109274D01*
X496649Y109250D01*
X496622Y109104D01*
X496591Y108959D01*
X496592Y108933D01*
X496587Y108907D01*
X496595Y108759D01*
X496597Y108611D01*
X496604Y108585D01*
X496605Y108559D01*
X496646Y108417D01*
X496682Y108273D01*
X496694Y108250D01*
X496702Y108224D01*
X496774Y108095D01*
X496842Y107963D01*
X496859Y107943D01*
X496872Y107920D01*
X497030Y107734D01*
X497474Y107290D01*
X498321Y105246D01*
X498321Y104663D01*
X498335Y104537D01*
X498342Y104411D01*
X498355Y104364D01*
X498361Y104316D01*
X498403Y104197D01*
X498438Y104076D01*
X498462Y104034D01*
X498478Y103988D01*
X498547Y103882D01*
X498608Y103772D01*
X498648Y103726D01*
X498667Y103695D01*
X498702Y103662D01*
X498767Y103585D01*
X516465Y85888D01*
X516525Y85840D01*
X516578Y85785D01*
X516661Y85732D01*
X516738Y85671D01*
X516807Y85638D01*
X516871Y85597D01*
X516964Y85564D01*
X517053Y85522D01*
X517128Y85506D01*
X517200Y85480D01*
X517298Y85469D01*
X517394Y85449D01*
X517470Y85450D01*
X517546Y85441D01*
X517644Y85453D01*
X517742Y85455D01*
X517816Y85473D01*
X517892Y85482D01*
X518034Y85528D01*
X518080Y85540D01*
X518097Y85548D01*
X518125Y85557D01*
X519060Y85945D01*
X522340Y85945D01*
X525370Y84689D01*
X527689Y82370D01*
X528945Y79340D01*
X528945Y76060D01*
X527689Y73030D01*
X525370Y70711D01*
X522340Y69455D01*
X519060Y69455D01*
G37*
%LPD*%
%LPC*%
G36*
X70615Y313181D02*
X70615Y313181D01*
X59827Y316072D01*
X50154Y321657D01*
X42257Y329554D01*
X36672Y339227D01*
X33781Y350015D01*
X33781Y361185D01*
X36672Y371973D01*
X42257Y381646D01*
X50154Y389543D01*
X59827Y395128D01*
X70615Y398019D01*
X81785Y398019D01*
X92573Y395128D01*
X102246Y389543D01*
X110143Y381646D01*
X115728Y371973D01*
X118619Y361185D01*
X118619Y350015D01*
X115728Y339227D01*
X110143Y329554D01*
X102246Y321657D01*
X92573Y316072D01*
X81785Y313181D01*
X70615Y313181D01*
G37*
%LPD*%
%LPC*%
G36*
X70615Y440181D02*
X70615Y440181D01*
X59827Y443072D01*
X50154Y448657D01*
X42257Y456554D01*
X36672Y466227D01*
X33781Y477015D01*
X33781Y488185D01*
X36672Y498973D01*
X42257Y508646D01*
X50154Y516543D01*
X59827Y522128D01*
X70615Y525019D01*
X81785Y525019D01*
X92573Y522128D01*
X102246Y516543D01*
X110143Y508646D01*
X115728Y498973D01*
X118619Y488185D01*
X118619Y477015D01*
X115728Y466227D01*
X110143Y456554D01*
X102246Y448657D01*
X92573Y443072D01*
X81785Y440181D01*
X70615Y440181D01*
G37*
%LPD*%
%LPC*%
G36*
X70615Y186181D02*
X70615Y186181D01*
X59827Y189072D01*
X50154Y194657D01*
X42257Y202554D01*
X36672Y212227D01*
X33781Y223015D01*
X33781Y234185D01*
X36672Y244973D01*
X42257Y254646D01*
X50154Y262543D01*
X59827Y268128D01*
X70615Y271019D01*
X81785Y271019D01*
X92573Y268128D01*
X102246Y262543D01*
X110143Y254646D01*
X115728Y244973D01*
X118619Y234185D01*
X118619Y223015D01*
X115728Y212227D01*
X110143Y202554D01*
X102246Y194657D01*
X92573Y189072D01*
X81785Y186181D01*
X70615Y186181D01*
G37*
%LPD*%
%LPC*%
G36*
X311310Y41055D02*
X311310Y41055D01*
X308280Y42311D01*
X305961Y44630D01*
X304705Y47660D01*
X304705Y50940D01*
X305961Y53970D01*
X308280Y56290D01*
X308979Y56579D01*
X309111Y56652D01*
X309244Y56721D01*
X309263Y56737D01*
X309284Y56749D01*
X309395Y56850D01*
X309510Y56947D01*
X309524Y56966D01*
X309542Y56983D01*
X309627Y57106D01*
X309717Y57227D01*
X309726Y57250D01*
X309740Y57269D01*
X309795Y57409D01*
X309855Y57547D01*
X309859Y57571D01*
X309868Y57594D01*
X309890Y57742D01*
X309917Y57890D01*
X309915Y57914D01*
X309919Y57938D01*
X309906Y58089D01*
X309899Y58238D01*
X309892Y58262D01*
X309890Y58286D01*
X309844Y58429D01*
X309802Y58573D01*
X309790Y58594D01*
X309783Y58617D01*
X309705Y58746D01*
X309632Y58877D01*
X309613Y58900D01*
X309603Y58916D01*
X309570Y58950D01*
X309473Y59064D01*
X299528Y69009D01*
X299429Y69088D01*
X299335Y69172D01*
X299293Y69196D01*
X299255Y69226D01*
X299141Y69280D01*
X299030Y69341D01*
X298984Y69354D01*
X298940Y69375D01*
X298817Y69401D01*
X298695Y69436D01*
X298634Y69441D01*
X298599Y69448D01*
X298551Y69447D01*
X298451Y69455D01*
X297460Y69455D01*
X294430Y70711D01*
X292111Y73030D01*
X290855Y76060D01*
X290855Y79340D01*
X292111Y82370D01*
X294430Y84689D01*
X297460Y85945D01*
X300740Y85945D01*
X303770Y84689D01*
X306089Y82370D01*
X307345Y79340D01*
X307345Y78349D01*
X307359Y78224D01*
X307366Y78097D01*
X307379Y78051D01*
X307385Y78003D01*
X307427Y77884D01*
X307462Y77762D01*
X307486Y77720D01*
X307502Y77675D01*
X307571Y77569D01*
X307632Y77458D01*
X307672Y77412D01*
X307691Y77382D01*
X307726Y77348D01*
X307791Y77272D01*
X317166Y67897D01*
X317265Y67818D01*
X317359Y67734D01*
X317401Y67710D01*
X317439Y67680D01*
X317553Y67626D01*
X317664Y67565D01*
X317710Y67552D01*
X317754Y67531D01*
X317877Y67505D01*
X317999Y67470D01*
X318060Y67465D01*
X318095Y67458D01*
X318143Y67459D01*
X318243Y67451D01*
X320896Y67451D01*
X320941Y67456D01*
X320986Y67453D01*
X321113Y67476D01*
X321242Y67491D01*
X321285Y67506D01*
X321330Y67514D01*
X321448Y67565D01*
X321570Y67608D01*
X321608Y67633D01*
X321650Y67651D01*
X321754Y67727D01*
X321863Y67797D01*
X321894Y67830D01*
X321931Y67857D01*
X322015Y67955D01*
X322105Y68048D01*
X322128Y68087D01*
X322158Y68121D01*
X322218Y68236D01*
X322284Y68347D01*
X322298Y68390D01*
X322319Y68431D01*
X322351Y68556D01*
X322390Y68679D01*
X322394Y68724D01*
X322405Y68768D01*
X322408Y68898D01*
X322418Y69026D01*
X322411Y69071D01*
X322412Y69117D01*
X322386Y69243D01*
X322366Y69371D01*
X322349Y69413D01*
X322340Y69458D01*
X322285Y69575D01*
X322238Y69695D01*
X322212Y69732D01*
X322192Y69773D01*
X322112Y69875D01*
X322039Y69981D01*
X322005Y70011D01*
X321977Y70047D01*
X321791Y70206D01*
X320932Y70830D01*
X319930Y71832D01*
X319097Y72980D01*
X318453Y74243D01*
X318215Y74976D01*
X325599Y74976D01*
X325625Y74979D01*
X325651Y74977D01*
X325798Y74999D01*
X325945Y75016D01*
X325970Y75024D01*
X325996Y75028D01*
X326133Y75083D01*
X326273Y75133D01*
X326295Y75147D01*
X326320Y75157D01*
X326441Y75242D01*
X326566Y75322D01*
X326584Y75341D01*
X326606Y75356D01*
X326705Y75466D01*
X326802Y75566D01*
X326824Y75532D01*
X326843Y75514D01*
X326858Y75492D01*
X326968Y75393D01*
X327075Y75290D01*
X327098Y75276D01*
X327117Y75259D01*
X327247Y75187D01*
X327374Y75111D01*
X327399Y75103D01*
X327422Y75090D01*
X327565Y75050D01*
X327706Y75005D01*
X327732Y75002D01*
X327757Y74995D01*
X328001Y74976D01*
X335385Y74976D01*
X335147Y74243D01*
X334503Y72980D01*
X333670Y71832D01*
X332668Y70830D01*
X331809Y70206D01*
X331776Y70176D01*
X331737Y70151D01*
X331647Y70058D01*
X331552Y69971D01*
X331527Y69933D01*
X331495Y69900D01*
X331429Y69789D01*
X331356Y69683D01*
X331339Y69640D01*
X331316Y69601D01*
X331277Y69478D01*
X331230Y69358D01*
X331224Y69312D01*
X331210Y69269D01*
X331200Y69140D01*
X331182Y69013D01*
X331186Y68967D01*
X331182Y68922D01*
X331201Y68794D01*
X331213Y68665D01*
X331227Y68622D01*
X331234Y68577D01*
X331281Y68457D01*
X331322Y68334D01*
X331346Y68296D01*
X331362Y68253D01*
X331436Y68147D01*
X331503Y68037D01*
X331535Y68004D01*
X331561Y67967D01*
X331657Y67881D01*
X331748Y67789D01*
X331786Y67764D01*
X331820Y67734D01*
X331933Y67671D01*
X332042Y67602D01*
X332085Y67587D01*
X332125Y67565D01*
X332249Y67530D01*
X332371Y67488D01*
X332417Y67483D01*
X332461Y67470D01*
X332704Y67451D01*
X350042Y67451D01*
X350092Y67456D01*
X350142Y67454D01*
X350264Y67476D01*
X350388Y67491D01*
X350435Y67508D01*
X350485Y67517D01*
X350599Y67566D01*
X350716Y67608D01*
X350758Y67635D01*
X350804Y67656D01*
X350904Y67730D01*
X351009Y67797D01*
X351044Y67833D01*
X351084Y67863D01*
X351164Y67958D01*
X351251Y68048D01*
X351277Y68091D01*
X351309Y68129D01*
X351366Y68240D01*
X351430Y68347D01*
X351445Y68395D01*
X351468Y68440D01*
X351498Y68560D01*
X351536Y68679D01*
X351540Y68729D01*
X351552Y68778D01*
X351554Y68902D01*
X351564Y69026D01*
X351556Y69076D01*
X351557Y69126D01*
X351531Y69248D01*
X351512Y69371D01*
X351494Y69418D01*
X351483Y69467D01*
X351429Y69579D01*
X351383Y69695D01*
X351355Y69736D01*
X351333Y69782D01*
X351255Y69879D01*
X351185Y69981D01*
X351147Y70014D01*
X351116Y70054D01*
X351018Y70131D01*
X350926Y70214D01*
X350882Y70239D01*
X350842Y70270D01*
X350624Y70381D01*
X349830Y70710D01*
X347511Y73030D01*
X346255Y76060D01*
X346255Y79340D01*
X347511Y82370D01*
X349830Y84689D01*
X352860Y85945D01*
X356140Y85945D01*
X356567Y85768D01*
X356641Y85747D01*
X356711Y85717D01*
X356808Y85699D01*
X356902Y85672D01*
X356979Y85668D01*
X357054Y85655D01*
X357152Y85660D01*
X357250Y85655D01*
X357326Y85669D01*
X357402Y85673D01*
X357496Y85700D01*
X357593Y85718D01*
X357663Y85748D01*
X357737Y85769D01*
X357823Y85817D01*
X357913Y85857D01*
X357974Y85902D01*
X358041Y85939D01*
X358155Y86036D01*
X358193Y86064D01*
X358205Y86079D01*
X358227Y86098D01*
X381858Y109729D01*
X444787Y109729D01*
X444913Y109743D01*
X445039Y109750D01*
X445085Y109763D01*
X445133Y109769D01*
X445252Y109811D01*
X445374Y109846D01*
X445416Y109870D01*
X445461Y109886D01*
X445568Y109955D01*
X445678Y110016D01*
X445724Y110056D01*
X445754Y110075D01*
X445788Y110110D01*
X445864Y110175D01*
X458531Y122842D01*
X458610Y122941D01*
X458694Y123035D01*
X458718Y123077D01*
X458748Y123115D01*
X458802Y123229D01*
X458863Y123340D01*
X458876Y123386D01*
X458897Y123430D01*
X458923Y123553D01*
X458958Y123675D01*
X458963Y123736D01*
X458970Y123771D01*
X458969Y123819D01*
X458977Y123919D01*
X458977Y171007D01*
X476439Y188469D01*
X546387Y188469D01*
X546513Y188483D01*
X546639Y188490D01*
X546685Y188503D01*
X546733Y188509D01*
X546852Y188551D01*
X546974Y188586D01*
X547016Y188610D01*
X547061Y188626D01*
X547168Y188695D01*
X547278Y188756D01*
X547324Y188796D01*
X547354Y188815D01*
X547388Y188850D01*
X547464Y188915D01*
X557873Y199324D01*
X557952Y199423D01*
X558036Y199517D01*
X558060Y199559D01*
X558090Y199597D01*
X558144Y199711D01*
X558205Y199822D01*
X558218Y199868D01*
X558239Y199912D01*
X558265Y200035D01*
X558300Y200157D01*
X558305Y200218D01*
X558312Y200253D01*
X558311Y200301D01*
X558319Y200401D01*
X558319Y201766D01*
X559166Y203810D01*
X560730Y205374D01*
X562774Y206221D01*
X564986Y206221D01*
X567030Y205374D01*
X568594Y203810D01*
X569441Y201766D01*
X569441Y199554D01*
X568594Y197510D01*
X567030Y195946D01*
X564986Y195099D01*
X563621Y195099D01*
X563495Y195085D01*
X563369Y195078D01*
X563323Y195065D01*
X563275Y195059D01*
X563156Y195017D01*
X563034Y194982D01*
X562992Y194958D01*
X562947Y194942D01*
X562840Y194873D01*
X562730Y194812D01*
X562684Y194772D01*
X562654Y194753D01*
X562620Y194718D01*
X562544Y194653D01*
X552135Y184244D01*
X549754Y181863D01*
X545958Y181863D01*
X545858Y181852D01*
X545758Y181850D01*
X545686Y181832D01*
X545612Y181823D01*
X545517Y181789D01*
X545420Y181765D01*
X545354Y181731D01*
X545284Y181706D01*
X545199Y181651D01*
X545110Y181605D01*
X545054Y181557D01*
X544991Y181517D01*
X544921Y181445D01*
X544845Y181380D01*
X544801Y181320D01*
X544749Y181266D01*
X544697Y181180D01*
X544638Y181099D01*
X544608Y181031D01*
X544570Y180967D01*
X544539Y180871D01*
X544500Y180779D01*
X544487Y180706D01*
X544464Y180635D01*
X544456Y180535D01*
X544438Y180436D01*
X544442Y180362D01*
X544436Y180288D01*
X544451Y180188D01*
X544456Y180088D01*
X544477Y180017D01*
X544488Y179943D01*
X544525Y179850D01*
X544553Y179753D01*
X544589Y179688D01*
X544616Y179619D01*
X544674Y179537D01*
X544723Y179449D01*
X544788Y179373D01*
X544815Y179333D01*
X544842Y179309D01*
X544881Y179263D01*
X545734Y178410D01*
X546581Y176366D01*
X546581Y174154D01*
X545734Y172110D01*
X544170Y170546D01*
X542126Y169699D01*
X539914Y169699D01*
X537870Y170546D01*
X536306Y172110D01*
X535459Y174154D01*
X535459Y175514D01*
X535456Y175540D01*
X535458Y175566D01*
X535436Y175713D01*
X535419Y175860D01*
X535411Y175885D01*
X535407Y175911D01*
X535352Y176049D01*
X535302Y176188D01*
X535288Y176210D01*
X535278Y176235D01*
X535194Y176356D01*
X535113Y176481D01*
X535094Y176499D01*
X535079Y176521D01*
X534969Y176620D01*
X534862Y176723D01*
X534840Y176737D01*
X534820Y176754D01*
X534690Y176826D01*
X534563Y176902D01*
X534538Y176910D01*
X534515Y176923D01*
X534372Y176963D01*
X534231Y177008D01*
X534205Y177010D01*
X534180Y177018D01*
X533936Y177037D01*
X481805Y177037D01*
X481679Y177023D01*
X481553Y177016D01*
X481507Y177003D01*
X481459Y176997D01*
X481340Y176955D01*
X481218Y176920D01*
X481176Y176896D01*
X481131Y176880D01*
X481024Y176811D01*
X480914Y176750D01*
X480868Y176710D01*
X480838Y176691D01*
X480804Y176656D01*
X480728Y176591D01*
X470855Y166718D01*
X470776Y166619D01*
X470692Y166525D01*
X470668Y166483D01*
X470638Y166445D01*
X470584Y166331D01*
X470523Y166220D01*
X470510Y166174D01*
X470489Y166130D01*
X470463Y166007D01*
X470428Y165885D01*
X470423Y165824D01*
X470416Y165789D01*
X470417Y165741D01*
X470409Y165641D01*
X470409Y118553D01*
X450153Y98297D01*
X408099Y98297D01*
X407973Y98283D01*
X407847Y98276D01*
X407801Y98263D01*
X407753Y98257D01*
X407634Y98215D01*
X407512Y98180D01*
X407470Y98156D01*
X407425Y98140D01*
X407318Y98071D01*
X407208Y98010D01*
X407162Y97970D01*
X407132Y97951D01*
X407098Y97916D01*
X407022Y97851D01*
X390598Y81427D01*
X390551Y81367D01*
X390496Y81314D01*
X390442Y81231D01*
X390381Y81154D01*
X390349Y81085D01*
X390307Y81021D01*
X390274Y80928D01*
X390232Y80839D01*
X390216Y80764D01*
X390191Y80692D01*
X390180Y80594D01*
X390159Y80498D01*
X390160Y80422D01*
X390152Y80346D01*
X390163Y80248D01*
X390165Y80150D01*
X390184Y80076D01*
X390193Y80000D01*
X390238Y79858D01*
X390250Y79812D01*
X390259Y79795D01*
X390268Y79767D01*
X390445Y79340D01*
X390445Y76060D01*
X389189Y73030D01*
X386870Y70711D01*
X383840Y69455D01*
X380560Y69455D01*
X377530Y70711D01*
X375211Y73030D01*
X373955Y76060D01*
X373955Y79340D01*
X375211Y82370D01*
X377530Y84689D01*
X380560Y85945D01*
X383840Y85945D01*
X384267Y85768D01*
X384341Y85747D01*
X384411Y85717D01*
X384508Y85699D01*
X384602Y85672D01*
X384679Y85668D01*
X384754Y85655D01*
X384852Y85660D01*
X384950Y85655D01*
X385026Y85669D01*
X385102Y85673D01*
X385196Y85700D01*
X385293Y85718D01*
X385363Y85748D01*
X385437Y85769D01*
X385523Y85817D01*
X385613Y85857D01*
X385674Y85902D01*
X385741Y85939D01*
X385855Y86036D01*
X385893Y86064D01*
X385905Y86079D01*
X385927Y86098D01*
X400352Y100523D01*
X400415Y100601D01*
X400484Y100674D01*
X400523Y100738D01*
X400569Y100796D01*
X400612Y100887D01*
X400663Y100973D01*
X400686Y101044D01*
X400718Y101111D01*
X400739Y101209D01*
X400769Y101305D01*
X400775Y101379D01*
X400791Y101452D01*
X400789Y101552D01*
X400797Y101652D01*
X400786Y101726D01*
X400785Y101800D01*
X400761Y101897D01*
X400746Y101997D01*
X400718Y102066D01*
X400700Y102138D01*
X400654Y102228D01*
X400617Y102321D01*
X400575Y102382D01*
X400540Y102448D01*
X400475Y102525D01*
X400418Y102607D01*
X400363Y102657D01*
X400315Y102713D01*
X400234Y102773D01*
X400159Y102840D01*
X400094Y102876D01*
X400034Y102921D01*
X399942Y102960D01*
X399854Y103009D01*
X399783Y103029D01*
X399714Y103059D01*
X399616Y103076D01*
X399519Y103104D01*
X399419Y103112D01*
X399371Y103120D01*
X399336Y103118D01*
X399275Y103123D01*
X385225Y103123D01*
X385099Y103109D01*
X384973Y103102D01*
X384927Y103089D01*
X384879Y103083D01*
X384760Y103041D01*
X384638Y103006D01*
X384596Y102982D01*
X384551Y102966D01*
X384444Y102897D01*
X384334Y102836D01*
X384288Y102796D01*
X384258Y102777D01*
X384224Y102742D01*
X384148Y102677D01*
X362898Y81427D01*
X362851Y81367D01*
X362796Y81314D01*
X362742Y81231D01*
X362681Y81154D01*
X362649Y81085D01*
X362607Y81021D01*
X362574Y80928D01*
X362532Y80839D01*
X362516Y80764D01*
X362491Y80692D01*
X362480Y80594D01*
X362459Y80498D01*
X362460Y80422D01*
X362452Y80346D01*
X362463Y80248D01*
X362465Y80150D01*
X362484Y80076D01*
X362493Y80000D01*
X362538Y79858D01*
X362550Y79812D01*
X362559Y79795D01*
X362568Y79767D01*
X362745Y79340D01*
X362745Y76060D01*
X361489Y73030D01*
X359170Y70710D01*
X357650Y70081D01*
X357562Y70032D01*
X357470Y69992D01*
X357410Y69948D01*
X357345Y69911D01*
X357271Y69844D01*
X357190Y69784D01*
X357142Y69727D01*
X357087Y69677D01*
X357030Y69595D01*
X356965Y69518D01*
X356931Y69452D01*
X356889Y69391D01*
X356852Y69297D01*
X356806Y69208D01*
X356788Y69136D01*
X356761Y69066D01*
X356746Y68967D01*
X356722Y68870D01*
X356721Y68795D01*
X356710Y68722D01*
X356719Y68621D01*
X356717Y68521D01*
X356733Y68448D01*
X356739Y68374D01*
X356770Y68279D01*
X356792Y68181D01*
X356823Y68113D01*
X356846Y68043D01*
X356898Y67957D01*
X356941Y67866D01*
X356988Y67808D01*
X357026Y67744D01*
X357096Y67672D01*
X357159Y67593D01*
X357217Y67547D01*
X357269Y67494D01*
X357353Y67440D01*
X357432Y67378D01*
X357522Y67332D01*
X357562Y67306D01*
X357596Y67294D01*
X357650Y67266D01*
X359352Y66561D01*
X367922Y57991D01*
X368021Y57912D01*
X368115Y57828D01*
X368157Y57804D01*
X368195Y57774D01*
X368309Y57720D01*
X368420Y57659D01*
X368466Y57646D01*
X368510Y57625D01*
X368633Y57599D01*
X368755Y57564D01*
X368816Y57559D01*
X368851Y57552D01*
X368899Y57553D01*
X368999Y57545D01*
X369990Y57545D01*
X373020Y56289D01*
X375339Y53970D01*
X376595Y50940D01*
X376595Y47660D01*
X375339Y44630D01*
X373020Y42311D01*
X369990Y41055D01*
X366710Y41055D01*
X363680Y42311D01*
X361361Y44630D01*
X360105Y47660D01*
X360105Y48651D01*
X360091Y48776D01*
X360084Y48903D01*
X360071Y48949D01*
X360065Y48997D01*
X360023Y49116D01*
X359988Y49238D01*
X359964Y49280D01*
X359948Y49325D01*
X359879Y49431D01*
X359818Y49542D01*
X359778Y49588D01*
X359759Y49618D01*
X359724Y49652D01*
X359659Y49728D01*
X354068Y55319D01*
X353969Y55398D01*
X353875Y55482D01*
X353833Y55506D01*
X353795Y55536D01*
X353681Y55590D01*
X353570Y55651D01*
X353524Y55664D01*
X353480Y55685D01*
X353357Y55711D01*
X353235Y55746D01*
X353174Y55751D01*
X353139Y55758D01*
X353091Y55757D01*
X352991Y55765D01*
X349950Y55765D01*
X349914Y55761D01*
X349879Y55764D01*
X349742Y55741D01*
X349604Y55725D01*
X349570Y55713D01*
X349535Y55708D01*
X349406Y55655D01*
X349276Y55608D01*
X349245Y55588D01*
X349212Y55575D01*
X349099Y55494D01*
X348983Y55419D01*
X348958Y55393D01*
X348929Y55372D01*
X348837Y55268D01*
X348741Y55168D01*
X348722Y55137D01*
X348699Y55110D01*
X348633Y54988D01*
X348562Y54869D01*
X348551Y54835D01*
X348534Y54803D01*
X348498Y54669D01*
X348456Y54537D01*
X348453Y54501D01*
X348443Y54467D01*
X348439Y54328D01*
X348428Y54190D01*
X348433Y54154D01*
X348432Y54118D01*
X348459Y53983D01*
X348479Y53845D01*
X348493Y53812D01*
X348500Y53777D01*
X348593Y53550D01*
X348997Y52757D01*
X349235Y52024D01*
X341851Y52024D01*
X341825Y52021D01*
X341799Y52023D01*
X341652Y52001D01*
X341505Y51984D01*
X341480Y51976D01*
X341454Y51972D01*
X341317Y51917D01*
X341177Y51867D01*
X341155Y51853D01*
X341130Y51843D01*
X341009Y51758D01*
X340884Y51678D01*
X340866Y51659D01*
X340844Y51644D01*
X340745Y51534D01*
X340648Y51434D01*
X340626Y51468D01*
X340607Y51486D01*
X340592Y51508D01*
X340482Y51607D01*
X340375Y51710D01*
X340352Y51724D01*
X340333Y51741D01*
X340203Y51813D01*
X340076Y51889D01*
X340051Y51897D01*
X340028Y51910D01*
X339885Y51950D01*
X339744Y51995D01*
X339718Y51997D01*
X339693Y52005D01*
X339449Y52024D01*
X332065Y52024D01*
X332303Y52757D01*
X332707Y53550D01*
X332720Y53584D01*
X332738Y53615D01*
X332780Y53747D01*
X332829Y53877D01*
X332833Y53913D01*
X332844Y53947D01*
X332856Y54085D01*
X332873Y54223D01*
X332869Y54258D01*
X332872Y54294D01*
X332852Y54431D01*
X332838Y54569D01*
X332826Y54603D01*
X332821Y54639D01*
X332769Y54768D01*
X332724Y54899D01*
X332705Y54929D01*
X332692Y54963D01*
X332613Y55076D01*
X332539Y55194D01*
X332513Y55220D01*
X332493Y55249D01*
X332390Y55342D01*
X332291Y55439D01*
X332261Y55458D01*
X332234Y55482D01*
X332113Y55550D01*
X331995Y55622D01*
X331961Y55634D01*
X331929Y55651D01*
X331796Y55689D01*
X331664Y55733D01*
X331628Y55736D01*
X331594Y55746D01*
X331350Y55765D01*
X321476Y55765D01*
X321327Y55748D01*
X321177Y55736D01*
X321153Y55728D01*
X321130Y55725D01*
X320988Y55675D01*
X320845Y55629D01*
X320824Y55616D01*
X320801Y55608D01*
X320675Y55526D01*
X320546Y55449D01*
X320529Y55432D01*
X320509Y55419D01*
X320404Y55310D01*
X320296Y55206D01*
X320283Y55186D01*
X320266Y55168D01*
X320189Y55039D01*
X320108Y54913D01*
X320100Y54890D01*
X320088Y54869D01*
X320042Y54726D01*
X319991Y54584D01*
X319989Y54560D01*
X319981Y54537D01*
X319969Y54388D01*
X319952Y54238D01*
X319955Y54214D01*
X319953Y54190D01*
X319976Y54041D01*
X319993Y53892D01*
X320002Y53864D01*
X320005Y53845D01*
X320023Y53801D01*
X320068Y53659D01*
X321195Y50940D01*
X321195Y47660D01*
X319939Y44630D01*
X317620Y42311D01*
X314590Y41055D01*
X311310Y41055D01*
G37*
%LPD*%
%LPC*%
G36*
X149379Y199999D02*
X149379Y199999D01*
X143796Y202311D01*
X139523Y206584D01*
X137210Y212167D01*
X137210Y245033D01*
X139523Y250616D01*
X143796Y254889D01*
X149379Y257201D01*
X155421Y257201D01*
X161004Y254889D01*
X165277Y250616D01*
X167590Y245033D01*
X167590Y212167D01*
X165277Y206584D01*
X161004Y202311D01*
X155421Y199999D01*
X149379Y199999D01*
G37*
%LPD*%
%LPC*%
G36*
X79247Y612647D02*
X79247Y612647D01*
X79247Y652679D01*
X81842Y652452D01*
X85555Y651797D01*
X89197Y650821D01*
X92740Y649532D01*
X96157Y647938D01*
X99423Y646053D01*
X102512Y643890D01*
X105400Y641466D01*
X108066Y638800D01*
X110490Y635912D01*
X112653Y632823D01*
X114538Y629557D01*
X116132Y626140D01*
X117421Y622597D01*
X118397Y618955D01*
X119052Y615242D01*
X119279Y612647D01*
X79247Y612647D01*
G37*
%LPD*%
%LPC*%
G36*
X33121Y612647D02*
X33121Y612647D01*
X33348Y615242D01*
X34003Y618955D01*
X34979Y622597D01*
X36268Y626140D01*
X37862Y629557D01*
X39747Y632823D01*
X41910Y635912D01*
X44334Y638800D01*
X47000Y641466D01*
X49888Y643890D01*
X52977Y646053D01*
X56243Y647938D01*
X59660Y649532D01*
X63203Y650821D01*
X66845Y651797D01*
X70558Y652452D01*
X73153Y652679D01*
X73153Y612647D01*
X33121Y612647D01*
G37*
%LPD*%
%LPC*%
G36*
X79247Y606553D02*
X79247Y606553D01*
X119279Y606553D01*
X119052Y603958D01*
X118397Y600245D01*
X117421Y596603D01*
X116132Y593060D01*
X114538Y589643D01*
X112653Y586377D01*
X110490Y583288D01*
X108066Y580400D01*
X105400Y577734D01*
X102512Y575310D01*
X99423Y573147D01*
X96157Y571262D01*
X92740Y569668D01*
X89197Y568379D01*
X85555Y567403D01*
X81842Y566748D01*
X79247Y566521D01*
X79247Y606553D01*
G37*
%LPD*%
%LPC*%
G36*
X70558Y566748D02*
X70558Y566748D01*
X66845Y567403D01*
X63203Y568379D01*
X59660Y569668D01*
X56243Y571262D01*
X52977Y573147D01*
X49888Y575310D01*
X47000Y577734D01*
X44334Y580400D01*
X41910Y583288D01*
X39747Y586377D01*
X37862Y589643D01*
X36268Y593060D01*
X34979Y596603D01*
X34003Y600245D01*
X33348Y603958D01*
X33121Y606553D01*
X73153Y606553D01*
X73153Y566521D01*
X70558Y566748D01*
G37*
%LPD*%
%LPC*%
G36*
X949360Y268305D02*
X949360Y268305D01*
X946330Y269561D01*
X944011Y271880D01*
X942755Y274910D01*
X942755Y278190D01*
X942932Y278617D01*
X942953Y278691D01*
X942983Y278761D01*
X943001Y278858D01*
X943028Y278952D01*
X943032Y279028D01*
X943045Y279104D01*
X943040Y279202D01*
X943045Y279300D01*
X943031Y279376D01*
X943027Y279452D01*
X943000Y279546D01*
X942982Y279643D01*
X942952Y279713D01*
X942931Y279787D01*
X942883Y279873D01*
X942843Y279963D01*
X942798Y280024D01*
X942761Y280091D01*
X942664Y280205D01*
X942636Y280243D01*
X942621Y280255D01*
X942602Y280277D01*
X929448Y293431D01*
X929349Y293510D01*
X929255Y293594D01*
X929213Y293618D01*
X929175Y293648D01*
X929061Y293702D01*
X928950Y293763D01*
X928904Y293776D01*
X928860Y293797D01*
X928737Y293823D01*
X928615Y293858D01*
X928554Y293863D01*
X928519Y293870D01*
X928471Y293869D01*
X928371Y293877D01*
X904557Y293877D01*
X904482Y293869D01*
X904405Y293870D01*
X904309Y293849D01*
X904211Y293837D01*
X904139Y293812D01*
X904065Y293795D01*
X903976Y293753D01*
X903883Y293720D01*
X903819Y293678D01*
X903750Y293646D01*
X903673Y293584D01*
X903590Y293531D01*
X903537Y293476D01*
X903477Y293428D01*
X903416Y293351D01*
X903348Y293280D01*
X903309Y293215D01*
X903261Y293155D01*
X903193Y293022D01*
X903169Y292981D01*
X903163Y292963D01*
X903150Y292937D01*
X902285Y290849D01*
X899141Y287705D01*
X895611Y286243D01*
X895471Y286165D01*
X895330Y286090D01*
X895319Y286080D01*
X895306Y286073D01*
X895188Y285966D01*
X895067Y285861D01*
X895059Y285849D01*
X895048Y285839D01*
X894957Y285708D01*
X894864Y285578D01*
X894858Y285564D01*
X894850Y285552D01*
X894791Y285404D01*
X894730Y285256D01*
X894727Y285242D01*
X894722Y285228D01*
X894699Y285070D01*
X894673Y284912D01*
X894673Y284898D01*
X894671Y284883D01*
X894685Y284724D01*
X894695Y284565D01*
X894699Y284551D01*
X894700Y284536D01*
X894749Y284384D01*
X894796Y284231D01*
X894803Y284218D01*
X894807Y284204D01*
X894890Y284067D01*
X894970Y283929D01*
X894979Y283918D01*
X894987Y283906D01*
X895099Y283791D01*
X895208Y283674D01*
X895220Y283666D01*
X895230Y283656D01*
X895365Y283569D01*
X895497Y283481D01*
X895513Y283474D01*
X895523Y283468D01*
X895559Y283455D01*
X895723Y283387D01*
X897393Y282844D01*
X899067Y281991D01*
X900588Y280886D01*
X901916Y279558D01*
X903021Y278037D01*
X903874Y276363D01*
X904455Y274576D01*
X904495Y274319D01*
X893826Y274319D01*
X893800Y274316D01*
X893774Y274318D01*
X893627Y274296D01*
X893480Y274279D01*
X893455Y274271D01*
X893429Y274267D01*
X893292Y274212D01*
X893152Y274162D01*
X893130Y274148D01*
X893105Y274138D01*
X892984Y274053D01*
X892859Y273973D01*
X892841Y273954D01*
X892819Y273939D01*
X892805Y273923D01*
X892720Y274005D01*
X892697Y274019D01*
X892678Y274036D01*
X892548Y274108D01*
X892421Y274184D01*
X892396Y274192D01*
X892373Y274205D01*
X892230Y274245D01*
X892089Y274290D01*
X892063Y274292D01*
X892038Y274300D01*
X891794Y274319D01*
X881125Y274319D01*
X881165Y274576D01*
X881746Y276363D01*
X882599Y278037D01*
X883704Y279558D01*
X885032Y280886D01*
X886553Y281991D01*
X888227Y282844D01*
X889897Y283387D01*
X890042Y283453D01*
X890189Y283517D01*
X890201Y283525D01*
X890214Y283532D01*
X890340Y283629D01*
X890469Y283725D01*
X890478Y283736D01*
X890490Y283745D01*
X890591Y283869D01*
X890694Y283991D01*
X890700Y284004D01*
X890710Y284015D01*
X890780Y284159D01*
X890853Y284301D01*
X890856Y284315D01*
X890862Y284328D01*
X890898Y284485D01*
X890937Y284639D01*
X890937Y284654D01*
X890940Y284668D01*
X890939Y284828D01*
X890942Y284988D01*
X890939Y285002D01*
X890939Y285016D01*
X890902Y285172D01*
X890867Y285328D01*
X890861Y285341D01*
X890858Y285355D01*
X890786Y285499D01*
X890718Y285643D01*
X890709Y285654D01*
X890702Y285667D01*
X890600Y285791D01*
X890500Y285915D01*
X890489Y285924D01*
X890480Y285935D01*
X890353Y286032D01*
X890227Y286131D01*
X890211Y286139D01*
X890202Y286146D01*
X890167Y286162D01*
X890009Y286243D01*
X886479Y287705D01*
X883335Y290849D01*
X881633Y294957D01*
X881633Y299403D01*
X883335Y303511D01*
X886479Y306655D01*
X890587Y308357D01*
X895033Y308357D01*
X899141Y306655D01*
X902285Y303511D01*
X903150Y301423D01*
X903187Y301356D01*
X903215Y301285D01*
X903272Y301204D01*
X903319Y301118D01*
X903371Y301062D01*
X903414Y300999D01*
X903487Y300933D01*
X903554Y300860D01*
X903616Y300817D01*
X903673Y300766D01*
X903759Y300718D01*
X903840Y300662D01*
X903911Y300634D01*
X903978Y300597D01*
X904073Y300570D01*
X904164Y300534D01*
X904240Y300523D01*
X904314Y300502D01*
X904462Y300490D01*
X904509Y300483D01*
X904528Y300485D01*
X904557Y300483D01*
X931738Y300483D01*
X934119Y298102D01*
X947273Y284948D01*
X947333Y284901D01*
X947386Y284846D01*
X947469Y284792D01*
X947546Y284731D01*
X947615Y284699D01*
X947679Y284657D01*
X947772Y284624D01*
X947861Y284582D01*
X947936Y284566D01*
X948008Y284541D01*
X948106Y284530D01*
X948202Y284509D01*
X948278Y284510D01*
X948354Y284502D01*
X948452Y284513D01*
X948550Y284515D01*
X948624Y284534D01*
X948700Y284543D01*
X948842Y284589D01*
X948888Y284600D01*
X948905Y284609D01*
X948933Y284618D01*
X949360Y284795D01*
X952640Y284795D01*
X955670Y283539D01*
X957989Y281220D01*
X959245Y278190D01*
X959245Y274910D01*
X957989Y271880D01*
X955670Y269561D01*
X952640Y268305D01*
X949360Y268305D01*
G37*
%LPD*%
%LPC*%
G36*
X961509Y133596D02*
X961509Y133596D01*
X954690Y136421D01*
X949471Y141640D01*
X946646Y148459D01*
X946646Y155841D01*
X949471Y162660D01*
X954690Y167879D01*
X961509Y170704D01*
X968891Y170704D01*
X975710Y167879D01*
X980929Y162660D01*
X983754Y155841D01*
X983754Y148459D01*
X980929Y141640D01*
X975710Y136421D01*
X968891Y133596D01*
X961509Y133596D01*
G37*
%LPD*%
%LPC*%
G36*
X961509Y603996D02*
X961509Y603996D01*
X954690Y606821D01*
X949471Y612040D01*
X946646Y618859D01*
X946646Y626241D01*
X949471Y633060D01*
X954690Y638279D01*
X961509Y641104D01*
X968891Y641104D01*
X975710Y638279D01*
X980929Y633060D01*
X983754Y626241D01*
X983754Y618859D01*
X980929Y612040D01*
X975710Y606821D01*
X968891Y603996D01*
X961509Y603996D01*
G37*
%LPD*%
%LPC*%
G36*
X420242Y216026D02*
X420242Y216026D01*
X412876Y223392D01*
X412876Y233808D01*
X420242Y241174D01*
X430567Y241174D01*
X430692Y241188D01*
X430819Y241195D01*
X430865Y241208D01*
X430913Y241214D01*
X431032Y241256D01*
X431153Y241291D01*
X431196Y241315D01*
X431241Y241331D01*
X431347Y241400D01*
X431458Y241461D01*
X431504Y241501D01*
X431534Y241520D01*
X431567Y241555D01*
X431644Y241620D01*
X463893Y273869D01*
X463972Y273968D01*
X464056Y274062D01*
X464080Y274104D01*
X464110Y274142D01*
X464164Y274256D01*
X464225Y274367D01*
X464238Y274414D01*
X464259Y274457D01*
X464285Y274581D01*
X464320Y274702D01*
X464325Y274763D01*
X464332Y274798D01*
X464331Y274846D01*
X464339Y274946D01*
X464339Y275426D01*
X465186Y277470D01*
X466750Y279034D01*
X468794Y279881D01*
X471006Y279881D01*
X473050Y279034D01*
X474614Y277470D01*
X475461Y275426D01*
X475461Y273214D01*
X474614Y271170D01*
X474370Y270926D01*
X474369Y270925D01*
X474367Y270923D01*
X474303Y270842D01*
X474260Y270798D01*
X474236Y270757D01*
X474154Y270653D01*
X474153Y270651D01*
X474151Y270650D01*
X474040Y270432D01*
X473992Y270316D01*
X472420Y268744D01*
X438470Y234794D01*
X438391Y234695D01*
X438307Y234601D01*
X438283Y234559D01*
X438253Y234521D01*
X438199Y234407D01*
X438138Y234296D01*
X438125Y234249D01*
X438104Y234206D01*
X438078Y234082D01*
X438043Y233961D01*
X438038Y233900D01*
X438031Y233865D01*
X438032Y233817D01*
X438024Y233717D01*
X438024Y223392D01*
X430658Y216026D01*
X420242Y216026D01*
G37*
%LPD*%
%LPC*%
G36*
X890587Y540003D02*
X890587Y540003D01*
X886479Y541705D01*
X883335Y544849D01*
X881633Y548957D01*
X881633Y553403D01*
X883335Y557511D01*
X886479Y560655D01*
X890587Y562357D01*
X895033Y562357D01*
X899141Y560655D01*
X902285Y557511D01*
X903150Y555423D01*
X903187Y555356D01*
X903215Y555285D01*
X903272Y555204D01*
X903319Y555118D01*
X903371Y555062D01*
X903414Y554999D01*
X903487Y554933D01*
X903554Y554860D01*
X903616Y554817D01*
X903673Y554766D01*
X903759Y554718D01*
X903840Y554662D01*
X903911Y554634D01*
X903978Y554597D01*
X904073Y554570D01*
X904164Y554534D01*
X904240Y554523D01*
X904314Y554502D01*
X904462Y554490D01*
X904509Y554483D01*
X904528Y554485D01*
X904557Y554483D01*
X941232Y554483D01*
X941258Y554486D01*
X941284Y554484D01*
X941431Y554506D01*
X941578Y554523D01*
X941603Y554531D01*
X941629Y554535D01*
X941767Y554590D01*
X941906Y554640D01*
X941928Y554654D01*
X941953Y554664D01*
X942074Y554749D01*
X942199Y554829D01*
X942217Y554848D01*
X942239Y554863D01*
X942338Y554973D01*
X942441Y555080D01*
X942455Y555102D01*
X942472Y555122D01*
X942544Y555252D01*
X942620Y555379D01*
X942628Y555404D01*
X942641Y555427D01*
X942681Y555570D01*
X942726Y555711D01*
X942728Y555737D01*
X942736Y555762D01*
X942755Y556006D01*
X942755Y560753D01*
X943797Y561795D01*
X958203Y561795D01*
X959245Y560753D01*
X959245Y546347D01*
X958203Y545305D01*
X943797Y545305D01*
X942755Y546347D01*
X942755Y546354D01*
X942752Y546380D01*
X942754Y546406D01*
X942732Y546553D01*
X942715Y546700D01*
X942707Y546725D01*
X942703Y546751D01*
X942648Y546889D01*
X942598Y547028D01*
X942584Y547050D01*
X942574Y547075D01*
X942489Y547196D01*
X942409Y547321D01*
X942390Y547339D01*
X942375Y547361D01*
X942265Y547460D01*
X942158Y547563D01*
X942136Y547577D01*
X942116Y547594D01*
X941986Y547666D01*
X941859Y547742D01*
X941834Y547750D01*
X941811Y547763D01*
X941668Y547803D01*
X941527Y547848D01*
X941501Y547850D01*
X941476Y547858D01*
X941232Y547877D01*
X904557Y547877D01*
X904482Y547869D01*
X904405Y547870D01*
X904309Y547849D01*
X904211Y547837D01*
X904139Y547812D01*
X904065Y547795D01*
X903976Y547753D01*
X903883Y547720D01*
X903819Y547678D01*
X903750Y547646D01*
X903673Y547584D01*
X903590Y547531D01*
X903537Y547476D01*
X903477Y547428D01*
X903416Y547351D01*
X903348Y547280D01*
X903309Y547215D01*
X903261Y547155D01*
X903193Y547022D01*
X903169Y546981D01*
X903163Y546963D01*
X903150Y546937D01*
X902285Y544849D01*
X899141Y541705D01*
X895033Y540003D01*
X890587Y540003D01*
G37*
%LPD*%
%LPC*%
G36*
X949360Y296005D02*
X949360Y296005D01*
X946330Y297261D01*
X944011Y299580D01*
X942755Y302610D01*
X942755Y305890D01*
X942932Y306317D01*
X942953Y306391D01*
X942983Y306461D01*
X943001Y306558D01*
X943028Y306652D01*
X943032Y306728D01*
X943045Y306804D01*
X943040Y306902D01*
X943045Y307000D01*
X943031Y307076D01*
X943027Y307152D01*
X943000Y307246D01*
X942982Y307343D01*
X942952Y307413D01*
X942931Y307487D01*
X942883Y307573D01*
X942843Y307663D01*
X942798Y307724D01*
X942761Y307791D01*
X942664Y307905D01*
X942636Y307943D01*
X942621Y307955D01*
X942602Y307977D01*
X931748Y318831D01*
X931649Y318910D01*
X931555Y318994D01*
X931513Y319018D01*
X931475Y319048D01*
X931361Y319102D01*
X931250Y319163D01*
X931204Y319176D01*
X931160Y319197D01*
X931037Y319223D01*
X930915Y319258D01*
X930854Y319263D01*
X930819Y319270D01*
X930771Y319269D01*
X930671Y319277D01*
X904557Y319277D01*
X904482Y319269D01*
X904405Y319270D01*
X904309Y319249D01*
X904211Y319237D01*
X904139Y319212D01*
X904065Y319195D01*
X903976Y319153D01*
X903883Y319120D01*
X903819Y319078D01*
X903750Y319046D01*
X903673Y318984D01*
X903590Y318931D01*
X903537Y318876D01*
X903477Y318828D01*
X903416Y318751D01*
X903348Y318680D01*
X903309Y318615D01*
X903261Y318555D01*
X903193Y318422D01*
X903169Y318381D01*
X903163Y318363D01*
X903150Y318337D01*
X902285Y316249D01*
X899141Y313105D01*
X895033Y311403D01*
X890587Y311403D01*
X886479Y313105D01*
X883335Y316249D01*
X881633Y320357D01*
X881633Y324803D01*
X883335Y328911D01*
X886479Y332055D01*
X890587Y333757D01*
X895033Y333757D01*
X899141Y332055D01*
X902285Y328911D01*
X903150Y326823D01*
X903187Y326756D01*
X903215Y326685D01*
X903272Y326604D01*
X903319Y326518D01*
X903371Y326462D01*
X903414Y326399D01*
X903487Y326333D01*
X903554Y326260D01*
X903616Y326217D01*
X903673Y326166D01*
X903759Y326118D01*
X903840Y326062D01*
X903911Y326034D01*
X903978Y325997D01*
X904073Y325970D01*
X904164Y325934D01*
X904240Y325923D01*
X904314Y325902D01*
X904462Y325890D01*
X904509Y325883D01*
X904528Y325885D01*
X904557Y325883D01*
X934038Y325883D01*
X936419Y323502D01*
X947273Y312648D01*
X947333Y312601D01*
X947386Y312546D01*
X947469Y312492D01*
X947546Y312431D01*
X947615Y312399D01*
X947679Y312357D01*
X947772Y312324D01*
X947861Y312282D01*
X947936Y312266D01*
X948008Y312241D01*
X948106Y312230D01*
X948202Y312209D01*
X948278Y312210D01*
X948354Y312202D01*
X948452Y312213D01*
X948550Y312215D01*
X948624Y312234D01*
X948700Y312243D01*
X948842Y312289D01*
X948888Y312300D01*
X948905Y312309D01*
X948933Y312318D01*
X949360Y312495D01*
X952640Y312495D01*
X955670Y311239D01*
X957989Y308920D01*
X959245Y305890D01*
X959245Y302610D01*
X957989Y299580D01*
X955670Y297261D01*
X952640Y296005D01*
X949360Y296005D01*
G37*
%LPD*%
%LPC*%
G36*
X203625Y211581D02*
X203625Y211581D01*
X197370Y214172D01*
X192582Y218960D01*
X189991Y225215D01*
X189991Y231985D01*
X192582Y238240D01*
X197370Y243028D01*
X203625Y245619D01*
X210395Y245619D01*
X216650Y243028D01*
X221438Y238240D01*
X224029Y231985D01*
X224029Y225215D01*
X221438Y218960D01*
X216650Y214172D01*
X210395Y211581D01*
X203625Y211581D01*
G37*
%LPD*%
%LPC*%
G36*
X297605Y211581D02*
X297605Y211581D01*
X291350Y214172D01*
X286562Y218960D01*
X283971Y225215D01*
X283971Y231985D01*
X286562Y238240D01*
X291350Y243028D01*
X297605Y245619D01*
X304375Y245619D01*
X310630Y243028D01*
X315418Y238240D01*
X318009Y231985D01*
X318009Y225215D01*
X315418Y218960D01*
X310630Y214172D01*
X304375Y211581D01*
X297605Y211581D01*
G37*
%LPD*%
%LPC*%
G36*
X297605Y465581D02*
X297605Y465581D01*
X291350Y468172D01*
X286562Y472960D01*
X283971Y479215D01*
X283971Y485985D01*
X286562Y492240D01*
X291350Y497028D01*
X297605Y499619D01*
X304375Y499619D01*
X310630Y497028D01*
X315418Y492240D01*
X318009Y485985D01*
X318009Y479215D01*
X315418Y472960D01*
X310630Y468172D01*
X304375Y465581D01*
X297605Y465581D01*
G37*
%LPD*%
%LPC*%
G36*
X297605Y338581D02*
X297605Y338581D01*
X291350Y341172D01*
X286562Y345960D01*
X283971Y352215D01*
X283971Y358985D01*
X286562Y365240D01*
X291350Y370028D01*
X297605Y372619D01*
X304375Y372619D01*
X310630Y370028D01*
X315418Y365240D01*
X318009Y358985D01*
X318009Y352215D01*
X315418Y345960D01*
X310630Y341172D01*
X304375Y338581D01*
X297605Y338581D01*
G37*
%LPD*%
%LPC*%
G36*
X949360Y323705D02*
X949360Y323705D01*
X946330Y324961D01*
X944011Y327280D01*
X942755Y330310D01*
X942755Y333590D01*
X942932Y334017D01*
X942953Y334091D01*
X942983Y334161D01*
X943001Y334258D01*
X943028Y334352D01*
X943032Y334428D01*
X943045Y334504D01*
X943040Y334602D01*
X943045Y334700D01*
X943031Y334776D01*
X943027Y334852D01*
X943000Y334946D01*
X942982Y335043D01*
X942952Y335113D01*
X942931Y335187D01*
X942883Y335273D01*
X942843Y335363D01*
X942798Y335424D01*
X942761Y335491D01*
X942664Y335605D01*
X942636Y335643D01*
X942621Y335655D01*
X942602Y335677D01*
X934048Y344231D01*
X933949Y344310D01*
X933855Y344394D01*
X933813Y344418D01*
X933775Y344448D01*
X933661Y344502D01*
X933550Y344563D01*
X933504Y344576D01*
X933460Y344597D01*
X933337Y344623D01*
X933215Y344658D01*
X933154Y344663D01*
X933119Y344670D01*
X933071Y344669D01*
X932971Y344677D01*
X904557Y344677D01*
X904482Y344669D01*
X904405Y344670D01*
X904309Y344649D01*
X904211Y344637D01*
X904139Y344612D01*
X904065Y344595D01*
X903976Y344553D01*
X903883Y344520D01*
X903819Y344478D01*
X903750Y344446D01*
X903673Y344384D01*
X903590Y344331D01*
X903537Y344276D01*
X903477Y344228D01*
X903416Y344151D01*
X903348Y344080D01*
X903309Y344015D01*
X903261Y343955D01*
X903193Y343822D01*
X903169Y343781D01*
X903163Y343763D01*
X903150Y343737D01*
X902285Y341649D01*
X899141Y338505D01*
X895033Y336803D01*
X890587Y336803D01*
X886479Y338505D01*
X883335Y341649D01*
X881633Y345757D01*
X881633Y350203D01*
X883335Y354311D01*
X886479Y357455D01*
X890587Y359157D01*
X895033Y359157D01*
X899141Y357455D01*
X902285Y354311D01*
X903150Y352223D01*
X903187Y352156D01*
X903215Y352085D01*
X903272Y352004D01*
X903319Y351918D01*
X903371Y351862D01*
X903414Y351799D01*
X903487Y351733D01*
X903554Y351660D01*
X903616Y351617D01*
X903673Y351566D01*
X903759Y351518D01*
X903840Y351462D01*
X903911Y351434D01*
X903978Y351397D01*
X904073Y351370D01*
X904164Y351334D01*
X904240Y351323D01*
X904314Y351302D01*
X904462Y351290D01*
X904509Y351283D01*
X904528Y351285D01*
X904557Y351283D01*
X936338Y351283D01*
X938719Y348902D01*
X947273Y340348D01*
X947333Y340301D01*
X947386Y340246D01*
X947469Y340192D01*
X947546Y340131D01*
X947615Y340099D01*
X947679Y340057D01*
X947772Y340024D01*
X947861Y339982D01*
X947936Y339966D01*
X948008Y339941D01*
X948106Y339930D01*
X948202Y339909D01*
X948278Y339910D01*
X948354Y339902D01*
X948452Y339913D01*
X948550Y339915D01*
X948624Y339934D01*
X948700Y339943D01*
X948842Y339989D01*
X948888Y340000D01*
X948905Y340009D01*
X948933Y340018D01*
X949360Y340195D01*
X952640Y340195D01*
X955670Y338939D01*
X957989Y336620D01*
X959245Y333590D01*
X959245Y330310D01*
X957989Y327280D01*
X955670Y324961D01*
X952640Y323705D01*
X949360Y323705D01*
G37*
%LPD*%
%LPC*%
G36*
X949360Y351405D02*
X949360Y351405D01*
X946330Y352661D01*
X944011Y354980D01*
X942755Y358010D01*
X942755Y361290D01*
X942932Y361717D01*
X942953Y361791D01*
X942983Y361861D01*
X943001Y361958D01*
X943028Y362052D01*
X943032Y362128D01*
X943045Y362204D01*
X943040Y362302D01*
X943045Y362400D01*
X943031Y362476D01*
X943027Y362552D01*
X943000Y362646D01*
X942982Y362743D01*
X942952Y362813D01*
X942931Y362887D01*
X942883Y362973D01*
X942843Y363063D01*
X942798Y363124D01*
X942761Y363191D01*
X942664Y363305D01*
X942636Y363343D01*
X942621Y363355D01*
X942602Y363377D01*
X936348Y369631D01*
X936249Y369710D01*
X936155Y369794D01*
X936113Y369818D01*
X936075Y369848D01*
X935961Y369902D01*
X935850Y369963D01*
X935804Y369976D01*
X935760Y369997D01*
X935637Y370023D01*
X935515Y370058D01*
X935454Y370063D01*
X935419Y370070D01*
X935371Y370069D01*
X935271Y370077D01*
X904557Y370077D01*
X904482Y370069D01*
X904405Y370070D01*
X904309Y370049D01*
X904211Y370037D01*
X904139Y370012D01*
X904065Y369995D01*
X903976Y369953D01*
X903883Y369920D01*
X903819Y369878D01*
X903750Y369846D01*
X903673Y369784D01*
X903590Y369731D01*
X903537Y369676D01*
X903477Y369628D01*
X903416Y369551D01*
X903348Y369480D01*
X903309Y369415D01*
X903261Y369355D01*
X903193Y369222D01*
X903169Y369181D01*
X903163Y369163D01*
X903150Y369137D01*
X902285Y367049D01*
X899141Y363905D01*
X895033Y362203D01*
X890587Y362203D01*
X886479Y363905D01*
X883335Y367049D01*
X881633Y371157D01*
X881633Y375603D01*
X883335Y379711D01*
X886479Y382855D01*
X890587Y384557D01*
X895033Y384557D01*
X899141Y382855D01*
X902285Y379711D01*
X903150Y377623D01*
X903187Y377556D01*
X903215Y377485D01*
X903272Y377404D01*
X903319Y377318D01*
X903371Y377262D01*
X903414Y377199D01*
X903487Y377133D01*
X903554Y377060D01*
X903616Y377017D01*
X903673Y376966D01*
X903759Y376918D01*
X903840Y376862D01*
X903911Y376834D01*
X903978Y376797D01*
X904073Y376770D01*
X904164Y376734D01*
X904240Y376723D01*
X904314Y376702D01*
X904462Y376690D01*
X904509Y376683D01*
X904528Y376685D01*
X904557Y376683D01*
X938638Y376683D01*
X941019Y374302D01*
X947273Y368048D01*
X947333Y368001D01*
X947386Y367946D01*
X947469Y367892D01*
X947546Y367831D01*
X947615Y367799D01*
X947679Y367757D01*
X947772Y367724D01*
X947861Y367682D01*
X947936Y367666D01*
X948008Y367641D01*
X948106Y367630D01*
X948202Y367609D01*
X948278Y367610D01*
X948354Y367602D01*
X948452Y367613D01*
X948550Y367615D01*
X948624Y367634D01*
X948700Y367643D01*
X948842Y367689D01*
X948888Y367700D01*
X948905Y367709D01*
X948933Y367718D01*
X949360Y367895D01*
X952640Y367895D01*
X955670Y366639D01*
X957989Y364320D01*
X959245Y361290D01*
X959245Y358010D01*
X957989Y354980D01*
X955670Y352661D01*
X952640Y351405D01*
X949360Y351405D01*
G37*
%LPD*%
%LPC*%
G36*
X949360Y379105D02*
X949360Y379105D01*
X946330Y380361D01*
X944011Y382680D01*
X942755Y385710D01*
X942755Y388990D01*
X942932Y389417D01*
X942953Y389491D01*
X942983Y389561D01*
X943001Y389658D01*
X943028Y389752D01*
X943032Y389828D01*
X943045Y389904D01*
X943040Y390002D01*
X943045Y390100D01*
X943031Y390176D01*
X943027Y390252D01*
X943000Y390346D01*
X942982Y390443D01*
X942952Y390513D01*
X942931Y390587D01*
X942883Y390673D01*
X942843Y390763D01*
X942798Y390824D01*
X942761Y390891D01*
X942664Y391005D01*
X942636Y391043D01*
X942621Y391055D01*
X942602Y391077D01*
X938648Y395031D01*
X938549Y395110D01*
X938455Y395194D01*
X938413Y395218D01*
X938375Y395248D01*
X938261Y395302D01*
X938150Y395363D01*
X938104Y395376D01*
X938060Y395397D01*
X937937Y395423D01*
X937815Y395458D01*
X937754Y395463D01*
X937719Y395470D01*
X937671Y395469D01*
X937571Y395477D01*
X904557Y395477D01*
X904482Y395469D01*
X904405Y395470D01*
X904309Y395449D01*
X904211Y395437D01*
X904139Y395412D01*
X904065Y395395D01*
X903976Y395353D01*
X903883Y395320D01*
X903819Y395278D01*
X903750Y395246D01*
X903673Y395184D01*
X903590Y395131D01*
X903537Y395076D01*
X903477Y395028D01*
X903416Y394951D01*
X903348Y394880D01*
X903309Y394815D01*
X903261Y394755D01*
X903193Y394622D01*
X903169Y394581D01*
X903163Y394563D01*
X903150Y394537D01*
X902285Y392449D01*
X899141Y389305D01*
X895033Y387603D01*
X890587Y387603D01*
X886479Y389305D01*
X883335Y392449D01*
X881633Y396557D01*
X881633Y401003D01*
X883335Y405111D01*
X886479Y408255D01*
X890587Y409957D01*
X895033Y409957D01*
X899141Y408255D01*
X902285Y405111D01*
X903150Y403023D01*
X903187Y402956D01*
X903215Y402885D01*
X903272Y402804D01*
X903319Y402718D01*
X903371Y402662D01*
X903414Y402599D01*
X903487Y402533D01*
X903554Y402460D01*
X903616Y402417D01*
X903673Y402366D01*
X903759Y402318D01*
X903840Y402262D01*
X903911Y402234D01*
X903978Y402197D01*
X904073Y402170D01*
X904164Y402134D01*
X904240Y402123D01*
X904314Y402102D01*
X904462Y402090D01*
X904509Y402083D01*
X904528Y402085D01*
X904557Y402083D01*
X940938Y402083D01*
X943319Y399702D01*
X947273Y395748D01*
X947333Y395701D01*
X947386Y395646D01*
X947469Y395592D01*
X947546Y395531D01*
X947615Y395499D01*
X947679Y395457D01*
X947772Y395424D01*
X947861Y395382D01*
X947936Y395366D01*
X948008Y395341D01*
X948106Y395330D01*
X948202Y395309D01*
X948278Y395310D01*
X948354Y395302D01*
X948452Y395313D01*
X948550Y395315D01*
X948624Y395334D01*
X948700Y395343D01*
X948842Y395389D01*
X948888Y395400D01*
X948905Y395409D01*
X948933Y395418D01*
X949360Y395595D01*
X952640Y395595D01*
X955670Y394339D01*
X957989Y392020D01*
X959245Y388990D01*
X959245Y385710D01*
X957989Y382680D01*
X955670Y380361D01*
X952640Y379105D01*
X949360Y379105D01*
G37*
%LPD*%
%LPC*%
G36*
X949360Y406805D02*
X949360Y406805D01*
X946330Y408061D01*
X944011Y410380D01*
X942755Y413410D01*
X942755Y416690D01*
X942932Y417117D01*
X942953Y417191D01*
X942983Y417261D01*
X943001Y417358D01*
X943028Y417452D01*
X943032Y417529D01*
X943045Y417604D01*
X943040Y417702D01*
X943045Y417800D01*
X943031Y417876D01*
X943027Y417952D01*
X943000Y418046D01*
X942982Y418143D01*
X942952Y418213D01*
X942931Y418287D01*
X942883Y418373D01*
X942843Y418463D01*
X942798Y418524D01*
X942761Y418591D01*
X942664Y418705D01*
X942636Y418743D01*
X942621Y418755D01*
X942602Y418777D01*
X940948Y420431D01*
X940849Y420510D01*
X940755Y420594D01*
X940713Y420618D01*
X940675Y420648D01*
X940561Y420702D01*
X940450Y420763D01*
X940404Y420776D01*
X940360Y420797D01*
X940237Y420823D01*
X940115Y420858D01*
X940054Y420863D01*
X940019Y420870D01*
X939971Y420869D01*
X939871Y420877D01*
X904557Y420877D01*
X904482Y420869D01*
X904405Y420870D01*
X904309Y420849D01*
X904211Y420837D01*
X904139Y420812D01*
X904065Y420795D01*
X903976Y420753D01*
X903883Y420720D01*
X903819Y420678D01*
X903750Y420646D01*
X903673Y420584D01*
X903590Y420531D01*
X903537Y420476D01*
X903477Y420428D01*
X903416Y420351D01*
X903348Y420280D01*
X903309Y420215D01*
X903261Y420155D01*
X903193Y420022D01*
X903169Y419981D01*
X903163Y419963D01*
X903150Y419937D01*
X902285Y417849D01*
X899141Y414705D01*
X895033Y413003D01*
X890587Y413003D01*
X886479Y414705D01*
X883335Y417849D01*
X881633Y421957D01*
X881633Y426403D01*
X883335Y430511D01*
X886479Y433655D01*
X890587Y435357D01*
X895033Y435357D01*
X899141Y433655D01*
X902285Y430511D01*
X903150Y428423D01*
X903187Y428356D01*
X903215Y428285D01*
X903272Y428204D01*
X903319Y428118D01*
X903371Y428062D01*
X903414Y427999D01*
X903487Y427933D01*
X903554Y427860D01*
X903616Y427817D01*
X903673Y427766D01*
X903759Y427718D01*
X903840Y427662D01*
X903911Y427634D01*
X903978Y427597D01*
X904073Y427570D01*
X904164Y427534D01*
X904240Y427523D01*
X904314Y427502D01*
X904462Y427490D01*
X904509Y427483D01*
X904528Y427485D01*
X904557Y427483D01*
X943238Y427483D01*
X947273Y423448D01*
X947333Y423401D01*
X947386Y423346D01*
X947469Y423292D01*
X947546Y423231D01*
X947615Y423199D01*
X947679Y423157D01*
X947772Y423124D01*
X947861Y423082D01*
X947936Y423066D01*
X948008Y423041D01*
X948106Y423030D01*
X948202Y423009D01*
X948278Y423010D01*
X948354Y423002D01*
X948452Y423013D01*
X948550Y423015D01*
X948624Y423034D01*
X948700Y423043D01*
X948842Y423088D01*
X948888Y423100D01*
X948905Y423109D01*
X948933Y423118D01*
X949360Y423295D01*
X952640Y423295D01*
X955670Y422039D01*
X957989Y419720D01*
X959245Y416690D01*
X959245Y413410D01*
X957989Y410380D01*
X955670Y408061D01*
X952640Y406805D01*
X949360Y406805D01*
G37*
%LPD*%
%LPC*%
G36*
X949360Y434505D02*
X949360Y434505D01*
X946330Y435761D01*
X944011Y438080D01*
X942755Y441110D01*
X942755Y444489D01*
X942760Y444506D01*
X942768Y444657D01*
X942780Y444806D01*
X942776Y444830D01*
X942777Y444854D01*
X942750Y445002D01*
X942728Y445151D01*
X942719Y445173D01*
X942715Y445197D01*
X942655Y445335D01*
X942599Y445475D01*
X942585Y445495D01*
X942576Y445517D01*
X942486Y445638D01*
X942400Y445761D01*
X942382Y445777D01*
X942368Y445797D01*
X942253Y445894D01*
X942142Y445994D01*
X942120Y446006D01*
X942102Y446022D01*
X941968Y446090D01*
X941836Y446163D01*
X941813Y446169D01*
X941792Y446180D01*
X941646Y446217D01*
X941501Y446258D01*
X941472Y446260D01*
X941453Y446265D01*
X941406Y446265D01*
X941257Y446277D01*
X904557Y446277D01*
X904482Y446269D01*
X904405Y446270D01*
X904309Y446249D01*
X904211Y446237D01*
X904139Y446212D01*
X904065Y446195D01*
X903976Y446153D01*
X903883Y446120D01*
X903819Y446078D01*
X903750Y446046D01*
X903673Y445984D01*
X903590Y445931D01*
X903537Y445876D01*
X903477Y445828D01*
X903416Y445751D01*
X903348Y445680D01*
X903309Y445615D01*
X903261Y445555D01*
X903193Y445422D01*
X903169Y445381D01*
X903163Y445363D01*
X903150Y445337D01*
X902285Y443249D01*
X899141Y440105D01*
X895033Y438403D01*
X890587Y438403D01*
X886479Y440105D01*
X883335Y443249D01*
X881633Y447357D01*
X881633Y451803D01*
X883335Y455911D01*
X886479Y459055D01*
X890587Y460757D01*
X895033Y460757D01*
X899141Y459055D01*
X902285Y455911D01*
X903150Y453823D01*
X903187Y453756D01*
X903215Y453685D01*
X903272Y453604D01*
X903319Y453518D01*
X903371Y453462D01*
X903414Y453399D01*
X903487Y453333D01*
X903554Y453260D01*
X903616Y453217D01*
X903673Y453166D01*
X903759Y453118D01*
X903840Y453062D01*
X903911Y453034D01*
X903978Y452997D01*
X904073Y452970D01*
X904164Y452934D01*
X904240Y452923D01*
X904314Y452902D01*
X904462Y452890D01*
X904509Y452883D01*
X904528Y452885D01*
X904557Y452883D01*
X945538Y452883D01*
X947273Y451148D01*
X947333Y451101D01*
X947386Y451046D01*
X947469Y450992D01*
X947546Y450931D01*
X947615Y450899D01*
X947679Y450857D01*
X947772Y450824D01*
X947861Y450782D01*
X947936Y450766D01*
X948008Y450741D01*
X948106Y450730D01*
X948202Y450709D01*
X948278Y450710D01*
X948354Y450702D01*
X948452Y450713D01*
X948550Y450715D01*
X948624Y450734D01*
X948700Y450743D01*
X948842Y450788D01*
X948888Y450800D01*
X948905Y450809D01*
X948933Y450818D01*
X949360Y450995D01*
X952640Y450995D01*
X955670Y449739D01*
X957989Y447420D01*
X959245Y444390D01*
X959245Y441110D01*
X957989Y438080D01*
X955670Y435761D01*
X952640Y434505D01*
X949360Y434505D01*
G37*
%LPD*%
%LPC*%
G36*
X949360Y462205D02*
X949360Y462205D01*
X946330Y463461D01*
X944011Y465780D01*
X942755Y468810D01*
X942755Y470154D01*
X942752Y470180D01*
X942754Y470206D01*
X942732Y470353D01*
X942715Y470500D01*
X942707Y470525D01*
X942703Y470551D01*
X942648Y470689D01*
X942598Y470828D01*
X942584Y470850D01*
X942574Y470875D01*
X942489Y470996D01*
X942409Y471121D01*
X942390Y471139D01*
X942375Y471161D01*
X942265Y471260D01*
X942158Y471363D01*
X942136Y471377D01*
X942116Y471394D01*
X941986Y471466D01*
X941859Y471542D01*
X941834Y471550D01*
X941811Y471563D01*
X941668Y471603D01*
X941527Y471648D01*
X941501Y471650D01*
X941476Y471658D01*
X941232Y471677D01*
X904557Y471677D01*
X904482Y471669D01*
X904405Y471670D01*
X904309Y471649D01*
X904211Y471637D01*
X904139Y471612D01*
X904065Y471595D01*
X903976Y471553D01*
X903883Y471520D01*
X903819Y471478D01*
X903750Y471446D01*
X903673Y471384D01*
X903590Y471331D01*
X903537Y471276D01*
X903477Y471228D01*
X903416Y471151D01*
X903348Y471080D01*
X903309Y471015D01*
X903261Y470955D01*
X903193Y470822D01*
X903169Y470781D01*
X903163Y470763D01*
X903150Y470737D01*
X902285Y468649D01*
X899141Y465505D01*
X895033Y463803D01*
X890587Y463803D01*
X886479Y465505D01*
X883335Y468649D01*
X881633Y472757D01*
X881633Y477203D01*
X883335Y481311D01*
X886479Y484455D01*
X890587Y486157D01*
X895033Y486157D01*
X899141Y484455D01*
X902285Y481311D01*
X903150Y479223D01*
X903187Y479156D01*
X903215Y479085D01*
X903272Y479004D01*
X903319Y478918D01*
X903371Y478862D01*
X903414Y478799D01*
X903487Y478733D01*
X903554Y478660D01*
X903616Y478617D01*
X903673Y478566D01*
X903759Y478518D01*
X903840Y478462D01*
X903911Y478434D01*
X903978Y478397D01*
X904073Y478370D01*
X904164Y478334D01*
X904240Y478323D01*
X904314Y478302D01*
X904462Y478290D01*
X904509Y478283D01*
X904528Y478285D01*
X904557Y478283D01*
X948062Y478283D01*
X948064Y478283D01*
X948066Y478283D01*
X948243Y478304D01*
X948409Y478323D01*
X948410Y478323D01*
X948413Y478324D01*
X948645Y478399D01*
X949360Y478695D01*
X952640Y478695D01*
X955670Y477439D01*
X957989Y475120D01*
X959245Y472090D01*
X959245Y468810D01*
X957989Y465780D01*
X955670Y463461D01*
X952640Y462205D01*
X949360Y462205D01*
G37*
%LPD*%
%LPC*%
G36*
X890587Y489203D02*
X890587Y489203D01*
X886479Y490905D01*
X883335Y494049D01*
X881633Y498157D01*
X881633Y502603D01*
X883335Y506711D01*
X886479Y509855D01*
X890587Y511557D01*
X895033Y511557D01*
X899141Y509855D01*
X902285Y506711D01*
X903150Y504623D01*
X903187Y504556D01*
X903215Y504485D01*
X903272Y504404D01*
X903319Y504318D01*
X903371Y504262D01*
X903414Y504199D01*
X903487Y504133D01*
X903554Y504060D01*
X903616Y504017D01*
X903673Y503966D01*
X903759Y503918D01*
X903840Y503862D01*
X903911Y503834D01*
X903978Y503797D01*
X904073Y503770D01*
X904164Y503734D01*
X904240Y503723D01*
X904314Y503702D01*
X904462Y503690D01*
X904509Y503683D01*
X904528Y503685D01*
X904557Y503683D01*
X944242Y503683D01*
X944368Y503697D01*
X944494Y503704D01*
X944540Y503717D01*
X944588Y503723D01*
X944707Y503765D01*
X944829Y503800D01*
X944871Y503824D01*
X944916Y503840D01*
X945023Y503909D01*
X945133Y503970D01*
X945179Y504010D01*
X945209Y504029D01*
X945243Y504064D01*
X945319Y504129D01*
X946330Y505139D01*
X949360Y506395D01*
X952640Y506395D01*
X955670Y505139D01*
X957989Y502820D01*
X959245Y499790D01*
X959245Y496510D01*
X957989Y493480D01*
X955670Y491161D01*
X952640Y489905D01*
X949360Y489905D01*
X946330Y491161D01*
X944010Y493480D01*
X942910Y496137D01*
X942873Y496204D01*
X942844Y496275D01*
X942788Y496356D01*
X942740Y496442D01*
X942689Y496498D01*
X942646Y496561D01*
X942573Y496627D01*
X942506Y496700D01*
X942443Y496743D01*
X942387Y496794D01*
X942301Y496842D01*
X942220Y496898D01*
X942149Y496926D01*
X942082Y496963D01*
X941987Y496990D01*
X941895Y497026D01*
X941820Y497037D01*
X941746Y497058D01*
X941597Y497070D01*
X941551Y497077D01*
X941532Y497075D01*
X941503Y497077D01*
X904557Y497077D01*
X904482Y497069D01*
X904405Y497070D01*
X904309Y497049D01*
X904211Y497037D01*
X904139Y497012D01*
X904065Y496995D01*
X903976Y496953D01*
X903883Y496920D01*
X903819Y496878D01*
X903750Y496846D01*
X903673Y496784D01*
X903590Y496731D01*
X903537Y496676D01*
X903477Y496628D01*
X903416Y496551D01*
X903348Y496480D01*
X903309Y496415D01*
X903261Y496355D01*
X903193Y496222D01*
X903169Y496181D01*
X903163Y496163D01*
X903150Y496137D01*
X902285Y494049D01*
X899141Y490905D01*
X895033Y489203D01*
X890587Y489203D01*
G37*
%LPD*%
%LPC*%
G36*
X890587Y514603D02*
X890587Y514603D01*
X886479Y516305D01*
X883335Y519449D01*
X881633Y523557D01*
X881633Y528003D01*
X883335Y532111D01*
X886479Y535255D01*
X890587Y536957D01*
X895033Y536957D01*
X899141Y535255D01*
X902285Y532111D01*
X903121Y530093D01*
X903158Y530026D01*
X903186Y529955D01*
X903243Y529874D01*
X903290Y529788D01*
X903342Y529732D01*
X903385Y529669D01*
X903458Y529603D01*
X903525Y529530D01*
X903587Y529487D01*
X903644Y529436D01*
X903730Y529388D01*
X903811Y529332D01*
X903882Y529304D01*
X903949Y529267D01*
X904044Y529240D01*
X904135Y529204D01*
X904211Y529193D01*
X904285Y529172D01*
X904433Y529160D01*
X904480Y529153D01*
X904499Y529155D01*
X904528Y529153D01*
X942426Y529153D01*
X942502Y529161D01*
X942579Y529160D01*
X942675Y529181D01*
X942772Y529193D01*
X942844Y529218D01*
X942919Y529235D01*
X943008Y529277D01*
X943101Y529310D01*
X943165Y529352D01*
X943234Y529384D01*
X943311Y529446D01*
X943393Y529499D01*
X943446Y529554D01*
X943506Y529602D01*
X943567Y529679D01*
X943636Y529750D01*
X943675Y529815D01*
X943722Y529875D01*
X943790Y530008D01*
X943814Y530049D01*
X943820Y530067D01*
X943834Y530093D01*
X944010Y530520D01*
X946330Y532839D01*
X949360Y534095D01*
X952640Y534095D01*
X955670Y532839D01*
X957989Y530520D01*
X959245Y527490D01*
X959245Y524210D01*
X957989Y521180D01*
X955670Y518861D01*
X952640Y517605D01*
X949360Y517605D01*
X946330Y518861D01*
X944010Y521180D01*
X943834Y521607D01*
X943796Y521674D01*
X943768Y521745D01*
X943712Y521826D01*
X943664Y521912D01*
X943613Y521968D01*
X943569Y522031D01*
X943496Y522097D01*
X943430Y522170D01*
X943367Y522213D01*
X943310Y522264D01*
X943224Y522312D01*
X943143Y522368D01*
X943072Y522396D01*
X943005Y522433D01*
X942911Y522460D01*
X942819Y522496D01*
X942744Y522507D01*
X942670Y522528D01*
X942521Y522540D01*
X942474Y522547D01*
X942455Y522545D01*
X942426Y522547D01*
X904586Y522547D01*
X904511Y522539D01*
X904434Y522540D01*
X904338Y522519D01*
X904240Y522507D01*
X904168Y522482D01*
X904094Y522465D01*
X904005Y522423D01*
X903912Y522390D01*
X903848Y522348D01*
X903779Y522316D01*
X903702Y522254D01*
X903619Y522201D01*
X903566Y522146D01*
X903506Y522098D01*
X903445Y522021D01*
X903377Y521950D01*
X903338Y521885D01*
X903290Y521825D01*
X903222Y521692D01*
X903198Y521651D01*
X903192Y521633D01*
X903179Y521607D01*
X902285Y519449D01*
X899141Y516305D01*
X895033Y514603D01*
X890587Y514603D01*
G37*
%LPD*%
%LPC*%
G36*
X731392Y698626D02*
X731392Y698626D01*
X724026Y705992D01*
X724026Y716408D01*
X731392Y723774D01*
X741808Y723774D01*
X749174Y716408D01*
X749174Y705992D01*
X741808Y698626D01*
X731392Y698626D01*
G37*
%LPD*%
%LPC*%
G36*
X769492Y698626D02*
X769492Y698626D01*
X762126Y705992D01*
X762126Y716408D01*
X769492Y723774D01*
X779908Y723774D01*
X787274Y716408D01*
X787274Y705992D01*
X779908Y698626D01*
X769492Y698626D01*
G37*
%LPD*%
%LPC*%
G36*
X693292Y698626D02*
X693292Y698626D01*
X685926Y705992D01*
X685926Y716408D01*
X693292Y723774D01*
X703708Y723774D01*
X711074Y716408D01*
X711074Y705992D01*
X703708Y698626D01*
X693292Y698626D01*
G37*
%LPD*%
%LPC*%
G36*
X337692Y470026D02*
X337692Y470026D01*
X330326Y477392D01*
X330326Y487808D01*
X337692Y495174D01*
X348108Y495174D01*
X355474Y487808D01*
X355474Y477392D01*
X348108Y470026D01*
X337692Y470026D01*
G37*
%LPD*%
%LPC*%
G36*
X344042Y343026D02*
X344042Y343026D01*
X336676Y350392D01*
X336676Y360808D01*
X344042Y368174D01*
X354458Y368174D01*
X361824Y360808D01*
X361824Y350392D01*
X354458Y343026D01*
X344042Y343026D01*
G37*
%LPD*%
%LPC*%
G36*
X420242Y343026D02*
X420242Y343026D01*
X412876Y350392D01*
X412876Y360808D01*
X420242Y368174D01*
X430658Y368174D01*
X438024Y360808D01*
X438024Y350392D01*
X430658Y343026D01*
X420242Y343026D01*
G37*
%LPD*%
%LPC*%
G36*
X413892Y470026D02*
X413892Y470026D01*
X406526Y477392D01*
X406526Y487808D01*
X413892Y495174D01*
X424308Y495174D01*
X431674Y487808D01*
X431674Y477392D01*
X424308Y470026D01*
X413892Y470026D01*
G37*
%LPD*%
%LPC*%
G36*
X344042Y216026D02*
X344042Y216026D01*
X336676Y223392D01*
X336676Y233808D01*
X344042Y241174D01*
X354458Y241174D01*
X361824Y233808D01*
X361824Y223392D01*
X354458Y216026D01*
X344042Y216026D01*
G37*
%LPD*%
%LPC*%
G36*
X635317Y136143D02*
X635317Y136143D01*
X631209Y137845D01*
X628065Y140989D01*
X626363Y145097D01*
X626363Y149543D01*
X628065Y153651D01*
X631209Y156795D01*
X635317Y158497D01*
X639763Y158497D01*
X643871Y156795D01*
X647015Y153651D01*
X648717Y149543D01*
X648717Y145097D01*
X647015Y140989D01*
X643871Y137845D01*
X639763Y136143D01*
X635317Y136143D01*
G37*
%LPD*%
%LPC*%
G36*
X861377Y141223D02*
X861377Y141223D01*
X857269Y142925D01*
X854125Y146069D01*
X852423Y150177D01*
X852423Y154623D01*
X854125Y158731D01*
X857269Y161875D01*
X861377Y163577D01*
X865823Y163577D01*
X869931Y161875D01*
X873075Y158731D01*
X874777Y154623D01*
X874777Y150177D01*
X873075Y146069D01*
X869931Y142925D01*
X865823Y141223D01*
X861377Y141223D01*
G37*
%LPD*%
%LPC*%
G36*
X861377Y166623D02*
X861377Y166623D01*
X857269Y168325D01*
X854125Y171469D01*
X852423Y175577D01*
X852423Y180023D01*
X854125Y184131D01*
X857269Y187275D01*
X861377Y188977D01*
X865823Y188977D01*
X869931Y187275D01*
X873075Y184131D01*
X874777Y180023D01*
X874777Y175577D01*
X873075Y171469D01*
X869931Y168325D01*
X865823Y166623D01*
X861377Y166623D01*
G37*
%LPD*%
%LPC*%
G36*
X609917Y136143D02*
X609917Y136143D01*
X605809Y137845D01*
X602665Y140989D01*
X600963Y145097D01*
X600963Y149543D01*
X602665Y153651D01*
X605809Y156795D01*
X609917Y158497D01*
X614363Y158497D01*
X618471Y156795D01*
X621615Y153651D01*
X623317Y149543D01*
X623317Y145097D01*
X621615Y140989D01*
X618471Y137845D01*
X614363Y136143D01*
X609917Y136143D01*
G37*
%LPD*%
%LPC*%
G36*
X595435Y647445D02*
X595435Y647445D01*
X592727Y648567D01*
X590655Y650639D01*
X589533Y653347D01*
X589533Y667453D01*
X590655Y670161D01*
X592727Y672233D01*
X595435Y673355D01*
X598365Y673355D01*
X601073Y672233D01*
X603145Y670161D01*
X604267Y667453D01*
X604267Y653347D01*
X603145Y650639D01*
X601073Y648567D01*
X598365Y647445D01*
X595435Y647445D01*
G37*
%LPD*%
%LPC*%
G36*
X511047Y726147D02*
X511047Y726147D01*
X511047Y747040D01*
X512049Y746927D01*
X514691Y746324D01*
X517249Y745429D01*
X519691Y744253D01*
X521986Y742811D01*
X524105Y741121D01*
X526021Y739205D01*
X527711Y737086D01*
X529153Y734791D01*
X530329Y732349D01*
X531224Y729791D01*
X531827Y727149D01*
X531940Y726147D01*
X511047Y726147D01*
G37*
%LPD*%
%LPC*%
G36*
X358647Y726147D02*
X358647Y726147D01*
X358647Y747040D01*
X359649Y746927D01*
X362291Y746324D01*
X364849Y745429D01*
X367291Y744253D01*
X369586Y742811D01*
X371705Y741121D01*
X373621Y739205D01*
X375311Y737086D01*
X376753Y734791D01*
X377929Y732349D01*
X378824Y729791D01*
X379427Y727149D01*
X379540Y726147D01*
X358647Y726147D01*
G37*
%LPD*%
%LPC*%
G36*
X311647Y696147D02*
X311647Y696147D01*
X311647Y717040D01*
X312649Y716927D01*
X315291Y716324D01*
X317849Y715429D01*
X320291Y714253D01*
X322586Y712811D01*
X324705Y711121D01*
X326621Y709205D01*
X328311Y707086D01*
X329753Y704791D01*
X330929Y702349D01*
X331824Y699791D01*
X332427Y697149D01*
X332540Y696147D01*
X311647Y696147D01*
G37*
%LPD*%
%LPC*%
G36*
X464047Y696147D02*
X464047Y696147D01*
X464047Y717040D01*
X465049Y716927D01*
X467691Y716324D01*
X470249Y715429D01*
X472691Y714253D01*
X474986Y712811D01*
X477105Y711121D01*
X479021Y709205D01*
X480711Y707086D01*
X482153Y704791D01*
X483329Y702349D01*
X484224Y699791D01*
X484827Y697149D01*
X484940Y696147D01*
X464047Y696147D01*
G37*
%LPD*%
%LPC*%
G36*
X331660Y726147D02*
X331660Y726147D01*
X331773Y727148D01*
X332376Y729791D01*
X333271Y732349D01*
X334447Y734791D01*
X335889Y737086D01*
X337579Y739205D01*
X339495Y741121D01*
X341614Y742811D01*
X343909Y744253D01*
X346351Y745429D01*
X348909Y746324D01*
X351551Y746927D01*
X352553Y747040D01*
X352553Y726147D01*
X331660Y726147D01*
G37*
%LPD*%
%LPC*%
G36*
X464047Y690053D02*
X464047Y690053D01*
X484940Y690053D01*
X484827Y689051D01*
X484224Y686409D01*
X483329Y683851D01*
X482153Y681409D01*
X480711Y679114D01*
X479021Y676995D01*
X477105Y675079D01*
X474986Y673389D01*
X472691Y671947D01*
X470249Y670771D01*
X467691Y669876D01*
X465048Y669273D01*
X464047Y669160D01*
X464047Y690053D01*
G37*
%LPD*%
%LPC*%
G36*
X484060Y726147D02*
X484060Y726147D01*
X484173Y727148D01*
X484776Y729791D01*
X485671Y732349D01*
X486847Y734791D01*
X488289Y737086D01*
X489979Y739205D01*
X491895Y741121D01*
X494014Y742811D01*
X496309Y744253D01*
X498751Y745429D01*
X501309Y746324D01*
X503951Y746927D01*
X504953Y747040D01*
X504953Y726147D01*
X484060Y726147D01*
G37*
%LPD*%
%LPC*%
G36*
X311647Y690053D02*
X311647Y690053D01*
X332540Y690053D01*
X332427Y689051D01*
X331824Y686409D01*
X330929Y683851D01*
X329753Y681409D01*
X328311Y679114D01*
X326621Y676995D01*
X324705Y675079D01*
X322586Y673389D01*
X320291Y671947D01*
X317849Y670771D01*
X315291Y669876D01*
X312648Y669273D01*
X311647Y669160D01*
X311647Y690053D01*
G37*
%LPD*%
%LPC*%
G36*
X358647Y720053D02*
X358647Y720053D01*
X379540Y720053D01*
X379427Y719051D01*
X378824Y716409D01*
X377929Y713851D01*
X376753Y711409D01*
X375311Y709114D01*
X373621Y706995D01*
X371705Y705079D01*
X369586Y703389D01*
X367291Y701947D01*
X364849Y700771D01*
X362291Y699876D01*
X359648Y699273D01*
X358647Y699160D01*
X358647Y720053D01*
G37*
%LPD*%
%LPC*%
G36*
X511047Y720053D02*
X511047Y720053D01*
X531940Y720053D01*
X531827Y719051D01*
X531224Y716409D01*
X530329Y713851D01*
X529153Y711409D01*
X527711Y709114D01*
X526021Y706995D01*
X524105Y705079D01*
X521986Y703389D01*
X519691Y701947D01*
X517249Y700771D01*
X514691Y699876D01*
X512048Y699273D01*
X511047Y699160D01*
X511047Y720053D01*
G37*
%LPD*%
%LPC*%
G36*
X284660Y696147D02*
X284660Y696147D01*
X284773Y697148D01*
X285376Y699791D01*
X286271Y702349D01*
X287447Y704791D01*
X288889Y707086D01*
X290579Y709205D01*
X292495Y711121D01*
X294614Y712811D01*
X296909Y714253D01*
X299351Y715429D01*
X301909Y716324D01*
X304551Y716927D01*
X305553Y717040D01*
X305553Y696147D01*
X284660Y696147D01*
G37*
%LPD*%
%LPC*%
G36*
X437060Y696147D02*
X437060Y696147D01*
X437173Y697148D01*
X437776Y699791D01*
X438671Y702349D01*
X439847Y704791D01*
X441289Y707086D01*
X442979Y709205D01*
X444895Y711121D01*
X447014Y712811D01*
X449309Y714253D01*
X451751Y715429D01*
X454309Y716324D01*
X456951Y716927D01*
X457953Y717040D01*
X457953Y696147D01*
X437060Y696147D01*
G37*
%LPD*%
%LPC*%
G36*
X351552Y699273D02*
X351552Y699273D01*
X348909Y699876D01*
X346351Y700771D01*
X343909Y701947D01*
X341614Y703389D01*
X339495Y705079D01*
X337579Y706995D01*
X335889Y709114D01*
X334447Y711409D01*
X333271Y713851D01*
X332376Y716409D01*
X331773Y719052D01*
X331660Y720053D01*
X352553Y720053D01*
X352553Y699160D01*
X351552Y699273D01*
G37*
%LPD*%
%LPC*%
G36*
X503952Y699273D02*
X503952Y699273D01*
X501309Y699876D01*
X498751Y700771D01*
X496309Y701947D01*
X494014Y703389D01*
X491895Y705079D01*
X489979Y706995D01*
X488289Y709114D01*
X486847Y711409D01*
X485671Y713851D01*
X484776Y716409D01*
X484173Y719052D01*
X484060Y720053D01*
X504953Y720053D01*
X504953Y699160D01*
X503952Y699273D01*
G37*
%LPD*%
%LPC*%
G36*
X304552Y669273D02*
X304552Y669273D01*
X301909Y669876D01*
X299351Y670771D01*
X296909Y671947D01*
X294614Y673389D01*
X292495Y675079D01*
X290579Y676995D01*
X288889Y679114D01*
X287447Y681409D01*
X286271Y683851D01*
X285376Y686409D01*
X284773Y689052D01*
X284660Y690053D01*
X305553Y690053D01*
X305553Y669160D01*
X304552Y669273D01*
G37*
%LPD*%
%LPC*%
G36*
X456952Y669273D02*
X456952Y669273D01*
X454309Y669876D01*
X451751Y670771D01*
X449309Y671947D01*
X447014Y673389D01*
X444895Y675079D01*
X442979Y676995D01*
X441289Y679114D01*
X439847Y681409D01*
X438671Y683851D01*
X437776Y686409D01*
X437173Y689052D01*
X437060Y690053D01*
X457953Y690053D01*
X457953Y669160D01*
X456952Y669273D01*
G37*
%LPD*%
%LPC*%
G36*
X155447Y612647D02*
X155447Y612647D01*
X155447Y638700D01*
X155519Y638690D01*
X157539Y638149D01*
X159470Y637349D01*
X161282Y636303D01*
X162940Y635030D01*
X164419Y633552D01*
X165692Y631893D01*
X166738Y630082D01*
X167538Y628150D01*
X168079Y626130D01*
X168352Y624057D01*
X168352Y612647D01*
X155447Y612647D01*
G37*
%LPD*%
%LPC*%
G36*
X155447Y606553D02*
X155447Y606553D01*
X168352Y606553D01*
X168352Y595143D01*
X168079Y593070D01*
X167538Y591050D01*
X166738Y589118D01*
X165692Y587307D01*
X164774Y586111D01*
X164774Y586110D01*
X164773Y586110D01*
X164419Y585648D01*
X162940Y584170D01*
X161282Y582897D01*
X159470Y581851D01*
X157539Y581051D01*
X155519Y580510D01*
X155447Y580500D01*
X155447Y606553D01*
G37*
%LPD*%
%LPC*%
G36*
X136448Y612647D02*
X136448Y612647D01*
X136448Y624057D01*
X136721Y626130D01*
X137262Y628150D01*
X138062Y630082D01*
X139108Y631893D01*
X139959Y633002D01*
X140381Y633552D01*
X141860Y635030D01*
X143518Y636303D01*
X145330Y637349D01*
X147261Y638149D01*
X149281Y638690D01*
X149353Y638700D01*
X149353Y612647D01*
X136448Y612647D01*
G37*
%LPD*%
%LPC*%
G36*
X149281Y580510D02*
X149281Y580510D01*
X147261Y581051D01*
X145330Y581851D01*
X143518Y582897D01*
X141860Y584170D01*
X140381Y585648D01*
X139108Y587307D01*
X138062Y589118D01*
X137262Y591050D01*
X136721Y593070D01*
X136448Y595143D01*
X136448Y606553D01*
X149353Y606553D01*
X149353Y580500D01*
X149281Y580510D01*
G37*
%LPD*%
%LPC*%
G36*
X900594Y151919D02*
X900594Y151919D01*
X898550Y152766D01*
X896986Y154330D01*
X896139Y156374D01*
X896139Y158586D01*
X896986Y160630D01*
X898550Y162194D01*
X900594Y163041D01*
X902806Y163041D01*
X904850Y162194D01*
X906323Y160721D01*
X906422Y160642D01*
X906516Y160558D01*
X906558Y160534D01*
X906596Y160504D01*
X906710Y160450D01*
X906821Y160389D01*
X906868Y160376D01*
X906911Y160355D01*
X907035Y160329D01*
X907157Y160294D01*
X907217Y160289D01*
X907252Y160282D01*
X907300Y160283D01*
X907400Y160275D01*
X916320Y160275D01*
X916445Y160289D01*
X916572Y160296D01*
X916618Y160309D01*
X916666Y160315D01*
X916785Y160357D01*
X916906Y160392D01*
X916949Y160416D01*
X916994Y160432D01*
X917100Y160501D01*
X917211Y160562D01*
X917257Y160602D01*
X917287Y160621D01*
X917320Y160656D01*
X917397Y160721D01*
X918870Y162194D01*
X920914Y163041D01*
X923126Y163041D01*
X925170Y162194D01*
X926734Y160630D01*
X927581Y158586D01*
X927581Y156374D01*
X926734Y154330D01*
X925170Y152766D01*
X923126Y151919D01*
X920914Y151919D01*
X918870Y152766D01*
X917397Y154239D01*
X917298Y154318D01*
X917204Y154402D01*
X917162Y154426D01*
X917124Y154456D01*
X917010Y154510D01*
X916899Y154571D01*
X916852Y154584D01*
X916809Y154605D01*
X916685Y154631D01*
X916563Y154666D01*
X916503Y154671D01*
X916468Y154678D01*
X916420Y154677D01*
X916320Y154685D01*
X907400Y154685D01*
X907275Y154671D01*
X907148Y154664D01*
X907102Y154651D01*
X907054Y154645D01*
X906935Y154603D01*
X906814Y154568D01*
X906771Y154544D01*
X906726Y154528D01*
X906620Y154459D01*
X906509Y154398D01*
X906463Y154358D01*
X906433Y154339D01*
X906400Y154304D01*
X906323Y154239D01*
X904850Y152766D01*
X902806Y151919D01*
X900594Y151919D01*
G37*
%LPD*%
%LPC*%
G36*
X977760Y282155D02*
X977760Y282155D01*
X974730Y283411D01*
X972411Y285730D01*
X971155Y288760D01*
X971155Y292040D01*
X972411Y295070D01*
X974730Y297389D01*
X977760Y298645D01*
X981040Y298645D01*
X984070Y297389D01*
X986389Y295070D01*
X987645Y292040D01*
X987645Y288760D01*
X986389Y285730D01*
X984070Y283411D01*
X981040Y282155D01*
X977760Y282155D01*
G37*
%LPD*%
%LPC*%
G36*
X949360Y212905D02*
X949360Y212905D01*
X946330Y214161D01*
X944011Y216480D01*
X942755Y219510D01*
X942755Y222790D01*
X944011Y225820D01*
X946330Y228139D01*
X949360Y229395D01*
X952640Y229395D01*
X955670Y228139D01*
X957989Y225820D01*
X959245Y222790D01*
X959245Y219510D01*
X957989Y216480D01*
X955670Y214161D01*
X952640Y212905D01*
X949360Y212905D01*
G37*
%LPD*%
%LPC*%
G36*
X977760Y254455D02*
X977760Y254455D01*
X974730Y255711D01*
X972411Y258030D01*
X971155Y261060D01*
X971155Y264340D01*
X972411Y267370D01*
X974730Y269689D01*
X977760Y270945D01*
X981040Y270945D01*
X984070Y269689D01*
X986389Y267370D01*
X987645Y264340D01*
X987645Y261060D01*
X986389Y258030D01*
X984070Y255711D01*
X981040Y254455D01*
X977760Y254455D01*
G37*
%LPD*%
%LPC*%
G36*
X977760Y503755D02*
X977760Y503755D01*
X974730Y505011D01*
X972411Y507330D01*
X971155Y510360D01*
X971155Y513640D01*
X972411Y516670D01*
X974730Y518989D01*
X977760Y520245D01*
X981040Y520245D01*
X984070Y518989D01*
X986389Y516670D01*
X987645Y513640D01*
X987645Y510360D01*
X986389Y507330D01*
X984070Y505011D01*
X981040Y503755D01*
X977760Y503755D01*
G37*
%LPD*%
%LPC*%
G36*
X949360Y240605D02*
X949360Y240605D01*
X946330Y241861D01*
X944011Y244180D01*
X942755Y247210D01*
X942755Y250490D01*
X944011Y253520D01*
X946330Y255839D01*
X949360Y257095D01*
X952640Y257095D01*
X955670Y255839D01*
X957989Y253520D01*
X959245Y250490D01*
X959245Y247210D01*
X957989Y244180D01*
X955670Y241861D01*
X952640Y240605D01*
X949360Y240605D01*
G37*
%LPD*%
%LPC*%
G36*
X977760Y226755D02*
X977760Y226755D01*
X974730Y228011D01*
X972411Y230330D01*
X971155Y233360D01*
X971155Y236640D01*
X972411Y239670D01*
X974730Y241989D01*
X977760Y243245D01*
X981040Y243245D01*
X984070Y241989D01*
X986389Y239670D01*
X987645Y236640D01*
X987645Y233360D01*
X986389Y230330D01*
X984070Y228011D01*
X981040Y226755D01*
X977760Y226755D01*
G37*
%LPD*%
%LPC*%
G36*
X977760Y476055D02*
X977760Y476055D01*
X974730Y477311D01*
X972411Y479630D01*
X971155Y482660D01*
X971155Y485940D01*
X972411Y488970D01*
X974730Y491289D01*
X977760Y492545D01*
X981040Y492545D01*
X984070Y491289D01*
X986389Y488970D01*
X987645Y485940D01*
X987645Y482660D01*
X986389Y479630D01*
X984070Y477311D01*
X981040Y476055D01*
X977760Y476055D01*
G37*
%LPD*%
%LPC*%
G36*
X977760Y448355D02*
X977760Y448355D01*
X974730Y449611D01*
X972411Y451930D01*
X971155Y454960D01*
X971155Y458240D01*
X972411Y461270D01*
X974730Y463589D01*
X977760Y464845D01*
X981040Y464845D01*
X984070Y463589D01*
X986389Y461270D01*
X987645Y458240D01*
X987645Y454960D01*
X986389Y451930D01*
X984070Y449611D01*
X981040Y448355D01*
X977760Y448355D01*
G37*
%LPD*%
%LPC*%
G36*
X977760Y337555D02*
X977760Y337555D01*
X974730Y338811D01*
X972411Y341130D01*
X971155Y344160D01*
X971155Y347440D01*
X972411Y350470D01*
X974730Y352789D01*
X977760Y354045D01*
X981040Y354045D01*
X984070Y352789D01*
X986389Y350470D01*
X987645Y347440D01*
X987645Y344160D01*
X986389Y341130D01*
X984070Y338811D01*
X981040Y337555D01*
X977760Y337555D01*
G37*
%LPD*%
%LPC*%
G36*
X977760Y531455D02*
X977760Y531455D01*
X974730Y532711D01*
X972411Y535030D01*
X971155Y538060D01*
X971155Y541340D01*
X972411Y544370D01*
X974730Y546689D01*
X977760Y547945D01*
X981040Y547945D01*
X984070Y546689D01*
X986389Y544370D01*
X987645Y541340D01*
X987645Y538060D01*
X986389Y535030D01*
X984070Y532711D01*
X981040Y531455D01*
X977760Y531455D01*
G37*
%LPD*%
%LPC*%
G36*
X977760Y309855D02*
X977760Y309855D01*
X974730Y311111D01*
X972411Y313430D01*
X971155Y316460D01*
X971155Y319740D01*
X972411Y322770D01*
X974730Y325089D01*
X977760Y326345D01*
X981040Y326345D01*
X984070Y325089D01*
X986389Y322770D01*
X987645Y319740D01*
X987645Y316460D01*
X986389Y313430D01*
X984070Y311111D01*
X981040Y309855D01*
X977760Y309855D01*
G37*
%LPD*%
%LPC*%
G36*
X394410Y41055D02*
X394410Y41055D01*
X391380Y42311D01*
X389061Y44630D01*
X387805Y47660D01*
X387805Y50940D01*
X389061Y53970D01*
X391380Y56289D01*
X394410Y57545D01*
X397690Y57545D01*
X400720Y56289D01*
X403039Y53970D01*
X404295Y50940D01*
X404295Y47660D01*
X403039Y44630D01*
X400720Y42311D01*
X397690Y41055D01*
X394410Y41055D01*
G37*
%LPD*%
%LPC*%
G36*
X740660Y69455D02*
X740660Y69455D01*
X737630Y70711D01*
X735311Y73030D01*
X734055Y76060D01*
X734055Y79340D01*
X735311Y82370D01*
X737630Y84689D01*
X740660Y85945D01*
X743940Y85945D01*
X746970Y84689D01*
X749289Y82370D01*
X750545Y79340D01*
X750545Y76060D01*
X749289Y73030D01*
X746970Y70711D01*
X743940Y69455D01*
X740660Y69455D01*
G37*
%LPD*%
%LPC*%
G36*
X463660Y69455D02*
X463660Y69455D01*
X460630Y70711D01*
X458311Y73030D01*
X457055Y76060D01*
X457055Y79340D01*
X458311Y82370D01*
X460630Y84689D01*
X463660Y85945D01*
X466940Y85945D01*
X469970Y84689D01*
X472289Y82370D01*
X473545Y79340D01*
X473545Y76060D01*
X472289Y73030D01*
X469970Y70711D01*
X466940Y69455D01*
X463660Y69455D01*
G37*
%LPD*%
%LPC*%
G36*
X435960Y69455D02*
X435960Y69455D01*
X432930Y70711D01*
X430611Y73030D01*
X429355Y76060D01*
X429355Y79340D01*
X430611Y82370D01*
X432930Y84689D01*
X435960Y85945D01*
X439240Y85945D01*
X442270Y84689D01*
X444589Y82370D01*
X445845Y79340D01*
X445845Y76060D01*
X444589Y73030D01*
X442270Y70711D01*
X439240Y69455D01*
X435960Y69455D01*
G37*
%LPD*%
%LPC*%
G36*
X408260Y69455D02*
X408260Y69455D01*
X405230Y70711D01*
X402911Y73030D01*
X401655Y76060D01*
X401655Y79340D01*
X402911Y82370D01*
X405230Y84689D01*
X408260Y85945D01*
X411540Y85945D01*
X414570Y84689D01*
X416889Y82370D01*
X418145Y79340D01*
X418145Y76060D01*
X416889Y73030D01*
X414570Y70711D01*
X411540Y69455D01*
X408260Y69455D01*
G37*
%LPD*%
%LPC*%
G36*
X269760Y69455D02*
X269760Y69455D01*
X266730Y70711D01*
X264411Y73030D01*
X263155Y76060D01*
X263155Y79340D01*
X264411Y82370D01*
X266730Y84689D01*
X269760Y85945D01*
X273040Y85945D01*
X276070Y84689D01*
X278389Y82370D01*
X279645Y79340D01*
X279645Y76060D01*
X278389Y73030D01*
X276070Y70711D01*
X273040Y69455D01*
X269760Y69455D01*
G37*
%LPD*%
%LPC*%
G36*
X283610Y41055D02*
X283610Y41055D01*
X280580Y42311D01*
X278261Y44630D01*
X277005Y47660D01*
X277005Y50940D01*
X278261Y53970D01*
X280580Y56289D01*
X283610Y57545D01*
X286890Y57545D01*
X289920Y56289D01*
X292239Y53970D01*
X293495Y50940D01*
X293495Y47660D01*
X292239Y44630D01*
X289920Y42311D01*
X286890Y41055D01*
X283610Y41055D01*
G37*
%LPD*%
%LPC*%
G36*
X422110Y41055D02*
X422110Y41055D01*
X419080Y42311D01*
X416761Y44630D01*
X415505Y47660D01*
X415505Y50940D01*
X416761Y53970D01*
X419080Y56289D01*
X422110Y57545D01*
X425390Y57545D01*
X428420Y56289D01*
X430739Y53970D01*
X431995Y50940D01*
X431995Y47660D01*
X430739Y44630D01*
X428420Y42311D01*
X425390Y41055D01*
X422110Y41055D01*
G37*
%LPD*%
%LPC*%
G36*
X477510Y41055D02*
X477510Y41055D01*
X474480Y42311D01*
X472161Y44630D01*
X470905Y47660D01*
X470905Y50940D01*
X472161Y53970D01*
X474480Y56289D01*
X477510Y57545D01*
X480790Y57545D01*
X483820Y56289D01*
X486139Y53970D01*
X487395Y50940D01*
X487395Y47660D01*
X486139Y44630D01*
X483820Y42311D01*
X480790Y41055D01*
X477510Y41055D01*
G37*
%LPD*%
%LPC*%
G36*
X532910Y41055D02*
X532910Y41055D01*
X529880Y42311D01*
X527561Y44630D01*
X526305Y47660D01*
X526305Y50940D01*
X527561Y53970D01*
X529880Y56289D01*
X532910Y57545D01*
X536190Y57545D01*
X539220Y56289D01*
X541539Y53970D01*
X542795Y50940D01*
X542795Y47660D01*
X541539Y44630D01*
X539220Y42311D01*
X536190Y41055D01*
X532910Y41055D01*
G37*
%LPD*%
%LPC*%
G36*
X588310Y41055D02*
X588310Y41055D01*
X585280Y42311D01*
X582961Y44630D01*
X581705Y47660D01*
X581705Y50940D01*
X582961Y53970D01*
X585280Y56289D01*
X588310Y57545D01*
X591590Y57545D01*
X594620Y56289D01*
X596939Y53970D01*
X598195Y50940D01*
X598195Y47660D01*
X596939Y44630D01*
X594620Y42311D01*
X591590Y41055D01*
X588310Y41055D01*
G37*
%LPD*%
%LPC*%
G36*
X616010Y41055D02*
X616010Y41055D01*
X612980Y42311D01*
X610661Y44630D01*
X609405Y47660D01*
X609405Y50940D01*
X610661Y53970D01*
X612980Y56289D01*
X616010Y57545D01*
X619290Y57545D01*
X622320Y56289D01*
X624639Y53970D01*
X625895Y50940D01*
X625895Y47660D01*
X624639Y44630D01*
X622320Y42311D01*
X619290Y41055D01*
X616010Y41055D01*
G37*
%LPD*%
%LPC*%
G36*
X643710Y41055D02*
X643710Y41055D01*
X640680Y42311D01*
X638361Y44630D01*
X637105Y47660D01*
X637105Y50940D01*
X638361Y53970D01*
X640680Y56289D01*
X643710Y57545D01*
X646990Y57545D01*
X650020Y56289D01*
X652339Y53970D01*
X653595Y50940D01*
X653595Y47660D01*
X652339Y44630D01*
X650020Y42311D01*
X646990Y41055D01*
X643710Y41055D01*
G37*
%LPD*%
%LPC*%
G36*
X560610Y41055D02*
X560610Y41055D01*
X557580Y42311D01*
X555261Y44630D01*
X554005Y47660D01*
X554005Y50940D01*
X555261Y53970D01*
X557580Y56289D01*
X560610Y57545D01*
X563890Y57545D01*
X566920Y56289D01*
X569239Y53970D01*
X570495Y50940D01*
X570495Y47660D01*
X569239Y44630D01*
X566920Y42311D01*
X563890Y41055D01*
X560610Y41055D01*
G37*
%LPD*%
%LPC*%
G36*
X841247Y66547D02*
X841247Y66547D01*
X841247Y82581D01*
X841976Y82485D01*
X844422Y81830D01*
X846761Y80861D01*
X848954Y79595D01*
X850963Y78053D01*
X852753Y76263D01*
X854295Y74254D01*
X855561Y72061D01*
X856530Y69722D01*
X857185Y67276D01*
X857281Y66547D01*
X841247Y66547D01*
G37*
%LPD*%
%LPC*%
G36*
X206247Y66547D02*
X206247Y66547D01*
X206247Y82581D01*
X206976Y82485D01*
X209422Y81830D01*
X211761Y80861D01*
X213954Y79595D01*
X215963Y78053D01*
X217753Y76263D01*
X219295Y74254D01*
X220561Y72061D01*
X221530Y69722D01*
X222185Y67276D01*
X222281Y66547D01*
X206247Y66547D01*
G37*
%LPD*%
%LPC*%
G36*
X841247Y60453D02*
X841247Y60453D01*
X857281Y60453D01*
X857185Y59724D01*
X856530Y57278D01*
X855561Y54939D01*
X854295Y52746D01*
X852753Y50737D01*
X850963Y48947D01*
X848954Y47405D01*
X846761Y46139D01*
X844422Y45170D01*
X841976Y44515D01*
X841247Y44419D01*
X841247Y60453D01*
G37*
%LPD*%
%LPC*%
G36*
X206247Y60453D02*
X206247Y60453D01*
X222281Y60453D01*
X222185Y59724D01*
X221530Y57278D01*
X220561Y54939D01*
X219295Y52746D01*
X217753Y50737D01*
X215963Y48947D01*
X213954Y47405D01*
X211761Y46139D01*
X209422Y45170D01*
X206976Y44515D01*
X206247Y44419D01*
X206247Y60453D01*
G37*
%LPD*%
%LPC*%
G36*
X819119Y66547D02*
X819119Y66547D01*
X819215Y67276D01*
X819870Y69722D01*
X820839Y72061D01*
X822105Y74254D01*
X823647Y76263D01*
X825437Y78053D01*
X827446Y79595D01*
X829639Y80861D01*
X831978Y81830D01*
X834424Y82485D01*
X835153Y82581D01*
X835153Y66547D01*
X819119Y66547D01*
G37*
%LPD*%
%LPC*%
G36*
X184119Y66547D02*
X184119Y66547D01*
X184215Y67276D01*
X184870Y69722D01*
X185839Y72061D01*
X187105Y74254D01*
X188647Y76263D01*
X190437Y78053D01*
X192446Y79595D01*
X194639Y80861D01*
X196978Y81830D01*
X199424Y82485D01*
X200153Y82581D01*
X200153Y66547D01*
X184119Y66547D01*
G37*
%LPD*%
%LPC*%
G36*
X199424Y44515D02*
X199424Y44515D01*
X196978Y45170D01*
X194639Y46139D01*
X192446Y47405D01*
X190437Y48947D01*
X188647Y50737D01*
X187105Y52746D01*
X185839Y54939D01*
X184870Y57278D01*
X184215Y59724D01*
X184119Y60453D01*
X200153Y60453D01*
X200153Y44419D01*
X199424Y44515D01*
G37*
%LPD*%
%LPC*%
G36*
X834424Y44515D02*
X834424Y44515D01*
X831978Y45170D01*
X829639Y46139D01*
X827446Y47405D01*
X825437Y48947D01*
X823647Y50737D01*
X822105Y52746D01*
X820839Y54939D01*
X819870Y57278D01*
X819215Y59724D01*
X819119Y60453D01*
X835153Y60453D01*
X835153Y44419D01*
X834424Y44515D01*
G37*
%LPD*%
%LPC*%
G36*
X385986Y532891D02*
X385986Y532891D01*
X383465Y533935D01*
X381535Y535865D01*
X380491Y538386D01*
X380491Y541114D01*
X381535Y543635D01*
X383465Y545565D01*
X385986Y546609D01*
X388714Y546609D01*
X391235Y545565D01*
X393165Y543635D01*
X394209Y541114D01*
X394209Y538386D01*
X393165Y535865D01*
X391235Y533935D01*
X388714Y532891D01*
X385986Y532891D01*
G37*
%LPD*%
%LPC*%
G36*
X385986Y405891D02*
X385986Y405891D01*
X383465Y406935D01*
X381535Y408865D01*
X380491Y411386D01*
X380491Y414114D01*
X381535Y416635D01*
X383465Y418565D01*
X385986Y419609D01*
X388714Y419609D01*
X391235Y418565D01*
X393165Y416635D01*
X394209Y414114D01*
X394209Y411386D01*
X393165Y408865D01*
X391235Y406935D01*
X388714Y405891D01*
X385986Y405891D01*
G37*
%LPD*%
%LPC*%
G36*
X360586Y405891D02*
X360586Y405891D01*
X358065Y406935D01*
X356135Y408865D01*
X355091Y411386D01*
X355091Y414114D01*
X356135Y416635D01*
X358065Y418565D01*
X360586Y419609D01*
X363314Y419609D01*
X365835Y418565D01*
X367765Y416635D01*
X368809Y414114D01*
X368809Y411386D01*
X367765Y408865D01*
X365835Y406935D01*
X363314Y405891D01*
X360586Y405891D01*
G37*
%LPD*%
%LPC*%
G36*
X360586Y532891D02*
X360586Y532891D01*
X358065Y533935D01*
X356135Y535865D01*
X355091Y538386D01*
X355091Y541114D01*
X356135Y543635D01*
X358065Y545565D01*
X360586Y546609D01*
X363314Y546609D01*
X365835Y545565D01*
X367765Y543635D01*
X368809Y541114D01*
X368809Y538386D01*
X367765Y535865D01*
X365835Y533935D01*
X363314Y532891D01*
X360586Y532891D01*
G37*
%LPD*%
%LPC*%
G36*
X360586Y278891D02*
X360586Y278891D01*
X358065Y279935D01*
X356135Y281865D01*
X355091Y284386D01*
X355091Y287114D01*
X356135Y289635D01*
X358065Y291565D01*
X360586Y292609D01*
X363314Y292609D01*
X365835Y291565D01*
X367765Y289635D01*
X368809Y287114D01*
X368809Y284386D01*
X367765Y281865D01*
X365835Y279935D01*
X363314Y278891D01*
X360586Y278891D01*
G37*
%LPD*%
%LPC*%
G36*
X385986Y278891D02*
X385986Y278891D01*
X383465Y279935D01*
X381535Y281865D01*
X380491Y284386D01*
X380491Y287114D01*
X381535Y289635D01*
X383465Y291565D01*
X385986Y292609D01*
X388714Y292609D01*
X391235Y291565D01*
X393165Y289635D01*
X394209Y287114D01*
X394209Y284386D01*
X393165Y281865D01*
X391235Y279935D01*
X388714Y278891D01*
X385986Y278891D01*
G37*
%LPD*%
%LPC*%
G36*
X231599Y714199D02*
X231599Y714199D01*
X231599Y723901D01*
X239095Y723901D01*
X239741Y723728D01*
X240320Y723393D01*
X240793Y722920D01*
X241128Y722341D01*
X241301Y721695D01*
X241301Y714199D01*
X231599Y714199D01*
G37*
%LPD*%
%LPC*%
G36*
X231599Y698499D02*
X231599Y698499D01*
X231599Y708201D01*
X241301Y708201D01*
X241301Y700705D01*
X241128Y700059D01*
X240793Y699480D01*
X240320Y699007D01*
X239741Y698672D01*
X239095Y698499D01*
X231599Y698499D01*
G37*
%LPD*%
%LPC*%
G36*
X215899Y714199D02*
X215899Y714199D01*
X215899Y721695D01*
X216072Y722341D01*
X216407Y722920D01*
X216880Y723393D01*
X217459Y723728D01*
X218105Y723901D01*
X225601Y723901D01*
X225601Y714199D01*
X215899Y714199D01*
G37*
%LPD*%
%LPC*%
G36*
X218105Y698499D02*
X218105Y698499D01*
X217459Y698672D01*
X216880Y699007D01*
X216407Y699480D01*
X216072Y700059D01*
X215899Y700705D01*
X215899Y708201D01*
X225601Y708201D01*
X225601Y698499D01*
X218105Y698499D01*
G37*
%LPD*%
%LPC*%
G36*
X663447Y714247D02*
X663447Y714247D01*
X663447Y724536D01*
X665924Y724536D01*
X673736Y716724D01*
X673736Y714247D01*
X663447Y714247D01*
G37*
%LPD*%
%LPC*%
G36*
X130047Y22097D02*
X130047Y22097D01*
X130047Y32386D01*
X132524Y32386D01*
X140336Y24574D01*
X140336Y22097D01*
X130047Y22097D01*
G37*
%LPD*%
%LPC*%
G36*
X113664Y22097D02*
X113664Y22097D01*
X113664Y24574D01*
X121476Y32386D01*
X123953Y32386D01*
X123953Y22097D01*
X113664Y22097D01*
G37*
%LPD*%
%LPC*%
G36*
X647064Y714247D02*
X647064Y714247D01*
X647064Y716724D01*
X654876Y724536D01*
X657353Y724536D01*
X657353Y714247D01*
X647064Y714247D01*
G37*
%LPD*%
%LPC*%
G36*
X663447Y697864D02*
X663447Y697864D01*
X663447Y708153D01*
X673736Y708153D01*
X673736Y705676D01*
X665924Y697864D01*
X663447Y697864D01*
G37*
%LPD*%
%LPC*%
G36*
X654876Y697864D02*
X654876Y697864D01*
X647064Y705676D01*
X647064Y708153D01*
X657353Y708153D01*
X657353Y697864D01*
X654876Y697864D01*
G37*
%LPD*%
%LPC*%
G36*
X895349Y269241D02*
X895349Y269241D01*
X904495Y269241D01*
X904455Y268984D01*
X903874Y267197D01*
X903021Y265523D01*
X901916Y264002D01*
X900588Y262674D01*
X899067Y261569D01*
X897393Y260716D01*
X895606Y260135D01*
X895349Y260095D01*
X895349Y269241D01*
G37*
%LPD*%
%LPC*%
G36*
X890014Y260135D02*
X890014Y260135D01*
X888227Y260716D01*
X886553Y261569D01*
X885032Y262674D01*
X883704Y264002D01*
X882599Y265523D01*
X881746Y267197D01*
X881165Y268984D01*
X881125Y269241D01*
X890271Y269241D01*
X890271Y260095D01*
X890014Y260135D01*
G37*
%LPD*%
%LPC*%
G36*
X141985Y726185D02*
X141985Y726185D01*
X141985Y737321D01*
X142071Y737304D01*
X143550Y736692D01*
X144882Y735802D01*
X146014Y734670D01*
X146904Y733338D01*
X147516Y731859D01*
X147829Y730289D01*
X147829Y726185D01*
X141985Y726185D01*
G37*
%LPD*%
%LPC*%
G36*
X116585Y726185D02*
X116585Y726185D01*
X116585Y737321D01*
X116671Y737304D01*
X118150Y736692D01*
X119482Y735802D01*
X120614Y734670D01*
X121504Y733338D01*
X122116Y731859D01*
X122429Y730289D01*
X122429Y726185D01*
X116585Y726185D01*
G37*
%LPD*%
%LPC*%
G36*
X116585Y721615D02*
X116585Y721615D01*
X122429Y721615D01*
X122429Y717511D01*
X122223Y716479D01*
X122116Y715941D01*
X121504Y714462D01*
X120614Y713130D01*
X119482Y711998D01*
X118150Y711108D01*
X116671Y710496D01*
X116585Y710479D01*
X116585Y721615D01*
G37*
%LPD*%
%LPC*%
G36*
X141985Y721615D02*
X141985Y721615D01*
X147829Y721615D01*
X147829Y717511D01*
X147623Y716479D01*
X147516Y715941D01*
X146904Y714462D01*
X146014Y713130D01*
X144882Y711998D01*
X143550Y711108D01*
X142071Y710496D01*
X141985Y710479D01*
X141985Y721615D01*
G37*
%LPD*%
%LPC*%
G36*
X131571Y726185D02*
X131571Y726185D01*
X131571Y730289D01*
X131737Y731121D01*
X131884Y731859D01*
X132496Y733338D01*
X133386Y734670D01*
X134518Y735802D01*
X135850Y736692D01*
X137329Y737304D01*
X137415Y737321D01*
X137415Y726185D01*
X131571Y726185D01*
G37*
%LPD*%
%LPC*%
G36*
X106171Y726185D02*
X106171Y726185D01*
X106171Y730289D01*
X106337Y731121D01*
X106484Y731859D01*
X107096Y733338D01*
X107986Y734670D01*
X109118Y735802D01*
X110450Y736692D01*
X111929Y737304D01*
X112015Y737321D01*
X112015Y726185D01*
X106171Y726185D01*
G37*
%LPD*%
%LPC*%
G36*
X137329Y710496D02*
X137329Y710496D01*
X135850Y711108D01*
X134518Y711998D01*
X133386Y713130D01*
X132496Y714462D01*
X131884Y715941D01*
X131571Y717511D01*
X131571Y721615D01*
X137415Y721615D01*
X137415Y710479D01*
X137329Y710496D01*
G37*
%LPD*%
%LPC*%
G36*
X111929Y710496D02*
X111929Y710496D01*
X110450Y711108D01*
X109118Y711998D01*
X107986Y713130D01*
X107096Y714462D01*
X106484Y715941D01*
X106171Y717511D01*
X106171Y721615D01*
X112015Y721615D01*
X112015Y710479D01*
X111929Y710496D01*
G37*
%LPD*%
%LPC*%
G36*
X772724Y80424D02*
X772724Y80424D01*
X772724Y86707D01*
X776801Y86707D01*
X777447Y86534D01*
X778026Y86199D01*
X778499Y85726D01*
X778834Y85147D01*
X779007Y84501D01*
X779007Y80424D01*
X772724Y80424D01*
G37*
%LPD*%
%LPC*%
G36*
X760993Y80424D02*
X760993Y80424D01*
X760993Y84501D01*
X761166Y85147D01*
X761501Y85726D01*
X761974Y86199D01*
X762553Y86534D01*
X763199Y86707D01*
X767276Y86707D01*
X767276Y80424D01*
X760993Y80424D01*
G37*
%LPD*%
%LPC*%
G36*
X772724Y68693D02*
X772724Y68693D01*
X772724Y74976D01*
X779007Y74976D01*
X779007Y70899D01*
X778834Y70253D01*
X778499Y69674D01*
X778026Y69201D01*
X777447Y68866D01*
X776801Y68693D01*
X772724Y68693D01*
G37*
%LPD*%
%LPC*%
G36*
X763199Y68693D02*
X763199Y68693D01*
X762553Y68866D01*
X761974Y69201D01*
X761501Y69674D01*
X761166Y70253D01*
X760993Y70899D01*
X760993Y74976D01*
X767276Y74976D01*
X767276Y68693D01*
X763199Y68693D01*
G37*
%LPD*%
%LPC*%
G36*
X329524Y80424D02*
X329524Y80424D01*
X329524Y86285D01*
X330257Y86047D01*
X331520Y85403D01*
X332668Y84570D01*
X333670Y83568D01*
X334503Y82420D01*
X335147Y81157D01*
X335385Y80424D01*
X329524Y80424D01*
G37*
%LPD*%
%LPC*%
G36*
X454174Y52024D02*
X454174Y52024D01*
X454174Y57885D01*
X454907Y57647D01*
X456170Y57003D01*
X457318Y56170D01*
X458320Y55168D01*
X459153Y54020D01*
X459797Y52757D01*
X460035Y52024D01*
X454174Y52024D01*
G37*
%LPD*%
%LPC*%
G36*
X982124Y376224D02*
X982124Y376224D01*
X982124Y382085D01*
X982857Y381847D01*
X984120Y381203D01*
X985268Y380370D01*
X986270Y379368D01*
X987103Y378220D01*
X987747Y376957D01*
X987985Y376224D01*
X982124Y376224D01*
G37*
%LPD*%
%LPC*%
G36*
X495724Y80424D02*
X495724Y80424D01*
X495724Y86285D01*
X496457Y86047D01*
X497720Y85403D01*
X498868Y84570D01*
X499870Y83568D01*
X500703Y82420D01*
X501347Y81157D01*
X501585Y80424D01*
X495724Y80424D01*
G37*
%LPD*%
%LPC*%
G36*
X982124Y370776D02*
X982124Y370776D01*
X987985Y370776D01*
X987747Y370043D01*
X987103Y368780D01*
X986270Y367632D01*
X985268Y366630D01*
X984120Y365797D01*
X982857Y365153D01*
X982124Y364915D01*
X982124Y370776D01*
G37*
%LPD*%
%LPC*%
G36*
X495724Y74976D02*
X495724Y74976D01*
X501585Y74976D01*
X501347Y74243D01*
X500703Y72980D01*
X499870Y71832D01*
X498868Y70830D01*
X497720Y69997D01*
X496457Y69353D01*
X495724Y69115D01*
X495724Y74976D01*
G37*
%LPD*%
%LPC*%
G36*
X442865Y52024D02*
X442865Y52024D01*
X443103Y52757D01*
X443747Y54020D01*
X444580Y55168D01*
X445582Y56170D01*
X446730Y57003D01*
X447993Y57647D01*
X448726Y57885D01*
X448726Y52024D01*
X442865Y52024D01*
G37*
%LPD*%
%LPC*%
G36*
X970815Y376224D02*
X970815Y376224D01*
X971053Y376957D01*
X971697Y378220D01*
X972530Y379368D01*
X973532Y380370D01*
X974680Y381203D01*
X975943Y381847D01*
X976676Y382085D01*
X976676Y376224D01*
X970815Y376224D01*
G37*
%LPD*%
%LPC*%
G36*
X454174Y46576D02*
X454174Y46576D01*
X460035Y46576D01*
X459797Y45843D01*
X459153Y44580D01*
X458320Y43432D01*
X457318Y42430D01*
X456170Y41597D01*
X454907Y40953D01*
X454174Y40715D01*
X454174Y46576D01*
G37*
%LPD*%
%LPC*%
G36*
X343374Y46576D02*
X343374Y46576D01*
X349235Y46576D01*
X348997Y45843D01*
X348353Y44580D01*
X347520Y43432D01*
X346518Y42430D01*
X345370Y41597D01*
X344107Y40953D01*
X343374Y40715D01*
X343374Y46576D01*
G37*
%LPD*%
%LPC*%
G36*
X318215Y80424D02*
X318215Y80424D01*
X318453Y81157D01*
X319097Y82420D01*
X319930Y83568D01*
X320932Y84570D01*
X322080Y85403D01*
X323343Y86047D01*
X324076Y86285D01*
X324076Y80424D01*
X318215Y80424D01*
G37*
%LPD*%
%LPC*%
G36*
X484415Y80424D02*
X484415Y80424D01*
X484653Y81157D01*
X485297Y82420D01*
X486130Y83568D01*
X487132Y84570D01*
X488280Y85403D01*
X489543Y86047D01*
X490276Y86285D01*
X490276Y80424D01*
X484415Y80424D01*
G37*
%LPD*%
%LPC*%
G36*
X489543Y69353D02*
X489543Y69353D01*
X488280Y69997D01*
X487132Y70830D01*
X486130Y71832D01*
X485297Y72980D01*
X484653Y74243D01*
X484415Y74976D01*
X490276Y74976D01*
X490276Y69115D01*
X489543Y69353D01*
G37*
%LPD*%
%LPC*%
G36*
X975943Y365153D02*
X975943Y365153D01*
X974680Y365797D01*
X973532Y366630D01*
X972530Y367632D01*
X971697Y368780D01*
X971053Y370043D01*
X970815Y370776D01*
X976676Y370776D01*
X976676Y364915D01*
X975943Y365153D01*
G37*
%LPD*%
%LPC*%
G36*
X447993Y40953D02*
X447993Y40953D01*
X446730Y41597D01*
X445582Y42430D01*
X444580Y43432D01*
X443747Y44580D01*
X443103Y45843D01*
X442865Y46576D01*
X448726Y46576D01*
X448726Y40715D01*
X447993Y40953D01*
G37*
%LPD*%
%LPC*%
G36*
X337193Y40953D02*
X337193Y40953D01*
X335930Y41597D01*
X334782Y42430D01*
X333780Y43432D01*
X332947Y44580D01*
X332303Y45843D01*
X332065Y46576D01*
X337926Y46576D01*
X337926Y40715D01*
X337193Y40953D01*
G37*
%LPD*%
%LPC*%
G36*
X152399Y609599D02*
X152399Y609599D01*
X152399Y609601D01*
X152401Y609601D01*
X152401Y609599D01*
X152399Y609599D01*
G37*
%LPD*%
%LPC*%
G36*
X838199Y63499D02*
X838199Y63499D01*
X838199Y63501D01*
X838201Y63501D01*
X838201Y63499D01*
X838199Y63499D01*
G37*
%LPD*%
%LPC*%
G36*
X203199Y63499D02*
X203199Y63499D01*
X203199Y63501D01*
X203201Y63501D01*
X203201Y63499D01*
X203199Y63499D01*
G37*
%LPD*%
%LPC*%
G36*
X660399Y711199D02*
X660399Y711199D01*
X660399Y711201D01*
X660401Y711201D01*
X660401Y711199D01*
X660399Y711199D01*
G37*
%LPD*%
%LPC*%
G36*
X308599Y693099D02*
X308599Y693099D01*
X308599Y693101D01*
X308601Y693101D01*
X308601Y693099D01*
X308599Y693099D01*
G37*
%LPD*%
%LPC*%
G36*
X507999Y723099D02*
X507999Y723099D01*
X507999Y723101D01*
X508001Y723101D01*
X508001Y723099D01*
X507999Y723099D01*
G37*
%LPD*%
%LPC*%
G36*
X355599Y723099D02*
X355599Y723099D01*
X355599Y723101D01*
X355601Y723101D01*
X355601Y723099D01*
X355599Y723099D01*
G37*
%LPD*%
%LPC*%
G36*
X460999Y693099D02*
X460999Y693099D01*
X460999Y693101D01*
X461001Y693101D01*
X461001Y693099D01*
X460999Y693099D01*
G37*
%LPD*%
%LPC*%
G36*
X76199Y609599D02*
X76199Y609599D01*
X76199Y609601D01*
X76201Y609601D01*
X76201Y609599D01*
X76199Y609599D01*
G37*
%LPD*%
D10*
X770000Y77700D03*
D11*
X742300Y77700D03*
X714600Y77700D03*
X686900Y77700D03*
X659200Y77700D03*
X631500Y77700D03*
X603800Y77700D03*
X576100Y77700D03*
X548400Y77700D03*
X520700Y77700D03*
X493000Y77700D03*
X465300Y77700D03*
X437600Y77700D03*
X409900Y77700D03*
X382200Y77700D03*
X354500Y77700D03*
X326800Y77700D03*
X299100Y77700D03*
X271400Y77700D03*
X285250Y49300D03*
X312950Y49300D03*
X340650Y49300D03*
X368350Y49300D03*
X396050Y49300D03*
X423750Y49300D03*
X451450Y49300D03*
X479150Y49300D03*
X506850Y49300D03*
X534550Y49300D03*
X562250Y49300D03*
X589950Y49300D03*
X617650Y49300D03*
X645350Y49300D03*
X673050Y49300D03*
X700750Y49300D03*
X728450Y49300D03*
X756150Y49300D03*
D12*
X203200Y63500D03*
X838200Y63500D03*
D10*
X951000Y553550D03*
D11*
X951000Y525850D03*
X951000Y498150D03*
X951000Y470450D03*
X951000Y442750D03*
X951000Y415050D03*
X951000Y387350D03*
X951000Y359650D03*
X951000Y331950D03*
X951000Y304250D03*
X951000Y276550D03*
X951000Y248850D03*
X951000Y221150D03*
X979400Y539700D03*
X979400Y512000D03*
X979400Y484300D03*
X979400Y456600D03*
X979400Y428900D03*
X979400Y401200D03*
X979400Y373500D03*
X979400Y345800D03*
X979400Y318100D03*
X979400Y290400D03*
X979400Y262700D03*
X979400Y235000D03*
D12*
X965200Y152150D03*
X965200Y622550D03*
D13*
X660400Y711200D03*
X698500Y711200D03*
X736600Y711200D03*
X774700Y711200D03*
D14*
X892810Y271780D03*
X892810Y297180D03*
X892810Y322580D03*
X892810Y347980D03*
X892810Y373380D03*
X892810Y398780D03*
X892810Y424180D03*
X892810Y449580D03*
X892810Y474980D03*
X892810Y500380D03*
X892810Y525780D03*
X892810Y551180D03*
D15*
X76200Y609600D03*
D16*
X152400Y596189D02*
X152400Y623011D01*
D15*
X76200Y482600D03*
D16*
X152400Y469189D02*
X152400Y496011D01*
D15*
X76200Y355600D03*
D16*
X152400Y342189D02*
X152400Y369011D01*
D15*
X76200Y228600D03*
D16*
X152400Y215189D02*
X152400Y242011D01*
D17*
X355600Y663100D03*
X355600Y723100D03*
X308600Y693100D03*
D18*
X228600Y711200D03*
D19*
X193600Y711200D03*
D17*
X508000Y663100D03*
X508000Y723100D03*
X461000Y693100D03*
D20*
X139700Y718312D02*
X139700Y729488D01*
X114300Y729488D02*
X114300Y718312D01*
D21*
X127000Y19050D03*
D22*
X300990Y482600D03*
X254000Y482600D03*
X207010Y482600D03*
X300990Y355600D03*
X254000Y355600D03*
X207010Y355600D03*
X300990Y228600D03*
X254000Y228600D03*
X207010Y228600D03*
D21*
X349250Y355600D03*
X425450Y355600D03*
X342900Y482600D03*
X419100Y482600D03*
X349250Y228600D03*
X425450Y228600D03*
D14*
X863600Y152400D03*
X863600Y177800D03*
X637540Y147320D03*
X612140Y147320D03*
X586740Y147320D03*
X561340Y147320D03*
D23*
X361950Y539750D03*
X387350Y539750D03*
X361950Y412750D03*
X387350Y412750D03*
X361950Y285750D03*
X387350Y285750D03*
D20*
X622300Y654812D02*
X622300Y665988D01*
X596900Y665988D02*
X596900Y654812D01*
D24*
X450850Y539750D03*
D25*
X488950Y411480D03*
D24*
X450850Y412750D03*
X429260Y302260D03*
X679450Y349250D03*
X679450Y374650D03*
X679450Y419100D03*
X679450Y444500D03*
X679450Y495300D03*
X679450Y520700D03*
D26*
X672296Y77700D02*
X686900Y77700D01*
X672296Y77700D02*
X659226Y90770D01*
X622970Y90770D01*
X522788Y132532D02*
X492760Y162560D01*
D24*
X492760Y162560D03*
D26*
X581208Y132532D02*
X622970Y90770D01*
X581208Y132532D02*
X522788Y132532D01*
D27*
X948630Y551180D02*
X951000Y553550D01*
X948630Y551180D02*
X892810Y551180D01*
D26*
X659200Y77700D02*
X644596Y77700D01*
X635336Y86960D01*
X616620Y86960D01*
X516438Y128722D02*
X492760Y152400D01*
D24*
X492760Y152400D03*
D26*
X574858Y128722D02*
X616620Y86960D01*
X574858Y128722D02*
X516438Y128722D01*
D27*
X892880Y525850D02*
X951000Y525850D01*
X892880Y525850D02*
X892810Y525780D01*
D24*
X492760Y142240D03*
D26*
X510088Y124912D01*
X616896Y77700D02*
X631500Y77700D01*
X616896Y77700D02*
X569684Y124912D01*
X510088Y124912D01*
D27*
X948770Y500380D02*
X951000Y498150D01*
X948770Y500380D02*
X892810Y500380D01*
D24*
X492760Y132166D03*
D26*
X503824Y121102D01*
X589196Y77700D02*
X603800Y77700D01*
X589196Y77700D02*
X545794Y121102D01*
X503824Y121102D01*
D27*
X946470Y474980D02*
X951000Y470450D01*
X946470Y474980D02*
X892810Y474980D01*
D24*
X492760Y122824D03*
D26*
X498292Y117292D01*
X561496Y77700D02*
X576100Y77700D01*
X561496Y77700D02*
X521904Y117292D01*
X498292Y117292D01*
D27*
X944170Y449580D02*
X951000Y442750D01*
X944170Y449580D02*
X892810Y449580D01*
D26*
X548400Y77700D02*
X512618Y113482D01*
X492760Y113482D01*
D24*
X492760Y113482D03*
D27*
X941870Y424180D02*
X951000Y415050D01*
X941870Y424180D02*
X892810Y424180D01*
D26*
X520700Y77700D02*
X494260Y104140D01*
X492760Y104140D01*
D24*
X492760Y104140D03*
D27*
X939570Y398780D02*
X951000Y387350D01*
X939570Y398780D02*
X892810Y398780D01*
X937270Y373380D02*
X951000Y359650D01*
X937270Y373380D02*
X892810Y373380D01*
X406100Y101600D02*
X382200Y77700D01*
X467106Y119921D02*
X467106Y167640D01*
X479806Y180340D01*
X448785Y101600D02*
X406100Y101600D01*
X448785Y101600D02*
X467106Y119921D01*
X535940Y180340D02*
X541020Y175260D01*
D24*
X541020Y175260D03*
D27*
X535940Y180340D02*
X479806Y180340D01*
X934970Y347980D02*
X951000Y331950D01*
X934970Y347980D02*
X892810Y347980D01*
X383226Y106426D02*
X354500Y77700D01*
X462280Y169639D02*
X477807Y185166D01*
X446786Y106426D02*
X383226Y106426D01*
X446786Y106426D02*
X462280Y121920D01*
X462280Y169639D01*
X548386Y185166D02*
X563880Y200660D01*
D24*
X563880Y200660D03*
D27*
X548386Y185166D02*
X477807Y185166D01*
X932670Y322580D02*
X951000Y304250D01*
X932670Y322580D02*
X892810Y322580D01*
X930370Y297180D02*
X951000Y276550D01*
X930370Y297180D02*
X892810Y297180D01*
D24*
X922020Y157480D03*
D26*
X901700Y157480D01*
D24*
X901700Y157480D03*
D26*
X716014Y34036D02*
X700750Y49300D01*
X994823Y91440D02*
X1007364Y103981D01*
X1007364Y390303D02*
X1003634Y394034D01*
X987878Y420422D02*
X979400Y428900D01*
X987878Y420422D02*
X987898Y420422D01*
X1000799Y407552D01*
X1002677Y398598D01*
X1003634Y397641D01*
X1003634Y394034D01*
X895763Y34036D02*
X716014Y34036D01*
X895763Y34036D02*
X953167Y91440D01*
X994823Y91440D01*
X1007364Y103981D02*
X1007364Y390303D01*
D28*
X368350Y49300D02*
X356042Y61608D01*
X315192Y61608D02*
X299100Y77700D01*
X315192Y61608D02*
X356042Y61608D01*
X711385Y77700D02*
X714600Y77700D01*
X711385Y77700D02*
X688188Y54503D01*
X688188Y44097D01*
X688340Y43945D01*
X688340Y27940D01*
X678180Y17780D01*
X520700Y17780D01*
X506850Y31630D01*
X506850Y49300D01*
D29*
X425450Y228600D02*
X469900Y273050D01*
X469900Y274320D01*
D24*
X469900Y274320D03*
D26*
X728450Y49300D02*
X739650Y38100D01*
X951484Y95504D02*
X993140Y95504D01*
X1003300Y105664D01*
X1003300Y388620D01*
X983904Y401200D02*
X979400Y401200D01*
X983904Y401200D02*
X987898Y397206D01*
X996196Y393305D01*
X998615Y393305D01*
X894080Y38100D02*
X739650Y38100D01*
X894080Y38100D02*
X951484Y95504D01*
X1003300Y388620D02*
X998615Y393305D01*
D30*
X254000Y355600D02*
X231140Y378460D01*
X231140Y462280D01*
D31*
X231140Y472413D01*
X230632Y472921D01*
X230632Y506984D01*
D30*
X230632Y538132D01*
X355600Y663100D01*
X398620Y663100D01*
X436880Y624840D01*
X622300Y635000D02*
X622300Y660400D01*
X612140Y624840D02*
X436880Y624840D01*
X612140Y624840D02*
X622300Y635000D01*
X193600Y711200D02*
X193600Y539040D01*
X185420Y530860D01*
D32*
X180340Y525780D01*
X180340Y335280D02*
X187960Y327660D01*
D30*
X254000Y261620D01*
X254000Y228600D01*
D32*
X180340Y335280D02*
X180340Y525780D01*
M02*
