G04 EAGLE Gerber RS-274X export*
G75*
%MOMM*%
%FSLAX34Y34*%
%LPD*%
%INSoldermask Bottom*%
%IPPOS*%
%AMOC8*
5,1,8,0,0,1.08239X$1,22.5*%
G01*
%ADD10R,1.496400X1.496400*%
%ADD11C,1.496400*%
%ADD12C,3.558200*%
%ADD13P,2.556822X8X112.500000*%
%ADD14C,2.082800*%
%ADD15C,8.331200*%
%ADD16C,2.885438*%
%ADD17C,4.521200*%
%ADD18R,2.235200X2.235200*%
%ADD19C,2.235200*%
%ADD20C,1.320800*%
%ADD21P,2.556822X8X22.500000*%
%ADD22C,3.251200*%
%ADD23C,3.503200*%
%ADD24C,1.219200*%
%ADD25C,0.959600*%
%ADD26C,1.259600*%


D10*
X770000Y77700D03*
D11*
X742300Y77700D03*
X714600Y77700D03*
X686900Y77700D03*
X659200Y77700D03*
X631500Y77700D03*
X603800Y77700D03*
X576100Y77700D03*
X548400Y77700D03*
X520700Y77700D03*
X493000Y77700D03*
X465300Y77700D03*
X437600Y77700D03*
X409900Y77700D03*
X382200Y77700D03*
X354500Y77700D03*
X326800Y77700D03*
X299100Y77700D03*
X271400Y77700D03*
X285250Y49300D03*
X312950Y49300D03*
X340650Y49300D03*
X368350Y49300D03*
X396050Y49300D03*
X423750Y49300D03*
X451450Y49300D03*
X479150Y49300D03*
X506850Y49300D03*
X534550Y49300D03*
X562250Y49300D03*
X589950Y49300D03*
X617650Y49300D03*
X645350Y49300D03*
X673050Y49300D03*
X700750Y49300D03*
X728450Y49300D03*
X756150Y49300D03*
D12*
X203200Y63500D03*
X838200Y63500D03*
D10*
X951000Y553550D03*
D11*
X951000Y525850D03*
X951000Y498150D03*
X951000Y470450D03*
X951000Y442750D03*
X951000Y415050D03*
X951000Y387350D03*
X951000Y359650D03*
X951000Y331950D03*
X951000Y304250D03*
X951000Y276550D03*
X951000Y248850D03*
X951000Y221150D03*
X979400Y539700D03*
X979400Y512000D03*
X979400Y484300D03*
X979400Y456600D03*
X979400Y428900D03*
X979400Y401200D03*
X979400Y373500D03*
X979400Y345800D03*
X979400Y318100D03*
X979400Y290400D03*
X979400Y262700D03*
X979400Y235000D03*
D12*
X965200Y152150D03*
X965200Y622550D03*
D13*
X660400Y711200D03*
X698500Y711200D03*
X736600Y711200D03*
X774700Y711200D03*
D14*
X892810Y271780D03*
X892810Y297180D03*
X892810Y322580D03*
X892810Y347980D03*
X892810Y373380D03*
X892810Y398780D03*
X892810Y424180D03*
X892810Y449580D03*
X892810Y474980D03*
X892810Y500380D03*
X892810Y525780D03*
X892810Y551180D03*
D15*
X76200Y609600D03*
D16*
X152400Y596189D02*
X152400Y623011D01*
D15*
X76200Y482600D03*
D16*
X152400Y469189D02*
X152400Y496011D01*
D15*
X76200Y355600D03*
D16*
X152400Y342189D02*
X152400Y369011D01*
D15*
X76200Y228600D03*
D16*
X152400Y215189D02*
X152400Y242011D01*
D17*
X355600Y663100D03*
X355600Y723100D03*
X308600Y693100D03*
D18*
X228600Y711200D03*
D19*
X193600Y711200D03*
D17*
X508000Y663100D03*
X508000Y723100D03*
X461000Y693100D03*
D20*
X139700Y718312D02*
X139700Y729488D01*
X114300Y729488D02*
X114300Y718312D01*
D21*
X127000Y19050D03*
D22*
X300990Y482600D03*
X254000Y482600D03*
X207010Y482600D03*
X300990Y355600D03*
X254000Y355600D03*
X207010Y355600D03*
X300990Y228600D03*
X254000Y228600D03*
X207010Y228600D03*
D23*
X971550Y44450D03*
X971550Y717550D03*
X44450Y717550D03*
X44450Y44450D03*
D21*
X349250Y355600D03*
X425450Y355600D03*
X342900Y482600D03*
X419100Y482600D03*
X349250Y228600D03*
X425450Y228600D03*
D14*
X863600Y152400D03*
X863600Y177800D03*
X637540Y147320D03*
X612140Y147320D03*
X586740Y147320D03*
X561340Y147320D03*
D24*
X361950Y539750D03*
X387350Y539750D03*
X361950Y412750D03*
X387350Y412750D03*
X361950Y285750D03*
X387350Y285750D03*
D20*
X622300Y654812D02*
X622300Y665988D01*
X596900Y665988D02*
X596900Y654812D01*
D25*
X450850Y539750D03*
D26*
X488950Y411480D03*
D25*
X450850Y412750D03*
X429260Y302260D03*
X679450Y349250D03*
X679450Y374650D03*
X679450Y419100D03*
X679450Y444500D03*
X679450Y495300D03*
X679450Y520700D03*
X492760Y162560D03*
X492760Y152400D03*
X492760Y142240D03*
X492760Y132166D03*
X492760Y122824D03*
X492760Y113482D03*
X492760Y104140D03*
X541020Y175260D03*
X563880Y200660D03*
X922020Y157480D03*
X901700Y157480D03*
X469900Y274320D03*
M02*
