G04 EAGLE Gerber RS-274X export*
G75*
%MOMM*%
%FSLAX34Y34*%
%LPD*%
%INBottom Copper*%
%IPPOS*%
%AMOC8*
5,1,8,0,0,1.08239X$1,22.5*%
G01*
%ADD10C,0.653200*%
%ADD11C,0.790000*%
%ADD12C,1.016000*%
%ADD13C,1.879600*%
%ADD14P,2.749271X8X112.500000*%
%ADD15C,0.304800*%
%ADD16C,0.756400*%

G36*
X16146Y3314D02*
X16146Y3314D01*
X16218Y3316D01*
X16267Y3334D01*
X16318Y3342D01*
X16382Y3376D01*
X16449Y3401D01*
X16490Y3433D01*
X16536Y3458D01*
X16585Y3509D01*
X16641Y3554D01*
X16669Y3598D01*
X16705Y3636D01*
X16735Y3701D01*
X16774Y3761D01*
X16787Y3812D01*
X16809Y3859D01*
X16817Y3930D01*
X16834Y4000D01*
X16830Y4052D01*
X16836Y4103D01*
X16821Y4174D01*
X16815Y4245D01*
X16795Y4293D01*
X16784Y4344D01*
X16747Y4405D01*
X16719Y4471D01*
X16674Y4527D01*
X16657Y4555D01*
X16640Y4570D01*
X16614Y4602D01*
X16294Y4922D01*
X15189Y6443D01*
X14336Y8117D01*
X13755Y9904D01*
X13554Y11177D01*
X24638Y11177D01*
X24658Y11180D01*
X24677Y11178D01*
X24779Y11200D01*
X24881Y11217D01*
X24898Y11226D01*
X24918Y11230D01*
X25007Y11283D01*
X25098Y11332D01*
X25112Y11346D01*
X25129Y11356D01*
X25196Y11435D01*
X25267Y11510D01*
X25276Y11528D01*
X25289Y11543D01*
X25327Y11639D01*
X25371Y11733D01*
X25373Y11753D01*
X25381Y11771D01*
X25399Y11938D01*
X25399Y12701D01*
X25401Y12701D01*
X25401Y11938D01*
X25404Y11918D01*
X25402Y11899D01*
X25424Y11797D01*
X25441Y11695D01*
X25450Y11678D01*
X25454Y11658D01*
X25507Y11569D01*
X25556Y11478D01*
X25570Y11464D01*
X25580Y11447D01*
X25659Y11380D01*
X25734Y11309D01*
X25752Y11300D01*
X25767Y11287D01*
X25863Y11248D01*
X25957Y11205D01*
X25977Y11203D01*
X25995Y11195D01*
X26162Y11177D01*
X37246Y11177D01*
X37045Y9904D01*
X36464Y8117D01*
X35611Y6443D01*
X34506Y4922D01*
X34186Y4602D01*
X34144Y4544D01*
X34095Y4492D01*
X34073Y4445D01*
X34043Y4403D01*
X34022Y4334D01*
X33991Y4269D01*
X33986Y4217D01*
X33970Y4167D01*
X33972Y4096D01*
X33964Y4025D01*
X33975Y3974D01*
X33977Y3922D01*
X34001Y3854D01*
X34016Y3784D01*
X34043Y3739D01*
X34061Y3691D01*
X34106Y3635D01*
X34143Y3573D01*
X34182Y3539D01*
X34215Y3499D01*
X34275Y3460D01*
X34330Y3413D01*
X34378Y3394D01*
X34422Y3366D01*
X34491Y3348D01*
X34558Y3321D01*
X34629Y3313D01*
X34660Y3305D01*
X34684Y3307D01*
X34724Y3303D01*
X41476Y3303D01*
X41546Y3314D01*
X41618Y3316D01*
X41667Y3334D01*
X41718Y3342D01*
X41782Y3376D01*
X41849Y3401D01*
X41890Y3433D01*
X41936Y3458D01*
X41985Y3509D01*
X42041Y3554D01*
X42069Y3598D01*
X42105Y3636D01*
X42135Y3701D01*
X42174Y3761D01*
X42187Y3812D01*
X42209Y3859D01*
X42217Y3930D01*
X42234Y4000D01*
X42230Y4052D01*
X42236Y4103D01*
X42221Y4174D01*
X42215Y4245D01*
X42195Y4293D01*
X42184Y4344D01*
X42147Y4405D01*
X42119Y4471D01*
X42074Y4527D01*
X42057Y4555D01*
X42040Y4570D01*
X42014Y4602D01*
X41694Y4922D01*
X40589Y6443D01*
X39736Y8117D01*
X39155Y9904D01*
X38954Y11177D01*
X50038Y11177D01*
X50058Y11180D01*
X50077Y11178D01*
X50179Y11200D01*
X50281Y11217D01*
X50298Y11226D01*
X50318Y11230D01*
X50407Y11283D01*
X50498Y11332D01*
X50512Y11346D01*
X50529Y11356D01*
X50596Y11435D01*
X50667Y11510D01*
X50676Y11528D01*
X50689Y11543D01*
X50727Y11639D01*
X50771Y11733D01*
X50773Y11753D01*
X50781Y11771D01*
X50799Y11938D01*
X50799Y12701D01*
X50801Y12701D01*
X50801Y11938D01*
X50804Y11918D01*
X50802Y11899D01*
X50824Y11797D01*
X50841Y11695D01*
X50850Y11678D01*
X50854Y11658D01*
X50907Y11569D01*
X50956Y11478D01*
X50970Y11464D01*
X50980Y11447D01*
X51059Y11380D01*
X51134Y11309D01*
X51152Y11300D01*
X51167Y11287D01*
X51263Y11248D01*
X51357Y11205D01*
X51377Y11203D01*
X51395Y11195D01*
X51562Y11177D01*
X62646Y11177D01*
X62445Y9904D01*
X61864Y8117D01*
X61011Y6443D01*
X59906Y4922D01*
X59586Y4602D01*
X59544Y4544D01*
X59495Y4492D01*
X59473Y4445D01*
X59443Y4403D01*
X59422Y4334D01*
X59391Y4269D01*
X59386Y4217D01*
X59370Y4167D01*
X59372Y4096D01*
X59364Y4025D01*
X59375Y3974D01*
X59377Y3922D01*
X59401Y3854D01*
X59416Y3784D01*
X59443Y3739D01*
X59461Y3691D01*
X59506Y3635D01*
X59543Y3573D01*
X59582Y3539D01*
X59615Y3499D01*
X59675Y3460D01*
X59730Y3413D01*
X59778Y3394D01*
X59822Y3366D01*
X59891Y3348D01*
X59958Y3321D01*
X60029Y3313D01*
X60060Y3305D01*
X60084Y3307D01*
X60124Y3303D01*
X66876Y3303D01*
X66946Y3314D01*
X67018Y3316D01*
X67067Y3334D01*
X67118Y3342D01*
X67182Y3376D01*
X67249Y3401D01*
X67290Y3433D01*
X67336Y3458D01*
X67385Y3509D01*
X67441Y3554D01*
X67469Y3598D01*
X67505Y3636D01*
X67535Y3701D01*
X67574Y3761D01*
X67587Y3812D01*
X67609Y3859D01*
X67617Y3930D01*
X67634Y4000D01*
X67630Y4052D01*
X67636Y4103D01*
X67621Y4174D01*
X67615Y4245D01*
X67595Y4293D01*
X67584Y4344D01*
X67547Y4405D01*
X67519Y4471D01*
X67474Y4527D01*
X67457Y4555D01*
X67440Y4570D01*
X67414Y4602D01*
X67094Y4922D01*
X65989Y6443D01*
X65136Y8117D01*
X64555Y9904D01*
X64354Y11177D01*
X75438Y11177D01*
X75458Y11180D01*
X75477Y11178D01*
X75579Y11200D01*
X75681Y11217D01*
X75698Y11226D01*
X75718Y11230D01*
X75807Y11283D01*
X75898Y11332D01*
X75912Y11346D01*
X75929Y11356D01*
X75996Y11435D01*
X76067Y11510D01*
X76076Y11528D01*
X76089Y11543D01*
X76127Y11639D01*
X76171Y11733D01*
X76173Y11753D01*
X76181Y11771D01*
X76199Y11938D01*
X76199Y12701D01*
X76201Y12701D01*
X76201Y11938D01*
X76204Y11918D01*
X76202Y11899D01*
X76224Y11797D01*
X76241Y11695D01*
X76250Y11678D01*
X76254Y11658D01*
X76307Y11569D01*
X76356Y11478D01*
X76370Y11464D01*
X76380Y11447D01*
X76459Y11380D01*
X76534Y11309D01*
X76552Y11300D01*
X76567Y11287D01*
X76663Y11248D01*
X76757Y11205D01*
X76777Y11203D01*
X76795Y11195D01*
X76962Y11177D01*
X88046Y11177D01*
X87845Y9904D01*
X87264Y8117D01*
X86411Y6443D01*
X85306Y4922D01*
X84986Y4602D01*
X84944Y4544D01*
X84895Y4492D01*
X84873Y4445D01*
X84843Y4403D01*
X84822Y4334D01*
X84791Y4269D01*
X84786Y4217D01*
X84770Y4167D01*
X84772Y4096D01*
X84764Y4025D01*
X84775Y3974D01*
X84777Y3922D01*
X84801Y3854D01*
X84816Y3784D01*
X84843Y3739D01*
X84861Y3691D01*
X84906Y3635D01*
X84943Y3573D01*
X84982Y3539D01*
X85015Y3499D01*
X85075Y3460D01*
X85130Y3413D01*
X85178Y3394D01*
X85222Y3366D01*
X85291Y3348D01*
X85358Y3321D01*
X85429Y3313D01*
X85460Y3305D01*
X85484Y3307D01*
X85524Y3303D01*
X575953Y3303D01*
X576024Y3314D01*
X576096Y3316D01*
X576145Y3334D01*
X576196Y3342D01*
X576259Y3376D01*
X576327Y3401D01*
X576367Y3433D01*
X576413Y3458D01*
X576463Y3510D01*
X576519Y3554D01*
X576547Y3598D01*
X576583Y3636D01*
X576613Y3701D01*
X576652Y3761D01*
X576664Y3812D01*
X576686Y3859D01*
X576694Y3930D01*
X576712Y4000D01*
X576708Y4052D01*
X576713Y4103D01*
X576698Y4174D01*
X576693Y4245D01*
X576672Y4293D01*
X576661Y4344D01*
X576624Y4405D01*
X576596Y4471D01*
X576551Y4527D01*
X576535Y4555D01*
X576517Y4570D01*
X576491Y4602D01*
X574725Y6369D01*
X573023Y10477D01*
X573023Y14923D01*
X574725Y19031D01*
X577869Y22175D01*
X581977Y23877D01*
X586423Y23877D01*
X590531Y22175D01*
X593675Y19031D01*
X595377Y14923D01*
X595377Y10477D01*
X593675Y6369D01*
X591909Y4602D01*
X591867Y4544D01*
X591817Y4492D01*
X591795Y4445D01*
X591765Y4403D01*
X591744Y4334D01*
X591714Y4269D01*
X591708Y4217D01*
X591693Y4167D01*
X591695Y4096D01*
X591687Y4025D01*
X591698Y3974D01*
X591699Y3922D01*
X591724Y3854D01*
X591739Y3784D01*
X591766Y3739D01*
X591783Y3691D01*
X591828Y3635D01*
X591865Y3573D01*
X591905Y3539D01*
X591937Y3499D01*
X591997Y3460D01*
X592052Y3413D01*
X592100Y3394D01*
X592144Y3366D01*
X592214Y3348D01*
X592280Y3321D01*
X592351Y3313D01*
X592383Y3305D01*
X592406Y3307D01*
X592447Y3303D01*
X601353Y3303D01*
X601424Y3314D01*
X601496Y3316D01*
X601545Y3334D01*
X601596Y3342D01*
X601659Y3376D01*
X601727Y3401D01*
X601767Y3433D01*
X601813Y3458D01*
X601863Y3510D01*
X601919Y3554D01*
X601947Y3598D01*
X601983Y3636D01*
X602013Y3701D01*
X602052Y3761D01*
X602064Y3812D01*
X602086Y3859D01*
X602094Y3930D01*
X602112Y4000D01*
X602108Y4052D01*
X602113Y4103D01*
X602098Y4174D01*
X602093Y4245D01*
X602072Y4293D01*
X602061Y4344D01*
X602024Y4405D01*
X601996Y4471D01*
X601951Y4527D01*
X601935Y4555D01*
X601917Y4570D01*
X601891Y4602D01*
X600125Y6369D01*
X598423Y10477D01*
X598423Y14923D01*
X600125Y19031D01*
X603269Y22175D01*
X607377Y23877D01*
X611823Y23877D01*
X615931Y22175D01*
X619075Y19031D01*
X620777Y14923D01*
X620777Y10477D01*
X619075Y6369D01*
X617309Y4602D01*
X617267Y4544D01*
X617217Y4492D01*
X617195Y4445D01*
X617165Y4403D01*
X617144Y4334D01*
X617114Y4269D01*
X617108Y4217D01*
X617093Y4167D01*
X617095Y4096D01*
X617087Y4025D01*
X617098Y3974D01*
X617099Y3922D01*
X617124Y3854D01*
X617139Y3784D01*
X617166Y3739D01*
X617183Y3691D01*
X617228Y3635D01*
X617265Y3573D01*
X617305Y3539D01*
X617337Y3499D01*
X617397Y3460D01*
X617452Y3413D01*
X617500Y3394D01*
X617544Y3366D01*
X617614Y3348D01*
X617680Y3321D01*
X617751Y3313D01*
X617783Y3305D01*
X617806Y3307D01*
X617847Y3303D01*
X626753Y3303D01*
X626824Y3314D01*
X626896Y3316D01*
X626945Y3334D01*
X626996Y3342D01*
X627059Y3376D01*
X627127Y3401D01*
X627167Y3433D01*
X627213Y3458D01*
X627263Y3510D01*
X627319Y3554D01*
X627347Y3598D01*
X627383Y3636D01*
X627413Y3701D01*
X627452Y3761D01*
X627464Y3812D01*
X627486Y3859D01*
X627494Y3930D01*
X627512Y4000D01*
X627508Y4052D01*
X627513Y4103D01*
X627498Y4174D01*
X627493Y4245D01*
X627472Y4293D01*
X627461Y4344D01*
X627424Y4405D01*
X627396Y4471D01*
X627351Y4527D01*
X627335Y4555D01*
X627317Y4570D01*
X627291Y4602D01*
X625525Y6369D01*
X623823Y10477D01*
X623823Y14923D01*
X625525Y19031D01*
X628669Y22175D01*
X632777Y23877D01*
X637223Y23877D01*
X641331Y22175D01*
X644475Y19031D01*
X646177Y14923D01*
X646177Y10477D01*
X644475Y6369D01*
X642709Y4602D01*
X642667Y4544D01*
X642617Y4492D01*
X642595Y4445D01*
X642565Y4403D01*
X642544Y4334D01*
X642514Y4269D01*
X642508Y4217D01*
X642493Y4167D01*
X642495Y4096D01*
X642487Y4025D01*
X642498Y3974D01*
X642499Y3922D01*
X642524Y3854D01*
X642539Y3784D01*
X642566Y3739D01*
X642583Y3691D01*
X642628Y3635D01*
X642665Y3573D01*
X642705Y3539D01*
X642737Y3499D01*
X642797Y3460D01*
X642852Y3413D01*
X642900Y3394D01*
X642944Y3366D01*
X643014Y3348D01*
X643080Y3321D01*
X643151Y3313D01*
X643183Y3305D01*
X643206Y3307D01*
X643247Y3303D01*
X656336Y3303D01*
X656356Y3306D01*
X656375Y3304D01*
X656477Y3326D01*
X656579Y3342D01*
X656596Y3352D01*
X656616Y3356D01*
X656705Y3409D01*
X656796Y3458D01*
X656810Y3472D01*
X656827Y3482D01*
X656894Y3561D01*
X656966Y3636D01*
X656974Y3654D01*
X656987Y3669D01*
X657026Y3765D01*
X657069Y3859D01*
X657071Y3879D01*
X657079Y3897D01*
X657097Y4064D01*
X657097Y300736D01*
X657094Y300756D01*
X657096Y300775D01*
X657074Y300877D01*
X657058Y300979D01*
X657048Y300996D01*
X657044Y301016D01*
X656991Y301105D01*
X656942Y301196D01*
X656928Y301210D01*
X656918Y301227D01*
X656839Y301294D01*
X656764Y301366D01*
X656746Y301374D01*
X656731Y301387D01*
X656635Y301426D01*
X656541Y301469D01*
X656521Y301471D01*
X656503Y301479D01*
X656336Y301497D01*
X4064Y301497D01*
X4044Y301494D01*
X4025Y301496D01*
X3923Y301474D01*
X3821Y301458D01*
X3804Y301448D01*
X3784Y301444D01*
X3695Y301391D01*
X3604Y301342D01*
X3590Y301328D01*
X3573Y301318D01*
X3506Y301239D01*
X3434Y301164D01*
X3426Y301146D01*
X3413Y301131D01*
X3374Y301035D01*
X3331Y300941D01*
X3329Y300921D01*
X3321Y300903D01*
X3303Y300736D01*
X3303Y257500D01*
X3304Y257490D01*
X3303Y257480D01*
X3324Y257369D01*
X3342Y257257D01*
X3347Y257248D01*
X3349Y257239D01*
X3405Y257140D01*
X3458Y257039D01*
X3465Y257033D01*
X3469Y257024D01*
X3554Y256948D01*
X3636Y256870D01*
X3645Y256866D01*
X3652Y256859D01*
X3756Y256814D01*
X3859Y256766D01*
X3869Y256765D01*
X3878Y256761D01*
X3991Y256752D01*
X4103Y256739D01*
X4113Y256741D01*
X4123Y256741D01*
X4233Y256767D01*
X4344Y256792D01*
X4352Y256797D01*
X4362Y256799D01*
X4458Y256860D01*
X4555Y256918D01*
X4561Y256925D01*
X4570Y256930D01*
X4641Y257018D01*
X4715Y257105D01*
X4718Y257114D01*
X4725Y257121D01*
X4791Y257275D01*
X5302Y258930D01*
X5633Y259416D01*
X6671Y260938D01*
X6671Y260939D01*
X7190Y261700D01*
X8228Y263222D01*
X9266Y264745D01*
X10304Y266267D01*
X10823Y267028D01*
X11861Y268551D01*
X12125Y268937D01*
X21594Y276488D01*
X32868Y280913D01*
X44946Y281819D01*
X47755Y281177D01*
X51090Y280416D01*
X51091Y280416D01*
X54426Y279655D01*
X56755Y279123D01*
X67244Y273067D01*
X75482Y264189D01*
X80737Y253277D01*
X82542Y241300D01*
X80737Y229323D01*
X75482Y218411D01*
X67244Y209533D01*
X56755Y203477D01*
X44946Y200781D01*
X32868Y201687D01*
X21594Y206112D01*
X12125Y213663D01*
X5302Y223670D01*
X4791Y225325D01*
X4787Y225334D01*
X4785Y225343D01*
X4733Y225443D01*
X4682Y225545D01*
X4675Y225552D01*
X4670Y225561D01*
X4588Y225639D01*
X4508Y225719D01*
X4499Y225723D01*
X4492Y225730D01*
X4389Y225778D01*
X4288Y225828D01*
X4278Y225829D01*
X4269Y225834D01*
X4156Y225846D01*
X4044Y225861D01*
X4034Y225860D01*
X4025Y225861D01*
X3913Y225836D01*
X3802Y225815D01*
X3794Y225810D01*
X3784Y225808D01*
X3687Y225750D01*
X3588Y225694D01*
X3581Y225687D01*
X3573Y225682D01*
X3499Y225596D01*
X3423Y225512D01*
X3420Y225503D01*
X3413Y225495D01*
X3371Y225390D01*
X3326Y225286D01*
X3325Y225276D01*
X3321Y225267D01*
X3303Y225100D01*
X3303Y4064D01*
X3306Y4044D01*
X3304Y4025D01*
X3326Y3923D01*
X3342Y3821D01*
X3352Y3804D01*
X3356Y3784D01*
X3409Y3695D01*
X3458Y3604D01*
X3472Y3590D01*
X3482Y3573D01*
X3561Y3506D01*
X3636Y3434D01*
X3654Y3426D01*
X3669Y3413D01*
X3765Y3374D01*
X3859Y3331D01*
X3879Y3329D01*
X3897Y3321D01*
X4064Y3303D01*
X16076Y3303D01*
X16146Y3314D01*
G37*
%LPC*%
G36*
X467208Y11187D02*
X467208Y11187D01*
X455934Y15612D01*
X446464Y23163D01*
X439642Y33170D01*
X436072Y44744D01*
X436072Y56856D01*
X439642Y68430D01*
X440620Y69865D01*
X441658Y71387D01*
X442696Y72910D01*
X444253Y75193D01*
X445291Y76716D01*
X446329Y78238D01*
X446329Y78239D01*
X446465Y78437D01*
X455934Y85988D01*
X467208Y90413D01*
X479286Y91319D01*
X481274Y90865D01*
X484609Y90104D01*
X487944Y89342D01*
X491095Y88623D01*
X501584Y82567D01*
X509822Y73689D01*
X515077Y62777D01*
X516882Y50800D01*
X515077Y38823D01*
X509822Y27911D01*
X501584Y19033D01*
X491095Y12977D01*
X479286Y10281D01*
X467208Y11187D01*
G37*
%LPD*%
%LPC*%
G36*
X149708Y11187D02*
X149708Y11187D01*
X138434Y15612D01*
X128965Y23163D01*
X122142Y33170D01*
X118572Y44744D01*
X118572Y56856D01*
X122142Y68430D01*
X123120Y69865D01*
X124158Y71387D01*
X125196Y72910D01*
X126753Y75193D01*
X127791Y76716D01*
X128829Y78238D01*
X128829Y78239D01*
X128965Y78437D01*
X138434Y85988D01*
X149708Y90413D01*
X161786Y91319D01*
X163774Y90865D01*
X167109Y90104D01*
X170444Y89342D01*
X173595Y88623D01*
X184084Y82567D01*
X192322Y73689D01*
X197577Y62777D01*
X199382Y50800D01*
X197577Y38823D01*
X192322Y27911D01*
X184084Y19032D01*
X173595Y12977D01*
X161786Y10281D01*
X149708Y11187D01*
G37*
%LPD*%
%LPC*%
G36*
X344334Y126519D02*
X344334Y126519D01*
X342290Y127366D01*
X340726Y128930D01*
X339879Y130974D01*
X339879Y133186D01*
X340726Y135230D01*
X342290Y136794D01*
X344334Y137641D01*
X344930Y137641D01*
X345020Y137655D01*
X345111Y137663D01*
X345140Y137675D01*
X345172Y137680D01*
X345253Y137723D01*
X345337Y137759D01*
X345369Y137785D01*
X345390Y137796D01*
X345412Y137819D01*
X345468Y137864D01*
X390532Y182928D01*
X392301Y184697D01*
X392341Y184753D01*
X392389Y184802D01*
X392413Y184852D01*
X392445Y184897D01*
X392465Y184962D01*
X392494Y185024D01*
X392501Y185079D01*
X392517Y185132D01*
X392515Y185200D01*
X392524Y185269D01*
X392512Y185323D01*
X392511Y185378D01*
X392487Y185442D01*
X392473Y185509D01*
X392438Y185578D01*
X392426Y185609D01*
X392413Y185626D01*
X392396Y185658D01*
X391797Y186555D01*
X391222Y187942D01*
X390929Y189414D01*
X390929Y198802D01*
X397788Y198802D01*
X397808Y198805D01*
X397827Y198803D01*
X397929Y198825D01*
X398031Y198842D01*
X398048Y198851D01*
X398068Y198855D01*
X398157Y198908D01*
X398248Y198957D01*
X398262Y198971D01*
X398279Y198981D01*
X398346Y199060D01*
X398417Y199135D01*
X398426Y199153D01*
X398439Y199168D01*
X398477Y199264D01*
X398521Y199358D01*
X398523Y199378D01*
X398531Y199396D01*
X398549Y199563D01*
X398549Y201087D01*
X398546Y201107D01*
X398548Y201126D01*
X398526Y201228D01*
X398509Y201330D01*
X398500Y201347D01*
X398496Y201367D01*
X398443Y201456D01*
X398394Y201547D01*
X398380Y201561D01*
X398370Y201578D01*
X398291Y201645D01*
X398216Y201716D01*
X398198Y201725D01*
X398183Y201738D01*
X398087Y201777D01*
X397993Y201820D01*
X397973Y201822D01*
X397955Y201830D01*
X397788Y201848D01*
X391083Y201848D01*
X391222Y202548D01*
X391797Y203935D01*
X392631Y205183D01*
X393692Y206244D01*
X394940Y207078D01*
X396327Y207653D01*
X396956Y207778D01*
X397045Y207811D01*
X397135Y207837D01*
X397159Y207854D01*
X397187Y207864D01*
X397260Y207924D01*
X397337Y207978D01*
X397355Y208001D01*
X397377Y208020D01*
X397428Y208100D01*
X397484Y208175D01*
X397493Y208203D01*
X397509Y208228D01*
X397531Y208319D01*
X397560Y208409D01*
X397560Y208438D01*
X397567Y208467D01*
X397559Y208561D01*
X397558Y208655D01*
X397548Y208690D01*
X397546Y208712D01*
X397533Y208742D01*
X397511Y208816D01*
X397259Y209424D01*
X397259Y212026D01*
X398255Y214430D01*
X400095Y216270D01*
X402499Y217266D01*
X405101Y217266D01*
X407505Y216270D01*
X409201Y214574D01*
X409275Y214521D01*
X409345Y214461D01*
X409375Y214449D01*
X409401Y214430D01*
X409488Y214403D01*
X409573Y214369D01*
X409614Y214365D01*
X409636Y214358D01*
X409668Y214359D01*
X409740Y214351D01*
X416187Y214351D01*
X416206Y214354D01*
X416226Y214352D01*
X416328Y214374D01*
X416430Y214390D01*
X416447Y214400D01*
X416467Y214404D01*
X416556Y214457D01*
X416647Y214506D01*
X416661Y214520D01*
X416678Y214530D01*
X416745Y214609D01*
X416799Y214666D01*
X416807Y214652D01*
X416821Y214638D01*
X416831Y214621D01*
X416910Y214554D01*
X416985Y214482D01*
X417003Y214474D01*
X417018Y214461D01*
X417115Y214422D01*
X417208Y214379D01*
X417228Y214377D01*
X417246Y214369D01*
X417413Y214351D01*
X423145Y214351D01*
X423041Y213832D01*
X422552Y212650D01*
X421800Y211526D01*
X421772Y211463D01*
X421735Y211405D01*
X421721Y211352D01*
X421699Y211302D01*
X421692Y211233D01*
X421675Y211167D01*
X421679Y211112D01*
X421673Y211057D01*
X421689Y210990D01*
X421694Y210922D01*
X421715Y210871D01*
X421728Y210817D01*
X421763Y210758D01*
X421790Y210695D01*
X421838Y210635D01*
X421856Y210607D01*
X421872Y210593D01*
X421895Y210564D01*
X423845Y208615D01*
X423845Y205831D01*
X423848Y205811D01*
X423846Y205792D01*
X423868Y205690D01*
X423884Y205588D01*
X423894Y205571D01*
X423898Y205551D01*
X423951Y205462D01*
X424000Y205371D01*
X424014Y205357D01*
X424024Y205340D01*
X424103Y205273D01*
X424178Y205201D01*
X424196Y205193D01*
X424211Y205180D01*
X424307Y205141D01*
X424401Y205098D01*
X424421Y205096D01*
X424439Y205088D01*
X424606Y205070D01*
X425994Y205070D01*
X426014Y205073D01*
X426033Y205071D01*
X426135Y205093D01*
X426237Y205109D01*
X426254Y205119D01*
X426274Y205123D01*
X426363Y205176D01*
X426454Y205225D01*
X426468Y205239D01*
X426485Y205249D01*
X426552Y205328D01*
X426624Y205403D01*
X426632Y205421D01*
X426645Y205436D01*
X426684Y205532D01*
X426727Y205626D01*
X426729Y205646D01*
X426737Y205664D01*
X426755Y205831D01*
X426755Y208615D01*
X429710Y211570D01*
X433890Y211570D01*
X436845Y208615D01*
X436845Y205831D01*
X436848Y205811D01*
X436846Y205792D01*
X436868Y205690D01*
X436884Y205588D01*
X436894Y205571D01*
X436898Y205551D01*
X436951Y205462D01*
X437000Y205371D01*
X437014Y205357D01*
X437024Y205340D01*
X437103Y205273D01*
X437178Y205201D01*
X437196Y205193D01*
X437211Y205180D01*
X437307Y205141D01*
X437401Y205098D01*
X437421Y205096D01*
X437439Y205088D01*
X437606Y205070D01*
X438241Y205070D01*
X438335Y205085D01*
X438428Y205093D01*
X438455Y205105D01*
X438484Y205109D01*
X438567Y205154D01*
X438654Y205191D01*
X438676Y205211D01*
X438702Y205225D01*
X438766Y205293D01*
X438836Y205356D01*
X438851Y205382D01*
X438869Y205401D01*
X443676Y205401D01*
X443676Y200584D01*
X443615Y200548D01*
X443596Y200526D01*
X443572Y200509D01*
X443516Y200433D01*
X443455Y200361D01*
X443444Y200334D01*
X443427Y200311D01*
X443399Y200221D01*
X443363Y200133D01*
X443359Y200096D01*
X443353Y200076D01*
X443353Y200043D01*
X443345Y199966D01*
X443345Y197935D01*
X443292Y197883D01*
X443235Y197804D01*
X443173Y197729D01*
X443164Y197704D01*
X443148Y197683D01*
X443120Y197590D01*
X443085Y197499D01*
X443084Y197473D01*
X443076Y197448D01*
X443079Y197351D01*
X443074Y197253D01*
X443082Y197228D01*
X443082Y197202D01*
X443116Y197111D01*
X443143Y197017D01*
X443158Y196996D01*
X443167Y196971D01*
X443228Y196895D01*
X443283Y196815D01*
X443304Y196799D01*
X443321Y196779D01*
X443402Y196726D01*
X443481Y196668D01*
X443506Y196660D01*
X443527Y196646D01*
X443622Y196622D01*
X443715Y196592D01*
X443741Y196592D01*
X443766Y196586D01*
X443863Y196593D01*
X443960Y196594D01*
X443992Y196603D01*
X444011Y196605D01*
X444042Y196618D01*
X444122Y196641D01*
X444907Y196966D01*
X445426Y197070D01*
X445426Y192099D01*
X440455Y192099D01*
X440559Y192618D01*
X441056Y193818D01*
X441095Y193905D01*
X441146Y194014D01*
X441146Y194017D01*
X441147Y194020D01*
X441160Y194139D01*
X441173Y194258D01*
X441172Y194262D01*
X441173Y194265D01*
X441146Y194381D01*
X441121Y194499D01*
X441119Y194501D01*
X441118Y194504D01*
X441056Y194607D01*
X440995Y194710D01*
X440992Y194712D01*
X440991Y194715D01*
X440900Y194791D01*
X440808Y194870D01*
X440805Y194871D01*
X440802Y194873D01*
X440693Y194916D01*
X440579Y194962D01*
X440576Y194962D01*
X440574Y194963D01*
X440563Y194964D01*
X440413Y194980D01*
X436210Y194980D01*
X433255Y197935D01*
X433255Y200719D01*
X433252Y200739D01*
X433254Y200758D01*
X433232Y200860D01*
X433216Y200962D01*
X433206Y200979D01*
X433202Y200999D01*
X433149Y201088D01*
X433100Y201179D01*
X433086Y201193D01*
X433076Y201210D01*
X432997Y201277D01*
X432922Y201349D01*
X432904Y201357D01*
X432889Y201370D01*
X432793Y201409D01*
X432699Y201452D01*
X432679Y201454D01*
X432661Y201462D01*
X432494Y201480D01*
X431106Y201480D01*
X431086Y201477D01*
X431067Y201479D01*
X430965Y201457D01*
X430863Y201441D01*
X430846Y201431D01*
X430826Y201427D01*
X430737Y201374D01*
X430646Y201325D01*
X430632Y201311D01*
X430615Y201301D01*
X430548Y201222D01*
X430476Y201147D01*
X430468Y201129D01*
X430455Y201114D01*
X430416Y201018D01*
X430373Y200924D01*
X430371Y200904D01*
X430363Y200886D01*
X430345Y200719D01*
X430345Y197935D01*
X427390Y194980D01*
X423187Y194980D01*
X423070Y194961D01*
X422950Y194942D01*
X422948Y194941D01*
X422945Y194941D01*
X422840Y194885D01*
X422732Y194829D01*
X422730Y194827D01*
X422727Y194825D01*
X422646Y194740D01*
X422561Y194652D01*
X422560Y194649D01*
X422558Y194647D01*
X422507Y194539D01*
X422456Y194430D01*
X422455Y194427D01*
X422454Y194424D01*
X422441Y194304D01*
X422427Y194186D01*
X422427Y194183D01*
X422427Y194180D01*
X422453Y194062D01*
X422477Y193945D01*
X422479Y193942D01*
X422479Y193939D01*
X422485Y193930D01*
X422550Y193805D01*
X423041Y192618D01*
X423145Y192099D01*
X418174Y192099D01*
X418174Y197070D01*
X418693Y196966D01*
X419478Y196641D01*
X419573Y196619D01*
X419666Y196590D01*
X419692Y196591D01*
X419718Y196585D01*
X419815Y196594D01*
X419912Y196597D01*
X419937Y196606D01*
X419963Y196608D01*
X420052Y196648D01*
X420143Y196681D01*
X420164Y196697D01*
X420187Y196708D01*
X420259Y196774D01*
X420335Y196835D01*
X420349Y196857D01*
X420369Y196874D01*
X420416Y196960D01*
X420468Y197042D01*
X420475Y197067D01*
X420487Y197090D01*
X420505Y197186D01*
X420528Y197280D01*
X420526Y197306D01*
X420531Y197332D01*
X420517Y197428D01*
X420509Y197525D01*
X420499Y197549D01*
X420495Y197575D01*
X420451Y197662D01*
X420413Y197752D01*
X420392Y197777D01*
X420384Y197795D01*
X420360Y197818D01*
X420308Y197883D01*
X420255Y197935D01*
X420255Y200719D01*
X420252Y200739D01*
X420254Y200758D01*
X420232Y200860D01*
X420216Y200962D01*
X420206Y200979D01*
X420202Y200999D01*
X420149Y201088D01*
X420100Y201179D01*
X420086Y201193D01*
X420076Y201210D01*
X419997Y201277D01*
X419922Y201349D01*
X419904Y201357D01*
X419889Y201370D01*
X419793Y201409D01*
X419699Y201452D01*
X419679Y201454D01*
X419661Y201462D01*
X419494Y201480D01*
X418741Y201480D01*
X418651Y201466D01*
X418560Y201458D01*
X418531Y201446D01*
X418499Y201441D01*
X418418Y201398D01*
X418334Y201362D01*
X418302Y201336D01*
X418281Y201325D01*
X418259Y201302D01*
X418203Y201257D01*
X415440Y198494D01*
X415426Y198475D01*
X415408Y198461D01*
X415355Y198376D01*
X415296Y198294D01*
X415289Y198272D01*
X415277Y198253D01*
X415253Y198155D01*
X415224Y198059D01*
X415224Y198036D01*
X415219Y198014D01*
X415227Y197914D01*
X415230Y197813D01*
X415238Y197791D01*
X415240Y197768D01*
X415280Y197677D01*
X415314Y197582D01*
X415329Y197564D01*
X415338Y197543D01*
X415405Y197469D01*
X415426Y197443D01*
X415426Y191338D01*
X415429Y191319D01*
X415427Y191299D01*
X415449Y191197D01*
X415465Y191095D01*
X415475Y191078D01*
X415479Y191058D01*
X415532Y190969D01*
X415581Y190878D01*
X415595Y190864D01*
X415605Y190847D01*
X415684Y190780D01*
X415741Y190726D01*
X415727Y190718D01*
X415713Y190704D01*
X415696Y190694D01*
X415629Y190615D01*
X415557Y190540D01*
X415549Y190522D01*
X415536Y190507D01*
X415497Y190410D01*
X415454Y190317D01*
X415452Y190297D01*
X415444Y190279D01*
X415426Y190112D01*
X415426Y184380D01*
X414907Y184484D01*
X413726Y184973D01*
X412662Y185683D01*
X411758Y186587D01*
X411629Y186781D01*
X411613Y186798D01*
X411602Y186818D01*
X411530Y186887D01*
X411461Y186961D01*
X411441Y186972D01*
X411424Y186988D01*
X411333Y187030D01*
X411245Y187078D01*
X411222Y187082D01*
X411201Y187091D01*
X411101Y187102D01*
X411002Y187119D01*
X410979Y187116D01*
X410957Y187118D01*
X410858Y187097D01*
X410759Y187082D01*
X410739Y187071D01*
X410716Y187066D01*
X410630Y187015D01*
X410541Y186968D01*
X410525Y186952D01*
X410505Y186940D01*
X410440Y186863D01*
X410370Y186791D01*
X410360Y186771D01*
X410345Y186753D01*
X410307Y186660D01*
X410265Y186569D01*
X410262Y186546D01*
X410253Y186525D01*
X410235Y186358D01*
X410235Y185325D01*
X403390Y178480D01*
X395741Y178480D01*
X395651Y178466D01*
X395560Y178458D01*
X395531Y178446D01*
X395499Y178441D01*
X395418Y178398D01*
X395334Y178362D01*
X395302Y178336D01*
X395281Y178325D01*
X395259Y178302D01*
X395203Y178257D01*
X351106Y134160D01*
X351038Y134066D01*
X350968Y133971D01*
X350966Y133965D01*
X350962Y133960D01*
X350928Y133849D01*
X350892Y133738D01*
X350892Y133731D01*
X350890Y133725D01*
X350893Y133609D01*
X350894Y133492D01*
X350896Y133484D01*
X350896Y133479D01*
X350903Y133462D01*
X350941Y133331D01*
X351001Y133186D01*
X351001Y130974D01*
X350154Y128930D01*
X348590Y127366D01*
X346546Y126519D01*
X344334Y126519D01*
G37*
%LPD*%
%LPC*%
G36*
X51153Y61721D02*
X51153Y61721D01*
X42671Y70203D01*
X42671Y82197D01*
X51153Y90679D01*
X63147Y90679D01*
X71629Y82197D01*
X71629Y70203D01*
X63147Y61721D01*
X51153Y61721D01*
G37*
%LPD*%
%LPC*%
G36*
X19403Y61721D02*
X19403Y61721D01*
X10921Y70203D01*
X10921Y82197D01*
X19403Y90679D01*
X31397Y90679D01*
X39879Y82197D01*
X39879Y70203D01*
X31397Y61721D01*
X19403Y61721D01*
G37*
%LPD*%
%LPC*%
G36*
X82903Y61721D02*
X82903Y61721D01*
X74421Y70203D01*
X74421Y82197D01*
X82903Y90679D01*
X94897Y90679D01*
X103379Y82197D01*
X103379Y70203D01*
X94897Y61721D01*
X82903Y61721D01*
G37*
%LPD*%
%LPC*%
G36*
X545174Y192099D02*
X545174Y192099D01*
X545174Y197070D01*
X545693Y196966D01*
X546478Y196641D01*
X546573Y196619D01*
X546666Y196590D01*
X546692Y196591D01*
X546718Y196585D01*
X546815Y196594D01*
X546912Y196597D01*
X546937Y196606D01*
X546963Y196608D01*
X547052Y196648D01*
X547143Y196681D01*
X547164Y196697D01*
X547187Y196708D01*
X547259Y196774D01*
X547335Y196835D01*
X547349Y196857D01*
X547369Y196874D01*
X547416Y196960D01*
X547468Y197042D01*
X547475Y197067D01*
X547487Y197090D01*
X547505Y197186D01*
X547528Y197280D01*
X547526Y197306D01*
X547531Y197332D01*
X547517Y197428D01*
X547509Y197525D01*
X547499Y197549D01*
X547495Y197575D01*
X547451Y197662D01*
X547413Y197752D01*
X547392Y197777D01*
X547384Y197795D01*
X547360Y197818D01*
X547308Y197883D01*
X547255Y197935D01*
X547255Y200719D01*
X547252Y200739D01*
X547254Y200758D01*
X547232Y200860D01*
X547216Y200962D01*
X547206Y200979D01*
X547202Y200999D01*
X547149Y201088D01*
X547100Y201179D01*
X547086Y201193D01*
X547076Y201210D01*
X546997Y201277D01*
X546922Y201349D01*
X546904Y201357D01*
X546889Y201370D01*
X546793Y201409D01*
X546699Y201452D01*
X546679Y201454D01*
X546661Y201462D01*
X546494Y201480D01*
X543710Y201480D01*
X540755Y204435D01*
X540755Y208615D01*
X540902Y208761D01*
X540957Y208838D01*
X541017Y208910D01*
X541028Y208937D01*
X541045Y208961D01*
X541073Y209051D01*
X541108Y209139D01*
X541109Y209168D01*
X541118Y209196D01*
X541115Y209290D01*
X541120Y209384D01*
X541112Y209413D01*
X541111Y209442D01*
X541079Y209530D01*
X541053Y209621D01*
X541037Y209645D01*
X541027Y209673D01*
X540968Y209746D01*
X540915Y209824D01*
X540887Y209848D01*
X540873Y209865D01*
X540846Y209882D01*
X540786Y209932D01*
X539662Y210683D01*
X538758Y211587D01*
X538735Y211622D01*
X538719Y211639D01*
X538708Y211660D01*
X538636Y211729D01*
X538567Y211802D01*
X538547Y211813D01*
X538530Y211829D01*
X538439Y211871D01*
X538351Y211919D01*
X538328Y211923D01*
X538307Y211933D01*
X538207Y211944D01*
X538108Y211961D01*
X538085Y211957D01*
X538063Y211960D01*
X537965Y211938D01*
X537865Y211923D01*
X537845Y211912D01*
X537822Y211907D01*
X537736Y211856D01*
X537647Y211810D01*
X537631Y211793D01*
X537611Y211781D01*
X537546Y211705D01*
X537476Y211633D01*
X537466Y211612D01*
X537451Y211594D01*
X537414Y211501D01*
X537371Y211411D01*
X537368Y211388D01*
X537359Y211366D01*
X537341Y211199D01*
X537341Y209424D01*
X536345Y207020D01*
X534505Y205180D01*
X532889Y204511D01*
X532872Y204500D01*
X532853Y204495D01*
X532768Y204436D01*
X532680Y204381D01*
X532667Y204366D01*
X532651Y204354D01*
X532589Y204271D01*
X532523Y204192D01*
X532516Y204173D01*
X532504Y204157D01*
X532472Y204058D01*
X532435Y203962D01*
X532434Y203942D01*
X532428Y203923D01*
X532429Y203819D01*
X532424Y203716D01*
X532430Y203697D01*
X532430Y203677D01*
X532477Y203516D01*
X532878Y202548D01*
X533017Y201848D01*
X526312Y201848D01*
X526292Y201845D01*
X526273Y201847D01*
X526171Y201825D01*
X526069Y201808D01*
X526052Y201799D01*
X526032Y201795D01*
X525943Y201742D01*
X525852Y201693D01*
X525838Y201679D01*
X525821Y201669D01*
X525754Y201590D01*
X525683Y201515D01*
X525674Y201497D01*
X525661Y201482D01*
X525623Y201386D01*
X525579Y201292D01*
X525577Y201272D01*
X525569Y201254D01*
X525551Y201087D01*
X525551Y200324D01*
X525549Y200324D01*
X525549Y201087D01*
X525546Y201107D01*
X525548Y201126D01*
X525526Y201228D01*
X525509Y201330D01*
X525500Y201347D01*
X525496Y201367D01*
X525443Y201456D01*
X525394Y201547D01*
X525380Y201561D01*
X525370Y201578D01*
X525291Y201645D01*
X525216Y201716D01*
X525198Y201725D01*
X525183Y201738D01*
X525087Y201777D01*
X524993Y201820D01*
X524973Y201822D01*
X524955Y201830D01*
X524788Y201848D01*
X518083Y201848D01*
X518222Y202548D01*
X518797Y203935D01*
X519631Y205183D01*
X520692Y206244D01*
X521940Y207078D01*
X523327Y207653D01*
X523956Y207778D01*
X524045Y207811D01*
X524135Y207837D01*
X524159Y207854D01*
X524187Y207864D01*
X524260Y207924D01*
X524337Y207978D01*
X524355Y208001D01*
X524377Y208020D01*
X524428Y208100D01*
X524484Y208175D01*
X524493Y208203D01*
X524509Y208228D01*
X524531Y208319D01*
X524560Y208409D01*
X524560Y208438D01*
X524567Y208467D01*
X524559Y208561D01*
X524558Y208655D01*
X524548Y208690D01*
X524546Y208712D01*
X524533Y208742D01*
X524511Y208816D01*
X524259Y209424D01*
X524259Y212026D01*
X525255Y214430D01*
X527095Y216270D01*
X529499Y217266D01*
X532101Y217266D01*
X534505Y216270D01*
X536201Y214574D01*
X536275Y214521D01*
X536345Y214461D01*
X536375Y214449D01*
X536401Y214430D01*
X536488Y214403D01*
X536573Y214369D01*
X536614Y214365D01*
X536636Y214358D01*
X536668Y214359D01*
X536740Y214351D01*
X543187Y214351D01*
X543206Y214354D01*
X543226Y214352D01*
X543328Y214374D01*
X543430Y214390D01*
X543447Y214400D01*
X543467Y214404D01*
X543556Y214457D01*
X543647Y214506D01*
X543661Y214520D01*
X543678Y214530D01*
X543745Y214609D01*
X543799Y214666D01*
X543807Y214652D01*
X543821Y214638D01*
X543831Y214621D01*
X543910Y214554D01*
X543985Y214482D01*
X544003Y214474D01*
X544018Y214461D01*
X544115Y214422D01*
X544208Y214379D01*
X544228Y214377D01*
X544246Y214369D01*
X544413Y214351D01*
X550145Y214351D01*
X550041Y213832D01*
X549552Y212650D01*
X548800Y211526D01*
X548772Y211463D01*
X548735Y211405D01*
X548721Y211352D01*
X548699Y211302D01*
X548692Y211233D01*
X548675Y211167D01*
X548679Y211112D01*
X548673Y211057D01*
X548689Y210990D01*
X548694Y210922D01*
X548715Y210871D01*
X548728Y210817D01*
X548763Y210758D01*
X548790Y210695D01*
X548838Y210635D01*
X548856Y210607D01*
X548872Y210593D01*
X548895Y210564D01*
X550845Y208615D01*
X550845Y205831D01*
X550848Y205811D01*
X550846Y205792D01*
X550868Y205690D01*
X550884Y205588D01*
X550894Y205571D01*
X550898Y205551D01*
X550951Y205462D01*
X551000Y205371D01*
X551014Y205357D01*
X551024Y205340D01*
X551103Y205273D01*
X551178Y205201D01*
X551196Y205193D01*
X551211Y205180D01*
X551307Y205141D01*
X551401Y205098D01*
X551421Y205096D01*
X551439Y205088D01*
X551606Y205070D01*
X552994Y205070D01*
X553014Y205073D01*
X553033Y205071D01*
X553135Y205093D01*
X553237Y205109D01*
X553254Y205119D01*
X553274Y205123D01*
X553363Y205176D01*
X553454Y205225D01*
X553468Y205239D01*
X553485Y205249D01*
X553552Y205328D01*
X553624Y205403D01*
X553632Y205421D01*
X553645Y205436D01*
X553684Y205532D01*
X553727Y205626D01*
X553729Y205646D01*
X553737Y205664D01*
X553755Y205831D01*
X553755Y208615D01*
X556710Y211570D01*
X560890Y211570D01*
X563845Y208615D01*
X563845Y205831D01*
X563848Y205811D01*
X563846Y205792D01*
X563868Y205690D01*
X563884Y205588D01*
X563894Y205571D01*
X563898Y205551D01*
X563951Y205462D01*
X564000Y205371D01*
X564014Y205357D01*
X564024Y205340D01*
X564103Y205273D01*
X564178Y205201D01*
X564196Y205193D01*
X564211Y205180D01*
X564307Y205141D01*
X564401Y205098D01*
X564421Y205096D01*
X564439Y205088D01*
X564606Y205070D01*
X565241Y205070D01*
X565335Y205085D01*
X565428Y205093D01*
X565455Y205105D01*
X565484Y205109D01*
X565567Y205154D01*
X565654Y205191D01*
X565676Y205211D01*
X565702Y205225D01*
X565766Y205293D01*
X565836Y205356D01*
X565851Y205382D01*
X565869Y205401D01*
X570676Y205401D01*
X570676Y200584D01*
X570615Y200548D01*
X570596Y200526D01*
X570572Y200509D01*
X570516Y200433D01*
X570455Y200361D01*
X570444Y200334D01*
X570427Y200311D01*
X570399Y200221D01*
X570363Y200133D01*
X570359Y200096D01*
X570353Y200076D01*
X570353Y200043D01*
X570345Y199966D01*
X570345Y197935D01*
X570292Y197883D01*
X570235Y197804D01*
X570173Y197729D01*
X570164Y197704D01*
X570148Y197683D01*
X570120Y197590D01*
X570085Y197499D01*
X570084Y197473D01*
X570076Y197448D01*
X570079Y197350D01*
X570075Y197253D01*
X570082Y197228D01*
X570082Y197202D01*
X570116Y197110D01*
X570143Y197017D01*
X570158Y196996D01*
X570167Y196971D01*
X570228Y196895D01*
X570283Y196815D01*
X570304Y196799D01*
X570321Y196779D01*
X570403Y196726D01*
X570481Y196668D01*
X570505Y196660D01*
X570528Y196646D01*
X570622Y196622D01*
X570715Y196592D01*
X570741Y196592D01*
X570766Y196586D01*
X570863Y196593D01*
X570961Y196594D01*
X570992Y196603D01*
X571011Y196605D01*
X571042Y196618D01*
X571122Y196641D01*
X571907Y196966D01*
X572426Y197070D01*
X572426Y192099D01*
X567455Y192099D01*
X567559Y192618D01*
X568056Y193818D01*
X568095Y193905D01*
X568146Y194014D01*
X568146Y194017D01*
X568147Y194020D01*
X568160Y194139D01*
X568173Y194258D01*
X568172Y194262D01*
X568173Y194265D01*
X568146Y194381D01*
X568121Y194499D01*
X568119Y194501D01*
X568118Y194504D01*
X568056Y194607D01*
X567995Y194710D01*
X567992Y194712D01*
X567991Y194715D01*
X567900Y194791D01*
X567808Y194870D01*
X567805Y194871D01*
X567802Y194873D01*
X567693Y194916D01*
X567579Y194962D01*
X567576Y194962D01*
X567574Y194963D01*
X567563Y194964D01*
X567413Y194980D01*
X563210Y194980D01*
X560255Y197935D01*
X560255Y200719D01*
X560252Y200739D01*
X560254Y200758D01*
X560232Y200860D01*
X560216Y200962D01*
X560206Y200979D01*
X560202Y200999D01*
X560149Y201088D01*
X560100Y201179D01*
X560086Y201193D01*
X560076Y201210D01*
X559997Y201277D01*
X559922Y201349D01*
X559904Y201357D01*
X559889Y201370D01*
X559793Y201409D01*
X559699Y201452D01*
X559679Y201454D01*
X559661Y201462D01*
X559494Y201480D01*
X558106Y201480D01*
X558086Y201477D01*
X558067Y201479D01*
X557965Y201457D01*
X557863Y201441D01*
X557846Y201431D01*
X557826Y201427D01*
X557737Y201374D01*
X557646Y201325D01*
X557632Y201311D01*
X557615Y201301D01*
X557548Y201222D01*
X557476Y201147D01*
X557468Y201129D01*
X557455Y201114D01*
X557416Y201018D01*
X557373Y200924D01*
X557371Y200904D01*
X557363Y200886D01*
X557345Y200719D01*
X557345Y197935D01*
X554390Y194980D01*
X550187Y194980D01*
X550070Y194961D01*
X549950Y194942D01*
X549948Y194941D01*
X549945Y194941D01*
X549840Y194885D01*
X549732Y194829D01*
X549730Y194827D01*
X549727Y194825D01*
X549646Y194740D01*
X549561Y194652D01*
X549560Y194649D01*
X549558Y194647D01*
X549507Y194539D01*
X549456Y194430D01*
X549455Y194427D01*
X549454Y194424D01*
X549441Y194304D01*
X549427Y194186D01*
X549427Y194183D01*
X549427Y194180D01*
X549453Y194062D01*
X549477Y193945D01*
X549479Y193942D01*
X549479Y193939D01*
X549485Y193930D01*
X549550Y193805D01*
X550041Y192618D01*
X550145Y192099D01*
X545174Y192099D01*
G37*
%LPD*%
%LPC*%
G36*
X321339Y234219D02*
X321339Y234219D01*
X318935Y235215D01*
X317239Y236911D01*
X317165Y236964D01*
X317095Y237024D01*
X317065Y237036D01*
X317039Y237055D01*
X316952Y237082D01*
X316867Y237116D01*
X316826Y237120D01*
X316804Y237127D01*
X316772Y237126D01*
X316700Y237134D01*
X310253Y237134D01*
X310234Y237131D01*
X310214Y237133D01*
X310112Y237111D01*
X310010Y237095D01*
X309993Y237085D01*
X309973Y237081D01*
X309884Y237028D01*
X309793Y236979D01*
X309779Y236965D01*
X309762Y236955D01*
X309695Y236876D01*
X309641Y236819D01*
X309633Y236833D01*
X309619Y236847D01*
X309609Y236864D01*
X309530Y236931D01*
X309455Y237003D01*
X309437Y237011D01*
X309422Y237024D01*
X309325Y237063D01*
X309232Y237106D01*
X309212Y237108D01*
X309194Y237116D01*
X309027Y237134D01*
X303295Y237134D01*
X303399Y237653D01*
X303888Y238835D01*
X304640Y239959D01*
X304668Y240022D01*
X304705Y240080D01*
X304719Y240133D01*
X304741Y240183D01*
X304748Y240252D01*
X304765Y240318D01*
X304761Y240373D01*
X304767Y240428D01*
X304751Y240495D01*
X304746Y240563D01*
X304725Y240614D01*
X304712Y240668D01*
X304677Y240727D01*
X304650Y240790D01*
X304602Y240850D01*
X304584Y240878D01*
X304568Y240892D01*
X304545Y240921D01*
X302595Y242870D01*
X302595Y245654D01*
X302592Y245674D01*
X302594Y245693D01*
X302572Y245795D01*
X302556Y245897D01*
X302546Y245914D01*
X302542Y245934D01*
X302489Y246023D01*
X302440Y246114D01*
X302426Y246128D01*
X302416Y246145D01*
X302337Y246212D01*
X302262Y246284D01*
X302244Y246292D01*
X302229Y246305D01*
X302133Y246344D01*
X302039Y246387D01*
X302019Y246389D01*
X302001Y246397D01*
X301834Y246415D01*
X300446Y246415D01*
X300426Y246412D01*
X300407Y246414D01*
X300305Y246392D01*
X300203Y246376D01*
X300186Y246366D01*
X300166Y246362D01*
X300077Y246309D01*
X299986Y246260D01*
X299972Y246246D01*
X299955Y246236D01*
X299888Y246157D01*
X299816Y246082D01*
X299808Y246064D01*
X299795Y246049D01*
X299756Y245953D01*
X299713Y245859D01*
X299711Y245839D01*
X299703Y245821D01*
X299685Y245654D01*
X299685Y242870D01*
X296730Y239915D01*
X292550Y239915D01*
X289595Y242870D01*
X289595Y245654D01*
X289592Y245674D01*
X289594Y245693D01*
X289572Y245795D01*
X289556Y245897D01*
X289546Y245914D01*
X289542Y245934D01*
X289489Y246023D01*
X289440Y246114D01*
X289426Y246128D01*
X289416Y246145D01*
X289337Y246212D01*
X289262Y246284D01*
X289244Y246292D01*
X289229Y246305D01*
X289133Y246344D01*
X289039Y246387D01*
X289019Y246389D01*
X289001Y246397D01*
X288834Y246415D01*
X288199Y246415D01*
X288105Y246400D01*
X288012Y246392D01*
X287985Y246380D01*
X287956Y246376D01*
X287873Y246331D01*
X287786Y246294D01*
X287764Y246274D01*
X287738Y246260D01*
X287674Y246192D01*
X287604Y246129D01*
X287589Y246103D01*
X287571Y246084D01*
X282764Y246084D01*
X282764Y250901D01*
X282825Y250937D01*
X282844Y250959D01*
X282868Y250976D01*
X282924Y251052D01*
X282985Y251124D01*
X282996Y251151D01*
X283013Y251174D01*
X283041Y251264D01*
X283077Y251352D01*
X283081Y251389D01*
X283087Y251409D01*
X283087Y251442D01*
X283095Y251519D01*
X283095Y253550D01*
X283148Y253602D01*
X283205Y253681D01*
X283267Y253756D01*
X283276Y253781D01*
X283292Y253802D01*
X283320Y253895D01*
X283355Y253986D01*
X283356Y254012D01*
X283364Y254037D01*
X283361Y254135D01*
X283365Y254232D01*
X283358Y254257D01*
X283358Y254283D01*
X283324Y254375D01*
X283297Y254468D01*
X283282Y254489D01*
X283273Y254514D01*
X283212Y254590D01*
X283157Y254670D01*
X283136Y254686D01*
X283119Y254706D01*
X283037Y254759D01*
X282959Y254817D01*
X282935Y254825D01*
X282912Y254839D01*
X282818Y254863D01*
X282725Y254893D01*
X282699Y254893D01*
X282674Y254899D01*
X282577Y254892D01*
X282479Y254891D01*
X282448Y254882D01*
X282429Y254880D01*
X282398Y254867D01*
X282318Y254844D01*
X281533Y254519D01*
X281014Y254415D01*
X281014Y259386D01*
X285985Y259386D01*
X285881Y258867D01*
X285384Y257667D01*
X285344Y257579D01*
X285294Y257471D01*
X285294Y257468D01*
X285293Y257465D01*
X285280Y257345D01*
X285267Y257227D01*
X285268Y257223D01*
X285267Y257220D01*
X285294Y257104D01*
X285319Y256986D01*
X285321Y256984D01*
X285322Y256981D01*
X285384Y256878D01*
X285445Y256775D01*
X285448Y256773D01*
X285449Y256770D01*
X285540Y256694D01*
X285632Y256615D01*
X285635Y256614D01*
X285638Y256612D01*
X285747Y256569D01*
X285861Y256523D01*
X285864Y256523D01*
X285866Y256522D01*
X285877Y256521D01*
X286027Y256505D01*
X290230Y256505D01*
X293185Y253550D01*
X293185Y250766D01*
X293188Y250746D01*
X293186Y250727D01*
X293208Y250625D01*
X293224Y250523D01*
X293234Y250506D01*
X293238Y250486D01*
X293291Y250397D01*
X293340Y250306D01*
X293354Y250292D01*
X293364Y250275D01*
X293443Y250208D01*
X293518Y250136D01*
X293536Y250128D01*
X293551Y250115D01*
X293647Y250076D01*
X293741Y250033D01*
X293761Y250031D01*
X293779Y250023D01*
X293946Y250005D01*
X295334Y250005D01*
X295354Y250008D01*
X295373Y250006D01*
X295475Y250028D01*
X295577Y250044D01*
X295594Y250054D01*
X295614Y250058D01*
X295703Y250111D01*
X295794Y250160D01*
X295808Y250174D01*
X295825Y250184D01*
X295892Y250263D01*
X295964Y250338D01*
X295972Y250356D01*
X295985Y250371D01*
X296024Y250467D01*
X296067Y250561D01*
X296069Y250581D01*
X296077Y250599D01*
X296095Y250766D01*
X296095Y253550D01*
X299050Y256505D01*
X303253Y256505D01*
X303370Y256524D01*
X303490Y256543D01*
X303492Y256544D01*
X303495Y256544D01*
X303600Y256600D01*
X303708Y256656D01*
X303710Y256658D01*
X303713Y256660D01*
X303794Y256745D01*
X303879Y256833D01*
X303880Y256836D01*
X303882Y256838D01*
X303933Y256946D01*
X303984Y257055D01*
X303985Y257058D01*
X303986Y257061D01*
X303999Y257179D01*
X304013Y257299D01*
X304013Y257302D01*
X304013Y257305D01*
X303987Y257423D01*
X303963Y257540D01*
X303961Y257543D01*
X303961Y257546D01*
X303955Y257555D01*
X303890Y257680D01*
X303399Y258867D01*
X303295Y259386D01*
X308266Y259386D01*
X308266Y254415D01*
X307747Y254519D01*
X306962Y254844D01*
X306867Y254866D01*
X306774Y254895D01*
X306748Y254894D01*
X306722Y254900D01*
X306625Y254891D01*
X306528Y254888D01*
X306503Y254879D01*
X306477Y254877D01*
X306388Y254837D01*
X306297Y254804D01*
X306276Y254788D01*
X306253Y254777D01*
X306181Y254711D01*
X306105Y254650D01*
X306091Y254628D01*
X306071Y254611D01*
X306024Y254525D01*
X305972Y254443D01*
X305965Y254418D01*
X305953Y254395D01*
X305935Y254299D01*
X305912Y254205D01*
X305914Y254179D01*
X305909Y254153D01*
X305923Y254057D01*
X305931Y253960D01*
X305941Y253936D01*
X305945Y253910D01*
X305989Y253823D01*
X306027Y253733D01*
X306048Y253708D01*
X306056Y253690D01*
X306080Y253667D01*
X306132Y253602D01*
X306185Y253550D01*
X306185Y250766D01*
X306188Y250746D01*
X306186Y250727D01*
X306208Y250625D01*
X306224Y250523D01*
X306234Y250506D01*
X306238Y250486D01*
X306291Y250397D01*
X306340Y250306D01*
X306354Y250292D01*
X306364Y250275D01*
X306443Y250208D01*
X306518Y250136D01*
X306536Y250128D01*
X306551Y250115D01*
X306647Y250076D01*
X306741Y250033D01*
X306761Y250031D01*
X306779Y250023D01*
X306946Y250005D01*
X309730Y250005D01*
X312685Y247050D01*
X312685Y242870D01*
X312538Y242724D01*
X312483Y242647D01*
X312423Y242575D01*
X312412Y242548D01*
X312395Y242524D01*
X312367Y242434D01*
X312332Y242346D01*
X312331Y242317D01*
X312322Y242289D01*
X312325Y242195D01*
X312320Y242101D01*
X312328Y242072D01*
X312329Y242043D01*
X312361Y241955D01*
X312387Y241864D01*
X312403Y241840D01*
X312413Y241812D01*
X312472Y241739D01*
X312525Y241661D01*
X312553Y241637D01*
X312567Y241620D01*
X312594Y241603D01*
X312654Y241553D01*
X313778Y240802D01*
X314682Y239898D01*
X314705Y239863D01*
X314721Y239846D01*
X314732Y239825D01*
X314804Y239756D01*
X314873Y239683D01*
X314893Y239672D01*
X314910Y239656D01*
X315001Y239614D01*
X315089Y239566D01*
X315112Y239562D01*
X315133Y239552D01*
X315233Y239541D01*
X315332Y239524D01*
X315355Y239528D01*
X315377Y239525D01*
X315475Y239547D01*
X315575Y239562D01*
X315595Y239573D01*
X315618Y239578D01*
X315704Y239629D01*
X315793Y239675D01*
X315809Y239692D01*
X315829Y239704D01*
X315894Y239780D01*
X315964Y239852D01*
X315974Y239873D01*
X315989Y239891D01*
X316026Y239984D01*
X316069Y240074D01*
X316072Y240097D01*
X316081Y240119D01*
X316099Y240286D01*
X316099Y242061D01*
X317095Y244465D01*
X318935Y246305D01*
X320551Y246974D01*
X320568Y246985D01*
X320587Y246990D01*
X320672Y247049D01*
X320676Y247052D01*
X320687Y247058D01*
X320689Y247060D01*
X320760Y247104D01*
X320773Y247119D01*
X320789Y247131D01*
X320851Y247214D01*
X320917Y247293D01*
X320924Y247312D01*
X320936Y247328D01*
X320968Y247427D01*
X321005Y247523D01*
X321006Y247543D01*
X321012Y247562D01*
X321011Y247666D01*
X321016Y247769D01*
X321010Y247788D01*
X321010Y247808D01*
X320963Y247969D01*
X320562Y248937D01*
X320423Y249637D01*
X327128Y249637D01*
X327148Y249640D01*
X327167Y249638D01*
X327269Y249660D01*
X327371Y249677D01*
X327388Y249686D01*
X327408Y249690D01*
X327497Y249743D01*
X327588Y249792D01*
X327602Y249806D01*
X327619Y249816D01*
X327686Y249895D01*
X327757Y249970D01*
X327766Y249988D01*
X327779Y250003D01*
X327817Y250099D01*
X327861Y250193D01*
X327863Y250213D01*
X327871Y250231D01*
X327889Y250398D01*
X327889Y251161D01*
X327891Y251161D01*
X327891Y250398D01*
X327894Y250378D01*
X327892Y250359D01*
X327914Y250257D01*
X327931Y250155D01*
X327940Y250138D01*
X327944Y250118D01*
X327997Y250029D01*
X328046Y249938D01*
X328060Y249924D01*
X328070Y249907D01*
X328149Y249840D01*
X328224Y249769D01*
X328242Y249760D01*
X328257Y249747D01*
X328353Y249708D01*
X328447Y249665D01*
X328467Y249663D01*
X328485Y249655D01*
X328652Y249637D01*
X335357Y249637D01*
X335218Y248937D01*
X334643Y247550D01*
X333809Y246302D01*
X332748Y245241D01*
X331500Y244407D01*
X330113Y243832D01*
X329484Y243707D01*
X329395Y243674D01*
X329305Y243648D01*
X329281Y243631D01*
X329253Y243621D01*
X329180Y243561D01*
X329103Y243507D01*
X329085Y243484D01*
X329063Y243465D01*
X329012Y243385D01*
X328956Y243310D01*
X328947Y243282D01*
X328931Y243257D01*
X328909Y243166D01*
X328880Y243076D01*
X328880Y243047D01*
X328873Y243018D01*
X328881Y242924D01*
X328882Y242830D01*
X328892Y242795D01*
X328894Y242773D01*
X328907Y242743D01*
X328929Y242669D01*
X329181Y242061D01*
X329181Y239459D01*
X328185Y237055D01*
X326345Y235215D01*
X323941Y234219D01*
X321339Y234219D01*
G37*
%LPD*%
%LPC*%
G36*
X326419Y66579D02*
X326419Y66579D01*
X324015Y67575D01*
X322319Y69271D01*
X322245Y69324D01*
X322175Y69384D01*
X322145Y69396D01*
X322119Y69415D01*
X322032Y69442D01*
X321947Y69476D01*
X321906Y69480D01*
X321884Y69487D01*
X321852Y69486D01*
X321780Y69494D01*
X315333Y69494D01*
X315314Y69491D01*
X315294Y69493D01*
X315192Y69471D01*
X315090Y69455D01*
X315073Y69445D01*
X315053Y69441D01*
X314964Y69388D01*
X314873Y69339D01*
X314859Y69325D01*
X314842Y69315D01*
X314775Y69236D01*
X314721Y69179D01*
X314713Y69193D01*
X314699Y69207D01*
X314689Y69224D01*
X314610Y69291D01*
X314535Y69363D01*
X314517Y69371D01*
X314502Y69384D01*
X314405Y69423D01*
X314312Y69466D01*
X314292Y69468D01*
X314274Y69476D01*
X314107Y69494D01*
X308375Y69494D01*
X308479Y70013D01*
X308968Y71195D01*
X309720Y72319D01*
X309748Y72382D01*
X309785Y72440D01*
X309799Y72493D01*
X309821Y72543D01*
X309828Y72612D01*
X309845Y72678D01*
X309841Y72733D01*
X309847Y72788D01*
X309831Y72855D01*
X309826Y72923D01*
X309805Y72974D01*
X309792Y73028D01*
X309757Y73087D01*
X309730Y73150D01*
X309682Y73210D01*
X309664Y73238D01*
X309648Y73252D01*
X309625Y73281D01*
X307675Y75230D01*
X307675Y78014D01*
X307672Y78034D01*
X307674Y78053D01*
X307652Y78155D01*
X307636Y78257D01*
X307626Y78274D01*
X307622Y78294D01*
X307569Y78383D01*
X307520Y78474D01*
X307506Y78488D01*
X307496Y78505D01*
X307417Y78572D01*
X307342Y78644D01*
X307324Y78652D01*
X307309Y78665D01*
X307213Y78704D01*
X307119Y78747D01*
X307099Y78749D01*
X307081Y78757D01*
X306914Y78775D01*
X305526Y78775D01*
X305506Y78772D01*
X305487Y78774D01*
X305385Y78752D01*
X305283Y78736D01*
X305266Y78726D01*
X305246Y78722D01*
X305157Y78669D01*
X305066Y78620D01*
X305052Y78606D01*
X305035Y78596D01*
X304968Y78517D01*
X304896Y78442D01*
X304888Y78424D01*
X304875Y78409D01*
X304836Y78313D01*
X304793Y78219D01*
X304791Y78199D01*
X304783Y78181D01*
X304765Y78014D01*
X304765Y75230D01*
X301810Y72275D01*
X297630Y72275D01*
X294675Y75230D01*
X294675Y78014D01*
X294672Y78034D01*
X294674Y78053D01*
X294652Y78155D01*
X294636Y78257D01*
X294626Y78274D01*
X294622Y78294D01*
X294569Y78383D01*
X294520Y78474D01*
X294506Y78488D01*
X294496Y78505D01*
X294417Y78572D01*
X294342Y78644D01*
X294324Y78652D01*
X294309Y78665D01*
X294213Y78704D01*
X294119Y78747D01*
X294099Y78749D01*
X294081Y78757D01*
X293914Y78775D01*
X293279Y78775D01*
X293185Y78760D01*
X293092Y78752D01*
X293065Y78740D01*
X293036Y78736D01*
X292953Y78691D01*
X292866Y78654D01*
X292844Y78634D01*
X292818Y78620D01*
X292754Y78552D01*
X292684Y78489D01*
X292669Y78463D01*
X292651Y78444D01*
X287844Y78444D01*
X287844Y83261D01*
X287905Y83297D01*
X287924Y83319D01*
X287948Y83336D01*
X288004Y83412D01*
X288065Y83484D01*
X288076Y83511D01*
X288093Y83534D01*
X288121Y83624D01*
X288157Y83712D01*
X288161Y83749D01*
X288167Y83769D01*
X288167Y83802D01*
X288175Y83879D01*
X288175Y85910D01*
X288228Y85962D01*
X288285Y86041D01*
X288347Y86116D01*
X288356Y86141D01*
X288372Y86162D01*
X288400Y86255D01*
X288435Y86346D01*
X288436Y86372D01*
X288444Y86397D01*
X288441Y86494D01*
X288446Y86592D01*
X288438Y86617D01*
X288438Y86643D01*
X288404Y86734D01*
X288377Y86828D01*
X288362Y86849D01*
X288353Y86874D01*
X288292Y86950D01*
X288237Y87030D01*
X288216Y87046D01*
X288199Y87066D01*
X288118Y87119D01*
X288039Y87177D01*
X288014Y87185D01*
X287993Y87199D01*
X287898Y87223D01*
X287805Y87253D01*
X287779Y87253D01*
X287754Y87259D01*
X287657Y87252D01*
X287560Y87251D01*
X287528Y87242D01*
X287509Y87240D01*
X287478Y87227D01*
X287398Y87204D01*
X286613Y86879D01*
X286094Y86775D01*
X286094Y91746D01*
X291065Y91746D01*
X290961Y91227D01*
X290464Y90027D01*
X290425Y89940D01*
X290374Y89831D01*
X290374Y89828D01*
X290373Y89825D01*
X290360Y89705D01*
X290347Y89587D01*
X290348Y89583D01*
X290347Y89580D01*
X290374Y89464D01*
X290399Y89346D01*
X290401Y89344D01*
X290402Y89341D01*
X290464Y89238D01*
X290525Y89135D01*
X290528Y89133D01*
X290529Y89130D01*
X290621Y89054D01*
X290712Y88975D01*
X290715Y88974D01*
X290718Y88972D01*
X290827Y88929D01*
X290941Y88883D01*
X290944Y88883D01*
X290946Y88882D01*
X290957Y88881D01*
X291107Y88865D01*
X295310Y88865D01*
X298265Y85910D01*
X298265Y83126D01*
X298268Y83106D01*
X298266Y83087D01*
X298288Y82985D01*
X298304Y82883D01*
X298314Y82866D01*
X298318Y82846D01*
X298371Y82757D01*
X298420Y82666D01*
X298434Y82652D01*
X298444Y82635D01*
X298523Y82568D01*
X298598Y82496D01*
X298616Y82488D01*
X298631Y82475D01*
X298727Y82436D01*
X298821Y82393D01*
X298841Y82391D01*
X298859Y82383D01*
X299026Y82365D01*
X300414Y82365D01*
X300434Y82368D01*
X300453Y82366D01*
X300555Y82388D01*
X300657Y82404D01*
X300674Y82414D01*
X300694Y82418D01*
X300783Y82471D01*
X300874Y82520D01*
X300888Y82534D01*
X300905Y82544D01*
X300972Y82623D01*
X301044Y82698D01*
X301052Y82716D01*
X301065Y82731D01*
X301104Y82827D01*
X301147Y82921D01*
X301149Y82941D01*
X301157Y82959D01*
X301175Y83126D01*
X301175Y85910D01*
X304130Y88865D01*
X308333Y88865D01*
X308450Y88884D01*
X308570Y88903D01*
X308572Y88904D01*
X308575Y88904D01*
X308680Y88960D01*
X308788Y89016D01*
X308790Y89018D01*
X308793Y89020D01*
X308874Y89105D01*
X308959Y89193D01*
X308960Y89196D01*
X308962Y89198D01*
X309012Y89305D01*
X309064Y89415D01*
X309065Y89418D01*
X309066Y89421D01*
X309079Y89539D01*
X309093Y89659D01*
X309093Y89662D01*
X309093Y89665D01*
X309067Y89783D01*
X309043Y89900D01*
X309041Y89903D01*
X309041Y89906D01*
X309035Y89915D01*
X308970Y90040D01*
X308479Y91227D01*
X308375Y91746D01*
X313346Y91746D01*
X313346Y86775D01*
X312827Y86879D01*
X312042Y87204D01*
X311947Y87226D01*
X311854Y87255D01*
X311828Y87254D01*
X311802Y87260D01*
X311705Y87251D01*
X311608Y87248D01*
X311583Y87239D01*
X311557Y87237D01*
X311468Y87197D01*
X311377Y87164D01*
X311356Y87148D01*
X311333Y87137D01*
X311261Y87071D01*
X311185Y87010D01*
X311171Y86988D01*
X311151Y86971D01*
X311104Y86885D01*
X311052Y86803D01*
X311045Y86778D01*
X311033Y86755D01*
X311015Y86659D01*
X310992Y86565D01*
X310994Y86539D01*
X310989Y86513D01*
X311003Y86417D01*
X311011Y86320D01*
X311021Y86296D01*
X311025Y86270D01*
X311069Y86183D01*
X311107Y86093D01*
X311128Y86068D01*
X311136Y86050D01*
X311160Y86027D01*
X311212Y85962D01*
X311265Y85910D01*
X311265Y83126D01*
X311268Y83106D01*
X311266Y83087D01*
X311288Y82985D01*
X311304Y82883D01*
X311314Y82866D01*
X311318Y82846D01*
X311371Y82757D01*
X311420Y82666D01*
X311434Y82652D01*
X311444Y82635D01*
X311523Y82568D01*
X311598Y82496D01*
X311616Y82488D01*
X311631Y82475D01*
X311727Y82436D01*
X311821Y82393D01*
X311841Y82391D01*
X311859Y82383D01*
X312026Y82365D01*
X314810Y82365D01*
X317765Y79410D01*
X317765Y75230D01*
X317618Y75084D01*
X317563Y75007D01*
X317503Y74935D01*
X317492Y74908D01*
X317475Y74884D01*
X317447Y74794D01*
X317412Y74706D01*
X317411Y74677D01*
X317402Y74649D01*
X317405Y74555D01*
X317400Y74461D01*
X317408Y74432D01*
X317409Y74403D01*
X317441Y74315D01*
X317467Y74224D01*
X317483Y74200D01*
X317493Y74172D01*
X317552Y74099D01*
X317605Y74021D01*
X317633Y73997D01*
X317647Y73980D01*
X317674Y73963D01*
X317734Y73913D01*
X318858Y73162D01*
X319762Y72258D01*
X319785Y72223D01*
X319801Y72206D01*
X319812Y72185D01*
X319884Y72116D01*
X319953Y72043D01*
X319973Y72032D01*
X319990Y72016D01*
X320081Y71974D01*
X320169Y71926D01*
X320192Y71922D01*
X320213Y71912D01*
X320313Y71901D01*
X320412Y71884D01*
X320435Y71888D01*
X320457Y71885D01*
X320555Y71907D01*
X320655Y71922D01*
X320675Y71933D01*
X320698Y71938D01*
X320784Y71989D01*
X320873Y72035D01*
X320889Y72052D01*
X320909Y72064D01*
X320974Y72140D01*
X321044Y72212D01*
X321054Y72233D01*
X321069Y72251D01*
X321106Y72344D01*
X321149Y72434D01*
X321152Y72457D01*
X321161Y72479D01*
X321179Y72646D01*
X321179Y74421D01*
X322175Y76825D01*
X324015Y78665D01*
X325631Y79334D01*
X325648Y79345D01*
X325667Y79350D01*
X325752Y79409D01*
X325840Y79464D01*
X325853Y79479D01*
X325869Y79491D01*
X325931Y79574D01*
X325997Y79653D01*
X326004Y79672D01*
X326016Y79688D01*
X326048Y79787D01*
X326085Y79883D01*
X326086Y79903D01*
X326092Y79922D01*
X326091Y80026D01*
X326096Y80129D01*
X326090Y80148D01*
X326090Y80168D01*
X326043Y80329D01*
X325642Y81297D01*
X325503Y81997D01*
X332208Y81997D01*
X332228Y82000D01*
X332247Y81998D01*
X332349Y82020D01*
X332451Y82037D01*
X332468Y82046D01*
X332488Y82050D01*
X332577Y82103D01*
X332668Y82152D01*
X332682Y82166D01*
X332699Y82176D01*
X332766Y82255D01*
X332837Y82330D01*
X332846Y82348D01*
X332859Y82363D01*
X332897Y82459D01*
X332941Y82553D01*
X332943Y82573D01*
X332951Y82591D01*
X332969Y82758D01*
X332969Y83521D01*
X332971Y83521D01*
X332971Y82758D01*
X332974Y82738D01*
X332972Y82719D01*
X332994Y82617D01*
X333011Y82515D01*
X333020Y82498D01*
X333024Y82478D01*
X333077Y82389D01*
X333126Y82298D01*
X333140Y82284D01*
X333150Y82267D01*
X333229Y82200D01*
X333304Y82129D01*
X333322Y82120D01*
X333337Y82107D01*
X333433Y82068D01*
X333527Y82025D01*
X333547Y82023D01*
X333565Y82015D01*
X333732Y81997D01*
X340437Y81997D01*
X340298Y81297D01*
X339723Y79910D01*
X338889Y78662D01*
X337828Y77601D01*
X336580Y76767D01*
X335193Y76192D01*
X334564Y76067D01*
X334475Y76034D01*
X334385Y76008D01*
X334361Y75991D01*
X334333Y75981D01*
X334260Y75921D01*
X334183Y75867D01*
X334165Y75844D01*
X334143Y75825D01*
X334092Y75745D01*
X334036Y75670D01*
X334027Y75642D01*
X334011Y75617D01*
X333989Y75526D01*
X333960Y75436D01*
X333960Y75407D01*
X333953Y75378D01*
X333961Y75284D01*
X333962Y75190D01*
X333972Y75155D01*
X333974Y75133D01*
X333987Y75103D01*
X334009Y75029D01*
X334261Y74421D01*
X334261Y71819D01*
X333265Y69415D01*
X331425Y67575D01*
X329021Y66579D01*
X326419Y66579D01*
G37*
%LPD*%
%LPC*%
G36*
X418174Y128599D02*
X418174Y128599D01*
X418174Y133570D01*
X418693Y133466D01*
X419478Y133141D01*
X419573Y133119D01*
X419666Y133090D01*
X419692Y133091D01*
X419718Y133085D01*
X419815Y133094D01*
X419912Y133097D01*
X419937Y133106D01*
X419963Y133108D01*
X420052Y133148D01*
X420143Y133181D01*
X420164Y133197D01*
X420187Y133208D01*
X420259Y133274D01*
X420335Y133335D01*
X420349Y133357D01*
X420369Y133374D01*
X420416Y133460D01*
X420468Y133542D01*
X420475Y133567D01*
X420487Y133590D01*
X420505Y133686D01*
X420528Y133780D01*
X420526Y133806D01*
X420531Y133832D01*
X420517Y133928D01*
X420509Y134025D01*
X420499Y134049D01*
X420495Y134075D01*
X420451Y134162D01*
X420413Y134252D01*
X420392Y134277D01*
X420384Y134295D01*
X420360Y134318D01*
X420308Y134383D01*
X420255Y134435D01*
X420255Y137219D01*
X420252Y137239D01*
X420254Y137258D01*
X420232Y137360D01*
X420216Y137462D01*
X420206Y137479D01*
X420202Y137499D01*
X420149Y137588D01*
X420100Y137679D01*
X420086Y137693D01*
X420076Y137710D01*
X419997Y137777D01*
X419922Y137849D01*
X419904Y137857D01*
X419889Y137870D01*
X419793Y137909D01*
X419699Y137952D01*
X419679Y137954D01*
X419661Y137962D01*
X419494Y137980D01*
X416710Y137980D01*
X413755Y140935D01*
X413755Y145115D01*
X413902Y145261D01*
X413957Y145338D01*
X414017Y145410D01*
X414028Y145437D01*
X414045Y145461D01*
X414073Y145551D01*
X414108Y145639D01*
X414109Y145668D01*
X414118Y145696D01*
X414115Y145790D01*
X414120Y145884D01*
X414112Y145913D01*
X414111Y145942D01*
X414079Y146030D01*
X414053Y146121D01*
X414037Y146145D01*
X414027Y146173D01*
X413968Y146246D01*
X413915Y146324D01*
X413887Y146348D01*
X413873Y146365D01*
X413846Y146382D01*
X413786Y146432D01*
X412662Y147183D01*
X411758Y148087D01*
X411735Y148122D01*
X411719Y148139D01*
X411708Y148160D01*
X411636Y148229D01*
X411567Y148302D01*
X411547Y148313D01*
X411530Y148329D01*
X411439Y148371D01*
X411351Y148419D01*
X411328Y148423D01*
X411307Y148433D01*
X411207Y148444D01*
X411108Y148461D01*
X411085Y148457D01*
X411063Y148460D01*
X410965Y148438D01*
X410865Y148423D01*
X410845Y148412D01*
X410822Y148407D01*
X410736Y148356D01*
X410647Y148310D01*
X410631Y148293D01*
X410611Y148281D01*
X410546Y148205D01*
X410476Y148133D01*
X410466Y148112D01*
X410451Y148094D01*
X410414Y148001D01*
X410371Y147911D01*
X410368Y147888D01*
X410359Y147866D01*
X410341Y147699D01*
X410341Y145924D01*
X409345Y143520D01*
X407505Y141680D01*
X405889Y141011D01*
X405872Y141000D01*
X405853Y140995D01*
X405768Y140936D01*
X405680Y140881D01*
X405667Y140866D01*
X405651Y140854D01*
X405589Y140771D01*
X405523Y140692D01*
X405516Y140673D01*
X405504Y140657D01*
X405472Y140558D01*
X405435Y140462D01*
X405434Y140442D01*
X405428Y140423D01*
X405429Y140319D01*
X405424Y140216D01*
X405430Y140197D01*
X405430Y140177D01*
X405477Y140016D01*
X405878Y139048D01*
X406017Y138348D01*
X399312Y138348D01*
X399292Y138345D01*
X399273Y138347D01*
X399171Y138325D01*
X399069Y138308D01*
X399052Y138299D01*
X399032Y138295D01*
X398943Y138242D01*
X398852Y138193D01*
X398838Y138179D01*
X398821Y138169D01*
X398754Y138090D01*
X398683Y138015D01*
X398674Y137997D01*
X398661Y137982D01*
X398623Y137886D01*
X398579Y137792D01*
X398577Y137772D01*
X398569Y137754D01*
X398551Y137587D01*
X398551Y136824D01*
X398549Y136824D01*
X398549Y137587D01*
X398546Y137607D01*
X398548Y137626D01*
X398526Y137728D01*
X398509Y137830D01*
X398500Y137847D01*
X398496Y137867D01*
X398443Y137956D01*
X398394Y138047D01*
X398380Y138061D01*
X398370Y138078D01*
X398291Y138145D01*
X398216Y138216D01*
X398198Y138225D01*
X398183Y138238D01*
X398087Y138277D01*
X397993Y138320D01*
X397973Y138322D01*
X397955Y138330D01*
X397788Y138348D01*
X391083Y138348D01*
X391222Y139048D01*
X391797Y140435D01*
X392631Y141683D01*
X393692Y142744D01*
X394940Y143578D01*
X396327Y144153D01*
X396956Y144278D01*
X397045Y144311D01*
X397135Y144337D01*
X397159Y144354D01*
X397187Y144364D01*
X397260Y144424D01*
X397337Y144478D01*
X397355Y144501D01*
X397377Y144520D01*
X397428Y144600D01*
X397484Y144675D01*
X397493Y144703D01*
X397509Y144728D01*
X397531Y144819D01*
X397560Y144909D01*
X397560Y144938D01*
X397567Y144967D01*
X397559Y145061D01*
X397558Y145155D01*
X397548Y145190D01*
X397546Y145212D01*
X397533Y145242D01*
X397511Y145316D01*
X397259Y145924D01*
X397259Y148526D01*
X398255Y150930D01*
X400095Y152770D01*
X402499Y153766D01*
X405101Y153766D01*
X407505Y152770D01*
X409201Y151074D01*
X409275Y151020D01*
X409345Y150961D01*
X409375Y150949D01*
X409401Y150930D01*
X409488Y150903D01*
X409573Y150869D01*
X409614Y150865D01*
X409636Y150858D01*
X409668Y150859D01*
X409740Y150851D01*
X416187Y150851D01*
X416206Y150854D01*
X416226Y150852D01*
X416328Y150874D01*
X416430Y150890D01*
X416447Y150900D01*
X416467Y150904D01*
X416556Y150957D01*
X416647Y151006D01*
X416661Y151020D01*
X416678Y151030D01*
X416745Y151109D01*
X416799Y151166D01*
X416807Y151152D01*
X416821Y151138D01*
X416831Y151121D01*
X416910Y151054D01*
X416985Y150982D01*
X417003Y150974D01*
X417018Y150961D01*
X417115Y150922D01*
X417208Y150879D01*
X417228Y150877D01*
X417246Y150869D01*
X417413Y150851D01*
X423145Y150851D01*
X423041Y150332D01*
X422552Y149151D01*
X421800Y148026D01*
X421772Y147963D01*
X421735Y147905D01*
X421721Y147852D01*
X421699Y147802D01*
X421692Y147733D01*
X421675Y147667D01*
X421679Y147612D01*
X421673Y147557D01*
X421689Y147490D01*
X421694Y147422D01*
X421715Y147371D01*
X421728Y147317D01*
X421763Y147258D01*
X421790Y147195D01*
X421838Y147135D01*
X421856Y147107D01*
X421872Y147093D01*
X421895Y147064D01*
X423845Y145115D01*
X423845Y142331D01*
X423848Y142311D01*
X423846Y142292D01*
X423868Y142190D01*
X423884Y142088D01*
X423894Y142071D01*
X423898Y142051D01*
X423951Y141962D01*
X424000Y141871D01*
X424014Y141857D01*
X424024Y141840D01*
X424103Y141773D01*
X424178Y141701D01*
X424196Y141693D01*
X424211Y141680D01*
X424307Y141641D01*
X424401Y141598D01*
X424421Y141596D01*
X424439Y141588D01*
X424606Y141570D01*
X425994Y141570D01*
X426014Y141573D01*
X426033Y141571D01*
X426135Y141593D01*
X426237Y141609D01*
X426254Y141619D01*
X426274Y141623D01*
X426363Y141676D01*
X426454Y141725D01*
X426468Y141739D01*
X426485Y141749D01*
X426552Y141828D01*
X426624Y141903D01*
X426632Y141921D01*
X426645Y141936D01*
X426684Y142032D01*
X426727Y142126D01*
X426729Y142146D01*
X426737Y142164D01*
X426755Y142331D01*
X426755Y145115D01*
X429710Y148070D01*
X433890Y148070D01*
X436845Y145115D01*
X436845Y142331D01*
X436848Y142311D01*
X436846Y142292D01*
X436868Y142190D01*
X436884Y142088D01*
X436894Y142071D01*
X436898Y142051D01*
X436951Y141962D01*
X437000Y141871D01*
X437014Y141857D01*
X437024Y141840D01*
X437103Y141773D01*
X437178Y141701D01*
X437196Y141693D01*
X437211Y141680D01*
X437307Y141641D01*
X437401Y141598D01*
X437421Y141596D01*
X437439Y141588D01*
X437606Y141570D01*
X438241Y141570D01*
X438335Y141585D01*
X438429Y141593D01*
X438456Y141605D01*
X438484Y141609D01*
X438568Y141654D01*
X438654Y141691D01*
X438676Y141711D01*
X438702Y141725D01*
X438767Y141793D01*
X438837Y141857D01*
X438851Y141882D01*
X438869Y141901D01*
X443676Y141901D01*
X443676Y137084D01*
X443615Y137048D01*
X443596Y137026D01*
X443572Y137009D01*
X443517Y136933D01*
X443455Y136861D01*
X443444Y136834D01*
X443427Y136811D01*
X443399Y136721D01*
X443363Y136633D01*
X443359Y136597D01*
X443353Y136577D01*
X443353Y136544D01*
X443345Y136466D01*
X443345Y134435D01*
X443292Y134383D01*
X443235Y134304D01*
X443173Y134229D01*
X443164Y134204D01*
X443148Y134183D01*
X443120Y134090D01*
X443085Y133999D01*
X443084Y133973D01*
X443076Y133948D01*
X443079Y133851D01*
X443074Y133753D01*
X443082Y133728D01*
X443082Y133702D01*
X443116Y133611D01*
X443143Y133517D01*
X443158Y133496D01*
X443167Y133471D01*
X443228Y133395D01*
X443283Y133315D01*
X443304Y133299D01*
X443321Y133279D01*
X443402Y133226D01*
X443481Y133168D01*
X443506Y133160D01*
X443527Y133146D01*
X443622Y133122D01*
X443715Y133092D01*
X443741Y133092D01*
X443766Y133086D01*
X443863Y133093D01*
X443960Y133094D01*
X443992Y133103D01*
X444011Y133105D01*
X444042Y133118D01*
X444122Y133141D01*
X444907Y133466D01*
X445426Y133570D01*
X445426Y128599D01*
X440455Y128599D01*
X440559Y129118D01*
X441056Y130318D01*
X441095Y130405D01*
X441146Y130514D01*
X441146Y130517D01*
X441147Y130520D01*
X441160Y130640D01*
X441173Y130758D01*
X441172Y130762D01*
X441173Y130765D01*
X441146Y130881D01*
X441121Y130999D01*
X441119Y131001D01*
X441118Y131004D01*
X441056Y131107D01*
X440995Y131210D01*
X440992Y131212D01*
X440991Y131215D01*
X440900Y131291D01*
X440808Y131370D01*
X440805Y131371D01*
X440802Y131373D01*
X440693Y131416D01*
X440579Y131462D01*
X440576Y131462D01*
X440574Y131463D01*
X440563Y131464D01*
X440413Y131480D01*
X436210Y131480D01*
X433255Y134435D01*
X433255Y137219D01*
X433252Y137239D01*
X433254Y137258D01*
X433232Y137360D01*
X433216Y137462D01*
X433206Y137479D01*
X433202Y137499D01*
X433149Y137588D01*
X433100Y137679D01*
X433086Y137693D01*
X433076Y137710D01*
X432997Y137777D01*
X432922Y137849D01*
X432904Y137857D01*
X432889Y137870D01*
X432793Y137909D01*
X432699Y137952D01*
X432679Y137954D01*
X432661Y137962D01*
X432494Y137980D01*
X431106Y137980D01*
X431086Y137977D01*
X431067Y137979D01*
X430965Y137957D01*
X430863Y137941D01*
X430846Y137931D01*
X430826Y137927D01*
X430737Y137874D01*
X430646Y137825D01*
X430632Y137811D01*
X430615Y137801D01*
X430548Y137722D01*
X430476Y137647D01*
X430468Y137629D01*
X430455Y137614D01*
X430416Y137518D01*
X430373Y137424D01*
X430371Y137404D01*
X430363Y137386D01*
X430345Y137219D01*
X430345Y134435D01*
X427390Y131480D01*
X423187Y131480D01*
X423070Y131461D01*
X422950Y131442D01*
X422948Y131441D01*
X422945Y131441D01*
X422840Y131385D01*
X422732Y131329D01*
X422730Y131327D01*
X422727Y131325D01*
X422646Y131240D01*
X422561Y131152D01*
X422560Y131149D01*
X422558Y131147D01*
X422507Y131038D01*
X422456Y130930D01*
X422455Y130927D01*
X422454Y130924D01*
X422441Y130806D01*
X422427Y130686D01*
X422427Y130683D01*
X422427Y130680D01*
X422453Y130562D01*
X422477Y130445D01*
X422479Y130442D01*
X422479Y130439D01*
X422485Y130430D01*
X422550Y130305D01*
X423041Y129118D01*
X423145Y128599D01*
X418174Y128599D01*
G37*
%LPD*%
%LPC*%
G36*
X545174Y128599D02*
X545174Y128599D01*
X545174Y133570D01*
X545693Y133466D01*
X546478Y133141D01*
X546573Y133119D01*
X546666Y133090D01*
X546692Y133091D01*
X546718Y133085D01*
X546815Y133094D01*
X546912Y133097D01*
X546937Y133106D01*
X546963Y133108D01*
X547052Y133148D01*
X547143Y133181D01*
X547164Y133197D01*
X547187Y133208D01*
X547259Y133274D01*
X547335Y133335D01*
X547349Y133357D01*
X547369Y133374D01*
X547416Y133460D01*
X547468Y133542D01*
X547475Y133567D01*
X547487Y133590D01*
X547505Y133686D01*
X547528Y133780D01*
X547526Y133806D01*
X547531Y133832D01*
X547517Y133928D01*
X547509Y134025D01*
X547499Y134049D01*
X547495Y134075D01*
X547451Y134162D01*
X547413Y134252D01*
X547392Y134277D01*
X547384Y134295D01*
X547360Y134318D01*
X547308Y134383D01*
X547255Y134435D01*
X547255Y137219D01*
X547252Y137239D01*
X547254Y137258D01*
X547232Y137360D01*
X547216Y137462D01*
X547206Y137479D01*
X547202Y137499D01*
X547149Y137588D01*
X547100Y137679D01*
X547086Y137693D01*
X547076Y137710D01*
X546997Y137777D01*
X546922Y137849D01*
X546904Y137857D01*
X546889Y137870D01*
X546793Y137909D01*
X546699Y137952D01*
X546679Y137954D01*
X546661Y137962D01*
X546494Y137980D01*
X543710Y137980D01*
X540755Y140935D01*
X540755Y145115D01*
X540902Y145261D01*
X540957Y145338D01*
X541017Y145410D01*
X541028Y145437D01*
X541045Y145461D01*
X541073Y145551D01*
X541108Y145639D01*
X541109Y145668D01*
X541118Y145696D01*
X541115Y145790D01*
X541120Y145884D01*
X541112Y145913D01*
X541111Y145942D01*
X541079Y146030D01*
X541053Y146121D01*
X541037Y146145D01*
X541027Y146173D01*
X540968Y146246D01*
X540915Y146324D01*
X540887Y146348D01*
X540873Y146365D01*
X540846Y146382D01*
X540786Y146432D01*
X539662Y147183D01*
X538758Y148087D01*
X538735Y148122D01*
X538719Y148139D01*
X538708Y148160D01*
X538636Y148229D01*
X538567Y148302D01*
X538547Y148313D01*
X538530Y148329D01*
X538439Y148371D01*
X538351Y148419D01*
X538328Y148423D01*
X538307Y148433D01*
X538207Y148444D01*
X538108Y148461D01*
X538085Y148457D01*
X538063Y148460D01*
X537965Y148438D01*
X537865Y148423D01*
X537845Y148412D01*
X537822Y148407D01*
X537736Y148356D01*
X537647Y148310D01*
X537631Y148293D01*
X537611Y148281D01*
X537546Y148205D01*
X537476Y148133D01*
X537466Y148112D01*
X537451Y148094D01*
X537414Y148001D01*
X537371Y147911D01*
X537368Y147888D01*
X537359Y147866D01*
X537341Y147699D01*
X537341Y145924D01*
X536345Y143520D01*
X534505Y141680D01*
X532889Y141011D01*
X532872Y141000D01*
X532853Y140995D01*
X532768Y140936D01*
X532680Y140881D01*
X532667Y140866D01*
X532651Y140854D01*
X532589Y140771D01*
X532523Y140692D01*
X532516Y140673D01*
X532504Y140657D01*
X532472Y140559D01*
X532435Y140462D01*
X532434Y140442D01*
X532428Y140423D01*
X532429Y140319D01*
X532424Y140216D01*
X532430Y140197D01*
X532430Y140177D01*
X532477Y140016D01*
X532878Y139048D01*
X533017Y138348D01*
X526312Y138348D01*
X526292Y138345D01*
X526273Y138347D01*
X526171Y138325D01*
X526069Y138308D01*
X526052Y138299D01*
X526032Y138295D01*
X525943Y138242D01*
X525852Y138193D01*
X525838Y138179D01*
X525821Y138169D01*
X525754Y138090D01*
X525683Y138015D01*
X525674Y137997D01*
X525661Y137982D01*
X525623Y137886D01*
X525579Y137792D01*
X525577Y137772D01*
X525569Y137754D01*
X525551Y137587D01*
X525551Y136824D01*
X525549Y136824D01*
X525549Y137587D01*
X525546Y137607D01*
X525548Y137626D01*
X525526Y137728D01*
X525509Y137830D01*
X525500Y137847D01*
X525496Y137867D01*
X525443Y137956D01*
X525394Y138047D01*
X525380Y138061D01*
X525370Y138078D01*
X525291Y138145D01*
X525216Y138216D01*
X525198Y138225D01*
X525183Y138238D01*
X525087Y138277D01*
X524993Y138320D01*
X524973Y138322D01*
X524955Y138330D01*
X524788Y138348D01*
X518083Y138348D01*
X518222Y139048D01*
X518797Y140435D01*
X519631Y141683D01*
X520692Y142744D01*
X521940Y143578D01*
X523327Y144153D01*
X523956Y144278D01*
X524045Y144311D01*
X524135Y144337D01*
X524159Y144354D01*
X524187Y144364D01*
X524260Y144424D01*
X524337Y144478D01*
X524355Y144501D01*
X524377Y144520D01*
X524428Y144600D01*
X524484Y144675D01*
X524493Y144703D01*
X524509Y144728D01*
X524531Y144819D01*
X524560Y144909D01*
X524560Y144938D01*
X524567Y144967D01*
X524559Y145061D01*
X524558Y145155D01*
X524548Y145190D01*
X524546Y145212D01*
X524533Y145242D01*
X524511Y145316D01*
X524259Y145924D01*
X524259Y148526D01*
X525255Y150930D01*
X527095Y152770D01*
X529499Y153766D01*
X532101Y153766D01*
X534505Y152770D01*
X536201Y151074D01*
X536275Y151020D01*
X536345Y150961D01*
X536375Y150949D01*
X536401Y150930D01*
X536488Y150903D01*
X536573Y150869D01*
X536614Y150865D01*
X536636Y150858D01*
X536668Y150859D01*
X536740Y150851D01*
X543187Y150851D01*
X543206Y150854D01*
X543226Y150852D01*
X543328Y150874D01*
X543430Y150890D01*
X543447Y150900D01*
X543467Y150904D01*
X543556Y150957D01*
X543647Y151006D01*
X543661Y151020D01*
X543678Y151030D01*
X543745Y151109D01*
X543799Y151166D01*
X543807Y151152D01*
X543821Y151138D01*
X543831Y151121D01*
X543910Y151054D01*
X543985Y150982D01*
X544003Y150974D01*
X544018Y150961D01*
X544115Y150922D01*
X544208Y150879D01*
X544228Y150877D01*
X544246Y150869D01*
X544413Y150851D01*
X550145Y150851D01*
X550041Y150332D01*
X549552Y149151D01*
X548800Y148026D01*
X548772Y147963D01*
X548735Y147905D01*
X548721Y147852D01*
X548699Y147802D01*
X548692Y147733D01*
X548675Y147667D01*
X548679Y147612D01*
X548673Y147557D01*
X548689Y147490D01*
X548694Y147422D01*
X548715Y147371D01*
X548728Y147317D01*
X548763Y147258D01*
X548790Y147195D01*
X548838Y147135D01*
X548856Y147107D01*
X548872Y147093D01*
X548895Y147064D01*
X550845Y145115D01*
X550845Y142331D01*
X550848Y142311D01*
X550846Y142292D01*
X550868Y142190D01*
X550884Y142088D01*
X550894Y142071D01*
X550898Y142051D01*
X550951Y141962D01*
X551000Y141871D01*
X551014Y141857D01*
X551024Y141840D01*
X551103Y141773D01*
X551178Y141701D01*
X551196Y141693D01*
X551211Y141680D01*
X551307Y141641D01*
X551401Y141598D01*
X551421Y141596D01*
X551439Y141588D01*
X551606Y141570D01*
X552994Y141570D01*
X553014Y141573D01*
X553033Y141571D01*
X553135Y141593D01*
X553237Y141609D01*
X553254Y141619D01*
X553274Y141623D01*
X553363Y141676D01*
X553454Y141725D01*
X553468Y141739D01*
X553485Y141749D01*
X553552Y141828D01*
X553624Y141903D01*
X553632Y141921D01*
X553645Y141936D01*
X553684Y142032D01*
X553727Y142126D01*
X553729Y142146D01*
X553737Y142164D01*
X553755Y142331D01*
X553755Y145115D01*
X556710Y148070D01*
X560890Y148070D01*
X563845Y145115D01*
X563845Y142331D01*
X563848Y142311D01*
X563846Y142292D01*
X563868Y142190D01*
X563884Y142088D01*
X563894Y142071D01*
X563898Y142051D01*
X563951Y141962D01*
X564000Y141871D01*
X564014Y141857D01*
X564024Y141840D01*
X564103Y141773D01*
X564178Y141701D01*
X564196Y141693D01*
X564211Y141680D01*
X564307Y141641D01*
X564401Y141598D01*
X564421Y141596D01*
X564439Y141588D01*
X564606Y141570D01*
X565241Y141570D01*
X565335Y141585D01*
X565428Y141593D01*
X565455Y141605D01*
X565484Y141609D01*
X565567Y141654D01*
X565654Y141691D01*
X565676Y141711D01*
X565702Y141725D01*
X565766Y141793D01*
X565836Y141856D01*
X565851Y141882D01*
X565869Y141901D01*
X570676Y141901D01*
X570676Y137084D01*
X570615Y137048D01*
X570596Y137026D01*
X570572Y137009D01*
X570516Y136933D01*
X570455Y136861D01*
X570444Y136834D01*
X570427Y136811D01*
X570399Y136721D01*
X570363Y136633D01*
X570359Y136596D01*
X570353Y136576D01*
X570353Y136543D01*
X570345Y136466D01*
X570345Y134435D01*
X570292Y134383D01*
X570235Y134304D01*
X570173Y134229D01*
X570164Y134204D01*
X570148Y134183D01*
X570120Y134090D01*
X570085Y133999D01*
X570084Y133973D01*
X570076Y133948D01*
X570079Y133851D01*
X570074Y133753D01*
X570082Y133728D01*
X570082Y133702D01*
X570116Y133611D01*
X570143Y133517D01*
X570158Y133496D01*
X570167Y133471D01*
X570228Y133395D01*
X570283Y133315D01*
X570304Y133299D01*
X570321Y133279D01*
X570402Y133226D01*
X570481Y133168D01*
X570506Y133160D01*
X570527Y133146D01*
X570622Y133122D01*
X570715Y133092D01*
X570741Y133092D01*
X570766Y133086D01*
X570863Y133093D01*
X570960Y133094D01*
X570992Y133103D01*
X571011Y133105D01*
X571042Y133118D01*
X571122Y133141D01*
X571907Y133466D01*
X572426Y133570D01*
X572426Y128599D01*
X567455Y128599D01*
X567559Y129118D01*
X568056Y130318D01*
X568095Y130405D01*
X568146Y130514D01*
X568146Y130517D01*
X568147Y130520D01*
X568160Y130640D01*
X568173Y130758D01*
X568172Y130762D01*
X568173Y130765D01*
X568146Y130881D01*
X568121Y130999D01*
X568119Y131001D01*
X568118Y131004D01*
X568056Y131107D01*
X567995Y131210D01*
X567992Y131212D01*
X567991Y131215D01*
X567900Y131291D01*
X567808Y131370D01*
X567805Y131371D01*
X567802Y131373D01*
X567693Y131416D01*
X567579Y131462D01*
X567576Y131462D01*
X567574Y131463D01*
X567563Y131464D01*
X567413Y131480D01*
X563210Y131480D01*
X560255Y134435D01*
X560255Y137219D01*
X560252Y137239D01*
X560254Y137258D01*
X560232Y137360D01*
X560216Y137462D01*
X560206Y137479D01*
X560202Y137499D01*
X560149Y137588D01*
X560100Y137679D01*
X560086Y137693D01*
X560076Y137710D01*
X559997Y137777D01*
X559922Y137849D01*
X559904Y137857D01*
X559889Y137870D01*
X559793Y137909D01*
X559699Y137952D01*
X559679Y137954D01*
X559661Y137962D01*
X559494Y137980D01*
X558106Y137980D01*
X558086Y137977D01*
X558067Y137979D01*
X557965Y137957D01*
X557863Y137941D01*
X557846Y137931D01*
X557826Y137927D01*
X557737Y137874D01*
X557646Y137825D01*
X557632Y137811D01*
X557615Y137801D01*
X557548Y137722D01*
X557476Y137647D01*
X557468Y137629D01*
X557455Y137614D01*
X557416Y137518D01*
X557373Y137424D01*
X557371Y137404D01*
X557363Y137386D01*
X557345Y137219D01*
X557345Y134435D01*
X554390Y131480D01*
X550187Y131480D01*
X550070Y131461D01*
X549950Y131442D01*
X549948Y131441D01*
X549945Y131441D01*
X549840Y131385D01*
X549732Y131329D01*
X549730Y131327D01*
X549727Y131325D01*
X549646Y131240D01*
X549561Y131152D01*
X549560Y131149D01*
X549558Y131147D01*
X549507Y131038D01*
X549456Y130930D01*
X549455Y130927D01*
X549454Y130924D01*
X549441Y130806D01*
X549427Y130686D01*
X549427Y130683D01*
X549427Y130680D01*
X549453Y130562D01*
X549477Y130445D01*
X549479Y130442D01*
X549479Y130439D01*
X549485Y130430D01*
X549550Y130305D01*
X550041Y129118D01*
X550145Y128599D01*
X545174Y128599D01*
G37*
%LPD*%
%LPC*%
G36*
X320704Y170719D02*
X320704Y170719D01*
X318300Y171715D01*
X316604Y173411D01*
X316530Y173464D01*
X316460Y173524D01*
X316430Y173536D01*
X316404Y173555D01*
X316317Y173582D01*
X316232Y173616D01*
X316191Y173620D01*
X316169Y173627D01*
X316137Y173626D01*
X316065Y173634D01*
X309618Y173634D01*
X309599Y173631D01*
X309579Y173633D01*
X309477Y173611D01*
X309375Y173595D01*
X309358Y173585D01*
X309338Y173581D01*
X309249Y173528D01*
X309158Y173479D01*
X309144Y173465D01*
X309127Y173455D01*
X309060Y173376D01*
X309006Y173319D01*
X308998Y173333D01*
X308984Y173347D01*
X308974Y173364D01*
X308895Y173431D01*
X308820Y173503D01*
X308802Y173511D01*
X308787Y173524D01*
X308690Y173563D01*
X308597Y173606D01*
X308577Y173608D01*
X308559Y173616D01*
X308392Y173634D01*
X302660Y173634D01*
X302764Y174153D01*
X303253Y175334D01*
X304005Y176459D01*
X304033Y176522D01*
X304070Y176580D01*
X304084Y176633D01*
X304106Y176683D01*
X304113Y176752D01*
X304130Y176818D01*
X304126Y176873D01*
X304132Y176928D01*
X304116Y176995D01*
X304111Y177063D01*
X304090Y177114D01*
X304077Y177168D01*
X304042Y177227D01*
X304015Y177290D01*
X303967Y177350D01*
X303949Y177378D01*
X303933Y177392D01*
X303910Y177421D01*
X301960Y179370D01*
X301960Y182154D01*
X301957Y182174D01*
X301959Y182193D01*
X301937Y182295D01*
X301921Y182397D01*
X301911Y182414D01*
X301907Y182434D01*
X301854Y182523D01*
X301805Y182614D01*
X301791Y182628D01*
X301781Y182645D01*
X301702Y182712D01*
X301627Y182784D01*
X301609Y182792D01*
X301594Y182805D01*
X301498Y182844D01*
X301404Y182887D01*
X301384Y182889D01*
X301366Y182897D01*
X301199Y182915D01*
X299811Y182915D01*
X299791Y182912D01*
X299772Y182914D01*
X299670Y182892D01*
X299568Y182876D01*
X299551Y182866D01*
X299531Y182862D01*
X299442Y182809D01*
X299351Y182760D01*
X299337Y182746D01*
X299320Y182736D01*
X299253Y182657D01*
X299181Y182582D01*
X299173Y182564D01*
X299160Y182549D01*
X299121Y182453D01*
X299078Y182359D01*
X299076Y182339D01*
X299068Y182321D01*
X299050Y182154D01*
X299050Y179370D01*
X296095Y176415D01*
X291915Y176415D01*
X288960Y179370D01*
X288960Y182154D01*
X288957Y182174D01*
X288959Y182193D01*
X288937Y182295D01*
X288921Y182397D01*
X288911Y182414D01*
X288907Y182434D01*
X288854Y182523D01*
X288805Y182614D01*
X288791Y182628D01*
X288781Y182645D01*
X288702Y182712D01*
X288627Y182784D01*
X288609Y182792D01*
X288594Y182805D01*
X288498Y182844D01*
X288404Y182887D01*
X288384Y182889D01*
X288366Y182897D01*
X288199Y182915D01*
X287564Y182915D01*
X287470Y182900D01*
X287377Y182892D01*
X287350Y182880D01*
X287321Y182876D01*
X287238Y182831D01*
X287151Y182794D01*
X287129Y182774D01*
X287103Y182760D01*
X287039Y182692D01*
X286969Y182629D01*
X286954Y182603D01*
X286936Y182584D01*
X282129Y182584D01*
X282129Y187401D01*
X282190Y187437D01*
X282209Y187459D01*
X282233Y187476D01*
X282289Y187552D01*
X282350Y187624D01*
X282361Y187651D01*
X282378Y187674D01*
X282406Y187764D01*
X282442Y187852D01*
X282446Y187889D01*
X282452Y187909D01*
X282452Y187942D01*
X282460Y188019D01*
X282460Y190050D01*
X282513Y190102D01*
X282570Y190181D01*
X282632Y190256D01*
X282641Y190281D01*
X282657Y190302D01*
X282685Y190395D01*
X282720Y190486D01*
X282721Y190512D01*
X282729Y190537D01*
X282726Y190634D01*
X282731Y190732D01*
X282723Y190757D01*
X282723Y190783D01*
X282689Y190874D01*
X282662Y190968D01*
X282647Y190989D01*
X282638Y191014D01*
X282577Y191090D01*
X282522Y191170D01*
X282501Y191186D01*
X282484Y191206D01*
X282403Y191259D01*
X282324Y191317D01*
X282299Y191325D01*
X282278Y191339D01*
X282183Y191363D01*
X282090Y191393D01*
X282064Y191393D01*
X282039Y191399D01*
X281942Y191392D01*
X281845Y191391D01*
X281813Y191382D01*
X281794Y191380D01*
X281763Y191367D01*
X281683Y191344D01*
X280898Y191019D01*
X280379Y190915D01*
X280379Y195886D01*
X285350Y195886D01*
X285246Y195367D01*
X284749Y194167D01*
X284710Y194080D01*
X284659Y193971D01*
X284659Y193968D01*
X284658Y193965D01*
X284645Y193845D01*
X284632Y193727D01*
X284633Y193723D01*
X284632Y193720D01*
X284659Y193604D01*
X284684Y193486D01*
X284686Y193484D01*
X284687Y193481D01*
X284749Y193378D01*
X284810Y193275D01*
X284813Y193273D01*
X284814Y193270D01*
X284905Y193194D01*
X284997Y193115D01*
X285000Y193114D01*
X285003Y193112D01*
X285112Y193069D01*
X285226Y193023D01*
X285229Y193023D01*
X285231Y193022D01*
X285242Y193021D01*
X285392Y193005D01*
X289595Y193005D01*
X292550Y190050D01*
X292550Y187266D01*
X292553Y187246D01*
X292551Y187227D01*
X292573Y187125D01*
X292589Y187023D01*
X292599Y187006D01*
X292603Y186986D01*
X292656Y186897D01*
X292705Y186806D01*
X292719Y186792D01*
X292729Y186775D01*
X292808Y186708D01*
X292883Y186636D01*
X292901Y186628D01*
X292916Y186615D01*
X293012Y186576D01*
X293106Y186533D01*
X293126Y186531D01*
X293144Y186523D01*
X293311Y186505D01*
X294699Y186505D01*
X294719Y186508D01*
X294738Y186506D01*
X294840Y186528D01*
X294942Y186544D01*
X294959Y186554D01*
X294979Y186558D01*
X295068Y186611D01*
X295159Y186660D01*
X295173Y186674D01*
X295190Y186684D01*
X295257Y186763D01*
X295329Y186838D01*
X295337Y186856D01*
X295350Y186871D01*
X295389Y186967D01*
X295432Y187061D01*
X295434Y187081D01*
X295442Y187099D01*
X295460Y187266D01*
X295460Y190050D01*
X298415Y193005D01*
X302618Y193005D01*
X302735Y193024D01*
X302855Y193043D01*
X302857Y193044D01*
X302860Y193044D01*
X302965Y193100D01*
X303073Y193156D01*
X303075Y193158D01*
X303078Y193160D01*
X303159Y193245D01*
X303244Y193333D01*
X303245Y193336D01*
X303247Y193338D01*
X303298Y193446D01*
X303349Y193555D01*
X303350Y193558D01*
X303351Y193561D01*
X303364Y193679D01*
X303378Y193799D01*
X303378Y193802D01*
X303378Y193805D01*
X303352Y193923D01*
X303328Y194040D01*
X303326Y194043D01*
X303326Y194046D01*
X303320Y194055D01*
X303255Y194180D01*
X302764Y195367D01*
X302660Y195886D01*
X307631Y195886D01*
X307631Y190915D01*
X307112Y191019D01*
X306327Y191344D01*
X306232Y191366D01*
X306139Y191395D01*
X306113Y191394D01*
X306087Y191400D01*
X305990Y191391D01*
X305893Y191388D01*
X305868Y191379D01*
X305842Y191377D01*
X305753Y191337D01*
X305662Y191304D01*
X305641Y191288D01*
X305618Y191277D01*
X305546Y191211D01*
X305470Y191150D01*
X305456Y191128D01*
X305436Y191111D01*
X305389Y191025D01*
X305337Y190943D01*
X305330Y190918D01*
X305318Y190895D01*
X305300Y190799D01*
X305277Y190705D01*
X305279Y190679D01*
X305274Y190653D01*
X305288Y190557D01*
X305296Y190460D01*
X305306Y190436D01*
X305310Y190410D01*
X305354Y190323D01*
X305392Y190233D01*
X305413Y190208D01*
X305421Y190190D01*
X305445Y190167D01*
X305497Y190102D01*
X305550Y190050D01*
X305550Y187266D01*
X305553Y187246D01*
X305551Y187227D01*
X305573Y187125D01*
X305589Y187023D01*
X305599Y187006D01*
X305603Y186986D01*
X305656Y186897D01*
X305705Y186806D01*
X305719Y186792D01*
X305729Y186775D01*
X305808Y186708D01*
X305883Y186636D01*
X305901Y186628D01*
X305916Y186615D01*
X306012Y186576D01*
X306106Y186533D01*
X306126Y186531D01*
X306144Y186523D01*
X306311Y186505D01*
X309095Y186505D01*
X312050Y183550D01*
X312050Y179370D01*
X311903Y179224D01*
X311848Y179147D01*
X311788Y179075D01*
X311777Y179048D01*
X311760Y179024D01*
X311732Y178934D01*
X311697Y178846D01*
X311696Y178817D01*
X311687Y178789D01*
X311690Y178695D01*
X311685Y178601D01*
X311693Y178572D01*
X311694Y178543D01*
X311726Y178455D01*
X311752Y178364D01*
X311768Y178340D01*
X311778Y178312D01*
X311837Y178239D01*
X311890Y178161D01*
X311918Y178137D01*
X311932Y178120D01*
X311959Y178103D01*
X312019Y178053D01*
X313143Y177302D01*
X314047Y176398D01*
X314070Y176363D01*
X314086Y176346D01*
X314097Y176325D01*
X314169Y176256D01*
X314238Y176183D01*
X314258Y176172D01*
X314275Y176156D01*
X314366Y176114D01*
X314454Y176066D01*
X314477Y176062D01*
X314498Y176052D01*
X314598Y176041D01*
X314697Y176024D01*
X314720Y176028D01*
X314742Y176025D01*
X314840Y176047D01*
X314940Y176062D01*
X314960Y176073D01*
X314983Y176078D01*
X315069Y176129D01*
X315158Y176175D01*
X315174Y176192D01*
X315194Y176204D01*
X315259Y176280D01*
X315329Y176352D01*
X315339Y176373D01*
X315354Y176391D01*
X315391Y176484D01*
X315434Y176574D01*
X315437Y176597D01*
X315446Y176619D01*
X315464Y176786D01*
X315464Y178561D01*
X316460Y180965D01*
X318300Y182805D01*
X319916Y183474D01*
X319933Y183485D01*
X319952Y183490D01*
X320037Y183549D01*
X320125Y183604D01*
X320138Y183619D01*
X320154Y183631D01*
X320216Y183714D01*
X320282Y183793D01*
X320289Y183812D01*
X320301Y183828D01*
X320333Y183926D01*
X320370Y184023D01*
X320371Y184043D01*
X320377Y184062D01*
X320376Y184166D01*
X320381Y184269D01*
X320375Y184288D01*
X320375Y184308D01*
X320328Y184469D01*
X319927Y185437D01*
X319788Y186137D01*
X326493Y186137D01*
X326513Y186140D01*
X326532Y186138D01*
X326634Y186160D01*
X326736Y186177D01*
X326753Y186186D01*
X326773Y186190D01*
X326862Y186243D01*
X326953Y186292D01*
X326967Y186306D01*
X326984Y186316D01*
X327051Y186395D01*
X327122Y186470D01*
X327131Y186488D01*
X327144Y186503D01*
X327182Y186599D01*
X327226Y186693D01*
X327228Y186713D01*
X327236Y186731D01*
X327254Y186898D01*
X327254Y187661D01*
X327256Y187661D01*
X327256Y186898D01*
X327259Y186878D01*
X327257Y186859D01*
X327279Y186757D01*
X327296Y186655D01*
X327305Y186638D01*
X327309Y186618D01*
X327362Y186529D01*
X327411Y186438D01*
X327425Y186424D01*
X327435Y186407D01*
X327514Y186340D01*
X327589Y186269D01*
X327607Y186260D01*
X327622Y186247D01*
X327718Y186208D01*
X327812Y186165D01*
X327832Y186163D01*
X327850Y186155D01*
X328017Y186137D01*
X334722Y186137D01*
X334583Y185437D01*
X334008Y184050D01*
X333174Y182802D01*
X332113Y181741D01*
X330865Y180907D01*
X329478Y180332D01*
X328849Y180207D01*
X328760Y180174D01*
X328670Y180148D01*
X328646Y180131D01*
X328618Y180121D01*
X328545Y180061D01*
X328468Y180007D01*
X328450Y179984D01*
X328428Y179965D01*
X328377Y179885D01*
X328321Y179810D01*
X328312Y179782D01*
X328296Y179757D01*
X328274Y179666D01*
X328245Y179576D01*
X328245Y179547D01*
X328238Y179518D01*
X328246Y179424D01*
X328247Y179330D01*
X328257Y179295D01*
X328259Y179273D01*
X328272Y179243D01*
X328294Y179169D01*
X328546Y178561D01*
X328546Y175959D01*
X327550Y173555D01*
X325710Y171715D01*
X323306Y170719D01*
X320704Y170719D01*
G37*
%LPD*%
%LPC*%
G36*
X418174Y255599D02*
X418174Y255599D01*
X418174Y260570D01*
X418693Y260466D01*
X419478Y260141D01*
X419573Y260119D01*
X419666Y260090D01*
X419692Y260091D01*
X419718Y260085D01*
X419815Y260094D01*
X419912Y260097D01*
X419937Y260106D01*
X419963Y260108D01*
X420052Y260148D01*
X420143Y260181D01*
X420164Y260197D01*
X420187Y260208D01*
X420259Y260274D01*
X420335Y260335D01*
X420349Y260357D01*
X420369Y260374D01*
X420416Y260460D01*
X420468Y260542D01*
X420475Y260567D01*
X420487Y260590D01*
X420504Y260686D01*
X420528Y260780D01*
X420526Y260806D01*
X420531Y260832D01*
X420517Y260929D01*
X420509Y261025D01*
X420499Y261049D01*
X420495Y261075D01*
X420451Y261162D01*
X420413Y261252D01*
X420392Y261277D01*
X420384Y261295D01*
X420360Y261318D01*
X420308Y261383D01*
X420255Y261435D01*
X420255Y264219D01*
X420252Y264239D01*
X420254Y264258D01*
X420232Y264360D01*
X420216Y264462D01*
X420206Y264479D01*
X420202Y264499D01*
X420149Y264588D01*
X420100Y264679D01*
X420086Y264693D01*
X420076Y264710D01*
X419997Y264777D01*
X419922Y264849D01*
X419904Y264857D01*
X419889Y264870D01*
X419793Y264909D01*
X419699Y264952D01*
X419679Y264954D01*
X419661Y264962D01*
X419494Y264980D01*
X416710Y264980D01*
X413755Y267935D01*
X413755Y272115D01*
X413902Y272261D01*
X413946Y272322D01*
X413979Y272357D01*
X413986Y272372D01*
X414017Y272410D01*
X414028Y272437D01*
X414045Y272461D01*
X414073Y272551D01*
X414108Y272639D01*
X414109Y272668D01*
X414118Y272696D01*
X414115Y272790D01*
X414120Y272884D01*
X414112Y272913D01*
X414111Y272942D01*
X414079Y273030D01*
X414053Y273121D01*
X414037Y273145D01*
X414027Y273173D01*
X413968Y273246D01*
X413915Y273324D01*
X413887Y273348D01*
X413873Y273365D01*
X413846Y273382D01*
X413786Y273432D01*
X412662Y274183D01*
X411758Y275087D01*
X411735Y275122D01*
X411719Y275139D01*
X411708Y275160D01*
X411636Y275229D01*
X411567Y275302D01*
X411547Y275313D01*
X411530Y275329D01*
X411439Y275371D01*
X411351Y275419D01*
X411328Y275423D01*
X411307Y275433D01*
X411207Y275444D01*
X411108Y275461D01*
X411085Y275457D01*
X411063Y275460D01*
X410965Y275438D01*
X410865Y275423D01*
X410845Y275412D01*
X410822Y275407D01*
X410736Y275356D01*
X410647Y275310D01*
X410631Y275293D01*
X410611Y275281D01*
X410546Y275205D01*
X410476Y275133D01*
X410466Y275112D01*
X410451Y275094D01*
X410414Y275001D01*
X410371Y274911D01*
X410368Y274888D01*
X410359Y274866D01*
X410341Y274699D01*
X410341Y272924D01*
X409345Y270520D01*
X407505Y268680D01*
X405889Y268011D01*
X405872Y268000D01*
X405853Y267995D01*
X405768Y267936D01*
X405680Y267881D01*
X405667Y267866D01*
X405651Y267854D01*
X405589Y267771D01*
X405523Y267692D01*
X405516Y267673D01*
X405504Y267657D01*
X405472Y267558D01*
X405435Y267462D01*
X405434Y267442D01*
X405428Y267423D01*
X405429Y267319D01*
X405424Y267216D01*
X405430Y267197D01*
X405430Y267177D01*
X405477Y267016D01*
X405878Y266048D01*
X406017Y265348D01*
X399312Y265348D01*
X399292Y265345D01*
X399273Y265347D01*
X399171Y265325D01*
X399069Y265308D01*
X399052Y265299D01*
X399032Y265295D01*
X398943Y265242D01*
X398852Y265193D01*
X398838Y265179D01*
X398821Y265169D01*
X398754Y265090D01*
X398683Y265015D01*
X398674Y264997D01*
X398661Y264982D01*
X398623Y264886D01*
X398579Y264792D01*
X398577Y264772D01*
X398569Y264754D01*
X398551Y264587D01*
X398551Y263824D01*
X398549Y263824D01*
X398549Y264587D01*
X398546Y264607D01*
X398548Y264626D01*
X398526Y264728D01*
X398509Y264830D01*
X398500Y264847D01*
X398496Y264867D01*
X398443Y264956D01*
X398394Y265047D01*
X398380Y265061D01*
X398370Y265078D01*
X398291Y265145D01*
X398216Y265216D01*
X398198Y265225D01*
X398183Y265238D01*
X398087Y265277D01*
X397993Y265320D01*
X397973Y265322D01*
X397955Y265330D01*
X397788Y265348D01*
X391083Y265348D01*
X391222Y266048D01*
X391797Y267435D01*
X392631Y268683D01*
X393692Y269744D01*
X394940Y270578D01*
X396327Y271153D01*
X396956Y271278D01*
X397002Y271295D01*
X397047Y271302D01*
X397086Y271323D01*
X397135Y271337D01*
X397159Y271354D01*
X397187Y271364D01*
X397229Y271399D01*
X397265Y271418D01*
X397291Y271446D01*
X397337Y271478D01*
X397355Y271501D01*
X397377Y271520D01*
X397409Y271570D01*
X397434Y271596D01*
X397448Y271627D01*
X397484Y271675D01*
X397493Y271703D01*
X397509Y271728D01*
X397524Y271789D01*
X397538Y271819D01*
X397541Y271850D01*
X397560Y271909D01*
X397560Y271938D01*
X397567Y271967D01*
X397561Y272033D01*
X397565Y272063D01*
X397558Y272092D01*
X397558Y272155D01*
X397548Y272190D01*
X397546Y272212D01*
X397533Y272242D01*
X397511Y272316D01*
X397259Y272924D01*
X397259Y275526D01*
X398255Y277930D01*
X400095Y279770D01*
X402499Y280766D01*
X405101Y280766D01*
X407505Y279770D01*
X409201Y278074D01*
X409275Y278021D01*
X409345Y277961D01*
X409375Y277949D01*
X409401Y277930D01*
X409488Y277903D01*
X409573Y277869D01*
X409614Y277865D01*
X409636Y277858D01*
X409668Y277859D01*
X409740Y277851D01*
X416187Y277851D01*
X416206Y277854D01*
X416226Y277852D01*
X416328Y277874D01*
X416430Y277890D01*
X416447Y277900D01*
X416467Y277904D01*
X416556Y277957D01*
X416647Y278006D01*
X416661Y278020D01*
X416678Y278030D01*
X416745Y278109D01*
X416799Y278166D01*
X416807Y278152D01*
X416821Y278138D01*
X416831Y278121D01*
X416910Y278054D01*
X416985Y277982D01*
X417003Y277974D01*
X417018Y277961D01*
X417115Y277922D01*
X417208Y277879D01*
X417228Y277877D01*
X417246Y277869D01*
X417413Y277851D01*
X423145Y277851D01*
X423041Y277332D01*
X422552Y276150D01*
X421800Y275026D01*
X421772Y274963D01*
X421735Y274905D01*
X421721Y274852D01*
X421699Y274802D01*
X421692Y274733D01*
X421675Y274667D01*
X421679Y274612D01*
X421673Y274557D01*
X421689Y274490D01*
X421694Y274422D01*
X421715Y274371D01*
X421728Y274317D01*
X421763Y274258D01*
X421790Y274195D01*
X421838Y274135D01*
X421856Y274107D01*
X421872Y274093D01*
X421895Y274064D01*
X423845Y272115D01*
X423845Y269331D01*
X423848Y269311D01*
X423846Y269292D01*
X423868Y269190D01*
X423884Y269088D01*
X423894Y269071D01*
X423898Y269051D01*
X423951Y268962D01*
X424000Y268871D01*
X424014Y268857D01*
X424024Y268840D01*
X424103Y268773D01*
X424178Y268701D01*
X424196Y268693D01*
X424211Y268680D01*
X424307Y268641D01*
X424401Y268598D01*
X424421Y268596D01*
X424439Y268588D01*
X424606Y268570D01*
X425994Y268570D01*
X426014Y268573D01*
X426033Y268571D01*
X426135Y268593D01*
X426237Y268609D01*
X426254Y268619D01*
X426274Y268623D01*
X426363Y268676D01*
X426454Y268725D01*
X426468Y268739D01*
X426485Y268749D01*
X426552Y268828D01*
X426624Y268903D01*
X426632Y268921D01*
X426645Y268936D01*
X426684Y269032D01*
X426727Y269126D01*
X426729Y269146D01*
X426737Y269164D01*
X426755Y269331D01*
X426755Y272115D01*
X429710Y275070D01*
X433890Y275070D01*
X436845Y272115D01*
X436845Y269331D01*
X436848Y269311D01*
X436846Y269292D01*
X436868Y269190D01*
X436884Y269088D01*
X436894Y269071D01*
X436898Y269051D01*
X436951Y268962D01*
X437000Y268871D01*
X437014Y268857D01*
X437024Y268840D01*
X437103Y268773D01*
X437178Y268701D01*
X437196Y268693D01*
X437211Y268680D01*
X437307Y268641D01*
X437401Y268598D01*
X437421Y268596D01*
X437439Y268588D01*
X437606Y268570D01*
X438241Y268570D01*
X438335Y268585D01*
X438428Y268593D01*
X438455Y268605D01*
X438484Y268609D01*
X438567Y268654D01*
X438654Y268691D01*
X438676Y268711D01*
X438702Y268725D01*
X438766Y268793D01*
X438836Y268856D01*
X438851Y268882D01*
X438869Y268901D01*
X443676Y268901D01*
X443676Y264084D01*
X443615Y264048D01*
X443596Y264026D01*
X443572Y264009D01*
X443516Y263933D01*
X443455Y263861D01*
X443444Y263834D01*
X443427Y263811D01*
X443399Y263721D01*
X443363Y263633D01*
X443359Y263596D01*
X443353Y263576D01*
X443353Y263543D01*
X443345Y263466D01*
X443345Y261435D01*
X443292Y261383D01*
X443235Y261304D01*
X443173Y261229D01*
X443164Y261204D01*
X443148Y261183D01*
X443120Y261090D01*
X443085Y260999D01*
X443084Y260973D01*
X443076Y260948D01*
X443079Y260851D01*
X443074Y260753D01*
X443082Y260728D01*
X443082Y260702D01*
X443116Y260611D01*
X443143Y260517D01*
X443158Y260496D01*
X443167Y260471D01*
X443228Y260395D01*
X443283Y260315D01*
X443304Y260299D01*
X443321Y260279D01*
X443402Y260226D01*
X443481Y260168D01*
X443506Y260160D01*
X443527Y260146D01*
X443622Y260122D01*
X443715Y260092D01*
X443741Y260092D01*
X443766Y260086D01*
X443863Y260093D01*
X443960Y260094D01*
X443992Y260103D01*
X444011Y260105D01*
X444042Y260118D01*
X444122Y260141D01*
X444907Y260466D01*
X445426Y260570D01*
X445426Y255599D01*
X440455Y255599D01*
X440559Y256118D01*
X441056Y257318D01*
X441095Y257405D01*
X441146Y257514D01*
X441146Y257517D01*
X441147Y257520D01*
X441160Y257639D01*
X441173Y257758D01*
X441172Y257762D01*
X441173Y257765D01*
X441146Y257881D01*
X441121Y257999D01*
X441119Y258001D01*
X441118Y258004D01*
X441056Y258107D01*
X440995Y258210D01*
X440992Y258212D01*
X440991Y258215D01*
X440900Y258291D01*
X440808Y258370D01*
X440805Y258371D01*
X440802Y258373D01*
X440693Y258416D01*
X440579Y258462D01*
X440576Y258462D01*
X440574Y258463D01*
X440563Y258464D01*
X440413Y258480D01*
X436210Y258480D01*
X433255Y261435D01*
X433255Y264219D01*
X433252Y264239D01*
X433254Y264258D01*
X433232Y264360D01*
X433216Y264462D01*
X433206Y264479D01*
X433202Y264499D01*
X433149Y264588D01*
X433100Y264679D01*
X433086Y264693D01*
X433076Y264710D01*
X432997Y264777D01*
X432922Y264849D01*
X432904Y264857D01*
X432889Y264870D01*
X432793Y264909D01*
X432699Y264952D01*
X432679Y264954D01*
X432661Y264962D01*
X432494Y264980D01*
X431106Y264980D01*
X431086Y264977D01*
X431067Y264979D01*
X430965Y264957D01*
X430863Y264941D01*
X430846Y264931D01*
X430826Y264927D01*
X430737Y264874D01*
X430646Y264825D01*
X430632Y264811D01*
X430615Y264801D01*
X430548Y264722D01*
X430476Y264647D01*
X430468Y264629D01*
X430455Y264614D01*
X430416Y264518D01*
X430373Y264424D01*
X430371Y264404D01*
X430363Y264386D01*
X430345Y264219D01*
X430345Y261435D01*
X427390Y258480D01*
X423187Y258480D01*
X423070Y258461D01*
X422950Y258442D01*
X422948Y258441D01*
X422945Y258441D01*
X422840Y258385D01*
X422732Y258329D01*
X422730Y258327D01*
X422727Y258325D01*
X422646Y258240D01*
X422561Y258152D01*
X422560Y258149D01*
X422558Y258147D01*
X422507Y258039D01*
X422456Y257930D01*
X422455Y257927D01*
X422454Y257924D01*
X422441Y257804D01*
X422427Y257686D01*
X422427Y257683D01*
X422427Y257680D01*
X422453Y257560D01*
X422477Y257445D01*
X422479Y257442D01*
X422479Y257439D01*
X422485Y257430D01*
X422550Y257305D01*
X423041Y256118D01*
X423145Y255599D01*
X418174Y255599D01*
G37*
%LPD*%
%LPC*%
G36*
X545174Y255599D02*
X545174Y255599D01*
X545174Y260570D01*
X545693Y260466D01*
X546478Y260141D01*
X546573Y260119D01*
X546666Y260090D01*
X546692Y260091D01*
X546718Y260085D01*
X546815Y260094D01*
X546912Y260097D01*
X546937Y260106D01*
X546963Y260108D01*
X547052Y260148D01*
X547143Y260181D01*
X547164Y260197D01*
X547187Y260208D01*
X547259Y260274D01*
X547335Y260335D01*
X547349Y260357D01*
X547369Y260374D01*
X547416Y260460D01*
X547468Y260542D01*
X547475Y260567D01*
X547487Y260590D01*
X547505Y260686D01*
X547528Y260780D01*
X547526Y260806D01*
X547531Y260832D01*
X547517Y260928D01*
X547509Y261025D01*
X547499Y261049D01*
X547495Y261075D01*
X547451Y261162D01*
X547413Y261252D01*
X547392Y261277D01*
X547384Y261295D01*
X547360Y261318D01*
X547308Y261383D01*
X547255Y261435D01*
X547255Y264219D01*
X547252Y264239D01*
X547254Y264258D01*
X547232Y264360D01*
X547216Y264462D01*
X547206Y264479D01*
X547202Y264499D01*
X547149Y264588D01*
X547100Y264679D01*
X547086Y264693D01*
X547076Y264710D01*
X546997Y264777D01*
X546922Y264849D01*
X546904Y264857D01*
X546889Y264870D01*
X546793Y264909D01*
X546699Y264952D01*
X546679Y264954D01*
X546661Y264962D01*
X546494Y264980D01*
X543710Y264980D01*
X540755Y267935D01*
X540755Y272115D01*
X540902Y272261D01*
X540946Y272322D01*
X540979Y272357D01*
X540986Y272372D01*
X541017Y272410D01*
X541028Y272437D01*
X541045Y272461D01*
X541073Y272551D01*
X541108Y272639D01*
X541109Y272668D01*
X541118Y272696D01*
X541115Y272790D01*
X541120Y272884D01*
X541112Y272913D01*
X541111Y272942D01*
X541079Y273030D01*
X541053Y273121D01*
X541037Y273145D01*
X541027Y273173D01*
X540968Y273246D01*
X540915Y273324D01*
X540887Y273348D01*
X540873Y273365D01*
X540846Y273382D01*
X540786Y273432D01*
X539662Y274183D01*
X538758Y275087D01*
X538735Y275122D01*
X538719Y275139D01*
X538708Y275160D01*
X538636Y275229D01*
X538567Y275302D01*
X538547Y275313D01*
X538530Y275329D01*
X538439Y275371D01*
X538351Y275419D01*
X538328Y275423D01*
X538307Y275433D01*
X538207Y275444D01*
X538108Y275461D01*
X538085Y275457D01*
X538063Y275460D01*
X537965Y275438D01*
X537865Y275423D01*
X537845Y275412D01*
X537822Y275407D01*
X537736Y275356D01*
X537647Y275310D01*
X537631Y275293D01*
X537611Y275281D01*
X537546Y275205D01*
X537476Y275133D01*
X537466Y275112D01*
X537451Y275094D01*
X537414Y275001D01*
X537371Y274911D01*
X537368Y274888D01*
X537359Y274866D01*
X537341Y274699D01*
X537341Y272924D01*
X536345Y270520D01*
X534505Y268680D01*
X532889Y268011D01*
X532872Y268000D01*
X532853Y267995D01*
X532768Y267936D01*
X532680Y267881D01*
X532667Y267866D01*
X532651Y267854D01*
X532589Y267771D01*
X532523Y267692D01*
X532516Y267673D01*
X532504Y267657D01*
X532472Y267558D01*
X532435Y267462D01*
X532434Y267442D01*
X532428Y267423D01*
X532429Y267319D01*
X532424Y267216D01*
X532430Y267197D01*
X532430Y267177D01*
X532477Y267016D01*
X532878Y266048D01*
X533017Y265348D01*
X526312Y265348D01*
X526292Y265345D01*
X526273Y265347D01*
X526171Y265325D01*
X526069Y265308D01*
X526052Y265299D01*
X526032Y265295D01*
X525943Y265242D01*
X525852Y265193D01*
X525838Y265179D01*
X525821Y265169D01*
X525754Y265090D01*
X525683Y265015D01*
X525674Y264997D01*
X525661Y264982D01*
X525623Y264886D01*
X525579Y264792D01*
X525577Y264772D01*
X525569Y264754D01*
X525551Y264587D01*
X525551Y263824D01*
X525549Y263824D01*
X525549Y264587D01*
X525546Y264607D01*
X525548Y264626D01*
X525526Y264728D01*
X525509Y264830D01*
X525500Y264847D01*
X525496Y264867D01*
X525443Y264956D01*
X525394Y265047D01*
X525380Y265061D01*
X525370Y265078D01*
X525291Y265145D01*
X525216Y265216D01*
X525198Y265225D01*
X525183Y265238D01*
X525087Y265277D01*
X524993Y265320D01*
X524973Y265322D01*
X524955Y265330D01*
X524788Y265348D01*
X518083Y265348D01*
X518222Y266048D01*
X518797Y267435D01*
X519631Y268683D01*
X520692Y269744D01*
X521940Y270578D01*
X523327Y271153D01*
X523956Y271278D01*
X524002Y271295D01*
X524047Y271302D01*
X524086Y271323D01*
X524135Y271337D01*
X524159Y271354D01*
X524187Y271364D01*
X524229Y271399D01*
X524265Y271418D01*
X524291Y271446D01*
X524337Y271478D01*
X524355Y271501D01*
X524377Y271520D01*
X524409Y271570D01*
X524434Y271596D01*
X524448Y271627D01*
X524484Y271675D01*
X524493Y271703D01*
X524509Y271728D01*
X524524Y271789D01*
X524538Y271819D01*
X524541Y271850D01*
X524560Y271909D01*
X524560Y271938D01*
X524567Y271967D01*
X524561Y272033D01*
X524565Y272063D01*
X524558Y272092D01*
X524558Y272155D01*
X524548Y272190D01*
X524546Y272212D01*
X524533Y272242D01*
X524511Y272316D01*
X524259Y272924D01*
X524259Y275526D01*
X525255Y277930D01*
X527095Y279770D01*
X529499Y280766D01*
X532101Y280766D01*
X534505Y279770D01*
X536201Y278074D01*
X536275Y278021D01*
X536345Y277961D01*
X536375Y277949D01*
X536401Y277930D01*
X536488Y277903D01*
X536573Y277869D01*
X536614Y277865D01*
X536636Y277858D01*
X536668Y277859D01*
X536740Y277851D01*
X543187Y277851D01*
X543206Y277854D01*
X543226Y277852D01*
X543328Y277874D01*
X543430Y277890D01*
X543447Y277900D01*
X543467Y277904D01*
X543556Y277957D01*
X543647Y278006D01*
X543661Y278020D01*
X543678Y278030D01*
X543745Y278109D01*
X543799Y278166D01*
X543807Y278152D01*
X543821Y278138D01*
X543831Y278121D01*
X543910Y278054D01*
X543985Y277982D01*
X544003Y277974D01*
X544018Y277961D01*
X544115Y277922D01*
X544208Y277879D01*
X544228Y277877D01*
X544246Y277869D01*
X544413Y277851D01*
X550145Y277851D01*
X550041Y277332D01*
X549552Y276150D01*
X548800Y275026D01*
X548772Y274963D01*
X548735Y274905D01*
X548721Y274852D01*
X548699Y274802D01*
X548692Y274733D01*
X548675Y274667D01*
X548679Y274612D01*
X548673Y274557D01*
X548689Y274490D01*
X548694Y274422D01*
X548715Y274371D01*
X548728Y274317D01*
X548763Y274258D01*
X548790Y274195D01*
X548838Y274135D01*
X548856Y274107D01*
X548872Y274093D01*
X548895Y274064D01*
X550845Y272115D01*
X550845Y269331D01*
X550848Y269311D01*
X550846Y269292D01*
X550868Y269190D01*
X550884Y269088D01*
X550894Y269071D01*
X550898Y269051D01*
X550951Y268962D01*
X551000Y268871D01*
X551014Y268857D01*
X551024Y268840D01*
X551103Y268773D01*
X551178Y268701D01*
X551196Y268693D01*
X551211Y268680D01*
X551307Y268641D01*
X551401Y268598D01*
X551421Y268596D01*
X551439Y268588D01*
X551606Y268570D01*
X552994Y268570D01*
X553014Y268573D01*
X553033Y268571D01*
X553135Y268593D01*
X553237Y268609D01*
X553254Y268619D01*
X553274Y268623D01*
X553363Y268676D01*
X553454Y268725D01*
X553468Y268739D01*
X553485Y268749D01*
X553552Y268828D01*
X553624Y268903D01*
X553632Y268921D01*
X553645Y268936D01*
X553684Y269032D01*
X553727Y269126D01*
X553729Y269146D01*
X553737Y269164D01*
X553755Y269331D01*
X553755Y272115D01*
X556710Y275070D01*
X560890Y275070D01*
X563845Y272115D01*
X563845Y269331D01*
X563848Y269311D01*
X563846Y269292D01*
X563868Y269190D01*
X563884Y269088D01*
X563894Y269071D01*
X563898Y269051D01*
X563951Y268962D01*
X564000Y268871D01*
X564014Y268857D01*
X564024Y268840D01*
X564103Y268773D01*
X564178Y268701D01*
X564196Y268693D01*
X564211Y268680D01*
X564307Y268641D01*
X564401Y268598D01*
X564421Y268596D01*
X564439Y268588D01*
X564606Y268570D01*
X565241Y268570D01*
X565335Y268585D01*
X565428Y268593D01*
X565455Y268605D01*
X565484Y268609D01*
X565567Y268654D01*
X565654Y268691D01*
X565676Y268711D01*
X565702Y268725D01*
X565766Y268793D01*
X565836Y268856D01*
X565851Y268882D01*
X565869Y268901D01*
X570676Y268901D01*
X570676Y264084D01*
X570615Y264048D01*
X570596Y264026D01*
X570572Y264009D01*
X570516Y263933D01*
X570455Y263861D01*
X570444Y263834D01*
X570427Y263811D01*
X570399Y263721D01*
X570363Y263633D01*
X570359Y263596D01*
X570353Y263576D01*
X570353Y263543D01*
X570345Y263466D01*
X570345Y261435D01*
X570292Y261383D01*
X570235Y261304D01*
X570173Y261229D01*
X570164Y261204D01*
X570148Y261183D01*
X570120Y261090D01*
X570085Y260999D01*
X570084Y260973D01*
X570076Y260948D01*
X570079Y260851D01*
X570074Y260753D01*
X570082Y260728D01*
X570082Y260702D01*
X570116Y260611D01*
X570143Y260517D01*
X570158Y260496D01*
X570167Y260471D01*
X570228Y260395D01*
X570283Y260315D01*
X570304Y260299D01*
X570321Y260279D01*
X570402Y260226D01*
X570481Y260168D01*
X570506Y260160D01*
X570527Y260146D01*
X570622Y260122D01*
X570715Y260092D01*
X570741Y260092D01*
X570766Y260086D01*
X570863Y260093D01*
X570960Y260094D01*
X570992Y260103D01*
X571011Y260105D01*
X571042Y260118D01*
X571122Y260141D01*
X571907Y260466D01*
X572426Y260570D01*
X572426Y255599D01*
X567455Y255599D01*
X567559Y256118D01*
X568056Y257318D01*
X568095Y257405D01*
X568146Y257514D01*
X568146Y257517D01*
X568147Y257520D01*
X568160Y257639D01*
X568173Y257758D01*
X568172Y257762D01*
X568173Y257765D01*
X568146Y257881D01*
X568121Y257999D01*
X568119Y258001D01*
X568118Y258004D01*
X568056Y258107D01*
X567995Y258210D01*
X567992Y258212D01*
X567991Y258215D01*
X567900Y258291D01*
X567808Y258370D01*
X567805Y258371D01*
X567802Y258373D01*
X567693Y258416D01*
X567579Y258462D01*
X567576Y258462D01*
X567574Y258463D01*
X567563Y258464D01*
X567413Y258480D01*
X563210Y258480D01*
X560255Y261435D01*
X560255Y264219D01*
X560252Y264239D01*
X560254Y264258D01*
X560232Y264360D01*
X560216Y264462D01*
X560206Y264479D01*
X560202Y264499D01*
X560149Y264588D01*
X560100Y264679D01*
X560086Y264693D01*
X560076Y264710D01*
X559997Y264777D01*
X559922Y264849D01*
X559904Y264857D01*
X559889Y264870D01*
X559793Y264909D01*
X559699Y264952D01*
X559679Y264954D01*
X559661Y264962D01*
X559494Y264980D01*
X558106Y264980D01*
X558086Y264977D01*
X558067Y264979D01*
X557965Y264957D01*
X557863Y264941D01*
X557846Y264931D01*
X557826Y264927D01*
X557737Y264874D01*
X557646Y264825D01*
X557632Y264811D01*
X557615Y264801D01*
X557548Y264722D01*
X557476Y264647D01*
X557468Y264629D01*
X557455Y264614D01*
X557416Y264518D01*
X557373Y264424D01*
X557371Y264404D01*
X557363Y264386D01*
X557345Y264219D01*
X557345Y261435D01*
X554390Y258480D01*
X550187Y258480D01*
X550070Y258461D01*
X549950Y258442D01*
X549948Y258441D01*
X549945Y258441D01*
X549840Y258385D01*
X549732Y258329D01*
X549730Y258327D01*
X549727Y258325D01*
X549646Y258240D01*
X549561Y258152D01*
X549560Y258149D01*
X549558Y258147D01*
X549507Y258039D01*
X549456Y257930D01*
X549455Y257927D01*
X549454Y257924D01*
X549441Y257804D01*
X549427Y257686D01*
X549427Y257683D01*
X549427Y257680D01*
X549453Y257560D01*
X549477Y257445D01*
X549479Y257442D01*
X549479Y257439D01*
X549485Y257430D01*
X549550Y257305D01*
X550041Y256118D01*
X550145Y255599D01*
X545174Y255599D01*
G37*
%LPD*%
%LPC*%
G36*
X73977Y26923D02*
X73977Y26923D01*
X69869Y28625D01*
X66725Y31769D01*
X65023Y35877D01*
X65023Y40323D01*
X66725Y44431D01*
X69869Y47575D01*
X73977Y49277D01*
X78423Y49277D01*
X82531Y47575D01*
X85675Y44431D01*
X87377Y40323D01*
X87377Y35877D01*
X85675Y31769D01*
X82531Y28625D01*
X78423Y26923D01*
X73977Y26923D01*
G37*
%LPD*%
%LPC*%
G36*
X607377Y26923D02*
X607377Y26923D01*
X603269Y28625D01*
X600125Y31769D01*
X598423Y35877D01*
X598423Y40323D01*
X600125Y44431D01*
X603269Y47575D01*
X607377Y49277D01*
X611823Y49277D01*
X615931Y47575D01*
X619075Y44431D01*
X620777Y40323D01*
X620777Y35877D01*
X619075Y31769D01*
X615931Y28625D01*
X611823Y26923D01*
X607377Y26923D01*
G37*
%LPD*%
%LPC*%
G36*
X48577Y26923D02*
X48577Y26923D01*
X44469Y28625D01*
X41325Y31769D01*
X39623Y35877D01*
X39623Y40323D01*
X41325Y44431D01*
X44469Y47575D01*
X48577Y49277D01*
X53023Y49277D01*
X57131Y47575D01*
X60275Y44431D01*
X61977Y40323D01*
X61977Y35877D01*
X60275Y31769D01*
X57131Y28625D01*
X53023Y26923D01*
X48577Y26923D01*
G37*
%LPD*%
%LPC*%
G36*
X632777Y26923D02*
X632777Y26923D01*
X628669Y28625D01*
X625525Y31769D01*
X623823Y35877D01*
X623823Y40323D01*
X625525Y44431D01*
X628669Y47575D01*
X632777Y49277D01*
X637223Y49277D01*
X641331Y47575D01*
X644475Y44431D01*
X646177Y40323D01*
X646177Y35877D01*
X644475Y31769D01*
X641331Y28625D01*
X637223Y26923D01*
X632777Y26923D01*
G37*
%LPD*%
%LPC*%
G36*
X23177Y26923D02*
X23177Y26923D01*
X19069Y28625D01*
X15925Y31769D01*
X14223Y35877D01*
X14223Y40323D01*
X15925Y44431D01*
X19069Y47575D01*
X23177Y49277D01*
X27623Y49277D01*
X31731Y47575D01*
X34875Y44431D01*
X36577Y40323D01*
X36577Y35877D01*
X34875Y31769D01*
X31731Y28625D01*
X27623Y26923D01*
X23177Y26923D01*
G37*
%LPD*%
%LPC*%
G36*
X465049Y200324D02*
X465049Y200324D01*
X465049Y201087D01*
X465046Y201107D01*
X465048Y201126D01*
X465026Y201228D01*
X465009Y201330D01*
X465000Y201347D01*
X464996Y201367D01*
X464943Y201456D01*
X464894Y201547D01*
X464880Y201561D01*
X464870Y201578D01*
X464791Y201645D01*
X464716Y201716D01*
X464698Y201725D01*
X464683Y201738D01*
X464587Y201777D01*
X464493Y201820D01*
X464473Y201822D01*
X464455Y201830D01*
X464288Y201848D01*
X457583Y201848D01*
X457722Y202548D01*
X458123Y203516D01*
X458128Y203535D01*
X458137Y203553D01*
X458156Y203655D01*
X458179Y203755D01*
X458177Y203775D01*
X458181Y203795D01*
X458166Y203897D01*
X458156Y204000D01*
X458148Y204019D01*
X458145Y204038D01*
X458098Y204131D01*
X458056Y204225D01*
X458043Y204240D01*
X458034Y204257D01*
X457960Y204330D01*
X457890Y204406D01*
X457872Y204416D01*
X457858Y204430D01*
X457711Y204511D01*
X456095Y205180D01*
X454255Y207020D01*
X453259Y209424D01*
X453259Y211199D01*
X453256Y211222D01*
X453258Y211245D01*
X453236Y211343D01*
X453220Y211442D01*
X453209Y211463D01*
X453204Y211485D01*
X453151Y211571D01*
X453104Y211660D01*
X453088Y211675D01*
X453076Y211695D01*
X452999Y211760D01*
X452926Y211829D01*
X452905Y211839D01*
X452888Y211854D01*
X452794Y211890D01*
X452703Y211933D01*
X452680Y211935D01*
X452659Y211944D01*
X452558Y211949D01*
X452459Y211960D01*
X452436Y211955D01*
X452413Y211956D01*
X452316Y211929D01*
X452218Y211907D01*
X452198Y211896D01*
X452176Y211889D01*
X452093Y211833D01*
X452007Y211781D01*
X451992Y211764D01*
X451973Y211751D01*
X451865Y211622D01*
X451842Y211587D01*
X450938Y210683D01*
X450224Y210206D01*
X450173Y210159D01*
X450117Y210120D01*
X450084Y210076D01*
X450044Y210038D01*
X450011Y209978D01*
X449970Y209923D01*
X449953Y209870D01*
X449927Y209822D01*
X449915Y209754D01*
X449894Y209689D01*
X449895Y209634D01*
X449885Y209579D01*
X449896Y209512D01*
X449896Y209443D01*
X449918Y209369D01*
X449923Y209336D01*
X449933Y209317D01*
X449943Y209282D01*
X450384Y208219D01*
X450497Y207649D01*
X445163Y207649D01*
X445144Y207646D01*
X445124Y207648D01*
X445022Y207626D01*
X444920Y207610D01*
X444903Y207600D01*
X444883Y207596D01*
X444805Y207549D01*
X444735Y207578D01*
X444642Y207621D01*
X444622Y207623D01*
X444604Y207631D01*
X444437Y207649D01*
X439103Y207649D01*
X439216Y208219D01*
X439654Y209275D01*
X440290Y210227D01*
X441098Y211035D01*
X441177Y211088D01*
X441191Y211101D01*
X441209Y211110D01*
X441281Y211185D01*
X441356Y211256D01*
X441366Y211273D01*
X441380Y211287D01*
X441424Y211381D01*
X441473Y211472D01*
X441477Y211492D01*
X441485Y211510D01*
X441497Y211613D01*
X441515Y211714D01*
X441512Y211734D01*
X441514Y211754D01*
X441493Y211855D01*
X441477Y211957D01*
X441468Y211975D01*
X441464Y211995D01*
X441387Y212144D01*
X441048Y212650D01*
X440559Y213832D01*
X440455Y214351D01*
X446187Y214351D01*
X446206Y214354D01*
X446226Y214352D01*
X446328Y214374D01*
X446430Y214390D01*
X446447Y214400D01*
X446467Y214404D01*
X446556Y214457D01*
X446647Y214506D01*
X446661Y214520D01*
X446678Y214530D01*
X446745Y214609D01*
X446799Y214666D01*
X446807Y214652D01*
X446821Y214638D01*
X446831Y214621D01*
X446910Y214554D01*
X446985Y214482D01*
X447003Y214474D01*
X447018Y214461D01*
X447115Y214422D01*
X447208Y214379D01*
X447228Y214377D01*
X447246Y214369D01*
X447413Y214351D01*
X453860Y214351D01*
X453950Y214365D01*
X454041Y214373D01*
X454071Y214385D01*
X454103Y214390D01*
X454184Y214433D01*
X454268Y214469D01*
X454300Y214495D01*
X454321Y214506D01*
X454343Y214529D01*
X454399Y214574D01*
X456095Y216270D01*
X458499Y217266D01*
X461101Y217266D01*
X463505Y216270D01*
X465345Y214430D01*
X466341Y212026D01*
X466341Y209424D01*
X466089Y208816D01*
X466067Y208724D01*
X466039Y208634D01*
X466039Y208605D01*
X466033Y208577D01*
X466042Y208483D01*
X466043Y208388D01*
X466053Y208361D01*
X466056Y208332D01*
X466094Y208245D01*
X466126Y208157D01*
X466144Y208134D01*
X466156Y208107D01*
X466220Y208037D01*
X466278Y207963D01*
X466302Y207947D01*
X466322Y207926D01*
X466405Y207880D01*
X466484Y207829D01*
X466519Y207818D01*
X466538Y207807D01*
X466570Y207801D01*
X466644Y207778D01*
X467273Y207653D01*
X468660Y207078D01*
X469908Y206244D01*
X470969Y205183D01*
X471803Y203935D01*
X472378Y202548D01*
X472517Y201848D01*
X465812Y201848D01*
X465792Y201845D01*
X465773Y201847D01*
X465671Y201825D01*
X465569Y201808D01*
X465552Y201799D01*
X465532Y201795D01*
X465443Y201742D01*
X465352Y201693D01*
X465338Y201679D01*
X465321Y201669D01*
X465254Y201590D01*
X465183Y201515D01*
X465174Y201497D01*
X465161Y201482D01*
X465123Y201386D01*
X465079Y201292D01*
X465077Y201272D01*
X465069Y201254D01*
X465051Y201087D01*
X465051Y200324D01*
X465049Y200324D01*
G37*
%LPD*%
%LPC*%
G36*
X592049Y136824D02*
X592049Y136824D01*
X592049Y137587D01*
X592046Y137607D01*
X592048Y137626D01*
X592026Y137728D01*
X592009Y137830D01*
X592000Y137847D01*
X591996Y137867D01*
X591943Y137956D01*
X591894Y138047D01*
X591880Y138061D01*
X591870Y138078D01*
X591791Y138145D01*
X591716Y138216D01*
X591698Y138225D01*
X591683Y138238D01*
X591587Y138277D01*
X591493Y138320D01*
X591473Y138322D01*
X591455Y138330D01*
X591288Y138348D01*
X584583Y138348D01*
X584722Y139048D01*
X585123Y140016D01*
X585128Y140035D01*
X585137Y140053D01*
X585156Y140155D01*
X585179Y140255D01*
X585177Y140275D01*
X585181Y140295D01*
X585166Y140397D01*
X585156Y140500D01*
X585148Y140519D01*
X585145Y140538D01*
X585098Y140631D01*
X585056Y140725D01*
X585043Y140740D01*
X585034Y140757D01*
X584960Y140830D01*
X584890Y140906D01*
X584872Y140916D01*
X584858Y140930D01*
X584711Y141011D01*
X583095Y141680D01*
X581255Y143520D01*
X580259Y145924D01*
X580259Y147699D01*
X580256Y147722D01*
X580258Y147745D01*
X580236Y147843D01*
X580220Y147942D01*
X580209Y147963D01*
X580204Y147985D01*
X580151Y148071D01*
X580104Y148160D01*
X580088Y148175D01*
X580076Y148195D01*
X579999Y148260D01*
X579926Y148329D01*
X579905Y148339D01*
X579887Y148354D01*
X579794Y148390D01*
X579703Y148433D01*
X579680Y148435D01*
X579659Y148444D01*
X579558Y148449D01*
X579459Y148460D01*
X579436Y148455D01*
X579413Y148456D01*
X579316Y148429D01*
X579218Y148407D01*
X579198Y148396D01*
X579176Y148389D01*
X579093Y148333D01*
X579007Y148281D01*
X578992Y148264D01*
X578973Y148251D01*
X578865Y148122D01*
X578842Y148087D01*
X577938Y147183D01*
X577224Y146706D01*
X577173Y146659D01*
X577117Y146620D01*
X577084Y146576D01*
X577044Y146538D01*
X577011Y146478D01*
X576970Y146423D01*
X576953Y146370D01*
X576927Y146322D01*
X576915Y146254D01*
X576894Y146189D01*
X576895Y146134D01*
X576885Y146079D01*
X576896Y146012D01*
X576896Y145943D01*
X576918Y145869D01*
X576923Y145836D01*
X576933Y145817D01*
X576943Y145782D01*
X577384Y144719D01*
X577497Y144149D01*
X572163Y144149D01*
X572144Y144146D01*
X572124Y144148D01*
X572022Y144126D01*
X571920Y144110D01*
X571903Y144100D01*
X571883Y144096D01*
X571805Y144049D01*
X571735Y144078D01*
X571642Y144121D01*
X571622Y144123D01*
X571604Y144131D01*
X571437Y144149D01*
X566103Y144149D01*
X566216Y144719D01*
X566654Y145775D01*
X567290Y146727D01*
X568098Y147535D01*
X568177Y147588D01*
X568191Y147601D01*
X568209Y147610D01*
X568281Y147685D01*
X568356Y147756D01*
X568366Y147773D01*
X568380Y147787D01*
X568424Y147881D01*
X568473Y147972D01*
X568477Y147992D01*
X568485Y148010D01*
X568497Y148113D01*
X568515Y148214D01*
X568512Y148234D01*
X568514Y148254D01*
X568493Y148355D01*
X568477Y148457D01*
X568468Y148475D01*
X568464Y148495D01*
X568387Y148644D01*
X568048Y149150D01*
X567559Y150332D01*
X567455Y150851D01*
X573187Y150851D01*
X573206Y150854D01*
X573226Y150852D01*
X573328Y150874D01*
X573430Y150890D01*
X573447Y150900D01*
X573467Y150904D01*
X573556Y150957D01*
X573647Y151006D01*
X573661Y151020D01*
X573678Y151030D01*
X573745Y151109D01*
X573799Y151166D01*
X573807Y151152D01*
X573821Y151138D01*
X573831Y151121D01*
X573910Y151054D01*
X573985Y150982D01*
X574003Y150974D01*
X574018Y150961D01*
X574115Y150922D01*
X574208Y150879D01*
X574228Y150877D01*
X574246Y150869D01*
X574413Y150851D01*
X580860Y150851D01*
X580951Y150865D01*
X581041Y150873D01*
X581071Y150885D01*
X581103Y150890D01*
X581184Y150933D01*
X581268Y150969D01*
X581300Y150995D01*
X581321Y151006D01*
X581343Y151029D01*
X581399Y151074D01*
X583095Y152770D01*
X585499Y153766D01*
X588101Y153766D01*
X590505Y152770D01*
X592345Y150930D01*
X593341Y148526D01*
X593341Y145924D01*
X593089Y145316D01*
X593067Y145224D01*
X593039Y145134D01*
X593039Y145105D01*
X593033Y145077D01*
X593042Y144983D01*
X593043Y144888D01*
X593053Y144861D01*
X593056Y144832D01*
X593094Y144745D01*
X593126Y144657D01*
X593144Y144634D01*
X593156Y144607D01*
X593220Y144537D01*
X593278Y144463D01*
X593302Y144447D01*
X593322Y144426D01*
X593405Y144380D01*
X593484Y144329D01*
X593519Y144318D01*
X593538Y144307D01*
X593570Y144301D01*
X593644Y144278D01*
X594273Y144153D01*
X595660Y143578D01*
X596908Y142744D01*
X597969Y141683D01*
X598803Y140435D01*
X599378Y139048D01*
X599517Y138348D01*
X592812Y138348D01*
X592792Y138345D01*
X592773Y138347D01*
X592671Y138325D01*
X592569Y138308D01*
X592552Y138299D01*
X592532Y138295D01*
X592443Y138242D01*
X592352Y138193D01*
X592338Y138179D01*
X592321Y138169D01*
X592254Y138090D01*
X592183Y138015D01*
X592174Y137997D01*
X592161Y137982D01*
X592123Y137886D01*
X592079Y137792D01*
X592077Y137772D01*
X592069Y137754D01*
X592051Y137587D01*
X592051Y136824D01*
X592049Y136824D01*
G37*
%LPD*%
%LPC*%
G36*
X592049Y200324D02*
X592049Y200324D01*
X592049Y201087D01*
X592046Y201107D01*
X592048Y201126D01*
X592026Y201228D01*
X592009Y201330D01*
X592000Y201347D01*
X591996Y201367D01*
X591943Y201456D01*
X591894Y201547D01*
X591880Y201561D01*
X591870Y201578D01*
X591791Y201645D01*
X591716Y201716D01*
X591698Y201725D01*
X591683Y201738D01*
X591587Y201777D01*
X591493Y201820D01*
X591473Y201822D01*
X591455Y201830D01*
X591288Y201848D01*
X584583Y201848D01*
X584722Y202548D01*
X585123Y203516D01*
X585128Y203535D01*
X585137Y203553D01*
X585156Y203655D01*
X585179Y203755D01*
X585177Y203775D01*
X585181Y203795D01*
X585166Y203897D01*
X585156Y204000D01*
X585148Y204019D01*
X585145Y204038D01*
X585098Y204131D01*
X585056Y204225D01*
X585043Y204240D01*
X585034Y204257D01*
X584960Y204330D01*
X584890Y204406D01*
X584872Y204416D01*
X584858Y204430D01*
X584711Y204511D01*
X583095Y205180D01*
X581255Y207020D01*
X580259Y209424D01*
X580259Y211199D01*
X580256Y211222D01*
X580258Y211245D01*
X580236Y211343D01*
X580220Y211442D01*
X580209Y211463D01*
X580204Y211485D01*
X580151Y211571D01*
X580104Y211660D01*
X580088Y211675D01*
X580076Y211695D01*
X579999Y211760D01*
X579926Y211829D01*
X579905Y211839D01*
X579887Y211854D01*
X579794Y211890D01*
X579703Y211933D01*
X579680Y211935D01*
X579659Y211944D01*
X579558Y211949D01*
X579459Y211960D01*
X579436Y211955D01*
X579413Y211956D01*
X579316Y211929D01*
X579218Y211907D01*
X579198Y211896D01*
X579176Y211889D01*
X579093Y211833D01*
X579007Y211781D01*
X578992Y211764D01*
X578973Y211751D01*
X578865Y211622D01*
X578842Y211587D01*
X577938Y210683D01*
X577224Y210206D01*
X577173Y210159D01*
X577117Y210120D01*
X577084Y210076D01*
X577044Y210038D01*
X577011Y209978D01*
X576970Y209923D01*
X576953Y209870D01*
X576927Y209822D01*
X576915Y209754D01*
X576894Y209689D01*
X576895Y209634D01*
X576885Y209579D01*
X576896Y209512D01*
X576896Y209443D01*
X576918Y209369D01*
X576923Y209336D01*
X576933Y209317D01*
X576943Y209282D01*
X577384Y208219D01*
X577497Y207649D01*
X572163Y207649D01*
X572144Y207646D01*
X572124Y207648D01*
X572022Y207626D01*
X571920Y207610D01*
X571903Y207600D01*
X571883Y207596D01*
X571805Y207549D01*
X571735Y207578D01*
X571642Y207621D01*
X571622Y207623D01*
X571604Y207631D01*
X571437Y207649D01*
X566103Y207649D01*
X566216Y208219D01*
X566654Y209275D01*
X567290Y210227D01*
X568098Y211035D01*
X568177Y211088D01*
X568191Y211101D01*
X568209Y211110D01*
X568281Y211185D01*
X568356Y211256D01*
X568366Y211273D01*
X568380Y211287D01*
X568424Y211381D01*
X568473Y211472D01*
X568477Y211492D01*
X568485Y211510D01*
X568497Y211613D01*
X568515Y211714D01*
X568512Y211734D01*
X568514Y211754D01*
X568493Y211855D01*
X568477Y211957D01*
X568468Y211975D01*
X568464Y211995D01*
X568387Y212144D01*
X568048Y212651D01*
X567559Y213832D01*
X567455Y214351D01*
X573187Y214351D01*
X573206Y214354D01*
X573226Y214352D01*
X573328Y214374D01*
X573430Y214390D01*
X573447Y214400D01*
X573467Y214404D01*
X573556Y214457D01*
X573647Y214506D01*
X573661Y214520D01*
X573678Y214530D01*
X573745Y214609D01*
X573799Y214666D01*
X573807Y214652D01*
X573821Y214638D01*
X573831Y214621D01*
X573910Y214554D01*
X573985Y214482D01*
X574003Y214474D01*
X574018Y214461D01*
X574115Y214422D01*
X574208Y214379D01*
X574228Y214377D01*
X574246Y214369D01*
X574413Y214351D01*
X580860Y214351D01*
X580950Y214365D01*
X581041Y214373D01*
X581071Y214385D01*
X581103Y214390D01*
X581184Y214433D01*
X581268Y214469D01*
X581300Y214495D01*
X581321Y214506D01*
X581343Y214529D01*
X581399Y214574D01*
X583095Y216270D01*
X585499Y217266D01*
X588101Y217266D01*
X590505Y216270D01*
X592345Y214430D01*
X593341Y212026D01*
X593341Y209424D01*
X593089Y208816D01*
X593067Y208724D01*
X593039Y208634D01*
X593039Y208605D01*
X593033Y208577D01*
X593042Y208483D01*
X593043Y208388D01*
X593053Y208361D01*
X593056Y208332D01*
X593094Y208245D01*
X593126Y208157D01*
X593144Y208134D01*
X593156Y208107D01*
X593220Y208037D01*
X593278Y207963D01*
X593302Y207947D01*
X593322Y207926D01*
X593405Y207880D01*
X593484Y207829D01*
X593519Y207818D01*
X593538Y207807D01*
X593570Y207801D01*
X593644Y207778D01*
X594273Y207653D01*
X595660Y207078D01*
X596908Y206244D01*
X597969Y205183D01*
X598803Y203935D01*
X599378Y202548D01*
X599517Y201848D01*
X592812Y201848D01*
X592792Y201845D01*
X592773Y201847D01*
X592671Y201825D01*
X592569Y201808D01*
X592552Y201799D01*
X592532Y201795D01*
X592443Y201742D01*
X592352Y201693D01*
X592338Y201679D01*
X592321Y201669D01*
X592254Y201590D01*
X592183Y201515D01*
X592174Y201497D01*
X592161Y201482D01*
X592123Y201386D01*
X592079Y201292D01*
X592077Y201272D01*
X592069Y201254D01*
X592051Y201087D01*
X592051Y200324D01*
X592049Y200324D01*
G37*
%LPD*%
%LPC*%
G36*
X465049Y136824D02*
X465049Y136824D01*
X465049Y137587D01*
X465046Y137607D01*
X465048Y137626D01*
X465026Y137728D01*
X465009Y137830D01*
X465000Y137847D01*
X464996Y137867D01*
X464943Y137956D01*
X464894Y138047D01*
X464880Y138061D01*
X464870Y138078D01*
X464791Y138145D01*
X464716Y138216D01*
X464698Y138225D01*
X464683Y138238D01*
X464587Y138277D01*
X464493Y138320D01*
X464473Y138322D01*
X464455Y138330D01*
X464288Y138348D01*
X457583Y138348D01*
X457722Y139048D01*
X458123Y140016D01*
X458128Y140035D01*
X458137Y140053D01*
X458156Y140155D01*
X458179Y140255D01*
X458177Y140275D01*
X458181Y140295D01*
X458166Y140397D01*
X458156Y140500D01*
X458148Y140519D01*
X458145Y140538D01*
X458098Y140630D01*
X458056Y140725D01*
X458043Y140740D01*
X458034Y140757D01*
X457960Y140830D01*
X457890Y140906D01*
X457872Y140916D01*
X457858Y140930D01*
X457711Y141011D01*
X456095Y141680D01*
X454255Y143520D01*
X453259Y145924D01*
X453259Y147699D01*
X453256Y147722D01*
X453258Y147745D01*
X453236Y147843D01*
X453220Y147942D01*
X453209Y147963D01*
X453204Y147985D01*
X453151Y148071D01*
X453104Y148160D01*
X453088Y148175D01*
X453076Y148195D01*
X452999Y148260D01*
X452926Y148329D01*
X452905Y148339D01*
X452887Y148354D01*
X452794Y148390D01*
X452703Y148433D01*
X452680Y148435D01*
X452659Y148444D01*
X452558Y148449D01*
X452459Y148460D01*
X452436Y148455D01*
X452413Y148456D01*
X452316Y148429D01*
X452218Y148407D01*
X452198Y148396D01*
X452176Y148389D01*
X452093Y148333D01*
X452007Y148281D01*
X451992Y148264D01*
X451973Y148251D01*
X451865Y148122D01*
X451842Y148087D01*
X450938Y147183D01*
X450224Y146706D01*
X450173Y146659D01*
X450117Y146620D01*
X450084Y146576D01*
X450044Y146538D01*
X450011Y146478D01*
X449970Y146423D01*
X449953Y146370D01*
X449927Y146322D01*
X449915Y146254D01*
X449894Y146189D01*
X449895Y146134D01*
X449885Y146079D01*
X449896Y146012D01*
X449896Y145943D01*
X449918Y145869D01*
X449923Y145836D01*
X449933Y145817D01*
X449943Y145782D01*
X450384Y144719D01*
X450497Y144149D01*
X445163Y144149D01*
X445144Y144146D01*
X445124Y144148D01*
X445022Y144126D01*
X444920Y144110D01*
X444903Y144100D01*
X444883Y144096D01*
X444805Y144049D01*
X444735Y144078D01*
X444642Y144121D01*
X444622Y144123D01*
X444604Y144131D01*
X444437Y144149D01*
X439103Y144149D01*
X439216Y144719D01*
X439654Y145775D01*
X440290Y146727D01*
X441098Y147535D01*
X441177Y147588D01*
X441191Y147601D01*
X441209Y147610D01*
X441281Y147685D01*
X441356Y147756D01*
X441366Y147773D01*
X441380Y147787D01*
X441424Y147881D01*
X441473Y147972D01*
X441477Y147992D01*
X441485Y148010D01*
X441497Y148113D01*
X441515Y148214D01*
X441512Y148234D01*
X441514Y148254D01*
X441493Y148355D01*
X441477Y148457D01*
X441468Y148475D01*
X441464Y148495D01*
X441387Y148644D01*
X441048Y149150D01*
X440559Y150332D01*
X440455Y150851D01*
X446187Y150851D01*
X446206Y150854D01*
X446226Y150852D01*
X446328Y150874D01*
X446430Y150890D01*
X446447Y150900D01*
X446467Y150904D01*
X446556Y150957D01*
X446647Y151006D01*
X446661Y151020D01*
X446678Y151030D01*
X446745Y151109D01*
X446799Y151166D01*
X446807Y151152D01*
X446821Y151138D01*
X446831Y151121D01*
X446910Y151054D01*
X446985Y150982D01*
X447003Y150974D01*
X447018Y150961D01*
X447115Y150922D01*
X447208Y150879D01*
X447228Y150877D01*
X447246Y150869D01*
X447413Y150851D01*
X453860Y150851D01*
X453951Y150865D01*
X454041Y150873D01*
X454071Y150885D01*
X454103Y150890D01*
X454184Y150933D01*
X454268Y150969D01*
X454300Y150995D01*
X454321Y151006D01*
X454343Y151029D01*
X454399Y151074D01*
X456095Y152770D01*
X458499Y153766D01*
X461101Y153766D01*
X463505Y152770D01*
X465345Y150930D01*
X466341Y148526D01*
X466341Y145924D01*
X466089Y145316D01*
X466067Y145224D01*
X466039Y145134D01*
X466039Y145105D01*
X466033Y145077D01*
X466042Y144983D01*
X466043Y144888D01*
X466053Y144861D01*
X466056Y144832D01*
X466094Y144745D01*
X466126Y144657D01*
X466144Y144634D01*
X466156Y144607D01*
X466220Y144537D01*
X466278Y144463D01*
X466302Y144447D01*
X466322Y144426D01*
X466405Y144380D01*
X466484Y144329D01*
X466519Y144318D01*
X466538Y144307D01*
X466570Y144301D01*
X466644Y144278D01*
X467273Y144153D01*
X468660Y143578D01*
X469908Y142744D01*
X470969Y141683D01*
X471803Y140435D01*
X472378Y139048D01*
X472517Y138348D01*
X465812Y138348D01*
X465792Y138345D01*
X465773Y138347D01*
X465671Y138325D01*
X465569Y138308D01*
X465552Y138299D01*
X465532Y138295D01*
X465443Y138242D01*
X465352Y138193D01*
X465338Y138179D01*
X465321Y138169D01*
X465254Y138090D01*
X465183Y138015D01*
X465174Y137997D01*
X465161Y137982D01*
X465123Y137886D01*
X465079Y137792D01*
X465077Y137772D01*
X465069Y137754D01*
X465051Y137587D01*
X465051Y136824D01*
X465049Y136824D01*
G37*
%LPD*%
%LPC*%
G36*
X270419Y66579D02*
X270419Y66579D01*
X268015Y67575D01*
X266175Y69415D01*
X265179Y71819D01*
X265179Y74421D01*
X265431Y75029D01*
X265453Y75121D01*
X265481Y75211D01*
X265481Y75240D01*
X265487Y75268D01*
X265478Y75362D01*
X265477Y75457D01*
X265467Y75484D01*
X265464Y75513D01*
X265426Y75600D01*
X265394Y75688D01*
X265376Y75711D01*
X265364Y75738D01*
X265300Y75808D01*
X265242Y75882D01*
X265218Y75898D01*
X265198Y75919D01*
X265115Y75965D01*
X265036Y76016D01*
X265001Y76027D01*
X264982Y76038D01*
X264950Y76044D01*
X264876Y76067D01*
X264247Y76192D01*
X262860Y76767D01*
X261612Y77601D01*
X260551Y78662D01*
X259717Y79910D01*
X259142Y81297D01*
X259003Y81997D01*
X265708Y81997D01*
X265728Y82000D01*
X265747Y81998D01*
X265849Y82020D01*
X265951Y82037D01*
X265968Y82046D01*
X265988Y82050D01*
X266077Y82103D01*
X266168Y82152D01*
X266182Y82166D01*
X266199Y82176D01*
X266266Y82255D01*
X266337Y82330D01*
X266346Y82348D01*
X266359Y82363D01*
X266397Y82459D01*
X266441Y82553D01*
X266443Y82573D01*
X266451Y82591D01*
X266469Y82758D01*
X266469Y83521D01*
X266471Y83521D01*
X266471Y82758D01*
X266474Y82738D01*
X266472Y82719D01*
X266494Y82617D01*
X266511Y82515D01*
X266520Y82498D01*
X266524Y82478D01*
X266577Y82389D01*
X266626Y82298D01*
X266640Y82284D01*
X266650Y82267D01*
X266729Y82200D01*
X266804Y82129D01*
X266822Y82120D01*
X266837Y82107D01*
X266933Y82068D01*
X267027Y82025D01*
X267047Y82023D01*
X267065Y82015D01*
X267232Y81997D01*
X273937Y81997D01*
X273798Y81297D01*
X273397Y80329D01*
X273392Y80310D01*
X273383Y80292D01*
X273364Y80190D01*
X273341Y80090D01*
X273343Y80070D01*
X273339Y80050D01*
X273354Y79948D01*
X273364Y79845D01*
X273372Y79826D01*
X273375Y79807D01*
X273422Y79714D01*
X273464Y79620D01*
X273477Y79605D01*
X273486Y79588D01*
X273560Y79515D01*
X273630Y79439D01*
X273648Y79429D01*
X273662Y79415D01*
X273809Y79334D01*
X275425Y78665D01*
X277265Y76825D01*
X278261Y74421D01*
X278261Y72646D01*
X278264Y72623D01*
X278262Y72600D01*
X278284Y72502D01*
X278300Y72403D01*
X278311Y72382D01*
X278316Y72360D01*
X278369Y72274D01*
X278416Y72185D01*
X278432Y72170D01*
X278444Y72150D01*
X278521Y72085D01*
X278594Y72016D01*
X278615Y72006D01*
X278632Y71991D01*
X278726Y71955D01*
X278817Y71912D01*
X278840Y71910D01*
X278861Y71901D01*
X278962Y71896D01*
X279061Y71885D01*
X279084Y71890D01*
X279107Y71889D01*
X279204Y71916D01*
X279302Y71938D01*
X279322Y71949D01*
X279344Y71956D01*
X279427Y72012D01*
X279513Y72064D01*
X279528Y72081D01*
X279547Y72094D01*
X279655Y72223D01*
X279678Y72258D01*
X280582Y73162D01*
X281296Y73639D01*
X281347Y73686D01*
X281403Y73725D01*
X281436Y73769D01*
X281476Y73807D01*
X281509Y73867D01*
X281550Y73922D01*
X281567Y73975D01*
X281593Y74023D01*
X281605Y74091D01*
X281626Y74156D01*
X281625Y74211D01*
X281635Y74266D01*
X281624Y74333D01*
X281624Y74402D01*
X281602Y74476D01*
X281597Y74509D01*
X281587Y74528D01*
X281577Y74563D01*
X281136Y75626D01*
X281023Y76196D01*
X286357Y76196D01*
X286376Y76199D01*
X286396Y76197D01*
X286498Y76219D01*
X286600Y76235D01*
X286617Y76245D01*
X286637Y76249D01*
X286715Y76296D01*
X286785Y76267D01*
X286878Y76224D01*
X286898Y76222D01*
X286916Y76214D01*
X287083Y76196D01*
X292417Y76196D01*
X292304Y75626D01*
X291866Y74570D01*
X291230Y73618D01*
X290422Y72810D01*
X290343Y72757D01*
X290329Y72744D01*
X290311Y72735D01*
X290239Y72660D01*
X290164Y72589D01*
X290154Y72572D01*
X290140Y72558D01*
X290096Y72464D01*
X290047Y72373D01*
X290043Y72353D01*
X290035Y72335D01*
X290023Y72232D01*
X290005Y72131D01*
X290008Y72111D01*
X290006Y72091D01*
X290027Y71990D01*
X290043Y71888D01*
X290052Y71870D01*
X290056Y71850D01*
X290133Y71701D01*
X290472Y71195D01*
X290961Y70013D01*
X291065Y69494D01*
X285333Y69494D01*
X285314Y69491D01*
X285294Y69493D01*
X285192Y69471D01*
X285090Y69455D01*
X285073Y69445D01*
X285053Y69441D01*
X284964Y69388D01*
X284873Y69339D01*
X284859Y69325D01*
X284842Y69315D01*
X284775Y69236D01*
X284721Y69179D01*
X284713Y69193D01*
X284699Y69207D01*
X284689Y69224D01*
X284610Y69291D01*
X284535Y69363D01*
X284517Y69371D01*
X284502Y69384D01*
X284405Y69423D01*
X284312Y69466D01*
X284292Y69468D01*
X284274Y69476D01*
X284107Y69494D01*
X277660Y69494D01*
X277569Y69480D01*
X277479Y69472D01*
X277449Y69460D01*
X277417Y69455D01*
X277336Y69412D01*
X277252Y69376D01*
X277220Y69350D01*
X277199Y69339D01*
X277177Y69316D01*
X277121Y69271D01*
X275425Y67575D01*
X273021Y66579D01*
X270419Y66579D01*
G37*
%LPD*%
%LPC*%
G36*
X265339Y234219D02*
X265339Y234219D01*
X262935Y235215D01*
X261095Y237055D01*
X260099Y239459D01*
X260099Y242061D01*
X260351Y242669D01*
X260373Y242761D01*
X260401Y242851D01*
X260401Y242880D01*
X260407Y242908D01*
X260398Y243002D01*
X260397Y243097D01*
X260387Y243124D01*
X260384Y243153D01*
X260346Y243240D01*
X260314Y243328D01*
X260296Y243351D01*
X260284Y243378D01*
X260220Y243448D01*
X260162Y243522D01*
X260138Y243538D01*
X260118Y243559D01*
X260035Y243605D01*
X259956Y243656D01*
X259921Y243667D01*
X259902Y243678D01*
X259870Y243684D01*
X259796Y243707D01*
X259167Y243832D01*
X257780Y244407D01*
X256532Y245241D01*
X255471Y246302D01*
X254637Y247550D01*
X254062Y248937D01*
X253923Y249637D01*
X260628Y249637D01*
X260648Y249640D01*
X260667Y249638D01*
X260769Y249660D01*
X260871Y249677D01*
X260888Y249686D01*
X260908Y249690D01*
X260997Y249743D01*
X261088Y249792D01*
X261102Y249806D01*
X261119Y249816D01*
X261186Y249895D01*
X261257Y249970D01*
X261266Y249988D01*
X261279Y250003D01*
X261317Y250099D01*
X261361Y250193D01*
X261363Y250213D01*
X261371Y250231D01*
X261389Y250398D01*
X261389Y251161D01*
X261391Y251161D01*
X261391Y250398D01*
X261394Y250378D01*
X261392Y250359D01*
X261414Y250257D01*
X261431Y250155D01*
X261440Y250138D01*
X261444Y250118D01*
X261497Y250029D01*
X261546Y249938D01*
X261560Y249924D01*
X261570Y249907D01*
X261649Y249840D01*
X261724Y249769D01*
X261742Y249760D01*
X261757Y249747D01*
X261853Y249708D01*
X261947Y249665D01*
X261967Y249663D01*
X261985Y249655D01*
X262152Y249637D01*
X268857Y249637D01*
X268718Y248937D01*
X268317Y247969D01*
X268312Y247950D01*
X268303Y247932D01*
X268284Y247830D01*
X268261Y247730D01*
X268263Y247710D01*
X268259Y247690D01*
X268274Y247588D01*
X268284Y247485D01*
X268292Y247466D01*
X268295Y247447D01*
X268342Y247354D01*
X268384Y247260D01*
X268397Y247245D01*
X268406Y247228D01*
X268480Y247155D01*
X268550Y247079D01*
X268568Y247069D01*
X268582Y247055D01*
X268729Y246974D01*
X270345Y246305D01*
X272185Y244465D01*
X273181Y242061D01*
X273181Y240286D01*
X273184Y240263D01*
X273182Y240240D01*
X273204Y240142D01*
X273220Y240043D01*
X273231Y240022D01*
X273236Y240000D01*
X273289Y239914D01*
X273336Y239825D01*
X273352Y239810D01*
X273364Y239790D01*
X273441Y239725D01*
X273514Y239656D01*
X273535Y239646D01*
X273553Y239631D01*
X273646Y239595D01*
X273737Y239552D01*
X273760Y239550D01*
X273781Y239541D01*
X273882Y239536D01*
X273981Y239525D01*
X274004Y239530D01*
X274027Y239529D01*
X274124Y239556D01*
X274222Y239578D01*
X274242Y239589D01*
X274264Y239596D01*
X274347Y239652D01*
X274433Y239704D01*
X274448Y239721D01*
X274467Y239734D01*
X274575Y239863D01*
X274598Y239898D01*
X275502Y240802D01*
X276216Y241279D01*
X276267Y241326D01*
X276323Y241365D01*
X276356Y241409D01*
X276396Y241447D01*
X276429Y241507D01*
X276470Y241562D01*
X276487Y241615D01*
X276513Y241663D01*
X276525Y241731D01*
X276546Y241796D01*
X276545Y241851D01*
X276555Y241906D01*
X276544Y241973D01*
X276544Y242042D01*
X276522Y242116D01*
X276517Y242149D01*
X276507Y242168D01*
X276497Y242203D01*
X276056Y243266D01*
X275943Y243836D01*
X281277Y243836D01*
X281296Y243839D01*
X281316Y243837D01*
X281418Y243859D01*
X281520Y243875D01*
X281537Y243885D01*
X281557Y243889D01*
X281635Y243936D01*
X281705Y243907D01*
X281798Y243864D01*
X281818Y243862D01*
X281836Y243854D01*
X282003Y243836D01*
X287337Y243836D01*
X287224Y243266D01*
X286786Y242210D01*
X286150Y241258D01*
X285342Y240450D01*
X285263Y240397D01*
X285249Y240384D01*
X285231Y240375D01*
X285159Y240300D01*
X285084Y240229D01*
X285074Y240212D01*
X285060Y240198D01*
X285016Y240104D01*
X284967Y240013D01*
X284963Y239993D01*
X284955Y239975D01*
X284943Y239872D01*
X284925Y239771D01*
X284928Y239751D01*
X284926Y239731D01*
X284947Y239630D01*
X284963Y239528D01*
X284972Y239510D01*
X284976Y239490D01*
X285053Y239341D01*
X285392Y238835D01*
X285881Y237653D01*
X285985Y237134D01*
X280253Y237134D01*
X280234Y237131D01*
X280214Y237133D01*
X280112Y237111D01*
X280010Y237095D01*
X279993Y237085D01*
X279973Y237081D01*
X279884Y237028D01*
X279793Y236979D01*
X279779Y236965D01*
X279762Y236955D01*
X279695Y236876D01*
X279641Y236819D01*
X279633Y236833D01*
X279619Y236847D01*
X279609Y236864D01*
X279530Y236931D01*
X279455Y237003D01*
X279437Y237011D01*
X279422Y237024D01*
X279325Y237063D01*
X279232Y237106D01*
X279212Y237108D01*
X279194Y237116D01*
X279027Y237134D01*
X272580Y237134D01*
X272489Y237120D01*
X272399Y237112D01*
X272369Y237100D01*
X272337Y237095D01*
X272256Y237052D01*
X272172Y237016D01*
X272140Y236990D01*
X272119Y236979D01*
X272097Y236956D01*
X272041Y236911D01*
X270345Y235215D01*
X267941Y234219D01*
X265339Y234219D01*
G37*
%LPD*%
%LPC*%
G36*
X264704Y170719D02*
X264704Y170719D01*
X262300Y171715D01*
X260460Y173555D01*
X259464Y175959D01*
X259464Y178561D01*
X259716Y179169D01*
X259738Y179261D01*
X259766Y179351D01*
X259766Y179380D01*
X259772Y179408D01*
X259763Y179502D01*
X259762Y179597D01*
X259752Y179624D01*
X259749Y179653D01*
X259711Y179740D01*
X259679Y179828D01*
X259661Y179851D01*
X259649Y179878D01*
X259585Y179948D01*
X259527Y180022D01*
X259503Y180038D01*
X259483Y180059D01*
X259400Y180105D01*
X259321Y180156D01*
X259286Y180167D01*
X259267Y180178D01*
X259235Y180184D01*
X259161Y180207D01*
X258532Y180332D01*
X257145Y180907D01*
X255897Y181741D01*
X254836Y182802D01*
X254002Y184050D01*
X253427Y185437D01*
X253288Y186137D01*
X259993Y186137D01*
X260013Y186140D01*
X260032Y186138D01*
X260134Y186160D01*
X260236Y186177D01*
X260253Y186186D01*
X260273Y186190D01*
X260362Y186243D01*
X260453Y186292D01*
X260467Y186306D01*
X260484Y186316D01*
X260551Y186395D01*
X260622Y186470D01*
X260631Y186488D01*
X260644Y186503D01*
X260682Y186599D01*
X260726Y186693D01*
X260728Y186713D01*
X260736Y186731D01*
X260754Y186898D01*
X260754Y187661D01*
X260756Y187661D01*
X260756Y186898D01*
X260759Y186878D01*
X260757Y186859D01*
X260779Y186757D01*
X260796Y186655D01*
X260805Y186638D01*
X260809Y186618D01*
X260862Y186529D01*
X260911Y186438D01*
X260925Y186424D01*
X260935Y186407D01*
X261014Y186340D01*
X261089Y186269D01*
X261107Y186260D01*
X261122Y186247D01*
X261218Y186208D01*
X261312Y186165D01*
X261332Y186163D01*
X261350Y186155D01*
X261517Y186137D01*
X268222Y186137D01*
X268083Y185437D01*
X267682Y184469D01*
X267677Y184450D01*
X267668Y184432D01*
X267649Y184330D01*
X267626Y184230D01*
X267628Y184210D01*
X267624Y184190D01*
X267639Y184088D01*
X267649Y183985D01*
X267657Y183966D01*
X267660Y183947D01*
X267707Y183854D01*
X267749Y183760D01*
X267762Y183745D01*
X267771Y183728D01*
X267845Y183655D01*
X267915Y183579D01*
X267933Y183569D01*
X267947Y183555D01*
X268094Y183474D01*
X269710Y182805D01*
X271550Y180965D01*
X272546Y178561D01*
X272546Y176786D01*
X272549Y176763D01*
X272547Y176740D01*
X272569Y176642D01*
X272585Y176543D01*
X272596Y176522D01*
X272601Y176500D01*
X272654Y176414D01*
X272701Y176325D01*
X272717Y176310D01*
X272729Y176290D01*
X272806Y176225D01*
X272879Y176156D01*
X272900Y176146D01*
X272918Y176131D01*
X273011Y176095D01*
X273102Y176052D01*
X273125Y176050D01*
X273146Y176041D01*
X273247Y176036D01*
X273346Y176025D01*
X273369Y176030D01*
X273392Y176029D01*
X273489Y176056D01*
X273587Y176078D01*
X273607Y176089D01*
X273629Y176096D01*
X273712Y176152D01*
X273798Y176204D01*
X273813Y176221D01*
X273832Y176234D01*
X273940Y176363D01*
X273963Y176398D01*
X274867Y177302D01*
X275581Y177779D01*
X275632Y177826D01*
X275688Y177865D01*
X275721Y177909D01*
X275761Y177947D01*
X275794Y178007D01*
X275835Y178062D01*
X275852Y178115D01*
X275878Y178163D01*
X275890Y178231D01*
X275911Y178296D01*
X275910Y178351D01*
X275920Y178406D01*
X275909Y178473D01*
X275909Y178542D01*
X275887Y178616D01*
X275882Y178649D01*
X275872Y178668D01*
X275862Y178703D01*
X275421Y179766D01*
X275308Y180336D01*
X280642Y180336D01*
X280661Y180339D01*
X280681Y180337D01*
X280783Y180359D01*
X280885Y180375D01*
X280902Y180385D01*
X280922Y180389D01*
X281000Y180436D01*
X281070Y180407D01*
X281163Y180364D01*
X281183Y180362D01*
X281201Y180354D01*
X281368Y180336D01*
X286702Y180336D01*
X286589Y179766D01*
X286151Y178710D01*
X285515Y177758D01*
X284707Y176950D01*
X284628Y176897D01*
X284614Y176884D01*
X284596Y176875D01*
X284524Y176800D01*
X284449Y176729D01*
X284439Y176712D01*
X284425Y176698D01*
X284381Y176604D01*
X284332Y176513D01*
X284328Y176493D01*
X284320Y176475D01*
X284308Y176372D01*
X284290Y176271D01*
X284293Y176251D01*
X284291Y176231D01*
X284312Y176130D01*
X284328Y176028D01*
X284337Y176010D01*
X284341Y175990D01*
X284418Y175841D01*
X284757Y175335D01*
X285246Y174153D01*
X285350Y173634D01*
X279618Y173634D01*
X279599Y173631D01*
X279579Y173633D01*
X279477Y173611D01*
X279375Y173595D01*
X279358Y173585D01*
X279338Y173581D01*
X279249Y173528D01*
X279158Y173479D01*
X279144Y173465D01*
X279127Y173455D01*
X279060Y173376D01*
X279006Y173319D01*
X278998Y173333D01*
X278984Y173347D01*
X278974Y173364D01*
X278895Y173431D01*
X278820Y173503D01*
X278802Y173511D01*
X278787Y173524D01*
X278690Y173563D01*
X278597Y173606D01*
X278577Y173608D01*
X278559Y173616D01*
X278392Y173634D01*
X271945Y173634D01*
X271854Y173620D01*
X271764Y173612D01*
X271734Y173600D01*
X271702Y173595D01*
X271621Y173552D01*
X271537Y173516D01*
X271505Y173490D01*
X271484Y173479D01*
X271462Y173456D01*
X271406Y173411D01*
X269710Y171715D01*
X267306Y170719D01*
X264704Y170719D01*
G37*
%LPD*%
%LPC*%
G36*
X592049Y263824D02*
X592049Y263824D01*
X592049Y264587D01*
X592046Y264607D01*
X592048Y264626D01*
X592026Y264728D01*
X592009Y264830D01*
X592000Y264847D01*
X591996Y264867D01*
X591943Y264956D01*
X591894Y265047D01*
X591880Y265061D01*
X591870Y265078D01*
X591791Y265145D01*
X591716Y265216D01*
X591698Y265225D01*
X591683Y265238D01*
X591587Y265277D01*
X591493Y265320D01*
X591473Y265322D01*
X591455Y265330D01*
X591288Y265348D01*
X584583Y265348D01*
X584722Y266048D01*
X585123Y267016D01*
X585128Y267035D01*
X585137Y267053D01*
X585156Y267155D01*
X585179Y267255D01*
X585177Y267275D01*
X585181Y267295D01*
X585166Y267397D01*
X585156Y267500D01*
X585148Y267519D01*
X585145Y267538D01*
X585098Y267631D01*
X585056Y267725D01*
X585043Y267740D01*
X585034Y267757D01*
X584960Y267830D01*
X584890Y267906D01*
X584872Y267916D01*
X584858Y267930D01*
X584711Y268011D01*
X583095Y268680D01*
X581255Y270520D01*
X580259Y272924D01*
X580259Y274699D01*
X580256Y274722D01*
X580258Y274745D01*
X580236Y274843D01*
X580220Y274942D01*
X580209Y274963D01*
X580204Y274985D01*
X580151Y275071D01*
X580104Y275160D01*
X580088Y275175D01*
X580076Y275195D01*
X579999Y275260D01*
X579926Y275329D01*
X579905Y275339D01*
X579887Y275354D01*
X579794Y275390D01*
X579703Y275433D01*
X579680Y275435D01*
X579659Y275444D01*
X579558Y275449D01*
X579459Y275460D01*
X579436Y275455D01*
X579413Y275456D01*
X579316Y275429D01*
X579218Y275407D01*
X579198Y275396D01*
X579176Y275389D01*
X579093Y275333D01*
X579007Y275281D01*
X578992Y275264D01*
X578973Y275251D01*
X578865Y275122D01*
X578842Y275087D01*
X577938Y274183D01*
X577224Y273706D01*
X577173Y273659D01*
X577117Y273620D01*
X577084Y273576D01*
X577044Y273538D01*
X577011Y273478D01*
X576970Y273423D01*
X576953Y273370D01*
X576927Y273322D01*
X576915Y273254D01*
X576894Y273189D01*
X576895Y273134D01*
X576885Y273079D01*
X576896Y273012D01*
X576896Y272943D01*
X576918Y272869D01*
X576923Y272836D01*
X576933Y272817D01*
X576943Y272782D01*
X577384Y271719D01*
X577497Y271149D01*
X572163Y271149D01*
X572144Y271146D01*
X572124Y271148D01*
X572022Y271126D01*
X571920Y271110D01*
X571903Y271100D01*
X571883Y271096D01*
X571805Y271049D01*
X571735Y271078D01*
X571642Y271121D01*
X571622Y271123D01*
X571604Y271131D01*
X571437Y271149D01*
X566103Y271149D01*
X566216Y271719D01*
X566654Y272775D01*
X567290Y273727D01*
X568098Y274535D01*
X568177Y274588D01*
X568191Y274601D01*
X568209Y274610D01*
X568281Y274685D01*
X568356Y274756D01*
X568366Y274773D01*
X568380Y274787D01*
X568424Y274881D01*
X568473Y274972D01*
X568477Y274992D01*
X568485Y275010D01*
X568497Y275113D01*
X568515Y275214D01*
X568512Y275234D01*
X568514Y275254D01*
X568493Y275355D01*
X568477Y275457D01*
X568468Y275475D01*
X568464Y275495D01*
X568387Y275644D01*
X568048Y276150D01*
X567559Y277332D01*
X567455Y277851D01*
X573187Y277851D01*
X573206Y277854D01*
X573226Y277852D01*
X573328Y277874D01*
X573430Y277890D01*
X573447Y277900D01*
X573467Y277904D01*
X573556Y277957D01*
X573647Y278006D01*
X573661Y278020D01*
X573678Y278030D01*
X573745Y278109D01*
X573799Y278166D01*
X573807Y278152D01*
X573821Y278138D01*
X573831Y278121D01*
X573910Y278054D01*
X573985Y277982D01*
X574003Y277974D01*
X574018Y277961D01*
X574115Y277922D01*
X574208Y277879D01*
X574228Y277877D01*
X574246Y277869D01*
X574413Y277851D01*
X580860Y277851D01*
X580950Y277865D01*
X581041Y277873D01*
X581071Y277885D01*
X581103Y277890D01*
X581184Y277933D01*
X581268Y277969D01*
X581300Y277995D01*
X581321Y278006D01*
X581343Y278029D01*
X581399Y278074D01*
X583095Y279770D01*
X585499Y280766D01*
X588101Y280766D01*
X590505Y279770D01*
X592345Y277930D01*
X593341Y275526D01*
X593341Y272924D01*
X593089Y272316D01*
X593075Y272255D01*
X593063Y272229D01*
X593059Y272198D01*
X593039Y272134D01*
X593039Y272105D01*
X593033Y272077D01*
X593039Y272014D01*
X593035Y271984D01*
X593042Y271954D01*
X593043Y271888D01*
X593053Y271861D01*
X593056Y271832D01*
X593081Y271775D01*
X593088Y271744D01*
X593105Y271715D01*
X593126Y271657D01*
X593144Y271634D01*
X593156Y271607D01*
X593196Y271564D01*
X593214Y271533D01*
X593242Y271509D01*
X593278Y271463D01*
X593302Y271447D01*
X593322Y271426D01*
X593370Y271400D01*
X593401Y271373D01*
X593440Y271357D01*
X593484Y271329D01*
X593519Y271318D01*
X593538Y271307D01*
X593570Y271301D01*
X593611Y271288D01*
X593629Y271281D01*
X593636Y271280D01*
X593644Y271278D01*
X594273Y271153D01*
X595660Y270578D01*
X596908Y269744D01*
X597969Y268683D01*
X598803Y267435D01*
X599378Y266048D01*
X599517Y265348D01*
X592812Y265348D01*
X592792Y265345D01*
X592773Y265347D01*
X592671Y265325D01*
X592569Y265308D01*
X592552Y265299D01*
X592532Y265295D01*
X592443Y265242D01*
X592352Y265193D01*
X592338Y265179D01*
X592321Y265169D01*
X592254Y265090D01*
X592183Y265015D01*
X592174Y264997D01*
X592161Y264982D01*
X592123Y264886D01*
X592079Y264792D01*
X592077Y264772D01*
X592069Y264754D01*
X592051Y264587D01*
X592051Y263824D01*
X592049Y263824D01*
G37*
%LPD*%
%LPC*%
G36*
X465049Y263824D02*
X465049Y263824D01*
X465049Y264587D01*
X465046Y264607D01*
X465048Y264626D01*
X465026Y264728D01*
X465009Y264830D01*
X465000Y264847D01*
X464996Y264867D01*
X464943Y264956D01*
X464894Y265047D01*
X464880Y265061D01*
X464870Y265078D01*
X464791Y265145D01*
X464716Y265216D01*
X464698Y265225D01*
X464683Y265238D01*
X464587Y265277D01*
X464493Y265320D01*
X464473Y265322D01*
X464455Y265330D01*
X464288Y265348D01*
X457583Y265348D01*
X457722Y266048D01*
X458123Y267016D01*
X458128Y267035D01*
X458137Y267053D01*
X458156Y267155D01*
X458179Y267255D01*
X458177Y267275D01*
X458181Y267295D01*
X458166Y267397D01*
X458156Y267500D01*
X458148Y267519D01*
X458145Y267538D01*
X458098Y267631D01*
X458056Y267725D01*
X458043Y267740D01*
X458034Y267757D01*
X457960Y267830D01*
X457890Y267906D01*
X457872Y267916D01*
X457858Y267930D01*
X457711Y268011D01*
X456095Y268680D01*
X454255Y270520D01*
X453259Y272924D01*
X453259Y274699D01*
X453256Y274722D01*
X453258Y274745D01*
X453236Y274843D01*
X453220Y274942D01*
X453209Y274963D01*
X453204Y274985D01*
X453151Y275071D01*
X453104Y275160D01*
X453088Y275175D01*
X453076Y275195D01*
X452999Y275260D01*
X452926Y275329D01*
X452905Y275339D01*
X452887Y275354D01*
X452794Y275390D01*
X452703Y275433D01*
X452680Y275435D01*
X452659Y275444D01*
X452558Y275449D01*
X452459Y275460D01*
X452436Y275455D01*
X452413Y275456D01*
X452316Y275429D01*
X452218Y275407D01*
X452198Y275396D01*
X452176Y275389D01*
X452093Y275333D01*
X452007Y275281D01*
X451992Y275264D01*
X451973Y275251D01*
X451865Y275122D01*
X451842Y275087D01*
X450938Y274183D01*
X450224Y273706D01*
X450173Y273659D01*
X450117Y273620D01*
X450084Y273576D01*
X450044Y273538D01*
X450011Y273478D01*
X449970Y273423D01*
X449953Y273370D01*
X449927Y273322D01*
X449915Y273254D01*
X449894Y273189D01*
X449895Y273134D01*
X449885Y273079D01*
X449896Y273012D01*
X449896Y272943D01*
X449918Y272869D01*
X449923Y272836D01*
X449933Y272817D01*
X449943Y272782D01*
X450384Y271719D01*
X450497Y271149D01*
X445163Y271149D01*
X445144Y271146D01*
X445124Y271148D01*
X445022Y271126D01*
X444920Y271110D01*
X444903Y271100D01*
X444883Y271096D01*
X444805Y271049D01*
X444735Y271078D01*
X444642Y271121D01*
X444622Y271123D01*
X444604Y271131D01*
X444437Y271149D01*
X439103Y271149D01*
X439216Y271719D01*
X439654Y272775D01*
X440290Y273727D01*
X441098Y274535D01*
X441177Y274588D01*
X441191Y274601D01*
X441209Y274610D01*
X441281Y274685D01*
X441356Y274756D01*
X441366Y274773D01*
X441380Y274787D01*
X441424Y274881D01*
X441473Y274972D01*
X441477Y274992D01*
X441485Y275010D01*
X441497Y275113D01*
X441515Y275214D01*
X441512Y275234D01*
X441514Y275254D01*
X441493Y275355D01*
X441477Y275457D01*
X441468Y275475D01*
X441464Y275495D01*
X441387Y275644D01*
X441048Y276150D01*
X440559Y277332D01*
X440455Y277851D01*
X446187Y277851D01*
X446206Y277854D01*
X446226Y277852D01*
X446328Y277874D01*
X446430Y277890D01*
X446447Y277900D01*
X446467Y277904D01*
X446556Y277957D01*
X446647Y278006D01*
X446661Y278020D01*
X446678Y278030D01*
X446745Y278109D01*
X446799Y278166D01*
X446807Y278152D01*
X446821Y278138D01*
X446831Y278121D01*
X446910Y278054D01*
X446985Y277982D01*
X447003Y277974D01*
X447018Y277961D01*
X447115Y277922D01*
X447208Y277879D01*
X447228Y277877D01*
X447246Y277869D01*
X447413Y277851D01*
X453860Y277851D01*
X453950Y277865D01*
X454041Y277873D01*
X454071Y277885D01*
X454103Y277890D01*
X454184Y277933D01*
X454268Y277969D01*
X454300Y277995D01*
X454321Y278006D01*
X454343Y278029D01*
X454399Y278074D01*
X456095Y279770D01*
X458499Y280766D01*
X461101Y280766D01*
X463505Y279770D01*
X465345Y277930D01*
X466341Y275526D01*
X466341Y272924D01*
X466089Y272316D01*
X466075Y272255D01*
X466063Y272229D01*
X466059Y272198D01*
X466039Y272134D01*
X466039Y272105D01*
X466033Y272077D01*
X466039Y272014D01*
X466035Y271984D01*
X466042Y271954D01*
X466043Y271888D01*
X466053Y271861D01*
X466056Y271832D01*
X466081Y271775D01*
X466088Y271744D01*
X466105Y271715D01*
X466126Y271657D01*
X466144Y271634D01*
X466156Y271607D01*
X466196Y271564D01*
X466214Y271533D01*
X466242Y271509D01*
X466278Y271463D01*
X466302Y271447D01*
X466322Y271426D01*
X466370Y271400D01*
X466401Y271373D01*
X466440Y271357D01*
X466484Y271329D01*
X466519Y271318D01*
X466538Y271307D01*
X466570Y271301D01*
X466611Y271288D01*
X466629Y271281D01*
X466636Y271280D01*
X466644Y271278D01*
X467273Y271153D01*
X468660Y270578D01*
X469908Y269744D01*
X470969Y268683D01*
X471803Y267435D01*
X472378Y266048D01*
X472517Y265348D01*
X465812Y265348D01*
X465792Y265345D01*
X465773Y265347D01*
X465671Y265325D01*
X465569Y265308D01*
X465552Y265299D01*
X465532Y265295D01*
X465443Y265242D01*
X465352Y265193D01*
X465338Y265179D01*
X465321Y265169D01*
X465254Y265090D01*
X465183Y265015D01*
X465174Y264997D01*
X465161Y264982D01*
X465123Y264886D01*
X465079Y264792D01*
X465077Y264772D01*
X465069Y264754D01*
X465051Y264587D01*
X465051Y263824D01*
X465049Y263824D01*
G37*
%LPD*%
%LPC*%
G36*
X262913Y252683D02*
X262913Y252683D01*
X262913Y268787D01*
X263613Y268648D01*
X265000Y268073D01*
X266248Y267239D01*
X267309Y266178D01*
X268143Y264930D01*
X268718Y263543D01*
X269011Y262071D01*
X269011Y252683D01*
X262913Y252683D01*
G37*
%LPD*%
%LPC*%
G36*
X267993Y85043D02*
X267993Y85043D01*
X267993Y101147D01*
X268693Y101008D01*
X270080Y100433D01*
X271328Y99599D01*
X272389Y98538D01*
X273223Y97290D01*
X273798Y95903D01*
X274091Y94431D01*
X274091Y85043D01*
X267993Y85043D01*
G37*
%LPD*%
%LPC*%
G36*
X262278Y189183D02*
X262278Y189183D01*
X262278Y205287D01*
X262978Y205148D01*
X264365Y204573D01*
X265613Y203739D01*
X266674Y202678D01*
X267508Y201430D01*
X268083Y200043D01*
X268376Y198571D01*
X268376Y189183D01*
X262278Y189183D01*
G37*
%LPD*%
%LPC*%
G36*
X328778Y189183D02*
X328778Y189183D01*
X328778Y205287D01*
X329478Y205148D01*
X330865Y204573D01*
X332113Y203739D01*
X333174Y202678D01*
X334008Y201430D01*
X334583Y200043D01*
X334876Y198571D01*
X334876Y189183D01*
X328778Y189183D01*
G37*
%LPD*%
%LPC*%
G36*
X334493Y85043D02*
X334493Y85043D01*
X334493Y101147D01*
X335193Y101008D01*
X336580Y100433D01*
X337828Y99599D01*
X338889Y98538D01*
X339723Y97290D01*
X340298Y95903D01*
X340591Y94431D01*
X340591Y85043D01*
X334493Y85043D01*
G37*
%LPD*%
%LPC*%
G36*
X329413Y252683D02*
X329413Y252683D01*
X329413Y268787D01*
X330113Y268648D01*
X331500Y268073D01*
X332748Y267239D01*
X333809Y266178D01*
X334643Y264930D01*
X335218Y263543D01*
X335511Y262071D01*
X335511Y252683D01*
X329413Y252683D01*
G37*
%LPD*%
%LPC*%
G36*
X593573Y262302D02*
X593573Y262302D01*
X599671Y262302D01*
X599671Y252914D01*
X599378Y251442D01*
X598803Y250055D01*
X597969Y248807D01*
X596908Y247746D01*
X595660Y246912D01*
X594273Y246337D01*
X593573Y246198D01*
X593573Y262302D01*
G37*
%LPD*%
%LPC*%
G36*
X466573Y262302D02*
X466573Y262302D01*
X472671Y262302D01*
X472671Y252914D01*
X472378Y251442D01*
X471803Y250055D01*
X470969Y248807D01*
X469908Y247746D01*
X468660Y246912D01*
X467273Y246337D01*
X466573Y246198D01*
X466573Y262302D01*
G37*
%LPD*%
%LPC*%
G36*
X400073Y135302D02*
X400073Y135302D01*
X406171Y135302D01*
X406171Y125914D01*
X405878Y124442D01*
X405303Y123055D01*
X404469Y121807D01*
X403408Y120746D01*
X402160Y119912D01*
X400773Y119337D01*
X400073Y119198D01*
X400073Y135302D01*
G37*
%LPD*%
%LPC*%
G36*
X400073Y262302D02*
X400073Y262302D01*
X406171Y262302D01*
X406171Y252914D01*
X405878Y251442D01*
X405303Y250055D01*
X404469Y248807D01*
X403408Y247746D01*
X402160Y246912D01*
X400773Y246337D01*
X400073Y246198D01*
X400073Y262302D01*
G37*
%LPD*%
%LPC*%
G36*
X466573Y135302D02*
X466573Y135302D01*
X472671Y135302D01*
X472671Y125914D01*
X472378Y124442D01*
X471803Y123055D01*
X470969Y121807D01*
X469908Y120746D01*
X468660Y119912D01*
X467273Y119337D01*
X466573Y119198D01*
X466573Y135302D01*
G37*
%LPD*%
%LPC*%
G36*
X593573Y198802D02*
X593573Y198802D01*
X599671Y198802D01*
X599671Y189414D01*
X599378Y187942D01*
X598803Y186555D01*
X597969Y185307D01*
X596908Y184246D01*
X595660Y183412D01*
X594273Y182837D01*
X593573Y182698D01*
X593573Y198802D01*
G37*
%LPD*%
%LPC*%
G36*
X466573Y198802D02*
X466573Y198802D01*
X472671Y198802D01*
X472671Y189414D01*
X472378Y187942D01*
X471803Y186555D01*
X470969Y185307D01*
X469908Y184246D01*
X468660Y183412D01*
X467273Y182837D01*
X466573Y182698D01*
X466573Y198802D01*
G37*
%LPD*%
%LPC*%
G36*
X527073Y135302D02*
X527073Y135302D01*
X533171Y135302D01*
X533171Y125914D01*
X532878Y124442D01*
X532303Y123055D01*
X531469Y121807D01*
X530408Y120746D01*
X529160Y119912D01*
X527773Y119337D01*
X527073Y119198D01*
X527073Y135302D01*
G37*
%LPD*%
%LPC*%
G36*
X593573Y135302D02*
X593573Y135302D01*
X599671Y135302D01*
X599671Y125914D01*
X599378Y124442D01*
X598803Y123055D01*
X597969Y121807D01*
X596908Y120746D01*
X595660Y119912D01*
X594273Y119337D01*
X593573Y119198D01*
X593573Y135302D01*
G37*
%LPD*%
%LPC*%
G36*
X527073Y198802D02*
X527073Y198802D01*
X533171Y198802D01*
X533171Y189414D01*
X532878Y187942D01*
X532303Y186555D01*
X531469Y185307D01*
X530408Y184246D01*
X529160Y183412D01*
X527773Y182837D01*
X527073Y182698D01*
X527073Y198802D01*
G37*
%LPD*%
%LPC*%
G36*
X527073Y262302D02*
X527073Y262302D01*
X533171Y262302D01*
X533171Y252914D01*
X532878Y251442D01*
X532303Y250055D01*
X531469Y248807D01*
X530408Y247746D01*
X529160Y246912D01*
X527773Y246337D01*
X527073Y246198D01*
X527073Y262302D01*
G37*
%LPD*%
%LPC*%
G36*
X320269Y252683D02*
X320269Y252683D01*
X320269Y262071D01*
X320562Y263543D01*
X321137Y264930D01*
X321971Y266178D01*
X323032Y267239D01*
X324280Y268073D01*
X325667Y268648D01*
X326367Y268787D01*
X326367Y252683D01*
X320269Y252683D01*
G37*
%LPD*%
%LPC*%
G36*
X253769Y252683D02*
X253769Y252683D01*
X253769Y262071D01*
X254062Y263543D01*
X254637Y264930D01*
X255471Y266178D01*
X256532Y267239D01*
X257780Y268073D01*
X259167Y268648D01*
X259867Y268787D01*
X259867Y252683D01*
X253769Y252683D01*
G37*
%LPD*%
%LPC*%
G36*
X325349Y85043D02*
X325349Y85043D01*
X325349Y94431D01*
X325642Y95903D01*
X326217Y97290D01*
X327051Y98538D01*
X328112Y99599D01*
X329360Y100433D01*
X330747Y101008D01*
X331447Y101147D01*
X331447Y85043D01*
X325349Y85043D01*
G37*
%LPD*%
%LPC*%
G36*
X258849Y85043D02*
X258849Y85043D01*
X258849Y94431D01*
X259142Y95903D01*
X259717Y97290D01*
X260551Y98538D01*
X261612Y99599D01*
X262860Y100433D01*
X264247Y101008D01*
X264947Y101147D01*
X264947Y85043D01*
X258849Y85043D01*
G37*
%LPD*%
%LPC*%
G36*
X319634Y189183D02*
X319634Y189183D01*
X319634Y198571D01*
X319927Y200043D01*
X320502Y201430D01*
X321336Y202678D01*
X322397Y203739D01*
X323645Y204573D01*
X325032Y205148D01*
X325732Y205287D01*
X325732Y189183D01*
X319634Y189183D01*
G37*
%LPD*%
%LPC*%
G36*
X253134Y189183D02*
X253134Y189183D01*
X253134Y198571D01*
X253427Y200043D01*
X254002Y201430D01*
X254836Y202678D01*
X255897Y203739D01*
X257145Y204573D01*
X258532Y205148D01*
X259232Y205287D01*
X259232Y189183D01*
X253134Y189183D01*
G37*
%LPD*%
%LPC*%
G36*
X523327Y182837D02*
X523327Y182837D01*
X521940Y183412D01*
X520692Y184246D01*
X519631Y185307D01*
X518797Y186555D01*
X518222Y187942D01*
X517929Y189414D01*
X517929Y198802D01*
X524027Y198802D01*
X524027Y182698D01*
X523327Y182837D01*
G37*
%LPD*%
%LPC*%
G36*
X396327Y246337D02*
X396327Y246337D01*
X394940Y246912D01*
X393692Y247746D01*
X392631Y248807D01*
X391797Y250055D01*
X391222Y251442D01*
X390929Y252914D01*
X390929Y262302D01*
X397027Y262302D01*
X397027Y246198D01*
X396327Y246337D01*
G37*
%LPD*%
%LPC*%
G36*
X462827Y246337D02*
X462827Y246337D01*
X461440Y246912D01*
X460192Y247746D01*
X459131Y248807D01*
X458297Y250055D01*
X457722Y251442D01*
X457429Y252914D01*
X457429Y262302D01*
X463527Y262302D01*
X463527Y246198D01*
X462827Y246337D01*
G37*
%LPD*%
%LPC*%
G36*
X396327Y119337D02*
X396327Y119337D01*
X394940Y119912D01*
X393692Y120746D01*
X392631Y121807D01*
X391797Y123055D01*
X391222Y124442D01*
X390929Y125914D01*
X390929Y135302D01*
X397027Y135302D01*
X397027Y119198D01*
X396327Y119337D01*
G37*
%LPD*%
%LPC*%
G36*
X523327Y246337D02*
X523327Y246337D01*
X521940Y246912D01*
X520692Y247746D01*
X519631Y248807D01*
X518797Y250055D01*
X518222Y251442D01*
X517929Y252914D01*
X517929Y262302D01*
X524027Y262302D01*
X524027Y246198D01*
X523327Y246337D01*
G37*
%LPD*%
%LPC*%
G36*
X589827Y119337D02*
X589827Y119337D01*
X588440Y119912D01*
X587192Y120746D01*
X586131Y121807D01*
X585297Y123055D01*
X584722Y124442D01*
X584429Y125914D01*
X584429Y135302D01*
X590527Y135302D01*
X590527Y119198D01*
X589827Y119337D01*
G37*
%LPD*%
%LPC*%
G36*
X589827Y182837D02*
X589827Y182837D01*
X588440Y183412D01*
X587192Y184246D01*
X586131Y185307D01*
X585297Y186555D01*
X584722Y187942D01*
X584429Y189414D01*
X584429Y198802D01*
X590527Y198802D01*
X590527Y182698D01*
X589827Y182837D01*
G37*
%LPD*%
%LPC*%
G36*
X462827Y182837D02*
X462827Y182837D01*
X461440Y183412D01*
X460192Y184246D01*
X459131Y185307D01*
X458297Y186555D01*
X457722Y187942D01*
X457429Y189414D01*
X457429Y198802D01*
X463527Y198802D01*
X463527Y182698D01*
X462827Y182837D01*
G37*
%LPD*%
%LPC*%
G36*
X523327Y119337D02*
X523327Y119337D01*
X521940Y119912D01*
X520692Y120746D01*
X519631Y121807D01*
X518797Y123055D01*
X518222Y124442D01*
X517929Y125914D01*
X517929Y135302D01*
X524027Y135302D01*
X524027Y119198D01*
X523327Y119337D01*
G37*
%LPD*%
%LPC*%
G36*
X462827Y119337D02*
X462827Y119337D01*
X461440Y119912D01*
X460192Y120746D01*
X459131Y121807D01*
X458297Y123055D01*
X457722Y124442D01*
X457429Y125914D01*
X457429Y135302D01*
X463527Y135302D01*
X463527Y119198D01*
X462827Y119337D01*
G37*
%LPD*%
%LPC*%
G36*
X589827Y246337D02*
X589827Y246337D01*
X588440Y246912D01*
X587192Y247746D01*
X586131Y248807D01*
X585297Y250055D01*
X584722Y251442D01*
X584429Y252914D01*
X584429Y262302D01*
X590527Y262302D01*
X590527Y246198D01*
X589827Y246337D01*
G37*
%LPD*%
%LPC*%
G36*
X26923Y14223D02*
X26923Y14223D01*
X26923Y24546D01*
X28196Y24345D01*
X29983Y23764D01*
X31657Y22911D01*
X33178Y21806D01*
X34506Y20478D01*
X35611Y18957D01*
X36464Y17283D01*
X37045Y15496D01*
X37246Y14223D01*
X26923Y14223D01*
G37*
%LPD*%
%LPC*%
G36*
X52323Y14223D02*
X52323Y14223D01*
X52323Y24546D01*
X53596Y24345D01*
X55383Y23764D01*
X57057Y22911D01*
X58578Y21806D01*
X59906Y20478D01*
X61011Y18957D01*
X61864Y17283D01*
X62445Y15496D01*
X62646Y14223D01*
X52323Y14223D01*
G37*
%LPD*%
%LPC*%
G36*
X585723Y39623D02*
X585723Y39623D01*
X585723Y49946D01*
X586996Y49745D01*
X588783Y49164D01*
X590457Y48311D01*
X591978Y47206D01*
X593306Y45878D01*
X594411Y44357D01*
X595264Y42683D01*
X595845Y40896D01*
X596046Y39623D01*
X585723Y39623D01*
G37*
%LPD*%
%LPC*%
G36*
X77723Y14223D02*
X77723Y14223D01*
X77723Y24546D01*
X78996Y24345D01*
X80783Y23764D01*
X82457Y22911D01*
X83978Y21806D01*
X85306Y20478D01*
X86411Y18957D01*
X87264Y17283D01*
X87845Y15496D01*
X88046Y14223D01*
X77723Y14223D01*
G37*
%LPD*%
%LPC*%
G36*
X585723Y36577D02*
X585723Y36577D01*
X596046Y36577D01*
X595845Y35304D01*
X595264Y33517D01*
X594411Y31843D01*
X593306Y30322D01*
X591978Y28994D01*
X590457Y27889D01*
X588783Y27036D01*
X586996Y26455D01*
X585723Y26254D01*
X585723Y36577D01*
G37*
%LPD*%
%LPC*%
G36*
X572354Y39623D02*
X572354Y39623D01*
X572555Y40896D01*
X573136Y42683D01*
X573989Y44357D01*
X575094Y45878D01*
X576422Y47206D01*
X577943Y48311D01*
X579617Y49164D01*
X581404Y49745D01*
X582677Y49946D01*
X582677Y39623D01*
X572354Y39623D01*
G37*
%LPD*%
%LPC*%
G36*
X38954Y14223D02*
X38954Y14223D01*
X39155Y15496D01*
X39736Y17283D01*
X40589Y18957D01*
X41694Y20478D01*
X43022Y21806D01*
X44543Y22911D01*
X46217Y23764D01*
X48004Y24345D01*
X49277Y24546D01*
X49277Y14223D01*
X38954Y14223D01*
G37*
%LPD*%
%LPC*%
G36*
X64354Y14223D02*
X64354Y14223D01*
X64555Y15496D01*
X65136Y17283D01*
X65989Y18957D01*
X67094Y20478D01*
X68422Y21806D01*
X69943Y22911D01*
X71617Y23764D01*
X73404Y24345D01*
X74677Y24546D01*
X74677Y14223D01*
X64354Y14223D01*
G37*
%LPD*%
%LPC*%
G36*
X13554Y14223D02*
X13554Y14223D01*
X13755Y15496D01*
X14336Y17283D01*
X15189Y18957D01*
X16294Y20478D01*
X17622Y21806D01*
X19143Y22911D01*
X20817Y23764D01*
X22604Y24345D01*
X23877Y24546D01*
X23877Y14223D01*
X13554Y14223D01*
G37*
%LPD*%
%LPC*%
G36*
X581404Y26455D02*
X581404Y26455D01*
X579617Y27036D01*
X577943Y27889D01*
X576422Y28994D01*
X575094Y30322D01*
X573989Y31843D01*
X573136Y33517D01*
X572555Y35304D01*
X572354Y36577D01*
X582677Y36577D01*
X582677Y26254D01*
X581404Y26455D01*
G37*
%LPD*%
G36*
X406181Y198817D02*
X406181Y198817D01*
X406272Y198824D01*
X406301Y198836D01*
X406333Y198842D01*
X406414Y198884D01*
X406498Y198920D01*
X406530Y198946D01*
X406551Y198957D01*
X406573Y198980D01*
X406629Y199025D01*
X413532Y205928D01*
X413585Y206002D01*
X413645Y206071D01*
X413657Y206102D01*
X413676Y206128D01*
X413703Y206215D01*
X413737Y206300D01*
X413741Y206341D01*
X413748Y206363D01*
X413747Y206395D01*
X413755Y206466D01*
X413755Y208615D01*
X413902Y208761D01*
X413957Y208838D01*
X414017Y208910D01*
X414028Y208937D01*
X414045Y208961D01*
X414073Y209051D01*
X414108Y209139D01*
X414109Y209168D01*
X414118Y209196D01*
X414115Y209290D01*
X414120Y209384D01*
X414112Y209413D01*
X414111Y209442D01*
X414079Y209530D01*
X414053Y209621D01*
X414037Y209645D01*
X414027Y209673D01*
X413968Y209746D01*
X413915Y209824D01*
X413887Y209848D01*
X413873Y209865D01*
X413846Y209882D01*
X413786Y209932D01*
X412662Y210683D01*
X411758Y211587D01*
X411735Y211622D01*
X411719Y211639D01*
X411708Y211660D01*
X411636Y211729D01*
X411567Y211802D01*
X411547Y211813D01*
X411530Y211829D01*
X411439Y211871D01*
X411351Y211919D01*
X411328Y211923D01*
X411307Y211933D01*
X411207Y211944D01*
X411108Y211961D01*
X411085Y211957D01*
X411063Y211960D01*
X410965Y211938D01*
X410865Y211923D01*
X410845Y211912D01*
X410822Y211907D01*
X410736Y211856D01*
X410647Y211810D01*
X410631Y211793D01*
X410611Y211781D01*
X410546Y211705D01*
X410476Y211633D01*
X410466Y211612D01*
X410451Y211594D01*
X410414Y211501D01*
X410371Y211411D01*
X410368Y211388D01*
X410359Y211366D01*
X410341Y211199D01*
X410341Y209424D01*
X409345Y207020D01*
X407505Y205180D01*
X405889Y204511D01*
X405872Y204500D01*
X405853Y204495D01*
X405768Y204436D01*
X405680Y204381D01*
X405667Y204366D01*
X405651Y204354D01*
X405589Y204271D01*
X405523Y204192D01*
X405516Y204173D01*
X405504Y204157D01*
X405472Y204058D01*
X405435Y203962D01*
X405434Y203942D01*
X405428Y203923D01*
X405429Y203819D01*
X405424Y203716D01*
X405430Y203697D01*
X405430Y203677D01*
X405477Y203516D01*
X405878Y202548D01*
X406017Y201848D01*
X399312Y201848D01*
X399292Y201845D01*
X399273Y201847D01*
X399171Y201825D01*
X399069Y201808D01*
X399052Y201799D01*
X399032Y201795D01*
X398943Y201742D01*
X398852Y201693D01*
X398838Y201679D01*
X398821Y201669D01*
X398754Y201590D01*
X398683Y201515D01*
X398674Y201497D01*
X398661Y201482D01*
X398623Y201386D01*
X398579Y201292D01*
X398577Y201272D01*
X398569Y201254D01*
X398551Y201087D01*
X398551Y199563D01*
X398554Y199543D01*
X398552Y199524D01*
X398574Y199422D01*
X398591Y199320D01*
X398600Y199303D01*
X398604Y199283D01*
X398657Y199194D01*
X398706Y199103D01*
X398720Y199089D01*
X398730Y199072D01*
X398809Y199005D01*
X398884Y198934D01*
X398902Y198925D01*
X398917Y198912D01*
X399013Y198873D01*
X399107Y198830D01*
X399127Y198828D01*
X399145Y198820D01*
X399312Y198802D01*
X406091Y198802D01*
X406181Y198817D01*
G37*
%LPC*%
G36*
X545174Y280599D02*
X545174Y280599D01*
X545174Y285570D01*
X545693Y285466D01*
X546874Y284977D01*
X547938Y284267D01*
X548842Y283363D01*
X549552Y282299D01*
X550041Y281118D01*
X550145Y280599D01*
X545174Y280599D01*
G37*
%LPD*%
%LPC*%
G36*
X311014Y262134D02*
X311014Y262134D01*
X311014Y267105D01*
X311533Y267001D01*
X312714Y266512D01*
X313778Y265802D01*
X314682Y264898D01*
X315392Y263834D01*
X315881Y262653D01*
X315985Y262134D01*
X311014Y262134D01*
G37*
%LPD*%
%LPC*%
G36*
X448174Y255599D02*
X448174Y255599D01*
X448174Y260570D01*
X448693Y260466D01*
X449874Y259977D01*
X450938Y259267D01*
X451842Y258363D01*
X452552Y257299D01*
X453041Y256118D01*
X453145Y255599D01*
X448174Y255599D01*
G37*
%LPD*%
%LPC*%
G36*
X575174Y255599D02*
X575174Y255599D01*
X575174Y260570D01*
X575693Y260466D01*
X576874Y259977D01*
X577938Y259267D01*
X578842Y258363D01*
X579552Y257299D01*
X580041Y256118D01*
X580145Y255599D01*
X575174Y255599D01*
G37*
%LPD*%
%LPC*%
G36*
X575174Y217099D02*
X575174Y217099D01*
X575174Y222070D01*
X575693Y221966D01*
X576874Y221477D01*
X577938Y220767D01*
X578842Y219863D01*
X579552Y218799D01*
X580041Y217618D01*
X580145Y217099D01*
X575174Y217099D01*
G37*
%LPD*%
%LPC*%
G36*
X418174Y217099D02*
X418174Y217099D01*
X418174Y222070D01*
X418693Y221966D01*
X419874Y221477D01*
X420938Y220767D01*
X421842Y219863D01*
X422552Y218799D01*
X423041Y217618D01*
X423145Y217099D01*
X418174Y217099D01*
G37*
%LPD*%
%LPC*%
G36*
X448174Y217099D02*
X448174Y217099D01*
X448174Y222070D01*
X448693Y221966D01*
X449874Y221477D01*
X450938Y220767D01*
X451842Y219863D01*
X452552Y218799D01*
X453041Y217618D01*
X453145Y217099D01*
X448174Y217099D01*
G37*
%LPD*%
%LPC*%
G36*
X545174Y217099D02*
X545174Y217099D01*
X545174Y222070D01*
X545693Y221966D01*
X546874Y221477D01*
X547938Y220767D01*
X548842Y219863D01*
X549552Y218799D01*
X550041Y217618D01*
X550145Y217099D01*
X545174Y217099D01*
G37*
%LPD*%
%LPC*%
G36*
X280379Y198634D02*
X280379Y198634D01*
X280379Y203605D01*
X280898Y203501D01*
X282079Y203012D01*
X283143Y202302D01*
X284047Y201398D01*
X284757Y200334D01*
X285246Y199153D01*
X285350Y198634D01*
X280379Y198634D01*
G37*
%LPD*%
%LPC*%
G36*
X310379Y198634D02*
X310379Y198634D01*
X310379Y203605D01*
X310898Y203501D01*
X312079Y203012D01*
X313143Y202302D01*
X314047Y201398D01*
X314757Y200334D01*
X315246Y199153D01*
X315350Y198634D01*
X310379Y198634D01*
G37*
%LPD*%
%LPC*%
G36*
X575174Y192099D02*
X575174Y192099D01*
X575174Y197070D01*
X575693Y196966D01*
X576874Y196477D01*
X577938Y195767D01*
X578842Y194863D01*
X579552Y193799D01*
X580041Y192618D01*
X580145Y192099D01*
X575174Y192099D01*
G37*
%LPD*%
%LPC*%
G36*
X448174Y192099D02*
X448174Y192099D01*
X448174Y197070D01*
X448693Y196966D01*
X449874Y196477D01*
X450938Y195767D01*
X451842Y194863D01*
X452552Y193799D01*
X453041Y192618D01*
X453145Y192099D01*
X448174Y192099D01*
G37*
%LPD*%
%LPC*%
G36*
X281014Y262134D02*
X281014Y262134D01*
X281014Y267105D01*
X281533Y267001D01*
X282714Y266512D01*
X283778Y265802D01*
X284682Y264898D01*
X285392Y263834D01*
X285881Y262653D01*
X285985Y262134D01*
X281014Y262134D01*
G37*
%LPD*%
%LPC*%
G36*
X418174Y153599D02*
X418174Y153599D01*
X418174Y158570D01*
X418693Y158466D01*
X419874Y157977D01*
X420938Y157267D01*
X421842Y156363D01*
X422552Y155299D01*
X423041Y154118D01*
X423145Y153599D01*
X418174Y153599D01*
G37*
%LPD*%
%LPC*%
G36*
X448174Y153599D02*
X448174Y153599D01*
X448174Y158570D01*
X448693Y158466D01*
X449874Y157977D01*
X450938Y157267D01*
X451842Y156363D01*
X452552Y155299D01*
X453041Y154118D01*
X453145Y153599D01*
X448174Y153599D01*
G37*
%LPD*%
%LPC*%
G36*
X545174Y153599D02*
X545174Y153599D01*
X545174Y158570D01*
X545693Y158466D01*
X546874Y157977D01*
X547938Y157267D01*
X548842Y156363D01*
X549552Y155299D01*
X550041Y154118D01*
X550145Y153599D01*
X545174Y153599D01*
G37*
%LPD*%
%LPC*%
G36*
X575174Y153599D02*
X575174Y153599D01*
X575174Y158570D01*
X575693Y158466D01*
X576874Y157977D01*
X577938Y157267D01*
X578842Y156363D01*
X579552Y155299D01*
X580041Y154118D01*
X580145Y153599D01*
X575174Y153599D01*
G37*
%LPD*%
%LPC*%
G36*
X448174Y128599D02*
X448174Y128599D01*
X448174Y133570D01*
X448693Y133466D01*
X449874Y132977D01*
X450938Y132267D01*
X451842Y131363D01*
X452552Y130299D01*
X453041Y129118D01*
X453145Y128599D01*
X448174Y128599D01*
G37*
%LPD*%
%LPC*%
G36*
X575174Y128599D02*
X575174Y128599D01*
X575174Y133570D01*
X575693Y133466D01*
X576874Y132977D01*
X577938Y132267D01*
X578842Y131363D01*
X579552Y130299D01*
X580041Y129118D01*
X580145Y128599D01*
X575174Y128599D01*
G37*
%LPD*%
%LPC*%
G36*
X286094Y94494D02*
X286094Y94494D01*
X286094Y99465D01*
X286613Y99361D01*
X287794Y98872D01*
X288858Y98162D01*
X289762Y97258D01*
X290472Y96194D01*
X290961Y95013D01*
X291065Y94494D01*
X286094Y94494D01*
G37*
%LPD*%
%LPC*%
G36*
X316094Y94494D02*
X316094Y94494D01*
X316094Y99465D01*
X316613Y99361D01*
X317794Y98872D01*
X318858Y98162D01*
X319762Y97258D01*
X320472Y96194D01*
X320961Y95013D01*
X321065Y94494D01*
X316094Y94494D01*
G37*
%LPD*%
%LPC*%
G36*
X448174Y280599D02*
X448174Y280599D01*
X448174Y285570D01*
X448693Y285466D01*
X449874Y284977D01*
X450938Y284267D01*
X451842Y283363D01*
X452552Y282299D01*
X453041Y281118D01*
X453145Y280599D01*
X448174Y280599D01*
G37*
%LPD*%
%LPC*%
G36*
X418174Y280599D02*
X418174Y280599D01*
X418174Y285570D01*
X418693Y285466D01*
X419874Y284977D01*
X420938Y284267D01*
X421842Y283363D01*
X422552Y282299D01*
X423041Y281118D01*
X423145Y280599D01*
X418174Y280599D01*
G37*
%LPD*%
%LPC*%
G36*
X575174Y280599D02*
X575174Y280599D01*
X575174Y285570D01*
X575693Y285466D01*
X576874Y284977D01*
X577938Y284267D01*
X578842Y283363D01*
X579552Y282299D01*
X580041Y281118D01*
X580145Y280599D01*
X575174Y280599D01*
G37*
%LPD*%
%LPC*%
G36*
X280379Y170886D02*
X280379Y170886D01*
X285350Y170886D01*
X285246Y170367D01*
X284757Y169186D01*
X284047Y168122D01*
X283143Y167218D01*
X282079Y166508D01*
X280898Y166019D01*
X280379Y165915D01*
X280379Y170886D01*
G37*
%LPD*%
%LPC*%
G36*
X448174Y125851D02*
X448174Y125851D01*
X453145Y125851D01*
X453041Y125332D01*
X452552Y124151D01*
X451842Y123087D01*
X450938Y122183D01*
X449874Y121473D01*
X448693Y120984D01*
X448174Y120880D01*
X448174Y125851D01*
G37*
%LPD*%
%LPC*%
G36*
X418174Y189351D02*
X418174Y189351D01*
X423145Y189351D01*
X423041Y188832D01*
X422552Y187651D01*
X421842Y186587D01*
X420938Y185683D01*
X419874Y184973D01*
X418693Y184484D01*
X418174Y184380D01*
X418174Y189351D01*
G37*
%LPD*%
%LPC*%
G36*
X545174Y189351D02*
X545174Y189351D01*
X550145Y189351D01*
X550041Y188832D01*
X549552Y187651D01*
X548842Y186587D01*
X547938Y185683D01*
X546874Y184973D01*
X545693Y184484D01*
X545174Y184380D01*
X545174Y189351D01*
G37*
%LPD*%
%LPC*%
G36*
X575174Y125851D02*
X575174Y125851D01*
X580145Y125851D01*
X580041Y125332D01*
X579552Y124151D01*
X578842Y123087D01*
X577938Y122183D01*
X576874Y121473D01*
X575693Y120984D01*
X575174Y120880D01*
X575174Y125851D01*
G37*
%LPD*%
%LPC*%
G36*
X448174Y189351D02*
X448174Y189351D01*
X453145Y189351D01*
X453041Y188832D01*
X452552Y187651D01*
X451842Y186587D01*
X450938Y185683D01*
X449874Y184973D01*
X448693Y184484D01*
X448174Y184380D01*
X448174Y189351D01*
G37*
%LPD*%
%LPC*%
G36*
X410455Y153599D02*
X410455Y153599D01*
X410559Y154118D01*
X411048Y155299D01*
X411758Y156363D01*
X412662Y157267D01*
X413726Y157977D01*
X414907Y158466D01*
X415426Y158570D01*
X415426Y153599D01*
X410455Y153599D01*
G37*
%LPD*%
%LPC*%
G36*
X440455Y153599D02*
X440455Y153599D01*
X440559Y154118D01*
X441048Y155299D01*
X441758Y156363D01*
X442662Y157267D01*
X443726Y157977D01*
X444907Y158466D01*
X445426Y158570D01*
X445426Y153599D01*
X440455Y153599D01*
G37*
%LPD*%
%LPC*%
G36*
X567455Y153599D02*
X567455Y153599D01*
X567559Y154118D01*
X568048Y155299D01*
X568758Y156363D01*
X569662Y157267D01*
X570726Y157977D01*
X571907Y158466D01*
X572426Y158570D01*
X572426Y153599D01*
X567455Y153599D01*
G37*
%LPD*%
%LPC*%
G36*
X537455Y217099D02*
X537455Y217099D01*
X537559Y217618D01*
X538048Y218799D01*
X538758Y219863D01*
X539662Y220767D01*
X540726Y221477D01*
X541907Y221966D01*
X542426Y222070D01*
X542426Y217099D01*
X537455Y217099D01*
G37*
%LPD*%
%LPC*%
G36*
X448174Y252851D02*
X448174Y252851D01*
X453145Y252851D01*
X453041Y252332D01*
X452552Y251151D01*
X451842Y250087D01*
X450938Y249183D01*
X449874Y248473D01*
X448693Y247984D01*
X448174Y247880D01*
X448174Y252851D01*
G37*
%LPD*%
%LPC*%
G36*
X537455Y192099D02*
X537455Y192099D01*
X537559Y192618D01*
X538048Y193799D01*
X538758Y194863D01*
X539662Y195767D01*
X540726Y196477D01*
X541907Y196966D01*
X542426Y197070D01*
X542426Y192099D01*
X537455Y192099D01*
G37*
%LPD*%
%LPC*%
G36*
X272660Y198634D02*
X272660Y198634D01*
X272764Y199153D01*
X273253Y200334D01*
X273963Y201398D01*
X274867Y202302D01*
X275931Y203012D01*
X277112Y203501D01*
X277631Y203605D01*
X277631Y198634D01*
X272660Y198634D01*
G37*
%LPD*%
%LPC*%
G36*
X302660Y198634D02*
X302660Y198634D01*
X302764Y199153D01*
X303253Y200334D01*
X303963Y201398D01*
X304867Y202302D01*
X305931Y203012D01*
X307112Y203501D01*
X307631Y203605D01*
X307631Y198634D01*
X302660Y198634D01*
G37*
%LPD*%
%LPC*%
G36*
X310379Y195886D02*
X310379Y195886D01*
X315350Y195886D01*
X315246Y195367D01*
X314757Y194186D01*
X314047Y193122D01*
X313143Y192218D01*
X312079Y191508D01*
X310898Y191019D01*
X310379Y190915D01*
X310379Y195886D01*
G37*
%LPD*%
%LPC*%
G36*
X308375Y94494D02*
X308375Y94494D01*
X308479Y95013D01*
X308968Y96194D01*
X309678Y97258D01*
X310582Y98162D01*
X311646Y98872D01*
X312827Y99361D01*
X313346Y99465D01*
X313346Y94494D01*
X308375Y94494D01*
G37*
%LPD*%
%LPC*%
G36*
X575174Y189351D02*
X575174Y189351D01*
X580145Y189351D01*
X580041Y188832D01*
X579552Y187651D01*
X578842Y186587D01*
X577938Y185683D01*
X576874Y184973D01*
X575693Y184484D01*
X575174Y184380D01*
X575174Y189351D01*
G37*
%LPD*%
%LPC*%
G36*
X567455Y217099D02*
X567455Y217099D01*
X567559Y217618D01*
X568048Y218799D01*
X568758Y219863D01*
X569662Y220767D01*
X570726Y221477D01*
X571907Y221966D01*
X572426Y222070D01*
X572426Y217099D01*
X567455Y217099D01*
G37*
%LPD*%
%LPC*%
G36*
X278375Y94494D02*
X278375Y94494D01*
X278479Y95013D01*
X278968Y96194D01*
X279678Y97258D01*
X280582Y98162D01*
X281646Y98872D01*
X282827Y99361D01*
X283346Y99465D01*
X283346Y94494D01*
X278375Y94494D01*
G37*
%LPD*%
%LPC*%
G36*
X410455Y217099D02*
X410455Y217099D01*
X410559Y217618D01*
X411048Y218799D01*
X411758Y219863D01*
X412662Y220767D01*
X413726Y221477D01*
X414907Y221966D01*
X415426Y222070D01*
X415426Y217099D01*
X410455Y217099D01*
G37*
%LPD*%
%LPC*%
G36*
X440455Y217099D02*
X440455Y217099D01*
X440559Y217618D01*
X441048Y218799D01*
X441758Y219863D01*
X442662Y220767D01*
X443726Y221477D01*
X444907Y221966D01*
X445426Y222070D01*
X445426Y217099D01*
X440455Y217099D01*
G37*
%LPD*%
%LPC*%
G36*
X311014Y234386D02*
X311014Y234386D01*
X315985Y234386D01*
X315881Y233867D01*
X315392Y232686D01*
X314682Y231622D01*
X313778Y230718D01*
X312714Y230008D01*
X311533Y229519D01*
X311014Y229415D01*
X311014Y234386D01*
G37*
%LPD*%
%LPC*%
G36*
X281014Y234386D02*
X281014Y234386D01*
X285985Y234386D01*
X285881Y233867D01*
X285392Y232686D01*
X284682Y231622D01*
X283778Y230718D01*
X282714Y230008D01*
X281533Y229519D01*
X281014Y229415D01*
X281014Y234386D01*
G37*
%LPD*%
%LPC*%
G36*
X545174Y125851D02*
X545174Y125851D01*
X550145Y125851D01*
X550041Y125332D01*
X549552Y124151D01*
X548842Y123087D01*
X547938Y122183D01*
X546874Y121473D01*
X545693Y120984D01*
X545174Y120880D01*
X545174Y125851D01*
G37*
%LPD*%
%LPC*%
G36*
X410455Y128599D02*
X410455Y128599D01*
X410559Y129118D01*
X411048Y130299D01*
X411758Y131363D01*
X412662Y132267D01*
X413726Y132977D01*
X414907Y133466D01*
X415426Y133570D01*
X415426Y128599D01*
X410455Y128599D01*
G37*
%LPD*%
%LPC*%
G36*
X537455Y128599D02*
X537455Y128599D01*
X537559Y129118D01*
X538048Y130299D01*
X538758Y131363D01*
X539662Y132267D01*
X540726Y132977D01*
X541907Y133466D01*
X542426Y133570D01*
X542426Y128599D01*
X537455Y128599D01*
G37*
%LPD*%
%LPC*%
G36*
X418174Y125851D02*
X418174Y125851D01*
X423145Y125851D01*
X423041Y125332D01*
X422552Y124151D01*
X421842Y123087D01*
X420938Y122183D01*
X419874Y121473D01*
X418693Y120984D01*
X418174Y120880D01*
X418174Y125851D01*
G37*
%LPD*%
%LPC*%
G36*
X316094Y91746D02*
X316094Y91746D01*
X321065Y91746D01*
X320961Y91227D01*
X320472Y90046D01*
X319762Y88982D01*
X318858Y88078D01*
X317794Y87368D01*
X316613Y86879D01*
X316094Y86775D01*
X316094Y91746D01*
G37*
%LPD*%
%LPC*%
G36*
X418174Y252851D02*
X418174Y252851D01*
X423145Y252851D01*
X423041Y252332D01*
X422552Y251151D01*
X421842Y250087D01*
X420938Y249183D01*
X419874Y248473D01*
X418693Y247984D01*
X418174Y247880D01*
X418174Y252851D01*
G37*
%LPD*%
%LPC*%
G36*
X545174Y252851D02*
X545174Y252851D01*
X550145Y252851D01*
X550041Y252332D01*
X549552Y251151D01*
X548842Y250087D01*
X547938Y249183D01*
X546874Y248473D01*
X545693Y247984D01*
X545174Y247880D01*
X545174Y252851D01*
G37*
%LPD*%
%LPC*%
G36*
X575174Y252851D02*
X575174Y252851D01*
X580145Y252851D01*
X580041Y252332D01*
X579552Y251151D01*
X578842Y250087D01*
X577938Y249183D01*
X576874Y248473D01*
X575693Y247984D01*
X575174Y247880D01*
X575174Y252851D01*
G37*
%LPD*%
%LPC*%
G36*
X537455Y153599D02*
X537455Y153599D01*
X537559Y154118D01*
X538048Y155299D01*
X538758Y156363D01*
X539662Y157267D01*
X540726Y157977D01*
X541907Y158466D01*
X542426Y158570D01*
X542426Y153599D01*
X537455Y153599D01*
G37*
%LPD*%
%LPC*%
G36*
X316094Y66746D02*
X316094Y66746D01*
X321065Y66746D01*
X320961Y66227D01*
X320472Y65046D01*
X319762Y63982D01*
X318858Y63078D01*
X317794Y62368D01*
X316613Y61879D01*
X316094Y61775D01*
X316094Y66746D01*
G37*
%LPD*%
%LPC*%
G36*
X286094Y66746D02*
X286094Y66746D01*
X291065Y66746D01*
X290961Y66227D01*
X290472Y65046D01*
X289762Y63982D01*
X288858Y63078D01*
X287794Y62368D01*
X286613Y61879D01*
X286094Y61775D01*
X286094Y66746D01*
G37*
%LPD*%
%LPC*%
G36*
X311014Y259386D02*
X311014Y259386D01*
X315985Y259386D01*
X315881Y258867D01*
X315392Y257686D01*
X314682Y256622D01*
X313778Y255718D01*
X312714Y255008D01*
X311533Y254519D01*
X311014Y254415D01*
X311014Y259386D01*
G37*
%LPD*%
%LPC*%
G36*
X410455Y255599D02*
X410455Y255599D01*
X410559Y256118D01*
X411048Y257299D01*
X411758Y258363D01*
X412662Y259267D01*
X413726Y259977D01*
X414907Y260466D01*
X415426Y260570D01*
X415426Y255599D01*
X410455Y255599D01*
G37*
%LPD*%
%LPC*%
G36*
X537455Y255599D02*
X537455Y255599D01*
X537559Y256118D01*
X538048Y257299D01*
X538758Y258363D01*
X539662Y259267D01*
X540726Y259977D01*
X541907Y260466D01*
X542426Y260570D01*
X542426Y255599D01*
X537455Y255599D01*
G37*
%LPD*%
%LPC*%
G36*
X273295Y262134D02*
X273295Y262134D01*
X273399Y262653D01*
X273888Y263834D01*
X274598Y264898D01*
X275502Y265802D01*
X276566Y266512D01*
X277747Y267001D01*
X278266Y267105D01*
X278266Y262134D01*
X273295Y262134D01*
G37*
%LPD*%
%LPC*%
G36*
X303295Y262134D02*
X303295Y262134D01*
X303399Y262653D01*
X303888Y263834D01*
X304598Y264898D01*
X305502Y265802D01*
X306566Y266512D01*
X307747Y267001D01*
X308266Y267105D01*
X308266Y262134D01*
X303295Y262134D01*
G37*
%LPD*%
%LPC*%
G36*
X537455Y280599D02*
X537455Y280599D01*
X537559Y281118D01*
X538048Y282299D01*
X538758Y283363D01*
X539662Y284267D01*
X540726Y284977D01*
X541907Y285466D01*
X542426Y285570D01*
X542426Y280599D01*
X537455Y280599D01*
G37*
%LPD*%
%LPC*%
G36*
X440455Y280599D02*
X440455Y280599D01*
X440559Y281118D01*
X441048Y282299D01*
X441758Y283363D01*
X442662Y284267D01*
X443726Y284977D01*
X444907Y285466D01*
X445426Y285570D01*
X445426Y280599D01*
X440455Y280599D01*
G37*
%LPD*%
%LPC*%
G36*
X567455Y280599D02*
X567455Y280599D01*
X567559Y281118D01*
X568048Y282299D01*
X568758Y283363D01*
X569662Y284267D01*
X570726Y284977D01*
X571907Y285466D01*
X572426Y285570D01*
X572426Y280599D01*
X567455Y280599D01*
G37*
%LPD*%
%LPC*%
G36*
X410455Y280599D02*
X410455Y280599D01*
X410559Y281118D01*
X411048Y282299D01*
X411758Y283363D01*
X412662Y284267D01*
X413726Y284977D01*
X414907Y285466D01*
X415426Y285570D01*
X415426Y280599D01*
X410455Y280599D01*
G37*
%LPD*%
%LPC*%
G36*
X310379Y170886D02*
X310379Y170886D01*
X315350Y170886D01*
X315246Y170367D01*
X314757Y169186D01*
X314047Y168122D01*
X313143Y167218D01*
X312079Y166508D01*
X310898Y166019D01*
X310379Y165915D01*
X310379Y170886D01*
G37*
%LPD*%
%LPC*%
G36*
X277112Y191019D02*
X277112Y191019D01*
X275931Y191508D01*
X274867Y192218D01*
X273963Y193122D01*
X273253Y194186D01*
X272764Y195367D01*
X272660Y195886D01*
X277631Y195886D01*
X277631Y190915D01*
X277112Y191019D01*
G37*
%LPD*%
%LPC*%
G36*
X277747Y229519D02*
X277747Y229519D01*
X276566Y230008D01*
X275502Y230718D01*
X274598Y231622D01*
X273888Y232686D01*
X273399Y233867D01*
X273295Y234386D01*
X278266Y234386D01*
X278266Y229415D01*
X277747Y229519D01*
G37*
%LPD*%
%LPC*%
G36*
X277747Y254519D02*
X277747Y254519D01*
X276566Y255008D01*
X275502Y255718D01*
X274598Y256622D01*
X273888Y257686D01*
X273399Y258867D01*
X273295Y259386D01*
X278266Y259386D01*
X278266Y254415D01*
X277747Y254519D01*
G37*
%LPD*%
%LPC*%
G36*
X541907Y184484D02*
X541907Y184484D01*
X540726Y184973D01*
X539662Y185683D01*
X538758Y186587D01*
X538048Y187651D01*
X537559Y188832D01*
X537455Y189351D01*
X542426Y189351D01*
X542426Y184380D01*
X541907Y184484D01*
G37*
%LPD*%
%LPC*%
G36*
X571907Y184484D02*
X571907Y184484D01*
X570726Y184973D01*
X569662Y185683D01*
X568758Y186587D01*
X568048Y187651D01*
X567559Y188832D01*
X567455Y189351D01*
X572426Y189351D01*
X572426Y184380D01*
X571907Y184484D01*
G37*
%LPD*%
%LPC*%
G36*
X312827Y61879D02*
X312827Y61879D01*
X311646Y62368D01*
X310582Y63078D01*
X309678Y63982D01*
X308968Y65046D01*
X308479Y66227D01*
X308375Y66746D01*
X313346Y66746D01*
X313346Y61775D01*
X312827Y61879D01*
G37*
%LPD*%
%LPC*%
G36*
X571907Y120984D02*
X571907Y120984D01*
X570726Y121473D01*
X569662Y122183D01*
X568758Y123087D01*
X568048Y124151D01*
X567559Y125332D01*
X567455Y125851D01*
X572426Y125851D01*
X572426Y120880D01*
X571907Y120984D01*
G37*
%LPD*%
%LPC*%
G36*
X282827Y61879D02*
X282827Y61879D01*
X281646Y62368D01*
X280582Y63078D01*
X279678Y63982D01*
X278968Y65046D01*
X278479Y66227D01*
X278375Y66746D01*
X283346Y66746D01*
X283346Y61775D01*
X282827Y61879D01*
G37*
%LPD*%
%LPC*%
G36*
X307747Y229519D02*
X307747Y229519D01*
X306566Y230008D01*
X305502Y230718D01*
X304598Y231622D01*
X303888Y232686D01*
X303399Y233867D01*
X303295Y234386D01*
X308266Y234386D01*
X308266Y229415D01*
X307747Y229519D01*
G37*
%LPD*%
%LPC*%
G36*
X444907Y120984D02*
X444907Y120984D01*
X443726Y121473D01*
X442662Y122183D01*
X441758Y123087D01*
X441048Y124151D01*
X440559Y125332D01*
X440455Y125851D01*
X445426Y125851D01*
X445426Y120880D01*
X444907Y120984D01*
G37*
%LPD*%
%LPC*%
G36*
X414907Y120984D02*
X414907Y120984D01*
X413726Y121473D01*
X412662Y122183D01*
X411758Y123087D01*
X411048Y124151D01*
X410559Y125332D01*
X410455Y125851D01*
X415426Y125851D01*
X415426Y120880D01*
X414907Y120984D01*
G37*
%LPD*%
%LPC*%
G36*
X414907Y247984D02*
X414907Y247984D01*
X413726Y248473D01*
X412662Y249183D01*
X411758Y250087D01*
X411048Y251151D01*
X410559Y252332D01*
X410455Y252851D01*
X415426Y252851D01*
X415426Y247880D01*
X414907Y247984D01*
G37*
%LPD*%
%LPC*%
G36*
X541907Y247984D02*
X541907Y247984D01*
X540726Y248473D01*
X539662Y249183D01*
X538758Y250087D01*
X538048Y251151D01*
X537559Y252332D01*
X537455Y252851D01*
X542426Y252851D01*
X542426Y247880D01*
X541907Y247984D01*
G37*
%LPD*%
%LPC*%
G36*
X541907Y120984D02*
X541907Y120984D01*
X540726Y121473D01*
X539662Y122183D01*
X538758Y123087D01*
X538048Y124151D01*
X537559Y125332D01*
X537455Y125851D01*
X542426Y125851D01*
X542426Y120880D01*
X541907Y120984D01*
G37*
%LPD*%
%LPC*%
G36*
X277112Y166019D02*
X277112Y166019D01*
X275931Y166508D01*
X274867Y167218D01*
X273963Y168122D01*
X273253Y169186D01*
X272764Y170367D01*
X272660Y170886D01*
X277631Y170886D01*
X277631Y165915D01*
X277112Y166019D01*
G37*
%LPD*%
%LPC*%
G36*
X444907Y247984D02*
X444907Y247984D01*
X443726Y248473D01*
X442662Y249183D01*
X441758Y250087D01*
X441048Y251151D01*
X440559Y252332D01*
X440455Y252851D01*
X445426Y252851D01*
X445426Y247880D01*
X444907Y247984D01*
G37*
%LPD*%
%LPC*%
G36*
X282827Y86879D02*
X282827Y86879D01*
X281646Y87368D01*
X280582Y88078D01*
X279678Y88982D01*
X278968Y90046D01*
X278479Y91227D01*
X278375Y91746D01*
X283346Y91746D01*
X283346Y86775D01*
X282827Y86879D01*
G37*
%LPD*%
%LPC*%
G36*
X444907Y184484D02*
X444907Y184484D01*
X443726Y184973D01*
X442662Y185683D01*
X441758Y186587D01*
X441048Y187651D01*
X440559Y188832D01*
X440455Y189351D01*
X445426Y189351D01*
X445426Y184380D01*
X444907Y184484D01*
G37*
%LPD*%
%LPC*%
G36*
X571907Y247984D02*
X571907Y247984D01*
X570726Y248473D01*
X569662Y249183D01*
X568758Y250087D01*
X568048Y251151D01*
X567559Y252332D01*
X567455Y252851D01*
X572426Y252851D01*
X572426Y247880D01*
X571907Y247984D01*
G37*
%LPD*%
%LPC*%
G36*
X307112Y166019D02*
X307112Y166019D01*
X305931Y166508D01*
X304867Y167218D01*
X303963Y168122D01*
X303253Y169186D01*
X302764Y170367D01*
X302660Y170886D01*
X307631Y170886D01*
X307631Y165915D01*
X307112Y166019D01*
G37*
%LPD*%
%LPC*%
G36*
X445924Y205401D02*
X445924Y205401D01*
X450497Y205401D01*
X450384Y204831D01*
X449946Y203775D01*
X449310Y202823D01*
X448502Y202015D01*
X447550Y201379D01*
X446494Y200941D01*
X445924Y200828D01*
X445924Y205401D01*
G37*
%LPD*%
%LPC*%
G36*
X445924Y141901D02*
X445924Y141901D01*
X450497Y141901D01*
X450384Y141331D01*
X449946Y140275D01*
X449310Y139323D01*
X448502Y138515D01*
X447550Y137879D01*
X446494Y137441D01*
X445924Y137328D01*
X445924Y141901D01*
G37*
%LPD*%
%LPC*%
G36*
X281023Y78444D02*
X281023Y78444D01*
X281136Y79014D01*
X281574Y80070D01*
X282210Y81022D01*
X283018Y81830D01*
X283970Y82466D01*
X285026Y82904D01*
X285596Y83017D01*
X285596Y78444D01*
X281023Y78444D01*
G37*
%LPD*%
%LPC*%
G36*
X572924Y141901D02*
X572924Y141901D01*
X577497Y141901D01*
X577384Y141331D01*
X576946Y140275D01*
X576310Y139323D01*
X575502Y138515D01*
X574550Y137879D01*
X573494Y137441D01*
X572924Y137328D01*
X572924Y141901D01*
G37*
%LPD*%
%LPC*%
G36*
X275943Y246084D02*
X275943Y246084D01*
X276056Y246654D01*
X276494Y247710D01*
X277130Y248662D01*
X277938Y249470D01*
X278890Y250106D01*
X279946Y250544D01*
X280516Y250657D01*
X280516Y246084D01*
X275943Y246084D01*
G37*
%LPD*%
%LPC*%
G36*
X275308Y182584D02*
X275308Y182584D01*
X275421Y183154D01*
X275859Y184210D01*
X276495Y185162D01*
X277303Y185970D01*
X278255Y186606D01*
X279311Y187044D01*
X279881Y187157D01*
X279881Y182584D01*
X275308Y182584D01*
G37*
%LPD*%
%LPC*%
G36*
X572924Y205401D02*
X572924Y205401D01*
X577497Y205401D01*
X577384Y204831D01*
X576946Y203775D01*
X576310Y202823D01*
X575502Y202015D01*
X574550Y201379D01*
X573494Y200941D01*
X572924Y200828D01*
X572924Y205401D01*
G37*
%LPD*%
%LPC*%
G36*
X445924Y268901D02*
X445924Y268901D01*
X450497Y268901D01*
X450384Y268331D01*
X449946Y267275D01*
X449310Y266323D01*
X448502Y265515D01*
X447550Y264879D01*
X446494Y264441D01*
X445924Y264328D01*
X445924Y268901D01*
G37*
%LPD*%
%LPC*%
G36*
X572924Y268901D02*
X572924Y268901D01*
X577497Y268901D01*
X577384Y268331D01*
X576946Y267275D01*
X576310Y266323D01*
X575502Y265515D01*
X574550Y264879D01*
X573494Y264441D01*
X572924Y264328D01*
X572924Y268901D01*
G37*
%LPD*%
%LPC*%
G36*
X584199Y38099D02*
X584199Y38099D01*
X584199Y38101D01*
X584201Y38101D01*
X584201Y38099D01*
X584199Y38099D01*
G37*
%LPD*%
D10*
X418800Y143025D03*
X425300Y136525D03*
X431800Y143025D03*
X438300Y136525D03*
X444800Y143025D03*
D11*
X416800Y127225D03*
X446800Y127225D03*
X446800Y152225D03*
X416800Y152225D03*
D12*
X398550Y136825D02*
X398550Y126665D01*
X465050Y126665D02*
X465050Y136825D01*
D10*
X545800Y143025D03*
X552300Y136525D03*
X558800Y143025D03*
X565300Y136525D03*
X571800Y143025D03*
D11*
X543800Y127225D03*
X573800Y127225D03*
X573800Y152225D03*
X543800Y152225D03*
D12*
X525550Y136825D02*
X525550Y126665D01*
X592050Y126665D02*
X592050Y136825D01*
D10*
X418800Y206525D03*
X425300Y200025D03*
X431800Y206525D03*
X438300Y200025D03*
X444800Y206525D03*
D11*
X416800Y190725D03*
X446800Y190725D03*
X446800Y215725D03*
X416800Y215725D03*
D12*
X398550Y200325D02*
X398550Y190165D01*
X465050Y190165D02*
X465050Y200325D01*
D10*
X545800Y206525D03*
X552300Y200025D03*
X558800Y206525D03*
X565300Y200025D03*
X571800Y206525D03*
D11*
X543800Y190725D03*
X573800Y190725D03*
X573800Y215725D03*
X543800Y215725D03*
D12*
X525550Y200325D02*
X525550Y190165D01*
X592050Y190165D02*
X592050Y200325D01*
D10*
X418800Y270025D03*
X425300Y263525D03*
X431800Y270025D03*
X438300Y263525D03*
X444800Y270025D03*
D11*
X416800Y254225D03*
X446800Y254225D03*
X446800Y279225D03*
X416800Y279225D03*
D12*
X398550Y263825D02*
X398550Y253665D01*
X465050Y253665D02*
X465050Y263825D01*
D10*
X545800Y270025D03*
X552300Y263525D03*
X558800Y270025D03*
X565300Y263525D03*
X571800Y270025D03*
D11*
X543800Y254225D03*
X573800Y254225D03*
X573800Y279225D03*
X543800Y279225D03*
D12*
X525550Y263825D02*
X525550Y253665D01*
X592050Y253665D02*
X592050Y263825D01*
D13*
X584200Y12700D03*
X584200Y38100D03*
X609600Y12700D03*
X609600Y38100D03*
X635000Y12700D03*
X635000Y38100D03*
D10*
X307005Y181460D03*
X300505Y187960D03*
X294005Y181460D03*
X287505Y187960D03*
X281005Y181460D03*
D11*
X309005Y197260D03*
X279005Y197260D03*
X279005Y172260D03*
X309005Y172260D03*
D12*
X327255Y187660D02*
X327255Y197820D01*
X260755Y197820D02*
X260755Y187660D01*
D10*
X312720Y77320D03*
X306220Y83820D03*
X299720Y77320D03*
X293220Y83820D03*
X286720Y77320D03*
D11*
X314720Y93120D03*
X284720Y93120D03*
X284720Y68120D03*
X314720Y68120D03*
D12*
X332970Y83520D02*
X332970Y93680D01*
X266470Y93680D02*
X266470Y83520D01*
D10*
X307640Y244960D03*
X301140Y251460D03*
X294640Y244960D03*
X288140Y251460D03*
X281640Y244960D03*
D11*
X309640Y260760D03*
X279640Y260760D03*
X279640Y235760D03*
X309640Y235760D03*
D12*
X327890Y251160D02*
X327890Y261320D01*
X261390Y261320D02*
X261390Y251160D01*
D13*
X25400Y12700D03*
X25400Y38100D03*
X50800Y12700D03*
X50800Y38100D03*
X76200Y12700D03*
X76200Y38100D03*
D14*
X25400Y76200D03*
X57150Y76200D03*
X88900Y76200D03*
D15*
X345440Y132080D02*
X345440Y133165D01*
D16*
X345440Y132080D03*
D15*
X406932Y194657D02*
X418800Y206525D01*
X406932Y194657D02*
X406932Y186693D01*
X402022Y181783D01*
X394058Y181783D02*
X345440Y133165D01*
X394058Y181783D02*
X402022Y181783D01*
M02*
