G04 EAGLE Gerber RS-274X export*
G75*
%MOMM*%
%FSLAX34Y34*%
%LPD*%
%IN*%
%IPPOS*%
%AMOC8*
5,1,8,0,0,1.08239X$1,22.5*%
G01*
%ADD10C,0.152400*%
%ADD11C,0.000000*%
%ADD12C,0.254000*%


D10*
X0Y0D02*
X660400Y0D01*
X660400Y304800D01*
X0Y304800D01*
X0Y0D01*
D11*
X399800Y147225D02*
X399802Y147351D01*
X399808Y147477D01*
X399818Y147603D01*
X399832Y147729D01*
X399850Y147854D01*
X399872Y147978D01*
X399897Y148102D01*
X399927Y148225D01*
X399960Y148346D01*
X399998Y148467D01*
X400039Y148586D01*
X400084Y148705D01*
X400132Y148821D01*
X400184Y148936D01*
X400240Y149049D01*
X400300Y149161D01*
X400363Y149270D01*
X400429Y149378D01*
X400498Y149483D01*
X400571Y149586D01*
X400648Y149687D01*
X400727Y149785D01*
X400809Y149881D01*
X400895Y149974D01*
X400983Y150065D01*
X401074Y150152D01*
X401168Y150237D01*
X401264Y150318D01*
X401363Y150397D01*
X401464Y150472D01*
X401568Y150544D01*
X401674Y150613D01*
X401782Y150679D01*
X401892Y150741D01*
X402004Y150799D01*
X402117Y150854D01*
X402233Y150905D01*
X402350Y150953D01*
X402468Y150997D01*
X402588Y151037D01*
X402709Y151073D01*
X402831Y151106D01*
X402954Y151135D01*
X403078Y151159D01*
X403202Y151180D01*
X403327Y151197D01*
X403453Y151210D01*
X403579Y151219D01*
X403705Y151224D01*
X403832Y151225D01*
X403958Y151222D01*
X404084Y151215D01*
X404210Y151204D01*
X404335Y151189D01*
X404460Y151170D01*
X404584Y151147D01*
X404708Y151121D01*
X404830Y151090D01*
X404952Y151056D01*
X405072Y151017D01*
X405191Y150975D01*
X405309Y150930D01*
X405425Y150880D01*
X405540Y150827D01*
X405652Y150770D01*
X405763Y150710D01*
X405872Y150646D01*
X405979Y150579D01*
X406084Y150509D01*
X406187Y150435D01*
X406287Y150358D01*
X406385Y150278D01*
X406480Y150195D01*
X406572Y150109D01*
X406662Y150020D01*
X406749Y149928D01*
X406832Y149834D01*
X406913Y149737D01*
X406991Y149637D01*
X407066Y149535D01*
X407137Y149431D01*
X407205Y149324D01*
X407269Y149216D01*
X407330Y149105D01*
X407388Y148993D01*
X407442Y148879D01*
X407492Y148763D01*
X407539Y148646D01*
X407582Y148527D01*
X407621Y148407D01*
X407657Y148286D01*
X407688Y148163D01*
X407716Y148040D01*
X407740Y147916D01*
X407760Y147791D01*
X407776Y147666D01*
X407788Y147540D01*
X407796Y147414D01*
X407800Y147288D01*
X407800Y147162D01*
X407796Y147036D01*
X407788Y146910D01*
X407776Y146784D01*
X407760Y146659D01*
X407740Y146534D01*
X407716Y146410D01*
X407688Y146287D01*
X407657Y146164D01*
X407621Y146043D01*
X407582Y145923D01*
X407539Y145804D01*
X407492Y145687D01*
X407442Y145571D01*
X407388Y145457D01*
X407330Y145345D01*
X407269Y145234D01*
X407205Y145126D01*
X407137Y145019D01*
X407066Y144915D01*
X406991Y144813D01*
X406913Y144713D01*
X406832Y144616D01*
X406749Y144522D01*
X406662Y144430D01*
X406572Y144341D01*
X406480Y144255D01*
X406385Y144172D01*
X406287Y144092D01*
X406187Y144015D01*
X406084Y143941D01*
X405979Y143871D01*
X405872Y143804D01*
X405763Y143740D01*
X405652Y143680D01*
X405540Y143623D01*
X405425Y143570D01*
X405309Y143520D01*
X405191Y143475D01*
X405072Y143433D01*
X404952Y143394D01*
X404830Y143360D01*
X404708Y143329D01*
X404584Y143303D01*
X404460Y143280D01*
X404335Y143261D01*
X404210Y143246D01*
X404084Y143235D01*
X403958Y143228D01*
X403832Y143225D01*
X403705Y143226D01*
X403579Y143231D01*
X403453Y143240D01*
X403327Y143253D01*
X403202Y143270D01*
X403078Y143291D01*
X402954Y143315D01*
X402831Y143344D01*
X402709Y143377D01*
X402588Y143413D01*
X402468Y143453D01*
X402350Y143497D01*
X402233Y143545D01*
X402117Y143596D01*
X402004Y143651D01*
X401892Y143709D01*
X401782Y143771D01*
X401674Y143837D01*
X401568Y143906D01*
X401464Y143978D01*
X401363Y144053D01*
X401264Y144132D01*
X401168Y144213D01*
X401074Y144298D01*
X400983Y144385D01*
X400895Y144476D01*
X400809Y144569D01*
X400727Y144665D01*
X400648Y144763D01*
X400571Y144864D01*
X400498Y144967D01*
X400429Y145072D01*
X400363Y145180D01*
X400300Y145289D01*
X400240Y145401D01*
X400184Y145514D01*
X400132Y145629D01*
X400084Y145745D01*
X400039Y145864D01*
X399998Y145983D01*
X399960Y146104D01*
X399927Y146225D01*
X399897Y146348D01*
X399872Y146472D01*
X399850Y146596D01*
X399832Y146721D01*
X399818Y146847D01*
X399808Y146973D01*
X399802Y147099D01*
X399800Y147225D01*
X455800Y147225D02*
X455802Y147351D01*
X455808Y147477D01*
X455818Y147603D01*
X455832Y147729D01*
X455850Y147854D01*
X455872Y147978D01*
X455897Y148102D01*
X455927Y148225D01*
X455960Y148346D01*
X455998Y148467D01*
X456039Y148586D01*
X456084Y148705D01*
X456132Y148821D01*
X456184Y148936D01*
X456240Y149049D01*
X456300Y149161D01*
X456363Y149270D01*
X456429Y149378D01*
X456498Y149483D01*
X456571Y149586D01*
X456648Y149687D01*
X456727Y149785D01*
X456809Y149881D01*
X456895Y149974D01*
X456983Y150065D01*
X457074Y150152D01*
X457168Y150237D01*
X457264Y150318D01*
X457363Y150397D01*
X457464Y150472D01*
X457568Y150544D01*
X457674Y150613D01*
X457782Y150679D01*
X457892Y150741D01*
X458004Y150799D01*
X458117Y150854D01*
X458233Y150905D01*
X458350Y150953D01*
X458468Y150997D01*
X458588Y151037D01*
X458709Y151073D01*
X458831Y151106D01*
X458954Y151135D01*
X459078Y151159D01*
X459202Y151180D01*
X459327Y151197D01*
X459453Y151210D01*
X459579Y151219D01*
X459705Y151224D01*
X459832Y151225D01*
X459958Y151222D01*
X460084Y151215D01*
X460210Y151204D01*
X460335Y151189D01*
X460460Y151170D01*
X460584Y151147D01*
X460708Y151121D01*
X460830Y151090D01*
X460952Y151056D01*
X461072Y151017D01*
X461191Y150975D01*
X461309Y150930D01*
X461425Y150880D01*
X461540Y150827D01*
X461652Y150770D01*
X461763Y150710D01*
X461872Y150646D01*
X461979Y150579D01*
X462084Y150509D01*
X462187Y150435D01*
X462287Y150358D01*
X462385Y150278D01*
X462480Y150195D01*
X462572Y150109D01*
X462662Y150020D01*
X462749Y149928D01*
X462832Y149834D01*
X462913Y149737D01*
X462991Y149637D01*
X463066Y149535D01*
X463137Y149431D01*
X463205Y149324D01*
X463269Y149216D01*
X463330Y149105D01*
X463388Y148993D01*
X463442Y148879D01*
X463492Y148763D01*
X463539Y148646D01*
X463582Y148527D01*
X463621Y148407D01*
X463657Y148286D01*
X463688Y148163D01*
X463716Y148040D01*
X463740Y147916D01*
X463760Y147791D01*
X463776Y147666D01*
X463788Y147540D01*
X463796Y147414D01*
X463800Y147288D01*
X463800Y147162D01*
X463796Y147036D01*
X463788Y146910D01*
X463776Y146784D01*
X463760Y146659D01*
X463740Y146534D01*
X463716Y146410D01*
X463688Y146287D01*
X463657Y146164D01*
X463621Y146043D01*
X463582Y145923D01*
X463539Y145804D01*
X463492Y145687D01*
X463442Y145571D01*
X463388Y145457D01*
X463330Y145345D01*
X463269Y145234D01*
X463205Y145126D01*
X463137Y145019D01*
X463066Y144915D01*
X462991Y144813D01*
X462913Y144713D01*
X462832Y144616D01*
X462749Y144522D01*
X462662Y144430D01*
X462572Y144341D01*
X462480Y144255D01*
X462385Y144172D01*
X462287Y144092D01*
X462187Y144015D01*
X462084Y143941D01*
X461979Y143871D01*
X461872Y143804D01*
X461763Y143740D01*
X461652Y143680D01*
X461540Y143623D01*
X461425Y143570D01*
X461309Y143520D01*
X461191Y143475D01*
X461072Y143433D01*
X460952Y143394D01*
X460830Y143360D01*
X460708Y143329D01*
X460584Y143303D01*
X460460Y143280D01*
X460335Y143261D01*
X460210Y143246D01*
X460084Y143235D01*
X459958Y143228D01*
X459832Y143225D01*
X459705Y143226D01*
X459579Y143231D01*
X459453Y143240D01*
X459327Y143253D01*
X459202Y143270D01*
X459078Y143291D01*
X458954Y143315D01*
X458831Y143344D01*
X458709Y143377D01*
X458588Y143413D01*
X458468Y143453D01*
X458350Y143497D01*
X458233Y143545D01*
X458117Y143596D01*
X458004Y143651D01*
X457892Y143709D01*
X457782Y143771D01*
X457674Y143837D01*
X457568Y143906D01*
X457464Y143978D01*
X457363Y144053D01*
X457264Y144132D01*
X457168Y144213D01*
X457074Y144298D01*
X456983Y144385D01*
X456895Y144476D01*
X456809Y144569D01*
X456727Y144665D01*
X456648Y144763D01*
X456571Y144864D01*
X456498Y144967D01*
X456429Y145072D01*
X456363Y145180D01*
X456300Y145289D01*
X456240Y145401D01*
X456184Y145514D01*
X456132Y145629D01*
X456084Y145745D01*
X456039Y145864D01*
X455998Y145983D01*
X455960Y146104D01*
X455927Y146225D01*
X455897Y146348D01*
X455872Y146472D01*
X455850Y146596D01*
X455832Y146721D01*
X455818Y146847D01*
X455808Y146973D01*
X455802Y147099D01*
X455800Y147225D01*
X526800Y147225D02*
X526802Y147351D01*
X526808Y147477D01*
X526818Y147603D01*
X526832Y147729D01*
X526850Y147854D01*
X526872Y147978D01*
X526897Y148102D01*
X526927Y148225D01*
X526960Y148346D01*
X526998Y148467D01*
X527039Y148586D01*
X527084Y148705D01*
X527132Y148821D01*
X527184Y148936D01*
X527240Y149049D01*
X527300Y149161D01*
X527363Y149270D01*
X527429Y149378D01*
X527498Y149483D01*
X527571Y149586D01*
X527648Y149687D01*
X527727Y149785D01*
X527809Y149881D01*
X527895Y149974D01*
X527983Y150065D01*
X528074Y150152D01*
X528168Y150237D01*
X528264Y150318D01*
X528363Y150397D01*
X528464Y150472D01*
X528568Y150544D01*
X528674Y150613D01*
X528782Y150679D01*
X528892Y150741D01*
X529004Y150799D01*
X529117Y150854D01*
X529233Y150905D01*
X529350Y150953D01*
X529468Y150997D01*
X529588Y151037D01*
X529709Y151073D01*
X529831Y151106D01*
X529954Y151135D01*
X530078Y151159D01*
X530202Y151180D01*
X530327Y151197D01*
X530453Y151210D01*
X530579Y151219D01*
X530705Y151224D01*
X530832Y151225D01*
X530958Y151222D01*
X531084Y151215D01*
X531210Y151204D01*
X531335Y151189D01*
X531460Y151170D01*
X531584Y151147D01*
X531708Y151121D01*
X531830Y151090D01*
X531952Y151056D01*
X532072Y151017D01*
X532191Y150975D01*
X532309Y150930D01*
X532425Y150880D01*
X532540Y150827D01*
X532652Y150770D01*
X532763Y150710D01*
X532872Y150646D01*
X532979Y150579D01*
X533084Y150509D01*
X533187Y150435D01*
X533287Y150358D01*
X533385Y150278D01*
X533480Y150195D01*
X533572Y150109D01*
X533662Y150020D01*
X533749Y149928D01*
X533832Y149834D01*
X533913Y149737D01*
X533991Y149637D01*
X534066Y149535D01*
X534137Y149431D01*
X534205Y149324D01*
X534269Y149216D01*
X534330Y149105D01*
X534388Y148993D01*
X534442Y148879D01*
X534492Y148763D01*
X534539Y148646D01*
X534582Y148527D01*
X534621Y148407D01*
X534657Y148286D01*
X534688Y148163D01*
X534716Y148040D01*
X534740Y147916D01*
X534760Y147791D01*
X534776Y147666D01*
X534788Y147540D01*
X534796Y147414D01*
X534800Y147288D01*
X534800Y147162D01*
X534796Y147036D01*
X534788Y146910D01*
X534776Y146784D01*
X534760Y146659D01*
X534740Y146534D01*
X534716Y146410D01*
X534688Y146287D01*
X534657Y146164D01*
X534621Y146043D01*
X534582Y145923D01*
X534539Y145804D01*
X534492Y145687D01*
X534442Y145571D01*
X534388Y145457D01*
X534330Y145345D01*
X534269Y145234D01*
X534205Y145126D01*
X534137Y145019D01*
X534066Y144915D01*
X533991Y144813D01*
X533913Y144713D01*
X533832Y144616D01*
X533749Y144522D01*
X533662Y144430D01*
X533572Y144341D01*
X533480Y144255D01*
X533385Y144172D01*
X533287Y144092D01*
X533187Y144015D01*
X533084Y143941D01*
X532979Y143871D01*
X532872Y143804D01*
X532763Y143740D01*
X532652Y143680D01*
X532540Y143623D01*
X532425Y143570D01*
X532309Y143520D01*
X532191Y143475D01*
X532072Y143433D01*
X531952Y143394D01*
X531830Y143360D01*
X531708Y143329D01*
X531584Y143303D01*
X531460Y143280D01*
X531335Y143261D01*
X531210Y143246D01*
X531084Y143235D01*
X530958Y143228D01*
X530832Y143225D01*
X530705Y143226D01*
X530579Y143231D01*
X530453Y143240D01*
X530327Y143253D01*
X530202Y143270D01*
X530078Y143291D01*
X529954Y143315D01*
X529831Y143344D01*
X529709Y143377D01*
X529588Y143413D01*
X529468Y143453D01*
X529350Y143497D01*
X529233Y143545D01*
X529117Y143596D01*
X529004Y143651D01*
X528892Y143709D01*
X528782Y143771D01*
X528674Y143837D01*
X528568Y143906D01*
X528464Y143978D01*
X528363Y144053D01*
X528264Y144132D01*
X528168Y144213D01*
X528074Y144298D01*
X527983Y144385D01*
X527895Y144476D01*
X527809Y144569D01*
X527727Y144665D01*
X527648Y144763D01*
X527571Y144864D01*
X527498Y144967D01*
X527429Y145072D01*
X527363Y145180D01*
X527300Y145289D01*
X527240Y145401D01*
X527184Y145514D01*
X527132Y145629D01*
X527084Y145745D01*
X527039Y145864D01*
X526998Y145983D01*
X526960Y146104D01*
X526927Y146225D01*
X526897Y146348D01*
X526872Y146472D01*
X526850Y146596D01*
X526832Y146721D01*
X526818Y146847D01*
X526808Y146973D01*
X526802Y147099D01*
X526800Y147225D01*
X582800Y147225D02*
X582802Y147351D01*
X582808Y147477D01*
X582818Y147603D01*
X582832Y147729D01*
X582850Y147854D01*
X582872Y147978D01*
X582897Y148102D01*
X582927Y148225D01*
X582960Y148346D01*
X582998Y148467D01*
X583039Y148586D01*
X583084Y148705D01*
X583132Y148821D01*
X583184Y148936D01*
X583240Y149049D01*
X583300Y149161D01*
X583363Y149270D01*
X583429Y149378D01*
X583498Y149483D01*
X583571Y149586D01*
X583648Y149687D01*
X583727Y149785D01*
X583809Y149881D01*
X583895Y149974D01*
X583983Y150065D01*
X584074Y150152D01*
X584168Y150237D01*
X584264Y150318D01*
X584363Y150397D01*
X584464Y150472D01*
X584568Y150544D01*
X584674Y150613D01*
X584782Y150679D01*
X584892Y150741D01*
X585004Y150799D01*
X585117Y150854D01*
X585233Y150905D01*
X585350Y150953D01*
X585468Y150997D01*
X585588Y151037D01*
X585709Y151073D01*
X585831Y151106D01*
X585954Y151135D01*
X586078Y151159D01*
X586202Y151180D01*
X586327Y151197D01*
X586453Y151210D01*
X586579Y151219D01*
X586705Y151224D01*
X586832Y151225D01*
X586958Y151222D01*
X587084Y151215D01*
X587210Y151204D01*
X587335Y151189D01*
X587460Y151170D01*
X587584Y151147D01*
X587708Y151121D01*
X587830Y151090D01*
X587952Y151056D01*
X588072Y151017D01*
X588191Y150975D01*
X588309Y150930D01*
X588425Y150880D01*
X588540Y150827D01*
X588652Y150770D01*
X588763Y150710D01*
X588872Y150646D01*
X588979Y150579D01*
X589084Y150509D01*
X589187Y150435D01*
X589287Y150358D01*
X589385Y150278D01*
X589480Y150195D01*
X589572Y150109D01*
X589662Y150020D01*
X589749Y149928D01*
X589832Y149834D01*
X589913Y149737D01*
X589991Y149637D01*
X590066Y149535D01*
X590137Y149431D01*
X590205Y149324D01*
X590269Y149216D01*
X590330Y149105D01*
X590388Y148993D01*
X590442Y148879D01*
X590492Y148763D01*
X590539Y148646D01*
X590582Y148527D01*
X590621Y148407D01*
X590657Y148286D01*
X590688Y148163D01*
X590716Y148040D01*
X590740Y147916D01*
X590760Y147791D01*
X590776Y147666D01*
X590788Y147540D01*
X590796Y147414D01*
X590800Y147288D01*
X590800Y147162D01*
X590796Y147036D01*
X590788Y146910D01*
X590776Y146784D01*
X590760Y146659D01*
X590740Y146534D01*
X590716Y146410D01*
X590688Y146287D01*
X590657Y146164D01*
X590621Y146043D01*
X590582Y145923D01*
X590539Y145804D01*
X590492Y145687D01*
X590442Y145571D01*
X590388Y145457D01*
X590330Y145345D01*
X590269Y145234D01*
X590205Y145126D01*
X590137Y145019D01*
X590066Y144915D01*
X589991Y144813D01*
X589913Y144713D01*
X589832Y144616D01*
X589749Y144522D01*
X589662Y144430D01*
X589572Y144341D01*
X589480Y144255D01*
X589385Y144172D01*
X589287Y144092D01*
X589187Y144015D01*
X589084Y143941D01*
X588979Y143871D01*
X588872Y143804D01*
X588763Y143740D01*
X588652Y143680D01*
X588540Y143623D01*
X588425Y143570D01*
X588309Y143520D01*
X588191Y143475D01*
X588072Y143433D01*
X587952Y143394D01*
X587830Y143360D01*
X587708Y143329D01*
X587584Y143303D01*
X587460Y143280D01*
X587335Y143261D01*
X587210Y143246D01*
X587084Y143235D01*
X586958Y143228D01*
X586832Y143225D01*
X586705Y143226D01*
X586579Y143231D01*
X586453Y143240D01*
X586327Y143253D01*
X586202Y143270D01*
X586078Y143291D01*
X585954Y143315D01*
X585831Y143344D01*
X585709Y143377D01*
X585588Y143413D01*
X585468Y143453D01*
X585350Y143497D01*
X585233Y143545D01*
X585117Y143596D01*
X585004Y143651D01*
X584892Y143709D01*
X584782Y143771D01*
X584674Y143837D01*
X584568Y143906D01*
X584464Y143978D01*
X584363Y144053D01*
X584264Y144132D01*
X584168Y144213D01*
X584074Y144298D01*
X583983Y144385D01*
X583895Y144476D01*
X583809Y144569D01*
X583727Y144665D01*
X583648Y144763D01*
X583571Y144864D01*
X583498Y144967D01*
X583429Y145072D01*
X583363Y145180D01*
X583300Y145289D01*
X583240Y145401D01*
X583184Y145514D01*
X583132Y145629D01*
X583084Y145745D01*
X583039Y145864D01*
X582998Y145983D01*
X582960Y146104D01*
X582927Y146225D01*
X582897Y146348D01*
X582872Y146472D01*
X582850Y146596D01*
X582832Y146721D01*
X582818Y146847D01*
X582808Y146973D01*
X582802Y147099D01*
X582800Y147225D01*
X399800Y210725D02*
X399802Y210851D01*
X399808Y210977D01*
X399818Y211103D01*
X399832Y211229D01*
X399850Y211354D01*
X399872Y211478D01*
X399897Y211602D01*
X399927Y211725D01*
X399960Y211846D01*
X399998Y211967D01*
X400039Y212086D01*
X400084Y212205D01*
X400132Y212321D01*
X400184Y212436D01*
X400240Y212549D01*
X400300Y212661D01*
X400363Y212770D01*
X400429Y212878D01*
X400498Y212983D01*
X400571Y213086D01*
X400648Y213187D01*
X400727Y213285D01*
X400809Y213381D01*
X400895Y213474D01*
X400983Y213565D01*
X401074Y213652D01*
X401168Y213737D01*
X401264Y213818D01*
X401363Y213897D01*
X401464Y213972D01*
X401568Y214044D01*
X401674Y214113D01*
X401782Y214179D01*
X401892Y214241D01*
X402004Y214299D01*
X402117Y214354D01*
X402233Y214405D01*
X402350Y214453D01*
X402468Y214497D01*
X402588Y214537D01*
X402709Y214573D01*
X402831Y214606D01*
X402954Y214635D01*
X403078Y214659D01*
X403202Y214680D01*
X403327Y214697D01*
X403453Y214710D01*
X403579Y214719D01*
X403705Y214724D01*
X403832Y214725D01*
X403958Y214722D01*
X404084Y214715D01*
X404210Y214704D01*
X404335Y214689D01*
X404460Y214670D01*
X404584Y214647D01*
X404708Y214621D01*
X404830Y214590D01*
X404952Y214556D01*
X405072Y214517D01*
X405191Y214475D01*
X405309Y214430D01*
X405425Y214380D01*
X405540Y214327D01*
X405652Y214270D01*
X405763Y214210D01*
X405872Y214146D01*
X405979Y214079D01*
X406084Y214009D01*
X406187Y213935D01*
X406287Y213858D01*
X406385Y213778D01*
X406480Y213695D01*
X406572Y213609D01*
X406662Y213520D01*
X406749Y213428D01*
X406832Y213334D01*
X406913Y213237D01*
X406991Y213137D01*
X407066Y213035D01*
X407137Y212931D01*
X407205Y212824D01*
X407269Y212716D01*
X407330Y212605D01*
X407388Y212493D01*
X407442Y212379D01*
X407492Y212263D01*
X407539Y212146D01*
X407582Y212027D01*
X407621Y211907D01*
X407657Y211786D01*
X407688Y211663D01*
X407716Y211540D01*
X407740Y211416D01*
X407760Y211291D01*
X407776Y211166D01*
X407788Y211040D01*
X407796Y210914D01*
X407800Y210788D01*
X407800Y210662D01*
X407796Y210536D01*
X407788Y210410D01*
X407776Y210284D01*
X407760Y210159D01*
X407740Y210034D01*
X407716Y209910D01*
X407688Y209787D01*
X407657Y209664D01*
X407621Y209543D01*
X407582Y209423D01*
X407539Y209304D01*
X407492Y209187D01*
X407442Y209071D01*
X407388Y208957D01*
X407330Y208845D01*
X407269Y208734D01*
X407205Y208626D01*
X407137Y208519D01*
X407066Y208415D01*
X406991Y208313D01*
X406913Y208213D01*
X406832Y208116D01*
X406749Y208022D01*
X406662Y207930D01*
X406572Y207841D01*
X406480Y207755D01*
X406385Y207672D01*
X406287Y207592D01*
X406187Y207515D01*
X406084Y207441D01*
X405979Y207371D01*
X405872Y207304D01*
X405763Y207240D01*
X405652Y207180D01*
X405540Y207123D01*
X405425Y207070D01*
X405309Y207020D01*
X405191Y206975D01*
X405072Y206933D01*
X404952Y206894D01*
X404830Y206860D01*
X404708Y206829D01*
X404584Y206803D01*
X404460Y206780D01*
X404335Y206761D01*
X404210Y206746D01*
X404084Y206735D01*
X403958Y206728D01*
X403832Y206725D01*
X403705Y206726D01*
X403579Y206731D01*
X403453Y206740D01*
X403327Y206753D01*
X403202Y206770D01*
X403078Y206791D01*
X402954Y206815D01*
X402831Y206844D01*
X402709Y206877D01*
X402588Y206913D01*
X402468Y206953D01*
X402350Y206997D01*
X402233Y207045D01*
X402117Y207096D01*
X402004Y207151D01*
X401892Y207209D01*
X401782Y207271D01*
X401674Y207337D01*
X401568Y207406D01*
X401464Y207478D01*
X401363Y207553D01*
X401264Y207632D01*
X401168Y207713D01*
X401074Y207798D01*
X400983Y207885D01*
X400895Y207976D01*
X400809Y208069D01*
X400727Y208165D01*
X400648Y208263D01*
X400571Y208364D01*
X400498Y208467D01*
X400429Y208572D01*
X400363Y208680D01*
X400300Y208789D01*
X400240Y208901D01*
X400184Y209014D01*
X400132Y209129D01*
X400084Y209245D01*
X400039Y209364D01*
X399998Y209483D01*
X399960Y209604D01*
X399927Y209725D01*
X399897Y209848D01*
X399872Y209972D01*
X399850Y210096D01*
X399832Y210221D01*
X399818Y210347D01*
X399808Y210473D01*
X399802Y210599D01*
X399800Y210725D01*
X455800Y210725D02*
X455802Y210851D01*
X455808Y210977D01*
X455818Y211103D01*
X455832Y211229D01*
X455850Y211354D01*
X455872Y211478D01*
X455897Y211602D01*
X455927Y211725D01*
X455960Y211846D01*
X455998Y211967D01*
X456039Y212086D01*
X456084Y212205D01*
X456132Y212321D01*
X456184Y212436D01*
X456240Y212549D01*
X456300Y212661D01*
X456363Y212770D01*
X456429Y212878D01*
X456498Y212983D01*
X456571Y213086D01*
X456648Y213187D01*
X456727Y213285D01*
X456809Y213381D01*
X456895Y213474D01*
X456983Y213565D01*
X457074Y213652D01*
X457168Y213737D01*
X457264Y213818D01*
X457363Y213897D01*
X457464Y213972D01*
X457568Y214044D01*
X457674Y214113D01*
X457782Y214179D01*
X457892Y214241D01*
X458004Y214299D01*
X458117Y214354D01*
X458233Y214405D01*
X458350Y214453D01*
X458468Y214497D01*
X458588Y214537D01*
X458709Y214573D01*
X458831Y214606D01*
X458954Y214635D01*
X459078Y214659D01*
X459202Y214680D01*
X459327Y214697D01*
X459453Y214710D01*
X459579Y214719D01*
X459705Y214724D01*
X459832Y214725D01*
X459958Y214722D01*
X460084Y214715D01*
X460210Y214704D01*
X460335Y214689D01*
X460460Y214670D01*
X460584Y214647D01*
X460708Y214621D01*
X460830Y214590D01*
X460952Y214556D01*
X461072Y214517D01*
X461191Y214475D01*
X461309Y214430D01*
X461425Y214380D01*
X461540Y214327D01*
X461652Y214270D01*
X461763Y214210D01*
X461872Y214146D01*
X461979Y214079D01*
X462084Y214009D01*
X462187Y213935D01*
X462287Y213858D01*
X462385Y213778D01*
X462480Y213695D01*
X462572Y213609D01*
X462662Y213520D01*
X462749Y213428D01*
X462832Y213334D01*
X462913Y213237D01*
X462991Y213137D01*
X463066Y213035D01*
X463137Y212931D01*
X463205Y212824D01*
X463269Y212716D01*
X463330Y212605D01*
X463388Y212493D01*
X463442Y212379D01*
X463492Y212263D01*
X463539Y212146D01*
X463582Y212027D01*
X463621Y211907D01*
X463657Y211786D01*
X463688Y211663D01*
X463716Y211540D01*
X463740Y211416D01*
X463760Y211291D01*
X463776Y211166D01*
X463788Y211040D01*
X463796Y210914D01*
X463800Y210788D01*
X463800Y210662D01*
X463796Y210536D01*
X463788Y210410D01*
X463776Y210284D01*
X463760Y210159D01*
X463740Y210034D01*
X463716Y209910D01*
X463688Y209787D01*
X463657Y209664D01*
X463621Y209543D01*
X463582Y209423D01*
X463539Y209304D01*
X463492Y209187D01*
X463442Y209071D01*
X463388Y208957D01*
X463330Y208845D01*
X463269Y208734D01*
X463205Y208626D01*
X463137Y208519D01*
X463066Y208415D01*
X462991Y208313D01*
X462913Y208213D01*
X462832Y208116D01*
X462749Y208022D01*
X462662Y207930D01*
X462572Y207841D01*
X462480Y207755D01*
X462385Y207672D01*
X462287Y207592D01*
X462187Y207515D01*
X462084Y207441D01*
X461979Y207371D01*
X461872Y207304D01*
X461763Y207240D01*
X461652Y207180D01*
X461540Y207123D01*
X461425Y207070D01*
X461309Y207020D01*
X461191Y206975D01*
X461072Y206933D01*
X460952Y206894D01*
X460830Y206860D01*
X460708Y206829D01*
X460584Y206803D01*
X460460Y206780D01*
X460335Y206761D01*
X460210Y206746D01*
X460084Y206735D01*
X459958Y206728D01*
X459832Y206725D01*
X459705Y206726D01*
X459579Y206731D01*
X459453Y206740D01*
X459327Y206753D01*
X459202Y206770D01*
X459078Y206791D01*
X458954Y206815D01*
X458831Y206844D01*
X458709Y206877D01*
X458588Y206913D01*
X458468Y206953D01*
X458350Y206997D01*
X458233Y207045D01*
X458117Y207096D01*
X458004Y207151D01*
X457892Y207209D01*
X457782Y207271D01*
X457674Y207337D01*
X457568Y207406D01*
X457464Y207478D01*
X457363Y207553D01*
X457264Y207632D01*
X457168Y207713D01*
X457074Y207798D01*
X456983Y207885D01*
X456895Y207976D01*
X456809Y208069D01*
X456727Y208165D01*
X456648Y208263D01*
X456571Y208364D01*
X456498Y208467D01*
X456429Y208572D01*
X456363Y208680D01*
X456300Y208789D01*
X456240Y208901D01*
X456184Y209014D01*
X456132Y209129D01*
X456084Y209245D01*
X456039Y209364D01*
X455998Y209483D01*
X455960Y209604D01*
X455927Y209725D01*
X455897Y209848D01*
X455872Y209972D01*
X455850Y210096D01*
X455832Y210221D01*
X455818Y210347D01*
X455808Y210473D01*
X455802Y210599D01*
X455800Y210725D01*
X526800Y210725D02*
X526802Y210851D01*
X526808Y210977D01*
X526818Y211103D01*
X526832Y211229D01*
X526850Y211354D01*
X526872Y211478D01*
X526897Y211602D01*
X526927Y211725D01*
X526960Y211846D01*
X526998Y211967D01*
X527039Y212086D01*
X527084Y212205D01*
X527132Y212321D01*
X527184Y212436D01*
X527240Y212549D01*
X527300Y212661D01*
X527363Y212770D01*
X527429Y212878D01*
X527498Y212983D01*
X527571Y213086D01*
X527648Y213187D01*
X527727Y213285D01*
X527809Y213381D01*
X527895Y213474D01*
X527983Y213565D01*
X528074Y213652D01*
X528168Y213737D01*
X528264Y213818D01*
X528363Y213897D01*
X528464Y213972D01*
X528568Y214044D01*
X528674Y214113D01*
X528782Y214179D01*
X528892Y214241D01*
X529004Y214299D01*
X529117Y214354D01*
X529233Y214405D01*
X529350Y214453D01*
X529468Y214497D01*
X529588Y214537D01*
X529709Y214573D01*
X529831Y214606D01*
X529954Y214635D01*
X530078Y214659D01*
X530202Y214680D01*
X530327Y214697D01*
X530453Y214710D01*
X530579Y214719D01*
X530705Y214724D01*
X530832Y214725D01*
X530958Y214722D01*
X531084Y214715D01*
X531210Y214704D01*
X531335Y214689D01*
X531460Y214670D01*
X531584Y214647D01*
X531708Y214621D01*
X531830Y214590D01*
X531952Y214556D01*
X532072Y214517D01*
X532191Y214475D01*
X532309Y214430D01*
X532425Y214380D01*
X532540Y214327D01*
X532652Y214270D01*
X532763Y214210D01*
X532872Y214146D01*
X532979Y214079D01*
X533084Y214009D01*
X533187Y213935D01*
X533287Y213858D01*
X533385Y213778D01*
X533480Y213695D01*
X533572Y213609D01*
X533662Y213520D01*
X533749Y213428D01*
X533832Y213334D01*
X533913Y213237D01*
X533991Y213137D01*
X534066Y213035D01*
X534137Y212931D01*
X534205Y212824D01*
X534269Y212716D01*
X534330Y212605D01*
X534388Y212493D01*
X534442Y212379D01*
X534492Y212263D01*
X534539Y212146D01*
X534582Y212027D01*
X534621Y211907D01*
X534657Y211786D01*
X534688Y211663D01*
X534716Y211540D01*
X534740Y211416D01*
X534760Y211291D01*
X534776Y211166D01*
X534788Y211040D01*
X534796Y210914D01*
X534800Y210788D01*
X534800Y210662D01*
X534796Y210536D01*
X534788Y210410D01*
X534776Y210284D01*
X534760Y210159D01*
X534740Y210034D01*
X534716Y209910D01*
X534688Y209787D01*
X534657Y209664D01*
X534621Y209543D01*
X534582Y209423D01*
X534539Y209304D01*
X534492Y209187D01*
X534442Y209071D01*
X534388Y208957D01*
X534330Y208845D01*
X534269Y208734D01*
X534205Y208626D01*
X534137Y208519D01*
X534066Y208415D01*
X533991Y208313D01*
X533913Y208213D01*
X533832Y208116D01*
X533749Y208022D01*
X533662Y207930D01*
X533572Y207841D01*
X533480Y207755D01*
X533385Y207672D01*
X533287Y207592D01*
X533187Y207515D01*
X533084Y207441D01*
X532979Y207371D01*
X532872Y207304D01*
X532763Y207240D01*
X532652Y207180D01*
X532540Y207123D01*
X532425Y207070D01*
X532309Y207020D01*
X532191Y206975D01*
X532072Y206933D01*
X531952Y206894D01*
X531830Y206860D01*
X531708Y206829D01*
X531584Y206803D01*
X531460Y206780D01*
X531335Y206761D01*
X531210Y206746D01*
X531084Y206735D01*
X530958Y206728D01*
X530832Y206725D01*
X530705Y206726D01*
X530579Y206731D01*
X530453Y206740D01*
X530327Y206753D01*
X530202Y206770D01*
X530078Y206791D01*
X529954Y206815D01*
X529831Y206844D01*
X529709Y206877D01*
X529588Y206913D01*
X529468Y206953D01*
X529350Y206997D01*
X529233Y207045D01*
X529117Y207096D01*
X529004Y207151D01*
X528892Y207209D01*
X528782Y207271D01*
X528674Y207337D01*
X528568Y207406D01*
X528464Y207478D01*
X528363Y207553D01*
X528264Y207632D01*
X528168Y207713D01*
X528074Y207798D01*
X527983Y207885D01*
X527895Y207976D01*
X527809Y208069D01*
X527727Y208165D01*
X527648Y208263D01*
X527571Y208364D01*
X527498Y208467D01*
X527429Y208572D01*
X527363Y208680D01*
X527300Y208789D01*
X527240Y208901D01*
X527184Y209014D01*
X527132Y209129D01*
X527084Y209245D01*
X527039Y209364D01*
X526998Y209483D01*
X526960Y209604D01*
X526927Y209725D01*
X526897Y209848D01*
X526872Y209972D01*
X526850Y210096D01*
X526832Y210221D01*
X526818Y210347D01*
X526808Y210473D01*
X526802Y210599D01*
X526800Y210725D01*
X582800Y210725D02*
X582802Y210851D01*
X582808Y210977D01*
X582818Y211103D01*
X582832Y211229D01*
X582850Y211354D01*
X582872Y211478D01*
X582897Y211602D01*
X582927Y211725D01*
X582960Y211846D01*
X582998Y211967D01*
X583039Y212086D01*
X583084Y212205D01*
X583132Y212321D01*
X583184Y212436D01*
X583240Y212549D01*
X583300Y212661D01*
X583363Y212770D01*
X583429Y212878D01*
X583498Y212983D01*
X583571Y213086D01*
X583648Y213187D01*
X583727Y213285D01*
X583809Y213381D01*
X583895Y213474D01*
X583983Y213565D01*
X584074Y213652D01*
X584168Y213737D01*
X584264Y213818D01*
X584363Y213897D01*
X584464Y213972D01*
X584568Y214044D01*
X584674Y214113D01*
X584782Y214179D01*
X584892Y214241D01*
X585004Y214299D01*
X585117Y214354D01*
X585233Y214405D01*
X585350Y214453D01*
X585468Y214497D01*
X585588Y214537D01*
X585709Y214573D01*
X585831Y214606D01*
X585954Y214635D01*
X586078Y214659D01*
X586202Y214680D01*
X586327Y214697D01*
X586453Y214710D01*
X586579Y214719D01*
X586705Y214724D01*
X586832Y214725D01*
X586958Y214722D01*
X587084Y214715D01*
X587210Y214704D01*
X587335Y214689D01*
X587460Y214670D01*
X587584Y214647D01*
X587708Y214621D01*
X587830Y214590D01*
X587952Y214556D01*
X588072Y214517D01*
X588191Y214475D01*
X588309Y214430D01*
X588425Y214380D01*
X588540Y214327D01*
X588652Y214270D01*
X588763Y214210D01*
X588872Y214146D01*
X588979Y214079D01*
X589084Y214009D01*
X589187Y213935D01*
X589287Y213858D01*
X589385Y213778D01*
X589480Y213695D01*
X589572Y213609D01*
X589662Y213520D01*
X589749Y213428D01*
X589832Y213334D01*
X589913Y213237D01*
X589991Y213137D01*
X590066Y213035D01*
X590137Y212931D01*
X590205Y212824D01*
X590269Y212716D01*
X590330Y212605D01*
X590388Y212493D01*
X590442Y212379D01*
X590492Y212263D01*
X590539Y212146D01*
X590582Y212027D01*
X590621Y211907D01*
X590657Y211786D01*
X590688Y211663D01*
X590716Y211540D01*
X590740Y211416D01*
X590760Y211291D01*
X590776Y211166D01*
X590788Y211040D01*
X590796Y210914D01*
X590800Y210788D01*
X590800Y210662D01*
X590796Y210536D01*
X590788Y210410D01*
X590776Y210284D01*
X590760Y210159D01*
X590740Y210034D01*
X590716Y209910D01*
X590688Y209787D01*
X590657Y209664D01*
X590621Y209543D01*
X590582Y209423D01*
X590539Y209304D01*
X590492Y209187D01*
X590442Y209071D01*
X590388Y208957D01*
X590330Y208845D01*
X590269Y208734D01*
X590205Y208626D01*
X590137Y208519D01*
X590066Y208415D01*
X589991Y208313D01*
X589913Y208213D01*
X589832Y208116D01*
X589749Y208022D01*
X589662Y207930D01*
X589572Y207841D01*
X589480Y207755D01*
X589385Y207672D01*
X589287Y207592D01*
X589187Y207515D01*
X589084Y207441D01*
X588979Y207371D01*
X588872Y207304D01*
X588763Y207240D01*
X588652Y207180D01*
X588540Y207123D01*
X588425Y207070D01*
X588309Y207020D01*
X588191Y206975D01*
X588072Y206933D01*
X587952Y206894D01*
X587830Y206860D01*
X587708Y206829D01*
X587584Y206803D01*
X587460Y206780D01*
X587335Y206761D01*
X587210Y206746D01*
X587084Y206735D01*
X586958Y206728D01*
X586832Y206725D01*
X586705Y206726D01*
X586579Y206731D01*
X586453Y206740D01*
X586327Y206753D01*
X586202Y206770D01*
X586078Y206791D01*
X585954Y206815D01*
X585831Y206844D01*
X585709Y206877D01*
X585588Y206913D01*
X585468Y206953D01*
X585350Y206997D01*
X585233Y207045D01*
X585117Y207096D01*
X585004Y207151D01*
X584892Y207209D01*
X584782Y207271D01*
X584674Y207337D01*
X584568Y207406D01*
X584464Y207478D01*
X584363Y207553D01*
X584264Y207632D01*
X584168Y207713D01*
X584074Y207798D01*
X583983Y207885D01*
X583895Y207976D01*
X583809Y208069D01*
X583727Y208165D01*
X583648Y208263D01*
X583571Y208364D01*
X583498Y208467D01*
X583429Y208572D01*
X583363Y208680D01*
X583300Y208789D01*
X583240Y208901D01*
X583184Y209014D01*
X583132Y209129D01*
X583084Y209245D01*
X583039Y209364D01*
X582998Y209483D01*
X582960Y209604D01*
X582927Y209725D01*
X582897Y209848D01*
X582872Y209972D01*
X582850Y210096D01*
X582832Y210221D01*
X582818Y210347D01*
X582808Y210473D01*
X582802Y210599D01*
X582800Y210725D01*
X399800Y274225D02*
X399802Y274351D01*
X399808Y274477D01*
X399818Y274603D01*
X399832Y274729D01*
X399850Y274854D01*
X399872Y274978D01*
X399897Y275102D01*
X399927Y275225D01*
X399960Y275346D01*
X399998Y275467D01*
X400039Y275586D01*
X400084Y275705D01*
X400132Y275821D01*
X400184Y275936D01*
X400240Y276049D01*
X400300Y276161D01*
X400363Y276270D01*
X400429Y276378D01*
X400498Y276483D01*
X400571Y276586D01*
X400648Y276687D01*
X400727Y276785D01*
X400809Y276881D01*
X400895Y276974D01*
X400983Y277065D01*
X401074Y277152D01*
X401168Y277237D01*
X401264Y277318D01*
X401363Y277397D01*
X401464Y277472D01*
X401568Y277544D01*
X401674Y277613D01*
X401782Y277679D01*
X401892Y277741D01*
X402004Y277799D01*
X402117Y277854D01*
X402233Y277905D01*
X402350Y277953D01*
X402468Y277997D01*
X402588Y278037D01*
X402709Y278073D01*
X402831Y278106D01*
X402954Y278135D01*
X403078Y278159D01*
X403202Y278180D01*
X403327Y278197D01*
X403453Y278210D01*
X403579Y278219D01*
X403705Y278224D01*
X403832Y278225D01*
X403958Y278222D01*
X404084Y278215D01*
X404210Y278204D01*
X404335Y278189D01*
X404460Y278170D01*
X404584Y278147D01*
X404708Y278121D01*
X404830Y278090D01*
X404952Y278056D01*
X405072Y278017D01*
X405191Y277975D01*
X405309Y277930D01*
X405425Y277880D01*
X405540Y277827D01*
X405652Y277770D01*
X405763Y277710D01*
X405872Y277646D01*
X405979Y277579D01*
X406084Y277509D01*
X406187Y277435D01*
X406287Y277358D01*
X406385Y277278D01*
X406480Y277195D01*
X406572Y277109D01*
X406662Y277020D01*
X406749Y276928D01*
X406832Y276834D01*
X406913Y276737D01*
X406991Y276637D01*
X407066Y276535D01*
X407137Y276431D01*
X407205Y276324D01*
X407269Y276216D01*
X407330Y276105D01*
X407388Y275993D01*
X407442Y275879D01*
X407492Y275763D01*
X407539Y275646D01*
X407582Y275527D01*
X407621Y275407D01*
X407657Y275286D01*
X407688Y275163D01*
X407716Y275040D01*
X407740Y274916D01*
X407760Y274791D01*
X407776Y274666D01*
X407788Y274540D01*
X407796Y274414D01*
X407800Y274288D01*
X407800Y274162D01*
X407796Y274036D01*
X407788Y273910D01*
X407776Y273784D01*
X407760Y273659D01*
X407740Y273534D01*
X407716Y273410D01*
X407688Y273287D01*
X407657Y273164D01*
X407621Y273043D01*
X407582Y272923D01*
X407539Y272804D01*
X407492Y272687D01*
X407442Y272571D01*
X407388Y272457D01*
X407330Y272345D01*
X407269Y272234D01*
X407205Y272126D01*
X407137Y272019D01*
X407066Y271915D01*
X406991Y271813D01*
X406913Y271713D01*
X406832Y271616D01*
X406749Y271522D01*
X406662Y271430D01*
X406572Y271341D01*
X406480Y271255D01*
X406385Y271172D01*
X406287Y271092D01*
X406187Y271015D01*
X406084Y270941D01*
X405979Y270871D01*
X405872Y270804D01*
X405763Y270740D01*
X405652Y270680D01*
X405540Y270623D01*
X405425Y270570D01*
X405309Y270520D01*
X405191Y270475D01*
X405072Y270433D01*
X404952Y270394D01*
X404830Y270360D01*
X404708Y270329D01*
X404584Y270303D01*
X404460Y270280D01*
X404335Y270261D01*
X404210Y270246D01*
X404084Y270235D01*
X403958Y270228D01*
X403832Y270225D01*
X403705Y270226D01*
X403579Y270231D01*
X403453Y270240D01*
X403327Y270253D01*
X403202Y270270D01*
X403078Y270291D01*
X402954Y270315D01*
X402831Y270344D01*
X402709Y270377D01*
X402588Y270413D01*
X402468Y270453D01*
X402350Y270497D01*
X402233Y270545D01*
X402117Y270596D01*
X402004Y270651D01*
X401892Y270709D01*
X401782Y270771D01*
X401674Y270837D01*
X401568Y270906D01*
X401464Y270978D01*
X401363Y271053D01*
X401264Y271132D01*
X401168Y271213D01*
X401074Y271298D01*
X400983Y271385D01*
X400895Y271476D01*
X400809Y271569D01*
X400727Y271665D01*
X400648Y271763D01*
X400571Y271864D01*
X400498Y271967D01*
X400429Y272072D01*
X400363Y272180D01*
X400300Y272289D01*
X400240Y272401D01*
X400184Y272514D01*
X400132Y272629D01*
X400084Y272745D01*
X400039Y272864D01*
X399998Y272983D01*
X399960Y273104D01*
X399927Y273225D01*
X399897Y273348D01*
X399872Y273472D01*
X399850Y273596D01*
X399832Y273721D01*
X399818Y273847D01*
X399808Y273973D01*
X399802Y274099D01*
X399800Y274225D01*
X455800Y274225D02*
X455802Y274351D01*
X455808Y274477D01*
X455818Y274603D01*
X455832Y274729D01*
X455850Y274854D01*
X455872Y274978D01*
X455897Y275102D01*
X455927Y275225D01*
X455960Y275346D01*
X455998Y275467D01*
X456039Y275586D01*
X456084Y275705D01*
X456132Y275821D01*
X456184Y275936D01*
X456240Y276049D01*
X456300Y276161D01*
X456363Y276270D01*
X456429Y276378D01*
X456498Y276483D01*
X456571Y276586D01*
X456648Y276687D01*
X456727Y276785D01*
X456809Y276881D01*
X456895Y276974D01*
X456983Y277065D01*
X457074Y277152D01*
X457168Y277237D01*
X457264Y277318D01*
X457363Y277397D01*
X457464Y277472D01*
X457568Y277544D01*
X457674Y277613D01*
X457782Y277679D01*
X457892Y277741D01*
X458004Y277799D01*
X458117Y277854D01*
X458233Y277905D01*
X458350Y277953D01*
X458468Y277997D01*
X458588Y278037D01*
X458709Y278073D01*
X458831Y278106D01*
X458954Y278135D01*
X459078Y278159D01*
X459202Y278180D01*
X459327Y278197D01*
X459453Y278210D01*
X459579Y278219D01*
X459705Y278224D01*
X459832Y278225D01*
X459958Y278222D01*
X460084Y278215D01*
X460210Y278204D01*
X460335Y278189D01*
X460460Y278170D01*
X460584Y278147D01*
X460708Y278121D01*
X460830Y278090D01*
X460952Y278056D01*
X461072Y278017D01*
X461191Y277975D01*
X461309Y277930D01*
X461425Y277880D01*
X461540Y277827D01*
X461652Y277770D01*
X461763Y277710D01*
X461872Y277646D01*
X461979Y277579D01*
X462084Y277509D01*
X462187Y277435D01*
X462287Y277358D01*
X462385Y277278D01*
X462480Y277195D01*
X462572Y277109D01*
X462662Y277020D01*
X462749Y276928D01*
X462832Y276834D01*
X462913Y276737D01*
X462991Y276637D01*
X463066Y276535D01*
X463137Y276431D01*
X463205Y276324D01*
X463269Y276216D01*
X463330Y276105D01*
X463388Y275993D01*
X463442Y275879D01*
X463492Y275763D01*
X463539Y275646D01*
X463582Y275527D01*
X463621Y275407D01*
X463657Y275286D01*
X463688Y275163D01*
X463716Y275040D01*
X463740Y274916D01*
X463760Y274791D01*
X463776Y274666D01*
X463788Y274540D01*
X463796Y274414D01*
X463800Y274288D01*
X463800Y274162D01*
X463796Y274036D01*
X463788Y273910D01*
X463776Y273784D01*
X463760Y273659D01*
X463740Y273534D01*
X463716Y273410D01*
X463688Y273287D01*
X463657Y273164D01*
X463621Y273043D01*
X463582Y272923D01*
X463539Y272804D01*
X463492Y272687D01*
X463442Y272571D01*
X463388Y272457D01*
X463330Y272345D01*
X463269Y272234D01*
X463205Y272126D01*
X463137Y272019D01*
X463066Y271915D01*
X462991Y271813D01*
X462913Y271713D01*
X462832Y271616D01*
X462749Y271522D01*
X462662Y271430D01*
X462572Y271341D01*
X462480Y271255D01*
X462385Y271172D01*
X462287Y271092D01*
X462187Y271015D01*
X462084Y270941D01*
X461979Y270871D01*
X461872Y270804D01*
X461763Y270740D01*
X461652Y270680D01*
X461540Y270623D01*
X461425Y270570D01*
X461309Y270520D01*
X461191Y270475D01*
X461072Y270433D01*
X460952Y270394D01*
X460830Y270360D01*
X460708Y270329D01*
X460584Y270303D01*
X460460Y270280D01*
X460335Y270261D01*
X460210Y270246D01*
X460084Y270235D01*
X459958Y270228D01*
X459832Y270225D01*
X459705Y270226D01*
X459579Y270231D01*
X459453Y270240D01*
X459327Y270253D01*
X459202Y270270D01*
X459078Y270291D01*
X458954Y270315D01*
X458831Y270344D01*
X458709Y270377D01*
X458588Y270413D01*
X458468Y270453D01*
X458350Y270497D01*
X458233Y270545D01*
X458117Y270596D01*
X458004Y270651D01*
X457892Y270709D01*
X457782Y270771D01*
X457674Y270837D01*
X457568Y270906D01*
X457464Y270978D01*
X457363Y271053D01*
X457264Y271132D01*
X457168Y271213D01*
X457074Y271298D01*
X456983Y271385D01*
X456895Y271476D01*
X456809Y271569D01*
X456727Y271665D01*
X456648Y271763D01*
X456571Y271864D01*
X456498Y271967D01*
X456429Y272072D01*
X456363Y272180D01*
X456300Y272289D01*
X456240Y272401D01*
X456184Y272514D01*
X456132Y272629D01*
X456084Y272745D01*
X456039Y272864D01*
X455998Y272983D01*
X455960Y273104D01*
X455927Y273225D01*
X455897Y273348D01*
X455872Y273472D01*
X455850Y273596D01*
X455832Y273721D01*
X455818Y273847D01*
X455808Y273973D01*
X455802Y274099D01*
X455800Y274225D01*
X526800Y274225D02*
X526802Y274351D01*
X526808Y274477D01*
X526818Y274603D01*
X526832Y274729D01*
X526850Y274854D01*
X526872Y274978D01*
X526897Y275102D01*
X526927Y275225D01*
X526960Y275346D01*
X526998Y275467D01*
X527039Y275586D01*
X527084Y275705D01*
X527132Y275821D01*
X527184Y275936D01*
X527240Y276049D01*
X527300Y276161D01*
X527363Y276270D01*
X527429Y276378D01*
X527498Y276483D01*
X527571Y276586D01*
X527648Y276687D01*
X527727Y276785D01*
X527809Y276881D01*
X527895Y276974D01*
X527983Y277065D01*
X528074Y277152D01*
X528168Y277237D01*
X528264Y277318D01*
X528363Y277397D01*
X528464Y277472D01*
X528568Y277544D01*
X528674Y277613D01*
X528782Y277679D01*
X528892Y277741D01*
X529004Y277799D01*
X529117Y277854D01*
X529233Y277905D01*
X529350Y277953D01*
X529468Y277997D01*
X529588Y278037D01*
X529709Y278073D01*
X529831Y278106D01*
X529954Y278135D01*
X530078Y278159D01*
X530202Y278180D01*
X530327Y278197D01*
X530453Y278210D01*
X530579Y278219D01*
X530705Y278224D01*
X530832Y278225D01*
X530958Y278222D01*
X531084Y278215D01*
X531210Y278204D01*
X531335Y278189D01*
X531460Y278170D01*
X531584Y278147D01*
X531708Y278121D01*
X531830Y278090D01*
X531952Y278056D01*
X532072Y278017D01*
X532191Y277975D01*
X532309Y277930D01*
X532425Y277880D01*
X532540Y277827D01*
X532652Y277770D01*
X532763Y277710D01*
X532872Y277646D01*
X532979Y277579D01*
X533084Y277509D01*
X533187Y277435D01*
X533287Y277358D01*
X533385Y277278D01*
X533480Y277195D01*
X533572Y277109D01*
X533662Y277020D01*
X533749Y276928D01*
X533832Y276834D01*
X533913Y276737D01*
X533991Y276637D01*
X534066Y276535D01*
X534137Y276431D01*
X534205Y276324D01*
X534269Y276216D01*
X534330Y276105D01*
X534388Y275993D01*
X534442Y275879D01*
X534492Y275763D01*
X534539Y275646D01*
X534582Y275527D01*
X534621Y275407D01*
X534657Y275286D01*
X534688Y275163D01*
X534716Y275040D01*
X534740Y274916D01*
X534760Y274791D01*
X534776Y274666D01*
X534788Y274540D01*
X534796Y274414D01*
X534800Y274288D01*
X534800Y274162D01*
X534796Y274036D01*
X534788Y273910D01*
X534776Y273784D01*
X534760Y273659D01*
X534740Y273534D01*
X534716Y273410D01*
X534688Y273287D01*
X534657Y273164D01*
X534621Y273043D01*
X534582Y272923D01*
X534539Y272804D01*
X534492Y272687D01*
X534442Y272571D01*
X534388Y272457D01*
X534330Y272345D01*
X534269Y272234D01*
X534205Y272126D01*
X534137Y272019D01*
X534066Y271915D01*
X533991Y271813D01*
X533913Y271713D01*
X533832Y271616D01*
X533749Y271522D01*
X533662Y271430D01*
X533572Y271341D01*
X533480Y271255D01*
X533385Y271172D01*
X533287Y271092D01*
X533187Y271015D01*
X533084Y270941D01*
X532979Y270871D01*
X532872Y270804D01*
X532763Y270740D01*
X532652Y270680D01*
X532540Y270623D01*
X532425Y270570D01*
X532309Y270520D01*
X532191Y270475D01*
X532072Y270433D01*
X531952Y270394D01*
X531830Y270360D01*
X531708Y270329D01*
X531584Y270303D01*
X531460Y270280D01*
X531335Y270261D01*
X531210Y270246D01*
X531084Y270235D01*
X530958Y270228D01*
X530832Y270225D01*
X530705Y270226D01*
X530579Y270231D01*
X530453Y270240D01*
X530327Y270253D01*
X530202Y270270D01*
X530078Y270291D01*
X529954Y270315D01*
X529831Y270344D01*
X529709Y270377D01*
X529588Y270413D01*
X529468Y270453D01*
X529350Y270497D01*
X529233Y270545D01*
X529117Y270596D01*
X529004Y270651D01*
X528892Y270709D01*
X528782Y270771D01*
X528674Y270837D01*
X528568Y270906D01*
X528464Y270978D01*
X528363Y271053D01*
X528264Y271132D01*
X528168Y271213D01*
X528074Y271298D01*
X527983Y271385D01*
X527895Y271476D01*
X527809Y271569D01*
X527727Y271665D01*
X527648Y271763D01*
X527571Y271864D01*
X527498Y271967D01*
X527429Y272072D01*
X527363Y272180D01*
X527300Y272289D01*
X527240Y272401D01*
X527184Y272514D01*
X527132Y272629D01*
X527084Y272745D01*
X527039Y272864D01*
X526998Y272983D01*
X526960Y273104D01*
X526927Y273225D01*
X526897Y273348D01*
X526872Y273472D01*
X526850Y273596D01*
X526832Y273721D01*
X526818Y273847D01*
X526808Y273973D01*
X526802Y274099D01*
X526800Y274225D01*
X582800Y274225D02*
X582802Y274351D01*
X582808Y274477D01*
X582818Y274603D01*
X582832Y274729D01*
X582850Y274854D01*
X582872Y274978D01*
X582897Y275102D01*
X582927Y275225D01*
X582960Y275346D01*
X582998Y275467D01*
X583039Y275586D01*
X583084Y275705D01*
X583132Y275821D01*
X583184Y275936D01*
X583240Y276049D01*
X583300Y276161D01*
X583363Y276270D01*
X583429Y276378D01*
X583498Y276483D01*
X583571Y276586D01*
X583648Y276687D01*
X583727Y276785D01*
X583809Y276881D01*
X583895Y276974D01*
X583983Y277065D01*
X584074Y277152D01*
X584168Y277237D01*
X584264Y277318D01*
X584363Y277397D01*
X584464Y277472D01*
X584568Y277544D01*
X584674Y277613D01*
X584782Y277679D01*
X584892Y277741D01*
X585004Y277799D01*
X585117Y277854D01*
X585233Y277905D01*
X585350Y277953D01*
X585468Y277997D01*
X585588Y278037D01*
X585709Y278073D01*
X585831Y278106D01*
X585954Y278135D01*
X586078Y278159D01*
X586202Y278180D01*
X586327Y278197D01*
X586453Y278210D01*
X586579Y278219D01*
X586705Y278224D01*
X586832Y278225D01*
X586958Y278222D01*
X587084Y278215D01*
X587210Y278204D01*
X587335Y278189D01*
X587460Y278170D01*
X587584Y278147D01*
X587708Y278121D01*
X587830Y278090D01*
X587952Y278056D01*
X588072Y278017D01*
X588191Y277975D01*
X588309Y277930D01*
X588425Y277880D01*
X588540Y277827D01*
X588652Y277770D01*
X588763Y277710D01*
X588872Y277646D01*
X588979Y277579D01*
X589084Y277509D01*
X589187Y277435D01*
X589287Y277358D01*
X589385Y277278D01*
X589480Y277195D01*
X589572Y277109D01*
X589662Y277020D01*
X589749Y276928D01*
X589832Y276834D01*
X589913Y276737D01*
X589991Y276637D01*
X590066Y276535D01*
X590137Y276431D01*
X590205Y276324D01*
X590269Y276216D01*
X590330Y276105D01*
X590388Y275993D01*
X590442Y275879D01*
X590492Y275763D01*
X590539Y275646D01*
X590582Y275527D01*
X590621Y275407D01*
X590657Y275286D01*
X590688Y275163D01*
X590716Y275040D01*
X590740Y274916D01*
X590760Y274791D01*
X590776Y274666D01*
X590788Y274540D01*
X590796Y274414D01*
X590800Y274288D01*
X590800Y274162D01*
X590796Y274036D01*
X590788Y273910D01*
X590776Y273784D01*
X590760Y273659D01*
X590740Y273534D01*
X590716Y273410D01*
X590688Y273287D01*
X590657Y273164D01*
X590621Y273043D01*
X590582Y272923D01*
X590539Y272804D01*
X590492Y272687D01*
X590442Y272571D01*
X590388Y272457D01*
X590330Y272345D01*
X590269Y272234D01*
X590205Y272126D01*
X590137Y272019D01*
X590066Y271915D01*
X589991Y271813D01*
X589913Y271713D01*
X589832Y271616D01*
X589749Y271522D01*
X589662Y271430D01*
X589572Y271341D01*
X589480Y271255D01*
X589385Y271172D01*
X589287Y271092D01*
X589187Y271015D01*
X589084Y270941D01*
X588979Y270871D01*
X588872Y270804D01*
X588763Y270740D01*
X588652Y270680D01*
X588540Y270623D01*
X588425Y270570D01*
X588309Y270520D01*
X588191Y270475D01*
X588072Y270433D01*
X587952Y270394D01*
X587830Y270360D01*
X587708Y270329D01*
X587584Y270303D01*
X587460Y270280D01*
X587335Y270261D01*
X587210Y270246D01*
X587084Y270235D01*
X586958Y270228D01*
X586832Y270225D01*
X586705Y270226D01*
X586579Y270231D01*
X586453Y270240D01*
X586327Y270253D01*
X586202Y270270D01*
X586078Y270291D01*
X585954Y270315D01*
X585831Y270344D01*
X585709Y270377D01*
X585588Y270413D01*
X585468Y270453D01*
X585350Y270497D01*
X585233Y270545D01*
X585117Y270596D01*
X585004Y270651D01*
X584892Y270709D01*
X584782Y270771D01*
X584674Y270837D01*
X584568Y270906D01*
X584464Y270978D01*
X584363Y271053D01*
X584264Y271132D01*
X584168Y271213D01*
X584074Y271298D01*
X583983Y271385D01*
X583895Y271476D01*
X583809Y271569D01*
X583727Y271665D01*
X583648Y271763D01*
X583571Y271864D01*
X583498Y271967D01*
X583429Y272072D01*
X583363Y272180D01*
X583300Y272289D01*
X583240Y272401D01*
X583184Y272514D01*
X583132Y272629D01*
X583084Y272745D01*
X583039Y272864D01*
X582998Y272983D01*
X582960Y273104D01*
X582927Y273225D01*
X582897Y273348D01*
X582872Y273472D01*
X582850Y273596D01*
X582832Y273721D01*
X582818Y273847D01*
X582808Y273973D01*
X582802Y274099D01*
X582800Y274225D01*
X318005Y177260D02*
X318007Y177386D01*
X318013Y177512D01*
X318023Y177638D01*
X318037Y177764D01*
X318055Y177889D01*
X318077Y178013D01*
X318102Y178137D01*
X318132Y178260D01*
X318165Y178381D01*
X318203Y178502D01*
X318244Y178621D01*
X318289Y178740D01*
X318337Y178856D01*
X318389Y178971D01*
X318445Y179084D01*
X318505Y179196D01*
X318568Y179305D01*
X318634Y179413D01*
X318703Y179518D01*
X318776Y179621D01*
X318853Y179722D01*
X318932Y179820D01*
X319014Y179916D01*
X319100Y180009D01*
X319188Y180100D01*
X319279Y180187D01*
X319373Y180272D01*
X319469Y180353D01*
X319568Y180432D01*
X319669Y180507D01*
X319773Y180579D01*
X319879Y180648D01*
X319987Y180714D01*
X320097Y180776D01*
X320209Y180834D01*
X320322Y180889D01*
X320438Y180940D01*
X320555Y180988D01*
X320673Y181032D01*
X320793Y181072D01*
X320914Y181108D01*
X321036Y181141D01*
X321159Y181170D01*
X321283Y181194D01*
X321407Y181215D01*
X321532Y181232D01*
X321658Y181245D01*
X321784Y181254D01*
X321910Y181259D01*
X322037Y181260D01*
X322163Y181257D01*
X322289Y181250D01*
X322415Y181239D01*
X322540Y181224D01*
X322665Y181205D01*
X322789Y181182D01*
X322913Y181156D01*
X323035Y181125D01*
X323157Y181091D01*
X323277Y181052D01*
X323396Y181010D01*
X323514Y180965D01*
X323630Y180915D01*
X323745Y180862D01*
X323857Y180805D01*
X323968Y180745D01*
X324077Y180681D01*
X324184Y180614D01*
X324289Y180544D01*
X324392Y180470D01*
X324492Y180393D01*
X324590Y180313D01*
X324685Y180230D01*
X324777Y180144D01*
X324867Y180055D01*
X324954Y179963D01*
X325037Y179869D01*
X325118Y179772D01*
X325196Y179672D01*
X325271Y179570D01*
X325342Y179466D01*
X325410Y179359D01*
X325474Y179251D01*
X325535Y179140D01*
X325593Y179028D01*
X325647Y178914D01*
X325697Y178798D01*
X325744Y178681D01*
X325787Y178562D01*
X325826Y178442D01*
X325862Y178321D01*
X325893Y178198D01*
X325921Y178075D01*
X325945Y177951D01*
X325965Y177826D01*
X325981Y177701D01*
X325993Y177575D01*
X326001Y177449D01*
X326005Y177323D01*
X326005Y177197D01*
X326001Y177071D01*
X325993Y176945D01*
X325981Y176819D01*
X325965Y176694D01*
X325945Y176569D01*
X325921Y176445D01*
X325893Y176322D01*
X325862Y176199D01*
X325826Y176078D01*
X325787Y175958D01*
X325744Y175839D01*
X325697Y175722D01*
X325647Y175606D01*
X325593Y175492D01*
X325535Y175380D01*
X325474Y175269D01*
X325410Y175161D01*
X325342Y175054D01*
X325271Y174950D01*
X325196Y174848D01*
X325118Y174748D01*
X325037Y174651D01*
X324954Y174557D01*
X324867Y174465D01*
X324777Y174376D01*
X324685Y174290D01*
X324590Y174207D01*
X324492Y174127D01*
X324392Y174050D01*
X324289Y173976D01*
X324184Y173906D01*
X324077Y173839D01*
X323968Y173775D01*
X323857Y173715D01*
X323745Y173658D01*
X323630Y173605D01*
X323514Y173555D01*
X323396Y173510D01*
X323277Y173468D01*
X323157Y173429D01*
X323035Y173395D01*
X322913Y173364D01*
X322789Y173338D01*
X322665Y173315D01*
X322540Y173296D01*
X322415Y173281D01*
X322289Y173270D01*
X322163Y173263D01*
X322037Y173260D01*
X321910Y173261D01*
X321784Y173266D01*
X321658Y173275D01*
X321532Y173288D01*
X321407Y173305D01*
X321283Y173326D01*
X321159Y173350D01*
X321036Y173379D01*
X320914Y173412D01*
X320793Y173448D01*
X320673Y173488D01*
X320555Y173532D01*
X320438Y173580D01*
X320322Y173631D01*
X320209Y173686D01*
X320097Y173744D01*
X319987Y173806D01*
X319879Y173872D01*
X319773Y173941D01*
X319669Y174013D01*
X319568Y174088D01*
X319469Y174167D01*
X319373Y174248D01*
X319279Y174333D01*
X319188Y174420D01*
X319100Y174511D01*
X319014Y174604D01*
X318932Y174700D01*
X318853Y174798D01*
X318776Y174899D01*
X318703Y175002D01*
X318634Y175107D01*
X318568Y175215D01*
X318505Y175324D01*
X318445Y175436D01*
X318389Y175549D01*
X318337Y175664D01*
X318289Y175780D01*
X318244Y175899D01*
X318203Y176018D01*
X318165Y176139D01*
X318132Y176260D01*
X318102Y176383D01*
X318077Y176507D01*
X318055Y176631D01*
X318037Y176756D01*
X318023Y176882D01*
X318013Y177008D01*
X318007Y177134D01*
X318005Y177260D01*
X262005Y177260D02*
X262007Y177386D01*
X262013Y177512D01*
X262023Y177638D01*
X262037Y177764D01*
X262055Y177889D01*
X262077Y178013D01*
X262102Y178137D01*
X262132Y178260D01*
X262165Y178381D01*
X262203Y178502D01*
X262244Y178621D01*
X262289Y178740D01*
X262337Y178856D01*
X262389Y178971D01*
X262445Y179084D01*
X262505Y179196D01*
X262568Y179305D01*
X262634Y179413D01*
X262703Y179518D01*
X262776Y179621D01*
X262853Y179722D01*
X262932Y179820D01*
X263014Y179916D01*
X263100Y180009D01*
X263188Y180100D01*
X263279Y180187D01*
X263373Y180272D01*
X263469Y180353D01*
X263568Y180432D01*
X263669Y180507D01*
X263773Y180579D01*
X263879Y180648D01*
X263987Y180714D01*
X264097Y180776D01*
X264209Y180834D01*
X264322Y180889D01*
X264438Y180940D01*
X264555Y180988D01*
X264673Y181032D01*
X264793Y181072D01*
X264914Y181108D01*
X265036Y181141D01*
X265159Y181170D01*
X265283Y181194D01*
X265407Y181215D01*
X265532Y181232D01*
X265658Y181245D01*
X265784Y181254D01*
X265910Y181259D01*
X266037Y181260D01*
X266163Y181257D01*
X266289Y181250D01*
X266415Y181239D01*
X266540Y181224D01*
X266665Y181205D01*
X266789Y181182D01*
X266913Y181156D01*
X267035Y181125D01*
X267157Y181091D01*
X267277Y181052D01*
X267396Y181010D01*
X267514Y180965D01*
X267630Y180915D01*
X267745Y180862D01*
X267857Y180805D01*
X267968Y180745D01*
X268077Y180681D01*
X268184Y180614D01*
X268289Y180544D01*
X268392Y180470D01*
X268492Y180393D01*
X268590Y180313D01*
X268685Y180230D01*
X268777Y180144D01*
X268867Y180055D01*
X268954Y179963D01*
X269037Y179869D01*
X269118Y179772D01*
X269196Y179672D01*
X269271Y179570D01*
X269342Y179466D01*
X269410Y179359D01*
X269474Y179251D01*
X269535Y179140D01*
X269593Y179028D01*
X269647Y178914D01*
X269697Y178798D01*
X269744Y178681D01*
X269787Y178562D01*
X269826Y178442D01*
X269862Y178321D01*
X269893Y178198D01*
X269921Y178075D01*
X269945Y177951D01*
X269965Y177826D01*
X269981Y177701D01*
X269993Y177575D01*
X270001Y177449D01*
X270005Y177323D01*
X270005Y177197D01*
X270001Y177071D01*
X269993Y176945D01*
X269981Y176819D01*
X269965Y176694D01*
X269945Y176569D01*
X269921Y176445D01*
X269893Y176322D01*
X269862Y176199D01*
X269826Y176078D01*
X269787Y175958D01*
X269744Y175839D01*
X269697Y175722D01*
X269647Y175606D01*
X269593Y175492D01*
X269535Y175380D01*
X269474Y175269D01*
X269410Y175161D01*
X269342Y175054D01*
X269271Y174950D01*
X269196Y174848D01*
X269118Y174748D01*
X269037Y174651D01*
X268954Y174557D01*
X268867Y174465D01*
X268777Y174376D01*
X268685Y174290D01*
X268590Y174207D01*
X268492Y174127D01*
X268392Y174050D01*
X268289Y173976D01*
X268184Y173906D01*
X268077Y173839D01*
X267968Y173775D01*
X267857Y173715D01*
X267745Y173658D01*
X267630Y173605D01*
X267514Y173555D01*
X267396Y173510D01*
X267277Y173468D01*
X267157Y173429D01*
X267035Y173395D01*
X266913Y173364D01*
X266789Y173338D01*
X266665Y173315D01*
X266540Y173296D01*
X266415Y173281D01*
X266289Y173270D01*
X266163Y173263D01*
X266037Y173260D01*
X265910Y173261D01*
X265784Y173266D01*
X265658Y173275D01*
X265532Y173288D01*
X265407Y173305D01*
X265283Y173326D01*
X265159Y173350D01*
X265036Y173379D01*
X264914Y173412D01*
X264793Y173448D01*
X264673Y173488D01*
X264555Y173532D01*
X264438Y173580D01*
X264322Y173631D01*
X264209Y173686D01*
X264097Y173744D01*
X263987Y173806D01*
X263879Y173872D01*
X263773Y173941D01*
X263669Y174013D01*
X263568Y174088D01*
X263469Y174167D01*
X263373Y174248D01*
X263279Y174333D01*
X263188Y174420D01*
X263100Y174511D01*
X263014Y174604D01*
X262932Y174700D01*
X262853Y174798D01*
X262776Y174899D01*
X262703Y175002D01*
X262634Y175107D01*
X262568Y175215D01*
X262505Y175324D01*
X262445Y175436D01*
X262389Y175549D01*
X262337Y175664D01*
X262289Y175780D01*
X262244Y175899D01*
X262203Y176018D01*
X262165Y176139D01*
X262132Y176260D01*
X262102Y176383D01*
X262077Y176507D01*
X262055Y176631D01*
X262037Y176756D01*
X262023Y176882D01*
X262013Y177008D01*
X262007Y177134D01*
X262005Y177260D01*
X323720Y73120D02*
X323722Y73246D01*
X323728Y73372D01*
X323738Y73498D01*
X323752Y73624D01*
X323770Y73749D01*
X323792Y73873D01*
X323817Y73997D01*
X323847Y74120D01*
X323880Y74241D01*
X323918Y74362D01*
X323959Y74481D01*
X324004Y74600D01*
X324052Y74716D01*
X324104Y74831D01*
X324160Y74944D01*
X324220Y75056D01*
X324283Y75165D01*
X324349Y75273D01*
X324418Y75378D01*
X324491Y75481D01*
X324568Y75582D01*
X324647Y75680D01*
X324729Y75776D01*
X324815Y75869D01*
X324903Y75960D01*
X324994Y76047D01*
X325088Y76132D01*
X325184Y76213D01*
X325283Y76292D01*
X325384Y76367D01*
X325488Y76439D01*
X325594Y76508D01*
X325702Y76574D01*
X325812Y76636D01*
X325924Y76694D01*
X326037Y76749D01*
X326153Y76800D01*
X326270Y76848D01*
X326388Y76892D01*
X326508Y76932D01*
X326629Y76968D01*
X326751Y77001D01*
X326874Y77030D01*
X326998Y77054D01*
X327122Y77075D01*
X327247Y77092D01*
X327373Y77105D01*
X327499Y77114D01*
X327625Y77119D01*
X327752Y77120D01*
X327878Y77117D01*
X328004Y77110D01*
X328130Y77099D01*
X328255Y77084D01*
X328380Y77065D01*
X328504Y77042D01*
X328628Y77016D01*
X328750Y76985D01*
X328872Y76951D01*
X328992Y76912D01*
X329111Y76870D01*
X329229Y76825D01*
X329345Y76775D01*
X329460Y76722D01*
X329572Y76665D01*
X329683Y76605D01*
X329792Y76541D01*
X329899Y76474D01*
X330004Y76404D01*
X330107Y76330D01*
X330207Y76253D01*
X330305Y76173D01*
X330400Y76090D01*
X330492Y76004D01*
X330582Y75915D01*
X330669Y75823D01*
X330752Y75729D01*
X330833Y75632D01*
X330911Y75532D01*
X330986Y75430D01*
X331057Y75326D01*
X331125Y75219D01*
X331189Y75111D01*
X331250Y75000D01*
X331308Y74888D01*
X331362Y74774D01*
X331412Y74658D01*
X331459Y74541D01*
X331502Y74422D01*
X331541Y74302D01*
X331577Y74181D01*
X331608Y74058D01*
X331636Y73935D01*
X331660Y73811D01*
X331680Y73686D01*
X331696Y73561D01*
X331708Y73435D01*
X331716Y73309D01*
X331720Y73183D01*
X331720Y73057D01*
X331716Y72931D01*
X331708Y72805D01*
X331696Y72679D01*
X331680Y72554D01*
X331660Y72429D01*
X331636Y72305D01*
X331608Y72182D01*
X331577Y72059D01*
X331541Y71938D01*
X331502Y71818D01*
X331459Y71699D01*
X331412Y71582D01*
X331362Y71466D01*
X331308Y71352D01*
X331250Y71240D01*
X331189Y71129D01*
X331125Y71021D01*
X331057Y70914D01*
X330986Y70810D01*
X330911Y70708D01*
X330833Y70608D01*
X330752Y70511D01*
X330669Y70417D01*
X330582Y70325D01*
X330492Y70236D01*
X330400Y70150D01*
X330305Y70067D01*
X330207Y69987D01*
X330107Y69910D01*
X330004Y69836D01*
X329899Y69766D01*
X329792Y69699D01*
X329683Y69635D01*
X329572Y69575D01*
X329460Y69518D01*
X329345Y69465D01*
X329229Y69415D01*
X329111Y69370D01*
X328992Y69328D01*
X328872Y69289D01*
X328750Y69255D01*
X328628Y69224D01*
X328504Y69198D01*
X328380Y69175D01*
X328255Y69156D01*
X328130Y69141D01*
X328004Y69130D01*
X327878Y69123D01*
X327752Y69120D01*
X327625Y69121D01*
X327499Y69126D01*
X327373Y69135D01*
X327247Y69148D01*
X327122Y69165D01*
X326998Y69186D01*
X326874Y69210D01*
X326751Y69239D01*
X326629Y69272D01*
X326508Y69308D01*
X326388Y69348D01*
X326270Y69392D01*
X326153Y69440D01*
X326037Y69491D01*
X325924Y69546D01*
X325812Y69604D01*
X325702Y69666D01*
X325594Y69732D01*
X325488Y69801D01*
X325384Y69873D01*
X325283Y69948D01*
X325184Y70027D01*
X325088Y70108D01*
X324994Y70193D01*
X324903Y70280D01*
X324815Y70371D01*
X324729Y70464D01*
X324647Y70560D01*
X324568Y70658D01*
X324491Y70759D01*
X324418Y70862D01*
X324349Y70967D01*
X324283Y71075D01*
X324220Y71184D01*
X324160Y71296D01*
X324104Y71409D01*
X324052Y71524D01*
X324004Y71640D01*
X323959Y71759D01*
X323918Y71878D01*
X323880Y71999D01*
X323847Y72120D01*
X323817Y72243D01*
X323792Y72367D01*
X323770Y72491D01*
X323752Y72616D01*
X323738Y72742D01*
X323728Y72868D01*
X323722Y72994D01*
X323720Y73120D01*
X267720Y73120D02*
X267722Y73246D01*
X267728Y73372D01*
X267738Y73498D01*
X267752Y73624D01*
X267770Y73749D01*
X267792Y73873D01*
X267817Y73997D01*
X267847Y74120D01*
X267880Y74241D01*
X267918Y74362D01*
X267959Y74481D01*
X268004Y74600D01*
X268052Y74716D01*
X268104Y74831D01*
X268160Y74944D01*
X268220Y75056D01*
X268283Y75165D01*
X268349Y75273D01*
X268418Y75378D01*
X268491Y75481D01*
X268568Y75582D01*
X268647Y75680D01*
X268729Y75776D01*
X268815Y75869D01*
X268903Y75960D01*
X268994Y76047D01*
X269088Y76132D01*
X269184Y76213D01*
X269283Y76292D01*
X269384Y76367D01*
X269488Y76439D01*
X269594Y76508D01*
X269702Y76574D01*
X269812Y76636D01*
X269924Y76694D01*
X270037Y76749D01*
X270153Y76800D01*
X270270Y76848D01*
X270388Y76892D01*
X270508Y76932D01*
X270629Y76968D01*
X270751Y77001D01*
X270874Y77030D01*
X270998Y77054D01*
X271122Y77075D01*
X271247Y77092D01*
X271373Y77105D01*
X271499Y77114D01*
X271625Y77119D01*
X271752Y77120D01*
X271878Y77117D01*
X272004Y77110D01*
X272130Y77099D01*
X272255Y77084D01*
X272380Y77065D01*
X272504Y77042D01*
X272628Y77016D01*
X272750Y76985D01*
X272872Y76951D01*
X272992Y76912D01*
X273111Y76870D01*
X273229Y76825D01*
X273345Y76775D01*
X273460Y76722D01*
X273572Y76665D01*
X273683Y76605D01*
X273792Y76541D01*
X273899Y76474D01*
X274004Y76404D01*
X274107Y76330D01*
X274207Y76253D01*
X274305Y76173D01*
X274400Y76090D01*
X274492Y76004D01*
X274582Y75915D01*
X274669Y75823D01*
X274752Y75729D01*
X274833Y75632D01*
X274911Y75532D01*
X274986Y75430D01*
X275057Y75326D01*
X275125Y75219D01*
X275189Y75111D01*
X275250Y75000D01*
X275308Y74888D01*
X275362Y74774D01*
X275412Y74658D01*
X275459Y74541D01*
X275502Y74422D01*
X275541Y74302D01*
X275577Y74181D01*
X275608Y74058D01*
X275636Y73935D01*
X275660Y73811D01*
X275680Y73686D01*
X275696Y73561D01*
X275708Y73435D01*
X275716Y73309D01*
X275720Y73183D01*
X275720Y73057D01*
X275716Y72931D01*
X275708Y72805D01*
X275696Y72679D01*
X275680Y72554D01*
X275660Y72429D01*
X275636Y72305D01*
X275608Y72182D01*
X275577Y72059D01*
X275541Y71938D01*
X275502Y71818D01*
X275459Y71699D01*
X275412Y71582D01*
X275362Y71466D01*
X275308Y71352D01*
X275250Y71240D01*
X275189Y71129D01*
X275125Y71021D01*
X275057Y70914D01*
X274986Y70810D01*
X274911Y70708D01*
X274833Y70608D01*
X274752Y70511D01*
X274669Y70417D01*
X274582Y70325D01*
X274492Y70236D01*
X274400Y70150D01*
X274305Y70067D01*
X274207Y69987D01*
X274107Y69910D01*
X274004Y69836D01*
X273899Y69766D01*
X273792Y69699D01*
X273683Y69635D01*
X273572Y69575D01*
X273460Y69518D01*
X273345Y69465D01*
X273229Y69415D01*
X273111Y69370D01*
X272992Y69328D01*
X272872Y69289D01*
X272750Y69255D01*
X272628Y69224D01*
X272504Y69198D01*
X272380Y69175D01*
X272255Y69156D01*
X272130Y69141D01*
X272004Y69130D01*
X271878Y69123D01*
X271752Y69120D01*
X271625Y69121D01*
X271499Y69126D01*
X271373Y69135D01*
X271247Y69148D01*
X271122Y69165D01*
X270998Y69186D01*
X270874Y69210D01*
X270751Y69239D01*
X270629Y69272D01*
X270508Y69308D01*
X270388Y69348D01*
X270270Y69392D01*
X270153Y69440D01*
X270037Y69491D01*
X269924Y69546D01*
X269812Y69604D01*
X269702Y69666D01*
X269594Y69732D01*
X269488Y69801D01*
X269384Y69873D01*
X269283Y69948D01*
X269184Y70027D01*
X269088Y70108D01*
X268994Y70193D01*
X268903Y70280D01*
X268815Y70371D01*
X268729Y70464D01*
X268647Y70560D01*
X268568Y70658D01*
X268491Y70759D01*
X268418Y70862D01*
X268349Y70967D01*
X268283Y71075D01*
X268220Y71184D01*
X268160Y71296D01*
X268104Y71409D01*
X268052Y71524D01*
X268004Y71640D01*
X267959Y71759D01*
X267918Y71878D01*
X267880Y71999D01*
X267847Y72120D01*
X267817Y72243D01*
X267792Y72367D01*
X267770Y72491D01*
X267752Y72616D01*
X267738Y72742D01*
X267728Y72868D01*
X267722Y72994D01*
X267720Y73120D01*
X318640Y240760D02*
X318642Y240886D01*
X318648Y241012D01*
X318658Y241138D01*
X318672Y241264D01*
X318690Y241389D01*
X318712Y241513D01*
X318737Y241637D01*
X318767Y241760D01*
X318800Y241881D01*
X318838Y242002D01*
X318879Y242121D01*
X318924Y242240D01*
X318972Y242356D01*
X319024Y242471D01*
X319080Y242584D01*
X319140Y242696D01*
X319203Y242805D01*
X319269Y242913D01*
X319338Y243018D01*
X319411Y243121D01*
X319488Y243222D01*
X319567Y243320D01*
X319649Y243416D01*
X319735Y243509D01*
X319823Y243600D01*
X319914Y243687D01*
X320008Y243772D01*
X320104Y243853D01*
X320203Y243932D01*
X320304Y244007D01*
X320408Y244079D01*
X320514Y244148D01*
X320622Y244214D01*
X320732Y244276D01*
X320844Y244334D01*
X320957Y244389D01*
X321073Y244440D01*
X321190Y244488D01*
X321308Y244532D01*
X321428Y244572D01*
X321549Y244608D01*
X321671Y244641D01*
X321794Y244670D01*
X321918Y244694D01*
X322042Y244715D01*
X322167Y244732D01*
X322293Y244745D01*
X322419Y244754D01*
X322545Y244759D01*
X322672Y244760D01*
X322798Y244757D01*
X322924Y244750D01*
X323050Y244739D01*
X323175Y244724D01*
X323300Y244705D01*
X323424Y244682D01*
X323548Y244656D01*
X323670Y244625D01*
X323792Y244591D01*
X323912Y244552D01*
X324031Y244510D01*
X324149Y244465D01*
X324265Y244415D01*
X324380Y244362D01*
X324492Y244305D01*
X324603Y244245D01*
X324712Y244181D01*
X324819Y244114D01*
X324924Y244044D01*
X325027Y243970D01*
X325127Y243893D01*
X325225Y243813D01*
X325320Y243730D01*
X325412Y243644D01*
X325502Y243555D01*
X325589Y243463D01*
X325672Y243369D01*
X325753Y243272D01*
X325831Y243172D01*
X325906Y243070D01*
X325977Y242966D01*
X326045Y242859D01*
X326109Y242751D01*
X326170Y242640D01*
X326228Y242528D01*
X326282Y242414D01*
X326332Y242298D01*
X326379Y242181D01*
X326422Y242062D01*
X326461Y241942D01*
X326497Y241821D01*
X326528Y241698D01*
X326556Y241575D01*
X326580Y241451D01*
X326600Y241326D01*
X326616Y241201D01*
X326628Y241075D01*
X326636Y240949D01*
X326640Y240823D01*
X326640Y240697D01*
X326636Y240571D01*
X326628Y240445D01*
X326616Y240319D01*
X326600Y240194D01*
X326580Y240069D01*
X326556Y239945D01*
X326528Y239822D01*
X326497Y239699D01*
X326461Y239578D01*
X326422Y239458D01*
X326379Y239339D01*
X326332Y239222D01*
X326282Y239106D01*
X326228Y238992D01*
X326170Y238880D01*
X326109Y238769D01*
X326045Y238661D01*
X325977Y238554D01*
X325906Y238450D01*
X325831Y238348D01*
X325753Y238248D01*
X325672Y238151D01*
X325589Y238057D01*
X325502Y237965D01*
X325412Y237876D01*
X325320Y237790D01*
X325225Y237707D01*
X325127Y237627D01*
X325027Y237550D01*
X324924Y237476D01*
X324819Y237406D01*
X324712Y237339D01*
X324603Y237275D01*
X324492Y237215D01*
X324380Y237158D01*
X324265Y237105D01*
X324149Y237055D01*
X324031Y237010D01*
X323912Y236968D01*
X323792Y236929D01*
X323670Y236895D01*
X323548Y236864D01*
X323424Y236838D01*
X323300Y236815D01*
X323175Y236796D01*
X323050Y236781D01*
X322924Y236770D01*
X322798Y236763D01*
X322672Y236760D01*
X322545Y236761D01*
X322419Y236766D01*
X322293Y236775D01*
X322167Y236788D01*
X322042Y236805D01*
X321918Y236826D01*
X321794Y236850D01*
X321671Y236879D01*
X321549Y236912D01*
X321428Y236948D01*
X321308Y236988D01*
X321190Y237032D01*
X321073Y237080D01*
X320957Y237131D01*
X320844Y237186D01*
X320732Y237244D01*
X320622Y237306D01*
X320514Y237372D01*
X320408Y237441D01*
X320304Y237513D01*
X320203Y237588D01*
X320104Y237667D01*
X320008Y237748D01*
X319914Y237833D01*
X319823Y237920D01*
X319735Y238011D01*
X319649Y238104D01*
X319567Y238200D01*
X319488Y238298D01*
X319411Y238399D01*
X319338Y238502D01*
X319269Y238607D01*
X319203Y238715D01*
X319140Y238824D01*
X319080Y238936D01*
X319024Y239049D01*
X318972Y239164D01*
X318924Y239280D01*
X318879Y239399D01*
X318838Y239518D01*
X318800Y239639D01*
X318767Y239760D01*
X318737Y239883D01*
X318712Y240007D01*
X318690Y240131D01*
X318672Y240256D01*
X318658Y240382D01*
X318648Y240508D01*
X318642Y240634D01*
X318640Y240760D01*
X262640Y240760D02*
X262642Y240886D01*
X262648Y241012D01*
X262658Y241138D01*
X262672Y241264D01*
X262690Y241389D01*
X262712Y241513D01*
X262737Y241637D01*
X262767Y241760D01*
X262800Y241881D01*
X262838Y242002D01*
X262879Y242121D01*
X262924Y242240D01*
X262972Y242356D01*
X263024Y242471D01*
X263080Y242584D01*
X263140Y242696D01*
X263203Y242805D01*
X263269Y242913D01*
X263338Y243018D01*
X263411Y243121D01*
X263488Y243222D01*
X263567Y243320D01*
X263649Y243416D01*
X263735Y243509D01*
X263823Y243600D01*
X263914Y243687D01*
X264008Y243772D01*
X264104Y243853D01*
X264203Y243932D01*
X264304Y244007D01*
X264408Y244079D01*
X264514Y244148D01*
X264622Y244214D01*
X264732Y244276D01*
X264844Y244334D01*
X264957Y244389D01*
X265073Y244440D01*
X265190Y244488D01*
X265308Y244532D01*
X265428Y244572D01*
X265549Y244608D01*
X265671Y244641D01*
X265794Y244670D01*
X265918Y244694D01*
X266042Y244715D01*
X266167Y244732D01*
X266293Y244745D01*
X266419Y244754D01*
X266545Y244759D01*
X266672Y244760D01*
X266798Y244757D01*
X266924Y244750D01*
X267050Y244739D01*
X267175Y244724D01*
X267300Y244705D01*
X267424Y244682D01*
X267548Y244656D01*
X267670Y244625D01*
X267792Y244591D01*
X267912Y244552D01*
X268031Y244510D01*
X268149Y244465D01*
X268265Y244415D01*
X268380Y244362D01*
X268492Y244305D01*
X268603Y244245D01*
X268712Y244181D01*
X268819Y244114D01*
X268924Y244044D01*
X269027Y243970D01*
X269127Y243893D01*
X269225Y243813D01*
X269320Y243730D01*
X269412Y243644D01*
X269502Y243555D01*
X269589Y243463D01*
X269672Y243369D01*
X269753Y243272D01*
X269831Y243172D01*
X269906Y243070D01*
X269977Y242966D01*
X270045Y242859D01*
X270109Y242751D01*
X270170Y242640D01*
X270228Y242528D01*
X270282Y242414D01*
X270332Y242298D01*
X270379Y242181D01*
X270422Y242062D01*
X270461Y241942D01*
X270497Y241821D01*
X270528Y241698D01*
X270556Y241575D01*
X270580Y241451D01*
X270600Y241326D01*
X270616Y241201D01*
X270628Y241075D01*
X270636Y240949D01*
X270640Y240823D01*
X270640Y240697D01*
X270636Y240571D01*
X270628Y240445D01*
X270616Y240319D01*
X270600Y240194D01*
X270580Y240069D01*
X270556Y239945D01*
X270528Y239822D01*
X270497Y239699D01*
X270461Y239578D01*
X270422Y239458D01*
X270379Y239339D01*
X270332Y239222D01*
X270282Y239106D01*
X270228Y238992D01*
X270170Y238880D01*
X270109Y238769D01*
X270045Y238661D01*
X269977Y238554D01*
X269906Y238450D01*
X269831Y238348D01*
X269753Y238248D01*
X269672Y238151D01*
X269589Y238057D01*
X269502Y237965D01*
X269412Y237876D01*
X269320Y237790D01*
X269225Y237707D01*
X269127Y237627D01*
X269027Y237550D01*
X268924Y237476D01*
X268819Y237406D01*
X268712Y237339D01*
X268603Y237275D01*
X268492Y237215D01*
X268380Y237158D01*
X268265Y237105D01*
X268149Y237055D01*
X268031Y237010D01*
X267912Y236968D01*
X267792Y236929D01*
X267670Y236895D01*
X267548Y236864D01*
X267424Y236838D01*
X267300Y236815D01*
X267175Y236796D01*
X267050Y236781D01*
X266924Y236770D01*
X266798Y236763D01*
X266672Y236760D01*
X266545Y236761D01*
X266419Y236766D01*
X266293Y236775D01*
X266167Y236788D01*
X266042Y236805D01*
X265918Y236826D01*
X265794Y236850D01*
X265671Y236879D01*
X265549Y236912D01*
X265428Y236948D01*
X265308Y236988D01*
X265190Y237032D01*
X265073Y237080D01*
X264957Y237131D01*
X264844Y237186D01*
X264732Y237244D01*
X264622Y237306D01*
X264514Y237372D01*
X264408Y237441D01*
X264304Y237513D01*
X264203Y237588D01*
X264104Y237667D01*
X264008Y237748D01*
X263914Y237833D01*
X263823Y237920D01*
X263735Y238011D01*
X263649Y238104D01*
X263567Y238200D01*
X263488Y238298D01*
X263411Y238399D01*
X263338Y238502D01*
X263269Y238607D01*
X263203Y238715D01*
X263140Y238824D01*
X263080Y238936D01*
X263024Y239049D01*
X262972Y239164D01*
X262924Y239280D01*
X262879Y239399D01*
X262838Y239518D01*
X262800Y239639D01*
X262767Y239760D01*
X262737Y239883D01*
X262712Y240007D01*
X262690Y240131D01*
X262672Y240256D01*
X262658Y240382D01*
X262648Y240508D01*
X262642Y240634D01*
X262640Y240760D01*
X143750Y50800D02*
X143755Y51168D01*
X143768Y51536D01*
X143791Y51903D01*
X143822Y52270D01*
X143863Y52636D01*
X143912Y53001D01*
X143971Y53364D01*
X144038Y53726D01*
X144114Y54087D01*
X144200Y54445D01*
X144293Y54801D01*
X144396Y55154D01*
X144507Y55505D01*
X144627Y55853D01*
X144755Y56198D01*
X144892Y56540D01*
X145037Y56879D01*
X145190Y57213D01*
X145352Y57544D01*
X145521Y57871D01*
X145699Y58193D01*
X145884Y58512D01*
X146077Y58825D01*
X146278Y59134D01*
X146486Y59437D01*
X146702Y59735D01*
X146925Y60028D01*
X147155Y60316D01*
X147392Y60598D01*
X147636Y60873D01*
X147886Y61143D01*
X148143Y61407D01*
X148407Y61664D01*
X148677Y61914D01*
X148952Y62158D01*
X149234Y62395D01*
X149522Y62625D01*
X149815Y62848D01*
X150113Y63064D01*
X150416Y63272D01*
X150725Y63473D01*
X151038Y63666D01*
X151357Y63851D01*
X151679Y64029D01*
X152006Y64198D01*
X152337Y64360D01*
X152671Y64513D01*
X153010Y64658D01*
X153352Y64795D01*
X153697Y64923D01*
X154045Y65043D01*
X154396Y65154D01*
X154749Y65257D01*
X155105Y65350D01*
X155463Y65436D01*
X155824Y65512D01*
X156186Y65579D01*
X156549Y65638D01*
X156914Y65687D01*
X157280Y65728D01*
X157647Y65759D01*
X158014Y65782D01*
X158382Y65795D01*
X158750Y65800D01*
X159118Y65795D01*
X159486Y65782D01*
X159853Y65759D01*
X160220Y65728D01*
X160586Y65687D01*
X160951Y65638D01*
X161314Y65579D01*
X161676Y65512D01*
X162037Y65436D01*
X162395Y65350D01*
X162751Y65257D01*
X163104Y65154D01*
X163455Y65043D01*
X163803Y64923D01*
X164148Y64795D01*
X164490Y64658D01*
X164829Y64513D01*
X165163Y64360D01*
X165494Y64198D01*
X165821Y64029D01*
X166143Y63851D01*
X166462Y63666D01*
X166775Y63473D01*
X167084Y63272D01*
X167387Y63064D01*
X167685Y62848D01*
X167978Y62625D01*
X168266Y62395D01*
X168548Y62158D01*
X168823Y61914D01*
X169093Y61664D01*
X169357Y61407D01*
X169614Y61143D01*
X169864Y60873D01*
X170108Y60598D01*
X170345Y60316D01*
X170575Y60028D01*
X170798Y59735D01*
X171014Y59437D01*
X171222Y59134D01*
X171423Y58825D01*
X171616Y58512D01*
X171801Y58193D01*
X171979Y57871D01*
X172148Y57544D01*
X172310Y57213D01*
X172463Y56879D01*
X172608Y56540D01*
X172745Y56198D01*
X172873Y55853D01*
X172993Y55505D01*
X173104Y55154D01*
X173207Y54801D01*
X173300Y54445D01*
X173386Y54087D01*
X173462Y53726D01*
X173529Y53364D01*
X173588Y53001D01*
X173637Y52636D01*
X173678Y52270D01*
X173709Y51903D01*
X173732Y51536D01*
X173745Y51168D01*
X173750Y50800D01*
X173745Y50432D01*
X173732Y50064D01*
X173709Y49697D01*
X173678Y49330D01*
X173637Y48964D01*
X173588Y48599D01*
X173529Y48236D01*
X173462Y47874D01*
X173386Y47513D01*
X173300Y47155D01*
X173207Y46799D01*
X173104Y46446D01*
X172993Y46095D01*
X172873Y45747D01*
X172745Y45402D01*
X172608Y45060D01*
X172463Y44721D01*
X172310Y44387D01*
X172148Y44056D01*
X171979Y43729D01*
X171801Y43407D01*
X171616Y43088D01*
X171423Y42775D01*
X171222Y42466D01*
X171014Y42163D01*
X170798Y41865D01*
X170575Y41572D01*
X170345Y41284D01*
X170108Y41002D01*
X169864Y40727D01*
X169614Y40457D01*
X169357Y40193D01*
X169093Y39936D01*
X168823Y39686D01*
X168548Y39442D01*
X168266Y39205D01*
X167978Y38975D01*
X167685Y38752D01*
X167387Y38536D01*
X167084Y38328D01*
X166775Y38127D01*
X166462Y37934D01*
X166143Y37749D01*
X165821Y37571D01*
X165494Y37402D01*
X165163Y37240D01*
X164829Y37087D01*
X164490Y36942D01*
X164148Y36805D01*
X163803Y36677D01*
X163455Y36557D01*
X163104Y36446D01*
X162751Y36343D01*
X162395Y36250D01*
X162037Y36164D01*
X161676Y36088D01*
X161314Y36021D01*
X160951Y35962D01*
X160586Y35913D01*
X160220Y35872D01*
X159853Y35841D01*
X159486Y35818D01*
X159118Y35805D01*
X158750Y35800D01*
X158382Y35805D01*
X158014Y35818D01*
X157647Y35841D01*
X157280Y35872D01*
X156914Y35913D01*
X156549Y35962D01*
X156186Y36021D01*
X155824Y36088D01*
X155463Y36164D01*
X155105Y36250D01*
X154749Y36343D01*
X154396Y36446D01*
X154045Y36557D01*
X153697Y36677D01*
X153352Y36805D01*
X153010Y36942D01*
X152671Y37087D01*
X152337Y37240D01*
X152006Y37402D01*
X151679Y37571D01*
X151357Y37749D01*
X151038Y37934D01*
X150725Y38127D01*
X150416Y38328D01*
X150113Y38536D01*
X149815Y38752D01*
X149522Y38975D01*
X149234Y39205D01*
X148952Y39442D01*
X148677Y39686D01*
X148407Y39936D01*
X148143Y40193D01*
X147886Y40457D01*
X147636Y40727D01*
X147392Y41002D01*
X147155Y41284D01*
X146925Y41572D01*
X146702Y41865D01*
X146486Y42163D01*
X146278Y42466D01*
X146077Y42775D01*
X145884Y43088D01*
X145699Y43407D01*
X145521Y43729D01*
X145352Y44056D01*
X145190Y44387D01*
X145037Y44721D01*
X144892Y45060D01*
X144755Y45402D01*
X144627Y45747D01*
X144507Y46095D01*
X144396Y46446D01*
X144293Y46799D01*
X144200Y47155D01*
X144114Y47513D01*
X144038Y47874D01*
X143971Y48236D01*
X143912Y48599D01*
X143863Y48964D01*
X143822Y49330D01*
X143791Y49697D01*
X143768Y50064D01*
X143755Y50432D01*
X143750Y50800D01*
X461250Y50800D02*
X461255Y51168D01*
X461268Y51536D01*
X461291Y51903D01*
X461322Y52270D01*
X461363Y52636D01*
X461412Y53001D01*
X461471Y53364D01*
X461538Y53726D01*
X461614Y54087D01*
X461700Y54445D01*
X461793Y54801D01*
X461896Y55154D01*
X462007Y55505D01*
X462127Y55853D01*
X462255Y56198D01*
X462392Y56540D01*
X462537Y56879D01*
X462690Y57213D01*
X462852Y57544D01*
X463021Y57871D01*
X463199Y58193D01*
X463384Y58512D01*
X463577Y58825D01*
X463778Y59134D01*
X463986Y59437D01*
X464202Y59735D01*
X464425Y60028D01*
X464655Y60316D01*
X464892Y60598D01*
X465136Y60873D01*
X465386Y61143D01*
X465643Y61407D01*
X465907Y61664D01*
X466177Y61914D01*
X466452Y62158D01*
X466734Y62395D01*
X467022Y62625D01*
X467315Y62848D01*
X467613Y63064D01*
X467916Y63272D01*
X468225Y63473D01*
X468538Y63666D01*
X468857Y63851D01*
X469179Y64029D01*
X469506Y64198D01*
X469837Y64360D01*
X470171Y64513D01*
X470510Y64658D01*
X470852Y64795D01*
X471197Y64923D01*
X471545Y65043D01*
X471896Y65154D01*
X472249Y65257D01*
X472605Y65350D01*
X472963Y65436D01*
X473324Y65512D01*
X473686Y65579D01*
X474049Y65638D01*
X474414Y65687D01*
X474780Y65728D01*
X475147Y65759D01*
X475514Y65782D01*
X475882Y65795D01*
X476250Y65800D01*
X476618Y65795D01*
X476986Y65782D01*
X477353Y65759D01*
X477720Y65728D01*
X478086Y65687D01*
X478451Y65638D01*
X478814Y65579D01*
X479176Y65512D01*
X479537Y65436D01*
X479895Y65350D01*
X480251Y65257D01*
X480604Y65154D01*
X480955Y65043D01*
X481303Y64923D01*
X481648Y64795D01*
X481990Y64658D01*
X482329Y64513D01*
X482663Y64360D01*
X482994Y64198D01*
X483321Y64029D01*
X483643Y63851D01*
X483962Y63666D01*
X484275Y63473D01*
X484584Y63272D01*
X484887Y63064D01*
X485185Y62848D01*
X485478Y62625D01*
X485766Y62395D01*
X486048Y62158D01*
X486323Y61914D01*
X486593Y61664D01*
X486857Y61407D01*
X487114Y61143D01*
X487364Y60873D01*
X487608Y60598D01*
X487845Y60316D01*
X488075Y60028D01*
X488298Y59735D01*
X488514Y59437D01*
X488722Y59134D01*
X488923Y58825D01*
X489116Y58512D01*
X489301Y58193D01*
X489479Y57871D01*
X489648Y57544D01*
X489810Y57213D01*
X489963Y56879D01*
X490108Y56540D01*
X490245Y56198D01*
X490373Y55853D01*
X490493Y55505D01*
X490604Y55154D01*
X490707Y54801D01*
X490800Y54445D01*
X490886Y54087D01*
X490962Y53726D01*
X491029Y53364D01*
X491088Y53001D01*
X491137Y52636D01*
X491178Y52270D01*
X491209Y51903D01*
X491232Y51536D01*
X491245Y51168D01*
X491250Y50800D01*
X491245Y50432D01*
X491232Y50064D01*
X491209Y49697D01*
X491178Y49330D01*
X491137Y48964D01*
X491088Y48599D01*
X491029Y48236D01*
X490962Y47874D01*
X490886Y47513D01*
X490800Y47155D01*
X490707Y46799D01*
X490604Y46446D01*
X490493Y46095D01*
X490373Y45747D01*
X490245Y45402D01*
X490108Y45060D01*
X489963Y44721D01*
X489810Y44387D01*
X489648Y44056D01*
X489479Y43729D01*
X489301Y43407D01*
X489116Y43088D01*
X488923Y42775D01*
X488722Y42466D01*
X488514Y42163D01*
X488298Y41865D01*
X488075Y41572D01*
X487845Y41284D01*
X487608Y41002D01*
X487364Y40727D01*
X487114Y40457D01*
X486857Y40193D01*
X486593Y39936D01*
X486323Y39686D01*
X486048Y39442D01*
X485766Y39205D01*
X485478Y38975D01*
X485185Y38752D01*
X484887Y38536D01*
X484584Y38328D01*
X484275Y38127D01*
X483962Y37934D01*
X483643Y37749D01*
X483321Y37571D01*
X482994Y37402D01*
X482663Y37240D01*
X482329Y37087D01*
X481990Y36942D01*
X481648Y36805D01*
X481303Y36677D01*
X480955Y36557D01*
X480604Y36446D01*
X480251Y36343D01*
X479895Y36250D01*
X479537Y36164D01*
X479176Y36088D01*
X478814Y36021D01*
X478451Y35962D01*
X478086Y35913D01*
X477720Y35872D01*
X477353Y35841D01*
X476986Y35818D01*
X476618Y35805D01*
X476250Y35800D01*
X475882Y35805D01*
X475514Y35818D01*
X475147Y35841D01*
X474780Y35872D01*
X474414Y35913D01*
X474049Y35962D01*
X473686Y36021D01*
X473324Y36088D01*
X472963Y36164D01*
X472605Y36250D01*
X472249Y36343D01*
X471896Y36446D01*
X471545Y36557D01*
X471197Y36677D01*
X470852Y36805D01*
X470510Y36942D01*
X470171Y37087D01*
X469837Y37240D01*
X469506Y37402D01*
X469179Y37571D01*
X468857Y37749D01*
X468538Y37934D01*
X468225Y38127D01*
X467916Y38328D01*
X467613Y38536D01*
X467315Y38752D01*
X467022Y38975D01*
X466734Y39205D01*
X466452Y39442D01*
X466177Y39686D01*
X465907Y39936D01*
X465643Y40193D01*
X465386Y40457D01*
X465136Y40727D01*
X464892Y41002D01*
X464655Y41284D01*
X464425Y41572D01*
X464202Y41865D01*
X463986Y42163D01*
X463778Y42466D01*
X463577Y42775D01*
X463384Y43088D01*
X463199Y43407D01*
X463021Y43729D01*
X462852Y44056D01*
X462690Y44387D01*
X462537Y44721D01*
X462392Y45060D01*
X462255Y45402D01*
X462127Y45747D01*
X462007Y46095D01*
X461896Y46446D01*
X461793Y46799D01*
X461700Y47155D01*
X461614Y47513D01*
X461538Y47874D01*
X461471Y48236D01*
X461412Y48599D01*
X461363Y48964D01*
X461322Y49330D01*
X461291Y49697D01*
X461268Y50064D01*
X461255Y50432D01*
X461250Y50800D01*
X26910Y241300D02*
X26915Y241668D01*
X26928Y242036D01*
X26951Y242403D01*
X26982Y242770D01*
X27023Y243136D01*
X27072Y243501D01*
X27131Y243864D01*
X27198Y244226D01*
X27274Y244587D01*
X27360Y244945D01*
X27453Y245301D01*
X27556Y245654D01*
X27667Y246005D01*
X27787Y246353D01*
X27915Y246698D01*
X28052Y247040D01*
X28197Y247379D01*
X28350Y247713D01*
X28512Y248044D01*
X28681Y248371D01*
X28859Y248693D01*
X29044Y249012D01*
X29237Y249325D01*
X29438Y249634D01*
X29646Y249937D01*
X29862Y250235D01*
X30085Y250528D01*
X30315Y250816D01*
X30552Y251098D01*
X30796Y251373D01*
X31046Y251643D01*
X31303Y251907D01*
X31567Y252164D01*
X31837Y252414D01*
X32112Y252658D01*
X32394Y252895D01*
X32682Y253125D01*
X32975Y253348D01*
X33273Y253564D01*
X33576Y253772D01*
X33885Y253973D01*
X34198Y254166D01*
X34517Y254351D01*
X34839Y254529D01*
X35166Y254698D01*
X35497Y254860D01*
X35831Y255013D01*
X36170Y255158D01*
X36512Y255295D01*
X36857Y255423D01*
X37205Y255543D01*
X37556Y255654D01*
X37909Y255757D01*
X38265Y255850D01*
X38623Y255936D01*
X38984Y256012D01*
X39346Y256079D01*
X39709Y256138D01*
X40074Y256187D01*
X40440Y256228D01*
X40807Y256259D01*
X41174Y256282D01*
X41542Y256295D01*
X41910Y256300D01*
X42278Y256295D01*
X42646Y256282D01*
X43013Y256259D01*
X43380Y256228D01*
X43746Y256187D01*
X44111Y256138D01*
X44474Y256079D01*
X44836Y256012D01*
X45197Y255936D01*
X45555Y255850D01*
X45911Y255757D01*
X46264Y255654D01*
X46615Y255543D01*
X46963Y255423D01*
X47308Y255295D01*
X47650Y255158D01*
X47989Y255013D01*
X48323Y254860D01*
X48654Y254698D01*
X48981Y254529D01*
X49303Y254351D01*
X49622Y254166D01*
X49935Y253973D01*
X50244Y253772D01*
X50547Y253564D01*
X50845Y253348D01*
X51138Y253125D01*
X51426Y252895D01*
X51708Y252658D01*
X51983Y252414D01*
X52253Y252164D01*
X52517Y251907D01*
X52774Y251643D01*
X53024Y251373D01*
X53268Y251098D01*
X53505Y250816D01*
X53735Y250528D01*
X53958Y250235D01*
X54174Y249937D01*
X54382Y249634D01*
X54583Y249325D01*
X54776Y249012D01*
X54961Y248693D01*
X55139Y248371D01*
X55308Y248044D01*
X55470Y247713D01*
X55623Y247379D01*
X55768Y247040D01*
X55905Y246698D01*
X56033Y246353D01*
X56153Y246005D01*
X56264Y245654D01*
X56367Y245301D01*
X56460Y244945D01*
X56546Y244587D01*
X56622Y244226D01*
X56689Y243864D01*
X56748Y243501D01*
X56797Y243136D01*
X56838Y242770D01*
X56869Y242403D01*
X56892Y242036D01*
X56905Y241668D01*
X56910Y241300D01*
X56905Y240932D01*
X56892Y240564D01*
X56869Y240197D01*
X56838Y239830D01*
X56797Y239464D01*
X56748Y239099D01*
X56689Y238736D01*
X56622Y238374D01*
X56546Y238013D01*
X56460Y237655D01*
X56367Y237299D01*
X56264Y236946D01*
X56153Y236595D01*
X56033Y236247D01*
X55905Y235902D01*
X55768Y235560D01*
X55623Y235221D01*
X55470Y234887D01*
X55308Y234556D01*
X55139Y234229D01*
X54961Y233907D01*
X54776Y233588D01*
X54583Y233275D01*
X54382Y232966D01*
X54174Y232663D01*
X53958Y232365D01*
X53735Y232072D01*
X53505Y231784D01*
X53268Y231502D01*
X53024Y231227D01*
X52774Y230957D01*
X52517Y230693D01*
X52253Y230436D01*
X51983Y230186D01*
X51708Y229942D01*
X51426Y229705D01*
X51138Y229475D01*
X50845Y229252D01*
X50547Y229036D01*
X50244Y228828D01*
X49935Y228627D01*
X49622Y228434D01*
X49303Y228249D01*
X48981Y228071D01*
X48654Y227902D01*
X48323Y227740D01*
X47989Y227587D01*
X47650Y227442D01*
X47308Y227305D01*
X46963Y227177D01*
X46615Y227057D01*
X46264Y226946D01*
X45911Y226843D01*
X45555Y226750D01*
X45197Y226664D01*
X44836Y226588D01*
X44474Y226521D01*
X44111Y226462D01*
X43746Y226413D01*
X43380Y226372D01*
X43013Y226341D01*
X42646Y226318D01*
X42278Y226305D01*
X41910Y226300D01*
X41542Y226305D01*
X41174Y226318D01*
X40807Y226341D01*
X40440Y226372D01*
X40074Y226413D01*
X39709Y226462D01*
X39346Y226521D01*
X38984Y226588D01*
X38623Y226664D01*
X38265Y226750D01*
X37909Y226843D01*
X37556Y226946D01*
X37205Y227057D01*
X36857Y227177D01*
X36512Y227305D01*
X36170Y227442D01*
X35831Y227587D01*
X35497Y227740D01*
X35166Y227902D01*
X34839Y228071D01*
X34517Y228249D01*
X34198Y228434D01*
X33885Y228627D01*
X33576Y228828D01*
X33273Y229036D01*
X32975Y229252D01*
X32682Y229475D01*
X32394Y229705D01*
X32112Y229942D01*
X31837Y230186D01*
X31567Y230436D01*
X31303Y230693D01*
X31046Y230957D01*
X30796Y231227D01*
X30552Y231502D01*
X30315Y231784D01*
X30085Y232072D01*
X29862Y232365D01*
X29646Y232663D01*
X29438Y232966D01*
X29237Y233275D01*
X29044Y233588D01*
X28859Y233907D01*
X28681Y234229D01*
X28512Y234556D01*
X28350Y234887D01*
X28197Y235221D01*
X28052Y235560D01*
X27915Y235902D01*
X27787Y236247D01*
X27667Y236595D01*
X27556Y236946D01*
X27453Y237299D01*
X27360Y237655D01*
X27274Y238013D01*
X27198Y238374D01*
X27131Y238736D01*
X27072Y239099D01*
X27023Y239464D01*
X26982Y239830D01*
X26951Y240197D01*
X26928Y240564D01*
X26915Y240932D01*
X26910Y241300D01*
D12*
X0Y0D02*
X660400Y0D01*
X660400Y304800D01*
X0Y304800D01*
X0Y0D01*
X407800Y146963D02*
X407732Y146443D01*
X407596Y145936D01*
X407395Y145452D01*
X407133Y144998D01*
X406814Y144582D01*
X406443Y144211D01*
X406027Y143892D01*
X405573Y143630D01*
X405089Y143429D01*
X404582Y143293D01*
X404062Y143225D01*
X403538Y143225D01*
X403018Y143293D01*
X402511Y143429D01*
X402027Y143630D01*
X401573Y143892D01*
X401157Y144211D01*
X400786Y144582D01*
X400467Y144998D01*
X400205Y145452D01*
X400004Y145936D01*
X399868Y146443D01*
X399800Y146963D01*
X399800Y147487D01*
X399868Y148007D01*
X400004Y148514D01*
X400205Y148998D01*
X400467Y149452D01*
X400786Y149868D01*
X401157Y150239D01*
X401573Y150558D01*
X402027Y150820D01*
X402511Y151021D01*
X403018Y151157D01*
X403538Y151225D01*
X404062Y151225D01*
X404582Y151157D01*
X405089Y151021D01*
X405573Y150820D01*
X406027Y150558D01*
X406443Y150239D01*
X406814Y149868D01*
X407133Y149452D01*
X407395Y148998D01*
X407596Y148514D01*
X407732Y148007D01*
X407800Y147487D01*
X407800Y146963D01*
X463800Y146963D02*
X463732Y146443D01*
X463596Y145936D01*
X463395Y145452D01*
X463133Y144998D01*
X462814Y144582D01*
X462443Y144211D01*
X462027Y143892D01*
X461573Y143630D01*
X461089Y143429D01*
X460582Y143293D01*
X460062Y143225D01*
X459538Y143225D01*
X459018Y143293D01*
X458511Y143429D01*
X458027Y143630D01*
X457573Y143892D01*
X457157Y144211D01*
X456786Y144582D01*
X456467Y144998D01*
X456205Y145452D01*
X456004Y145936D01*
X455868Y146443D01*
X455800Y146963D01*
X455800Y147487D01*
X455868Y148007D01*
X456004Y148514D01*
X456205Y148998D01*
X456467Y149452D01*
X456786Y149868D01*
X457157Y150239D01*
X457573Y150558D01*
X458027Y150820D01*
X458511Y151021D01*
X459018Y151157D01*
X459538Y151225D01*
X460062Y151225D01*
X460582Y151157D01*
X461089Y151021D01*
X461573Y150820D01*
X462027Y150558D01*
X462443Y150239D01*
X462814Y149868D01*
X463133Y149452D01*
X463395Y148998D01*
X463596Y148514D01*
X463732Y148007D01*
X463800Y147487D01*
X463800Y146963D01*
X534800Y146963D02*
X534732Y146443D01*
X534596Y145936D01*
X534395Y145452D01*
X534133Y144998D01*
X533814Y144582D01*
X533443Y144211D01*
X533027Y143892D01*
X532573Y143630D01*
X532089Y143429D01*
X531582Y143293D01*
X531062Y143225D01*
X530538Y143225D01*
X530018Y143293D01*
X529511Y143429D01*
X529027Y143630D01*
X528573Y143892D01*
X528157Y144211D01*
X527786Y144582D01*
X527467Y144998D01*
X527205Y145452D01*
X527004Y145936D01*
X526868Y146443D01*
X526800Y146963D01*
X526800Y147487D01*
X526868Y148007D01*
X527004Y148514D01*
X527205Y148998D01*
X527467Y149452D01*
X527786Y149868D01*
X528157Y150239D01*
X528573Y150558D01*
X529027Y150820D01*
X529511Y151021D01*
X530018Y151157D01*
X530538Y151225D01*
X531062Y151225D01*
X531582Y151157D01*
X532089Y151021D01*
X532573Y150820D01*
X533027Y150558D01*
X533443Y150239D01*
X533814Y149868D01*
X534133Y149452D01*
X534395Y148998D01*
X534596Y148514D01*
X534732Y148007D01*
X534800Y147487D01*
X534800Y146963D01*
X590800Y146963D02*
X590732Y146443D01*
X590596Y145936D01*
X590395Y145452D01*
X590133Y144998D01*
X589814Y144582D01*
X589443Y144211D01*
X589027Y143892D01*
X588573Y143630D01*
X588089Y143429D01*
X587582Y143293D01*
X587062Y143225D01*
X586538Y143225D01*
X586018Y143293D01*
X585511Y143429D01*
X585027Y143630D01*
X584573Y143892D01*
X584157Y144211D01*
X583786Y144582D01*
X583467Y144998D01*
X583205Y145452D01*
X583004Y145936D01*
X582868Y146443D01*
X582800Y146963D01*
X582800Y147487D01*
X582868Y148007D01*
X583004Y148514D01*
X583205Y148998D01*
X583467Y149452D01*
X583786Y149868D01*
X584157Y150239D01*
X584573Y150558D01*
X585027Y150820D01*
X585511Y151021D01*
X586018Y151157D01*
X586538Y151225D01*
X587062Y151225D01*
X587582Y151157D01*
X588089Y151021D01*
X588573Y150820D01*
X589027Y150558D01*
X589443Y150239D01*
X589814Y149868D01*
X590133Y149452D01*
X590395Y148998D01*
X590596Y148514D01*
X590732Y148007D01*
X590800Y147487D01*
X590800Y146963D01*
X407800Y210463D02*
X407732Y209943D01*
X407596Y209436D01*
X407395Y208952D01*
X407133Y208498D01*
X406814Y208082D01*
X406443Y207711D01*
X406027Y207392D01*
X405573Y207130D01*
X405089Y206929D01*
X404582Y206793D01*
X404062Y206725D01*
X403538Y206725D01*
X403018Y206793D01*
X402511Y206929D01*
X402027Y207130D01*
X401573Y207392D01*
X401157Y207711D01*
X400786Y208082D01*
X400467Y208498D01*
X400205Y208952D01*
X400004Y209436D01*
X399868Y209943D01*
X399800Y210463D01*
X399800Y210987D01*
X399868Y211507D01*
X400004Y212014D01*
X400205Y212498D01*
X400467Y212952D01*
X400786Y213368D01*
X401157Y213739D01*
X401573Y214058D01*
X402027Y214320D01*
X402511Y214521D01*
X403018Y214657D01*
X403538Y214725D01*
X404062Y214725D01*
X404582Y214657D01*
X405089Y214521D01*
X405573Y214320D01*
X406027Y214058D01*
X406443Y213739D01*
X406814Y213368D01*
X407133Y212952D01*
X407395Y212498D01*
X407596Y212014D01*
X407732Y211507D01*
X407800Y210987D01*
X407800Y210463D01*
X463800Y210463D02*
X463732Y209943D01*
X463596Y209436D01*
X463395Y208952D01*
X463133Y208498D01*
X462814Y208082D01*
X462443Y207711D01*
X462027Y207392D01*
X461573Y207130D01*
X461089Y206929D01*
X460582Y206793D01*
X460062Y206725D01*
X459538Y206725D01*
X459018Y206793D01*
X458511Y206929D01*
X458027Y207130D01*
X457573Y207392D01*
X457157Y207711D01*
X456786Y208082D01*
X456467Y208498D01*
X456205Y208952D01*
X456004Y209436D01*
X455868Y209943D01*
X455800Y210463D01*
X455800Y210987D01*
X455868Y211507D01*
X456004Y212014D01*
X456205Y212498D01*
X456467Y212952D01*
X456786Y213368D01*
X457157Y213739D01*
X457573Y214058D01*
X458027Y214320D01*
X458511Y214521D01*
X459018Y214657D01*
X459538Y214725D01*
X460062Y214725D01*
X460582Y214657D01*
X461089Y214521D01*
X461573Y214320D01*
X462027Y214058D01*
X462443Y213739D01*
X462814Y213368D01*
X463133Y212952D01*
X463395Y212498D01*
X463596Y212014D01*
X463732Y211507D01*
X463800Y210987D01*
X463800Y210463D01*
X534800Y210463D02*
X534732Y209943D01*
X534596Y209436D01*
X534395Y208952D01*
X534133Y208498D01*
X533814Y208082D01*
X533443Y207711D01*
X533027Y207392D01*
X532573Y207130D01*
X532089Y206929D01*
X531582Y206793D01*
X531062Y206725D01*
X530538Y206725D01*
X530018Y206793D01*
X529511Y206929D01*
X529027Y207130D01*
X528573Y207392D01*
X528157Y207711D01*
X527786Y208082D01*
X527467Y208498D01*
X527205Y208952D01*
X527004Y209436D01*
X526868Y209943D01*
X526800Y210463D01*
X526800Y210987D01*
X526868Y211507D01*
X527004Y212014D01*
X527205Y212498D01*
X527467Y212952D01*
X527786Y213368D01*
X528157Y213739D01*
X528573Y214058D01*
X529027Y214320D01*
X529511Y214521D01*
X530018Y214657D01*
X530538Y214725D01*
X531062Y214725D01*
X531582Y214657D01*
X532089Y214521D01*
X532573Y214320D01*
X533027Y214058D01*
X533443Y213739D01*
X533814Y213368D01*
X534133Y212952D01*
X534395Y212498D01*
X534596Y212014D01*
X534732Y211507D01*
X534800Y210987D01*
X534800Y210463D01*
X590800Y210463D02*
X590732Y209943D01*
X590596Y209436D01*
X590395Y208952D01*
X590133Y208498D01*
X589814Y208082D01*
X589443Y207711D01*
X589027Y207392D01*
X588573Y207130D01*
X588089Y206929D01*
X587582Y206793D01*
X587062Y206725D01*
X586538Y206725D01*
X586018Y206793D01*
X585511Y206929D01*
X585027Y207130D01*
X584573Y207392D01*
X584157Y207711D01*
X583786Y208082D01*
X583467Y208498D01*
X583205Y208952D01*
X583004Y209436D01*
X582868Y209943D01*
X582800Y210463D01*
X582800Y210987D01*
X582868Y211507D01*
X583004Y212014D01*
X583205Y212498D01*
X583467Y212952D01*
X583786Y213368D01*
X584157Y213739D01*
X584573Y214058D01*
X585027Y214320D01*
X585511Y214521D01*
X586018Y214657D01*
X586538Y214725D01*
X587062Y214725D01*
X587582Y214657D01*
X588089Y214521D01*
X588573Y214320D01*
X589027Y214058D01*
X589443Y213739D01*
X589814Y213368D01*
X590133Y212952D01*
X590395Y212498D01*
X590596Y212014D01*
X590732Y211507D01*
X590800Y210987D01*
X590800Y210463D01*
X407800Y273963D02*
X407732Y273443D01*
X407596Y272936D01*
X407395Y272452D01*
X407133Y271998D01*
X406814Y271582D01*
X406443Y271211D01*
X406027Y270892D01*
X405573Y270630D01*
X405089Y270429D01*
X404582Y270293D01*
X404062Y270225D01*
X403538Y270225D01*
X403018Y270293D01*
X402511Y270429D01*
X402027Y270630D01*
X401573Y270892D01*
X401157Y271211D01*
X400786Y271582D01*
X400467Y271998D01*
X400205Y272452D01*
X400004Y272936D01*
X399868Y273443D01*
X399800Y273963D01*
X399800Y274487D01*
X399868Y275007D01*
X400004Y275514D01*
X400205Y275998D01*
X400467Y276452D01*
X400786Y276868D01*
X401157Y277239D01*
X401573Y277558D01*
X402027Y277820D01*
X402511Y278021D01*
X403018Y278157D01*
X403538Y278225D01*
X404062Y278225D01*
X404582Y278157D01*
X405089Y278021D01*
X405573Y277820D01*
X406027Y277558D01*
X406443Y277239D01*
X406814Y276868D01*
X407133Y276452D01*
X407395Y275998D01*
X407596Y275514D01*
X407732Y275007D01*
X407800Y274487D01*
X407800Y273963D01*
X463800Y273963D02*
X463732Y273443D01*
X463596Y272936D01*
X463395Y272452D01*
X463133Y271998D01*
X462814Y271582D01*
X462443Y271211D01*
X462027Y270892D01*
X461573Y270630D01*
X461089Y270429D01*
X460582Y270293D01*
X460062Y270225D01*
X459538Y270225D01*
X459018Y270293D01*
X458511Y270429D01*
X458027Y270630D01*
X457573Y270892D01*
X457157Y271211D01*
X456786Y271582D01*
X456467Y271998D01*
X456205Y272452D01*
X456004Y272936D01*
X455868Y273443D01*
X455800Y273963D01*
X455800Y274487D01*
X455868Y275007D01*
X456004Y275514D01*
X456205Y275998D01*
X456467Y276452D01*
X456786Y276868D01*
X457157Y277239D01*
X457573Y277558D01*
X458027Y277820D01*
X458511Y278021D01*
X459018Y278157D01*
X459538Y278225D01*
X460062Y278225D01*
X460582Y278157D01*
X461089Y278021D01*
X461573Y277820D01*
X462027Y277558D01*
X462443Y277239D01*
X462814Y276868D01*
X463133Y276452D01*
X463395Y275998D01*
X463596Y275514D01*
X463732Y275007D01*
X463800Y274487D01*
X463800Y273963D01*
X534800Y273963D02*
X534732Y273443D01*
X534596Y272936D01*
X534395Y272452D01*
X534133Y271998D01*
X533814Y271582D01*
X533443Y271211D01*
X533027Y270892D01*
X532573Y270630D01*
X532089Y270429D01*
X531582Y270293D01*
X531062Y270225D01*
X530538Y270225D01*
X530018Y270293D01*
X529511Y270429D01*
X529027Y270630D01*
X528573Y270892D01*
X528157Y271211D01*
X527786Y271582D01*
X527467Y271998D01*
X527205Y272452D01*
X527004Y272936D01*
X526868Y273443D01*
X526800Y273963D01*
X526800Y274487D01*
X526868Y275007D01*
X527004Y275514D01*
X527205Y275998D01*
X527467Y276452D01*
X527786Y276868D01*
X528157Y277239D01*
X528573Y277558D01*
X529027Y277820D01*
X529511Y278021D01*
X530018Y278157D01*
X530538Y278225D01*
X531062Y278225D01*
X531582Y278157D01*
X532089Y278021D01*
X532573Y277820D01*
X533027Y277558D01*
X533443Y277239D01*
X533814Y276868D01*
X534133Y276452D01*
X534395Y275998D01*
X534596Y275514D01*
X534732Y275007D01*
X534800Y274487D01*
X534800Y273963D01*
X590800Y273963D02*
X590732Y273443D01*
X590596Y272936D01*
X590395Y272452D01*
X590133Y271998D01*
X589814Y271582D01*
X589443Y271211D01*
X589027Y270892D01*
X588573Y270630D01*
X588089Y270429D01*
X587582Y270293D01*
X587062Y270225D01*
X586538Y270225D01*
X586018Y270293D01*
X585511Y270429D01*
X585027Y270630D01*
X584573Y270892D01*
X584157Y271211D01*
X583786Y271582D01*
X583467Y271998D01*
X583205Y272452D01*
X583004Y272936D01*
X582868Y273443D01*
X582800Y273963D01*
X582800Y274487D01*
X582868Y275007D01*
X583004Y275514D01*
X583205Y275998D01*
X583467Y276452D01*
X583786Y276868D01*
X584157Y277239D01*
X584573Y277558D01*
X585027Y277820D01*
X585511Y278021D01*
X586018Y278157D01*
X586538Y278225D01*
X587062Y278225D01*
X587582Y278157D01*
X588089Y278021D01*
X588573Y277820D01*
X589027Y277558D01*
X589443Y277239D01*
X589814Y276868D01*
X590133Y276452D01*
X590395Y275998D01*
X590596Y275514D01*
X590732Y275007D01*
X590800Y274487D01*
X590800Y273963D01*
X318005Y177522D02*
X318073Y178042D01*
X318209Y178549D01*
X318410Y179033D01*
X318672Y179487D01*
X318991Y179903D01*
X319362Y180274D01*
X319778Y180593D01*
X320232Y180855D01*
X320716Y181056D01*
X321223Y181192D01*
X321743Y181260D01*
X322267Y181260D01*
X322787Y181192D01*
X323294Y181056D01*
X323778Y180855D01*
X324232Y180593D01*
X324648Y180274D01*
X325019Y179903D01*
X325338Y179487D01*
X325600Y179033D01*
X325801Y178549D01*
X325937Y178042D01*
X326005Y177522D01*
X326005Y176998D01*
X325937Y176478D01*
X325801Y175971D01*
X325600Y175487D01*
X325338Y175033D01*
X325019Y174617D01*
X324648Y174246D01*
X324232Y173927D01*
X323778Y173665D01*
X323294Y173464D01*
X322787Y173328D01*
X322267Y173260D01*
X321743Y173260D01*
X321223Y173328D01*
X320716Y173464D01*
X320232Y173665D01*
X319778Y173927D01*
X319362Y174246D01*
X318991Y174617D01*
X318672Y175033D01*
X318410Y175487D01*
X318209Y175971D01*
X318073Y176478D01*
X318005Y176998D01*
X318005Y177522D01*
X262005Y177522D02*
X262073Y178042D01*
X262209Y178549D01*
X262410Y179033D01*
X262672Y179487D01*
X262991Y179903D01*
X263362Y180274D01*
X263778Y180593D01*
X264232Y180855D01*
X264716Y181056D01*
X265223Y181192D01*
X265743Y181260D01*
X266267Y181260D01*
X266787Y181192D01*
X267294Y181056D01*
X267778Y180855D01*
X268232Y180593D01*
X268648Y180274D01*
X269019Y179903D01*
X269338Y179487D01*
X269600Y179033D01*
X269801Y178549D01*
X269937Y178042D01*
X270005Y177522D01*
X270005Y176998D01*
X269937Y176478D01*
X269801Y175971D01*
X269600Y175487D01*
X269338Y175033D01*
X269019Y174617D01*
X268648Y174246D01*
X268232Y173927D01*
X267778Y173665D01*
X267294Y173464D01*
X266787Y173328D01*
X266267Y173260D01*
X265743Y173260D01*
X265223Y173328D01*
X264716Y173464D01*
X264232Y173665D01*
X263778Y173927D01*
X263362Y174246D01*
X262991Y174617D01*
X262672Y175033D01*
X262410Y175487D01*
X262209Y175971D01*
X262073Y176478D01*
X262005Y176998D01*
X262005Y177522D01*
X323720Y73382D02*
X323788Y73902D01*
X323924Y74409D01*
X324125Y74893D01*
X324387Y75347D01*
X324706Y75763D01*
X325077Y76134D01*
X325493Y76453D01*
X325947Y76715D01*
X326431Y76916D01*
X326938Y77052D01*
X327458Y77120D01*
X327982Y77120D01*
X328502Y77052D01*
X329009Y76916D01*
X329493Y76715D01*
X329947Y76453D01*
X330363Y76134D01*
X330734Y75763D01*
X331053Y75347D01*
X331315Y74893D01*
X331516Y74409D01*
X331652Y73902D01*
X331720Y73382D01*
X331720Y72858D01*
X331652Y72338D01*
X331516Y71831D01*
X331315Y71347D01*
X331053Y70893D01*
X330734Y70477D01*
X330363Y70106D01*
X329947Y69787D01*
X329493Y69525D01*
X329009Y69324D01*
X328502Y69188D01*
X327982Y69120D01*
X327458Y69120D01*
X326938Y69188D01*
X326431Y69324D01*
X325947Y69525D01*
X325493Y69787D01*
X325077Y70106D01*
X324706Y70477D01*
X324387Y70893D01*
X324125Y71347D01*
X323924Y71831D01*
X323788Y72338D01*
X323720Y72858D01*
X323720Y73382D01*
X267720Y73382D02*
X267788Y73902D01*
X267924Y74409D01*
X268125Y74893D01*
X268387Y75347D01*
X268706Y75763D01*
X269077Y76134D01*
X269493Y76453D01*
X269947Y76715D01*
X270431Y76916D01*
X270938Y77052D01*
X271458Y77120D01*
X271982Y77120D01*
X272502Y77052D01*
X273009Y76916D01*
X273493Y76715D01*
X273947Y76453D01*
X274363Y76134D01*
X274734Y75763D01*
X275053Y75347D01*
X275315Y74893D01*
X275516Y74409D01*
X275652Y73902D01*
X275720Y73382D01*
X275720Y72858D01*
X275652Y72338D01*
X275516Y71831D01*
X275315Y71347D01*
X275053Y70893D01*
X274734Y70477D01*
X274363Y70106D01*
X273947Y69787D01*
X273493Y69525D01*
X273009Y69324D01*
X272502Y69188D01*
X271982Y69120D01*
X271458Y69120D01*
X270938Y69188D01*
X270431Y69324D01*
X269947Y69525D01*
X269493Y69787D01*
X269077Y70106D01*
X268706Y70477D01*
X268387Y70893D01*
X268125Y71347D01*
X267924Y71831D01*
X267788Y72338D01*
X267720Y72858D01*
X267720Y73382D01*
X318640Y241022D02*
X318708Y241542D01*
X318844Y242049D01*
X319045Y242533D01*
X319307Y242987D01*
X319626Y243403D01*
X319997Y243774D01*
X320413Y244093D01*
X320867Y244355D01*
X321351Y244556D01*
X321858Y244692D01*
X322378Y244760D01*
X322902Y244760D01*
X323422Y244692D01*
X323929Y244556D01*
X324413Y244355D01*
X324867Y244093D01*
X325283Y243774D01*
X325654Y243403D01*
X325973Y242987D01*
X326235Y242533D01*
X326436Y242049D01*
X326572Y241542D01*
X326640Y241022D01*
X326640Y240498D01*
X326572Y239978D01*
X326436Y239471D01*
X326235Y238987D01*
X325973Y238533D01*
X325654Y238117D01*
X325283Y237746D01*
X324867Y237427D01*
X324413Y237165D01*
X323929Y236964D01*
X323422Y236828D01*
X322902Y236760D01*
X322378Y236760D01*
X321858Y236828D01*
X321351Y236964D01*
X320867Y237165D01*
X320413Y237427D01*
X319997Y237746D01*
X319626Y238117D01*
X319307Y238533D01*
X319045Y238987D01*
X318844Y239471D01*
X318708Y239978D01*
X318640Y240498D01*
X318640Y241022D01*
X262640Y241022D02*
X262708Y241542D01*
X262844Y242049D01*
X263045Y242533D01*
X263307Y242987D01*
X263626Y243403D01*
X263997Y243774D01*
X264413Y244093D01*
X264867Y244355D01*
X265351Y244556D01*
X265858Y244692D01*
X266378Y244760D01*
X266902Y244760D01*
X267422Y244692D01*
X267929Y244556D01*
X268413Y244355D01*
X268867Y244093D01*
X269283Y243774D01*
X269654Y243403D01*
X269973Y242987D01*
X270235Y242533D01*
X270436Y242049D01*
X270572Y241542D01*
X270640Y241022D01*
X270640Y240498D01*
X270572Y239978D01*
X270436Y239471D01*
X270235Y238987D01*
X269973Y238533D01*
X269654Y238117D01*
X269283Y237746D01*
X268867Y237427D01*
X268413Y237165D01*
X267929Y236964D01*
X267422Y236828D01*
X266902Y236760D01*
X266378Y236760D01*
X265858Y236828D01*
X265351Y236964D01*
X264867Y237165D01*
X264413Y237427D01*
X263997Y237746D01*
X263626Y238117D01*
X263307Y238533D01*
X263045Y238987D01*
X262844Y239471D01*
X262708Y239978D01*
X262640Y240498D01*
X262640Y241022D01*
X173750Y50264D02*
X173674Y49196D01*
X173521Y48135D01*
X173293Y47088D01*
X172991Y46060D01*
X172617Y45056D01*
X172172Y44081D01*
X171658Y43141D01*
X171079Y42240D01*
X170437Y41382D01*
X169735Y40572D01*
X168978Y39815D01*
X168168Y39113D01*
X167310Y38471D01*
X166409Y37892D01*
X165469Y37378D01*
X164494Y36933D01*
X163490Y36559D01*
X162462Y36257D01*
X161415Y36029D01*
X160354Y35876D01*
X159286Y35800D01*
X158214Y35800D01*
X157146Y35876D01*
X156085Y36029D01*
X155038Y36257D01*
X154010Y36559D01*
X153006Y36933D01*
X152031Y37378D01*
X151091Y37892D01*
X150190Y38471D01*
X149332Y39113D01*
X148522Y39815D01*
X147765Y40572D01*
X147063Y41382D01*
X146421Y42240D01*
X145842Y43141D01*
X145328Y44081D01*
X144883Y45056D01*
X144509Y46060D01*
X144207Y47088D01*
X143979Y48135D01*
X143826Y49196D01*
X143750Y50264D01*
X143750Y51336D01*
X143826Y52404D01*
X143979Y53465D01*
X144207Y54512D01*
X144509Y55540D01*
X144883Y56544D01*
X145328Y57519D01*
X145842Y58459D01*
X146421Y59360D01*
X147063Y60218D01*
X147765Y61028D01*
X148522Y61785D01*
X149332Y62487D01*
X150190Y63129D01*
X151091Y63708D01*
X152031Y64222D01*
X153006Y64667D01*
X154010Y65041D01*
X155038Y65343D01*
X156085Y65571D01*
X157146Y65724D01*
X158214Y65800D01*
X159286Y65800D01*
X160354Y65724D01*
X161415Y65571D01*
X162462Y65343D01*
X163490Y65041D01*
X164494Y64667D01*
X165469Y64222D01*
X166409Y63708D01*
X167310Y63129D01*
X168168Y62487D01*
X168978Y61785D01*
X169735Y61028D01*
X170437Y60218D01*
X171079Y59360D01*
X171658Y58459D01*
X172172Y57519D01*
X172617Y56544D01*
X172991Y55540D01*
X173293Y54512D01*
X173521Y53465D01*
X173674Y52404D01*
X173750Y51336D01*
X173750Y50264D01*
X491250Y50264D02*
X491174Y49196D01*
X491021Y48135D01*
X490793Y47088D01*
X490491Y46060D01*
X490117Y45056D01*
X489672Y44081D01*
X489158Y43141D01*
X488579Y42240D01*
X487937Y41382D01*
X487235Y40572D01*
X486478Y39815D01*
X485668Y39113D01*
X484810Y38471D01*
X483909Y37892D01*
X482969Y37378D01*
X481994Y36933D01*
X480990Y36559D01*
X479962Y36257D01*
X478915Y36029D01*
X477854Y35876D01*
X476786Y35800D01*
X475714Y35800D01*
X474646Y35876D01*
X473585Y36029D01*
X472538Y36257D01*
X471510Y36559D01*
X470506Y36933D01*
X469531Y37378D01*
X468591Y37892D01*
X467690Y38471D01*
X466832Y39113D01*
X466022Y39815D01*
X465265Y40572D01*
X464563Y41382D01*
X463921Y42240D01*
X463342Y43141D01*
X462828Y44081D01*
X462383Y45056D01*
X462009Y46060D01*
X461707Y47088D01*
X461479Y48135D01*
X461326Y49196D01*
X461250Y50264D01*
X461250Y51336D01*
X461326Y52404D01*
X461479Y53465D01*
X461707Y54512D01*
X462009Y55540D01*
X462383Y56544D01*
X462828Y57519D01*
X463342Y58459D01*
X463921Y59360D01*
X464563Y60218D01*
X465265Y61028D01*
X466022Y61785D01*
X466832Y62487D01*
X467690Y63129D01*
X468591Y63708D01*
X469531Y64222D01*
X470506Y64667D01*
X471510Y65041D01*
X472538Y65343D01*
X473585Y65571D01*
X474646Y65724D01*
X475714Y65800D01*
X476786Y65800D01*
X477854Y65724D01*
X478915Y65571D01*
X479962Y65343D01*
X480990Y65041D01*
X481994Y64667D01*
X482969Y64222D01*
X483909Y63708D01*
X484810Y63129D01*
X485668Y62487D01*
X486478Y61785D01*
X487235Y61028D01*
X487937Y60218D01*
X488579Y59360D01*
X489158Y58459D01*
X489672Y57519D01*
X490117Y56544D01*
X490491Y55540D01*
X490793Y54512D01*
X491021Y53465D01*
X491174Y52404D01*
X491250Y51336D01*
X491250Y50264D01*
X56910Y240764D02*
X56834Y239696D01*
X56681Y238635D01*
X56453Y237588D01*
X56151Y236560D01*
X55777Y235556D01*
X55332Y234581D01*
X54818Y233641D01*
X54239Y232740D01*
X53597Y231882D01*
X52895Y231072D01*
X52138Y230315D01*
X51328Y229613D01*
X50470Y228971D01*
X49569Y228392D01*
X48629Y227878D01*
X47654Y227433D01*
X46650Y227059D01*
X45622Y226757D01*
X44575Y226529D01*
X43514Y226376D01*
X42446Y226300D01*
X41374Y226300D01*
X40306Y226376D01*
X39245Y226529D01*
X38198Y226757D01*
X37170Y227059D01*
X36166Y227433D01*
X35191Y227878D01*
X34251Y228392D01*
X33350Y228971D01*
X32492Y229613D01*
X31682Y230315D01*
X30925Y231072D01*
X30223Y231882D01*
X29581Y232740D01*
X29002Y233641D01*
X28488Y234581D01*
X28043Y235556D01*
X27669Y236560D01*
X27367Y237588D01*
X27139Y238635D01*
X26986Y239696D01*
X26910Y240764D01*
X26910Y241836D01*
X26986Y242904D01*
X27139Y243965D01*
X27367Y245012D01*
X27669Y246040D01*
X28043Y247044D01*
X28488Y248019D01*
X29002Y248959D01*
X29581Y249860D01*
X30223Y250718D01*
X30925Y251528D01*
X31682Y252285D01*
X32492Y252987D01*
X33350Y253629D01*
X34251Y254208D01*
X35191Y254722D01*
X36166Y255167D01*
X37170Y255541D01*
X38198Y255843D01*
X39245Y256071D01*
X40306Y256224D01*
X41374Y256300D01*
X42446Y256300D01*
X43514Y256224D01*
X44575Y256071D01*
X45622Y255843D01*
X46650Y255541D01*
X47654Y255167D01*
X48629Y254722D01*
X49569Y254208D01*
X50470Y253629D01*
X51328Y252987D01*
X52138Y252285D01*
X52895Y251528D01*
X53597Y250718D01*
X54239Y249860D01*
X54818Y248959D01*
X55332Y248019D01*
X55777Y247044D01*
X56151Y246040D01*
X56453Y245012D01*
X56681Y243965D01*
X56834Y242904D01*
X56910Y241836D01*
X56910Y240764D01*
M02*
