G04 EAGLE Gerber RS-274X export*
G75*
%MOMM*%
%FSLAX34Y34*%
%LPD*%
%INSoldermask Bottom*%
%IPPOS*%
%AMOC8*
5,1,8,0,0,1.08239X$1,22.5*%
G01*
%ADD10C,2.082800*%
%ADD11C,1.981200*%
%ADD12C,2.857500*%
%ADD13C,3.203200*%
%ADD14C,1.422400*%
%ADD15R,1.006400X1.006400*%
%ADD16C,0.959600*%


D10*
X25400Y304800D03*
X25400Y330200D03*
X25400Y355600D03*
X25400Y241300D03*
X25400Y215900D03*
X25400Y190500D03*
X25400Y165100D03*
X25400Y139700D03*
X25400Y114300D03*
D11*
X222758Y88900D03*
X192786Y88900D03*
X162814Y88900D03*
X132842Y88900D03*
D12*
X111252Y45720D03*
X244348Y45720D03*
D11*
X385572Y88900D03*
X355600Y88900D03*
X325628Y88900D03*
D12*
X304165Y45720D03*
X407035Y45720D03*
D13*
X38100Y38100D03*
X787400Y38100D03*
X38100Y469900D03*
X787400Y469900D03*
D14*
X317500Y476504D02*
X317500Y488696D01*
X342900Y486156D02*
X342900Y473964D01*
X368300Y476504D02*
X368300Y488696D01*
X393700Y486156D02*
X393700Y473964D01*
X419100Y476504D02*
X419100Y488696D01*
X444500Y486156D02*
X444500Y473964D01*
X487680Y476504D02*
X487680Y488696D01*
X515620Y488696D02*
X515620Y476504D01*
X95250Y477774D02*
X95250Y489966D01*
X120650Y487426D02*
X120650Y475234D01*
X146050Y477774D02*
X146050Y489966D01*
X171450Y487426D02*
X171450Y475234D01*
X196850Y477774D02*
X196850Y489966D01*
X222250Y487426D02*
X222250Y475234D01*
X247650Y477774D02*
X247650Y489966D01*
X273050Y487426D02*
X273050Y475234D01*
X31496Y386080D02*
X19304Y386080D01*
X19304Y414020D02*
X31496Y414020D01*
D10*
X660400Y44450D03*
X685800Y44450D03*
X711200Y44450D03*
X196850Y406400D03*
X196850Y381000D03*
X171450Y406400D03*
X171450Y381000D03*
X146050Y406400D03*
X146050Y381000D03*
X525780Y158750D03*
X528320Y184150D03*
X525780Y209550D03*
X528320Y234950D03*
X525780Y260350D03*
X528320Y285750D03*
X525780Y311150D03*
X805180Y158750D03*
X807720Y184150D03*
X805180Y209550D03*
X807720Y234950D03*
X805180Y260350D03*
X807720Y285750D03*
X805180Y311150D03*
D15*
X577850Y311150D03*
X577850Y285750D03*
X577850Y260350D03*
X577850Y234950D03*
X577850Y209550D03*
X577850Y184150D03*
X577850Y158750D03*
X755650Y158750D03*
X755650Y184150D03*
X755650Y209550D03*
X755650Y234950D03*
X755650Y260350D03*
X755650Y285750D03*
X755650Y311150D03*
D10*
X215900Y24130D03*
X190500Y26670D03*
X165100Y24130D03*
X139700Y26670D03*
X381000Y25400D03*
X355600Y25400D03*
X330200Y25400D03*
X139700Y172720D03*
X165100Y170180D03*
X190500Y172720D03*
X215900Y170180D03*
D14*
X589280Y476504D02*
X589280Y488696D01*
X617220Y488696D02*
X617220Y476504D01*
D16*
X254000Y381000D03*
X323850Y241300D03*
X266700Y177800D03*
X311150Y139700D03*
X165100Y247650D03*
X177800Y444500D03*
X228600Y444500D03*
X279400Y444500D03*
X133350Y457200D03*
X158750Y215900D03*
X450850Y25400D03*
X552450Y25400D03*
X565150Y76200D03*
X603250Y19050D03*
X107950Y190500D03*
X450850Y76200D03*
X381000Y273050D03*
X476250Y273050D03*
X381000Y387350D03*
X419100Y241300D03*
X431800Y241300D03*
X444500Y241300D03*
X419100Y419100D03*
X431800Y419100D03*
X444500Y419100D03*
X406400Y393700D03*
X406400Y260350D03*
X501650Y406400D03*
X457200Y393700D03*
X393700Y361950D03*
X469900Y361950D03*
X234950Y463550D03*
X158750Y292834D03*
X139700Y260350D03*
X184150Y292834D03*
X158750Y260350D03*
X381000Y107950D03*
X238816Y234950D03*
X330200Y116558D03*
X231224Y218012D03*
X234950Y114300D03*
X247650Y172692D03*
X298450Y144808D03*
X374650Y298450D03*
X482600Y311150D03*
X254000Y234950D03*
X233708Y355600D03*
X273050Y196850D03*
X228600Y387350D03*
X285750Y203200D03*
X298450Y127000D03*
X615950Y153134D03*
X317500Y342900D03*
X222250Y323850D03*
X248192Y254000D03*
X255558Y179358D03*
X393700Y152400D03*
X374650Y425450D03*
X152400Y304800D03*
X122196Y269300D03*
X88900Y298450D03*
X171450Y260350D03*
X120650Y298450D03*
X171450Y330200D03*
X201958Y266474D03*
X285750Y165100D03*
X327055Y390555D03*
X317500Y304800D03*
X349250Y285750D03*
X304800Y304800D03*
X438150Y222250D03*
X317500Y317500D03*
X482600Y323850D03*
X209550Y254000D03*
X190500Y330200D03*
X222250Y241300D03*
X241300Y410787D03*
X114300Y209550D03*
M02*
